<?xml version="1.0" encoding="UTF-8"?>
<svg width="17px" height="14px" viewBox="0 0 17 14" version="1.1" xmlns="http://www.w3.org/2000/svg" xmlns:xlink="http://www.w3.org/1999/xlink">
    <title>Icons/Car Copy</title>
    <defs>
        <path d="M12.1237321,8.8817842e-16 C12.8107399,8.8817842e-16 13.4674466,0.493080986 13.7208737,1.19882036 L13.7208737,1.19882036 L14.3279969,2.91055514 L16.1400006,2.91055514 C16.6463039,2.91055514 17,3.28243186 17,3.81462877 L17,3.81462877 L17,4.74900347 C17,5.27899666 16.6463039,5.64866967 16.1400006,5.64866967 L16.1400006,5.64866967 L16.1289821,5.64866967 C16.314645,5.90374955 16.4182195,6.23375571 16.4182195,6.60232686 L16.4182195,6.60232686 L16.4182195,12.3270247 C16.4182195,12.8509576 16.060116,13.2162232 15.5477525,13.2162232 L15.5477525,13.2162232 L13.6139936,13.2162232 C13.0856532,13.2162232 12.5154422,12.8763004 12.5154422,12.3270247 L12.5154422,12.3270247 L12.5154422,11.7017208 L13.5071135,11.7017208 L13.5071135,12.2036167 C13.5401692,12.2151862 13.5809379,12.224552 13.6139936,12.224552 L13.6139936,12.224552 L15.4254464,12.224552 L15.4265483,9.66438734 L15.4265483,9.14155621 L13.3247561,9.14155621 C12.9203746,9.14155621 12.5732897,8.87325404 12.4713679,8.4854004 L12.4713679,8.4854004 L12.2036167,7.67057718 C12.1986583,7.65625304 12.1948018,7.6419289 12.1914963,7.62705383 C12.1226302,7.32845059 12.1887416,7.02378715 12.3738536,6.79129533 C12.5694332,6.54447937 12.8735457,6.40344168 13.2079593,6.40344168 L13.2079593,6.40344168 L15.4006546,6.40344168 C15.3758629,6.30813106 15.3356451,6.22879736 15.2777976,6.17756101 L15.2777976,6.17756101 L14.3908027,5.35777943 L2.75849888,5.35777943 L1.78996662,6.19904722 C1.72110056,6.25964935 1.66600771,6.33071912 1.62854458,6.40344168 L1.62854458,6.40344168 L3.86751791,6.40344168 C4.20193149,6.40344168 4.50604401,6.54447937 4.70217455,6.79129533 C4.88673559,7.02378715 4.95339793,7.32845059 4.88453187,7.62705383 C4.8812263,7.6419289 4.87681887,7.65625304 4.87241145,7.67057718 L4.87241145,7.67057718 L4.60410928,8.4854004 C4.50218751,8.87325404 4.15510257,9.14155621 3.75072107,9.14155621 L3.75072107,9.14155621 L1.57400266,9.14155621 L1.57400266,12.2234501 C1.58006287,12.224552 1.58667401,12.224552 1.59328515,12.224552 L3.49288654,12.224552 L3.49288654,11.7017208 L4.4845578,11.7017208 L4.4845578,12.3270247 C4.4845578,12.8344298 4.0724633,13.2162232 3.52649318,13.2162232 L3.52649318,13.2162232 L1.59328515,13.2162232 C1.09634767,13.2162232 0.5823314,12.8840134 0.5823314,12.3270247 L0.5823314,12.3270247 L0.5823314,6.60232686 C0.5823314,6.26515863 0.714554234,5.92909226 0.948147908,5.64866967 L0.948147908,5.64866967 L0.931069125,5.64866967 C0.400525002,5.64866967 1.77635684e-15,5.26191788 1.77635684e-15,4.74900347 L1.77635684e-15,4.74900347 L1.77635684e-15,3.81462877 C1.77635684e-15,3.29951065 0.400525002,2.91055514 0.931069125,2.91055514 L0.931069125,2.91055514 L2.74637846,2.91055514 L3.27416794,1.25281136 C3.50886347,0.526136695 4.19146385,8.8817842e-16 4.89830508,8.8817842e-16 L4.89830508,8.8817842e-16 Z M14.6125514,9.89621804 L14.6125514,10.8878893 L2.38799948,10.8878893 L2.38799948,9.89621804 L14.6125514,9.89621804 Z M15.4265483,7.39511294 L13.2079593,7.39511294 C13.1853712,7.39511294 13.1693943,7.39952037 13.1594776,7.40337687 L13.1594776,7.40337687 L13.4051917,8.14988495 L15.4265483,8.14988495 L15.4265483,7.39511294 Z M3.86751791,7.39511294 L1.57400266,7.39511294 L1.57400266,8.14988495 L3.67028551,8.14988495 L3.91655054,7.40282594 C3.9099394,7.40062223 3.89286062,7.39511294 3.86751791,7.39511294 L3.86751791,7.39511294 Z M16.0083287,3.9022264 L14.6800402,3.9022264 L14.8767217,4.45646045 L15.0937875,4.65699841 L16.0083287,4.65699841 L16.0083287,3.9022264 Z M2.43069644,3.9022264 L0.991671258,3.9022264 L0.991671258,4.65644748 L2.0527595,4.65699841 L2.24282983,4.4922708 L2.43069644,3.9022264 Z M12.1237321,0.991671258 L4.89830508,0.991671258 C4.61898435,0.991671258 4.32038111,1.23903814 4.21845934,1.55527109 L4.21845934,1.55527109 L3.3237515,4.36610818 L13.7919435,4.36610818 L12.786499,1.53213209 C12.6763133,1.224714 12.3909324,0.991671258 12.1237321,0.991671258 L12.1237321,0.991671258 Z" id="path-1"></path>
    </defs>
    <g id="desktop" stroke="none" stroke-width="1" fill="none" fill-rule="evenodd">
        <g id="1.0---home-" transform="translate(-133.000000, -1233.000000)">
            <g id="Group-9" transform="translate(113.000000, 904.000000)">
                <g id="Group" transform="translate(20.000000, 327.000000)">
                    <g id="Color/Liberty-Blue" transform="translate(0.000000, 2.125000)">
                        <mask id="mask-2" fill="white">
                            <use xlink:href="#path-1"></use>
                        </mask>
                        <use id="Mask" fill="#13112B" xlink:href="#path-1"></use>
                        <g id="Group" mask="url(#mask-2)">
                            <g transform="translate(-26.916667, -29.041667)" id="Color/Liberty-Blue">
                                <rect id="Rectangle" fill="#1A1446" x="0" y="0" width="70.8333333" height="70.8333333"></rect>
                            </g>
                        </g>
                    </g>
                </g>
            </g>
        </g>
    </g>
</svg>