<?xml version="1.0" encoding="UTF-8"?>
<svg width="102px" height="102px" viewBox="0 0 102 102" version="1.1" xmlns="http://www.w3.org/2000/svg" xmlns:xlink="http://www.w3.org/1999/xlink">
    <title>Group 3</title>
    <defs>
        <path d="M34.9840768,-3.55271368e-15 C39.2931747,-3.55271368e-15 43.136544,2.24436803 45.263371,6.00789822 L45.263371,6.00789822 L65.0546164,40.2722125 L61.2977395,41.7514551 L41.79702,7.98835341 C40.3798746,5.48007253 37.8361096,3.99195895 34.9840768,3.99195895 C32.1342616,3.99195895 29.5904967,5.48007253 28.1822223,7.97061137 L28.1822223,7.97061137 L5.01333608,48.0831455 C3.62502146,50.5625956 3.65828779,53.5388228 5.11313505,56.0249261 C6.54580476,58.4666743 9.08069869,59.9259571 11.8972475,59.9259571 L11.8972475,59.9259571 L58.070906,59.9259571 C60.9162856,59.9259571 63.4755749,58.4356257 64.9148978,55.9406514 C66.3475676,53.4567658 66.3630918,50.5204582 64.9570352,48.0831455 L64.9570352,48.0831455 L63.6951326,45.8986569 L67.3655171,44.277478 L68.4122974,46.0871661 C70.54356,49.7730748 70.5280357,54.2019315 68.3723778,57.9366309 C66.2100667,61.682419 62.3600441,63.917916 58.070906,63.917916 L58.070906,63.917916 L11.8972475,63.917916 C7.64802898,63.917916 3.82461941,61.7201208 1.66896158,58.0408653 C-0.511091558,54.3194725 -0.557664412,49.8595673 1.54254955,46.1093436 L1.54254955,46.1093436 L24.7158712,5.99015618 C26.8338272,2.24658579 30.6749788,-3.55271368e-15 34.9840768,-3.55271368e-15 Z M37.7912047,46.8115899 L37.7912047,52.1977463 L31.6493493,52.1977463 L31.6493493,46.8115899 L37.7912047,46.8115899 Z M37.993792,16.7136668 L37.227913,42.2614868 L32.1607588,42.2614868 L31.3405271,16.7136668 L37.993792,16.7136668 Z" id="path-1"></path>
    </defs>
    <g id="desktop" stroke="none" stroke-width="1" fill="none" fill-rule="evenodd">
        <g id="1.8---sin-resultados-de-búsqueda" transform="translate(-669.000000, -953.000000)">
            <g id="Group-3" transform="translate(669.000000, 953.000000)">
                <g id="Group-6" fill="#EFFAFC">
                    <circle id="Oval" cx="51" cy="51" r="51"></circle>
                </g>
                <g id="Group" transform="translate(16.000000, 16.000000)">
                    <g id="Color/Liberty-Blue" transform="translate(0.000000, 2.916667)">
                        <mask id="mask-2" fill="white">
                            <use xlink:href="#path-1"></use>
                        </mask>
                        <use id="Mask" fill="#13112B" xlink:href="#path-1"></use>
                        <g id="Group" mask="url(#mask-2)">
                            <g transform="translate(-110.833333, -113.750000)" id="Color/Liberty-Blue">
                                <rect id="Rectangle" fill="#1A1446" x="0" y="0" width="291.666667" height="291.666667"></rect>
                            </g>
                        </g>
                    </g>
                </g>
            </g>
        </g>
    </g>
</svg>