<?xml version="1.0" encoding="utf-8"?>
<!-- Generator: Adobe Illustrator 24.3.0, SVG Export Plug-In . SVG Version: 6.00 Build 0)  -->
<svg version="1.1" id="Capa_1" xmlns="http://www.w3.org/2000/svg" xmlns:xlink="http://www.w3.org/1999/xlink" x="0px" y="0px"
	 viewBox="0 0 32.96 32.96" style="enable-background:new 0 0 32.96 32.96;" xml:space="preserve">
<style type="text/css">
	.st0{fill:#1A1446;}
</style>
<g>
	<path class="st0" d="M25.21,6.78c0.17,0,0.34-0.07,0.45-0.19c0.12-0.12,0.19-0.29,0.19-0.46c0-0.17-0.07-0.34-0.19-0.46
		c-0.12-0.12-0.29-0.19-0.45-0.19c-0.17,0-0.34,0.07-0.46,0.19c-0.12,0.12-0.19,0.29-0.19,0.46c0,0.17,0.07,0.34,0.19,0.46
		C24.88,6.72,25.04,6.78,25.21,6.78z"/>
	<path class="st0" d="M32.62,12.42L27.34,9.6c-0.2-0.11-0.44-0.1-0.63,0.02c-0.19,0.12-0.31,0.33-0.31,0.55v1.74L22.06,9.6
		c-0.2-0.11-0.44-0.1-0.63,0.02s-0.31,0.33-0.31,0.55v1.74L16.78,9.6c-0.2-0.11-0.44-0.1-0.63,0.02c-0.19,0.12-0.31,0.33-0.31,0.55
		v7.08H5.92v-7.08c0-0.36-0.29-0.64-0.64-0.64H4.36V8.62c0-0.15,0.13-0.28,0.28-0.28c0.36,0,0.64-0.29,0.64-0.64
		c0-0.36-0.29-0.64-0.64-0.64c-0.86,0-1.57,0.7-1.57,1.57v0.91H1.93V6.5c0-1.23,1-2.22,2.22-2.22h1.04
		C5.16,4.45,5.13,4.63,5.13,4.82c0,1.36,1.1,2.46,2.46,2.46h2.43c0.36,0,0.64-0.29,0.64-0.64s-0.29-0.64-0.64-0.64H7.59
		c-0.65,0-1.17-0.53-1.17-1.17c0-0.33,0.14-0.65,0.37-0.88C7.02,3.72,7.31,3.6,7.62,3.6c0.17,0,0.33,0.04,0.49,0.12
		C8.26,3.8,8.45,3.8,8.62,3.74c0.17-0.07,0.3-0.2,0.36-0.37c0.48-1.25,1.7-2.08,3.03-2.08c1.35,0,2.55,0.85,3.03,2.07
		c-0.2,0.11-0.38,0.24-0.55,0.38c-0.28,0.25-0.52,0.54-0.7,0.86c-0.17,0.31-0.06,0.7,0.25,0.87c0.1,0.05,0.21,0.08,0.31,0.08
		c0.23,0,0.45-0.12,0.56-0.33c0.11-0.19,0.25-0.37,0.42-0.52c0.2-0.18,0.44-0.31,0.7-0.38c0.17-0.05,0.35-0.08,0.54-0.08
		c1.04,0,1.89,0.85,1.89,1.89c0,0.36,0.29,0.64,0.64,0.64h3.51c0.36,0,0.64-0.29,0.64-0.64S22.98,5.5,22.62,5.5h-2.93
		c-0.3-1.44-1.58-2.53-3.11-2.53c-0.1,0-0.2,0-0.3,0.01C15.63,1.22,13.93,0,12.02,0c-1.66,0-3.19,0.93-3.98,2.36
		c-0.13-0.02-0.26-0.04-0.4-0.04C7,2.3,6.39,2.54,5.92,2.99H4.15c-1.94,0-3.51,1.58-3.51,3.51v3.03C0.29,9.53,0,9.82,0,10.17v22.15
		c0,0.36,0.29,0.64,0.64,0.64h31.67c0.36,0,0.64-0.29,0.64-0.64V12.99C32.96,12.75,32.83,12.53,32.62,12.42z M1.29,13.39h3.35V29.1
		H1.29V13.39z M4.64,12.1H1.29v-1.29h3.35V12.1z M1.29,30.39h3.35v1.29H1.29V30.39z M16.48,31.67H5.92V21.12h5.79
		c0.36,0,0.64-0.29,0.64-0.64c0-0.36-0.29-0.64-0.64-0.64H5.92v-1.29h19.31v13.13H16.48z M31.67,31.67h-5.15V17.9
		c0-0.36-0.29-0.64-0.64-0.64h-8.76v-6.01l4.33,2.31c0.2,0.11,0.44,0.1,0.63-0.02c0.19-0.12,0.31-0.33,0.31-0.55v-1.74l4.33,2.31
		c0.2,0.11,0.44,0.1,0.63-0.02c0.19-0.12,0.31-0.33,0.31-0.55v-1.74l3.99,2.13V31.67z"/>
	<path class="st0" d="M10.94,22.92H7.85c-0.36,0-0.64,0.29-0.64,0.64v3.09c0,0.36,0.29,0.64,0.64,0.64h3.09
		c0.36,0,0.64-0.29,0.64-0.64v-3.09C11.59,23.21,11.3,22.92,10.94,22.92z M10.3,26.01H8.5v-1.8h1.8V26.01z"/>
	<path class="st0" d="M17.12,22.92h-3.09c-0.36,0-0.64,0.29-0.64,0.64v3.09c0,0.36,0.29,0.64,0.64,0.64h3.09
		c0.36,0,0.64-0.29,0.64-0.64v-3.09C17.77,23.21,17.48,22.92,17.12,22.92z M16.48,26.01h-1.8v-1.8h1.8V26.01z"/>
	<path class="st0" d="M23.3,22.92h-3.09c-0.36,0-0.64,0.29-0.64,0.64v3.09c0,0.36,0.29,0.64,0.64,0.64h3.09
		c0.36,0,0.64-0.29,0.64-0.64v-3.09C23.95,23.21,23.66,22.92,23.3,22.92z M22.66,26.01h-1.8v-1.8h1.8V26.01z"/>
	<path class="st0" d="M14.11,21.12c0.17,0,0.34-0.07,0.45-0.19c0.12-0.12,0.19-0.29,0.19-0.46s-0.07-0.34-0.19-0.46
		c-0.12-0.12-0.29-0.19-0.45-0.19c-0.17,0-0.34,0.07-0.46,0.19c-0.12,0.12-0.19,0.29-0.19,0.46s0.07,0.34,0.19,0.46
		C13.77,21.05,13.94,21.12,14.11,21.12z"/>
</g>
</svg>
