<?xml version="1.0" encoding="UTF-8"?>
<svg width="18px" height="24px" viewBox="0 0 18 24" version="1.1" xmlns="http://www.w3.org/2000/svg" xmlns:xlink="http://www.w3.org/1999/xlink">
    <title>Icons/People</title>
    <defs>
        <path d="M2.92520635,7.21788889 L2.92520635,20.6285238 C2.92520635,21.3094762 3.47925397,21.8635238 4.16020635,21.8635238 L13.667746,21.8635238 C14.3497302,21.8635238 14.9037778,21.3094762 14.9037778,20.6285238 L14.9037778,7.21788889 L16.2966349,7.21788889 L16.2966349,20.6285238 C16.2966349,22.0770952 15.1173492,23.256381 13.667746,23.256381 L4.16020635,23.256381 C2.71163492,23.256381 1.53234921,22.0770952 1.53234921,20.6285238 L1.53234921,7.21788889 L2.92520635,7.21788889 Z M6.12857143,7.21871429 L6.12857143,19.196254 L4.73571429,19.196254 L4.73571429,7.21871429 L6.12857143,7.21871429 Z M9.61071429,7.21871429 L9.61071429,19.196254 L8.21785714,19.196254 L8.21785714,7.21871429 L9.61071429,7.21871429 Z M13.0928571,7.21871429 L13.0928571,19.196254 L11.7,19.196254 L11.7,7.21871429 L13.0928571,7.21871429 Z M17.8285714,3.65712698 L17.8285714,5.04998413 L0,5.04998413 L0,3.65712698 L17.8285714,3.65712698 Z M10.4989444,-2.3385527e-13 C11.2376746,-2.3385527e-13 11.8391825,0.601507937 11.8391825,1.34126984 L11.8391825,3.02507937 L10.4463254,3.02507937 L10.4463254,1.39285714 L7.38203968,1.39285714 L7.38203968,3.02507937 L5.98918254,3.02507937 L5.98918254,1.34126984 C5.98918254,0.601507937 6.59069048,-2.3385527e-13 7.32942063,-2.3385527e-13 L10.4989444,-2.3385527e-13 Z" id="path-1"></path>
    </defs>
    <g id="desktop" stroke="none" stroke-width="1" fill="none" fill-rule="evenodd">
        <g id="1.1---filtro-fecha" transform="translate(-1221.000000, -813.000000)">
            <g id="Group-5" transform="translate(1156.000000, 812.000000)">
                <g id="Group" transform="translate(62.000000, -0.000000)">
                    <g id="Color/Liberty-Blue" transform="translate(3.095238, 1.031746)">
                        <mask id="mask-2" fill="white">
                            <use xlink:href="#path-1"></use>
                        </mask>
                        <use id="Mask" fill="#13112B" xlink:href="#path-1"></use>
                        <g id="Group" mask="url(#mask-2)">
                            <g transform="translate(-42.301587, -40.238095)" id="Color/Liberty-Blue">
                                <rect id="Rectangle" fill="#FFFFFF" x="0" y="0" width="103.174603" height="103.174603"></rect>
                            </g>
                        </g>
                    </g>
                </g>
            </g>
        </g>
    </g>
</svg>