<?xml version="1.0" encoding="utf-8"?>
<!-- Generator: Adobe Illustrator 24.3.0, SVG Export Plug-In . SVG Version: 6.00 Build 0)  -->
<svg version="1.1" id="Capa_1" xmlns="http://www.w3.org/2000/svg" xmlns:xlink="http://www.w3.org/1999/xlink" x="0px" y="0px"
	 viewBox="0 0 29.46 34.35" style="enable-background:new 0 0 29.46 34.35;" xml:space="preserve">
<style type="text/css">
	.st0{fill:#1A1446;}
</style>
<g>
	<path class="st0" d="M26.69,23.25c-0.32-0.21-0.64-0.44-1.01-0.71l-1.17-0.71c-0.32-0.16-0.64-0.32-1.01-0.54l-0.38-0.21
		c-0.32-0.16-0.7-0.38-1.07-0.54c-0.48-0.21-0.91-0.44-1.39-0.54l-0.59-0.16l-0.27,0.44c-0.27,0.38-2.72,2.76-5.08,4.93
		c-2.35-2.22-4.81-4.56-5.08-4.93l-0.27-0.44l-0.59,0.21c-0.43,0.11-0.86,0.27-1.33,0.54c-0.38,0.16-0.75,0.38-1.12,0.54l-0.43,0.21
		c-0.11,0.05-0.21,0.11-0.32,0.16l-1.23,0.71c-0.54,0.32-1.07,0.65-1.5,0.97c-1.01,0.76-1.98,1.57-2.46,2.65
		c-0.43,0.97-0.43,2.12-0.38,3.09v0.38c0,0.11,0,1.3,0,2.93c0,1.14,0.91,2.12,2.09,2.12h25.23c1.12,0,2.09-0.92,2.09-2.12
		c0-1.2,0-2.81,0-2.93v-0.31c0.05-0.97,0.05-2.12-0.38-3.09C28.56,24.77,27.61,23.95,26.69,23.25z M23.06,26.94
		c0.32,0.16,0.59,0.49,0.7,0.87c0.11,0.38,0.11,0.76-0.11,1.08c-0.16,0.32-0.48,0.6-0.86,0.71c-0.38,0.11-0.75,0.11-1.07-0.11
		c-0.32-0.16-0.59-0.49-0.7-0.87s-0.11-0.76,0.11-1.08c0.16-0.32,0.48-0.6,0.86-0.71c0.16-0.05,0.27-0.05,0.43-0.05
		C22.64,26.78,22.84,26.83,23.06,26.94z M28.09,28.88v0.32c0,0.05,0,0.49,0,2.98c0,0.44-0.32,0.76-0.75,0.76H2.1
		c-0.43,0-0.75-0.32-0.75-0.76c0-1.89,0-2.88,0-2.98v-0.38C1.3,28.02,1.3,27.1,1.62,26.39C2,25.58,2.79,24.93,3.6,24.33
		c0.38-0.32,0.86-0.6,1.33-0.92l0.64-0.38c0.11,0.49,0.21,1.03,0.38,1.52c-0.32,0.16-0.59,0.32-0.81,0.6
		c-0.27,0.27-0.54,0.6-0.7,0.97c-0.32,0.71-0.43,1.52-0.27,2.28l0.7,2.98l2.09-0.49c0.38-0.11,0.59-0.44,0.48-0.81
		c-0.11-0.38-0.43-0.6-0.81-0.49l-0.81,0.16l-0.38-1.68c-0.11-0.49-0.05-0.92,0.16-1.36c0.11-0.21,0.27-0.44,0.43-0.6
		c0.27-0.27,0.59-0.44,0.96-0.54c0.38-0.11,0.75-0.05,1.07,0.05c0.16,0.05,0.32,0.11,0.48,0.21c0.05,0.05,0.11,0.05,0.16,0.11
		c0.38,0.27,0.64,0.71,0.75,1.14l0.38,1.68l-0.81,0.16c-0.38,0.11-0.59,0.44-0.48,0.81c0.11,0.38,0.43,0.6,0.81,0.49l2.09-0.49
		l-0.7-2.98c-0.16-0.76-0.59-1.46-1.17-1.89c-0.11-0.11-0.21-0.16-0.32-0.21c-0.21-0.16-0.48-0.27-0.81-0.38
		c-0.38-0.05-0.81-0.05-1.23-0.05c-0.21-0.54-0.32-1.14-0.43-1.68c0-0.05,0-0.05-0.05-0.11l0.11-0.05c0.32-0.16,0.7-0.38,1.07-0.54
		c0.32-0.16,0.59-0.27,0.91-0.38c1.12,1.19,4.33,4.23,5.4,5.2l0.43,0.44l0.43-0.44c1.07-0.97,4.28-4.01,5.4-5.2
		c0.27,0.11,0.59,0.21,0.91,0.38s0.7,0.32,1.01,0.49l0.38,0.21c0.27,0.16,0.54,0.27,0.81,0.44c-0.16,0.87-0.43,1.68-0.86,2.49
		c-0.43-0.05-0.86-0.05-1.23,0.11c-0.7,0.21-1.28,0.71-1.6,1.41c-0.32,0.65-0.38,1.41-0.16,2.12s0.7,1.3,1.39,1.63
		c0.38,0.21,0.81,0.32,1.28,0.32c0.27,0,0.59-0.05,0.86-0.11c0.7-0.21,1.28-0.71,1.6-1.41c0.32-0.65,0.38-1.41,0.16-2.12
		c-0.16-0.54-0.54-1.03-0.96-1.41c0.38-0.76,0.64-1.52,0.81-2.33l0.11,0.05c0.32,0.21,0.64,0.44,0.91,0.6
		c0.81,0.6,1.6,1.25,1.98,2.06C28.14,27.1,28.14,28.02,28.09,28.88z"/>
	<path class="st0" d="M6.91,10.94c0,0.21,0.05,0.49,0.11,0.71c0,0.11,0.05,0.21,0.05,0.32c0.11,1.08,0.64,1.89,1.44,2.33
		c0,0,0,0.05,0.05,0.05c0.48,1.95,1.5,3.41,2.94,4.44c0.16,0.11,0.38,0.27,0.59,0.38c0.27,0.16,0.64,0.27,0.96,0.44h0.05
		c0.27,0.11,0.54,0.21,0.86,0.27c0.21,0.05,0.48,0.05,0.7,0.05c0.05,0,0.11,0,0.16,0c0.27,0,0.48,0,0.7-0.05
		c0.27-0.05,0.54-0.11,0.81-0.27h0.05c0.38-0.11,0.7-0.27,1.01-0.44c0.21-0.11,0.38-0.21,0.59-0.38c0.81-0.54,1.44-1.25,1.98-2.06
		c0.21-0.38,0.43-0.76,0.64-1.3c0.05-0.16,0.11-0.38,0.16-0.54c0.05-0.21,0.11-0.38,0.16-0.49c0.11-0.11,0.21-0.27,0.38-0.38
		c0.11-0.05,0.16-0.16,0.27-0.21c0.64-0.6,0.81-1.3,0.86-1.89c0-0.11,0.05-0.21,0.05-0.32c0.05-0.21,0.05-0.49,0.11-0.71
		c0-0.21,0-0.38,0-0.54v-0.05c0.05-0.65-0.32-1.41-1.01-1.63V8.61V8.34c0-0.21,0.05-0.49,0.11-0.65c0.16-0.65,0.27-1.3,0.27-1.95
		c0.05-2.17-1.01-3.96-2.94-4.82c-0.21-0.11-0.43-0.16-0.64-0.27C17.24,0.21,16,0,14.72,0c-0.27,0-0.54,0-0.81,0
		c-0.75,0.05-1.76,0.11-2.68,0.54c-0.11,0.05-0.21,0.11-0.27,0.16c-0.32,0.21-0.64,0.54-0.86,0.87C10.06,1.63,10,1.68,10,1.73
		C9.9,1.89,9.84,1.95,9.73,2.06C9.52,2.22,9.36,2.32,9.14,2.43c-0.38,0.16-0.7,0.44-0.91,0.81c-0.27,0.6-0.43,1.25-0.48,2
		c-0.05,0.76,0,1.52,0.05,2.12c0,0.27,0.05,0.54,0.11,0.87c0.05,0.16,0.05,0.32,0.11,0.54c0,0,0,0-0.05,0
		C7.22,8.94,6.85,9.75,6.9,10.45v0.05C6.91,10.57,6.91,10.73,6.91,10.94z M8.31,10.02c0.05,0,0.11,0,0.11,0c0.05,0,0.11,0,0.16,0
		c0.05,0,0.11,0,0.16,0h0.11l0.11-0.05c0.27-0.16,0.43-0.44,0.43-0.76c0-0.44-0.05-0.87-0.16-1.25C9.17,7.75,9.11,7.52,9.11,7.31
		C9.06,6.76,9.06,6.06,9.06,5.36c0-0.54,0.11-0.97,0.27-1.3C9.38,3.95,9.49,3.9,9.6,3.84c0.32-0.11,0.59-0.32,0.86-0.54
		c0.32-0.27,0.43-0.44,0.54-0.65l0.11-0.16c0.16-0.21,0.32-0.38,0.48-0.49c0.05-0.05,0.11-0.05,0.16-0.11
		c0.59-0.27,1.33-0.38,2.19-0.44c0.21,0,0.48,0,0.7,0c1.12,0,2.19,0.21,3.15,0.6c0.16,0.05,0.38,0.16,0.54,0.21
		c1.44,0.65,2.19,1.95,2.14,3.57c0,0.54-0.11,1.08-0.21,1.68c-0.05,0.27-0.11,0.6-0.11,0.87l-0.05,0.32c-0.05,0.27-0.11,0.54,0,0.87
		c0.21,0.54,0.75,0.54,0.91,0.54l0,0c0.05,0.05,0.11,0.16,0.11,0.27v0.11v0.05c0,0.16,0,0.27,0,0.44c0,0.21-0.05,0.38-0.05,0.6
		c0,0.11-0.05,0.27-0.05,0.38c-0.05,0.49-0.16,0.81-0.43,1.03c-0.05,0.05-0.16,0.11-0.21,0.16c-0.16,0.16-0.38,0.32-0.59,0.54
		c-0.27,0.32-0.38,0.71-0.43,1.03c-0.05,0.11-0.05,0.21-0.11,0.32c-0.16,0.44-0.32,0.76-0.54,1.08c-0.43,0.65-0.96,1.25-1.55,1.68
		c-0.16,0.11-0.32,0.21-0.48,0.27c-0.21,0.11-0.48,0.21-0.81,0.32c-0.05,0-0.11,0.05-0.11,0.05c-0.16,0.05-0.38,0.16-0.54,0.16
		c-0.16,0.05-0.38,0.05-0.54,0.05s-0.38,0-0.54-0.05c-0.21-0.05-0.38-0.11-0.59-0.16l-0.11-0.05c-0.32-0.11-0.59-0.21-0.81-0.32
		c-0.16-0.11-0.32-0.21-0.48-0.27c-1.17-0.81-1.98-2-2.35-3.63c-0.11-0.44-0.32-0.65-0.54-0.81l-0.11-0.05
		c-0.59-0.32-0.75-0.97-0.81-1.36c0-0.11-0.05-0.27-0.05-0.38c-0.05-0.21-0.05-0.38-0.05-0.6c0-0.16,0-0.27,0-0.44v-0.16
		C8.25,10.19,8.31,10.02,8.31,10.02z"/>
</g>
</svg>
