<svg height="16" viewBox="0 0 16 16" width="16" xmlns="http://www.w3.org/2000/svg" xmlns:xlink="http://www.w3.org/1999/xlink"><defs><path id="a" d="m8 0c4.418278 0 8 3.581722 8 8s-3.581722 8-8 8-8-3.581722-8-8 3.581722-8 8-8zm1.84641673 4.26666667c-1.27152742 0-2.20600289 1.18651685-1.91893203 2.4187429-1.63698743-.08159305-3.08707976-.86591167-4.05829347-2.05819557-.51732562.88513517-.26870174 2.04324397.60895762 2.62977417-.32359551-.01003894-.62732673-.09932139-.89261097-.24606074-.02178663.91183446.632453 1.76535766 1.57846256 1.95567026-.27532317.07518523-.57905439.09269997-.88769829.03332073.25033263.78346423.97783513 1.35162528 1.83883413 1.36849928-.82767828.6491134-1.8704461.9385338-2.91513628.8150762.87103794.5589765 1.90739793.8853488 3.02043831.8853488 3.65609523 0 5.72027149-3.08878856 5.59681389-5.85889424.3838291-.27788631.7191723-.62412282.9827478-1.02034042-.3537123.15677828-.7324152.2627211-1.1314095.31120703.4056158-.24456558.7176772-.63010346.8661253-1.09061297-.3804117.22619646-.8026878.39045055-1.2514496.47802425-.3571298-.38297475-.8695428-.62155968-1.43684947-.62155968z"/><mask id="b" fill="#fff"><use fill="#fff" fill-rule="evenodd" xlink:href="#a"/></mask></defs><g fill="#1a1446" fill-rule="evenodd"><use xlink:href="#a"/><g mask="url(#b)"><path d="m0 0h16v16h-16z"/></g></g></svg>