<?xml version="1.0" encoding="UTF-8"?>
<svg width="24px" height="24px" viewBox="0 0 24 24" version="1.1" xmlns="http://www.w3.org/2000/svg" xmlns:xlink="http://www.w3.org/1999/xlink">
    <title>Icons/Add Circle </title>
    <defs>
        <path d="M12,1.77635684e-15 C18.6163909,1.77635684e-15 24,5.38283955 24,12 C24,17.8599461 19.7768372,22.749519 14.2154675,23.7922278 L14.2154675,23.7922278 L14.2154675,22.3809157 C19.0088496,21.3589842 22.6148519,17.0934975 22.6148519,12 C22.6148519,6.14697961 17.8530204,1.38514813 12,1.38514813 C6.14697961,1.38514813 1.38514813,6.14697961 1.38514813,12 C1.38514813,17.8537899 6.14697961,22.6156214 12,22.6156214 C12.245479,22.6156214 12.4886495,22.6040785 12.7302809,22.5871489 L12.7302809,22.5871489 L12.7302809,23.9761447 C12.4886495,23.9907657 12.245479,24.0007695 12,24.0007695 C5.38283955,24.0007695 1.77635684e-15,18.6171604 1.77635684e-15,12 C1.77635684e-15,5.38283955 5.38283955,1.77635684e-15 12,1.77635684e-15 Z M12.7803001,6.51035013 L12.7803001,11.3776068 L17.4898038,11.3776068 L17.4898038,12.7627549 L12.7803001,12.7627549 L12.7803001,17.4899577 L11.395152,17.4899577 L11.395152,12.7627549 L6.51019623,12.7627549 L6.51019623,11.3776068 L11.395152,11.3776068 L11.395152,6.51035013 L12.7803001,6.51035013 Z" id="path-1"></path>
    </defs>
    <g id="desktop" stroke="none" stroke-width="1" fill="none" fill-rule="evenodd">
        <g id="4.1---detalle-de-infografía" transform="translate(-1351.000000, -292.000000)">
            <g id="Group-3" transform="translate(1339.000000, 280.000000)">
                <g id="Group" transform="translate(12.000000, 12.000000)">
                    <g id="Color/Liberty-Blue" transform="translate(12.000000, 12.000000) rotate(-45.000000) translate(-12.000000, -12.000000) ">
                        <mask id="mask-2" fill="white">
                            <use xlink:href="#path-1"></use>
                        </mask>
                        <use id="Mask" fill="#13112B" xlink:href="#path-1"></use>
                        <g id="Group" mask="url(#mask-2)">
                            <g transform="translate(-38.000000, -38.000000)">
                                <rect id="Rectangle" fill="#1A1446" x="0" y="0" width="100" height="100"></rect>
                            </g>
                        </g>
                    </g>
                </g>
            </g>
        </g>
    </g>
</svg>