<?xml version="1.0" encoding="utf-8"?>
<!-- Generator: Adobe Illustrator 24.3.0, SVG Export Plug-In . SVG Version: 6.00 Build 0)  -->
<svg version="1.1" id="Capa_1" xmlns="http://www.w3.org/2000/svg" xmlns:xlink="http://www.w3.org/1999/xlink" x="0px" y="0px"
	 viewBox="0 0 58.11 44.88" style="enable-background:new 0 0 58.11 44.88;" xml:space="preserve">
<style type="text/css">
	.st0{fill:#1A1446;}
</style>
<g>
	<path class="st0" d="M55.06,9.26l-6.47,0.05L46.57,3.7c-0.86-2.25-2.94-3.72-5.28-3.7L16.42,0.21c-2.44,0.02-4.59,1.63-5.32,3.9
		L9.45,9.66L2.98,9.71c-1.69,0.01-3,1.34-2.98,3.03l0.03,3.19c0.01,1.69,1.34,3,3.03,2.98l0.47,0c-0.84,0.94-1.29,2.07-1.28,3.4
		l0.09,10.41l0.02,2.15l0.06,7.02c0.01,1.69,1.34,3,3.03,2.98l6.67-0.06c1.69-0.01,3-1.34,2.98-3.03l-0.02-2.15l-3.01,0.03
		l0.02,2.26l-6.68,0.06l-0.06-7.04l-0.02-2.17L5.31,30.7l7.42-0.06c1.31-0.01,2.43-0.86,2.71-2.08l0.91-2.82l0-0.09
		c0.17-1.04-0.02-2.06-0.69-2.81c-0.67-0.84-1.61-1.3-2.64-1.29l-7.59,0.06c0.09-0.29,0.28-0.47,0.46-0.67l3.63-3.22l39.23-0.33
		l3.68,3.16c0.18,0.18,0.38,0.46,0.56,0.66l-7.88,0.07c-1.04,0.01-1.97,0.48-2.62,1.33s-0.83,1.89-0.64,2.82l0,0.09l0.96,2.81
		c0.3,1.22,1.43,2.05,2.74,2.04l7.69-0.06l0.02,2.06l0.08,9.3l-6.67,0.06l-0.02-2.15l-3.01,0.03l0.02,2.15
		c0.01,1.69,1.34,3,3.03,2.98l6.67-0.06c1.69-0.01,3-1.34,2.98-3.03l-0.06-7.04l-0.02-2.15l-0.09-10.61
		c-0.01-1.22-0.49-2.43-1.34-3.37l0.29,0c1.69-0.01,3-1.34,2.98-3.03l-0.03-3.19C58.18,10.64,56.75,9.25,55.06,9.26z M14.02,5.09
		c0.37-1.13,1.29-1.79,2.51-1.8l24.78-0.21c1.13-0.01,2.07,0.64,2.45,1.76l3.46,9.45L11,14.6L14.02,5.09z M13.43,24.53
		c0.09,0.09,0.09,0.18,0.09,0.28l-0.91,2.82l-7.33,0.06L5.26,24.5l7.79-0.07C13.24,24.35,13.33,24.44,13.43,24.53z M6.78,15.96
		l-3.85,0.03L2.91,12.8l5.54-0.05L7.62,15.2L6.78,15.96z M45.73,27.26l-0.96-2.81c0-0.09,0-0.18,0.09-0.29
		c0.09-0.09,0.18-0.2,0.28-0.2l8.07-0.07l0.03,3.19l-7.51,0.06L45.73,27.26L45.73,27.26z M55.12,15.55l-3.57,0.03l-0.94-0.84
		l-0.86-2.43l5.45-0.05L55.12,15.55z M8.47,37.99l41.86-0.35l-0.03-3.01L8.45,34.98L8.47,37.99z"/>
</g>
</svg>
