<svg height="16" viewBox="0 0 16 16" width="16" xmlns="http://www.w3.org/2000/svg"><path d="m8 0c-4.41760253 0-8 3.58239747-8 8 0 4.4176025 3.58239747 8 8 8 4.4176025 0 8-3.5823975 8-8 0-4.41760253-3.5823975-8-8-8zm-2.32470703 12.09375h-1.94836425v-5.86169434h1.94836425zm-.97412109-6.66210938h-.01269532c-.65380859 0-1.07666015-.45007324-1.07666015-1.01257324 0-.57519532.43579103-1.01281738 1.1022949-1.01281738.66650394 0 1.07666019.43762206 1.0893555 1.01281738 0 .5625-.42285156 1.01257324-1.10229493 1.01257324zm7.99951172 6.66210938h-1.9481201v-3.13586425c0-.78808594-.2821045-1.32556153-.98706056-1.32556153-.538208 0-.85876466.36254884-.99963381.7125244-.05151366.12524416-.06408691.30029297-.06408691.47546388v3.2734375h-1.94824219s.02551272-5.31176756 0-5.86169434h1.94824219v.82995606c.25891116-.39941406.72216797-.96752928 1.75585938-.96752928 1.2818603 0 2.243042.83776853 2.243042 2.63818356z" fill="#1a1446"/></svg>