<svg xmlns="http://www.w3.org/2000/svg" width="13.333" height="20" viewBox="0 0 13.333 20"><defs><style>.a{fill:#fff;fill-rule:evenodd;}</style></defs><g transform="translate(-5)"><g transform="translate(5)"><path class="a" d="M6.667,18.333h10V1.667h-10ZM16.833,20H6.5A1.5,1.5,0,0,1,5,18.5V1.5A1.5,1.5,0,0,1,6.5,0H16.833a1.5,1.5,0,0,1,1.5,1.5v17A1.5,1.5,0,0,1,16.833,20Zm-5.167-5.333A1.334,1.334,0,1,0,13,16,1.333,1.333,0,0,0,11.667,14.667ZM9.6,3.333a.6.6,0,0,0,0,1.2h3.8a.6.6,0,0,0,0-1.2Z" transform="translate(-5)"/></g></g></svg>