<svg id="icon_done" xmlns="http://www.w3.org/2000/svg" width="16" height="15.283" viewBox="0 0 16 15.283">
  <path id="Trazado_56" data-name="Trazado 56" d="M489.657,305.9a7.642,7.642,0,1,1,4.366-13.908l.411.288-.576.825-.411-.288a6.639,6.639,0,1,0,2.833,5.443,6.7,6.7,0,0,0-.154-1.432l-.108-.491.981-.216.108.491a7.742,7.742,0,0,1,.178,1.648,7.644,7.644,0,0,1-7.628,7.642" transform="translate(-482.029 -290.615)" fill="#006729"/>
  <path id="Trazado_57" data-name="Trazado 57" d="M492.959,302.548a.52.52,0,0,1-.367-.151l-3.608-3.573.734-.741,3.2,3.173,7.834-9.372.8.669-8.2,9.808a.524.524,0,0,1-.376.187h-.024" transform="translate(-485.556 -291.148)" fill="#006729"/>
</svg>
