<?xml version="1.0" encoding="utf-8"?>
<!-- Generator: Adobe Illustrator 25.4.1, SVG Export Plug-In . SVG Version: 6.00 Build 0)  -->
<svg version="1.1" id="Capa_1" xmlns="http://www.w3.org/2000/svg" xmlns:xlink="http://www.w3.org/1999/xlink" x="0px" y="0px"
	 viewBox="0 0 17.1 13.3" style="enable-background:new 0 0 17.1 13.3;" xml:space="preserve">
<style type="text/css">
	.st0{fill:#06748C;}
</style>
<path class="st0" d="M16.6,0.6c-0.2-0.2-0.5-0.3-0.7-0.2c-0.2,0-0.4,0.2-0.6,0.4l-6.7,9.5L1.9,0.9C1.8,0.6,1.5,0.5,1.2,0.4
	c-0.3,0-0.6,0-0.7,0.2C0.1,1,0.1,1.6,0.4,1.9l7.1,10c0,0.1,0.1,0.1,0.1,0.2c0.1,0.1,0.1,0.2,0.2,0.2c0.2,0.3,0.5,0.5,0.8,0.5
	c0,0,0,0,0,0c0.2,0,0.5-0.1,0.6-0.3c0.1-0.1,0.2-0.3,0.3-0.4l6.1-8.8l1-1.4c0.1-0.1,0.2-0.3,0.2-0.6C16.9,1.1,16.8,0.9,16.6,0.6z"/>
</svg>
