<svg xmlns="http://www.w3.org/2000/svg" width="16.364" height="12.725" viewBox="0 0 16.364 12.725">
  <path id="Icon_awesome-home" data-name="Icon awesome-home" d="M7.964,5.555,2.726,9.868v4.656a.455.455,0,0,0,.455.455l3.183-.008a.455.455,0,0,0,.452-.455V11.8a.455.455,0,0,1,.455-.455H9.089a.455.455,0,0,1,.455.455v2.717A.455.455,0,0,0,10,14.97l3.182.009a.455.455,0,0,0,.455-.455V9.865L8.4,5.555A.346.346,0,0,0,7.964,5.555Zm8.273,2.932L13.862,6.529V2.594a.341.341,0,0,0-.341-.341H11.93a.341.341,0,0,0-.341.341V4.657L9.046,2.565a1.364,1.364,0,0,0-1.733,0L.123,8.487a.341.341,0,0,0-.045.48L.8,9.847a.341.341,0,0,0,.48.046l6.682-5.5a.346.346,0,0,1,.435,0l6.682,5.5a.341.341,0,0,0,.48-.045l.724-.881a.341.341,0,0,0-.048-.481Z" transform="translate(0.001 -2.254)" fill="#06748c"/>
</svg>
