<svg xmlns="http://www.w3.org/2000/svg" xmlns:xlink="http://www.w3.org/1999/xlink" width="30.022" height="30" viewBox="0 0 30.022 30"><defs><style>.a{fill:#1a1446;}.b{clip-path:url(#a);}.c{fill:#fff;}</style><clipPath id="a"><path class="a" d="M15.011,30A15,15,0,0,1,4.4,4.393a15.018,15.018,0,0,1,21.228,0A15,15,0,0,1,15.011,30Zm2.6-15.189c1.041,0,1.591.738,1.591,2.135V22h3.143V16.582c0-2.661-1.353-4.25-3.619-4.25a3.106,3.106,0,0,0-2.833,1.561V12.554H12.747c.042.87,0,9.359,0,9.445H15.89V16.724a2.068,2.068,0,0,1,.1-.766A1.724,1.724,0,0,1,17.607,14.81ZM7.866,12.554V22h3.142V12.554ZM9.459,8a1.637,1.637,0,1,0-.041,3.264h.02A1.637,1.637,0,1,0,9.459,8Z" transform="translate(0 0)"/></clipPath></defs><g transform="translate(0 0)"><path class="a" d="M15.011,30A15,15,0,0,1,4.4,4.393a15.018,15.018,0,0,1,21.228,0A15,15,0,0,1,15.011,30Zm2.6-15.189c1.041,0,1.591.738,1.591,2.135V22h3.143V16.582c0-2.661-1.353-4.25-3.619-4.25a3.106,3.106,0,0,0-2.833,1.561V12.554H12.747c.042.87,0,9.359,0,9.445H15.89V16.724a2.068,2.068,0,0,1,.1-.766A1.724,1.724,0,0,1,17.607,14.81ZM7.866,12.554V22h3.142V12.554ZM9.459,8a1.637,1.637,0,1,0-.041,3.264h.02A1.637,1.637,0,1,0,9.459,8Z" transform="translate(0 0)"/><g class="b"><g transform="translate(0 0)"><rect class="c" width="30.022" height="30"/></g></g></g></svg>