<?xml version="1.0" encoding="utf-8"?>
<!-- Generator: Adobe Illustrator 25.4.1, SVG Export Plug-In . SVG Version: 6.00 Build 0)  -->
<svg version="1.1" id="Capa_1" xmlns="http://www.w3.org/2000/svg" xmlns:xlink="http://www.w3.org/1999/xlink" x="0px" y="0px"
	 viewBox="0 0 17.1 13.3" style="enable-background:new 0 0 17.1 13.3;" xml:space="preserve">
<style type="text/css">
	.st0{fill:#646363;}
</style>
<path class="st0" d="M0.6,12.5c0.2,0.2,0.5,0.1,0.7-0.1L8.5,2.1l7.3,10.3c0.1,0.2,0.5,0.3,0.7,0.1c0.2-0.2,0.3-0.5,0.1-0.7L8.9,0.9
	l0,0c0,0,0-0.1-0.1-0.1l0,0c-0.1,0-0.2-0.1-0.3-0.1l0,0l0,0l0,0l0,0c-0.1,0-0.2,0-0.3,0.1l0,0L8.1,0.9l0,0L0.5,11.8
	C0.3,12,0.4,12.3,0.6,12.5z"/>
</svg>
