<svg xmlns="http://www.w3.org/2000/svg" viewBox="0 0 137.83 145.47">
                <title>iso-esinergia</title>
                <g id="Capa_2" data-name="Capa 2">
                    <g id="Capa_1-2" data-name="Capa 1">
                        <path class="cls-1" d="M38.67,118.09c6.12,2.78,11.5,5.79,17.25,7.71,14.25,4.77,28.28,3.52,41.78-3,5.57-2.71,7.38-6.36,5.51-10.48-2.27-5-7-6.59-12.65-3.88a39.32,39.32,0,0,1-33,1.07,61.69,61.69,0,0,1-6.34-3.5c1.78-2,3-3.47,4.42-4.85q27.43-27.47,54.89-54.91c6.07-6.09,6-9-.24-14.74-20.46-19-51.42-19.36-74-.94C16.16,46.93,11,78.33,24.76,101.06c1,1.58,1.9,3.17,2.83,4.74a9,9,0,0,1-.88,1.57c-9.29,10.27-12.95,9.74-19.17-2.73-15.93-31.94-6-70,23.92-91.74C58.77-7,98.71-3.56,123.2,20.85a161.6,161.6,0,0,1,11.36,13c4.62,5.7,4.38,8-.92,13.36-9.44,9.51-18.95,19-28.38,28.49-5.51,5.55-5.52,8.57-.05,14.09Q116,100.7,127,111.49c3.4,3.37,4.6,7,.7,10.63-23.94,22-53.45,30.37-85,16.75a51.65,51.65,0,0,1-6.87-3.7c-5.88-3.68-6.32-7.61-1.51-12.71C35.83,120.85,37.43,119.33,38.67,118.09Z"></path>
                        <path class="cls-1" d="M94.05,39.72l-54,54C29.49,83.15,31,60,42.91,46.62,56.37,31.53,79.53,28.3,94.05,39.72Z"></path>
                    </g>
                </g>
            </svg>
