<svg xmlns="http://www.w3.org/2000/svg" width="26.026" height="26.653" viewBox="0 0 26.026 26.653">
  <g id="Incendio_terremoto_y_peligros_aliados_para_deudores_de_crédito_hipotecario" data-name="Incendio, terremoto y peligros aliados para deudores de crédito hipotecario" transform="translate(13.013 13.326)">
    <path id="Trazado_16231" data-name="Trazado 16231" d="M15.746,10.329,13.978,15.51l8.349,6.207v4.521a.41.41,0,0,1-.409.409H13.407v-5.14H10.53V19.9h4.522v5.139h5.262a.409.409,0,0,0,.408-.408V22.5l-8.675-6.453,1.441-4.235-3.821-.164L7.94,7.167,4.9,10.125V24.64a.409.409,0,0,0,.408.408h5.758v1.6H3.7a.41.41,0,0,1-.409-.409V11.688L1.149,13.824,0,12.674,8.553,4.367,9.13,5.808l.041-.041.537,1.4,1.108,2.917ZM19.2,11.647,18.7,14.4l-.823-.163-.781-.123.495-2.753Zm3.868-1.2,2.958,4.032-1.272.945-2.019-2.713-1.312,6.908-1.4-1.027,1.36-7.689L14.76,1.986,10.2,5.318,9.539,3.795,14.474.172a.76.76,0,0,1,1.109.163l6.125,8.308.578-3.821L19.9,4.448l.245-1.6,3.209.5a.775.775,0,0,1,.659.9ZM8.43,15.469v-2.8h1.6v2.8H8.43Z" transform="translate(-13.013 -13.326)" fill="#006729"/>
  </g>
</svg>
