<svg xmlns="http://www.w3.org/2000/svg" width="40.929" height="26.26" viewBox="0 0 40.929 26.26">
  <g id="Daños_Total_del_Auto" data-name="Daños Total del Auto" transform="translate(20.465 13.13)">
    <g id="Car-crash" transform="translate(-20.465 -13.13)">
      <path id="Trazado_16210" data-name="Trazado 16210" d="M40.046,13.267l-4.2-.511,2.239-2.212L33.157,5.629l4.212-4.213L35.953,0l-5.62,5.619,4.907,4.907-1.928,1.91h-.018l-2.22,2.22,1.4,1.416,1.553-1.535,4.788.576-.841,6.944-1.325-.164a5.3,5.3,0,0,0-9.393-1.142L14.7,19.261A5.286,5.286,0,0,0,5.16,18.11l-3.07-.375.841-6.944,14.693,1.773-.284,2.311,1.983.238.283-2.312,9.375,1.133,1.8-1.8h-.018L28.177,5.153a.985.985,0,0,0-.813-.639L7.792,2.138a1.022,1.022,0,0,0-.923.393L2.3,8.68l-.1-.009a1.041,1.041,0,0,0-.74.21,1.014,1.014,0,0,0-.375.667L.007,18.476A1,1,0,0,0,.875,19.59l3.573.439a5.439,5.439,0,0,0-.092.877,5.307,5.307,0,0,0,10.6.4L26.468,22.7a5.587,5.587,0,0,0-.109,1.042,2.535,2.535,0,0,0,.74,2.01c.777.676,1.818.539,2.915.384a12.6,12.6,0,0,1,3.326,0,10.17,10.17,0,0,0,1.343.118,2.275,2.275,0,0,0,1.581-.511,2.394,2.394,0,0,0,.721-1.773l1.746.21c.036,0,.082.009.118.009a1.041,1.041,0,0,0,.622-.21,1.007,1.007,0,0,0,.374-.667l1.079-8.927A1.019,1.019,0,0,0,40.046,13.267ZM20.465,5.7l6.049.731L27.839,10,25.756,9.74a1.016,1.016,0,0,0-1.115.868,1,1,0,0,0,.3.823l-5.1-.622ZM8.112,4.2l10.37,1.261-.621,5.117L4.576,8.973Zm1.562,20.02a3.317,3.317,0,1,1,3.317-3.317A3.323,3.323,0,0,1,9.674,24.223Zm25.274.009A4.9,4.9,0,0,1,33.6,24.15a16.018,16.018,0,0,0-3.865,0,6.141,6.141,0,0,1-1.316.109,1.133,1.133,0,0,1-.073-.52,3.317,3.317,0,1,1,6.633,0A2.451,2.451,0,0,1,34.948,24.232Z" transform="translate(0)" fill="#006729"/>
    </g>
  </g>
</svg>
