<svg xmlns="http://www.w3.org/2000/svg" width="37.48" height="26.44" viewBox="0 0 37.48 26.44">
  <g id="Motos" transform="translate(18.74 13.22)">
    <g id="Grupo_30354" data-name="Grupo 30354" transform="translate(-18.74 -13.22)">
      <path id="Trazado_16208" data-name="Trazado 16208" d="M32.31,10.7a3.173,3.173,0,0,1-3.125-3.177A3.129,3.129,0,0,1,32.31,4.4V6.344a1.182,1.182,0,0,0,0,2.365ZM30.638,24.387a4.965,4.965,0,0,0,4.958-4.9,4.914,4.914,0,0,0-4.9-4.9,6.169,6.169,0,0,0-1.081.11l1.613,3.666a1.247,1.247,0,0,1,.7,1.132,1.293,1.293,0,0,1-2.585,0,.979.979,0,0,1,.051-.38l-1.613-3.607A4.962,4.962,0,0,0,25.739,19.5,4.912,4.912,0,0,0,30.638,24.387Zm-23.754,0a4.877,4.877,0,0,0,4.8-3.877H7.754a1.236,1.236,0,0,1-.861.321,1.292,1.292,0,1,1,0-2.585,1.358,1.358,0,0,1,.811.27h3.987a4.856,4.856,0,0,0-4.8-3.928,4.9,4.9,0,0,0-.009,9.8Zm12.443-5.871,2.264-3.928c-.27,0-.541.051-.811.051H17.815v2.374H15.881V14.639H12.806l-.38.811a6.709,6.709,0,0,1,1.242,3.075h5.659ZM30.638,12.6a7.08,7.08,0,1,1-3.658,1.132l-1.132-2.585-5.06,8.886a1.006,1.006,0,0,1-.861.482H13.676A6.877,6.877,0,1,1,6.893,12.6a6.611,6.611,0,0,1,4.038,1.343l.27-.752a.989.989,0,0,1,.912-.591h8.616a2.742,2.742,0,0,0,2.695-2.7A2.7,2.7,0,0,0,20.729,7.2h-4.9A2.7,2.7,0,0,0,13.135,9.9a.965.965,0,0,1-.971.971H2.255a1.027,1.027,0,0,1-.7-.27L.211,9.258,1.554,7.915,2.636,9h8.616A4.67,4.67,0,0,1,15.83,5.279h4.9A4.62,4.62,0,0,1,25.088,8.3l2.585-4.528L24.5,1.613,25.629,0l3.928,2.695a.957.957,0,0,1,.321,1.292L27.022,9l1.724,3.877A6.755,6.755,0,0,1,30.638,12.6Z" fill="#006729"/>
    </g>
  </g>
</svg>
