<svg id="Icon_Products_Auto_32px" data-name="Icon/Products/Auto/32px" xmlns="http://www.w3.org/2000/svg" width="32.055" height="24.834" viewBox="0 0 32.055 24.834">
  <g id="Combined_Shape" data-name="Combined Shape" transform="translate(0.009 -3.387)">
    <path id="Combined_Shape-2" data-name="Combined Shape" d="M25.79,24.834c-.914,0-1.9-.574-1.9-1.5V22.139h1.5v1.083a.877.877,0,0,0,.4.112h3.647l.008-3.975h0v-2.3H25.237a1.48,1.48,0,0,1-1.45-1.15l-.5-1.523a1.708,1.708,0,0,1,.292-1.495,1.818,1.818,0,0,1,1.439-.665h4.421a1.168,1.168,0,0,0-.341-.775L27.348,9.833H4.994l-1.9,1.653a1.413,1.413,0,0,0-.46.736H7.186a1.817,1.817,0,0,1,1.439.665,1.676,1.676,0,0,1,.31,1.43l-.541,1.654a1.456,1.456,0,0,1-1.431,1.084H2.611v6.277c0-.05.109,0,.234,0h3.69a.246.246,0,0,0,.148-.037l-.017-1.157h1.5v1.193a1.537,1.537,0,0,1-1.632,1.5H2.845a1.621,1.621,0,0,1-1.734-1.5V12.4a2.766,2.766,0,0,1,.958-2.016H1.581A1.518,1.518,0,0,1,0,8.868V7.084A1.522,1.522,0,0,1,1.581,5.556H5.188l1.051-3.3A3.2,3.2,0,0,1,9.153,0H22.944a3.169,3.169,0,0,1,2.864,2.158l1.205,3.4h3.6a1.409,1.409,0,0,1,1.445,1.528V8.868a1.405,1.405,0,0,1-1.445,1.521h-.45a2.732,2.732,0,0,1,.784,2.016v6.953h0v3.974a1.4,1.4,0,0,1-1.465,1.5ZM6.962,15.556l.529-1.642c.005-.034-.029-.076-.04-.092a.34.34,0,0,0-.266-.1H2.611v1.832Zm17.787-1.733a.162.162,0,0,0-.022.157l.5,1.523,4.213.044V13.723h-4.43A.335.335,0,0,0,24.749,13.822Zm5.806-4.933a.173.173,0,0,0,0-.022V7.084a.244.244,0,0,0,0-.026h-3.01l.484,1.365.507.468ZM1.5,8.868l2.293.021.461-.4.456-1.433H1.581Zm24.906-.535L24.395,2.662A1.673,1.673,0,0,0,22.944,1.5H9.153A1.7,1.7,0,0,0,7.669,2.712L5.878,8.333ZM4.361,20.108v-1.5H27.695v1.5Z" transform="translate(-0.009 3.387)" fill="none"/>
    <path id="Combined_Shape-3" data-name="Combined Shape" d="M25.79,24.834c-.914,0-1.9-.574-1.9-1.5V22.139h1.5v1.083a.877.877,0,0,0,.4.112h3.647l.008-3.975h0v-2.3H25.237a1.48,1.48,0,0,1-1.45-1.15l-.5-1.523a1.708,1.708,0,0,1,.292-1.495,1.818,1.818,0,0,1,1.439-.665h4.421a1.168,1.168,0,0,0-.341-.775L27.348,9.833H4.994l-1.9,1.653a1.413,1.413,0,0,0-.46.736H7.186a1.817,1.817,0,0,1,1.439.665,1.676,1.676,0,0,1,.31,1.43l-.541,1.654a1.456,1.456,0,0,1-1.431,1.084H2.611v6.277c0-.05.109,0,.234,0h3.69a.246.246,0,0,0,.148-.037l-.017-1.157h1.5v1.193a1.537,1.537,0,0,1-1.632,1.5H2.845a1.621,1.621,0,0,1-1.734-1.5V12.4a2.766,2.766,0,0,1,.958-2.016H1.581A1.518,1.518,0,0,1,0,8.868V7.084A1.522,1.522,0,0,1,1.581,5.556H5.188l1.051-3.3A3.2,3.2,0,0,1,9.153,0H22.944a3.169,3.169,0,0,1,2.864,2.158l1.205,3.4h3.6a1.409,1.409,0,0,1,1.445,1.528V8.868a1.405,1.405,0,0,1-1.445,1.521h-.45a2.732,2.732,0,0,1,.784,2.016v6.953h0v3.974a1.4,1.4,0,0,1-1.465,1.5ZM6.962,15.556l.529-1.642c.005-.034-.029-.076-.04-.092a.34.34,0,0,0-.266-.1H2.611v1.832Zm17.787-1.733a.162.162,0,0,0-.022.157l.5,1.523,4.213.044V13.723h-4.43A.335.335,0,0,0,24.749,13.822Zm5.806-4.933a.173.173,0,0,0,0-.022V7.084a.244.244,0,0,0,0-.026h-3.01l.484,1.365.507.468ZM1.5,8.868l2.293.021.461-.4.456-1.433H1.581Zm24.906-.535L24.395,2.662A1.673,1.673,0,0,0,22.944,1.5H9.153A1.7,1.7,0,0,0,7.669,2.712L5.878,8.333ZM4.361,20.108v-1.5H27.695v1.5Z" transform="translate(-0.009 3.387)" fill="none"/>
    <path id="Combined_Shape-4" data-name="Combined Shape" d="M25.79,24.834c-.914,0-1.9-.574-1.9-1.5V22.139h1.5v1.083a.877.877,0,0,0,.4.112h3.647l.008-3.975h0v-2.3H25.237a1.48,1.48,0,0,1-1.45-1.15l-.5-1.523a1.708,1.708,0,0,1,.292-1.495,1.818,1.818,0,0,1,1.439-.665h4.421a1.168,1.168,0,0,0-.341-.775L27.348,9.833H4.994l-1.9,1.653a1.413,1.413,0,0,0-.46.736H7.186a1.817,1.817,0,0,1,1.439.665,1.676,1.676,0,0,1,.31,1.43l-.541,1.654a1.456,1.456,0,0,1-1.431,1.084H2.611v6.277c0-.05.109,0,.234,0h3.69a.246.246,0,0,0,.148-.037l-.017-1.157h1.5v1.193a1.537,1.537,0,0,1-1.632,1.5H2.845a1.621,1.621,0,0,1-1.734-1.5V12.4a2.766,2.766,0,0,1,.958-2.016H1.581A1.518,1.518,0,0,1,0,8.868V7.084A1.522,1.522,0,0,1,1.581,5.556H5.188l1.051-3.3A3.2,3.2,0,0,1,9.153,0H22.944a3.169,3.169,0,0,1,2.864,2.158l1.205,3.4h3.6a1.409,1.409,0,0,1,1.445,1.528V8.868a1.405,1.405,0,0,1-1.445,1.521h-.45a2.732,2.732,0,0,1,.784,2.016v6.953h0v3.974a1.4,1.4,0,0,1-1.465,1.5ZM6.962,15.556l.529-1.642c.005-.034-.029-.076-.04-.092a.34.34,0,0,0-.266-.1H2.611v1.832Zm17.787-1.733a.162.162,0,0,0-.022.157l.5,1.523,4.213.044V13.723h-4.43A.335.335,0,0,0,24.749,13.822Zm5.806-4.933a.173.173,0,0,0,0-.022V7.084a.244.244,0,0,0,0-.026h-3.01l.484,1.365.507.468ZM1.5,8.868l2.293.021.461-.4.456-1.433H1.581Zm24.906-.535L24.395,2.662A1.673,1.673,0,0,0,22.944,1.5H9.153A1.7,1.7,0,0,0,7.669,2.712L5.878,8.333ZM4.361,20.108v-1.5H27.695v1.5Z" transform="translate(-0.009 3.387)" fill="none"/>
    <path id="Combined_Shape-5" data-name="Combined Shape" d="M25.79,24.834c-.914,0-1.9-.574-1.9-1.5V22.139h1.5v1.083a.877.877,0,0,0,.4.112h3.647l.008-3.975h0v-2.3H25.237a1.48,1.48,0,0,1-1.45-1.15l-.5-1.523a1.708,1.708,0,0,1,.292-1.495,1.818,1.818,0,0,1,1.439-.665h4.421a1.168,1.168,0,0,0-.341-.775L27.348,9.833H4.994l-1.9,1.653a1.413,1.413,0,0,0-.46.736H7.186a1.817,1.817,0,0,1,1.439.665,1.676,1.676,0,0,1,.31,1.43l-.541,1.654a1.456,1.456,0,0,1-1.431,1.084H2.611v6.277c0-.05.109,0,.234,0h3.69a.246.246,0,0,0,.148-.037l-.017-1.157h1.5v1.193a1.537,1.537,0,0,1-1.632,1.5H2.845a1.621,1.621,0,0,1-1.734-1.5V12.4a2.766,2.766,0,0,1,.958-2.016H1.581A1.518,1.518,0,0,1,0,8.868V7.084A1.522,1.522,0,0,1,1.581,5.556H5.188l1.051-3.3A3.2,3.2,0,0,1,9.153,0H22.944a3.169,3.169,0,0,1,2.864,2.158l1.205,3.4h3.6a1.409,1.409,0,0,1,1.445,1.528V8.868a1.405,1.405,0,0,1-1.445,1.521h-.45a2.732,2.732,0,0,1,.784,2.016v6.953h0v3.974a1.4,1.4,0,0,1-1.465,1.5ZM6.962,15.556l.529-1.642c.005-.034-.029-.076-.04-.092a.34.34,0,0,0-.266-.1H2.611v1.832Zm17.787-1.733a.162.162,0,0,0-.022.157l.5,1.523,4.213.044V13.723h-4.43A.335.335,0,0,0,24.749,13.822Zm5.806-4.933a.173.173,0,0,0,0-.022V7.084a.244.244,0,0,0,0-.026h-3.01l.484,1.365.507.468ZM1.5,8.868l2.293.021.461-.4.456-1.433H1.581Zm24.906-.535L24.395,2.662A1.673,1.673,0,0,0,22.944,1.5H9.153A1.7,1.7,0,0,0,7.669,2.712L5.878,8.333ZM4.361,20.108v-1.5H27.695v1.5Z" transform="translate(-0.009 3.387)" fill="none"/>
    <path id="Combined_Shape-6" data-name="Combined Shape" d="M25.79,24.834c-.914,0-1.9-.574-1.9-1.5V22.139h1.5v1.083a.877.877,0,0,0,.4.112h3.647l.008-3.975h0v-2.3H25.237a1.48,1.48,0,0,1-1.45-1.15l-.5-1.523a1.708,1.708,0,0,1,.292-1.495,1.818,1.818,0,0,1,1.439-.665h4.421a1.168,1.168,0,0,0-.341-.775L27.348,9.833H4.994l-1.9,1.653a1.413,1.413,0,0,0-.46.736H7.186a1.817,1.817,0,0,1,1.439.665,1.676,1.676,0,0,1,.31,1.43l-.541,1.654a1.456,1.456,0,0,1-1.431,1.084H2.611v6.277c0-.05.109,0,.234,0h3.69a.246.246,0,0,0,.148-.037l-.017-1.157h1.5v1.193a1.537,1.537,0,0,1-1.632,1.5H2.845a1.621,1.621,0,0,1-1.734-1.5V12.4a2.766,2.766,0,0,1,.958-2.016H1.581A1.518,1.518,0,0,1,0,8.868V7.084A1.522,1.522,0,0,1,1.581,5.556H5.188l1.051-3.3A3.2,3.2,0,0,1,9.153,0H22.944a3.169,3.169,0,0,1,2.864,2.158l1.205,3.4h3.6a1.409,1.409,0,0,1,1.445,1.528V8.868a1.405,1.405,0,0,1-1.445,1.521h-.45a2.732,2.732,0,0,1,.784,2.016v6.953h0v3.974a1.4,1.4,0,0,1-1.465,1.5ZM6.962,15.556l.529-1.642c.005-.034-.029-.076-.04-.092a.34.34,0,0,0-.266-.1H2.611v1.832Zm17.787-1.733a.162.162,0,0,0-.022.157l.5,1.523,4.213.044V13.723h-4.43A.335.335,0,0,0,24.749,13.822Zm5.806-4.933a.173.173,0,0,0,0-.022V7.084a.244.244,0,0,0,0-.026h-3.01l.484,1.365.507.468ZM1.5,8.868l2.293.021.461-.4.456-1.433H1.581Zm24.906-.535L24.395,2.662A1.673,1.673,0,0,0,22.944,1.5H9.153A1.7,1.7,0,0,0,7.669,2.712L5.878,8.333ZM4.361,20.108v-1.5H27.695v1.5Z" transform="translate(-0.009 3.387)" fill="none"/>
    <path id="Combined_Shape-7" data-name="Combined Shape" d="M25.79,24.834c-.914,0-1.9-.574-1.9-1.5V22.139h1.5v1.083a.877.877,0,0,0,.4.112h3.647l.008-3.975h0v-2.3H25.237a1.48,1.48,0,0,1-1.45-1.15l-.5-1.523a1.708,1.708,0,0,1,.292-1.495,1.818,1.818,0,0,1,1.439-.665h4.421a1.168,1.168,0,0,0-.341-.775L27.348,9.833H4.994l-1.9,1.653a1.413,1.413,0,0,0-.46.736H7.186a1.817,1.817,0,0,1,1.439.665,1.676,1.676,0,0,1,.31,1.43l-.541,1.654a1.456,1.456,0,0,1-1.431,1.084H2.611v6.277c0-.05.109,0,.234,0h3.69a.246.246,0,0,0,.148-.037l-.017-1.157h1.5v1.193a1.537,1.537,0,0,1-1.632,1.5H2.845a1.621,1.621,0,0,1-1.734-1.5V12.4a2.766,2.766,0,0,1,.958-2.016H1.581A1.518,1.518,0,0,1,0,8.868V7.084A1.522,1.522,0,0,1,1.581,5.556H5.188l1.051-3.3A3.2,3.2,0,0,1,9.153,0H22.944a3.169,3.169,0,0,1,2.864,2.158l1.205,3.4h3.6a1.409,1.409,0,0,1,1.445,1.528V8.868a1.405,1.405,0,0,1-1.445,1.521h-.45a2.732,2.732,0,0,1,.784,2.016v6.953h0v3.974a1.4,1.4,0,0,1-1.465,1.5ZM6.962,15.556l.529-1.642c.005-.034-.029-.076-.04-.092a.34.34,0,0,0-.266-.1H2.611v1.832Zm17.787-1.733a.162.162,0,0,0-.022.157l.5,1.523,4.213.044V13.723h-4.43A.335.335,0,0,0,24.749,13.822Zm5.806-4.933a.173.173,0,0,0,0-.022V7.084a.244.244,0,0,0,0-.026h-3.01l.484,1.365.507.468ZM1.5,8.868l2.293.021.461-.4.456-1.433H1.581Zm24.906-.535L24.395,2.662A1.673,1.673,0,0,0,22.944,1.5H9.153A1.7,1.7,0,0,0,7.669,2.712L5.878,8.333ZM4.361,20.108v-1.5H27.695v1.5Z" transform="translate(-0.009 3.387)" fill="#006729"/>
  </g>
</svg>
