<svg xmlns="http://www.w3.org/2000/svg" xmlns:xlink="http://www.w3.org/1999/xlink" width="80" height="31.442" viewBox="0 0 80 31.442">
  <defs>
    <clipPath id="clip-path">
      <rect id="Rectángulo_8245" data-name="Rectángulo 8245" width="80" height="31.442" fill="#006729"/>
    </clipPath>
  </defs>
  <g id="Grupo_30179" data-name="Grupo 30179" transform="translate(0 0)">
    <g id="Grupo_30176" data-name="Grupo 30176" transform="translate(0 0)" clip-path="url(#clip-path)">
      <path id="Trazado_16148" data-name="Trazado 16148" d="M163.859,39.556h-8.814a.5.5,0,1,1,0-1h8.765a3.465,3.465,0,0,0,2.753-3.372c.1-2.695-1.442-2.964-1.693-2.99h-5.657a3.222,3.222,0,0,1-2.678-3.5,4.522,4.522,0,0,1,3.63-4.355.5.5,0,0,1,.106-.012h7.936a.5.5,0,1,1,0,1h-7.877a3.544,3.544,0,0,0-2.794,3.376q0,.019,0,.037a2.3,2.3,0,0,0,1.8,2.455s5.588,0,5.584,0c.028,0,2.791.21,2.645,4.029a4.46,4.46,0,0,1-3.621,4.328.512.512,0,0,1-.084.007" transform="translate(-102.969 -16.206)" fill="#006729"/>
      <path id="Trazado_16149" data-name="Trazado 16149" d="M209.574,40.018H201.44l-.053,0c-1.072-.114-3.113-.861-3.158-2.864-.048-2.129,1.378-8.6,1.439-8.872a.5.5,0,0,1,.019-.066c.05-.134,1.246-3.276,3.894-3.276h5.851a.5.5,0,0,1,.139.02c.1.03,2.5.747,2.5,2.812a36.648,36.648,0,0,1-.531,4.8.5.5,0,0,1-.489.414l-11.32.095a26.428,26.428,0,0,0-.5,4.055c.035,1.551,1.986,1.856,2.241,1.889h8.1a.5.5,0,0,1,0,1m-8.937-11.486c-.056.257-.391,1.793-.72,3.538l10.707-.09a32.659,32.659,0,0,0,.448-4.212c0-1.171-1.407-1.722-1.719-1.831h-5.772c-1.848,0-2.829,2.308-2.944,2.594" transform="translate(-132.073 -16.615)" fill="#006729"/>
      <path id="Trazado_16150" data-name="Trazado 16150" d="M109.31,46.441a.513.513,0,0,1-.09-.008.5.5,0,0,1-.4-.582s.8-4.409,1.6-8.818c.4-2.2.8-4.409,1.109-6.063.153-.827.281-1.517.373-2a7.768,7.768,0,0,1,.182-.834l-.009,0a5.848,5.848,0,0,1,3.625-3.408.5.5,0,0,1,.136,0c.331.011,3.5,0,5.6,0h0c.486-.011,3.08.971,2.778,3.025,0,.018,0,.036-.006.054l-1.4,8.523a.514.514,0,0,1-.012.055,5.14,5.14,0,0,1-3.2,3.356.471.471,0,0,1-.129.021l-5.143.147a.309.309,0,0,1-.061,0,4.715,4.715,0,0,1-3.013-1.829c-.554,3.043-1.107,6.1-1.444,7.959a.5.5,0,0,1-.492.411m2.2-9.8A4.005,4.005,0,0,0,114.33,38.9l5.037-.144a4.2,4.2,0,0,0,2.46-2.628l1.386-8.46c.145-.943-1.3-1.951-1.894-1.947-.366,0-1.539.005-2.712.007H116.66c-.363,0-.626,0-.818-.013a5.039,5.039,0,0,0-2.824,2.747c-.088.394-.769,4.1-1.511,8.175" transform="translate(-72.496 -16.469)" fill="#006729"/>
      <path id="Trazado_16151" data-name="Trazado 16151" d="M84.472,15.608a1.4,1.4,0,1,1-1.4-1.4,1.4,1.4,0,0,1,1.4,1.4" transform="translate(-54.42 -9.468)" fill="#006729"/>
      <path id="Trazado_16152" data-name="Trazado 16152" d="M75,1.4A1.4,1.4,0,1,1,73.6,0,1.4,1.4,0,0,1,75,1.4" transform="translate(-48.106 0)" fill="#006729"/>
      <path id="Trazado_16153" data-name="Trazado 16153" d="M65.479,15.608a1.4,1.4,0,1,1-1.4-1.4,1.4,1.4,0,0,1,1.4,1.4" transform="translate(-41.766 -9.468)" fill="#006729"/>
      <path id="Trazado_16154" data-name="Trazado 16154" d="M83.989,72.594a1.4,1.4,0,1,1-1.4-1.4,1.4,1.4,0,0,1,1.4,1.4" transform="translate(-54.098 -47.436)" fill="#006729"/>
      <path id="Trazado_16155" data-name="Trazado 16155" d="M74.975,59.234a1.4,1.4,0,1,1-1.4-1.4,1.4,1.4,0,0,1,1.4,1.4" transform="translate(-48.093 -38.535)" fill="#006729"/>
      <path id="Trazado_16156" data-name="Trazado 16156" d="M56.754,59.716A1.155,1.155,0,1,1,55.6,58.561a1.155,1.155,0,0,1,1.155,1.155" transform="translate(-36.274 -39.017)" fill="#006729"/>
      <path id="Trazado_16157" data-name="Trazado 16157" d="M65.988,73.076a1.155,1.155,0,1,1-1.155-1.155,1.155,1.155,0,0,1,1.155,1.155" transform="translate(-42.427 -47.919)" fill="#006729"/>
      <path id="Trazado_16158" data-name="Trazado 16158" d="M56.511,87.723a1.155,1.155,0,1,1-1.155-1.155,1.155,1.155,0,0,1,1.155,1.155" transform="translate(-36.112 -57.678)" fill="#006729"/>
      <path id="Trazado_16159" data-name="Trazado 16159" d="M47.813,73.6a.895.895,0,1,1-.9-.9.9.9,0,0,1,.9.9" transform="translate(-30.664 -48.438)" fill="#006729"/>
      <path id="Trazado_16160" data-name="Trazado 16160" d="M14.839,45.554a.895.895,0,1,1-.9-.9.9.9,0,0,1,.9.9" transform="translate(-8.694 -29.755)" fill="#006729"/>
      <path id="Trazado_16161" data-name="Trazado 16161" d="M19.642,31.263a.895.895,0,1,1-.9-.9.9.9,0,0,1,.9.9" transform="translate(-11.894 -20.233)" fill="#006729"/>
      <path id="Trazado_16162" data-name="Trazado 16162" d="M28.729,16.609a.895.895,0,1,1-.9-.9.9.9,0,0,1,.9.9" transform="translate(-17.949 -10.47)" fill="#006729"/>
      <path id="Trazado_16163" data-name="Trazado 16163" d="M37.946,2.714a.895.895,0,1,1-.9-.9.9.9,0,0,1,.9.9" transform="translate(-24.09 -1.212)" fill="#006729"/>
      <path id="Trazado_16164" data-name="Trazado 16164" d="M38.206,88.242a.895.895,0,1,1-.9-.9.9.9,0,0,1,.9.9" transform="translate(-24.263 -58.197)" fill="#006729"/>
      <path id="Trazado_16165" data-name="Trazado 16165" d="M28.989,73.6a.895.895,0,1,1-.9-.9.9.9,0,0,1,.9.9" transform="translate(-18.122 -48.438)" fill="#006729"/>
      <path id="Trazado_16166" data-name="Trazado 16166" d="M19.512,60.235a.895.895,0,1,1-.9-.9.9.9,0,0,1,.9.9" transform="translate(-11.808 -39.536)" fill="#006729"/>
      <path id="Trazado_16167" data-name="Trazado 16167" d="M14.88,74.461A.462.462,0,1,1,14.419,74a.461.461,0,0,1,.462.462" transform="translate(-9.299 -49.303)" fill="#006729"/>
      <path id="Trazado_16168" data-name="Trazado 16168" d="M6.246,61.1a.462.462,0,1,1-.462-.462.461.461,0,0,1,.462.462" transform="translate(-3.547 -40.402)" fill="#006729"/>
      <path id="Trazado_16169" data-name="Trazado 16169" d="M.923,46.172a.462.462,0,1,1-.462-.462.462.462,0,0,1,.462.462" transform="translate(0 -30.455)" fill="#006729"/>
      <path id="Trazado_16170" data-name="Trazado 16170" d="M5.856,32.152a.462.462,0,1,1-.462-.462.461.461,0,0,1,.462.462" transform="translate(-3.287 -21.114)" fill="#006729"/>
      <path id="Trazado_16171" data-name="Trazado 16171" d="M15.2,17.612a.462.462,0,1,1-.462-.462.461.461,0,0,1,.462.462" transform="translate(-9.514 -11.426)" fill="#006729"/>
      <path id="Trazado_16172" data-name="Trazado 16172" d="M37.817,59.716a1.155,1.155,0,1,1-1.155-1.155,1.155,1.155,0,0,1,1.155,1.155" transform="translate(-23.657 -39.017)" fill="#006729"/>
      <path id="Trazado_16173" data-name="Trazado 16173" d="M28.081,45.069a1.155,1.155,0,1,1-1.155-1.155,1.155,1.155,0,0,1,1.155,1.155" transform="translate(-17.17 -29.258)" fill="#006729"/>
      <path id="Trazado_16174" data-name="Trazado 16174" d="M37.687,30.744a1.155,1.155,0,1,1-1.155-1.155,1.155,1.155,0,0,1,1.155,1.155" transform="translate(-23.571 -19.714)" fill="#006729"/>
      <path id="Trazado_16175" data-name="Trazado 16175" d="M47.294,16.09a1.155,1.155,0,1,1-1.155-1.155,1.155,1.155,0,0,1,1.155,1.155" transform="translate(-29.971 -9.951)" fill="#006729"/>
      <path id="Trazado_16176" data-name="Trazado 16176" d="M56.381,1.94A1.155,1.155,0,1,1,55.226.785,1.155,1.155,0,0,1,56.381,1.94" transform="translate(-36.026 -0.523)" fill="#006729"/>
      <path id="Trazado_16177" data-name="Trazado 16177" d="M46.808,44.587a1.4,1.4,0,1,1-1.4-1.4,1.4,1.4,0,0,1,1.4,1.4" transform="translate(-29.326 -28.776)" fill="#006729"/>
      <path id="Trazado_16178" data-name="Trazado 16178" d="M56.143,30.262a1.4,1.4,0,1,1-1.4-1.4,1.4,1.4,0,0,1,1.4,1.4" transform="translate(-35.545 -19.232)" fill="#006729"/>
      <path id="Trazado_16179" data-name="Trazado 16179" d="M74.975,87.241a1.4,1.4,0,1,1-1.4-1.4,1.4,1.4,0,0,1,1.4,1.4" transform="translate(-48.093 -57.195)" fill="#006729"/>
      <rect id="Rectángulo_8242" data-name="Rectángulo 8242" width="20.666" height="0.856" transform="translate(16.795 15.318)" fill="#006729"/>
      <rect id="Rectángulo_8243" data-name="Rectángulo 8243" width="6.499" height="0.856" transform="translate(20.234 10.602)" fill="#006729"/>
      <path id="Trazado_16180" data-name="Trazado 16180" d="M81.328,37.291l-3.576-5.524h1l3.576,5.524Z" transform="translate(-51.804 -21.165)" fill="#006729"/>
      <rect id="Rectángulo_8244" data-name="Rectángulo 8244" width="3.315" height="0.856" transform="translate(26.576 20.27)" fill="#006729"/>
      <path id="Trazado_16181" data-name="Trazado 16181" d="M87.2,53.321l2.966-5h.856l-2.966,5Z" transform="translate(-58.099 -32.194)" fill="#006729"/>
    </g>
  </g>
</svg>
