<svg xmlns="http://www.w3.org/2000/svg" width="34" height="26.012" viewBox="0 0 34 26.012">
  <g id="Salud_a_tu_alcance" transform="translate(16 12.241)">
    <g id="Grupo_30370" data-name="Grupo 30370" transform="translate(-16 -12.241)">
      <g id="Grupo_30369" data-name="Grupo 30369">
        <path id="Trazado_16227" data-name="Trazado 16227" d="M12.008,15.937a.607.607,0,0,0,.477.183.7.7,0,0,0,.477-.183L19.6,9.294A4.844,4.844,0,0,0,16.19,1.037h0a4.8,4.8,0,0,0-3.412,1.431l-.293.294-.33-.33A4.8,4.8,0,0,0,8.743,1h0A4.8,4.8,0,0,0,5.331,2.431a4.852,4.852,0,0,0,0,6.826ZM6.285,3.422A3.409,3.409,0,0,1,8.743,2.395h0A3.472,3.472,0,0,1,11.2,3.422l.807.807a.607.607,0,0,0,.477.183.7.7,0,0,0,.477-.183l.807-.807a3.472,3.472,0,0,1,2.458-1.028h0A3.478,3.478,0,0,1,18.684,8.34l-6.163,6.166L6.358,8.34A3.447,3.447,0,0,1,6.285,3.422ZM4.707,16.3c2.054.587,7.667,2.422,7.7,2.459a.7.7,0,0,1-.44,1.321c-.073-.037-5.649-1.835-7.667-2.422a1.5,1.5,0,0,0-1.577.294l11.336,6.166a3.582,3.582,0,0,0,2.678.294l8.951-2.679a.585.585,0,0,1,.55.073l4.622,2.9a7.625,7.625,0,0,0,2.128-4.551l-8.181-3.523c-.257-.073-2.861-.917-4.842,0l-4.806,2.2a1.086,1.086,0,0,0,1.064.734,28.123,28.123,0,0,0,4.365-.477.691.691,0,0,1,.257,1.358,25.931,25.931,0,0,1-4.659.514A2.478,2.478,0,0,1,13.7,18.506a.693.693,0,0,1,.4-.661l5.283-2.422c2.568-1.174,5.759-.073,5.87-.037h.037l8.621,3.743a.678.678,0,0,1,.4.624,9.3,9.3,0,0,1-2.971,6.386.677.677,0,0,1-.44.183.708.708,0,0,1-.367-.11L25.728,23.2l-8.621,2.606a5.086,5.086,0,0,1-3.742-.367l-12-6.533a.7.7,0,0,1-.33-.844A2.935,2.935,0,0,1,4.707,16.3Z" transform="translate(-0.657 -0.655)" fill="#006729"/>
        <path id="Trazado_16228" data-name="Trazado 16228" d="M30.226,26.012a1.068,1.068,0,0,1-.57-.171l-4.649-2.91-8.451,2.553a5.461,5.461,0,0,1-4.011-.391L.558,18.567a1.059,1.059,0,0,1-.5-1.28,3.312,3.312,0,0,1,4.109-2h0c.349.1,6.6,2.03,7.694,2.471l0-.015a1.01,1.01,0,0,1,.623.535,1.1,1.1,0,0,1,.063.8,1.011,1.011,0,0,1-.535.623,1.1,1.1,0,0,1-.8.062l-.058-.023c-.2-.071-5.605-1.815-7.6-2.394a1.664,1.664,0,0,0-.706-.059l10.729,5.833a3.227,3.227,0,0,0,2.4.263l8.937-2.674a.934.934,0,0,1,.874.131l4.332,2.715a7.17,7.17,0,0,0,1.8-3.838l-7.933-3.412a7.018,7.018,0,0,0-4.532,0l-4.431,2.029a.87.87,0,0,0,.56.2,22.812,22.812,0,0,0,4.15-.45c.048-.009.087-.015.118-.019h0a1.033,1.033,0,0,1,.792.167,1.064,1.064,0,0,1,.445.67,1.032,1.032,0,0,1-.167.792,1.063,1.063,0,0,1-.67.444h0a26.51,26.51,0,0,1-4.732.52,2.849,2.849,0,0,1-2.85-2.8,1.061,1.061,0,0,1,.625-1.013l5.267-2.414c2.489-1.138,5.533-.245,6.073-.07h.018l.106.03,8.61,3.737a1.038,1.038,0,0,1,.624.959,9.557,9.557,0,0,1-3.058,6.617A1.054,1.054,0,0,1,30.226,26.012Zm-5.113-3.88,4.941,3.093a.352.352,0,0,0,.172.054.317.317,0,0,0,.18-.076l.034-.033a8.812,8.812,0,0,0,2.827-6.083.313.313,0,0,0-.181-.286l-8.618-3.726c-.334-.112-3.263-1.043-5.594.022L13.6,17.516a.333.333,0,0,0-.189.326,2.145,2.145,0,0,0,2.132,2.088,25.365,25.365,0,0,0,4.544-.5.368.368,0,0,0,.24-.149.3.3,0,0,0,.052-.233.338.338,0,0,0-.142-.21A.3.3,0,0,0,20,18.788l-.136.023a23.7,23.7,0,0,1-4.3.461,1.452,1.452,0,0,1-1.4-.983l-.1-.312,5.1-2.335a7.568,7.568,0,0,1,5.047-.032l.086.029L32.7,19.257l-.017.258a7.92,7.92,0,0,1-2.225,4.771l-.206.218L25.379,21.45a.239.239,0,0,0-.219-.044l-8.97,2.686a3.924,3.924,0,0,1-2.955-.323L1.483,17.38l.347-.347a1.862,1.862,0,0,1,1.931-.388c1.7.495,7.034,2.2,7.666,2.421h0a.374.374,0,0,0,.27-.02.282.282,0,0,0,.153-.174.378.378,0,0,0-.02-.27.285.285,0,0,0-.174-.152l-.1-.037c-.622-.221-5.605-1.849-7.588-2.415A2.566,2.566,0,0,0,.741,17.546a.331.331,0,0,0,.156.372l11.992,6.527a4.724,4.724,0,0,0,3.458.337ZM11.835,15.827a.97.97,0,0,1-.736-.291h0L4.431,8.869A5.145,5.145,0,0,1,2.923,5.2a5.165,5.165,0,0,1,8.841-3.666l.071.071.034-.034A5.185,5.185,0,1,1,19.2,8.905L12.57,15.537A1.057,1.057,0,0,1,11.835,15.827ZM8.1.733A4.465,4.465,0,0,0,3.655,5.2,4.418,4.418,0,0,0,4.949,8.351l6.668,6.668a.246.246,0,0,0,.217.076.338.338,0,0,0,.217-.076l6.631-6.631a4.452,4.452,0,1,0-6.3-6.3l-.552.552-.589-.589A4.432,4.432,0,0,0,8.1.733Zm3.773,13.634L5.457,7.953a3.812,3.812,0,1,1,5.354-5.427l.806.806a.247.247,0,0,0,.218.076.338.338,0,0,0,.217-.076l.806-.806a3.838,3.838,0,1,1,5.427,5.427ZM8.1,2.125a3.078,3.078,0,0,0-2.122,5.31l5.9,5.9,5.9-5.9a3.105,3.105,0,1,0-4.391-4.391l-.806.806a1.057,1.057,0,0,1-.735.291.97.97,0,0,1-.736-.291l-.806-.806A3.09,3.09,0,0,0,8.1,2.125Z" transform="translate(0)" fill="#006729"/>
      </g>
    </g>
  </g>
</svg>
