<svg xmlns="http://www.w3.org/2000/svg" xmlns:xlink="http://www.w3.org/1999/xlink" width="79" height="79" viewBox="0 0 79 79">
  <defs>
    <clipPath id="clip-path">
      <path id="Fill_4" data-name="Fill 4" d="M41.927,33.21h-5.1a2.343,2.343,0,0,1-2.339-2.341V29.052h2.46v1.7h4.861V26.136a1.242,1.242,0,0,1,.231-.717,33.882,33.882,0,0,0,1.993-3.19h-4.7a2.181,2.181,0,0,1-2.12-1.627l-.666-1.915a1.285,1.285,0,0,1-.037-.127,2.6,2.6,0,0,1,2.532-3.184h7.639a3.778,3.778,0,0,0-.783-3.391,1.462,1.462,0,0,0-.731-.123,14.947,14.947,0,0,0-4.068.786.532.532,0,0,1-.066.015L41,12.67l0,.007c-.245.059-2.479.582-5.527,1.087A67.783,67.783,0,0,1,24.61,14.786a83.972,83.972,0,0,1-16.4-2.109v-.006l-.038-.008a.565.565,0,0,1-.069-.016,14.941,14.941,0,0,0-4.055-.781,1.5,1.5,0,0,0-.76.13,3.76,3.76,0,0,0-.777,3.379h7.65A2.6,2.6,0,0,1,12.7,18.559c-.009.04-.021.082-.036.127L12,20.6a2.181,2.181,0,0,1-2.119,1.627h-4.7a33.838,33.838,0,0,0,2,3.19,1.223,1.223,0,0,1,.231.718V30.75h4.861v-1.7h2.46v1.817a2.343,2.343,0,0,1-2.34,2.341h-5.1a2.343,2.343,0,0,1-2.34-2.341V26.525A35.724,35.724,0,0,1,1,19.177a13.918,13.918,0,0,1-1-4.892A5.5,5.5,0,0,1,1.6,10.21a3.68,3.68,0,0,1,2.611-.8,13.7,13.7,0,0,1,3.512.549L8.2,8.63H7.257a.249.249,0,0,0,.15-.048L4.923,8.63A2.428,2.428,0,0,1,7.249,6.17H9.068l1.2-3.389A4.128,4.128,0,0,1,14.176,0H35.031A4.123,4.123,0,0,1,38.94,2.775l1.2,3.4h1.822a2.427,2.427,0,0,1,2.324,2.46H41.008l.471,1.333a13.687,13.687,0,0,1,3.512-.55,3.677,3.677,0,0,1,2.611.8,5.5,5.5,0,0,1,1.6,4.076,13.918,13.918,0,0,1-1,4.892,35.717,35.717,0,0,1-3.935,7.347v4.344A2.343,2.343,0,0,1,41.927,33.21ZM39.042,17.835a.142.142,0,0,0-.14.136l.625,1.8h5.748c.3-.666.563-1.317.778-1.933Zm-35.9,0c.216.618.479,1.269.78,1.933H9.681l.625-1.8a.131.131,0,0,0-.031-.085.129.129,0,0,0-.107-.052ZM14.176,2.46a1.648,1.648,0,0,0-1.594,1.147L10.12,10.574a79.53,79.53,0,0,0,14.49,1.752,78.536,78.536,0,0,0,14.477-1.749L36.622,3.6a1.643,1.643,0,0,0-1.591-1.14ZM38.644,27.365H10.562v-2.46H38.644v2.459Z" transform="translate(0 0)" fill="#171343"/>
    </clipPath>
  </defs>
  <g id="Group_2" data-name="Group 2" transform="translate(0.5 0.5)">
    <circle id="Oval" cx="39" cy="39" r="39" fill="#fff" stroke="#65a518" stroke-width="1"/>
    <g id="Sport_Car" data-name="Sport Car" transform="translate(14.4 23.87)">
      <g id="Grupo_79" data-name="Grupo 79" transform="translate(0 0)">
        <path id="Fill_4-2" data-name="Fill 4" d="M41.927,33.21h-5.1a2.343,2.343,0,0,1-2.339-2.341V29.052h2.46v1.7h4.861V26.136a1.242,1.242,0,0,1,.231-.717,33.882,33.882,0,0,0,1.993-3.19h-4.7a2.181,2.181,0,0,1-2.12-1.627l-.666-1.915a1.285,1.285,0,0,1-.037-.127,2.6,2.6,0,0,1,2.532-3.184h7.639a3.778,3.778,0,0,0-.783-3.391,1.462,1.462,0,0,0-.731-.123,14.947,14.947,0,0,0-4.068.786.532.532,0,0,1-.066.015L41,12.67l0,.007c-.245.059-2.479.582-5.527,1.087A67.783,67.783,0,0,1,24.61,14.786a83.972,83.972,0,0,1-16.4-2.109v-.006l-.038-.008a.565.565,0,0,1-.069-.016,14.941,14.941,0,0,0-4.055-.781,1.5,1.5,0,0,0-.76.13,3.76,3.76,0,0,0-.777,3.379h7.65A2.6,2.6,0,0,1,12.7,18.559c-.009.04-.021.082-.036.127L12,20.6a2.181,2.181,0,0,1-2.119,1.627h-4.7a33.838,33.838,0,0,0,2,3.19,1.223,1.223,0,0,1,.231.718V30.75h4.861v-1.7h2.46v1.817a2.343,2.343,0,0,1-2.34,2.341h-5.1a2.343,2.343,0,0,1-2.34-2.341V26.525A35.724,35.724,0,0,1,1,19.177a13.918,13.918,0,0,1-1-4.892A5.5,5.5,0,0,1,1.6,10.21a3.68,3.68,0,0,1,2.611-.8,13.7,13.7,0,0,1,3.512.549L8.2,8.63H7.257a.249.249,0,0,0,.15-.048L4.923,8.63A2.428,2.428,0,0,1,7.249,6.17H9.068l1.2-3.389A4.128,4.128,0,0,1,14.176,0H35.031A4.123,4.123,0,0,1,38.94,2.775l1.2,3.4h1.822a2.427,2.427,0,0,1,2.324,2.46H41.008l.471,1.333a13.687,13.687,0,0,1,3.512-.55,3.677,3.677,0,0,1,2.611.8,5.5,5.5,0,0,1,1.6,4.076,13.918,13.918,0,0,1-1,4.892,35.717,35.717,0,0,1-3.935,7.347v4.344A2.343,2.343,0,0,1,41.927,33.21ZM39.042,17.835a.142.142,0,0,0-.14.136l.625,1.8h5.748c.3-.666.563-1.317.778-1.933Zm-35.9,0c.216.618.479,1.269.78,1.933H9.681l.625-1.8a.131.131,0,0,0-.031-.085.129.129,0,0,0-.107-.052ZM14.176,2.46a1.648,1.648,0,0,0-1.594,1.147L10.12,10.574a79.53,79.53,0,0,0,14.49,1.752,78.536,78.536,0,0,0,14.477-1.749L36.622,3.6a1.643,1.643,0,0,0-1.591-1.14ZM38.644,27.365H10.562v-2.46H38.644v2.459Z" transform="translate(0 0)" fill="#171343"/>
        <g id="Enmascarar_grupo_79" data-name="Enmascarar grupo 79" clip-path="url(#clip-path)">
          <g id="Blue_1" data-name="Blue 1" transform="translate(0 -11.07)">
            <rect id="Rectangle" width="49.2" height="49.2" fill="#006729"/>
          </g>
        </g>
      </g>
    </g>
  </g>
</svg>
