<svg xmlns="http://www.w3.org/2000/svg" width="81" height="81" viewBox="0 0 81 81">
  <g id="Group" transform="translate(0.5 0.5)">
    <circle id="Oval" cx="40" cy="40" r="40" fill="#fff" stroke="#65a518" stroke-width="1"/>
    <g id="Group_1937" data-name="Group 1937" transform="translate(12.8 24)">
      <path id="Fill_1929" data-name="Fill 1929" d="M7.191,14.382a7.191,7.191,0,1,1,7.194-7.188A7.2,7.2,0,0,1,7.191,14.382Zm0-11.735a4.545,4.545,0,1,0,4.548,4.547A4.551,4.551,0,0,0,7.191,2.647Z" transform="translate(4.374 0.307)" fill="#006729"/>
      <path id="Fill_1931" data-name="Fill 1931" d="M7.194,14.382a7.191,7.191,0,1,1,7.191-7.188A7.2,7.2,0,0,1,7.194,14.382Zm0-11.735a4.545,4.545,0,1,0,4.545,4.547A4.552,4.552,0,0,0,7.194,2.647Z" transform="translate(35.493 0.307)" fill="#006729"/>
      <path id="Fill_1933" data-name="Fill 1933" d="M6.017,12.036a6.018,6.018,0,1,1,6.02-6.016A6.024,6.024,0,0,1,6.017,12.036Zm0-9.389A3.371,3.371,0,1,0,9.391,6.019,3.375,3.375,0,0,0,6.017,2.647Z" transform="translate(21.107 6.552)" fill="#006729"/>
      <path id="Fill_1935" data-name="Fill 1935" d="M41.457,0a10.5,10.5,0,0,0-9.123,5.327,10.429,10.429,0,0,0-12.988-.445A10.484,10.484,0,0,0,0,10.493H2.646A7.846,7.846,0,0,1,17.387,6.749a10.433,10.433,0,0,0-2.326,6.574h2.646a7.847,7.847,0,0,1,15.694,0h2.646a10.428,10.428,0,0,0-1.816-5.891A7.847,7.847,0,0,1,49.3,10.493h2.646A10.506,10.506,0,0,0,41.457,0" transform="translate(1.151 16.806)" fill="#006729"/>
    </g>
  </g>
</svg>
