<svg xmlns="http://www.w3.org/2000/svg" xmlns:xlink="http://www.w3.org/1999/xlink" width="81" height="81" viewBox="0 0 81 81">
  <defs>
    <clipPath id="clip-path">
      <path id="Fill_4" data-name="Fill 4" d="M14.612,41.6c-3.868,0-6.178-1.99-6.178-5.324h2.075a3.214,3.214,0,0,0,.513,1.933c.633.881,1.84,1.328,3.59,1.328a4.1,4.1,0,0,0,4.11-4.08V17.311c-2.1.273-3.8,1.33-4.216,2.631a1.038,1.038,0,0,1-.959.716h-.029a1.044,1.044,0,0,1-.969-.664c-.633-1.647-2.752-2.753-5.272-2.753A5.539,5.539,0,0,0,2,20.024a1.045,1.045,0,0,1-.946.634H1.038a1.044,1.044,0,0,1-.888-.5,1.03,1.03,0,0,1-.132-.72,19.336,19.336,0,0,1,1.606-7.566A19.773,19.773,0,0,1,33.632,5.683a19.619,19.619,0,0,1,4.247,6.168A19.34,19.34,0,0,1,39.5,19.4a1.02,1.02,0,0,1-.124.755,1.043,1.043,0,0,1-.889.5h-.023a1.036,1.036,0,0,1-.986-.709,5.822,5.822,0,0,0-1.95-1.791,6.537,6.537,0,0,0-3.28-.917,6.06,6.06,0,0,0-5.3,2.822,1.031,1.031,0,0,1-.922.595l-.059,0a1.015,1.015,0,0,1-.883-.565A5.2,5.2,0,0,0,20.8,17.3v7.655a10.5,10.5,0,0,1,.972-1.112,10.417,10.417,0,0,1,14.672,0,10.279,10.279,0,0,1,0,14.592,10.416,10.416,0,0,1-14.672,0,10.473,10.473,0,0,1-1.18-1.4A6.188,6.188,0,0,1,14.612,41.6Zm11.852-6.968h0l-1.1,1.094,3.741,3.72,3.742-3.72-1.1-1.094L29.1,37.258l-2.641-2.626Zm-.152-2.609v1.548h2.015v1.21h1.556v-1.21H30.3a2.759,2.759,0,1,0,0-5.517h-.419V25.636H31.9V24.088H29.883V22.877H28.327v1.211h-.419a2.757,2.757,0,1,0,0,5.514h.419v2.421ZM19.76,15.178a8.219,8.219,0,0,1,5.315,1.7,31.461,31.461,0,0,0-.947-7.713c-.886-3.278-2.351-5.607-4.355-6.924-4.528,2.973-5.267,10.388-5.3,14.543A8.973,8.973,0,0,1,19.76,15.178ZM23.018,2.365h0A16.614,16.614,0,0,1,26.4,9.678a34.256,34.256,0,0,1,.762,7.116,8.656,8.656,0,0,1,10.027-.033,17.658,17.658,0,0,0-14.169-14.4ZM7.278,15.178a8.959,8.959,0,0,1,5.108,1.5A34.066,34.066,0,0,1,13.165,9.6a16.54,16.54,0,0,1,3.368-7.237A17.685,17.685,0,0,0,2.355,16.6,8.425,8.425,0,0,1,7.278,15.178ZM30.3,32.023h-.419V29.6H30.3a1.211,1.211,0,1,1,0,2.422Zm-1.975-3.969h-.419a1.21,1.21,0,1,1,0-2.419h.419v2.419Z" transform="translate(0)" fill="#006729"/>
    </clipPath>
  </defs>
  <g id="Group_3" data-name="Group 3" transform="translate(0.5 0.5)">
    <circle id="Oval" cx="40" cy="40" r="40" fill="#fff" stroke="#65a518" stroke-width="1"/>
    <g id="Cover" transform="translate(20.24 19.2)">
      <g id="Grupo_72" data-name="Grupo 72" transform="translate(0 0)">
        <path id="Fill_4-2" data-name="Fill 4" d="M14.612,41.6c-3.868,0-6.178-1.99-6.178-5.324h2.075a3.214,3.214,0,0,0,.513,1.933c.633.881,1.84,1.328,3.59,1.328a4.1,4.1,0,0,0,4.11-4.08V17.311c-2.1.273-3.8,1.33-4.216,2.631a1.038,1.038,0,0,1-.959.716h-.029a1.044,1.044,0,0,1-.969-.664c-.633-1.647-2.752-2.753-5.272-2.753A5.539,5.539,0,0,0,2,20.024a1.045,1.045,0,0,1-.946.634H1.038a1.044,1.044,0,0,1-.888-.5,1.03,1.03,0,0,1-.132-.72,19.336,19.336,0,0,1,1.606-7.566A19.773,19.773,0,0,1,33.632,5.683a19.619,19.619,0,0,1,4.247,6.168A19.34,19.34,0,0,1,39.5,19.4a1.02,1.02,0,0,1-.124.755,1.043,1.043,0,0,1-.889.5h-.023a1.036,1.036,0,0,1-.986-.709,5.822,5.822,0,0,0-1.95-1.791,6.537,6.537,0,0,0-3.28-.917,6.06,6.06,0,0,0-5.3,2.822,1.031,1.031,0,0,1-.922.595l-.059,0a1.015,1.015,0,0,1-.883-.565A5.2,5.2,0,0,0,20.8,17.3v7.655a10.5,10.5,0,0,1,.972-1.112,10.417,10.417,0,0,1,14.672,0,10.279,10.279,0,0,1,0,14.592,10.416,10.416,0,0,1-14.672,0,10.473,10.473,0,0,1-1.18-1.4A6.188,6.188,0,0,1,14.612,41.6Zm11.852-6.968h0l-1.1,1.094,3.741,3.72,3.742-3.72-1.1-1.094L29.1,37.258l-2.641-2.626Zm-.152-2.609v1.548h2.015v1.21h1.556v-1.21H30.3a2.759,2.759,0,1,0,0-5.517h-.419V25.636H31.9V24.088H29.883V22.877H28.327v1.211h-.419a2.757,2.757,0,1,0,0,5.514h.419v2.421ZM19.76,15.178a8.219,8.219,0,0,1,5.315,1.7,31.461,31.461,0,0,0-.947-7.713c-.886-3.278-2.351-5.607-4.355-6.924-4.528,2.973-5.267,10.388-5.3,14.543A8.973,8.973,0,0,1,19.76,15.178ZM23.018,2.365h0A16.614,16.614,0,0,1,26.4,9.678a34.256,34.256,0,0,1,.762,7.116,8.656,8.656,0,0,1,10.027-.033,17.658,17.658,0,0,0-14.169-14.4ZM7.278,15.178a8.959,8.959,0,0,1,5.108,1.5A34.066,34.066,0,0,1,13.165,9.6a16.54,16.54,0,0,1,3.368-7.237A17.685,17.685,0,0,0,2.355,16.6,8.425,8.425,0,0,1,7.278,15.178ZM30.3,32.023h-.419V29.6H30.3a1.211,1.211,0,1,1,0,2.422Zm-1.975-3.969h-.419a1.21,1.21,0,1,1,0-2.419h.419v2.419Z" transform="translate(0)" fill="#171343"/>
        <g id="Enmascarar_grupo_72" data-name="Enmascarar grupo 72" clip-path="url(#clip-path)">
          <g id="Blue_1" data-name="Blue 1" transform="translate(-1.04 0)">
            <rect id="Rectangle" width="41.6" height="41.6" fill="#006729"/>
          </g>
        </g>
      </g>
    </g>
  </g>
</svg>
