<svg id="linkedib-liberty" xmlns="http://www.w3.org/2000/svg" xmlns:xlink="http://www.w3.org/1999/xlink" width="27.366" height="27.366" viewBox="0 0 27.366 27.366">
  <defs>
    <clipPath id="clip-path">
      <path id="Mask" d="M13.683,27.366A13.683,13.683,0,0,1,4.008,4.008,13.683,13.683,0,1,1,23.358,23.358,13.594,13.594,0,0,1,13.683,27.366ZM16.049,13.51c.949,0,1.45.674,1.45,1.948v4.611h2.865V15.126c0-2.428-1.233-3.877-3.3-3.877a2.827,2.827,0,0,0-2.582,1.423v-1.22H11.62c.038.8,0,8.538,0,8.616h2.865V15.255a1.988,1.988,0,0,1,.095-.7A1.6,1.6,0,0,1,16.049,13.51ZM7.171,11.452v8.617h2.864V11.452ZM8.622,7.3a1.493,1.493,0,1,0-.037,2.977H8.6A1.493,1.493,0,1,0,8.622,7.3Z" transform="translate(0 0)" fill="#1a1446"/>
    </clipPath>
  </defs>
  <rect id="Rectángulo_6849" data-name="Rectángulo 6849" width="17.415" height="16.585" transform="translate(4.561 5.795)" fill="#006729"/>
  <path id="Mask-2" data-name="Mask" d="M13.683,27.366A13.683,13.683,0,0,1,4.008,4.008,13.683,13.683,0,1,1,23.358,23.358,13.594,13.594,0,0,1,13.683,27.366ZM16.049,13.51c.949,0,1.45.674,1.45,1.948v4.611h2.865V15.126c0-2.428-1.233-3.877-3.3-3.877a2.827,2.827,0,0,0-2.582,1.423v-1.22H11.62c.038.8,0,8.538,0,8.616h2.865V15.255a1.988,1.988,0,0,1,.095-.7A1.6,1.6,0,0,1,16.049,13.51ZM7.171,11.452v8.617h2.864V11.452ZM8.622,7.3a1.493,1.493,0,1,0-.037,2.977H8.6A1.493,1.493,0,1,0,8.622,7.3Z" transform="translate(0 0)" fill="#1a1446"/>
  <g id="linkedib-liberty-2" data-name="linkedib-liberty" transform="translate(0 0)" clip-path="url(#clip-path)">
    <g id="Color" transform="translate(0 0)">
      <rect id="Rectangle" width="27.366" height="27.366" fill="#fff"/>
    </g>
  </g>
</svg>
