<svg xmlns="http://www.w3.org/2000/svg" xmlns:xlink="http://www.w3.org/1999/xlink" width="70" height="70" viewBox="0 0 70 70">
  <defs>
    <filter id="Elipse_424" x="0" y="0" width="70" height="70" filterUnits="userSpaceOnUse">
      <feOffset dy="3" input="SourceAlpha"/>
      <feGaussianBlur stdDeviation="3" result="blur"/>
      <feFlood flood-opacity="0.161"/>
      <feComposite operator="in" in2="blur"/>
      <feComposite in="SourceGraphic"/>
    </filter>
  </defs>
  <g id="Componente_3041_10" data-name="Componente 3041 – 10" transform="translate(9 6)">
    <g transform="matrix(1, 0, 0, 1, -9, -6)" filter="url(#Elipse_424)">
      <circle id="Elipse_424-2" data-name="Elipse 424" cx="26" cy="26" r="26" transform="translate(9 6)" fill="#009c49"/>
    </g>
    <g id="Grupo_30374" data-name="Grupo 30374" transform="translate(24492.135 20522.586)">
      <path id="Trazado_16141" data-name="Trazado 16141" d="M0,0H27.73V27.73H0Z" transform="translate(-24480 -20511)" fill="none"/>
      <g id="_2071331" data-name="2071331" transform="translate(-24478.74 -20509.74)">
        <path id="Trazado_698" data-name="Trazado 698" d="M329.79-684.647a12.385,12.385,0,0,0-5.962,2.04,12.233,12.233,0,0,0-4.183,4.816,12.087,12.087,0,0,0-1.047,3.282,13.435,13.435,0,0,0-.084,3.374,14.075,14.075,0,0,0,1.388,4.555l.2.395-.472,1.407c-.261.775-.732,2.185-1.051,3.136s-.583,1.76-.583,1.8.05.084.111.108c.1.038.111.054.092.172s-.019.131.069.1c.157-.05,3.589-1.143,5.038-1.61.759-.242,1.411-.441,1.449-.441a1.662,1.662,0,0,1,.364.15,12.425,12.425,0,0,0,4.49,1.273,15.014,15.014,0,0,0,2.527-.061,12.017,12.017,0,0,0,8.688-5.629,14.355,14.355,0,0,0,1.538-3.65,12.735,12.735,0,0,0,.368-3.765,12.137,12.137,0,0,0-3.378-7.734,12.194,12.194,0,0,0-7.266-3.65A20.586,20.586,0,0,0,329.79-684.647Zm1.5,2.622a9.774,9.774,0,0,1,3.677.993,10,10,0,0,1,3.949,3.474,8.819,8.819,0,0,1,1.423,3.754,12.878,12.878,0,0,1,0,2.607,9.839,9.839,0,0,1-9.095,8.5,9.835,9.835,0,0,1-4.647-.82,10.172,10.172,0,0,1-1.3-.7.435.435,0,0,0-.188-.092c-.034,0-.851.249-1.81.556s-1.748.556-1.752.548.238-.755.541-1.66.552-1.695.552-1.756a.871.871,0,0,0-.169-.345,9.891,9.891,0,0,1-1.346-8.155,7.882,7.882,0,0,1,.594-1.5,10.063,10.063,0,0,1,3.374-3.765A9.965,9.965,0,0,1,331.289-682.024Z" transform="translate(-318 684.657)" fill="#fcfcfc"/>
        <path id="Trazado_699" data-name="Trazado 699" d="M487.726-524.463a1.36,1.36,0,0,0-.238.108,4.4,4.4,0,0,0-.777.831,3.212,3.212,0,0,0-.292,2.639,7.163,7.163,0,0,0,.948,1.995,12.033,12.033,0,0,0,1.617,2.071,8,8,0,0,0,2.94,2.014,8.242,8.242,0,0,0,1.925.625,3.422,3.422,0,0,0,1.148-.184,2.77,2.77,0,0,0,1.183-.831,3.6,3.6,0,0,0,.438-1.449l.019-.3-.1-.114a5.67,5.67,0,0,0-.932-.558c-1.37-.736-1.545-.806-1.76-.691a3.059,3.059,0,0,0-.447.453c-.565.657-.682.771-.777.771a6.158,6.158,0,0,1-1.278-.65,6.116,6.116,0,0,1-1.059-.891,7.48,7.48,0,0,1-1.126-1.542l-.057-.114.228-.251a2.137,2.137,0,0,0,.546-.85,1,1,0,0,0-.064-.92c-.162-.422-.292-.771-.517-1.377-.184-.5-.32-.7-.511-.761A3.74,3.74,0,0,0,487.726-524.463Z" transform="translate(-479.074 531.61)" fill="#fcfcfc"/>
      </g>
    </g>
  </g>
</svg>
