<svg xmlns="http://www.w3.org/2000/svg" xmlns:xlink="http://www.w3.org/1999/xlink" width="85.141" height="20" viewBox="0 0 85.141 20">
  <defs>
    <clipPath id="clip-path">
      <rect id="Rectángulo_2683" data-name="Rectángulo 2683" width="85.141" height="20" fill="none"/>
    </clipPath>
  </defs>
  <g id="Grupo_29133" data-name="Grupo 29133" transform="translate(-945.702 -608.176)">
    <g id="Grupo_29135" data-name="Grupo 29135" transform="translate(945.702 608.176)">
      <rect id="Rectángulo_2681" data-name="Rectángulo 2681" width="4.468" height="4.468" transform="translate(80.673 15.207)" fill="#a7002a"/>
      <path id="Trazado_14259" data-name="Trazado 14259" d="M74.7,6.177l-2.641,4.412L69.374,6.177h-4.15L69.649,12.6l-4.7,7.075h3.675l3.013-4.924,3.036,4.924h4.2L74,12.552l4.25-6.375Z" transform="translate(0 -0.001)" fill="#2c353f"/>
      <g id="Grupo_29134" data-name="Grupo 29134">
        <g id="Grupo_29133-2" data-name="Grupo 29133" clip-path="url(#clip-path)">
          <path id="Trazado_14260" data-name="Trazado 14260" d="M63.036,19.675V11.151c0-3.05-1.375-5.3-4.6-5.3A5.036,5.036,0,0,0,54.012,8h-.05V6.176H50.787v13.5h3.35v-6.6c0-1.724.55-4.5,3.1-4.5,2.25,0,2.275,2.25,2.275,3.9v7.2Z" transform="translate(0 -0.001)" fill="#2c353f"/>
          <path id="Trazado_14261" data-name="Trazado 14261" d="M41.293,5.852a14.667,14.667,0,0,0-4.7.9V9.126a15.837,15.837,0,0,1,4.274-.75c2.075,0,3.05.775,3.05,3.15h-1.95a10.857,10.857,0,0,0-4.55.775,3.734,3.734,0,0,0-2.3,3.674c0,2.575,2.325,4.025,4.724,4.025a4.883,4.883,0,0,0,4.175-2.324h.05v2h3.05V11.551c0-4-1.7-5.7-5.825-5.7m1.875,10.374a2.974,2.974,0,0,1-2.45,1.2c-1.275,0-2.25-.5-2.25-1.65,0-2.075,2.35-2.151,3.925-2.151h1.525a4,4,0,0,1-.75,2.6" transform="translate(0 -0.001)" fill="#2c353f"/>
          <rect id="Rectángulo_2682" data-name="Rectángulo 2682" width="3.425" height="19.675" transform="translate(28.919 -0.001)" fill="#2c353f"/>
          <path id="Trazado_14262" data-name="Trazado 14262" d="M11.924,8.753V6.026H0V8.753H3.35v6.923c0,2.675,1.349,4.2,4.1,4.2a11.2,11.2,0,0,0,3.5-.6l-.025-2.449a7.949,7.949,0,0,1-2.5.4c-1.625,0-1.6-1.05-1.6-2.326V8.753Z" transform="translate(0 -0.001)" fill="#2c353f"/>
          <path id="Trazado_14263" data-name="Trazado 14263" d="M19.5,5.852a14.954,14.954,0,0,0-4.7.9V9.126a16.046,16.046,0,0,1,4.3-.75c2.051,0,3.025.775,3.025,3.15H20.2a10.85,10.85,0,0,0-4.549.775,3.7,3.7,0,0,0-2.3,3.674c0,2.575,2.325,4.025,4.724,4.025a4.883,4.883,0,0,0,4.175-2.324h.05l-.025,2h3.05V11.551c0-4-1.7-5.7-5.825-5.7m1.9,10.374a3.02,3.02,0,0,1-2.475,1.2c-1.25,0-2.225-.5-2.225-1.65,0-2.075,2.325-2.151,3.9-2.151h1.524a3.978,3.978,0,0,1-.725,2.6" transform="translate(0 -0.001)" fill="#2c353f"/>
        </g>
      </g>
    </g>
  </g>
</svg>
