<svg id="Grupo_29149" data-name="Grupo 29149" xmlns="http://www.w3.org/2000/svg" xmlns:xlink="http://www.w3.org/1999/xlink" width="99.173" height="30" viewBox="0 0 99.173 30">
  <defs>
    <clipPath id="clip-path">
      <rect id="Rectángulo_3627" data-name="Rectángulo 3627" width="99.173" height="30" fill="none"/>
    </clipPath>
  </defs>
  <g id="Grupo_29148" data-name="Grupo 29148" clip-path="url(#clip-path)">
    <path id="Trazado_14267" data-name="Trazado 14267" d="M1.737,130.557l.05-.6H2.853l.03-.029c.03-.225.04-.293.095-.553l-.029-.034-1.1.029.076-.846H3.116l.035-.03.079-.558-.028-.029-.83.015H1.15l-.03.029c-.056.807-.075,1.042-.15,1.78l-.1.949-.078.68.028.03.83-.015.026-.029Z" transform="translate(-0.634 -102.622)" fill="#141215" fill-rule="evenodd"/>
    <path id="Trazado_14268" data-name="Trazado 14268" d="M15.337,133.927a1.277,1.277,0,0,1-.79.279c-.4,0-.613-.166-.651-.455-.007-.054-.009-.1-.01-.156.619-.015.834-.02,1.544-.015l.036-.025a2.25,2.25,0,0,0,.008-.577.946.946,0,0,0-.481-.768,1.338,1.338,0,0,0-.635-.142,1.3,1.3,0,0,0-1.257,1.614,1.211,1.211,0,0,0,.319.724,1.281,1.281,0,0,0,1.045.367,1.514,1.514,0,0,0,.814-.176l.021-.029c.012-.093.019-.191.036-.289s.031-.215.051-.323ZM13.9,133.1a.739.739,0,0,1,.173-.4.423.423,0,0,1,.328-.152.359.359,0,0,1,.375.323,1.108,1.108,0,0,1,0,.22Z" transform="translate(-10.497 -105.957)" fill="#141215" fill-rule="evenodd"/>
    <path id="Trazado_14269" data-name="Trazado 14269" d="M29.626,126.64l.105-.846-.034-.034-.8.142-.03.034c0,.23-.009.308-.035.6l-.049.528c-.1,0-.207-.01-.309-.01a1.387,1.387,0,0,0-1.277.563,1.728,1.728,0,0,0-.233,1.145.94.94,0,0,0,1.613.665l-.017.211.028.029.736-.019.03-.029c.036-.7.038-.763.143-1.761Zm-1.036,2.338a.535.535,0,0,1-.347.156c-.215,0-.4-.147-.44-.484a1.03,1.03,0,0,1,.341-.954.983.983,0,0,1,.574-.1Z" transform="translate(-21.619 -100.895)" fill="#141215" fill-rule="evenodd"/>
    <path id="Trazado_14270" data-name="Trazado 14270" d="M44.173,133.927a1.277,1.277,0,0,1-.79.279c-.4,0-.613-.166-.651-.455-.007-.054-.009-.1-.01-.156.619-.015.834-.02,1.544-.015l.036-.025a2.258,2.258,0,0,0,.008-.577.946.946,0,0,0-.481-.768,1.34,1.34,0,0,0-.635-.142,1.3,1.3,0,0,0-1.257,1.614,1.211,1.211,0,0,0,.319.724,1.283,1.283,0,0,0,1.046.367,1.513,1.513,0,0,0,.814-.176l.021-.029c.012-.093.019-.191.036-.289s.031-.215.051-.323Zm-1.437-.822a.742.742,0,0,1,.173-.4.423.423,0,0,1,.328-.152.359.359,0,0,1,.375.323,1.108,1.108,0,0,1,0,.22Z" transform="translate(-33.632 -105.957)" fill="#141215" fill-rule="evenodd"/>
    <path id="Trazado_14271" data-name="Trazado 14271" d="M56.676,134.21l.042-.5c.049-.523.076-.66.2-.783a.349.349,0,0,1,.236-.1.56.56,0,0,1,.278.108l.047-.01c.081-.279.094-.333.236-.783l-.026-.049a.492.492,0,0,0-.253-.063.621.621,0,0,0-.493.3,1.351,1.351,0,0,0-.136.274l.076-.548-.029-.034c-.382.073-.464.083-.838.137l-.03.029a11.164,11.164,0,0,1-.081,1.33l-.047.426-.088.714.029.034.814-.02.03-.029Z" transform="translate(-44.744 -105.917)" fill="#141215" fill-rule="evenodd"/>
    <path id="Trazado_14272" data-name="Trazado 14272" d="M68.18,132.355l-.035-.039h-.831a1.778,1.778,0,0,0-1.372.43,1.565,1.565,0,0,0-.368,1.267,1.326,1.326,0,0,0,.206.572.864.864,0,0,0,.719.376,1.007,1.007,0,0,0,.451-.108.722.722,0,0,0,.227-.171l-.007.215.028.029.736-.02.031-.024a15.515,15.515,0,0,1,.11-1.595Zm-.986,1.9a.468.468,0,0,1-.351.157c-.117,0-.374-.059-.43-.484-.038-.294.038-.91.549-1.047a1.33,1.33,0,0,1,.369-.02Z" transform="translate(-52.598 -106.156)" fill="#141215" fill-rule="evenodd"/>
    <path id="Trazado_14273" data-name="Trazado 14273" d="M82.57,134a.693.693,0,0,1-.5.2.642.642,0,0,1-.635-.631c-.058-.45.169-.92.629-.92a.7.7,0,0,1,.413.132,1.191,1.191,0,0,1,.1.1l.047-.014.094-.558-.014-.034a1.133,1.133,0,0,0-.407-.162,2.042,2.042,0,0,0-.382-.039,1.285,1.285,0,0,0-1.316,1.541,1.248,1.248,0,0,0,1.3,1.164,1.588,1.588,0,0,0,.48-.068,1.44,1.44,0,0,0,.135-.054l.025-.034.079-.6Z" transform="translate(-64.656 -105.957)" fill="#141215" fill-rule="evenodd"/>
    <path id="Trazado_14274" data-name="Trazado 14274" d="M93.279,128.763c.068-.719.088-.9.144-1.374l-.034-.034c-.348.068-.439.083-.843.137l-.03.034a8.48,8.48,0,0,1-.047.915l-.023.24c-.061.626-.075.739-.147,1.311l.029.034.844-.02.031-.024c.01-.337.011-.44.045-.856Zm.239-2.524-.034-.034-.793.108-.039.034-.056.66.034.034.788-.113.029-.039Z" transform="translate(-74.051 -101.253)" fill="#141215" fill-rule="evenodd"/>
    <path id="Trazado_14275" data-name="Trazado 14275" d="M101.956,126.155c-.351.01-.42.01-.781.01l-.027.02a7.169,7.169,0,0,1-.358.817l.03.041.513-.005.036-.02s.107-.154.115-.168.176-.229.23-.3c.075-.1.192-.255.267-.353Zm.247,2.724a2.054,2.054,0,0,0,0-.489,1.129,1.129,0,0,0-.411-.792,1.4,1.4,0,0,0-.887-.274,1.323,1.323,0,0,0-1.3,1.629,1.171,1.171,0,0,0,.425.822,1.422,1.422,0,0,0,.865.254,1.289,1.289,0,0,0,.928-.308,1.306,1.306,0,0,0,.38-.842m-.826-.186a1.165,1.165,0,0,1-.172.631.407.407,0,0,1-.332.191.4.4,0,0,1-.378-.235.614.614,0,0,1-.057-.215,2.015,2.015,0,0,1,.156-1.023.428.428,0,0,1,.375-.2c.289,0,.38.254.4.435a2.094,2.094,0,0,1,.005.416" transform="translate(-79.902 -101.213)" fill="#141215" fill-rule="evenodd"/>
    <path id="Trazado_14276" data-name="Trazado 14276" d="M116.993,134.009l.02-.337a5.827,5.827,0,0,0,.052-1.027.7.7,0,0,0-.744-.641,1.1,1.1,0,0,0-.73.294l.028-.269-.039-.034a7.549,7.549,0,0,1-.8.137l-.034.039a12.111,12.111,0,0,1-.063,1.287l-.035.333-.091.846.024.034.8-.02.03-.029c.048-.724.068-.983.142-1.839a.612.612,0,0,1,.372-.152.3.3,0,0,1,.3.274,2.519,2.519,0,0,1-.007.4l-.042.5-.088.827.028.029.8-.015.031-.024Z" transform="translate(-91.91 -105.897)" fill="#141215" fill-rule="evenodd"/>
    <path id="Trazado_14277" data-name="Trazado 14277" d="M139.365,126.64l.105-.846-.034-.034-.8.142-.03.034c0,.23-.009.308-.035.6l-.049.528c-.1,0-.207-.01-.309-.01a1.387,1.387,0,0,0-1.277.563,1.729,1.729,0,0,0-.232,1.145.94.94,0,0,0,1.613.665l-.017.211.028.029.736-.019.03-.029c.036-.7.038-.763.143-1.761Zm-1.036,2.338a.534.534,0,0,1-.347.156c-.215,0-.4-.147-.44-.484a1.03,1.03,0,0,1,.341-.954.983.983,0,0,1,.574-.1Z" transform="translate(-109.661 -100.895)" fill="#141215" fill-rule="evenodd"/>
    <path id="Trazado_14278" data-name="Trazado 14278" d="M153.911,133.927a1.277,1.277,0,0,1-.79.279c-.4,0-.614-.166-.651-.455-.007-.054-.008-.1-.01-.156.619-.015.834-.02,1.544-.015l.036-.025a2.25,2.25,0,0,0,.008-.577.946.946,0,0,0-.481-.768,1.338,1.338,0,0,0-.635-.142,1.3,1.3,0,0,0-1.257,1.614,1.212,1.212,0,0,0,.319.724,1.281,1.281,0,0,0,1.045.367,1.513,1.513,0,0,0,.814-.176l.021-.029c.012-.093.019-.191.036-.289s.031-.215.051-.323Zm-1.437-.822a.739.739,0,0,1,.173-.4.423.423,0,0,1,.328-.152.359.359,0,0,1,.375.323,1.108,1.108,0,0,1,0,.22Z" transform="translate(-121.674 -105.957)" fill="#141215" fill-rule="evenodd"/>
    <path id="Trazado_14279" data-name="Trazado 14279" d="M173.626,127.887l-1.059.015-.036.029c-.182.479-.278.719-.463,1.179l-.442,1.076c-.262.655-.308.753-.47,1.125l.027.059c.355-.015.453-.015.781-.015l.03-.029.192-.553.117-.337h1.027l.062.362.08.543.033.029.834-.015.026-.029c-.328-1.507-.421-1.957-.713-3.414Zm-.607.562.126.817.1.577h-.734Z" transform="translate(-137.317 -102.602)" fill="#141215" fill-rule="evenodd"/>
    <path id="Trazado_14280" data-name="Trazado 14280" d="M188.479,134.494a1.807,1.807,0,0,0,.951.244c1.076,0,1.109-.69,1.078-.924a.965.965,0,0,0-.656-.715l-.119-.054c-.135-.059-.317-.142-.336-.289-.015-.117.08-.249.344-.249a.871.871,0,0,1,.458.142.978.978,0,0,1,.165.142l.047-.009c.025-.225.034-.269.079-.524l-.026-.044a1.985,1.985,0,0,0-.857-.2c-1.076,0-1.022.758-1.006.881a.856.856,0,0,0,.6.67l.115.054c.181.078.353.157.374.323.009.068-.007.284-.384.284a1.022,1.022,0,0,1-.721-.318l-.042.015-.083.523Z" transform="translate(-151.198 -105.917)" fill="#141215" fill-rule="evenodd"/>
    <path id="Trazado_14281" data-name="Trazado 14281" d="M202.863,133.927a1.277,1.277,0,0,1-.79.279c-.4,0-.613-.166-.651-.455-.007-.054-.008-.1-.01-.156.619-.015.834-.02,1.544-.015l.036-.025a2.267,2.267,0,0,0,.008-.577.946.946,0,0,0-.482-.768,1.338,1.338,0,0,0-.635-.142,1.3,1.3,0,0,0-1.257,1.614,1.212,1.212,0,0,0,.319.724,1.282,1.282,0,0,0,1.046.367,1.514,1.514,0,0,0,.814-.176l.021-.029c.012-.093.019-.191.036-.289s.031-.215.051-.323Zm-1.437-.822a.739.739,0,0,1,.173-.4.423.423,0,0,1,.328-.152.359.359,0,0,1,.374.323,1.08,1.08,0,0,1,0,.22Z" transform="translate(-160.947 -105.957)" fill="#141215" fill-rule="evenodd"/>
    <path id="Trazado_14282" data-name="Trazado 14282" d="M216.966,132.316l-.879.009c-.561.015-1.263.03-1.592.773a1.875,1.875,0,0,0-.125.959.963.963,0,0,0,.945.91,1.031,1.031,0,0,0,.625-.2l-.018.166c-.03.254-.084.665-.623.665a1.008,1.008,0,0,1-.748-.333l-.048,0-.166.528.015.039a1.306,1.306,0,0,0,.291.171,2.028,2.028,0,0,0,.792.147,1.652,1.652,0,0,0,.77-.171c.46-.259.495-.67.561-1.438l.059-.675c.073-.753.089-.9.164-1.521Zm-.847.558-.137,1.394c-.035.029-.066.059-.1.083a.512.512,0,0,1-.236.063c-.382,0-.434-.406-.443-.475a1.16,1.16,0,0,1,.2-.856.791.791,0,0,1,.618-.21Z" transform="translate(-171.96 -106.156)" fill="#141215" fill-rule="evenodd"/>
    <path id="Trazado_14283" data-name="Trazado 14283" d="M232.19,134.1l.044-.489.139-1.3-.03-.039-.783.039-.035.029-.06.856-.082.949a.621.621,0,0,1-.408.171.3.3,0,0,1-.31-.279,3.785,3.785,0,0,1,.038-.69c.019-.156.037-.313.051-.469.024-.191.044-.377.063-.567l-.03-.039-.773.039-.03.029c-.016.328-.02.411-.058.758l-.049.484a2.717,2.717,0,0,0-.028.69.722.722,0,0,0,.761.66,1.007,1.007,0,0,0,.731-.318l-.027.244.029.034.761-.02.03-.029Z" transform="translate(-184.396 -106.116)" fill="#141215" fill-rule="evenodd"/>
    <path id="Trazado_14284" data-name="Trazado 14284" d="M245.24,134.21l.042-.5c.049-.523.076-.66.2-.783a.349.349,0,0,1,.236-.1.559.559,0,0,1,.278.108l.048-.01c.081-.279.094-.333.236-.783l-.026-.049a.491.491,0,0,0-.253-.063.621.621,0,0,0-.494.3,1.349,1.349,0,0,0-.135.274l.075-.548-.029-.034c-.382.073-.464.083-.838.137l-.03.029a11.163,11.163,0,0,1-.081,1.33l-.047.426-.088.714.029.034.814-.02.03-.029Z" transform="translate(-196.027 -105.917)" fill="#141215" fill-rule="evenodd"/>
    <path id="Trazado_14285" data-name="Trazado 14285" d="M256.745,132.355l-.034-.039h-.832a1.777,1.777,0,0,0-1.373.43,1.564,1.564,0,0,0-.368,1.267,1.323,1.323,0,0,0,.207.572.863.863,0,0,0,.719.376,1.009,1.009,0,0,0,.451-.108.717.717,0,0,0,.227-.171l-.006.215.028.029.736-.02.031-.024a15.508,15.508,0,0,1,.11-1.595Zm-.985,1.9a.468.468,0,0,1-.352.157c-.117,0-.375-.059-.43-.484-.038-.294.038-.91.548-1.047a1.334,1.334,0,0,1,.37-.02Z" transform="translate(-203.881 -106.156)" fill="#141215" fill-rule="evenodd"/>
    <path id="Trazado_14286" data-name="Trazado 14286" d="M271.763,126.64l.105-.846-.034-.034-.8.142-.03.034c0,.23-.009.308-.035.6l-.049.528c-.1,0-.207-.01-.309-.01a1.387,1.387,0,0,0-1.277.563,1.726,1.726,0,0,0-.233,1.145.94.94,0,0,0,1.613.665l-.017.211.028.029.736-.019.031-.029c.035-.7.038-.763.143-1.761Zm-1.036,2.338a.535.535,0,0,1-.347.156c-.215,0-.4-.147-.439-.484a1.03,1.03,0,0,1,.34-.954.984.984,0,0,1,.574-.1Z" transform="translate(-215.882 -100.895)" fill="#141215" fill-rule="evenodd"/>
    <path id="Trazado_14287" data-name="Trazado 14287" d="M286.639,133.623a2.044,2.044,0,0,0,0-.489,1.129,1.129,0,0,0-.411-.792,1.4,1.4,0,0,0-.887-.274,1.323,1.323,0,0,0-1.3,1.629,1.169,1.169,0,0,0,.425.822,1.422,1.422,0,0,0,.865.254,1.289,1.289,0,0,0,.928-.308,1.307,1.307,0,0,0,.38-.842m-.826-.186a1.168,1.168,0,0,1-.172.631.408.408,0,0,1-.333.191.4.4,0,0,1-.378-.235.619.619,0,0,1-.057-.215,2.017,2.017,0,0,1,.156-1.023.429.429,0,0,1,.375-.2c.289,0,.381.254.4.435a2.077,2.077,0,0,1,.005.416" transform="translate(-227.873 -105.957)" fill="#141215" fill-rule="evenodd"/>
    <path id="Trazado_14288" data-name="Trazado 14288" d="M299.852,134.21l.042-.5c.049-.523.076-.66.2-.783a.349.349,0,0,1,.236-.1.56.56,0,0,1,.278.108l.047-.01c.081-.279.094-.333.236-.783l-.026-.049a.492.492,0,0,0-.253-.063.621.621,0,0,0-.494.3,1.348,1.348,0,0,0-.135.274l.075-.548-.029-.034c-.382.073-.463.083-.838.137l-.03.029a11.24,11.24,0,0,1-.081,1.33l-.048.426-.088.714.029.034.814-.02.03-.029Z" transform="translate(-239.841 -105.917)" fill="#141215" fill-rule="evenodd"/>
    <path id="Trazado_14289" data-name="Trazado 14289" d="M311.047,133.927a1.278,1.278,0,0,1-.791.279c-.4,0-.614-.166-.651-.455-.007-.054-.008-.1-.01-.156.619-.015.834-.02,1.544-.015l.036-.025a2.255,2.255,0,0,0,.008-.577.946.946,0,0,0-.481-.768,1.339,1.339,0,0,0-.635-.142,1.3,1.3,0,0,0-1.258,1.614,1.212,1.212,0,0,0,.319.724,1.282,1.282,0,0,0,1.046.367,1.512,1.512,0,0,0,.814-.176l.021-.029c.012-.093.019-.191.036-.289s.031-.215.051-.323Zm-1.438-.822a.742.742,0,0,1,.173-.4.423.423,0,0,1,.328-.152.359.359,0,0,1,.375.323,1.1,1.1,0,0,1,0,.22Z" transform="translate(-247.742 -105.957)" fill="#141215" fill-rule="evenodd"/>
    <path id="Trazado_14290" data-name="Trazado 14290" d="M322.4,134.494a1.807,1.807,0,0,0,.951.244c1.076,0,1.109-.69,1.078-.924a.965.965,0,0,0-.655-.715l-.119-.054c-.135-.059-.317-.142-.336-.289-.015-.117.08-.249.344-.249a.871.871,0,0,1,.458.142.992.992,0,0,1,.165.142l.048-.009c.025-.225.033-.269.079-.524l-.025-.044a1.986,1.986,0,0,0-.857-.2c-1.076,0-1.021.758-1.006.881a.856.856,0,0,0,.6.67l.115.054c.181.078.353.157.375.323.009.068-.007.284-.384.284a1.023,1.023,0,0,1-.721-.318l-.042.015-.084.523Z" transform="translate(-258.644 -105.917)" fill="#141215" fill-rule="evenodd"/>
    <path id="Trazado_14291" data-name="Trazado 14291" d="M344.759,130.31l-.042-.02a1.135,1.135,0,0,1-.411.22,1.236,1.236,0,0,1-.326.049.937.937,0,0,1-.966-.886c-.073-.558.181-1.389,1.008-1.389a1.172,1.172,0,0,1,.582.151c.048.034.1.074.147.113l.038-.01.1-.631-.02-.039a1.719,1.719,0,0,0-.585-.21,2.457,2.457,0,0,0-.456-.044,1.7,1.7,0,0,0-1.693,2.1,1.587,1.587,0,0,0,1.711,1.5,1.928,1.928,0,0,0,.656-.108c.051-.019.092-.044.139-.064l.024-.039Z" transform="translate(-274.477 -102.384)" fill="#141215" fill-rule="evenodd"/>
    <path id="Trazado_14292" data-name="Trazado 14292" d="M359.807,133.623a2.075,2.075,0,0,0,0-.489,1.129,1.129,0,0,0-.411-.792,1.4,1.4,0,0,0-.887-.274,1.323,1.323,0,0,0-1.3,1.629,1.17,1.17,0,0,0,.425.822,1.423,1.423,0,0,0,.865.254,1.289,1.289,0,0,0,.928-.308,1.307,1.307,0,0,0,.38-.842m-.827-.186a1.164,1.164,0,0,1-.172.631.407.407,0,0,1-.332.191.4.4,0,0,1-.378-.235.615.615,0,0,1-.057-.215,2.018,2.018,0,0,1,.156-1.023.429.429,0,0,1,.375-.2c.289,0,.38.254.4.435a2.052,2.052,0,0,1,.005.416" transform="translate(-286.574 -105.957)" fill="#141215" fill-rule="evenodd"/>
    <path id="Trazado_14293" data-name="Trazado 14293" d="M373.253,127.265l.153-1.5-.029-.034-.842.142-.03.034a14.621,14.621,0,0,1-.079,1.575l-.1,1-.117,1.13.023.029.81-.015.031-.024c.032-.655.042-.8.1-1.4Z" transform="translate(-298.623 -100.875)" fill="#141215" fill-rule="evenodd"/>
    <path id="Trazado_14294" data-name="Trazado 14294" d="M381.969,133.623a2.051,2.051,0,0,0,0-.489,1.129,1.129,0,0,0-.411-.792,1.4,1.4,0,0,0-.887-.274,1.323,1.323,0,0,0-1.3,1.629,1.169,1.169,0,0,0,.425.822,1.422,1.422,0,0,0,.865.254,1.29,1.29,0,0,0,.928-.308,1.307,1.307,0,0,0,.38-.842m-.826-.186a1.167,1.167,0,0,1-.172.631.407.407,0,0,1-.332.191.4.4,0,0,1-.378-.235.608.608,0,0,1-.058-.215,2.017,2.017,0,0,1,.156-1.023.429.429,0,0,1,.375-.2c.289,0,.38.254.4.435a2.091,2.091,0,0,1,.005.416" transform="translate(-304.355 -105.957)" fill="#141215" fill-rule="evenodd"/>
    <path id="Trazado_14295" data-name="Trazado 14295" d="M398.195,133.6l.042-.465a1.918,1.918,0,0,0,.017-.474.71.71,0,0,0-.753-.636,1.286,1.286,0,0,0-.83.347.6.6,0,0,0-.574-.347,1.117,1.117,0,0,0-.542.157,1.936,1.936,0,0,0-.2.162l.025-.294-.034-.034c-.367.074-.463.088-.8.137l-.03.029c-.01.489-.012.587-.056,1.11l-.054.524-.1.836.029.034.8-.02.031-.024.082-1.1.07-.738a.516.516,0,0,1,.342-.156.263.263,0,0,1,.279.264,3.389,3.389,0,0,1-.026.592l-.03.333-.084.817.029.034.785-.02.031-.024.056-.807.046-.475a4.685,4.685,0,0,0,.021-.553.589.589,0,0,1,.375-.161.279.279,0,0,1,.284.264,5.031,5.031,0,0,1-.028.533l-.037.352-.094.856.034.034.795-.02.031-.024Z" transform="translate(-316.344 -105.917)" fill="#141215" fill-rule="evenodd"/>
    <path id="Trazado_14296" data-name="Trazado 14296" d="M416.568,129.638l.4-.005h.338a1.8,1.8,0,0,0,1.536-.484,1.664,1.664,0,0,0,.308-1.2.987.987,0,0,0-.938-.964,1.01,1.01,0,0,0-.622.215l.106-.914.065-.514-.034-.034-.818.142-.03.034c-.034.753-.047.954-.148,1.834l-.1,1.017-.091.841Zm.975-1.947a.54.54,0,0,1,.335-.132.461.461,0,0,1,.451.455,1.111,1.111,0,0,1-.269.9.8.8,0,0,1-.6.186l-.059,0Z" transform="translate(-334.185 -100.875)" fill="#141215" fill-rule="evenodd"/>
    <path id="Trazado_14297" data-name="Trazado 14297" d="M432.314,128.763c.068-.719.088-.9.144-1.374l-.034-.034c-.348.068-.439.083-.843.137l-.029.034a8.532,8.532,0,0,1-.048.915l-.022.24c-.061.626-.075.739-.147,1.311l.029.034.844-.02.031-.024c.01-.337.011-.44.045-.856Zm.239-2.524-.034-.034-.793.108-.039.034-.056.66.034.034.787-.113.029-.039Z" transform="translate(-346.055 -101.253)" fill="#141215" fill-rule="evenodd"/>
    <path id="Trazado_14298" data-name="Trazado 14298" d="M441.22,132.355l-.034-.039h-.832a1.777,1.777,0,0,0-1.372.43,1.565,1.565,0,0,0-.368,1.267,1.325,1.325,0,0,0,.207.572.864.864,0,0,0,.719.376,1.009,1.009,0,0,0,.451-.108.716.716,0,0,0,.227-.171l-.006.215.028.029.736-.02.031-.024a15.472,15.472,0,0,1,.111-1.595Zm-.986,1.9a.468.468,0,0,1-.351.157c-.118,0-.375-.059-.43-.484-.038-.294.038-.91.548-1.047a1.332,1.332,0,0,1,.369-.02Z" transform="translate(-351.884 -106.156)" fill="#141215" fill-rule="evenodd"/>
    <path id="Trazado_14299" data-name="Trazado 14299" d="M456.027,134.009l.02-.337a5.824,5.824,0,0,0,.052-1.027.7.7,0,0,0-.744-.641,1.1,1.1,0,0,0-.73.294l.029-.269-.039-.034a7.536,7.536,0,0,1-.8.137l-.034.039a12.216,12.216,0,0,1-.063,1.287l-.035.333-.09.846.024.034.8-.02.03-.029c.048-.724.068-.983.142-1.839a.612.612,0,0,1,.372-.152.3.3,0,0,1,.3.274,2.523,2.523,0,0,1-.007.4l-.042.5-.088.827.028.029.8-.015.031-.024Z" transform="translate(-363.914 -105.897)" fill="#141215" fill-rule="evenodd"/>
    <path id="Trazado_14300" data-name="Trazado 14300" d="M471.112,133.623a2.076,2.076,0,0,0,0-.489,1.129,1.129,0,0,0-.411-.792,1.4,1.4,0,0,0-.887-.274,1.323,1.323,0,0,0-1.3,1.629,1.17,1.17,0,0,0,.425.822,1.423,1.423,0,0,0,.865.254,1.289,1.289,0,0,0,.929-.308,1.307,1.307,0,0,0,.38-.842m-.827-.186a1.164,1.164,0,0,1-.172.631.407.407,0,0,1-.332.191.4.4,0,0,1-.378-.235.608.608,0,0,1-.058-.215,2.02,2.02,0,0,1,.156-1.023.429.429,0,0,1,.375-.2c.289,0,.38.254.4.435a2.078,2.078,0,0,1,0,.416" transform="translate(-375.873 -105.957)" fill="#141215" fill-rule="evenodd"/>
    <path id="Trazado_14301" data-name="Trazado 14301" d="M483.181,134.494a1.809,1.809,0,0,0,.951.244c1.076,0,1.109-.69,1.078-.924a.965.965,0,0,0-.656-.715l-.119-.054c-.135-.059-.317-.142-.336-.289-.015-.117.08-.249.344-.249a.873.873,0,0,1,.459.142.984.984,0,0,1,.165.142l.048-.009c.025-.225.034-.269.079-.524l-.025-.044a1.987,1.987,0,0,0-.857-.2c-1.076,0-1.021.758-1.006.881a.855.855,0,0,0,.6.67l.115.054c.181.078.353.157.375.323.009.068-.007.284-.384.284a1.022,1.022,0,0,1-.721-.318l-.042.015-.084.523Z" transform="translate(-387.634 -105.917)" fill="#141215" fill-rule="evenodd"/>
    <path id="Trazado_14302" data-name="Trazado 14302" d="M386.1,26.633l.588-3.81-.147-.154-3.636.639-.139.154c-.051,1.035-.081,1.387-.238,2.687l-.291,2.378c-.464-.022-.929-.044-1.392-.044-1.96,0-4.288.286-5.825,2.533a7.928,7.928,0,0,0-1.2,5.153c.324,3.238,2.388,4.273,4.105,4.273a4.463,4.463,0,0,0,3.066-1.277l-.1.947.123.132,3.317-.088.141-.132c.255-3.171.273-3.436.881-7.928ZM381.117,37.16a2.488,2.488,0,0,1-1.582.7c-.969,0-1.762-.661-1.914-2.18-.086-.859.022-3.3,1.663-4.294a4.5,4.5,0,0,1,2.6-.44Z" transform="translate(-299.875 -18.187)" fill="#78a48a" fill-rule="evenodd"/>
    <path id="Trazado_14303" data-name="Trazado 14303" d="M49.411,52.363l-.15-.176H45.518c-1.936.022-4.356.044-6.237,1.938a7.215,7.215,0,0,0-1.83,5.7,5.808,5.808,0,0,0,.852,2.577,3.76,3.76,0,0,0,3.187,1.7,4.624,4.624,0,0,0,2.044-.484,3.386,3.386,0,0,0,1.046-.771l-.057.969.123.132,3.317-.088.143-.11a70.087,70.087,0,0,1,.713-7.18Zm-4.7,8.545a2.175,2.175,0,0,1-1.6.7c-.529,0-1.678-.264-1.87-2.18-.132-1.321.295-4.1,2.612-4.713a6.021,6.021,0,0,1,1.665-.088Z" transform="translate(-30.016 -41.869)" fill="#78a48a" fill-rule="evenodd"/>
    <path id="Trazado_14304" data-name="Trazado 14304" d="M103.025,61.995a7.953,7.953,0,0,0,4.251,1.1c4.845,0,5.085-3.105,4.979-4.162-.2-1.96-1.859-2.731-2.854-3.216l-.531-.242c-.6-.264-1.407-.639-1.473-1.3-.053-.529.394-1.123,1.583-1.123a3.839,3.839,0,0,1,2.046.639,4.208,4.208,0,0,1,.725.639l.216-.044c.141-1.013.187-1.211.425-2.357l-.108-.2a8.777,8.777,0,0,0-3.832-.881c-4.845,0-4.7,3.414-4.647,3.964.174,1.74,1.366,2.423,2.592,3.017l.509.242c.806.352,1.568.7,1.643,1.453.031.309-.071,1.277-1.766,1.277a4.45,4.45,0,0,1-3.2-1.431l-.192.066-.447,2.356Z" transform="translate(-82.587 -40.797)" fill="#78a48a" fill-rule="evenodd"/>
    <path id="Trazado_14305" data-name="Trazado 14305" d="M168.428,59.442a5.915,5.915,0,0,1-3.6,1.255c-1.784,0-2.74-.749-2.87-2.048-.024-.242-.024-.462-.026-.7,2.79-.066,3.757-.088,6.953-.066l.165-.11a10.221,10.221,0,0,0,.114-2.6,4.114,4.114,0,0,0-2.064-3.458,5.926,5.926,0,0,0-2.839-.639c-4.6,0-6.2,4.03-5.88,7.268a5.292,5.292,0,0,0,1.339,3.259c.445.485,1.553,1.652,4.658,1.652a6.959,6.959,0,0,0,3.687-.793l.1-.132c.068-.418.112-.859.2-1.3.084-.484.168-.969.273-1.454Zm-6.36-3.7a3.443,3.443,0,0,1,.833-1.806,1.961,1.961,0,0,1,1.5-.683,1.557,1.557,0,0,1,1.643,1.454,4.951,4.951,0,0,1-.033.991Z" transform="translate(-127.039 -40.975)" fill="#78a48a" fill-rule="evenodd"/>
    <path id="Trazado_14306" data-name="Trazado 14306" d="M229.955,59.75a3.213,3.213,0,0,1-2.269.881,2.789,2.789,0,0,1-2.772-2.841c-.2-2.026.885-4.14,2.956-4.14a3.062,3.062,0,0,1,1.843.594,5,5,0,0,1,.443.463l.214-.066.5-2.511-.059-.154a4.935,4.935,0,0,0-1.813-.727,9.174,9.174,0,0,0-1.713-.176c-4.735,0-6.442,3.854-6.134,6.937a5.418,5.418,0,0,0,5.7,5.241,7.251,7.251,0,0,0,2.172-.308c.214-.066.4-.154.614-.242l.117-.154.436-2.687Z" transform="translate(-177.397 -40.975)" fill="#78a48a" fill-rule="evenodd"/>
    <path id="Trazado_14307" data-name="Trazado 14307" d="M285.827,58.076a9.209,9.209,0,0,0,.066-2.2,4.911,4.911,0,0,0-1.744-3.568,6.139,6.139,0,0,0-3.955-1.233c-5.726,0-6.275,5.307-6.072,7.334a5.089,5.089,0,0,0,1.8,3.7,6.251,6.251,0,0,0,3.859,1.145A5.953,5.953,0,0,0,284,61.864a6.08,6.08,0,0,0,1.824-3.788m-3.7-.837a5.388,5.388,0,0,1-.861,2.841,1.9,1.9,0,0,1-1.522.859,1.746,1.746,0,0,1-1.669-1.057,2.709,2.709,0,0,1-.229-.969,9.2,9.2,0,0,1,.839-4.6,2,2,0,0,1,1.716-.9c1.3,0,1.678,1.145,1.759,1.96a9.311,9.311,0,0,1-.033,1.872" transform="translate(-219.898 -40.975)" fill="#78a48a" fill-rule="evenodd"/>
    <path id="Trazado_14308" data-name="Trazado 14308" d="M345.888,29.45l.89-6.739-.125-.154-3.812.639-.138.154a66.149,66.149,0,0,1-.568,7.092l-.564,4.492-.681,5.087.1.132,3.649-.066.143-.11c.233-2.951.3-3.612.623-6.321Z" transform="translate(-273.492 -18.097)" fill="#78a48a" fill-rule="evenodd"/>
    <path id="Trazado_14309" data-name="Trazado 14309" d="M7.68,13.472a6.051,6.051,0,0,1,3.615-3.155c-2.421,0-6.329.044-6.329.044l.075-.793c.123-1.03.513-3.341,1.318-4.1,4.659-4.4,9.667-.677,9.787,1.4l.182.184,3.326.04.142-.11c-.435-4.352-5.96-9.057-13-6A9.174,9.174,0,0,0,3.061,4.052,16.025,16.025,0,0,0,1.54,9.128L1.4,10.339l-.26,2.466L.472,18.267,0,21.923l.124.132,3.515-.089.163-.132c.326-3.568.524-5.99.707-7.466.06-.507.179-.927.166-.927Z" transform="translate(0 0)" fill="#78a48a" fill-rule="evenodd"/>
    <path id="Trazado_14310" data-name="Trazado 14310" d="M452.921,52.363l-.15-.176h-3.744c-1.936.022-4.356.044-6.237,1.938a7.213,7.213,0,0,0-1.83,5.7,5.806,5.806,0,0,0,.852,2.577A3.761,3.761,0,0,0,445,64.1a4.626,4.626,0,0,0,2.044-.484,3.385,3.385,0,0,0,1.046-.771l-.057.969.124.132,3.317-.088.143-.11a70.022,70.022,0,0,1,.713-7.18Zm-4.7,8.545a2.175,2.175,0,0,1-1.6.7c-.529,0-1.678-.264-1.87-2.18-.132-1.321.295-4.1,2.612-4.713a6.021,6.021,0,0,1,1.665-.088Z" transform="translate(-353.747 -41.869)" fill="#78a48a" fill-rule="evenodd"/>
  </g>
</svg>
