<svg xmlns="http://www.w3.org/2000/svg" xmlns:xlink="http://www.w3.org/1999/xlink" width="99.533" height="64.076" viewBox="0 0 99.533 64.076">
  <defs>
    <clipPath id="clip-path">
      <rect id="Rectángulo_2424" data-name="Rectángulo 2424" width="45.539" height="28.061" fill="none"/>
    </clipPath>
  </defs>
  <g id="LogoHDI_Bandera" data-name="LogoHDI+Bandera" transform="translate(-588.004 -954.152)">
    <path id="Trazado_14311" data-name="Trazado 14311" d="M.02.652H99.537l-.017,64.076H0Z" transform="translate(588 953.5)" fill="#fff"/>
    <g id="Grupo_29155" data-name="Grupo 29155" transform="translate(624.018 972.193)">
      <g id="Grupo_18930" data-name="Grupo 18930" transform="translate(0.001 0)" clip-path="url(#clip-path)">
        <path id="Trazado_13699" data-name="Trazado 13699" d="M0,32.474l.628-.746a2.753,2.753,0,0,0,1.876.771c.646,0,1.054-.3,1.054-.745v-.017c0-.424-.238-.652-1.342-.907-1.265-.3-1.978-.678-1.978-1.771v-.017a1.816,1.816,0,0,1,2.029-1.72,3.3,3.3,0,0,1,2.156.745l-.56.789a2.7,2.7,0,0,0-1.613-.61c-.61,0-.968.314-.968.7v.018c0,.458.272.661,1.418.932,1.256.305,1.9.754,1.9,1.738v.016c0,1.11-.874,1.771-2.122,1.771A3.666,3.666,0,0,1,0,32.474M6.44,27.407h4.406v.931H7.485v1.543h2.98v.932H7.485v1.593h3.4v.931H6.44Zm5.9,2.982v-.017A3.023,3.023,0,0,1,15.408,27.3a3.212,3.212,0,0,1,2.283.8l-.662.788a2.33,2.33,0,0,0-1.664-.635,2.008,2.008,0,0,0-1.926,2.093v.017a1.983,1.983,0,0,0,2.02,2.118,2.434,2.434,0,0,0,1.435-.449V30.931h-1.52v-.906H17.9v2.491a3.792,3.792,0,0,1-2.478.923,2.946,2.946,0,0,1-3.081-3.051m7.467.433V27.407h1.045v3.372c0,1.1.569,1.686,1.5,1.686s1.494-.551,1.494-1.643V27.407H24.9V30.77a2.371,2.371,0,0,1-2.555,2.662,2.341,2.341,0,0,1-2.53-2.61M27,27.407h2.648A2.4,2.4,0,0,1,31.366,28a1.8,1.8,0,0,1,.492,1.279V29.3a1.782,1.782,0,0,1-1.409,1.8l1.6,2.245H30.814l-1.461-2.067H28.046v2.067H27Zm2.572,2.941c.747,0,1.222-.391,1.222-.993v-.016c0-.636-.459-.984-1.23-.984h-1.52v1.992Zm3.8.042v-.017a3.107,3.107,0,0,1,6.214-.017v.017a3.107,3.107,0,0,1-6.214.017m5.118,0v-.017a2.033,2.033,0,0,0-2.02-2.11,2.007,2.007,0,0,0-2,2.093v.017a2.028,2.028,0,0,0,2.021,2.1,2,2,0,0,0,2-2.085m2.442,2.085.628-.746a2.753,2.753,0,0,0,1.876.771c.646,0,1.054-.3,1.054-.745v-.017c0-.424-.238-.652-1.342-.907-1.265-.3-1.978-.678-1.978-1.771v-.017a1.816,1.816,0,0,1,2.029-1.72,3.3,3.3,0,0,1,2.156.745l-.56.789a2.706,2.706,0,0,0-1.613-.61c-.612,0-.968.314-.968.7v.018c0,.458.271.661,1.417.932,1.256.305,1.9.754,1.9,1.738v.016c0,1.11-.874,1.771-2.122,1.771a3.666,3.666,0,0,1-2.479-.949" transform="translate(-0.001 -5.379)" fill="#9c9b9b"/>
        <path id="Trazado_13700" data-name="Trazado 13700" d="M25.428,17.968h6.687c7.278,0,10.929-3.773,10.929-9.086V8.831C43.044,3.517,39.47,0,32.32,0H25.428Zm6.018-4.918V4.919h1c2.752,0,4.526,1.225,4.526,4.038v.056c0,2.811-1.774,4.037-4.526,4.037Z" transform="translate(-5.009 0)" fill="#006729"/>
        <rect id="Rectángulo_2420" data-name="Rectángulo 2420" width="6.001" height="17.968" transform="translate(39.535)" fill="#006729"/>
        <rect id="Rectángulo_2421" data-name="Rectángulo 2421" width="6.001" height="5.987" transform="translate(6.014 5.991)" fill="#e60018"/>
        <rect id="Rectángulo_2422" data-name="Rectángulo 2422" width="6.001" height="17.968" transform="translate(12.018)" fill="#006729"/>
        <rect id="Rectángulo_2423" data-name="Rectángulo 2423" width="6.001" height="17.968" transform="translate(0.01)" fill="#006b2d"/>
        <line id="Línea_943" data-name="Línea 943" transform="translate(12.48 6.006)" fill="none" stroke="#787372" stroke-linecap="round" stroke-linejoin="round" stroke-width="0.008"/>
        <line id="Línea_944" data-name="Línea 944" transform="translate(12.48 11.949)" fill="none" stroke="#787372" stroke-linecap="round" stroke-linejoin="round" stroke-width="0.008"/>
        <line id="Línea_945" data-name="Línea 945" transform="translate(0.003 0.159)" fill="none" stroke="#787372" stroke-linecap="round" stroke-linejoin="round" stroke-width="0.008"/>
        <line id="Línea_946" data-name="Línea 946" transform="translate(45.536 0.159)" fill="none" stroke="#787372" stroke-linecap="round" stroke-linejoin="round" stroke-width="0.008"/>
        <line id="Línea_947" data-name="Línea 947" transform="translate(45.536 17.964)" fill="none" stroke="#787372" stroke-linecap="round" stroke-linejoin="round" stroke-width="0.008"/>
        <path id="Trazado_13701" data-name="Trazado 13701" d="M56.61,27.405" transform="translate(-11.152 -5.399)" fill="#9c9c9a"/>
        <line id="Línea_948" data-name="Línea 948" transform="translate(45.457 22.007)" fill="none" stroke="#787372" stroke-linecap="round" stroke-linejoin="round" stroke-width="0.008"/>
        <path id="Trazado_13702" data-name="Trazado 13702" d="M56.61,34.806" transform="translate(-11.152 -6.857)" fill="#9c9b9b"/>
      </g>
    </g>
  </g>
</svg>
