<?xml version="1.0" encoding="utf-8"?>
<!-- Generator: Adobe Illustrator 24.0.2, SVG Export Plug-In . SVG Version: 6.00 Build 0)  -->
<svg version="1.1" id="Capa_1" xmlns="http://www.w3.org/2000/svg" xmlns:xlink="http://www.w3.org/1999/xlink" x="0px" y="0px"
	 viewBox="0 0 70 40" style="enable-background:new 0 0 70 40;" xml:space="preserve">
<style type="text/css">
	.st0{fill-rule:evenodd;clip-rule:evenodd;fill:#717070;}
	.st1{fill:#717070;}
</style>
<path class="st0" d="M55.95,6.98c-0.92,0.01-2.16,0.4-3.25,1.21c-1.61,1.19-2.53,2.78-2.73,4.81c-0.02,0.17,0.01,0.22,0.2,0.2
	c0.92-0.14,1.82-0.32,2.71-0.61c1.88-0.61,3.59-1.51,4.83-3.14c0.29-0.39,0.84-0.33,1.09,0.1c0.87,1.49,2.15,2.48,3.69,3.15
	c0.07,0.03,0.15,0.12,0.23,0.05c0.06-0.05,0.02-0.15,0-0.22C62.23,9.34,59.54,6.98,55.95,6.98z M19.12,12.85
	c0.1,0.06,0.11,0.18,0.08,0.31c-0.16,0.59-0.48,0.88-0.89,1.03c-0.1,0.04-0.2,0.05-0.29,0.07c-0.11,0-0.23-0.01-0.23-0.22
	c0-0.21,0.11-0.21,0.23-0.22c0.41-0.06,0.75-0.27,0.92-0.85C18.97,12.85,19.03,12.79,19.12,12.85z M11.96,12.85
	c0.09,0.06,0.1,0.17,0.07,0.3c-0.09,0.36-0.26,0.63-0.49,0.82c-0.22,0.18-0.45,0.27-0.66,0.29l-0.1,0c0,0,0,0,0,0
	c0,0.12-0.07,0.17-0.18,0.17c-0.1,0-0.16-0.07-0.16-0.17c0-0.11,0.07-0.17,0.17-0.17c0-0.01,0-0.02,0-0.04
	c0-0.22,0.12-0.21,0.23-0.22c0.4-0.06,0.74-0.26,0.91-0.84C11.79,12.85,11.86,12.79,11.96,12.85z M17.77,11.22
	c0.11,0,0.18,0.07,0.18,0.18c0,0.1-0.06,0.16-0.17,0.17c-0.01,0.01-0.01,0.02-0.01,0.03c0.01,0.15-0.08,0.22-0.22,0.23
	c-0.38,0.04-0.76,0.04-1.14,0.13c-0.26,0.06-0.51,0.14-0.74,0.28c-0.35,0.21-0.48,0.52-0.39,0.91c0.01,0.04,0.02,0.08,0.03,0.13
	c0.33,1.38,1.08,1.96,2.55,1.96c0.43,0,0.85-0.03,1.26-0.18c0.45-0.17,0.76-0.46,0.92-0.91c0.12-0.37,0.16-0.74,0.13-1.12
	c-0.03-0.4-0.25-0.7-0.61-0.88c-0.11-0.06-0.23-0.1-0.34-0.15c-0.13-0.05-0.2-0.15-0.16-0.28c0.04-0.14,0.16-0.17,0.3-0.14
	c0.74,0.15,1.29,0.8,1.3,1.54c0,0.3-0.01,0.6-0.07,0.9c-0.18,0.84-0.72,1.35-1.57,1.55c-0.74,0.18-1.48,0.18-2.22,0
	c-0.74-0.18-1.29-0.6-1.62-1.27c-0.22-0.45-0.4-0.92-0.39-1.43c0-0.14-0.06-0.19-0.18-0.21c-0.14-0.03-0.28-0.05-0.42-0.05
	c-0.45,0-0.49,0.04-0.56,0.46c-0.13,0.79-0.38,1.52-1.05,2.05c-0.44,0.35-0.95,0.49-1.5,0.55c-0.14,0.02-0.25-0.05-0.27-0.19
	c-0.02-0.14,0.06-0.22,0.21-0.25c0.13-0.02,0.26-0.04,0.39-0.07c0.67-0.15,1.14-0.53,1.43-1.14c0.13-0.28,0.22-0.56,0.29-0.86
	c0.1-0.44-0.04-0.73-0.45-0.95c-0.34-0.19-0.71-0.27-1.09-0.31c-0.65-0.08-1.3-0.11-1.94,0c-1.18,0.2-1.57,0.75-1.36,1.9
	c0.16,0.87,0.69,1.31,1.7,1.42c0.17,0.02,0.34,0.03,0.32,0.25c-0.02,0.24-0.21,0.21-0.39,0.19c-0.21-0.02-0.42-0.06-0.63-0.12
	c-0.89-0.26-1.37-0.85-1.49-1.73c-0.03-0.24-0.05-0.48-0.04-0.72c0.04-0.76,0.49-1.23,1.21-1.48c0.54-0.19,1.09-0.23,1.58-0.21
	c0.72-0.01,1.34,0.05,1.95,0.24c0.28,0.09,0.51,0.32,0.77,0.38c0.25,0.07,0.54-0.17,0.84-0.17c0.29,0,0.57,0.03,0.83,0.15
	c0.15,0.07,0.24,0.04,0.38-0.05c0.68-0.46,1.47-0.52,2.27-0.54l0.04,0l0-0.06C17.63,11.27,17.69,11.22,17.77,11.22z M64.02,14.65
	c-0.01,0.21-0.06,0.42-0.11,0.63c-0.33,1.5-1.03,2.8-2.11,3.88c-0.18,0.18-0.12,0.24,0.07,0.32c0.36,0.16,0.73,0.25,1.12,0.25
	c1.75,0,3.05-1.67,2.65-3.4c-0.19-0.8-0.65-1.4-1.35-1.8C64.13,14.43,64.04,14.4,64.02,14.65z M48.52,14.99
	c-1.14,0.8-1.51,2.35-0.86,3.59c0.73,1.39,2.56,1.91,3.79,1.05c-0.06-0.06-0.1-0.1-0.15-0.14c-1.31-1.18-2.16-2.63-2.52-4.38
	C48.75,14.87,48.7,14.87,48.52,14.99z M57.97,11.21c-0.58,0.56-1.21,1.04-1.9,1.44c-1.8,1.04-3.76,1.59-5.8,1.89
	c-0.2,0.03-0.24,0.08-0.2,0.29c0.55,3,3.24,5.24,6.61,5.24c0.77-0.01,1.78-0.25,2.72-0.78c1.86-1.05,2.95-2.65,3.32-4.78
	c0.03-0.19,0-0.28-0.2-0.36c-1.66-0.6-3.09-1.55-4.22-2.94C58.18,11.07,58.11,11.08,57.97,11.21z M14.2,6.99
	c-3.57,0-6.56,2.97-6.56,6.51c0,3.66,2.93,6.6,6.57,6.59c3.63-0.01,6.55-2.94,6.55-6.56C20.76,9.92,17.83,6.99,14.2,6.99z
	 M63.99,12.25c0.05,0.34,0.1,0.68,0.09,1.02c-0.01,0.17,0.07,0.23,0.21,0.29c1.35,0.58,2.15,1.62,2.25,3.11
	c0.11,1.55-0.56,2.72-1.87,3.49c-0.49,0.29-1.08,0.42-1.67,0.43c-0.68,0-1.32-0.18-1.89-0.55c-0.14-0.09-0.23-0.1-0.38,0
	c-2.74,1.76-5.52,1.85-8.35,0.23c-0.13-0.08-0.21-0.06-0.34,0.02c-2.24,1.49-5.14,0.16-5.54-2.52c-0.22-1.5,0.56-3.03,1.9-3.73
	c0.17-0.09,0.23-0.18,0.23-0.38c-0.04-3.92,2.7-7.25,6.48-7.9C59.28,5.04,63.31,8,63.99,12.25z M14.21,5.65
	c4.34,0.01,7.88,3.56,7.88,7.9c0,4.39-3.5,7.88-7.89,7.89c-4.36,0.01-7.94-3.62-7.9-7.98C6.35,9.2,9.92,5.64,14.21,5.65z
	 M34.28,10.05c-3.65,0.02-6.46,3.11-6.35,6.54c0.1,3.36,2.88,6.21,6.49,6.16c3.4-0.04,6.23-2.91,6.22-6.36
	C40.62,12.88,37.78,10.03,34.28,10.05z M34.28,8.52c4.38,0,7.9,3.56,7.9,8c0,4.29-3.56,7.78-7.92,7.78c-4.32,0-7.87-3.57-7.87-7.9
	C26.39,12.08,29.95,8.52,34.28,8.52z M10.99,25.1c0.07,0.07,0.12,0.13,0.17,0.18l1.83,1.79c0.41,0.4,0.83,0.4,1.25,0
	c0.61-0.6,1.22-1.2,1.83-1.79c0.05-0.05,0.14-0.09,0.13-0.19C14.78,24.62,12.41,24.63,10.99,25.1z M21.29,25.76
	c0.83,0.7,1.52,1.52,2.12,2.41c0.09,0.14,0.11,0.23-0.01,0.37c-0.38,0.47-0.71,0.97-1.03,1.53c-0.39-0.74-0.83-1.41-1.37-2.01
	c-0.76-0.86-1.65-1.57-2.66-2.13c-0.15-0.08-0.23-0.08-0.35,0.04c-0.81,0.81-1.64,1.61-2.46,2.42c-1.09,1.06-2.74,1.07-3.82,0
	c-0.82-0.8-1.64-1.61-2.46-2.42c-0.12-0.12-0.2-0.14-0.35-0.05c-2.73,1.56-4.38,3.85-4.92,6.91c-0.07,0.42-0.1,0.85-0.12,1.28
	c-0.01,0.15-0.05,0.21-0.21,0.2c-0.48-0.01-0.95-0.01-1.43,0C2.03,34.33,2,34.26,2,34.1c0.02-1.62,0.37-3.17,1.1-4.63
	c1.66-3.33,4.33-5.49,8.03-6.28C14.93,22.38,18.33,23.29,21.29,25.76z M35.53,25.78c4.99,0.17,9.49,3.6,10.89,8.29
	c0.08,0.27,0.08,0.27-0.21,0.27c-0.25,0-0.49,0-0.74,0c-0.24,0-0.48-0.01-0.72,0c-0.2,0.01-0.27-0.06-0.34-0.24
	c-1.01-2.61-2.8-4.52-5.41-5.64c-5.27-2.27-11.38,0.29-13.39,5.59c-0.08,0.21-0.17,0.3-0.41,0.29c-0.47-0.02-0.94-0.02-1.41,0
	c-0.24,0.01-0.29-0.04-0.21-0.27c0.73-2.26,2.01-4.17,3.89-5.66C29.82,26.54,32.52,25.68,35.53,25.78z M67.75,31.98
	c0.15,0.71,0.23,1.42,0.25,2.15c0,0.17-0.05,0.22-0.22,0.22c-0.49-0.01-0.98-0.01-1.47,0c-0.15,0-0.19-0.05-0.2-0.19
	c-0.04-4.46-3.39-8.41-8-9.28c-4.01-0.76-8.23,1.13-10.3,4.65c-0.07,0.13-0.15,0.25-0.24,0.4c-0.28-0.43-0.54-0.84-0.84-1.23
	c-0.34-0.45-0.35-0.46,0-0.92c2-2.71,4.68-4.33,8.06-4.79C60.81,22.16,66.5,26.13,67.75,31.98z"/>
</svg>
