<?xml version="1.0" encoding="utf-8"?>
<!-- Generator: Adobe Illustrator 24.0.2, SVG Export Plug-In . SVG Version: 6.00 Build 0)  -->
<svg version="1.1" id="Capa_1" xmlns="http://www.w3.org/2000/svg" xmlns:xlink="http://www.w3.org/1999/xlink" x="0px" y="0px"
	 viewBox="0 0 17.1 13.3" style="enable-background:new 0 0 17.1 13.3;" xml:space="preserve">
<style type="text/css">
	.st0{fill:#646363;}
</style>
<path class="st0" d="M16.5,0.8c-0.2-0.2-0.5-0.1-0.7,0.1L8.6,11.2L1.3,0.9C1.2,0.7,0.8,0.6,0.6,0.8C0.4,1,0.3,1.3,0.5,1.5l7.7,10.9
	c0,0,0,0,0,0c0,0,0,0.1,0.1,0.1c0,0,0,0,0,0c0.1,0,0.2,0.1,0.3,0.1c0,0,0,0,0,0c0,0,0,0,0,0s0,0,0,0c0,0,0,0,0,0
	c0.1,0,0.2,0,0.3-0.1c0,0,0,0,0,0c0,0,0.1-0.1,0.1-0.1c0,0,0,0,0,0l7.6-10.9C16.8,1.3,16.7,1,16.5,0.8z"/>
</svg>
