<svg xmlns="http://www.w3.org/2000/svg" xmlns:xlink="http://www.w3.org/1999/xlink" width="30.022" height="30" viewBox="0 0 30.022 30"><defs><style>.a{fill:#1a1446;}.b{clip-path:url(#a);}.c{fill:#fff;}</style><clipPath id="a"><path class="a" d="M15.011,30A15,15,0,0,1,4.4,4.393a15.018,15.018,0,0,1,21.228,0A15,15,0,0,1,15.011,30Zm-4-18.114v3.076h1.887V24h3.628V14.924h2.531l.269-3.038h-2.8V10.154c0-.691.121-1,.838-1h1.963V6H16.811c-2.635,0-3.916,1.132-3.916,3.461v2.424Z"/></clipPath></defs><path class="a" d="M15.011,30A15,15,0,0,1,4.4,4.393a15.018,15.018,0,0,1,21.228,0A15,15,0,0,1,15.011,30Zm-4-18.114v3.076h1.887V24h3.628V14.924h2.531l.269-3.038h-2.8V10.154c0-.691.121-1,.838-1h1.963V6H16.811c-2.635,0-3.916,1.132-3.916,3.461v2.424Z"/><g class="b"><g transform="translate(0 0)"><rect class="c" width="30.022" height="30"/></g></g></svg>