<svg xmlns="http://www.w3.org/2000/svg" xmlns:xlink="http://www.w3.org/1999/xlink" width="96" height="96" viewBox="0 0 96 96"><defs><style>.a{fill:none;}.b{fill:#99e5ea;}.c{clip-path:url(#a);}.d{fill:#1a1446;}</style><clipPath id="a"><rect class="a" width="35.966" height="48"/></clipPath></defs><g transform="translate(-688 -104.099)"><g transform="translate(688 104.099)"><circle class="b" cx="48" cy="48" r="48" transform="translate(0 0)"/></g><g transform="translate(735.983 152.099)"><g class="c" transform="translate(-17.983 -24)"><path class="d" d="M6.49,7.3h23.8V9.33H6.49Zm0,7.707h23.8V16.9H6.49Zm0,15.414h14.6v1.893H6.49Zm0-7.707h23.8v1.893H6.49ZM33.8.27a2.3,2.3,0,0,1,2.3,2.3V45.7A2.3,2.3,0,0,1,33.8,48H2.3A2.3,2.3,0,0,1,0,45.7V0H2.434V45.431h31.1V2.7H5.138V.27Z" transform="translate(0)"/></g></g></g></svg>