<svg xmlns="http://www.w3.org/2000/svg" xmlns:xlink="http://www.w3.org/1999/xlink" width="114.01" height="6" viewBox="0 0 114.01 6">
  <defs>
    <clipPath id="clip-path">
      <rect id="Rectángulo_6845" data-name="Rectángulo 6845" width="6" height="114.01" fill="none"/>
    </clipPath>
  </defs>
  <g id="Grupo_28958" data-name="Grupo 28958" transform="translate(114.01) rotate(90)">
    <path id="Trazado_15884" data-name="Trazado 15884" d="M.659,661.6v.662H3.1v2.261H.659v.662H6.483v-.662H3.807v-2.261H6.483V661.6Z" transform="translate(-0.571 -551.173)"/>
    <g id="Grupo_28956" data-name="Grupo 28956">
      <g id="Grupo_28955" data-name="Grupo 28955" clip-path="url(#clip-path)">
        <path id="Trazado_15885" data-name="Trazado 15885" d="M.659,628.57v-1.193A6.409,6.409,0,0,1,.8,625.837a2.732,2.732,0,0,1,.611-1.128,2.759,2.759,0,0,1,2.163-.954,2.681,2.681,0,0,1,2.151.97,2.986,2.986,0,0,1,.659,1.524,6.908,6.908,0,0,1,.061,1v1.318Zm.7-.821H5.737v-.429a6.234,6.234,0,0,0-.053-.918,1.987,1.987,0,0,0-.623-1.213,2.154,2.154,0,0,0-1.516-.55,2.132,2.132,0,0,0-1.492.566,2,2,0,0,0-.655,1.314,7.474,7.474,0,0,0-.036.788Z" transform="translate(-0.55 -520.456)"/>
        <rect id="Rectángulo_6841" data-name="Rectángulo 6841" width="5.782" height="0.821" transform="translate(0.109 101.257)"/>
        <path id="Trazado_15886" data-name="Trazado 15886" d="M.206,570.575l.728.1a3.168,3.168,0,0,0-.235,1.08,1.219,1.219,0,0,0,.23.772.679.679,0,0,0,.566.271.816.816,0,0,0,.683-.4,3.922,3.922,0,0,0,.307-.534l.158-.311a3.537,3.537,0,0,1,.525-.841,1.428,1.428,0,0,1,1.092-.449,1.585,1.585,0,0,1,1.4.728A2.163,2.163,0,0,1,6,572.233a3.777,3.777,0,0,1-.226,1.33l-.78-.085a2.7,2.7,0,0,0,.307-1.14,1.411,1.411,0,0,0-.222-.8.854.854,0,0,0-.756-.384.867.867,0,0,0-.712.364,2.583,2.583,0,0,0-.307.53l-.142.324a3.011,3.011,0,0,1-.538.865,1.39,1.39,0,0,1-1.047.425,1.408,1.408,0,0,1-1.164-.526A2.09,2.09,0,0,1,0,571.8a3.736,3.736,0,0,1,.206-1.225" transform="translate(0 -475.823)"/>
        <path id="Trazado_15887" data-name="Trazado 15887" d="M.659,543.531h.7v2.393h1.71V543.7h.7v2.224H5.737v-2.466h.7v3.287H.659Z" transform="translate(-0.55 -453.457)"/>
        <path id="Trazado_15888" data-name="Trazado 15888" d="M.694,508.532l.8.053a2.982,2.982,0,0,0-.376,1.476,2.311,2.311,0,0,0,.691,1.755,2.084,2.084,0,0,0,1.5.566,2.194,2.194,0,0,0,1.585-.578,2.156,2.156,0,0,0,.518-.825,2.8,2.8,0,0,0,.166-.954,2.742,2.742,0,0,0-.125-.78H3.779v1.237h-.7v-2.058H6.011a5.257,5.257,0,0,1,.267,1.658,3.281,3.281,0,0,1-.764,2.292,2.845,2.845,0,0,1-2.216.894,2.66,2.66,0,0,1-2.115-.885,3.337,3.337,0,0,1-.768-2.268,4.339,4.339,0,0,1,.279-1.581" transform="translate(-0.346 -424.224)"/>
        <path id="Trazado_15889" data-name="Trazado 15889" d="M.659,472.608H3.918a6.221,6.221,0,0,1,.877.049,1.963,1.963,0,0,1,1.363.8,2.625,2.625,0,0,1-.008,2.774,1.868,1.868,0,0,1-.974.7,4.776,4.776,0,0,1-1.371.15H.659v-.821H3.687a7.178,7.178,0,0,0,.845-.036,1.474,1.474,0,0,0,1.027-.5,1.442,1.442,0,0,0,.291-.91,1.221,1.221,0,0,0-.873-1.257,2.577,2.577,0,0,0-.671-.117q-.146-.008-.582-.008H.659Z" transform="translate(-0.55 -394.34)"/>
        <path id="Trazado_15890" data-name="Trazado 15890" d="M.659,443.085v-1.391a4.358,4.358,0,0,1,.15-1.306,1.331,1.331,0,0,1,.574-.732,1.484,1.484,0,0,1,.8-.222,1.3,1.3,0,0,1,1.059.477,1.608,1.608,0,0,1,.3.748,1.309,1.309,0,0,1,.263-.4,2.166,2.166,0,0,1,.53-.323l2.107-.974v.946l-1.731.748a2.274,2.274,0,0,0-.639.372.668.668,0,0,0-.186.4,2.585,2.585,0,0,0-.02.36v.477H6.441v.821Zm.7-.821H3.154v-.514a2.91,2.91,0,0,0-.1-.9.844.844,0,0,0-.327-.433.864.864,0,0,0-.473-.133.833.833,0,0,0-.57.206,1.042,1.042,0,0,0-.3.671,4.592,4.592,0,0,0-.024.505Z" transform="translate(-0.55 -366.269)"/>
        <path id="Trazado_15891" data-name="Trazado 15891" d="M0,403.93a2.551,2.551,0,0,1,.825-2.018A3.15,3.15,0,0,1,3,401.172a3.214,3.214,0,0,1,2.131.691A2.566,2.566,0,0,1,6,403.95a2.608,2.608,0,0,1-.809,2.038,2.847,2.847,0,0,1-1.092.6,3.6,3.6,0,0,1-1.092.17,3.585,3.585,0,0,1-1.589-.356A2.512,2.512,0,0,1,0,403.93m.655,0a1.706,1.706,0,0,0,.736,1.492A2.738,2.738,0,0,0,3,405.874a2.762,2.762,0,0,0,1.589-.445,1.715,1.715,0,0,0,.611-.74,1.785,1.785,0,0,0,.15-.728,1.731,1.731,0,0,0-.388-1.12,2.082,2.082,0,0,0-1.019-.655,3.046,3.046,0,0,0-.914-.129,2.811,2.811,0,0,0-1.6.433,1.637,1.637,0,0,0-.772,1.443" transform="translate(0 -334.734)"/>
        <path id="Trazado_15892" data-name="Trazado 15892" d="M.206,376.117l.728.1A3.168,3.168,0,0,0,.7,377.3a1.219,1.219,0,0,0,.23.772.68.68,0,0,0,.566.271.816.816,0,0,0,.683-.4,3.938,3.938,0,0,0,.307-.534l.158-.311a3.539,3.539,0,0,1,.525-.841,1.428,1.428,0,0,1,1.092-.449,1.585,1.585,0,0,1,1.4.728A2.163,2.163,0,0,1,6,377.775a3.776,3.776,0,0,1-.226,1.33l-.78-.085a2.7,2.7,0,0,0,.307-1.14,1.41,1.41,0,0,0-.222-.8.854.854,0,0,0-.756-.384.867.867,0,0,0-.712.364,2.581,2.581,0,0,0-.307.53l-.142.323a3.014,3.014,0,0,1-.538.865,1.39,1.39,0,0,1-1.047.425,1.409,1.409,0,0,1-1.164-.526A2.09,2.09,0,0,1,0,377.342a3.736,3.736,0,0,1,.206-1.225" transform="translate(0 -313.569)"/>
        <path id="Trazado_15893" data-name="Trazado 15893" d="M.67,330.648l.784.073a2.4,2.4,0,0,0-.339,1.2,2.32,2.32,0,0,0,.327,1.217,1.91,1.91,0,0,0,1,.833,2.378,2.378,0,0,0,.849.146,2.139,2.139,0,0,0,1.714-.748,2.215,2.215,0,0,0,.53-1.484,3.489,3.489,0,0,0-.255-1.237l.8-.057a4.057,4.057,0,0,1,.194,1.274,3.272,3.272,0,0,1-.606,2.058,2.606,2.606,0,0,1-1.16.865,3.354,3.354,0,0,1-1.2.214,2.729,2.729,0,0,1-2.685-1.819,3.444,3.444,0,0,1-.214-1.221,3.159,3.159,0,0,1,.255-1.314" transform="translate(-0.346 -275.842)"/>
        <path id="Trazado_15894" data-name="Trazado 15894" d="M0,295.6a2.551,2.551,0,0,1,.825-2.018A3.15,3.15,0,0,1,3,292.847a3.214,3.214,0,0,1,2.131.691A2.566,2.566,0,0,1,6,295.625a2.608,2.608,0,0,1-.809,2.038,2.845,2.845,0,0,1-1.092.6,3.6,3.6,0,0,1-1.092.17,3.585,3.585,0,0,1-1.589-.356A2.512,2.512,0,0,1,0,295.6m.655,0a1.706,1.706,0,0,0,.736,1.492A2.738,2.738,0,0,0,3,297.549a2.761,2.761,0,0,0,1.589-.445,1.715,1.715,0,0,0,.611-.74,1.786,1.786,0,0,0,.15-.728,1.731,1.731,0,0,0-.388-1.12,2.084,2.084,0,0,0-1.019-.655,3.046,3.046,0,0,0-.914-.129,2.811,2.811,0,0,0-1.6.433,1.637,1.637,0,0,0-.772,1.443" transform="translate(0 -244.349)"/>
        <path id="Trazado_15895" data-name="Trazado 15895" d="M.659,268.559H5.737v-2.446h.7v3.267H.659Z" transform="translate(-0.55 -222.042)"/>
        <path id="Trazado_15896" data-name="Trazado 15896" d="M0,231.713a2.551,2.551,0,0,1,.825-2.018A3.15,3.15,0,0,1,3,228.955a3.214,3.214,0,0,1,2.131.691A2.566,2.566,0,0,1,6,231.733a2.608,2.608,0,0,1-.809,2.038,2.844,2.844,0,0,1-1.092.6,3.6,3.6,0,0,1-1.092.17,3.585,3.585,0,0,1-1.589-.356A2.511,2.511,0,0,1,0,231.713m.655,0a1.706,1.706,0,0,0,.736,1.492A2.738,2.738,0,0,0,3,233.657a2.761,2.761,0,0,0,1.589-.445,1.714,1.714,0,0,0,.611-.74,1.785,1.785,0,0,0,.15-.728,1.731,1.731,0,0,0-.388-1.12,2.084,2.084,0,0,0-1.019-.655,3.046,3.046,0,0,0-.914-.129,2.811,2.811,0,0,0-1.6.433,1.637,1.637,0,0,0-.772,1.443" transform="translate(0 -191.038)"/>
        <path id="Trazado_15897" data-name="Trazado 15897" d="M.659,183.618H6.441v.821h-3.3q-.3,0-1.027-.012l-.534,0-.416-.012H1.043q.121.045.6.194.2.061,1.071.38.708.259.922.34l2.806,1.084v.8L3.635,188.3l-.477.186-.619.23q-.914.336-1.047.376-.323.1-.449.146.069,0,.121,0,.024,0,.356-.032.133-.012.437-.02l.667-.02q.408-.016.574-.016H6.441v.821H.659v-1.355l2.9-1.144.477-.186a13.453,13.453,0,0,1,1.46-.5q-.517-.133-1.953-.687L.659,185Z" transform="translate(-0.55 -153.209)"/>
        <path id="Trazado_15898" data-name="Trazado 15898" d="M.66,156.063V154.7a7.494,7.494,0,0,1,.032-.845,1.675,1.675,0,0,1,.574-1.116,1.343,1.343,0,0,1,.873-.3,1.243,1.243,0,0,1,1.075.526,1.9,1.9,0,0,1,.283.708,2.084,2.084,0,0,1,.271-.833,1.253,1.253,0,0,1,1.12-.57,1.426,1.426,0,0,1,1.14.525,1.491,1.491,0,0,1,.311.586,4.224,4.224,0,0,1,.1,1.035v1.646Zm.7-.821H3.118v-.594a2.51,2.51,0,0,0-.1-.833.832.832,0,0,0-.307-.4.822.822,0,0,0-.469-.141.767.767,0,0,0-.59.251,1.216,1.216,0,0,0-.275.756q-.016.243-.016.538Zm2.43,0H5.738V154.6a2.479,2.479,0,0,0-.137-.966.817.817,0,0,0-.788-.518.9.9,0,0,0-.667.279,1.312,1.312,0,0,0-.332.833q-.02.218-.02.574Z" transform="translate(-0.551 -127.054)"/>
        <rect id="Rectángulo_6842" data-name="Rectángulo 6842" width="5.782" height="0.821" transform="translate(0.109 23.058)"/>
        <path id="Trazado_15899" data-name="Trazado 15899" d="M.659,101.608,6.441,99.1v.93l-1.464.611v2.81l1.464.6v.889L.659,102.473Zm3.615-.687-1.617.671a10.522,10.522,0,0,1-1.29.469,13.884,13.884,0,0,1,1.314.481l1.593.643Z" transform="translate(-0.55 -82.686)"/>
        <path id="Trazado_15900" data-name="Trazado 15900" d="M.206,62.274l.728.1A3.169,3.169,0,0,0,.7,63.455a1.219,1.219,0,0,0,.23.772A.679.679,0,0,0,1.5,64.5a.816.816,0,0,0,.683-.4,3.92,3.92,0,0,0,.307-.534l.158-.311a3.538,3.538,0,0,1,.525-.841,1.428,1.428,0,0,1,1.092-.449,1.585,1.585,0,0,1,1.4.728A2.163,2.163,0,0,1,6,63.932a3.776,3.776,0,0,1-.226,1.33l-.78-.085a2.7,2.7,0,0,0,.307-1.14,1.41,1.41,0,0,0-.222-.8.854.854,0,0,0-.756-.384.867.867,0,0,0-.712.364,2.581,2.581,0,0,0-.307.53l-.142.323a3.012,3.012,0,0,1-.538.865,1.39,1.39,0,0,1-1.047.425A1.409,1.409,0,0,1,.412,64.83,2.09,2.09,0,0,1,0,63.5a3.736,3.736,0,0,1,.206-1.225" transform="translate(0 -51.701)"/>
        <rect id="Rectángulo_6843" data-name="Rectángulo 6843" width="0.93" height="0.93" transform="translate(4.961 8.28)"/>
        <path id="Trazado_15901" data-name="Trazado 15901" d="M.659,12.716,6.441,10.2v.93l-1.464.611v2.81l1.464.6v.889L.659,13.581Zm3.615-.687L2.656,12.7a10.521,10.521,0,0,1-1.29.469,13.885,13.885,0,0,1,1.314.481l1.593.643Z" transform="translate(-0.55 -8.515)"/>
        <rect id="Rectángulo_6844" data-name="Rectángulo 6844" width="0.93" height="0.93" transform="translate(4.961)"/>
      </g>
    </g>
  </g>
</svg>
