<svg xmlns="http://www.w3.org/2000/svg" width="44.005" height="43.944" viewBox="0 0 44.005 43.944"><defs><style>.a{fill:#28a3af;}</style></defs><g transform="translate(0)"><path class="a" d="M27.6,43.944a14.645,14.645,0,0,1-3.489-.432A17.576,17.576,0,0,1,20.2,42.02a21.454,21.454,0,0,1-3.627-2.4c-.659-.474-1.387-1.043-2.165-1.691-.631-.519-1.362-1.152-2.3-1.993-.841-.747-1.755-1.625-2.793-2.686-1.025-1.037-1.834-1.912-2.474-2.673-.623-.74-1.157-1.4-1.588-1.975A17.1,17.1,0,0,1,4.13,26.94a21.625,21.625,0,0,1-2.958-5.328,18.2,18.2,0,0,1-1-3.754,14.166,14.166,0,0,1-.074-3.791A11.772,11.772,0,0,1,1.106,10.44,11.117,11.117,0,0,1,3.349,7.223L4.656,5.887l.014-.014c.015-.015.029-.03.044-.043A3.934,3.934,0,0,1,6,5.016,3.672,3.672,0,0,1,7.317,4.77a3.841,3.841,0,0,1,.791.084A3.664,3.664,0,0,1,10.029,5.91l5.743,5.8a3.958,3.958,0,0,1,.85,1.32,3.862,3.862,0,0,1,.193,2.108,3.648,3.648,0,0,1-1.03,1.956l-2.6,2.653a.463.463,0,0,0-.152.263.715.715,0,0,0,.034.392,1.34,1.34,0,0,0,.222.317l9.643,9.788a.593.593,0,0,0,.26.18.638.638,0,0,0,.114.012.607.607,0,0,0,.231-.05.482.482,0,0,0,.182-.131l2.592-2.64a3.779,3.779,0,0,1,1.328-.873,3.677,3.677,0,0,1,1.318-.244,3.834,3.834,0,0,1,.782.082,3.709,3.709,0,0,1,1.925,1.036l5.751,5.826a3.882,3.882,0,0,1,.851,1.325,3.81,3.81,0,0,1-.8,4.014l-1.35,1.4a11.337,11.337,0,0,1-1.991,1.62,11.6,11.6,0,0,1-2.167,1.094,12.065,12.065,0,0,1-3.868.775C27.94,43.941,27.778,43.944,27.6,43.944ZM7.319,8.354a.3.3,0,0,0-.139.075L5.9,9.739a7.448,7.448,0,0,0-1.54,2.2,8.291,8.291,0,0,0-.71,2.55,10.6,10.6,0,0,0,.058,2.837,14.632,14.632,0,0,0,.808,3.012,18.084,18.084,0,0,0,2.537,4.533c.038.054.087.124.129.2a13.889,13.889,0,0,0,.935,1.383c.352.469.845,1.082,1.465,1.822.589.7,1.337,1.505,2.285,2.466.962.985,1.82,1.811,2.623,2.525.845.757,1.566,1.381,2.2,1.91.736.61,1.415,1.14,2.018,1.573l.063.048.026.02a18.082,18.082,0,0,0,3.053,2.03,14.348,14.348,0,0,0,3.115,1.192,11.123,11.123,0,0,0,2.654.326c.114,0,.228,0,.341-.005A8.322,8.322,0,0,0,32.2,39.046a7.681,7.681,0,0,0,1.354-1.106l1.32-1.365a.2.2,0,0,0,.062-.114.241.241,0,0,0-.017-.145.216.216,0,0,0-.062-.1l-5.738-5.813a.139.139,0,0,0-.09-.05.339.339,0,0,0-.071-.009.217.217,0,0,0-.112.063L26.263,33.05A4.15,4.15,0,0,1,24.819,34a4.239,4.239,0,0,1-1.51.282,4.034,4.034,0,0,1-2.926-1.257l-9.654-9.8a4.766,4.766,0,0,1-1-1.539,4.234,4.234,0,0,1-.216-2.292,4,4,0,0,1,1.123-2.153l2.6-2.66c.049-.05.053-.063.057-.088a.284.284,0,0,0-.017-.181.344.344,0,0,0-.069-.1l-.006-.007L7.471,8.422c-.05-.051-.066-.054-.085-.058l-.067-.009ZM44,22.006H40.339A18.36,18.36,0,0,0,22,3.667V0A22.031,22.031,0,0,1,44,22Zm-5.489,0H34.851A12.865,12.865,0,0,0,22,9.157V5.49A16.536,16.536,0,0,1,38.516,22Z"/></g></svg>