<svg xmlns="http://www.w3.org/2000/svg" xmlns:xlink="http://www.w3.org/1999/xlink" width="20.017" height="19.975" viewBox="0 0 20.017 19.975"><defs><style>.a{fill:#1a1446;}.b{clip-path:url(#a);}.c{fill:#fff;}</style><clipPath id="a"><path class="a" d="M12.556,19.975a6.666,6.666,0,0,1-1.587-.2A8,8,0,0,1,9.19,19.1a9.76,9.76,0,0,1-1.65-1.091c-.3-.215-.631-.474-.985-.769-.287-.236-.62-.524-1.047-.906-.383-.339-.8-.739-1.271-1.221S3.4,14.244,3.112,13.9s-.526-.638-.722-.9a7.771,7.771,0,0,1-.511-.755A9.828,9.828,0,0,1,.533,9.824,8.266,8.266,0,0,1,.076,8.117,6.434,6.434,0,0,1,.043,6.394,5.348,5.348,0,0,1,.5,4.745a5.053,5.053,0,0,1,1.02-1.462l.594-.607.006-.006.02-.019a1.79,1.79,0,0,1,.583-.37,1.671,1.671,0,0,1,.6-.112,1.748,1.748,0,0,1,.36.038,1.667,1.667,0,0,1,.874.48L7.175,5.324a1.8,1.8,0,0,1,.387.6,1.754,1.754,0,0,1,.088.958,1.658,1.658,0,0,1-.468.889L6,8.978A.21.21,0,0,0,5.93,9.1a.325.325,0,0,0,.016.178.609.609,0,0,0,.1.144l4.386,4.449a.27.27,0,0,0,.118.082.291.291,0,0,0,.052.005.276.276,0,0,0,.105-.023.219.219,0,0,0,.083-.059l1.179-1.2a1.719,1.719,0,0,1,.6-.4,1.674,1.674,0,0,1,.6-.111,1.745,1.745,0,0,1,.356.037,1.688,1.688,0,0,1,.875.471l2.616,2.648a1.764,1.764,0,0,1,.387.6,1.731,1.731,0,0,1-.363,1.825l-.614.635a5.156,5.156,0,0,1-.905.736,5.277,5.277,0,0,1-.986.5,5.492,5.492,0,0,1-1.759.352C12.709,19.973,12.636,19.975,12.556,19.975ZM3.329,3.8a.134.134,0,0,0-.063.034l-.581.6a3.385,3.385,0,0,0-.7,1,3.766,3.766,0,0,0-.323,1.159,4.817,4.817,0,0,0,.026,1.289,6.647,6.647,0,0,0,.367,1.369A8.219,8.219,0,0,0,3.209,11.3c.017.024.04.057.059.09a6.313,6.313,0,0,0,.425.629c.16.213.384.492.666.828.268.318.608.684,1.039,1.121s.828.823,1.193,1.148c.384.344.712.628,1,.868.335.277.644.518.918.715l.029.022.012.009a8.225,8.225,0,0,0,1.389.923,6.53,6.53,0,0,0,1.417.542,5.063,5.063,0,0,0,1.207.148l.155,0a3.787,3.787,0,0,0,1.927-.6,3.494,3.494,0,0,0,.616-.5l.6-.62a.092.092,0,0,0,.028-.052.11.11,0,0,0-.008-.066.1.1,0,0,0-.028-.043l-2.61-2.642a.063.063,0,0,0-.041-.023.154.154,0,0,0-.032,0,.1.1,0,0,0-.051.029l-1.177,1.2a1.888,1.888,0,0,1-.657.433,1.93,1.93,0,0,1-.687.128,1.836,1.836,0,0,1-1.331-.571L4.88,10.556a2.166,2.166,0,0,1-.457-.7,1.923,1.923,0,0,1-.1-1.042,1.816,1.816,0,0,1,.511-.979L6.02,6.628c.022-.023.024-.029.026-.04a.129.129,0,0,0-.008-.082.156.156,0,0,0-.031-.044l0,0L3.4,3.828C3.376,3.8,3.368,3.8,3.36,3.8l-.03,0ZM20.017,10H18.349a8.349,8.349,0,0,0-8.343-8.336V0a10.018,10.018,0,0,1,10.01,10Zm-2.5,0H15.853a5.85,5.85,0,0,0-5.846-5.84V2.5A7.519,7.519,0,0,1,17.52,10Z"/></clipPath></defs><g transform="translate(0 0)"><path class="a" d="M12.556,19.975a6.666,6.666,0,0,1-1.587-.2A8,8,0,0,1,9.19,19.1a9.76,9.76,0,0,1-1.65-1.091c-.3-.215-.631-.474-.985-.769-.287-.236-.62-.524-1.047-.906-.383-.339-.8-.739-1.271-1.221S3.4,14.244,3.112,13.9s-.526-.638-.722-.9a7.771,7.771,0,0,1-.511-.755A9.828,9.828,0,0,1,.533,9.824,8.266,8.266,0,0,1,.076,8.117,6.434,6.434,0,0,1,.043,6.394,5.348,5.348,0,0,1,.5,4.745a5.053,5.053,0,0,1,1.02-1.462l.594-.607.006-.006.02-.019a1.79,1.79,0,0,1,.583-.37,1.671,1.671,0,0,1,.6-.112,1.748,1.748,0,0,1,.36.038,1.667,1.667,0,0,1,.874.48L7.175,5.324a1.8,1.8,0,0,1,.387.6,1.754,1.754,0,0,1,.088.958,1.658,1.658,0,0,1-.468.889L6,8.978A.21.21,0,0,0,5.93,9.1a.325.325,0,0,0,.016.178.609.609,0,0,0,.1.144l4.386,4.449a.27.27,0,0,0,.118.082.291.291,0,0,0,.052.005.276.276,0,0,0,.105-.023.219.219,0,0,0,.083-.059l1.179-1.2a1.719,1.719,0,0,1,.6-.4,1.674,1.674,0,0,1,.6-.111,1.745,1.745,0,0,1,.356.037,1.688,1.688,0,0,1,.875.471l2.616,2.648a1.764,1.764,0,0,1,.387.6,1.731,1.731,0,0,1-.363,1.825l-.614.635a5.156,5.156,0,0,1-.905.736,5.277,5.277,0,0,1-.986.5,5.492,5.492,0,0,1-1.759.352C12.709,19.973,12.636,19.975,12.556,19.975ZM3.329,3.8a.134.134,0,0,0-.063.034l-.581.6a3.385,3.385,0,0,0-.7,1,3.766,3.766,0,0,0-.323,1.159,4.817,4.817,0,0,0,.026,1.289,6.647,6.647,0,0,0,.367,1.369A8.219,8.219,0,0,0,3.209,11.3c.017.024.04.057.059.09a6.313,6.313,0,0,0,.425.629c.16.213.384.492.666.828.268.318.608.684,1.039,1.121s.828.823,1.193,1.148c.384.344.712.628,1,.868.335.277.644.518.918.715l.029.022.012.009a8.225,8.225,0,0,0,1.389.923,6.53,6.53,0,0,0,1.417.542,5.063,5.063,0,0,0,1.207.148l.155,0a3.787,3.787,0,0,0,1.927-.6,3.494,3.494,0,0,0,.616-.5l.6-.62a.092.092,0,0,0,.028-.052.11.11,0,0,0-.008-.066.1.1,0,0,0-.028-.043l-2.61-2.642a.063.063,0,0,0-.041-.023.154.154,0,0,0-.032,0,.1.1,0,0,0-.051.029l-1.177,1.2a1.888,1.888,0,0,1-.657.433,1.93,1.93,0,0,1-.687.128,1.836,1.836,0,0,1-1.331-.571L4.88,10.556a2.166,2.166,0,0,1-.457-.7,1.923,1.923,0,0,1-.1-1.042,1.816,1.816,0,0,1,.511-.979L6.02,6.628c.022-.023.024-.029.026-.04a.129.129,0,0,0-.008-.082.156.156,0,0,0-.031-.044l0,0L3.4,3.828C3.376,3.8,3.368,3.8,3.36,3.8l-.03,0ZM20.017,10H18.349a8.349,8.349,0,0,0-8.343-8.336V0a10.018,10.018,0,0,1,10.01,10Zm-2.5,0H15.853a5.85,5.85,0,0,0-5.846-5.84V2.5A7.519,7.519,0,0,1,17.52,10Z"/><g class="b"><g transform="translate(0 0)"><rect class="c" width="20.015" height="20"/></g></g></g></svg>