<?xml version="1.0" encoding="UTF-8"?>
<svg width="500px" height="476px" viewBox="0 0 500 476" version="1.1" xmlns="http://www.w3.org/2000/svg" xmlns:xlink="http://www.w3.org/1999/xlink">
    <title>Group 36</title>
    <defs>
        <path d="M189,0 C84.6178743,0 0,84.6183143 0,189 L0,189 C0,293.381686 84.6178743,378 189,378 L189,378 C293.381686,378 378,293.381686 378,189 L378,189" id="path-1"></path>
        <path d="M189,0 C84.6178743,0 0,84.6183143 0,189 L0,189 C0,293.381686 84.6178743,378 189,378 L189,378 C293.381686,378 378,293.381686 378,189 L378,189" id="path-3"></path>
        <path d="M5.33039474,0.3185 C3.54002632,0.638 1.80289474,1.167 0.265289474,1.981 L0.265289474,1.981 C1.41323684,2.1045 2.56297368,2.0765 3.71584211,2.0485 L3.71584211,2.0485 C5.07181579,2.016 6.43226316,1.983 7.79986842,2.196 L7.79986842,2.196 C10.6912105,2.647 13.5315526,3.582 16.1960789,4.985 L16.1960789,4.985 C16.7973421,4.3965 16.8805526,3.4035 16.6179474,2.518 L16.6179474,2.518 C13.6997632,0.708 10.3270526,0.225 7.51847368,0.225 L7.51847368,0.225 C6.73826316,0.225 6.00189474,0.2625 5.33039474,0.3185" id="path-5"></path>
        <path d="M5.22347368,0.2 C3.43310526,0.5185 1.69642105,1.0475 0.158368421,1.8615 L0.158368421,1.8615 C1.30631579,1.985 2.4565,1.957 3.60892105,1.929 L3.60892105,1.929 C4.96534211,1.8965 6.32534211,1.864 7.69294737,2.0765 L7.69294737,2.0765 C10.5842895,2.527 13.4246316,3.462 16.0891579,4.8665 L16.0891579,4.8665 C16.6904211,4.277 16.7736316,3.284 16.5110263,2.399 L16.5110263,2.399 C13.5932895,0.589 10.2210263,0.106 7.41244737,0.106 L7.41244737,0.106 C6.63223684,0.106 5.89542105,0.1435 5.22347368,0.2" id="path-7"></path>
        <path d="M5.18813158,0.632727273 C3.39731579,0.980727273 1.66063158,1.55781818 0.122578947,2.44581818 L0.122578947,2.44581818 C1.27052632,2.58054545 2.41981579,2.55 3.57223684,2.52 L3.57223684,2.52 C4.92865789,2.48454545 6.28955263,2.44854545 7.65715789,2.68145455 L7.65715789,2.68145455 C10.5489474,3.17236364 13.3888421,4.19290909 16.0533684,5.72345455 L16.0533684,5.72345455 C16.6546316,5.08145455 16.7378421,3.99763636 16.4756842,3.03218182 L16.4756842,3.03218182 C13.5566053,1.05763636 10.1838947,0.530727273 7.37531579,0.530727273 L7.37531579,0.530727273 C6.59555263,0.530727273 5.85918421,0.571090909 5.18813158,0.632727273" id="path-9"></path>
        <path d="M2.66972727,0.409 C1.73454545,0.71 0.835772727,1.1085 0.0519545455,1.6285 L0.0519545455,1.6285 C1.38272727,1.555 2.691,1.133 4.04263636,1.1175 L4.04263636,1.1175 C5.58777273,1.1 7.12309091,1.322 8.58190909,1.785 L8.58190909,1.785 C8.8785,1.4495 8.88668182,0.9615 8.71609091,0.5535 L8.71609091,0.5535 C7.75145455,0.17 6.71727273,0.0315 5.724,0.0315 L5.724,0.0315 C4.60145455,0.0315 3.53086364,0.2085 2.66972727,0.409" id="path-11"></path>
        <path d="M3.20304348,0.9474 C2.20956522,1.3086 1.25391304,1.7862 0.421304348,2.4114 L0.421304348,2.4114 C1.83478261,2.322 3.22565217,1.8168 4.6626087,1.7982 L4.6626087,1.7982 C6.30391304,1.7772 7.93565217,2.0424 9.48652174,2.5986 L9.48652174,2.5986 C9.80130435,2.1966 9.81043478,1.611 9.62913043,1.1214 L9.62913043,1.1214 C8.60347826,0.6612 7.50478261,0.4944 6.44869565,0.4944 L6.44869565,0.4944 C5.25608696,0.4944 4.11826087,0.7068 3.20304348,0.9474" id="path-13"></path>
        <path d="M3.16869565,0.8046 C2.17434783,1.1652 1.21956522,1.6434 0.386086957,2.2674 L0.386086957,2.2674 C1.80043478,2.1792 3.19130435,1.6734 4.62782609,1.6542 L4.62782609,1.6542 C6.26956522,1.6332 7.90130435,1.8996 9.45217391,2.4552 L9.45217391,2.4552 C9.76695652,2.0532 9.77565217,1.467 9.59434783,0.978 L9.59434783,0.978 C8.56913043,0.5178 7.47,0.351 6.41434783,0.351 L6.41434783,0.351 C5.22130435,0.351 4.08347826,0.5634 3.16869565,0.8046" id="path-15"></path>
        <path d="M0.238,0.713411765 C1.057,2.92094118 1.644,5.25223529 2,7.63247059 L2,7.63247059 L2,0.401411765 C1.972,0.360941176 1.9415,0.317176471 1.913,0.276235294 L1.913,0.276235294 C1.7115,0.196705882 1.5025,0.154352941 1.299,0.154352941 L1.299,0.154352941 C0.8915,0.154352941 0.505,0.324705882 0.238,0.713411765" id="path-17"></path>
        <path d="M189,0 C84.6178743,0 0,84.6183143 0,189 L0,189 C0,293.381686 84.6178743,378 189,378 L189,378 C293.381686,378 378,293.381686 378,189 L378,189" id="path-19"></path>
        <path d="M189,0 C84.6178743,0 0,84.6183143 0,189 L0,189 C0,293.381686 84.6178743,378 189,378 L189,378 C293.381686,378 378,293.381686 378,189 L378,189 C378,84.6183143 293.381686,0 189,0 Z" id="path-21"></path>
        <path d="M189,0 C84.6178743,0 0,84.6183143 0,189 L0,189 C0,293.381686 84.6178743,378 189,378 L189,378 C293.381686,378 378,293.381686 378,189 L378,189 C378,84.6183143 293.381686,0 189,0 Z" id="path-23"></path>
        <path d="M189,0 C84.6178743,0 0,84.6183143 0,189 L0,189 C0,293.381686 84.6178743,378 189,378 L189,378 C293.381686,378 378,293.381686 378,189 L378,189" id="path-25"></path>
        <path d="M189,0 C84.6178743,0 0,84.6183143 0,189 L0,189 C0,293.381686 84.6178743,378 189,378 L189,378 C293.381686,378 378,293.381686 378,189 L378,189" id="path-27"></path>
        <path d="M189,0 C84.6178743,0 0,84.6183143 0,189 L0,189 C0,293.381686 84.6178743,378 189,378 L189,378 C293.381686,378 378,293.381686 378,189 L378,189" id="path-29"></path>
        <path d="M189,0 C84.6178743,0 0,84.6183143 0,189 L0,189 C0,293.381686 84.6178743,378 189,378 L189,378 C293.381686,378 378,293.381686 378,189 L378,189" id="path-31"></path>
        <path d="M189,0 C84.6178743,0 0,84.6183143 0,189 L0,189 C0,293.381686 84.6178743,378 189,378 L189,378 C293.381686,378 378,293.381686 378,189 L378,189" id="path-33"></path>
        <path d="M189,0 C84.6178743,0 0,84.6183143 0,189 L0,189 C0,293.381686 84.6178743,378 189,378 L189,378 C293.381686,378 378,293.381686 378,189 L378,189" id="path-35"></path>
        <path d="M189,0 C84.6178743,0 0,84.6183143 0,189 L0,189 C0,293.381686 84.6178743,378 189,378 L189,378 C293.381686,378 378,293.381686 378,189 L378,189" id="path-37"></path>
        <path d="M189,0 C84.6178743,0 0,84.6183143 0,189 L0,189 C0,293.381686 84.6178743,378 189,378 L189,378 C293.381686,378 378,293.381686 378,189 L378,189" id="path-39"></path>
        <path d="M189,0 C84.6178743,0 0,84.6183143 0,189 L0,189 C0,293.381686 84.6178743,378 189,378 L189,378 C293.381686,378 378,293.381686 378,189 L378,189" id="path-41"></path>
        <path d="M189,0 C84.6178743,0 0,84.6183143 0,189 L0,189 C0,293.381686 84.6178743,378 189,378 L189,378 C293.381686,378 378,293.381686 378,189 L378,189" id="path-43"></path>
        <path d="M189,0 C84.6178743,0 0,84.6183143 0,189 L0,189 C0,293.381686 84.6178743,378 189,378 L189,378 C293.381686,378 378,293.381686 378,189 L378,189" id="path-45"></path>
        <path d="M189,0 C84.6178743,0 0,84.6183143 0,189 L0,189 C0,293.381686 84.6178743,378 189,378 L189,378 C293.381686,378 378,293.381686 378,189 L378,189" id="path-47"></path>
        <path d="M189,0 C84.6178743,0 0,84.6183143 0,189 L0,189 C0,293.381686 84.6178743,378 189,378 L189,378 C293.381686,378 378,293.381686 378,189 L378,189" id="path-49"></path>
        <path d="M189,0 C84.6178743,0 0,84.6183143 0,189 L0,189 C0,293.381686 84.6178743,378 189,378 L189,378 C293.381686,378 378,293.381686 378,189 L378,189 C378,84.6183143 293.381686,0 189,0 Z" id="path-51"></path>
        <path d="M189,0 C84.6178743,0 0,84.6183143 0,189 L0,189 C0,293.381686 84.6178743,378 189,378 L189,378 C293.381686,378 378,293.381686 378,189 L378,189" id="path-53"></path>
        <path d="M189,0 C84.6178743,0 0,84.6183143 0,189 L0,189 C0,293.381686 84.6178743,378 189,378 L189,378 C293.381686,378 378,293.381686 378,189 L378,189" id="path-55"></path>
        <path d="M189,0 C84.6178743,0 0,84.6183143 0,189 L0,189 C0,293.381686 84.6178743,378 189,378 L189,378 C293.381686,378 378,293.381686 378,189 L378,189 C378,84.6183143 293.381686,0 189,0 Z" id="path-57"></path>
        <path d="M189,0 C84.6178743,0 0,84.6183143 0,189 L0,189 C0,293.381686 84.6178743,378 189,378 L189,378 C293.381686,378 378,293.381686 378,189 L378,189" id="path-59"></path>
        <path d="M189,0 C84.6178743,0 0,84.6183143 0,189 L0,189 C0,293.381686 84.6178743,378 189,378 L189,378 C293.381686,378 378,293.381686 378,189 L378,189" id="path-61"></path>
        <path d="M189,0 C84.6178743,0 0,84.6183143 0,189 L0,189 C0,293.381686 84.6178743,378 189,378 L189,378 C293.381686,378 378,293.381686 378,189 L378,189" id="path-63"></path>
        <path d="M189,0 C84.6178743,0 0,84.6183143 0,189 L0,189 C0,293.381686 84.6178743,378 189,378 L189,378 C293.381686,378 378,293.381686 378,189 L378,189" id="path-65"></path>
        <path d="M189,0 C84.6178743,0 0,84.6183143 0,189 L0,189 C0,293.381686 84.6178743,378 189,378 L189,378 C293.381686,378 378,293.381686 378,189 L378,189 C378,84.6183143 293.381686,0 189,0 Z" id="path-67"></path>
        <path d="M189,0 C84.6178743,0 0,84.6183143 0,189 L0,189 C0,293.381686 84.6178743,378 189,378 L189,378 C293.381686,378 378,293.381686 378,189 L378,189 C378,84.6183143 293.381686,0 189,0 Z" id="path-69"></path>
        <path d="M197,0 C92.6178743,0 8,84.6183143 8,189 L8,189 C8,293.381686 92.6178743,378 197,378 L197,378 C301.381686,378 386,293.381686 386,189 L386,189 C386,84.6183143 301.381686,0 197,0 Z" id="path-71"></path>
        <rect id="path-73" x="32" y="0" width="313" height="131" rx="6"></rect>
        <filter x="-25.6%" y="-48.9%" width="151.1%" height="222.1%" filterUnits="objectBoundingBox" id="filter-74">
            <feOffset dx="0" dy="16" in="SourceAlpha" result="shadowOffsetOuter1"></feOffset>
            <feGaussianBlur stdDeviation="24" in="shadowOffsetOuter1" result="shadowBlurOuter1"></feGaussianBlur>
            <feColorMatrix values="0 0 0 0 0   0 0 0 0 0   0 0 0 0 0  0 0 0 0.16 0" type="matrix" in="shadowBlurOuter1"></feColorMatrix>
        </filter>
    </defs>
    <g id="los-segura-DSK" stroke="none" stroke-width="1" fill="none" fill-rule="evenodd">
        <g id="Landing-los-segura" transform="translate(-132.000000, -4397.000000)">
            <g id="Group-36" transform="translate(194.000000, 4429.000000)">
                <g id="Group-33">
                    <circle id="Oval" fill="#E6E6E6" cx="194.5" cy="269.5" r="174.5"></circle>
                    <g id="Group-182" transform="translate(0.000000, 66.000000)">
                        <g id="Group-7">
                            <g id="Group-3">
                                <mask id="mask-2" fill="white">
                                    <use xlink:href="#path-1"></use>
                                </mask>
                                <g id="Clip-2"></g>
                                <path d="M181.765018,120.042019 C183.243575,118.748282 185.517736,118.35268 187.336448,119.124082 C187.664283,119.263136 188.043603,119.222652 188.239424,118.887337 C188.401801,118.610547 188.332713,118.124736 188.002678,117.984361 C185.601784,116.966093 182.802208,117.383698 180.83168,119.10824 C180.563251,119.343225 180.591414,119.801313 180.83168,120.042019 C181.097908,120.307807 181.49615,120.277004 181.765018,120.042019" id="Fill-1" fill="#9D4100" mask="url(#mask-2)"></path>
                            </g>
                            <g id="Group-6">
                                <mask id="mask-4" fill="white">
                                    <use xlink:href="#path-3"></use>
                                </mask>
                                <g id="Clip-5"></g>
                                <path d="M196.839606,119.519068 C198.631475,118.480558 200.912237,118.586169 202.621817,119.741291 C202.917529,119.941072 203.353615,119.798057 203.525233,119.504546 C203.715333,119.179792 203.584639,118.801352 203.288048,118.60157 C201.198267,117.189461 198.348965,117.118173 196.173375,118.378907 C195.438497,118.804872 196.102528,119.946353 196.839606,119.519068" id="Fill-4" fill="#9D4100" mask="url(#mask-4)"></path>
                            </g>
                        </g>
                        <g id="Group-10" transform="translate(126.000000, 102.000000)">
                            <mask id="mask-6" fill="white">
                                <use xlink:href="#path-5"></use>
                            </mask>
                            <g id="Clip-9"></g>
                            <path d="M5.33039474,0.3185 C3.54002632,0.638 1.80289474,1.167 0.265289474,1.981 L0.265289474,1.981 C1.41323684,2.1045 2.56297368,2.0765 3.71584211,2.0485 L3.71584211,2.0485 C5.07181579,2.016 6.43226316,1.983 7.79986842,2.196 L7.79986842,2.196 C10.6912105,2.647 13.5315526,3.582 16.1960789,4.985 L16.1960789,4.985 C16.7973421,4.3965 16.8805526,3.4035 16.6179474,2.518 L16.6179474,2.518 C13.6997632,0.708 10.3270526,0.225 7.51847368,0.225 L7.51847368,0.225 C6.73826316,0.225 6.00189474,0.2625 5.33039474,0.3185" id="Fill-8" mask="url(#mask-6)"></path>
                        </g>
                        <g id="Group-13" transform="translate(128.000000, 103.000000)">
                            <mask id="mask-8" fill="white">
                                <use xlink:href="#path-7"></use>
                            </mask>
                            <g id="Clip-12"></g>
                            <path d="M5.22347368,0.2 C3.43310526,0.5185 1.69642105,1.0475 0.158368421,1.8615 L0.158368421,1.8615 C1.30631579,1.985 2.4565,1.957 3.60892105,1.929 L3.60892105,1.929 C4.96534211,1.8965 6.32534211,1.864 7.69294737,2.0765 L7.69294737,2.0765 C10.5842895,2.527 13.4246316,3.462 16.0891579,4.8665 L16.0891579,4.8665 C16.6904211,4.277 16.7736316,3.284 16.5110263,2.399 L16.5110263,2.399 C13.5932895,0.589 10.2210263,0.106 7.41244737,0.106 L7.41244737,0.106 C6.63223684,0.106 5.89542105,0.1435 5.22347368,0.2" id="Fill-11" mask="url(#mask-8)"></path>
                        </g>
                        <g id="Group-16" transform="translate(128.000000, 103.000000)">
                            <mask id="mask-10" fill="white">
                                <use xlink:href="#path-9"></use>
                            </mask>
                            <g id="Clip-15"></g>
                            <path d="M5.18813158,0.632727273 C3.39731579,0.980727273 1.66063158,1.55781818 0.122578947,2.44581818 L0.122578947,2.44581818 C1.27052632,2.58054545 2.41981579,2.55 3.57223684,2.52 L3.57223684,2.52 C4.92865789,2.48454545 6.28955263,2.44854545 7.65715789,2.68145455 L7.65715789,2.68145455 C10.5489474,3.17236364 13.3888421,4.19290909 16.0533684,5.72345455 L16.0533684,5.72345455 C16.6546316,5.08145455 16.7378421,3.99763636 16.4756842,3.03218182 L16.4756842,3.03218182 C13.5566053,1.05763636 10.1838947,0.530727273 7.37531579,0.530727273 L7.37531579,0.530727273 C6.59555263,0.530727273 5.85918421,0.571090909 5.18813158,0.632727273" id="Fill-14" mask="url(#mask-10)"></path>
                        </g>
                        <g id="Group-19" transform="translate(113.000000, 105.000000)">
                            <mask id="mask-12" fill="white">
                                <use xlink:href="#path-11"></use>
                            </mask>
                            <g id="Clip-18"></g>
                            <path d="M2.66972727,0.409 C1.73454545,0.71 0.835772727,1.1085 0.0519545455,1.6285 L0.0519545455,1.6285 C1.38272727,1.555 2.691,1.133 4.04263636,1.1175 L4.04263636,1.1175 C5.58777273,1.1 7.12309091,1.322 8.58190909,1.785 L8.58190909,1.785 C8.8785,1.4495 8.88668182,0.9615 8.71609091,0.5535 L8.71609091,0.5535 C7.75145455,0.17 6.71727273,0.0315 5.724,0.0315 L5.724,0.0315 C4.60145455,0.0315 3.53086364,0.2085 2.66972727,0.409" id="Fill-17" mask="url(#mask-12)"></path>
                        </g>
                        <g id="Group-22" transform="translate(114.000000, 106.000000)">
                            <mask id="mask-14" fill="white">
                                <use xlink:href="#path-13"></use>
                            </mask>
                            <g id="Clip-21"></g>
                            <path d="M3.20304348,0.9474 C2.20956522,1.3086 1.25391304,1.7862 0.421304348,2.4114 L0.421304348,2.4114 C1.83478261,2.322 3.22565217,1.8168 4.6626087,1.7982 L4.6626087,1.7982 C6.30391304,1.7772 7.93565217,2.0424 9.48652174,2.5986 L9.48652174,2.5986 C9.80130435,2.1966 9.81043478,1.611 9.62913043,1.1214 L9.62913043,1.1214 C8.60347826,0.6612 7.50478261,0.4944 6.44869565,0.4944 L6.44869565,0.4944 C5.25608696,0.4944 4.11826087,0.7068 3.20304348,0.9474" id="Fill-20" mask="url(#mask-14)"></path>
                        </g>
                        <g id="Group-25" transform="translate(114.000000, 107.000000)">
                            <mask id="mask-16" fill="white">
                                <use xlink:href="#path-15"></use>
                            </mask>
                            <g id="Clip-24"></g>
                            <path d="M3.16869565,0.8046 C2.17434783,1.1652 1.21956522,1.6434 0.386086957,2.2674 L0.386086957,2.2674 C1.80043478,2.1792 3.19130435,1.6734 4.62782609,1.6542 L4.62782609,1.6542 C6.26956522,1.6332 7.90130435,1.8996 9.45217391,2.4552 L9.45217391,2.4552 C9.76695652,2.0532 9.77565217,1.467 9.59434783,0.978 L9.59434783,0.978 C8.56913043,0.5178 7.47,0.351 6.41434783,0.351 L6.41434783,0.351 C5.22130435,0.351 4.08347826,0.5634 3.16869565,0.8046" id="Fill-23" mask="url(#mask-16)"></path>
                        </g>
                        <g id="Group-28" transform="translate(147.000000, 114.000000)">
                            <mask id="mask-18" fill="white">
                                <use xlink:href="#path-17"></use>
                            </mask>
                            <g id="Clip-27"></g>
                            <path d="M0.238,0.713411765 C1.057,2.92094118 1.644,5.25223529 2,7.63247059 L2,7.63247059 L2,0.401411765 C1.972,0.360941176 1.9415,0.317176471 1.913,0.276235294 L1.913,0.276235294 C1.7115,0.196705882 1.5025,0.154352941 1.299,0.154352941 L1.299,0.154352941 C0.8915,0.154352941 0.505,0.324705882 0.238,0.713411765" id="Fill-26" mask="url(#mask-18)"></path>
                        </g>
                        <g id="Group-181">
                            <g id="Group-31">
                                <mask id="mask-20" fill="white">
                                    <use xlink:href="#path-19"></use>
                                </mask>
                                <g id="Clip-30"></g>
                                <path d="M332.015134,207.922002 C332.015134,279.616149 271.038761,337.735739 195.820722,337.735739 C120.602682,337.735739 59.6263097,279.616149 59.6263097,207.922002 C59.6263097,136.227856 120.602682,78.1082654 195.820722,78.1082654 C271.038761,78.1082654 332.015134,136.227856 332.015134,207.922002" id="Fill-29" fill="#8AFEFD" mask="url(#mask-20)"></path>
                            </g>
                            <g id="Group-34">
                                <mask id="mask-22" fill="white">
                                    <use xlink:href="#path-21"></use>
                                </mask>
                                <g id="Clip-33"></g>
                                <path d="M332.015134,207.922002 C332.015134,279.616149 271.038761,337.735739 195.820722,337.735739 C120.602682,337.735739 59.6263097,279.616149 59.6263097,207.922002 C59.6263097,136.227856 120.602682,78.1082654 195.820722,78.1082654 C271.038761,78.1082654 332.015134,136.227856 332.015134,207.922002 Z" id="Stroke-32" stroke="#FFFFFF" stroke-width="17.001" mask="url(#mask-22)"></path>
                            </g>
                            <g id="Group-37">
                                <mask id="mask-24" fill="white">
                                    <use xlink:href="#path-23"></use>
                                </mask>
                                <g id="Clip-36"></g>
                                <path d="M92.8835769,233.332975 L100.330485,232.990619 L100.326525,235.627378 L102.669773,240.987585 C102.669773,240.987585 103.02137,253.234081 100.85502,252.974894 C97.2101148,252.538368 100.56591,244.672975 99.4305898,244.9062 C98.1733767,245.164947 97.2101148,252.538368 97.2101148,252.538368 C97.2101148,252.538368 102.73886,260.240063 98.4959308,262.609273 C98.4959308,262.609273 91.0331811,254.439369 90.5940147,250.081588 L93.1832487,236.458626 L92.8835769,233.332975 Z" id="Fill-35" fill="#FFB995" mask="url(#mask-24)"></path>
                            </g>
                            <g id="Group-40">
                                <mask id="mask-26" fill="white">
                                    <use xlink:href="#path-25"></use>
                                </mask>
                                <g id="Clip-39"></g>
                                <path d="M101.769349,235.194592 C102.477824,237.991968 96.0549045,238.048734 92.0685227,237.529479 C91.9224272,237.510117 91.7864529,237.428709 91.6949232,237.281733 C88.7435308,232.549032 88.8944668,205.703992 91.38117,185.9349 C93.5373981,168.793326 100.608066,153.380695 106.098967,155.759586 C106.183456,155.79611 106.263105,155.858597 106.327792,155.936925 C110.484912,160.982059 103.509293,173.517226 100.92534,193.706122 C97.855135,217.6935 101.047233,232.343531 101.769349,235.194592" id="Fill-38" fill="#002368" mask="url(#mask-26)"></path>
                            </g>
                            <g id="Group-43">
                                <mask id="mask-28" fill="white">
                                    <use xlink:href="#path-27"></use>
                                </mask>
                                <g id="Clip-42"></g>
                                <path d="M254.613363,176.906904 C253.904888,179.70472 259.132641,177.426599 263.119023,176.906904 C263.265559,176.887982 268.292651,178.268848 268.38418,178.122313 C271.335573,173.389172 273.301701,184.930273 270.814558,165.161181 C268.658329,148.019607 206.86435,152.938448 201.373009,155.31734 C201.28896,155.353864 201.19303,155.405789 201.144625,155.494678 C191.023554,174.071684 241.012844,156.341328 247.322672,175.691936 C253.398395,194.323067 255.33548,174.055843 254.613363,176.906904" id="Fill-41" fill="#FFD200" mask="url(#mask-28)"></path>
                            </g>
                            <g id="Group-46">
                                <mask id="mask-30" fill="white">
                                    <use xlink:href="#path-29"></use>
                                </mask>
                                <g id="Clip-45"></g>
                                <path d="M194.344806,173.355553 C193.636331,176.153369 198.864084,173.875247 202.850466,173.355553 C202.997001,173.336631 208.024093,174.717497 208.115623,174.570961 C211.067015,169.83782 213.033143,181.378922 210.546,161.60983 C208.389772,144.468256 146.595793,149.387536 141.104452,151.766428 C141.020403,151.802952 140.924473,151.854877 140.876068,151.943767 C130.754997,170.520773 180.744286,152.789976 187.054114,172.140584 C193.129837,190.772156 195.066922,170.504491 194.344806,173.355553" id="Fill-44" fill="#00184B" mask="url(#mask-30)"></path>
                            </g>
                            <g id="Group-49">
                                <mask id="mask-32" fill="white">
                                    <use xlink:href="#path-31"></use>
                                </mask>
                                <g id="Clip-48"></g>
                                <path d="M144.097208,185.696218 C145.335499,188.303494 139.76495,187.083245 135.753485,187.347713 C135.60607,187.357394 130.942456,189.687881 130.824084,189.562027 C127.00976,185.492037 127.322633,197.195955 125.923725,177.319492 C124.710517,160.085948 186.284033,152.912749 192.132251,154.180523 C192.222021,154.199885 192.326312,154.232009 192.390999,154.309897 C205.926391,170.567858 153.445998,162.880684 151.01298,183.088502 C148.671052,202.545161 142.835595,183.039657 144.097208,185.696218" id="Fill-47" fill="#FFD200" mask="url(#mask-32)"></path>
                            </g>
                            <g id="Group-52">
                                <mask id="mask-34" fill="white">
                                    <use xlink:href="#path-33"></use>
                                </mask>
                                <g id="Clip-51"></g>
                                <path d="M140.007636,102.53085 L122.655719,102.306426 C121.638772,102.293225 120.658788,102.413357 119.73601,102.640421 C121.750544,104.533942 123.394998,106.085106 123.394998,106.085106 C123.394998,106.085106 118.081875,105.783234 113.942797,106.699411 C113.412541,107.622189 113.106269,108.643097 113.091747,109.720771 L112.894166,124.794566 C112.840041,128.940244 117.054367,132.386689 122.260118,132.454016 L139.612034,132.67844 C144.817785,132.745767 149.12144,129.409334 149.175566,125.264095 L149.373587,110.1903 C149.427712,106.044622 145.213386,102.598177 140.007636,102.53085" id="Fill-50" fill="#666666" mask="url(#mask-34)"></path>
                            </g>
                            <g id="Group-55">
                                <mask id="mask-36" fill="white">
                                    <use xlink:href="#path-35"></use>
                                </mask>
                                <g id="Clip-54"></g>
                                <path d="M273.447884,239.32861 L254.379346,237.218146 C254.060313,237.182943 253.808606,237.651152 253.873293,238.159846 L254.744585,262.948549 C254.79079,263.312908 257.270452,263.587937 257.500157,263.587937 L260.372781,263.587937 C260.629328,263.587937 260.84143,263.913131 260.855512,264.328975 L262.692266,318.035779 L264.375444,379.455718 C264.388646,379.872882 264.600748,380.200277 264.858175,380.200277 L273.225661,380.200277 C273.492329,380.200277 273.708832,379.84868 273.708832,379.415674 L273.708832,299.349201 L273.898499,240.115853 C273.899812,239.701769 273.702671,239.356773 273.447884,239.32861" id="Fill-53" fill="#FFD316" mask="url(#mask-36)"></path>
                            </g>
                            <g id="Group-58">
                                <mask id="mask-38" fill="white">
                                    <use xlink:href="#path-37"></use>
                                </mask>
                                <g id="Clip-57"></g>
                                <path d="M237.684684,238.945285 L265.440621,238.769265 C265.818181,238.766626 266.381,241.880836 266.234465,242.398771 L262.112989,250.941395 C260.052251,255.398626 258.052239,258.662892 257.991513,258.74122 L255.147492,263.984375 C255.04056,264.122549 254.975874,264.31793 254.967073,264.527392 L252.726356,318.56115 L250.68762,379.901441 C250.671778,380.316405 250.440754,380.640279 250.161764,380.640279 L239.9122,380.640279 C239.620889,380.640279 239.385464,380.289562 239.385464,379.856556 L239.385464,299.926058 C239.385464,299.911537 239.385024,299.897455 239.384584,299.882934 L237.161028,239.772133 C237.144307,239.324165 237.383252,238.947045 237.684684,238.945285" id="Fill-56" fill="#FFD316" mask="url(#mask-38)"></path>
                            </g>
                            <g id="Group-61">
                                <mask id="mask-40" fill="white">
                                    <use xlink:href="#path-39"></use>
                                </mask>
                                <g id="Clip-60"></g>
                                <path d="M196.979276,153.535415 C196.35177,163.400379 194.779044,163.997962 192.065276,163.997962 C189.351949,163.997962 187.779223,163.101147 187.151716,153.535415 C186.774597,147.782246 188.197267,143.072868 192.065276,143.072868 C195.933726,143.072868 197.345395,147.780926 196.979276,153.535415" id="Fill-59" fill="#FFB995" mask="url(#mask-40)"></path>
                            </g>
                            <g id="Group-64">
                                <mask id="mask-42" fill="white">
                                    <use xlink:href="#path-41"></use>
                                </mask>
                                <g id="Clip-63"></g>
                                <path d="M197.597014,143.228732 C196.930343,153.388088 195.259486,154.003713 192.376301,154.003713 C189.492676,154.003713 187.821819,153.080495 187.155149,143.228732 C186.754706,137.303946 188.266266,132.453752 192.376301,132.453752 C196.486336,132.453752 197.986015,137.302185 197.597014,143.228732" id="Fill-62" fill="#000000" mask="url(#mask-42)"></path>
                            </g>
                            <g id="Group-67">
                                <mask id="mask-44" fill="white">
                                    <use xlink:href="#path-43"></use>
                                </mask>
                                <g id="Clip-66"></g>
                                <path d="M179.454334,124.02092 C179.032329,126.376929 177.974017,126.519504 176.147824,126.519504 C174.321631,126.519504 173.263319,126.305202 172.841314,124.02092 C172.587407,122.647095 173.544949,121.522336 176.147824,121.522336 C178.750699,121.522336 179.70076,122.646654 179.454334,124.02092" id="Fill-65" fill="#FFB995" mask="url(#mask-44)"></path>
                            </g>
                            <g id="Group-70">
                                <mask id="mask-46" fill="white">
                                    <use xlink:href="#path-45"></use>
                                </mask>
                                <g id="Clip-69"></g>
                                <path d="M208.658332,124.02092 C208.236328,126.376929 207.178016,126.519504 205.351822,126.519504 C203.525629,126.519504 202.467317,126.305202 202.045312,124.02092 C201.791406,122.647095 202.748947,121.522336 205.351822,121.522336 C207.954698,121.522336 208.904758,122.646654 208.658332,124.02092" id="Fill-68" fill="#FFB995" mask="url(#mask-46)"></path>
                            </g>
                            <g id="Group-73">
                                <mask id="mask-48" fill="white">
                                    <use xlink:href="#path-47"></use>
                                </mask>
                                <g id="Clip-72"></g>
                                <path d="M198.116577,97.250291 L182.963573,97.250291 C182.075999,97.250291 181.221429,97.382305 180.418344,97.6194901 C182.198772,99.4725262 183.652246,100.990687 183.652246,100.990687 C183.652246,100.990687 179.010195,100.759662 175.406654,101.721604 C174.954726,102.644382 174.698619,103.660889 174.698619,104.731083 L174.698619,119.692666 C174.698619,123.807101 178.417892,127.173458 182.963573,127.173458 L198.116577,127.173458 C202.662698,127.173458 206.381971,123.807101 206.381971,119.692666 L206.381971,104.731083 C206.381971,100.616647 202.662698,97.250291 198.116577,97.250291" id="Fill-71" fill="#A15304" mask="url(#mask-48)"></path>
                            </g>
                            <g id="Group-76">
                                <mask id="mask-50" fill="white">
                                    <use xlink:href="#path-49"></use>
                                </mask>
                                <g id="Clip-75"></g>
                                <path d="M205.42333,128.23749 C203.559293,148.408785 198.885998,149.631234 190.821265,149.631234 C182.756971,149.631234 178.083677,147.79756 176.2192,128.23749 C175.098401,116.473285 179.326368,106.843306 190.821265,106.843306 C202.316601,106.843306 206.510685,116.470205 205.42333,128.23749" id="Fill-74" fill="#FFC5B3" mask="url(#mask-50)"></path>
                            </g>
                            <g id="Group-79">
                                <mask id="mask-52" fill="white">
                                    <use xlink:href="#path-51"></use>
                                </mask>
                                <g id="Clip-78"></g>
                                <path d="M176.505934,130.69383 C178.536749,147.756636 183.139636,149.433213 190.821529,149.433213 C198.514423,149.433213 203.11951,148.307134 205.145485,130.69383 L176.505934,130.69383 Z" id="Fill-77" fill="#9A6233" mask="url(#mask-52)"></path>
                            </g>
                            <g id="Group-82">
                                <mask id="mask-54" fill="white">
                                    <use xlink:href="#path-53"></use>
                                </mask>
                                <g id="Clip-81"></g>
                                <path d="M184.379511,121.892899 C184.865322,121.892899 185.259604,122.385311 185.259604,122.993015 C185.259604,123.600719 184.865322,124.093132 184.379511,124.093132 C183.8937,124.093132 183.499418,123.600719 183.499418,122.993015 C183.499418,122.385311 183.8937,121.892899 184.379511,121.892899" id="Fill-80" fill="#351B0E" mask="url(#mask-54)"></path>
                            </g>
                            <g id="Group-85">
                                <mask id="mask-56" fill="white">
                                    <use xlink:href="#path-55"></use>
                                </mask>
                                <g id="Clip-84"></g>
                                <path d="M199.341094,121.892899 C199.826906,121.892899 200.221187,122.385311 200.221187,122.993015 C200.221187,123.600719 199.826906,124.093132 199.341094,124.093132 C198.855283,124.093132 198.461001,123.600719 198.461001,122.993015 C198.461001,122.385311 198.855283,121.892899 199.341094,121.892899" id="Fill-83" fill="#351B0E" mask="url(#mask-56)"></path>
                            </g>
                            <g id="Group-88">
                                <mask id="mask-58" fill="white">
                                    <use xlink:href="#path-57"></use>
                                </mask>
                                <g id="Clip-87"></g>
                                <path d="M186.588105,135.094296 C187.512643,137.40146 189.561939,139.00939 191.947432,139.00939 C194.332924,139.00939 196.382221,137.40146 197.306319,135.094296 L186.588105,135.094296 Z" id="Fill-86" fill="#FFFFFF" mask="url(#mask-58)"></path>
                            </g>
                            <g id="Group-91">
                                <mask id="mask-60" fill="white">
                                    <use xlink:href="#path-59"></use>
                                </mask>
                                <g id="Clip-90"></g>
                                <path d="M177.635489,122.899329 C178.30172,119.239462 179.391275,115.698847 180.879513,112.436782 C180.413943,111.598493 179.542651,111.38023 178.735166,111.618295 C176.343953,116.144614 175.801375,121.86566 175.745929,125.858202 C175.862982,128.191769 176.170574,130.480451 176.748796,132.54515 C177.217005,129.368454 177.052428,126.101988 177.635489,122.899329" id="Fill-89" fill="#844208" mask="url(#mask-60)"></path>
                            </g>
                            <g id="Group-94">
                                <mask id="mask-62" fill="white">
                                    <use xlink:href="#path-61"></use>
                                </mask>
                                <g id="Clip-93"></g>
                                <path d="M195.698697,127.87608 C195.707938,128.043298 195.696937,128.215796 195.664813,128.393575 C195.242809,130.749144 194.184937,130.892159 192.358743,130.892159 C191.214622,130.892159 190.372373,130.80767 189.798553,130.183244 C190.285684,131.957072 191.310993,132.141011 192.979649,132.141011 C194.805842,132.141011 195.864154,131.998436 196.286159,129.642867 C196.409812,128.954194 196.232913,128.328888 195.698697,127.87608" id="Fill-92" fill="#501807" mask="url(#mask-62)"></path>
                            </g>
                            <g id="Group-97">
                                <mask id="mask-64" fill="white">
                                    <use xlink:href="#path-63"></use>
                                </mask>
                                <g id="Clip-96"></g>
                                <path d="M212.229662,232.802235 L189.386845,230.462068 C189.004444,230.422463 188.702573,230.941718 188.780021,231.506298 L188.834586,255.696538 C186.59519,254.856489 190.538007,259.409651 190.812596,259.409651 L196.566205,259.706682 C196.873797,259.706682 197.127264,260.06752 197.144426,260.528689 L199.344659,320.090752 L201.360952,378.934659 C201.376794,379.397148 201.631581,379.760186 201.939613,379.760186 L211.963434,379.760186 C212.283348,379.760186 212.542535,379.370305 212.542535,378.889334 L212.542535,299.367199 L212.769605,233.675288 C212.770919,233.215439 212.534614,232.833478 212.229662,232.802235" id="Fill-95" fill="#292627" mask="url(#mask-64)"></path>
                            </g>
                            <g id="Group-100">
                                <mask id="mask-66" fill="white">
                                    <use xlink:href="#path-65"></use>
                                </mask>
                                <g id="Clip-99"></g>
                                <path d="M176.074292,231.90454 L203.894476,231.708711 C204.272916,231.706079 204.529903,232.342386 204.383368,232.918407 L199.878171,250.582757 C199.846928,250.70553 199.798963,250.814661 199.738236,250.902231 L193.577144,259.753327 C193.470653,259.906903 193.405526,260.124286 193.396725,260.357071 L191.150728,320.454671 L189.107151,379.378666 C189.09131,379.839835 188.859845,380.200233 188.579976,380.200233 L178.306648,380.200233 C178.015338,380.200233 177.779033,379.809912 177.779033,379.328941 L177.779033,299.728037 C177.779033,299.712196 177.778593,299.696354 177.778153,299.680512 L175.549317,232.824237 C175.533035,232.326105 175.77198,231.90674 176.074292,231.90454" id="Fill-98" fill="#292627" mask="url(#mask-66)"></path>
                            </g>
                            <g id="Group-103">
                                <mask id="mask-68" fill="white">
                                    <use xlink:href="#path-67"></use>
                                </mask>
                                <g id="Clip-102"></g>
                                <polygon id="Fill-101" fill="#663D1F" mask="url(#mask-68)" points="211.261032 237.185099 210.343095 230.5844 176.476671 230.5844 175.558294 237.185099"></polygon>
                            </g>
                            <g id="Group-106">
                                <mask id="mask-70" fill="white">
                                    <use xlink:href="#path-69"></use>
                                </mask>
                                <g id="Clip-105"></g>
                                <path d="M195.259486,237.185099 C194.842322,237.185099 194.500406,236.801818 194.500406,236.332729 L194.500406,231.876817 C194.500406,231.407728 194.842322,231.024447 195.259486,231.024447 L204.136986,231.024447 C203.822353,230.248205 203.125759,229.704307 202.320034,229.704307 L194.736711,229.704307 C193.638795,229.704307 192.74022,230.712894 192.74022,231.945464 L192.74022,236.264081 C192.74022,237.496652 193.638795,238.505239 194.736711,238.505239 L202.320034,238.505239 C203.125759,238.505239 203.822353,237.961341 204.136986,237.185099 L195.259486,237.185099 Z" id="Fill-104" fill="#A0A0A0" mask="url(#mask-70)"></path>
                            </g>
                            <mask id="mask-72" fill="white">
                                <use xlink:href="#path-71"></use>
                            </mask>
                            <g id="Clip-108"></g>
                            <polygon id="Fill-107" fill="#292627" mask="url(#mask-72)" points="184.379511 238.945285 186.579744 238.945285 186.579744 230.5844 184.379511 230.5844"></polygon>
                            <polygon id="Fill-109" fill="#292627" mask="url(#mask-72)" points="206.381839 238.945285 208.582072 238.945285 208.582072 230.5844 206.381839 230.5844"></polygon>
                            <polygon id="Fill-110" fill="#292627" mask="url(#mask-72)" points="210.342258 238.945285 211.662398 238.945285 211.662398 230.5844 210.342258 230.5844"></polygon>
                            <polygon id="Fill-111" fill="#292627" mask="url(#mask-72)" points="174.698487 238.945285 176.898719 238.945285 176.898719 230.5844 174.698487 230.5844"></polygon>
                            <path d="M218.263097,153.576251 L202.091825,153.84424 L200.708759,150.796037 L192.605302,158.38596 L184.502284,150.796037 L183.119218,153.84424 L167.438158,156.572088 C165.007781,157.409057 170.19197,187.48844 170.19197,187.48844 C171.098026,191.101222 170.738948,226.70935 170.738948,230.835227 L215.297183,231.660314 C215.297183,225.471939 214.113017,191.101222 215.019073,187.48844 C215.019073,187.48844 220.693914,154.41322 218.263097,153.576251" id="Fill-112" fill="#FFA91B" mask="url(#mask-72)"></path>
                            <path d="M198.537481,154.97978 C197.564538,154.916853 192.705544,158.335575 192.603013,158.407743 C192.500482,158.335575 187.641488,154.916853 186.668545,154.97978 C185.685041,155.043587 183.656427,158.346136 183.656427,158.346136 C183.656427,158.346136 185.807814,155.932481 186.606939,155.996288 C187.27581,156.049533 192.603453,158.437226 192.603453,158.437226 C192.603453,158.437226 197.809644,156.058774 198.599088,155.996288 C199.398212,155.932481 201.5496,158.346136 201.5496,158.346136 C201.5496,158.346136 199.520985,155.043587 198.537481,154.97978" id="Fill-113" fill="#C46B1A" mask="url(#mask-72)"></path>
                            <path d="M201.993607,154.225584 L201.671053,158.15564 C202.316161,156.369051 201.993607,154.225584 201.993607,154.225584" id="Fill-114" fill="#FEFEFA" mask="url(#mask-72)"></path>
                            <path d="M183.217524,154.225584 L183.540078,158.15564 C182.89497,156.369051 183.217524,154.225584 183.217524,154.225584" id="Fill-115" fill="#FEFEFA" mask="url(#mask-72)"></path>
                            <polygon id="Fill-116" fill="#FEFEFA" mask="url(#mask-72)" points="175.138533 176.898719 186.579744 176.898719 186.579744 175.138533 175.138533 175.138533"></polygon>
                            <path d="M116.580525,131.775464 C116.168641,134.155236 115.136732,134.299572 113.355423,134.299572 C111.574555,134.299572 110.542206,134.083069 110.130322,131.775464 C109.883016,130.387998 110.816355,129.251797 113.355423,129.251797 C115.894052,129.251797 116.82035,130.387558 116.580525,131.775464" id="Fill-117" fill="#FFB995" mask="url(#mask-72)"></path>
                            <path d="M136.087173,151.686736 C135.330733,161.949502 133.434572,162.571287 130.162386,162.571287 C126.8902,162.571287 124.994039,161.638389 124.237599,151.686736 C123.783031,145.701222 125.498332,140.801744 130.162386,140.801744 C134.826439,140.801744 136.528539,145.699902 136.087173,151.686736" id="Fill-118" fill="#FFB995" mask="url(#mask-72)"></path>
                            <path d="M136.096634,148.654947 C135.446685,158.917713 133.816753,159.539939 131.004855,159.539939 C128.192517,159.539939 126.562585,158.60704 125.912636,148.654947 C125.521875,142.669433 126.996031,137.770395 131.004855,137.770395 C135.013239,137.770395 136.475954,142.668553 136.096634,148.654947" id="Fill-119" fill="#000000" mask="url(#mask-72)"></path>
                            <path d="M140.824802,141.240778 C140.412919,143.62055 139.381009,143.764445 137.599701,143.764445 C135.818832,143.764445 134.786483,143.548382 134.37504,141.240778 C134.127293,139.852871 135.061072,138.716671 137.599701,138.716671 C140.138769,138.716671 141.065068,139.852431 140.824802,141.240778" id="Fill-120" fill="#FFC5B3" mask="url(#mask-72)"></path>
                            <path d="M150.935532,132.086577 C150.523648,134.466349 149.491739,134.610685 147.710431,134.610685 C145.929562,134.610685 144.897213,134.394182 144.485329,132.086577 C144.238023,130.699111 145.171802,129.56291 147.710431,129.56291 C150.249059,129.56291 151.175797,130.698671 150.935532,132.086577" id="Fill-121" fill="#FFB995" mask="url(#mask-72)"></path>
                            <path d="M146.565166,132.281694 C144.747333,151.499408 140.188891,152.664211 132.323498,152.664211 C124.457666,152.664211 115.849475,150.917226 114.031203,132.281694 C112.937687,121.073268 121.111552,111.899177 132.323498,111.899177 C143.535005,111.899177 147.625678,121.070628 146.565166,132.281694" id="Fill-122" fill="#FFC5B3" mask="url(#mask-72)"></path>
                            <path d="M124.533178,127.173458 C125.01899,127.173458 125.413271,127.66587 125.413271,128.273574 C125.413271,128.881278 125.01899,129.37369 124.533178,129.37369 C124.047367,129.37369 123.653085,128.881278 123.653085,128.273574 C123.653085,127.66587 124.047367,127.173458 124.533178,127.173458" id="Fill-123" fill="#351B0E" mask="url(#mask-72)"></path>
                            <path d="M139.054715,127.173458 C139.540526,127.173458 139.934808,127.66587 139.934808,128.273574 C139.934808,128.881278 139.540526,129.37369 139.054715,129.37369 C138.568903,129.37369 138.174622,128.881278 138.174622,128.273574 C138.174622,127.66587 138.568903,127.173458 139.054715,127.173458" id="Fill-124" fill="#351B0E" mask="url(#mask-72)"></path>
                            <path d="M125.694549,140.814901 C126.595764,143.145828 128.594896,144.77004 130.921422,144.77004 C133.248388,144.77004 135.24708,143.145828 136.148295,140.814901 L125.694549,140.814901 Z" id="Fill-125" fill="#FFFFFF" mask="url(#mask-72)"></path>
                            <path d="M136.123081,131.781933 C136.131881,131.950911 136.12132,132.125169 136.090077,132.304268 C135.678634,134.68448 134.646284,134.828816 132.865416,134.828816 C131.749898,134.828816 130.927891,134.743007 130.368592,134.11286 C130.843402,135.904729 131.843628,136.090429 133.47136,136.090429 C135.252228,136.090429 136.284578,135.946534 136.696461,133.566762 C136.816594,132.871488 136.644096,132.239582 136.123081,131.781933" id="Fill-126" fill="#501807" mask="url(#mask-72)"></path>
                            <path d="M99.7242768,224.944148 C99.7242768,224.915105 99.7242768,224.882981 99.7106354,224.863619 L99.7612407,224.863619 C99.7493595,225.007514 99.7339579,225.173412 99.7106354,225.372753 C99.7106354,225.224017 99.7242768,225.090243 99.7242768,224.944148" id="Fill-127" fill="#4F6B82" mask="url(#mask-72)"></path>
                            <path d="M154.931859,230.065278 L125.377011,227.72335 C124.882399,227.684186 124.492078,228.203881 124.592408,228.76846 L129.479566,256.292493 C129.551733,256.696896 129.858446,256.987326 130.213563,256.987326 L134.665954,256.987326 C135.063756,256.987326 135.392471,257.348165 135.414034,257.810214 L138.261135,317.411 L139.989638,377.173725 C140.01032,377.636654 140.339475,378.000132 140.738157,378.000132 L153.706769,378.000132 C154.120853,378.000132 154.456169,377.610251 154.456169,377.12884 L155.336262,296.673806 L155.630225,230.93877 C155.632413,230.478921 155.326581,230.096521 154.931859,230.065278" id="Fill-128" fill="#838383" mask="url(#mask-72)"></path>
                            <path d="M108.391126,229.264261 L149.203685,229.068432 C149.758583,229.0658 150.136143,229.702107 149.920521,230.278128 L143.311901,247.942477 C143.265696,248.06525 143.195729,248.174382 143.1064,248.261951 L134.068283,257.113048 C133.911627,257.266624 133.816576,257.484007 133.803815,257.716792 L130.508306,317.814391 L126.630616,377.61848 C126.607294,378.079648 126.268018,378.440047 125.857454,378.440047 L110.785859,378.440047 C110.358574,378.440047 110.011817,378.049725 110.011817,377.568754 L110.891911,297.087758 C110.891911,297.071916 110.891471,297.056075 110.89059,297.040233 L107.621044,230.183958 C107.596842,229.685825 107.947999,229.266461 108.391126,229.264261" id="Fill-129" fill="#838383" mask="url(#mask-72)"></path>
                            <path d="M146.420962,165.436431 L152.856203,227.002905 C153.178317,230.089392 150.878194,232.785997 147.924601,232.784678 L113.018348,232.767956 C110.352105,232.766635 108.163754,230.549681 108.065183,227.748784 L105.688932,160.311648 C105.582881,157.30437 107.914688,154.827788 110.77675,154.907876 L141.048874,155.758486 C143.704555,155.740885 145.54747,157.78094 145.840541,160.348172 L146.420962,165.436431 Z" id="Fill-130" fill="#DEDEDE" mask="url(#mask-72)"></path>
                            <path d="M151.287921,235.945312 C151.287921,235.916269 151.287921,235.884145 151.27428,235.864783 L151.324885,235.864783 C151.313004,236.008238 151.298042,236.174576 151.27428,236.373917 C151.27428,236.224741 151.287921,236.090967 151.287921,235.945312" id="Fill-131" fill="#4F6B82" mask="url(#mask-72)"></path>
                            <polygon id="Fill-132" fill="#008B92" mask="url(#mask-72)" points="143.844094 213.867339 136.385304 161.129079 132.807286 161.467915 135.378038 214.668664 139.796105 217.449319"></polygon>
                            <path d="M134.212926,157.270662 C134.212926,157.270662 132.296084,156.39453 130.585623,155.674173 C130.811366,156.482979 132.093222,160.952532 133.058684,161.636364 C133.761439,162.134057 135.558149,161.963319 136.155292,161.343293 C136.980819,160.486083 137.408985,155.823349 137.478512,154.996502 C135.929548,156.030611 134.212926,157.270662 134.212926,157.270662" id="Fill-133" fill="#62AEB5" mask="url(#mask-72)"></path>
                            <path d="M132.20649,161.12107 C131.760283,162.980707 131.255109,164.750574 131.082171,165.066967 C131.005163,165.010641 123.030639,158.555598 119.8293,156.308281 L132.20649,161.12107 Z" id="Fill-134" fill="#ADDAE9" mask="url(#mask-72)"></path>
                            <path d="M140.869687,160.697789 C140.557694,162.712322 140.203896,164.630485 140.082884,164.972841 C140.028758,164.911675 134.447207,157.918455 132.20649,155.483677 L140.869687,160.697789 Z" id="Fill-135" fill="#ADDAE9" mask="url(#mask-72)"></path>
                            <path d="M138.0111,152.002997 C138.312532,152.267905 141.238402,154.694762 142.176141,155.33591 C142.181422,155.33943 142.184502,155.343831 142.187142,155.349551 C142.886376,157.051651 139.89318,162.89591 139.680197,163.686233 C139.673156,163.711756 138.865231,162.869507 138.845429,162.851465 C138.183159,162.245081 134.214379,157.087735 133.6608,156.596643 C133.640118,156.578601 133.614155,156.589602 133.607994,156.616005 C133.141545,158.622617 131.383119,163.258508 131.050444,164.008787 C131.041643,164.02859 131.01832,164.03035 131.000719,164.017588 C130.35385,163.540578 121.005941,156.918317 120.490646,155.353071 C120.487566,155.344711 120.489326,155.33723 120.494167,155.329309 C120.989219,154.545586 119.154225,152.299148 121.321014,152.002997 C120.594497,151.705525 131.790162,155.331069 133.004251,155.34119 C134.439242,155.305546 136.910984,153.313896 137.176772,152.837325 C137.187773,152.817523 137.993498,151.987595 138.0111,152.002997" id="Fill-136" fill="#E0ECF3" mask="url(#mask-72)"></path>
                            <path d="M115.454621,130.044937 C115.927671,126.318183 116.819206,122.690879 118.112063,119.324963 C117.61833,118.502956 116.758919,118.326497 115.983997,118.607247 C113.871774,123.294623 113.618307,129.093997 113.756482,133.124383 C113.982226,135.473792 114.391909,137.767315 115.054179,139.821452 C115.357811,136.59283 115.040978,133.305242 115.454621,130.044937" id="Fill-137" fill="#9A9A9A" mask="url(#mask-72)"></path>
                            <path d="M114.184779,119.877441 C114.340556,117.009658 114.925817,114.156836 115.935724,111.441309 C115.369384,110.895651 114.491932,110.88729 113.737252,111.210724 C112.01755,115.036489 112.259575,119.429034 112.742746,122.436312 C113.170912,124.167895 113.778616,125.831271 114.619545,127.278145 C114.648148,124.809043 114.048365,122.386147 114.184779,119.877441" id="Fill-138" fill="#9A9A9A" mask="url(#mask-72)"></path>
                            <path d="M115.846967,119.972403 C116.245649,117.128383 117.070296,114.334967 118.307707,111.71493 C117.789773,111.123507 116.91584,111.040778 116.136518,111.298646 C114.098222,114.965114 113.966648,119.362059 114.193272,122.3997 C114.472702,124.161647 114.936951,125.869908 115.652466,127.383228 C115.890092,124.925568 115.49845,122.460427 115.846967,119.972403" id="Fill-139" fill="#9A9A9A" mask="url(#mask-72)"></path>
                            <path d="M117.333004,120.360041 C118.067442,117.468054 119.174599,114.68784 120.625433,112.146131 C120.243032,111.459659 119.476031,111.251517 118.747314,111.409053 C116.44367,114.923705 115.739596,119.463226 115.536294,122.643442 C115.550376,124.50924 115.736075,126.345994 116.171281,128.015091 C116.710778,125.500664 116.690536,122.890308 117.333004,120.360041" id="Fill-140" fill="#9A9A9A" mask="url(#mask-72)"></path>
                            <path d="M146.111125,117.614898 C146.095284,117.582775 146.081642,117.549331 146.065801,117.516328 C145.508702,117.309066 144.906718,117.425238 144.581964,118.004779 C145.433014,120.019312 146.088243,122.161459 146.542811,124.362572 L146.111125,117.614898 Z" id="Fill-141" fill="#9A9A9A" mask="url(#mask-72)"></path>
                            <path d="M147.404642,124.044154 C146.893308,121.319826 146.122347,118.701109 145.112,116.306816 C145.378228,115.659947 145.912444,115.463686 146.419818,115.612422 C148.024228,118.922892 148.514,123.199265 148.655695,126.195542 C148.646014,127.952648 148.51664,129.682911 148.213448,131.255197 C147.838088,128.886867 147.85217,126.427447 147.404642,124.044154" id="Fill-142" fill="#9A9A9A" mask="url(#mask-72)"></path>
                            <path d="M146.720722,127.270576 C146.781888,124.499603 146.567146,121.778355 146.072093,119.226965 C146.465935,118.649183 147.029195,118.567335 147.494764,118.816841 C148.382338,122.387379 147.980575,126.672993 147.501365,129.633626 C147.129965,131.351128 146.646794,133.018024 146.025888,134.4935 C146.146461,132.098767 146.667036,129.695232 146.720722,127.270576" id="Fill-143" fill="#9A9A9A" mask="url(#mask-72)"></path>
                            <path d="M122.207664,123.815506 C122.255629,123.773262 122.304914,123.732337 122.353319,123.690533 C122.516137,123.549718 122.329557,123.730577 122.311515,123.718696 C122.325597,123.727937 122.594465,123.520675 122.625708,123.500433 C122.853212,123.353017 123.091278,123.222323 123.336824,123.107911 C123.369827,123.09251 123.570048,123.010221 123.39843,123.077988 C123.225492,123.146195 123.430113,123.068307 123.463117,123.055546 C123.58281,123.011101 123.703382,122.970177 123.825715,122.932773 C124.086663,122.853124 124.350691,122.796358 124.618239,122.746193 C124.797778,122.712749 124.62616,122.765115 124.552232,122.752354 C124.606798,122.761595 124.686886,122.736952 124.742772,122.732112 C124.869946,122.72067 124.997559,122.712749 125.125173,122.708789 C125.38172,122.701748 125.635187,122.71539 125.890854,122.733872 C126.067312,122.746633 125.901855,122.747073 125.824847,122.72067 C125.881613,122.740472 125.95378,122.740472 126.013627,122.751034 C126.154882,122.775676 126.295257,122.806039 126.434311,122.841243 C126.557964,122.872486 126.680737,122.90769 126.80175,122.947294 C126.888439,122.975897 127.298563,123.136514 126.979089,123.00098 C127.612756,123.269848 128.423322,123.212202 128.78548,122.52749 C129.083832,121.96203 128.990542,121.009329 128.31199,120.721099 C126.920563,120.130996 125.506253,119.952777 124.010975,120.185122 C122.64287,120.397664 121.377296,121.041013 120.340546,121.948389 C119.819531,122.404717 119.839333,123.354777 120.340546,123.815506 C120.896765,124.32552 121.651445,124.301758 122.207664,123.815506" id="Fill-144" fill="#474746" mask="url(#mask-72)"></path>
                            <path d="M137.148653,123.395658 C137.264385,123.328771 137.380558,123.264084 137.50025,123.204237 C137.560097,123.174754 137.619943,123.146151 137.680669,123.118428 C137.815764,123.058582 137.802562,123.064303 137.641505,123.13471 C137.832925,122.999616 138.177042,122.94901 138.402786,122.894005 C138.5326,122.862761 138.663293,122.840759 138.793987,122.812596 C138.943603,122.788834 138.925121,122.789714 138.739421,122.815236 C138.805868,122.806875 138.872315,122.799835 138.938322,122.793234 C139.204111,122.768591 139.471659,122.761111 139.738327,122.769912 C139.872101,122.774752 140.004555,122.787953 140.137889,122.796754 C140.288385,122.813916 140.270783,122.809956 140.085084,122.785753 C140.151091,122.795874 140.216658,122.806435 140.282665,122.818317 C140.544932,122.865402 140.80412,122.929208 141.058467,123.010177 C141.170679,123.045821 141.337896,123.075744 141.434707,123.143951 C141.27365,123.073544 141.260448,123.067823 141.395102,123.127669 C141.455829,123.154952 141.516115,123.183555 141.575522,123.213038 C141.814907,123.331411 142.043731,123.468705 142.264634,123.618321 C142.838455,124.005562 143.752872,123.746815 144.071026,123.144391 C144.423503,122.477281 144.20964,121.752084 143.597095,121.338 C141.316774,119.797397 138.184083,119.743711 135.816192,121.115776 C135.218609,121.462093 134.957221,122.324144 135.342702,122.922168 C135.731263,123.525031 136.509265,123.766177 137.148653,123.395658" id="Fill-145" fill="#474746" mask="url(#mask-72)"></path>
                            <polygon id="Fill-146" fill="#663D1F" mask="url(#mask-72)" points="152.093251 235.424913 151.24132 228.824214 119.814515 228.824214 118.962585 235.424913"></polygon>
                            <path d="M138.933526,234.984866 C138.516362,234.984866 138.174446,234.601586 138.174446,234.132496 L138.174446,229.676584 C138.174446,229.207495 138.516362,228.824214 138.933526,228.824214 L147.811025,228.824214 C147.496392,228.047972 146.799798,227.504075 145.994073,227.504075 L138.410751,227.504075 C137.312834,227.504075 136.414259,228.512661 136.414259,229.745232 L136.414259,234.063849 C136.414259,235.296419 137.312834,236.305006 138.410751,236.305006 L145.994073,236.305006 C146.799798,236.305006 147.496392,235.761108 147.811025,234.984866 L138.933526,234.984866 Z" id="Fill-147" fill="#A0A0A0" mask="url(#mask-72)"></path>
                            <polygon id="Fill-148" fill="#292627" mask="url(#mask-72)" points="127.613504 237.185099 129.813737 237.185099 129.813737 228.824214 127.613504 228.824214"></polygon>
                            <polygon id="Fill-149" fill="#292627" mask="url(#mask-72)" points="150.055879 237.185099 152.256112 237.185099 152.256112 228.824214 150.055879 228.824214"></polygon>
                            <polygon id="Fill-150" fill="#292627" mask="url(#mask-72)" points="117.93248 237.185099 120.132712 237.185099 120.132712 228.824214 117.93248 228.824214"></polygon>
                            <path d="M159.687046,238.935824 C159.687046,238.935824 145.986196,240.88039 145.92283,240.572797 C151.586669,193.977147 141.266257,153.128504 139.987041,153.203209 C139.987041,153.203209 145.506105,155.561081 151.070494,156.175827 C156.98296,156.828416 154.192185,177.961652 157.746441,187.519903 C172.648178,227.594944 156.713651,240.771258 159.687046,238.935824" id="Fill-151" fill="#00184B" mask="url(#mask-72)"></path>
                            <path d="M136.803569,240.621247 C136.803569,240.621247 103.005792,242.769554 105.685236,240.46019 C107.272044,239.092525 90.8319038,194.382474 97.5844184,182.045328 C104.930116,168.624788 103.415035,152.448236 102.962227,155.341102 L117.44504,152.837677 L123.126041,162.821454 L130.245555,189.597407 C130.245555,189.597407 131.709149,202.507493 132.494633,210.720963 C133.900141,225.448001 136.803569,240.621247 136.803569,240.621247" id="Fill-152" fill="#00184B" mask="url(#mask-72)"></path>
                            <path d="M119.719509,151.756351 C119.719509,151.756351 115.093739,153.654712 113.842247,154.562088 C112.590754,155.469464 115.682962,168.988574 117.281211,169.803981 C118.8799,170.619827 125.957609,170.785725 125.957609,170.785725 C125.957609,170.785725 120.009059,175.18663 118.181546,176.79324 C119.460321,183.981841 128.501518,206.139506 132.509022,214.061224 C133.015956,170.008602 119.719509,151.756351 119.719509,151.756351" id="Fill-153" fill="#002E74" mask="url(#mask-72)"></path>
                            <path d="M141.217368,152.939372 C141.217368,152.939372 145.740606,153.938718 147.166357,154.743563 C148.591668,155.548848 148.89266,168.766967 148.89266,168.766967 L144.886036,169.346068 L148.295517,171.9177 L147.690013,211.719912 L141.217368,152.939372 Z" id="Fill-154" fill="#002E74" mask="url(#mask-72)"></path>
                            <path d="M139.918042,132.292431 C135.83397,132.292431 134.553434,130.282298 133.885884,127.263139 C133.732308,126.567425 133.856841,125.981723 134.256403,125.521435 C134.821423,124.870606 136.262575,124.094364 139.918042,124.094364 C145.216643,124.094364 145.216643,126.560385 145.216643,127.37095 C145.216643,129.927181 144.574615,132.292431 139.918042,132.292431 L139.918042,132.292431 Z M128.865393,127.263139 C128.198282,130.282298 126.917306,132.292431 122.833234,132.292431 C118.176661,132.292431 117.534634,129.927181 117.534634,127.37095 C117.534634,126.560385 117.534634,124.094364 122.833234,124.094364 C126.489141,124.094364 127.929854,124.870606 128.494873,125.521435 C128.894436,125.981723 129.018969,126.567425 128.865393,127.263139 L128.865393,127.263139 Z M147.415556,123.652997 L144.353712,123.652997 C143.386049,123.177747 142.031586,122.874995 140.135865,122.874995 C136.983372,122.874995 134.843425,123.440895 133.745509,124.545851 C133.225814,124.278303 132.450892,123.974671 131.573879,123.974671 C130.704787,123.974671 129.936026,124.272583 129.416771,124.538811 C128.316214,123.438254 126.179788,122.874995 123.034336,122.874995 C121.138175,122.874995 119.784152,123.177747 118.816049,123.652997 L115.732203,123.652997 L115.732203,125.719456 L116.74431,126.052131 C116.640899,126.439812 116.598654,126.832773 116.598654,127.211214 C116.598654,129.779325 117.265765,133.193207 123.034336,133.193207 C128.185961,133.193207 129.537784,130.223772 130.180252,127.319025 C130.277502,126.878538 130.288063,126.459174 130.222936,126.065332 C130.474203,125.914836 130.888287,125.782822 131.573879,125.782822 C132.277074,125.782822 132.695998,125.920997 132.945064,126.076773 C132.882578,126.467535 132.893579,126.882939 132.989949,127.319025 C133.632417,130.223772 134.9838,133.193207 140.135865,133.193207 C145.903996,133.193207 146.571106,129.779325 146.571106,127.211214 C146.571106,126.830573 146.527982,126.434971 146.423251,126.04597 L147.415556,125.719456 L147.415556,123.652997 Z" id="Fill-155" fill="#2F2C37" mask="url(#mask-72)"></path>
                            <path d="M258.596093,148.483901 C258.596093,156.41618 251.176027,162.84702 242.522512,162.84702 C233.868996,162.84702 227.259057,156.41618 227.259057,148.483901 C227.259057,140.552061 234.274279,134.121221 242.927795,134.121221 C251.58087,134.121221 258.596093,140.552061 258.596093,148.483901" id="Fill-156" fill="#000000" mask="url(#mask-72)"></path>
                            <path d="M276.876111,148.483901 C276.876111,156.41618 269.456046,162.84702 260.80253,162.84702 C252.149014,162.84702 245.539075,156.41618 245.539075,148.483901 C245.539075,140.552061 252.554297,134.121221 261.207373,134.121221 C269.860889,134.121221 276.876111,140.552061 276.876111,148.483901" id="Fill-157" fill="#000000" mask="url(#mask-72)"></path>
                            <path d="M271.508731,125.193248 C271.508731,134.549958 263.332666,142.135041 253.246799,142.135041 C243.160931,142.135041 234.984866,134.549958 234.984866,125.193248 C234.984866,115.836538 243.160931,108.251455 253.246799,108.251455 C263.332666,108.251455 271.508731,115.836538 271.508731,125.193248" id="Fill-158" fill="#000000" mask="url(#mask-72)"></path>
                            <path d="M257.991249,158.960793 C257.486955,166.887792 256.223582,167.367883 254.042711,167.367883 C251.86228,167.367883 250.598906,166.647527 250.094613,158.960793 C249.791421,154.337664 251.339945,150.553704 254.447994,150.553704 C257.556483,150.553704 258.2852,154.336344 257.991249,158.960793" id="Fill-159" fill="#FFB995" mask="url(#mask-72)"></path>
                            <path d="M259.170221,150.072645 C258.59288,158.829571 256.739844,159.360268 254.24126,159.360268 C251.742675,159.360268 250.699765,158.564223 250.122424,150.072645 C249.774787,144.965464 251.084806,140.785022 254.646103,140.785022 C258.2074,140.785022 259.507297,144.964144 259.170221,150.072645" id="Fill-160" fill="#000000" mask="url(#mask-72)"></path>
                            <path d="M243.449338,137.823508 C243.083659,139.853883 242.166602,139.977096 240.584195,139.977096 C239.001787,139.977096 238.08473,139.792717 237.719051,137.823508 C237.499028,136.639343 238.328516,135.669481 240.584195,135.669481 C242.839873,135.669481 243.66276,136.638903 243.449338,137.823508" id="Fill-161" fill="#FFB995" mask="url(#mask-72)"></path>
                            <path d="M267.678302,137.823508 C267.312183,139.853883 266.395126,139.977096 264.813159,139.977096 C263.230751,139.977096 262.313694,139.792717 261.948015,137.823508 C261.727992,136.639343 262.55748,135.669481 264.813159,135.669481 C267.068397,135.669481 267.891724,136.638903 267.678302,137.823508" id="Fill-162" fill="#FFB995" mask="url(#mask-72)"></path>
                            <path d="M265.951867,137.150589 C264.336456,154.537709 259.820698,156.513078 252.893925,155.591181 C247.915678,154.928911 244.194205,153.373786 240.646109,137.150589 C238.469639,127.198936 243.338314,118.709558 253.299208,118.709558 C263.259662,118.709558 266.894007,127.007516 265.951867,137.150589" id="Fill-163" fill="#FFC5B3" mask="url(#mask-72)"></path>
                            <path d="M256.310579,142.130728 C256.315419,142.194095 256.309699,142.259662 256.292097,142.326549 C256.057112,143.218963 255.46921,143.273089 254.454462,143.273089 C253.818595,143.273089 253.350386,143.240966 253.031792,143.004661 C253.30242,143.676612 253.872281,143.746139 254.799459,143.746139 C255.814646,143.746139 256.402549,143.692014 256.637093,142.800039 C256.705741,142.539532 256.60717,142.302346 256.310579,142.130728" id="Fill-164" fill="#501807" mask="url(#mask-72)"></path>
                            <path d="M249.066356,136.854482 C249.552168,136.854482 249.946449,137.248764 249.946449,137.734575 C249.946449,138.220386 249.552168,138.614668 249.066356,138.614668 C248.580545,138.614668 248.186263,138.220386 248.186263,137.734575 C248.186263,137.248764 248.580545,136.854482 249.066356,136.854482" id="Fill-165" fill="#351B0E" mask="url(#mask-72)"></path>
                            <path d="M260.021976,136.746627 C260.466863,136.746627 260.560593,137.055539 260.560593,137.561153 C260.560593,138.066326 260.199754,138.47645 259.754867,138.47645 C259.30998,138.47645 258.949142,138.066326 258.949142,137.561153 C258.949142,137.055539 259.577088,136.746627 260.021976,136.746627" id="Fill-166" fill="#351B0E" mask="url(#mask-72)"></path>
                            <path d="M251.129955,146.975553 C251.731938,148.469951 253.066159,149.511981 254.619964,149.511981 C256.172888,149.511981 257.507549,148.469951 258.109533,146.975553 L251.129955,146.975553 Z" id="Fill-167" fill="#FFFFFF" mask="url(#mask-72)"></path>
                            <path d="M241.262834,135.252448 L263.303007,117.852127 C260.68869,114.234504 256.24466,111.852972 251.200406,111.852972 C243.155035,111.852972 236.632664,117.909773 236.632664,125.380444 C236.632664,129.280136 238.420134,132.783787 241.262834,135.252448" id="Fill-168" fill="#000000" mask="url(#mask-72)"></path>
                            <path d="M273.736247,161.453701 L263.831679,160.964369 L262.448612,157.803955 L254.345155,165.671987 L246.242137,157.803955 L244.858631,160.964369 L234.954063,161.795617 C232.523246,162.663829 238.945285,222.984972 238.945285,222.984972 C239.851341,226.730649 236.604678,236.499242 236.604678,240.776055 L274.561334,241.631505 C274.561334,235.216067 269.664056,226.331526 270.570112,222.58629 C270.570112,222.58629 276.167064,162.321473 273.736247,161.453701" id="Fill-169" fill="#FCFCFC" mask="url(#mask-72)"></path>
                            <path d="M273.736247,161.453701 L263.831679,160.964369 L262.448612,157.803955 L254.345155,165.671987 L246.242137,157.803955 L244.858631,160.964369 L234.954063,161.795617 C232.523246,162.663829 238.945285,222.984972 238.945285,222.984972 C239.851341,226.730649 236.604678,236.499242 236.604678,240.776055 L274.561334,241.631505 C274.561334,235.216067 269.664056,226.331526 270.570112,222.58629 C270.570112,222.58629 276.167064,162.321473 273.736247,161.453701 Z" id="Stroke-170" stroke="#0F0087" stroke-width="0.75" mask="url(#mask-72)"></path>
                            <path d="M263.733372,161.359135 L263.410818,165.433526 C264.055926,163.58137 263.733372,161.359135 263.733372,161.359135" id="Fill-171" fill="#E0ECF3" mask="url(#mask-72)"></path>
                            <path d="M263.733372,161.359135 L263.410818,165.433526 C264.055926,163.58137 263.733372,161.359135 263.733372,161.359135 Z" id="Stroke-172" stroke="#0F0087" stroke-width="0.75" mask="url(#mask-72)"></path>
                            <path d="M244.957245,161.359135 L245.2798,165.433526 C244.634691,163.58137 244.957245,161.359135 244.957245,161.359135" id="Fill-173" fill="#E0ECF3" mask="url(#mask-72)"></path>
                            <path d="M244.957245,161.359135 L245.2798,165.433526 C244.634691,163.58137 244.957245,161.359135 244.957245,161.359135 Z" id="Stroke-174" stroke="#0F0087" stroke-width="0.75" mask="url(#mask-72)"></path>
                            <path d="M245.515048,134.441091 C246.839589,133.282008 248.811877,132.958574 250.434769,133.646807 C250.627949,133.729095 250.796047,133.444385 250.601107,133.362096 C248.833,132.611817 246.729137,132.941412 245.281824,134.207866 C245.121647,134.347801 245.355752,134.580585 245.515048,134.441091" id="Fill-175" fill="#000000" mask="url(#mask-72)"></path>
                            <path d="M257.70205,133.96408 C259.248374,133.068145 261.237824,133.143393 262.716821,134.142739 C262.893279,134.261992 263.058737,133.975961 262.883598,133.857589 C261.309552,132.794436 259.177526,132.727109 257.535272,133.67937 C257.351773,133.785421 257.517671,134.070571 257.70205,133.96408" id="Fill-176" fill="#000000" mask="url(#mask-72)"></path>
                            <path d="M233.718456,221.319792 L238.945329,221.079527 L238.941369,222.90308 L240.583623,226.608712 C240.583623,226.608712 240.824768,235.077408 239.304407,234.898309 C236.746417,234.598637 239.105506,229.157902 238.308582,229.319839 C237.425848,229.499378 236.746417,234.598637 236.746417,234.598637 C236.746417,234.598637 240.623667,239.921881 237.644552,241.561934 C237.644552,241.561934 232.410198,235.915697 232.103925,232.902258 L233.927038,223.480861 L233.718456,221.319792 Z" id="Fill-177" fill="#FFB995" mask="url(#mask-72)"></path>
                            <path d="M237.99298,215.723368 C239.793651,217.82415 243.194331,220.675652 239.207949,220.178839 C239.061414,220.160357 231.525176,223.58612 231.512415,223.418902 C231.107572,218.153305 215.254454,210.323116 217.741597,191.421356 C219.897386,175.033142 233.052578,159.002686 238.543919,161.276846 C238.627968,161.31205 238.74502,161.351214 238.772303,161.446264 C242.853295,175.625445 228.272352,171.947095 228.272352,191.421356 C228.272352,209.647645 235.563043,212.888148 237.99298,215.723368" id="Fill-178" fill="#002368" mask="url(#mask-72)"></path>
                            <path d="M282.523845,235.981 L276.789158,235.718732 L276.800599,237.558566 L275.01269,241.291481 C275.01269,241.291481 274.779905,249.835426 276.446802,249.661167 C279.251658,249.368096 276.643942,243.869714 277.518755,244.036052 C278.487738,244.220431 279.251658,249.368096 279.251658,249.368096 C279.251658,249.368096 275.018851,254.725223 278.292797,256.391239 C278.292797,256.391239 284.013402,250.713319 284.338157,247.673917 L282.302941,238.16055 L282.523845,235.981 Z" id="Fill-179" fill="#FFB995" mask="url(#mask-72)"></path>
                            <path d="M276.118043,237.223339 C275.409568,239.898382 281.832488,239.952068 285.818429,239.455255 C285.964965,239.437213 286.100499,239.359325 286.192029,239.21895 C289.143421,234.693951 288.992925,209.028235 286.505782,190.126915 C284.349994,173.738261 277.279326,159.002422 271.787985,161.277022 C271.703936,161.311786 271.623847,161.371632 271.5596,161.44644 C267.402481,166.269791 274.378099,178.254899 276.962052,197.557102 C280.032257,220.491448 276.840159,234.497691 276.118043,237.223339" id="Fill-180" fill="#00184B" mask="url(#mask-72)"></path>
                        </g>
                    </g>
                    <g id="Rectangle">
                        <use fill="black" fill-opacity="1" filter="url(#filter-74)" xlink:href="#path-73"></use>
                        <use fill="#FFFFFF" fill-rule="evenodd" xlink:href="#path-73"></use>
                    </g>
                    <text id="Te-ayudamos-a-entend" font-family="Helvetica" font-size="22" font-weight="normal" line-spacing="28.7999992" fill="#1A1446">
                        <tspan x="63" y="58">Te ayudamos a entender </tspan>
                        <tspan x="63" y="86.7999992">los trminos de seguros</tspan>
                    </text>
                </g>
                <path d="M249.479125,122.670254 C251.390218,133.964372 250.563843,144.631038 247,154.670254 C266.551576,146.670254 277.109666,136.010762 277.684723,122.670254 C278.068094,113.776582 268.666228,113.776582 249.479125,122.670254 Z" id="Path-2" fill="#FFFFFF"></path>
            </g>
        </g>
    </g>
</svg>