<?xml version="1.0" encoding="UTF-8"?>
<svg width="34px" height="34px" viewBox="0 0 34 34" version="1.1" xmlns="http://www.w3.org/2000/svg" xmlns:xlink="http://www.w3.org/1999/xlink">
    <!-- Generator: Sketch 63.1 (92452) - https://sketch.com -->
    <title>logo</title>
    <desc>Created with Sketch.</desc>
    <defs>
        <circle id="path-1" cx="17" cy="17" r="17"></circle>
    </defs>
    <g id="Chat" stroke="none" stroke-width="1" fill="none" fill-rule="evenodd">
        <g id="1.3.1-Chat-default" transform="translate(-15.000000, -176.000000)">
            <g id="logo" transform="translate(15.000000, 176.000000)">
                <mask id="mask-2" fill="white">
                    <use xlink:href="#path-1"></use>
                </mask>
                <use id="Mask" fill="#FFD000" xlink:href="#path-1"></use>
                <g mask="url(#mask-2)" id="Isotipo">
                    <g transform="translate(6.375000, 5.312500)">
                        <g>
                            <path d="M22.0561704,28.3093091 C19.605482,23.481376 18.2138108,20.3788507 18.1093648,20.4424832 C17.2134515,18.5799034 16.5071494,17.0628123 16.3760016,16.6038604 C16.8737313,16.2392486 17.9181734,14.9133875 18.1741487,14.0158816 C18.5296698,12.7665124 18.4206433,12.1711498 18.046161,11.2226492 C17.775965,10.5303967 17.2324126,9.88148971 17.2687548,9.44293566 C17.2971965,9.11402012 17.5105092,8.88071957 17.69222,8.73156019 C17.5942541,8.27388314 17.2245121,8.06862965 16.7836659,8.02528419 C16.3760016,7.98066386 16.0584027,8.07627885 15.6997214,8.09030238 C15.6064958,7.9564414 15.424785,7.98066386 15.5622532,7.50513869 C15.7692455,6.78611402 17.4789073,6.44699955 18.8757104,6.01099523 C20.6454158,5.45642833 21.6345546,4.42761112 21.6977584,2.77538422 C21.7388408,1.57573491 20.9092915,0.684603274 19.8711697,0.285570081 C19.6610172,0.768744458 18.7982858,1.42147607 18.1994302,1.68664829 C17.608475,1.95182051 16.7884062,2.04871036 16.1958709,1.94034671 C16.3254386,1.05813914 15.8182284,0.302143344 15.0202809,0 C14.7658858,0.374810731 13.8036085,0.896231102 12.3578225,0.857985109 C10.9120364,0.823563715 10.8188108,0.549467432 8.7868099,0.553292031 C5.89681787,0.557116631 3.50139529,1.96074457 3.2074978,4.02857793 C3.01472632,5.37101228 3.6578246,6.49544447 4.13975329,7.08188303 C3.77949185,7.29861032 2.93414153,7.9564414 2.7824525,8.1502211 C2.57546018,7.9564414 2.00030594,7.69254405 1.30980484,8.05715585 C1.45833368,8.35037513 1.48677538,8.70733773 1.37142851,9.04772707 C1.25134136,9.38811641 0.194258442,11.0390684 0.0757513882,12.3751285 C-0.129660839,14.6329169 1.48677538,16.1640315 2.84249607,16.6013107 C2.54543839,16.9659225 2.48381472,17.3534819 2.69396723,17.6696487 C2.83301551,17.8812766 3.11427225,18.0865301 3.68784639,18.0865301 C3.35918683,18.3759248 3.23119921,18.8170285 3.446092,19.2504831 C3.68784639,19.7349324 4.37992759,20.4412084 4.98194342,20.4412084 C4.95034154,20.8529902 5.19367602,21.8231636 5.31376317,22.2119978 C5.10519075,22.5307145 4.89029796,22.7678396 4.92189984,23.3517284 C4.95034154,23.9560151 5.43543041,24.4468387 6.03428606,24.5424537 C6.18597509,24.8382227 6.29974186,25.1569393 6.50989437,25.350719 C6.72004688,25.5483233 6.90491788,25.7841736 7.35998497,26.0251233 C7.81189187,26.267348 8.32384234,26.4649523 8.92743827,26.4649523 C9.5294541,26.4649523 10.0587856,26.486625 10.3289817,26.4152325 C10.3447826,26.5541929 10.4000859,27.8392583 10.46803,29.2671087 C10.46803,32.8352048 10.46803,22.7949266 10.46803,30.3740075 C10.46803,30.9355266 17.1721344,30.5789689 20.2064149,29.2671087 C21.0883327,28.8858147 22.0561704,28.8239712 22.0561704,28.3093091 Z" id="Fill-27" fill="#1A1446"></path>
                            <path d="M11.325277,23.5834439 C10.9622898,23.4167873 9.97275488,23.0274978 9.18838671,23.0516694 C8.37876726,23.0758409 7.69540425,23.2094207 7.056231,23.5389173 C6.78477965,23.3913435 6.70271296,23.0987403 6.87473736,22.7616105 C7.04833997,22.4219363 7.29611825,22.3697766 7.29611825,22.3697766 L7.06885665,19.1982122 C7.06885665,19.1982122 8.17675695,18.5595739 8.4734596,18.4908757 C8.77331865,18.4158166 8.91220074,18.2275328 8.91220074,17.9858171 C9.40144447,18.2529766 10.1258408,18.8509049 10.5140794,19.2961707 C10.8754885,19.7070874 11.0853898,20.1663472 11.1153757,20.6764945 C11.1437834,21.1853697 11.1516744,21.7922033 11.0238398,22.4219363 C11.2700398,22.5924095 11.5067707,22.7348946 11.5351784,23.0033262 C11.5651643,23.27303 11.4436425,23.3684441 11.325277,23.5834439" id="Fill-28" fill="#FFFFFF"></path>
                            <path d="M12.8526696,33.0080422 C12.6991163,32.7905613 12.005752,21.0135228 11.9788406,20.6001819 L12.7624372,20.1423272 L12.7624372,20.0215045 C12.1893828,19.9973399 11.5260959,19.8281881 11.3155538,19.5585626 L11.1050117,15.9504138 C10.3198321,15.9008129 9.51090711,15.7011374 9.20854963,15.4607637 C8.83337308,15.1567991 8.54209677,14.7841563 8.96476403,14.1317135 C9.35577081,14.3504662 10.5002968,14.6175481 11.4960185,14.6175481 C11.7065606,14.6175481 12.1482241,14.9978218 12.4015079,15.08049 C12.6912012,15.1682455 13.1740233,15.3844546 13.4019787,15.465851 C13.6061887,15.5370728 13.7344136,15.9237056 13.7929855,16.0699647 C13.8531404,16.2174956 21.1160519,31.3584937 21.2363617,31.5301892 C21.3598375,31.6980692 21.7825048,34.2442497 21.8094162,34.4362943 C21.8410766,34.6308825 22.9286137,36.6645201 23.1375728,36.8591083 C22.1719285,36.8374874 20.5920711,37.2800802 19.297158,38.3013504 C18.0275732,39.2946406 16.9083756,41.4796246 16.6519258,42.4869048 C16.5616935,41.9540129 13.0046398,33.2255231 12.8526696,33.0080422" id="Fill-32" fill="#FFFFFF"></path>
                            <path d="M13.3943388,15.4671228 C13.1667583,15.3831828 12.6847301,15.1669736 12.3955133,15.0779464 C12.1458069,14.99655 11.7017088,14.6175481 11.491513,14.6175481 C10.4990092,14.6175481 9.354785,14.351738 8.96442124,14.1317135 C8.54244907,14.7854281 8.83324637,15.1580709 9.20780594,15.4607637 C9.50966617,15.7011374 10.3172608,15.9020847 11.0995688,15.9504138 L11.3113451,19.5585626 C11.521541,19.8281881 12.1821566,19.9973399 12.755849,20.0189609 L12.755849,20.1423272 L11.9735411,20.6014537 C11.9988278,21.0147947 12.6926322,32.7905613 12.845933,33.009314 C12.9960729,33.2255231 16.5488573,41.9552847 16.6389412,42.4869048 C16.8933889,41.4808964 18.253743,39.9171702 20.0208464,39.2029889 C21.7879499,38.4888075 22.8693834,37.6129212 23.8334397,37.6345421 C23.6232438,37.4386821 21.8195583,34.6308825 21.7879499,34.4362943 C21.7610828,34.2442497 21.3391106,31.6980692 21.2174182,31.5301892 C21.0973063,31.3597656 13.8447585,16.2174956 13.7847025,16.0699647 C13.726227,15.9249774 13.5997934,15.5370728 13.3943388,15.4671228 Z" id="Fill-37" fill="#FFFFFF"></path>
                            <path d="M9.19039476,13.1789108 C11.2370612,13.1826954 12.2051217,13.8626733 12.685204,14.2234778 C12.7452143,13.670917 12.6362482,13.1826954 11.9919273,12.7651209 C11.4581517,12.419455 10.518517,12.1128973 9.07669107,12.1128973 C8.11178893,12.1128973 7.14530758,12.3399771 6.54204634,12.7487207 C5.99089929,13.1234024 5.89930465,13.5422384 6.01932521,14.1704925 C6.19935605,13.7150714 7.50221082,13.1738645 9.19039476,13.1789108" id="Fill-38" fill="#FFFFFF"></path>
                            <path d="M5.51560954,4.49955765 C5.46823503,5.13122244 5.67668288,5.78708407 6.03830832,6.1767805 C6.24517702,6.39455203 6.73313448,6.82245398 7.09160162,6.80462474 C7.60324634,6.7804279 8.08488721,5.99084691 9.28977894,6.02777892 C10.0683001,6.05197576 10.5799448,6.94089113 11.243188,6.97272908 C11.7548327,7.00074647 12.0217091,6.58812672 12.5428287,6.5435536 C12.9849908,6.50534807 13.1381684,6.68364055 13.4082031,6.90141208 C13.5898054,6.56265637 13.8503652,6.33214966 14.5230833,5.93226509 C15.3331874,5.44578132 18.0998589,4.9847679 19.2779051,4.13660509 C19.865349,3.71125017 19.9979977,2.92676325 19.8116579,2.39697988 C19.3663375,2.90256642 18.1330211,3.43234979 16.9297085,3.47946995 C16.3280522,3.5049403 14.8815504,3.29098932 14.3714849,3.07194427 C14.6288864,2.71535931 14.7125813,2.31547474 14.5009752,1.92705184 C14.1077667,2.16774669 12.4164967,2.29891901 11.7548327,2.29891901 C11.0947478,2.29891901 9.80142367,2.08369452 8.79866318,2.12699412 C6.6052233,2.22378147 5.58825046,3.47946995 5.51560954,4.49955765" id="Fill-39" fill="#FFFFFF"></path>
                            <path d="M9.26215509,9.96820742 C14.0081868,10.0418689 16.1487086,11.8072042 16.2117578,13.2575731 C16.4529212,12.8244945 16.4213965,12.4130063 16.3882957,11.9265865 C16.3646522,11.5417689 15.6427384,10.4508171 15.6096375,10.0901299 C15.5812654,9.72563257 15.7010589,9.4817877 15.7909041,9.146501 C15.489844,9.19222191 14.4384979,9.53004866 13.989272,9.2417529 C13.5069453,8.92932666 13.8395301,8.15334116 13.2074614,7.96156733 C12.576969,7.76344337 11.5870959,8.37178552 10.953451,8.29812405 C10.326111,8.22446258 9.7854638,7.5246786 9.12659921,7.5246786 C8.46142971,7.5246786 8.13199742,8.17620161 7.32181466,8.32352456 C6.69605093,8.43655682 5.93946002,8.13175073 5.56904572,8.15334116 C5.15922565,8.17620161 4.91648607,8.43401677 4.73364327,8.75025308 C4.55237669,9.06267933 4.40893967,9.19222191 3.9281892,9.29128389 C3.54674128,9.36621539 2.99821288,9.09824004 2.72710113,9.146501 C2.93673986,9.31414435 3.04234734,10.0012281 2.85319962,10.4038261 C2.6136125,10.9118363 2.09818494,11.4452469 2.03671193,12.0789896 C1.98627254,12.6378008 2.21482604,12.8956159 2.39766884,13.3058341 C2.27629905,11.249663 5.11981987,9.90470615 9.26215509,9.96820742" id="Fill-40" fill="#FFFFFF"></path>
                            <path d="M6.3316302,17.3469922 C6.00428661,17.3966448 5.31025526,17.8333335 4.9766166,18.2865732 C5.07104264,18.5819428 5.46291068,19.2656216 5.84533612,19.4540471 C5.93346709,19.1383071 6.35995801,18.6086788 6.57399035,18.4890032 C6.87143236,18.3171286 7.16887437,18.1961799 7.40966076,18.1032403 C7.64887338,18.003935 7.74015188,17.9071759 7.74015188,17.688195 C7.74015188,17.4692141 7.705529,17.3660893 7.58434892,17.1483815 C7.82198778,17.1254649 8.26579014,17.1547473 8.42001933,16.9815995 C8.56637968,16.8148176 8.64034674,16.5945635 8.64034674,16.379402 C8.64034674,16.1578747 8.5175929,16.1107684 8.25162623,16.0865786 C7.9793645,16.0611157 7.19405465,16.045838 6.80533414,16.0713009 C6.80533414,16.0713009 7.40966076,15.8192182 7.59064399,15.7479221 C7.77005346,15.6766259 7.82985661,15.5289411 7.85975819,15.4067192 C7.89123353,15.2857704 7.88493846,15.0145905 7.79995503,14.6822997 C6.90133394,14.7039432 5.31025526,15.3583397 4.89005941,15.6486167 L5.22055053,16.309379 L4.62409274,16.2877355 C4.53124047,16.6187532 4.5926174,17.1280112 4.77202686,17.4208346 C5.31025526,17.3469922 5.93818839,17.3228024 6.3316302,17.3469922" id="Fill-41" fill="#FFFFFF"></path>
                        </g>
                    </g>
                </g>
            </g>
        </g>
    </g>
</svg>