<svg xmlns="http://www.w3.org/2000/svg" width="90" height="90" viewBox="0 0 90 90">
  <g id="Grupo_28747" data-name="Grupo 28747" transform="translate(20318 10648)">
    <circle id="Elipse_409" data-name="Elipse 409" cx="45" cy="45" r="45" transform="translate(-20318 -10648)" fill="#fff"/>
    <g id="icon-person" transform="translate(-20298.572 -10625)">
      <path id="Trazado_15802" data-name="Trazado 15802" d="M32.2,16A2.206,2.206,0,0,0,30,18.2h4.4A2.206,2.206,0,0,0,32.2,16Z" transform="translate(-9.9 -7.2)" fill="#006729"/>
      <path id="Trazado_15803" data-name="Trazado 15803" d="M25.6,48A17.616,17.616,0,0,0,8,65.6h2.2a15.405,15.405,0,0,1,9.625-14.245l3.41,3.41a3.4,3.4,0,0,0,2.31.99,3.079,3.079,0,0,0,2.31-.99l3.41-3.41A15.291,15.291,0,0,1,40.945,65.6h2.2A17.6,17.6,0,0,0,25.6,48Zm.77,5.17a1.063,1.063,0,0,1-1.54,0l-2.585-2.585A13.964,13.964,0,0,1,25.6,50.2a13.353,13.353,0,0,1,3.355.385Z" transform="translate(0 -21.6)" fill="#006729"/>
      <path id="Trazado_15804" data-name="Trazado 15804" d="M44.2,16A2.206,2.206,0,0,0,42,18.2h4.4A2.206,2.206,0,0,0,44.2,16Z" transform="translate(-15.3 -7.2)" fill="#006729"/>
      <path id="Trazado_15805" data-name="Trazado 15805" d="M31,22A11,11,0,1,0,20,11,11.032,11.032,0,0,0,31,22ZM31,2.2A8.8,8.8,0,1,1,22.2,11,8.826,8.826,0,0,1,31,2.2Z" transform="translate(-5.4 0)" fill="#006729"/>
    </g>
  </g>
</svg>
