<?xml version="1.0" encoding="utf-8"?>
<!-- Generator: Adobe Illustrator 22.1.0, SVG Export Plug-In . SVG Version: 6.00 Build 0)  -->
<svg version="1.1" id="Capa_1" xmlns="http://www.w3.org/2000/svg" xmlns:xlink="http://www.w3.org/1999/xlink" x="0px" y="0px"
	 viewBox="0 0 80 80" style="enable-background:new 0 0 80 80;" xml:space="preserve">
<style type="text/css">
	.st0{fill:#171343;}
</style>
<g>
	<path class="st0" d="M34,16c-2.2,0-4,1.8-4,4h8C38,17.8,36.2,16,34,16z"/>
	<path class="st0" d="M40,48C22.3,48,8,62.4,8,80h4c0-11.7,7.3-21.8,17.5-25.9l6.2,6.2c1.1,1.1,2.7,1.8,4.2,1.8
		c1.6,0,3.1-0.6,4.2-1.8l6.2-6.2C60.7,58.2,67.9,68.3,67.9,80h4C71.9,62.4,57.6,48,40,48z M41.4,57.4c-0.8,0.8-2,0.8-2.8,0l-4.7-4.7
		c2-0.5,4.1-0.7,6.1-0.7c2.1,0,4.2,0.2,6.1,0.7L41.4,57.4z"/>
	<path class="st0" d="M46,16c-2.2,0-4,1.8-4,4h8C50,17.8,48.2,16,46,16z"/>
	<path class="st0" d="M40,40c11,0,20-9,20-20C60,9,51,0,40,0c-11,0-20,9-20,20C19.9,31,28.9,40,40,40z M40,4c8.8,0,16,7.2,16,16
		c0,8.8-7.2,16-16,16s-16-7.2-16-16C23.9,11.2,31.1,4,40,4z"/>
</g>
</svg>
