<svg xmlns="http://www.w3.org/2000/svg" width="90" height="90" viewBox="0 0 90 90">
  <g id="Grupo_28750" data-name="Grupo 28750" transform="translate(20116 10648)">
    <circle id="Elipse_409" data-name="Elipse 409" cx="45" cy="45" r="45" transform="translate(-20116 -10648)" fill="#fff"/>
    <g id="DSK-Siniestros" transform="translate(-20095.805 -10625)">
      <g id="_1.Claims-Home" data-name="1.Claims-Home" transform="translate(-796 -849)">
        <g id="Group-2" transform="translate(796 849)">
          <g id="elements-icon-liberty-person-1_0-copy">
            <path id="Path" d="M14.5,9A2.3,2.3,0,0,0,12,11h5A2.3,2.3,0,0,0,14.5,9Z" fill="#006729"/>
            <path id="Shape" d="M18.028,26A18.031,18.031,0,0,0,0,44H2.254a15.756,15.756,0,0,1,9.859-14.569l3.493,3.488a3.482,3.482,0,0,0,2.366,1.013,3.156,3.156,0,0,0,2.366-1.013l3.493-3.488A15.639,15.639,0,0,1,33.746,44H36A18.019,18.019,0,0,0,18.028,26Zm.789,5.288a1.09,1.09,0,0,1-1.577,0l-2.648-2.644a14.329,14.329,0,0,1,3.437-.394,13.7,13.7,0,0,1,3.437.394Z" fill="#006729"/>
            <path id="Path-2" data-name="Path" d="M21.5,9A2.3,2.3,0,0,0,19,11h5A2.3,2.3,0,0,0,21.5,9Z" fill="#006729"/>
            <path id="Shape-2" data-name="Shape" d="M17.5,22A11.291,11.291,0,0,0,29,11,11.291,11.291,0,0,0,17.5,0,11.291,11.291,0,0,0,6,11C5.943,17.05,11.118,22,17.5,22Zm0-19.8A9.033,9.033,0,0,1,26.7,11a9.033,9.033,0,0,1-9.2,8.8A9.033,9.033,0,0,1,8.3,11,8.96,8.96,0,0,1,17.5,2.2Z" fill="#006729"/>
          </g>
          <g id="noun_people_2492621" transform="translate(32 15)">
            <g id="Group">
              <path id="Shape-3" data-name="Shape" d="M6.441.017A6.271,6.271,0,0,0,.292,6.367a6.428,6.428,0,0,0,2.15,4.809A11.024,11.024,0,0,0,.318,12.3l1.224,1.93a8.728,8.728,0,0,1,4.9-1.509,8.924,8.924,0,0,1,8.708,8.08H9.788v2.309h6.7a1.136,1.136,0,0,0,1.117-1.154,11.55,11.55,0,0,0-7.183-10.77,6.43,6.43,0,0,0,2.157-4.818A6.266,6.266,0,0,0,6.441.017Zm0,2.31a3.958,3.958,0,0,1,3.909,4.04A3.961,3.961,0,0,1,6.441,10.41,3.965,3.965,0,0,1,2.528,6.367,3.962,3.962,0,0,1,6.441,2.327Z" fill="#006729"/>
              <path id="Path-3" data-name="Path" d="M5.323,20.8v2.31H7.558V20.8Z" fill="#006729"/>
            </g>
          </g>
        </g>
      </g>
    </g>
  </g>
</svg>
