<?xml version="1.0" encoding="UTF-8"?>
<svg width="132px" height="110px" viewBox="0 0 132 110" version="1.1" xmlns="http://www.w3.org/2000/svg" xmlns:xlink="http://www.w3.org/1999/xlink">
    <!-- Generator: sketchtool 58 (101010) - https://sketch.com -->
    <title>1C66F065-EF50-4F51-9798-3CAAD00200C9</title>
    <desc>Created with sketchtool.</desc>
    <g id="Resultados" stroke="none" stroke-width="1" fill="none" fill-rule="evenodd">
        <g transform="translate(-253.000000, -273.000000)" id="Group-78">
            <g transform="translate(253.000000, 273.000000)">
                <path d="M113.514249,55.2789944 C113.681679,55.3378212 113.846092,55.4117318 114.00598,55.5014804 C115.545282,56.3620112 116.095841,58.307067 115.23531,59.8463687 C113.566288,62.8337151 110.154332,64.5042458 106.543271,64.1022626 C104.792796,63.9106983 103.527265,62.3299162 103.723355,60.5756704 C103.917182,58.8236872 105.496455,57.5611732 107.248439,57.7565084 C108.268858,57.8696369 109.260617,57.4480447 109.661092,56.7323184 C110.431874,55.3521508 112.0745,54.7668994 113.514249,55.2789944" id="Fill-4" fill="#FFA685"></path>
                <path d="M95.6950782,64.8779469 L95.6732067,64.8779469 L83.3685978,64.7995112 C81.7810279,64.7897067 80.2123128,64.3703771 78.8306369,63.5875279 C75.9865866,61.975824 74.2217821,59.0631425 74.110162,55.7959916 C73.9977877,52.5288408 75.5597151,49.5015223 78.2868659,47.6997626 L89.1283464,40.5326955 C90.6804693,39.5054888 92.771838,39.9316061 93.7990447,41.4852374 C94.8262514,43.0388687 94.3993799,45.1294832 92.8465028,46.1566899 L82.0050223,53.323757 C80.9167263,54.0432542 80.8337654,55.1307961 80.848095,55.5652095 C80.8631788,55.9996229 81.0208045,57.0788687 82.1551061,57.7221927 C82.5374804,57.9386453 82.972648,58.0547905 83.4123408,58.0578073 L95.7154413,58.136243 C97.5775363,58.1475559 99.0768659,59.6664944 99.0656167,61.5285894 C99.053486,63.3831425 97.5466145,64.8779469 95.6950782,64.8779469" id="Fill-6" fill="#FFFFFF"></path>
                <polygon id="Fill-8" fill="#FFFFFF" points="95.7281872 64.8779469 95.6603101 58.136243 105.787573 58.0344274 105.85545 64.7761313"></polygon>
                <path d="M125.670433,45.3021927 L125.669679,45.3029469 C125.176439,45.7976955 125.176439,46.6031704 125.669679,47.0971648 C126.362779,47.7902654 126.363534,48.9162709 125.669679,49.6093715 C124.49088,50.7934497 126.277556,52.5846508 127.463142,51.3998184 C130.428617,48.4343436 127.457109,43.5162709 125.670433,45.3021927" id="Fill-10" fill="#808080"></path>
                <polygon id="Fill-12" fill="#037B86" points="117.521637 52.4154106 113.927168 56.0098799 115.278676 57.6170587 118.88295 54.0120307"></polygon>
                <path d="M114.388506,54.3929721 L106.863198,61.9182793 C106.133142,62.6490894 106.130126,63.8422179 106.863198,64.5760447 C107.597025,65.3091173 108.791662,65.3076089 109.522472,64.5767989 L117.046271,57.053 L114.388506,54.3929721 Z" id="Fill-14" fill="#037B86"></path>
                <path d="M128.167179,52.8322514 C130.626592,50.372838 130.628101,46.3680894 128.169441,43.9071676 C125.70852,41.4477542 121.705279,41.4492626 119.244358,43.9101844 C116.784944,46.370352 116.784944,50.3705754 119.244358,52.8322514 C121.705279,55.2916648 125.706257,55.2916648 128.167179,52.8322514 M118.13419,42.8000168 C121.20676,39.7289553 126.205531,39.7282011 129.276592,42.7985084 C132.346899,45.870324 132.346899,50.869095 129.275084,53.9409106 C126.204777,57.0119721 121.20676,57.0112179 118.136453,53.9394022 C115.065391,50.8683408 115.064637,45.8718324 118.13419,42.8000168" id="Fill-16" fill="#037B86"></path>
                <path d="M108.284318,62.9379441 L108.284318,62.9379441 C106.914709,61.5683352 106.914709,59.348 108.284318,57.9783911 L110.069486,56.1932235 C111.439095,54.8236145 113.65943,54.8236145 115.028285,56.1932235 C116.398648,57.5628324 116.398648,59.7824134 115.028285,61.1527765 L113.243117,62.9379441 C111.874263,64.3067989 109.653173,64.3067989 108.284318,62.9379441" id="Fill-18" fill="#FFBDA9"></path>
                <path d="M80.8999832,25.6851089 C82.5448715,27.4393547 84.0841732,29.2569525 85.4598156,31.0745503 L89.6357654,32.4343547 L89.0286425,36.2973156 L93.2430559,40.6090196 C94.8381676,42.2403324 94.5297039,44.9260028 92.6065196,46.153824 L87.0421061,49.7060587 C81.9694246,52.3947458 77.1124413,55.4718408 72.5141453,58.9094385 L57.1135866,70.3633212 L40.283838,48.1418687 L40.9256536,47.2308073 C49.6440894,34.8492709 57.7252346,26.9038799 70.7410447,19.904243 L80.8999832,25.6851089 Z" id="Fill-20" fill="#FFFFFF"></path>
                <path d="M57.1135112,70.3635475 L72.5140698,58.9089106 C73.5857737,58.1079609 74.7178128,57.3944972 75.818176,56.6327654 C75.4659693,56.4374302 75.1205503,56.2300279 74.7517514,56.0686313 C68.7672542,53.4583799 61.8505782,54.6786592 56.9852989,59.0325978 C55.2695168,60.5681285 53.6691257,62.1541899 52.1433994,63.802095 L57.1135112,70.3635475 Z" id="Fill-22" fill="#C0BFC0" opacity="0.4"></path>
                <path d="M97.6939832,21.805933 C96.4895419,20.2176089 94.2262179,19.9046201 92.6378939,21.1075531 L83.0083966,28.3998156 L83.6011899,35.1603743 L87.3661061,34.1527765 L96.9948492,26.860514 C98.5839274,25.657581 98.896162,23.394257 97.6939832,21.805933" id="Fill-24" fill="#FFAB97"></path>
                <polygon id="Fill-26" fill="#C0BFC0" points="77.7808799 34.452567 81.0646229 25.8080419 85.1561034 26.519243 83.6017179 35.1599972"></polygon>
                <polygon id="Fill-28" fill="#C0BFC0" points="77.7808799 34.452567 83.5806006 35.2527626 82.7796508 41.0524832"></polygon>
                <polygon id="Fill-30" fill="#28A3AF" points="80.2938408 39.3275754 80.0555168 34.7277709 83.3747067 35.3371564 83.0602095 38.6902849 81.0261592 40.2107318"></polygon>
                <path d="M57.1135112,70.3635475 L48.0466397,77.2304469 C44.9514441,79.5744693 40.5432039,78.9643296 38.1991816,75.8698883 L34.9003547,71.3982961 C30.9167235,65.9982961 31.2168911,58.5567039 35.6228687,53.4960894 L40.2845168,48.142095 L57.1135112,70.3635475 Z" id="Fill-32" fill="#343741"></path>
                <polygon id="Fill-34" fill="#929497" points="49.9811369 67.2502514 46.2282877 62.2959777 49.2623939 59.9979609 53.0144888 64.9522346"></polygon>
                <path d="M81.3588324,53.6284497 C81.1499218,53.6284497 80.9432737,53.534176 80.8075196,53.3546788 L77.5109553,49.0022486 C77.2809274,48.6983101 77.3412626,48.265405 77.6452011,48.0346229 C77.9491397,47.8038408 78.3827989,47.8634218 78.6128268,48.1688687 L81.9086369,52.5205447 C82.139419,52.8252374 82.0790838,53.2581425 81.7751453,53.4881704 C81.6507039,53.5824441 81.5036369,53.6284497 81.3588324,53.6284497" id="Fill-36" fill="#D8D0BC"></path>
                <path d="M76.8182318,51.502162 C76.6093212,51.502162 76.4026732,51.4078883 76.266919,51.2283911 C76.0361369,50.9236983 76.0964721,50.4907933 76.4004106,50.2607654 L80.1253547,47.4393408 C80.4292933,47.2093128 80.8621983,47.2688939 81.0929804,47.5735866 C81.3237626,47.8775251 81.2634274,48.3111844 80.9587346,48.5412123 L77.2345447,51.3618827 C77.1101034,51.4561564 76.9630363,51.502162 76.8182318,51.502162" id="Fill-38" fill="#0E0F2D"></path>
                <path d="M116.758623,23.0874525 L106.153204,33.6008603 C103.377785,35.9018939 99.828567,37.0203575 96.4271704,36.803905 C96.1006061,36.5874525 92.1252709,32.4650503 92.0641816,32.4032067 C87.606919,27.9074804 87.6370866,20.6446313 92.1358296,16.1851061 L101.103148,7.29471508 L116.758623,23.0874525 Z" id="Fill-40" fill="#FFBDA9"></path>
                <path d="M94.111581,12.5685391 C92.8664134,11.3128128 90.8383966,11.3037626 89.584933,12.5459134 C88.3284525,13.7918352 88.3231732,15.8168352 89.5683408,17.0725615 L93.2337039,20.7696006 L97.6419441,16.129824 L94.111581,12.5685391 Z" id="Fill-42" fill="#FFBDA9"></path>
                <path d="M125.011271,19.5625196 L112.045992,6.48335754 C109.947835,4.36785475 107.072109,3.50279888 104.335154,3.8836648 C104.49655,2.81799441 104.180545,1.68897207 103.362249,0.863888268 C103.09602,0.596150838 102.796606,0.381206704 102.479846,0.216039106 L102.473059,1.64522905 C102.468534,2.53818994 101.946634,3.78184916 101.311606,4.41235196 L99.9404888,5.77140223 C99.9208799,5.78799441 99.9005168,5.80081564 99.8801536,5.81589944 L93.5773883,12.0651173 L94.4741201,12.9693911 L92.8503492,14.5795866 C92.1029469,15.3202011 92.099176,16.5253966 92.8397905,17.2720447 C93.5796508,18.0186927 94.7825838,18.0224637 95.529986,17.2818492 L96.506662,16.3134693 C97.7050698,15.4846145 99.3597626,15.6045307 100.42317,16.6739721 L103.099791,14.021486 C104.29669,13.1941397 105.947612,13.3155642 107.01102,14.3850056 L107.025349,14.3699218 L116.214399,23.6389162 C117.693366,25.1314581 120.043422,25.2332737 121.643813,23.9353128 L119.304316,21.5746983 C121.325545,21.5724358 123.349791,20.9079944 125.011271,19.5625196" id="Fill-44" fill="#343741"></path>
                <path d="M109.391243,26.4437486 C109.091075,26.7416536 108.606885,26.7401453 108.30898,26.4392235 C108.011075,26.1383017 108.013338,25.6541117 108.313506,25.3569609 C108.614427,25.0590559 109.097863,25.0605642 109.395768,25.3607318 C109.693673,25.6624078 109.691411,26.1458436 109.391243,26.4437486" id="Fill-46" fill="#0E0F2D"></path>
                <path d="M103.622142,20.6238156 C103.321975,20.9224749 102.837785,20.9202123 102.539126,20.6192905 C102.241975,20.3191229 102.244237,19.834933 102.544405,19.5377821 C102.844573,19.2391229 103.328763,19.2413855 103.626668,19.5415531 C103.924573,19.8424749 103.92231,20.3259106 103.622142,20.6238156" id="Fill-48" fill="#0E0F2D"></path>
                <path d="M99.1493436,31.955067 C99.0829749,31.955067 99.0150978,31.9445084 98.9479749,31.9218827 C97.8181983,31.5387542 96.9697346,30.7166872 96.6205447,29.6653464 C96.3105726,28.730905 96.4485894,27.7368827 96.9983939,26.9397039 C97.1944832,26.6546201 97.5851536,26.5837263 97.8694832,26.7790615 C98.154567,26.9751508 98.2254609,27.365067 98.0301257,27.6493966 C97.6997905,28.1283073 97.6221089,28.7037542 97.8099022,29.270905 C98.0338966,29.9466592 98.5957682,30.4806257 99.3507123,30.7362961 C99.6772765,30.8464078 99.853757,31.2023855 99.7421369,31.5304581 C99.6538966,31.7906536 99.4102933,31.955067 99.1493436,31.955067" id="Fill-50" fill="#EC8D75"></path>
                <path d="M78.9975391,106.247226 C78.6106397,106.247226 78.2177067,106.168791 77.8406117,106.004377 C76.3782374,105.36407 75.7122877,103.660355 76.3518408,102.198735 L78.238824,97.8870307 C78.8783771,96.4261648 80.5828464,95.7587067 82.0444665,96.3982598 C83.5068408,97.038567 84.1727905,98.7422821 83.5332374,100.203902 L81.6462542,104.515606 C81.1718687,105.600885 80.1107235,106.247226 78.9975391,106.247226" id="Fill-52" fill="#6B9C38"></path>
                <polygon id="Fill-54" fill="#343741" points="82.3604721 105.78981 74.4180978 102.316765 81.0587402 87.8340559 89.0018687 91.3078547"></polygon>
                <path d="M85.0281173,93.9061935 C84.4473911,93.9069441 83.8583687,93.7892905 83.2927263,93.5426704 C81.0995419,92.5825866 80.1002402,90.0266369 81.0588156,87.8334525 L86.2559385,75.9557151 C87.4830056,73.1516369 86.9505475,70.1597654 84.8312737,67.9514972 C82.7127542,65.7424749 79.7465251,65.0863296 76.8934246,66.1964972 L45.7318045,78.4732011 C43.5031732,79.3518324 40.9879497,78.2559944 40.1108268,76.0296257 C39.2329497,73.8025028 40.3272793,71.2857709 42.5551564,70.408648 L73.7333687,58.1244022 C79.8852961,55.729095 86.5297095,57.1997654 91.0872793,61.9504078 C95.6448492,66.7010503 96.8364693,73.3990112 94.1983128,79.4310223 L89.0019441,91.3087598 C88.2892346,92.9363017 86.6978939,93.9061935 85.0281173,93.9061935" id="Fill-56" fill="#343741"></path>
                <path d="M87.9889162,104.037676 C86.5046704,104.037676 85.2836369,102.912425 85.1282737,101.469659 C85.1260112,101.469659 85.1260112,101.00357 85.1260112,101.00357 C85.1260112,100.062341 84.3605084,99.296838 83.4192793,99.296838 L82.3950894,99.296838 C81.7321564,99.296838 81.1936648,99.8353296 81.1936648,100.499017 L81.1936648,100.826335 C81.131067,101.898039 80.2531899,102.754045 79.1686648,102.754045 L76.2755922,102.754045 C75.2491397,102.754045 74.4180223,103.585162 74.4180223,104.61086 C74.4180223,106.392257 74.4187765,108.81019 74.4187765,108.81019 L86.2278827,108.81019 L90.7288883,108.81019 L95.230648,108.81019 L95.230648,107.831251 L95.230648,107.715106 C95.230648,105.683318 93.5834972,104.037676 91.5539721,104.037676 L87.9889162,104.037676 Z" id="Fill-58" fill="#141519"></path>
                <path d="M49.6275726,108.350662 C48.1667067,108.350662 46.6922654,108.11083 45.2540251,107.622869 L31.9900866,103.129405 C29.7222374,102.36164 28.5072374,99.9007179 29.275757,97.6336229 C30.0442765,95.3650196 32.5059525,94.1522821 34.7715391,94.9185391 L48.0354777,99.4120028 C49.5136899,99.9120307 51.0907011,99.6865279 52.3698073,98.7920587 C53.6466508,97.8975894 54.3993324,96.4902709 54.4332709,94.9313603 C54.4604218,93.7186229 54.0350587,92.5473659 53.2356173,91.6340419 L34.4819302,70.2067514 C32.904919,68.4049916 33.0866788,65.6665279 34.8884385,64.0902709 C36.6886899,62.514014 39.428662,62.6965279 41.0041648,64.4975335 L59.7586061,85.924824 C61.9887458,88.4724777 63.1750866,91.7388743 63.1004218,95.1229246 C63.0038855,99.472338 60.9057291,103.397142 57.3421816,105.892003 C55.0245559,107.516528 52.3479358,108.350662 49.6275726,108.350662" id="Fill-60" fill="#343741"></path>
                <path d="M15.4202318,103.238536 C15.9293101,101.843285 17.4052598,101.083061 18.8133324,101.431497 C18.8140866,101.429989 19.2522709,101.589123 19.2522709,101.589123 C20.1361816,101.911916 21.1181369,101.456385 21.440176,100.572475 L21.7916285,99.6093743 C22.0193939,98.9864134 21.6981089,98.2963296 21.0743939,98.0693184 L20.7666844,97.9569441 C19.7809581,97.5300726 19.2779134,96.4116089 19.6497291,95.3926983 L20.642243,92.6745978 C20.9944497,91.7122514 20.4981927,90.6450726 19.5350922,90.2936201 C17.8615447,89.6819721 15.5906788,88.8546257 15.5906788,88.8546257 L11.5406788,99.9472514 L9.99836034,104.174486 L8.45377933,108.403983 L9.37238268,108.738844 L9.48249441,108.77957 C11.390595,109.476441 13.5015726,108.493732 14.1976899,106.586385 L15.4202318,103.238536 Z" id="Fill-62" fill="#141519"></path>
                <path d="M23.8967989,98.7016313 C23.5898436,98.7016313 23.2768547,98.6526089 22.9698994,98.5485307 L18.2328324,96.9436145 C16.7214358,96.4315196 15.9114358,94.7904022 16.4235307,93.2797598 C16.9356257,91.7683631 18.5752346,90.9591173 20.0873855,91.4697039 L24.8236983,93.0746201 C26.335095,93.5867151 27.1458492,95.2278324 26.6337542,96.7384749 C26.2257374,97.9429162 25.1019944,98.7016313 23.8967989,98.7016313" id="Fill-64" fill="#6B9C38"></path>
                <path d="M38.3361425,104.980413 C37.8745782,104.980413 37.4062263,104.905749 36.944662,104.749631 L18.8923715,98.5351061 C16.6252765,97.7673408 15.4095223,95.306419 16.1772877,93.039324 C16.9465615,90.7722291 19.4089916,89.5579832 21.6730698,90.3242402 L39.7261145,96.5395196 C41.9932095,97.3072849 43.2089637,99.7682067 42.4404441,102.035302 C41.8287961,103.840832 40.1431816,104.980413 38.3361425,104.980413" id="Fill-66" fill="#343741"></path>
                <path d="M23.0026313,36.7689106 C23.1489441,36.6693575 23.3065698,36.5811173 23.4732458,36.5041899 C25.078162,35.7741341 26.971933,36.4815642 27.702743,38.0857263 C29.1221285,41.1997765 28.4493911,44.9390503 25.9869609,47.6111453 C24.7968492,48.9098603 22.7733575,48.992067 21.4761508,47.796676 C20.1789441,46.6020391 20.0959832,44.5823184 21.2898659,43.2858659 C21.9852291,42.5301676 22.2326034,41.4818436 21.8924637,40.7351955 C21.2370726,39.2969553 21.7371006,37.6271788 23.0026313,36.7689106" id="Fill-68" fill="#FFBDA9"></path>
                <path d="M31.8142849,33.4840363 C31.0736704,33.4840363 30.3270223,33.2411872 29.7048156,32.7411592 C28.253,31.5744274 28.0229721,29.4521369 29.1889497,28.0010754 L35.7224972,19.871662 C41.1579441,13.1103492 50.4925531,10.8394832 58.4243687,14.3472207 L72.5035866,20.6356564 C74.2035307,21.3951257 74.9660168,23.3884497 74.2065475,25.0883939 C73.4470782,26.7868296 71.4567709,27.5515782 69.7538101,26.7913547 L55.685905,20.5081983 C50.5566592,18.239595 44.5020223,19.7117737 40.9769385,24.0958799 L34.4441453,32.2245391 C33.7781955,33.0533939 32.8007654,33.4840363 31.8142849,33.4840363" id="Fill-70" fill="#FFFFFF"></path>
                <polygon id="Fill-72" fill="#FFFFFF" points="28.1677765 40.0338743 22.9118268 35.8104106 29.1889497 28.0015279 34.4441453 32.2249916"></polygon>
                <path d="M121.380223,109.391369 L1.05148045,109.391369 C0.786005587,109.391369 0.569553073,109.17567 0.569553073,108.909441 C0.569553073,108.643966 0.786005587,108.428268 1.05148045,108.428268 L121.380223,108.428268 C121.646453,108.428268 121.862151,108.643966 121.862151,108.909441 C121.862151,109.17567 121.646453,109.391369 121.380223,109.391369" id="Fill-74" fill="#C0BFC0"></path>
                <path d="M81.4795782,39.2480084 C83.3235726,42.6501592 84.2904441,46.4588184 84.2904441,50.3278128 L84.2919525,69.0792374 L81.4818408,73.0749358 L77.9952207,69.0784832 L79.8618408,54.0859413 C80.1748296,51.5797682 80.3317011,49.0562486 80.3324553,46.5304665 L80.3332095,39.2970307 L81.4795782,39.2480084 Z" id="Fill-76" fill="#28A3AF"></path>
                <polygon id="Path-2" fill="#F5F5F5" points="83.6017179 35.1603743 83.0083966 40.7568908 89.0286425 36.2973156 89.6357654 32.4343547 87.5448361 34.0177011"></polygon>
            </g>
        </g>
    </g>
</svg>