<svg xmlns="http://www.w3.org/2000/svg" xmlns:xlink="http://www.w3.org/1999/xlink" width="20" height="20" viewBox="0 0 20 20">
    <defs>
        <path id="uvll3cvt6a" d="M3.686 2.206c.332.067.627.23.873.48l2.61 2.639c.18.188.305.386.387.6.118.311.148.633.087.958-.06.338-.219.639-.468.889l-1.18 1.206c-.052.052-.064.088-.07.12-.01.066-.006.119.016.177.01.026.056.098.101.144l4.383 4.45c.045.046.088.076.118.081.02.003.036.005.052.005.034 0 .068-.008.105-.022.025-.009.053-.029.083-.06l1.178-1.2c.185-.183.385-.313.604-.396.301-.116.626-.142.954-.074.336.067.63.226.875.471l2.614 2.648c.171.176.301.378.387.603.118.305.146.622.088.946-.063.335-.215.628-.45.878l-.614.636c-.289.292-.59.538-.905.736-.304.196-.637.364-.985.497-.554.21-1.146.33-1.758.353-.076.002-.15.004-.224.004-.525 0-1.059-.067-1.586-.196-.598-.148-1.196-.376-1.778-.679-.57-.299-1.126-.665-1.649-1.091-.303-.219-.635-.478-.984-.769-.295-.243-.637-.54-1.046-.906-.394-.35-.81-.75-1.27-1.221-.455-.461-.825-.86-1.124-1.215-.297-.353-.539-.655-.722-.898-.215-.287-.382-.533-.51-.755-.29-.384-.545-.775-.759-1.162-.228-.414-.426-.838-.586-1.259C.317 9.263.164 8.689.076 8.117c-.09-.594-.1-1.173-.033-1.723.065-.575.22-1.13.46-1.649.242-.531.586-1.024 1.02-1.462l.593-.607c.009-.009.017-.018.027-.026.177-.165.372-.29.582-.37.306-.117.634-.143.961-.074zm-.36 1.591c-.022.006-.04.015-.062.034l-.58.596c-.308.309-.535.633-.701.998-.169.364-.276.752-.323 1.159-.05.41-.04.843.027 1.29.07.453.193.915.367 1.369.133.35.299.704.491 1.052.184.333.406.672.662 1.008.02.028.041.058.06.09.098.173.236.378.424.628.164.22.39.499.666.828.27.322.61.688 1.038 1.122.438.448.826.822 1.192 1.147.396.354.723.637 1.002.869.331.274.638.514.918.714l.04.032c.442.362.91.672 1.388.922.468.243.944.425 1.416.542.456.112.914.16 1.361.146.437-.017.843-.098 1.236-.247.243-.093.475-.21.69-.348.217-.138.417-.3.616-.503l.6-.62c.023-.025.026-.041.028-.052.005-.025 0-.045-.008-.066-.006-.017-.013-.028-.028-.043l-2.608-2.643c-.018-.018-.027-.02-.041-.022-.016-.004-.026-.004-.032-.004-.025.006-.037.014-.052.028l-1.176 1.2c-.2.199-.419.342-.656.432-.222.085-.454.129-.686.129-.112 0-.226-.01-.338-.031-.366-.064-.702-.246-.992-.54l-4.389-4.456c-.097-.1-.327-.36-.457-.7-.129-.34-.162-.689-.098-1.042.063-.366.235-.698.511-.978l1.183-1.21c.023-.022.024-.028.026-.04.006-.027.006-.048-.008-.082C6.03 6.49 6.01 6.47 6 6.46L3.396 3.828c-.023-.023-.03-.025-.04-.027l-.03-.004zM10 0c5.516 0 10.002 4.487 10.002 10.003h-1.666c0-4.597-3.74-8.336-8.336-8.336V0zm0 2.495c4.14 0 7.508 3.368 7.508 7.508H15.84c0-3.221-2.62-5.841-5.841-5.841V2.495z"/>
    </defs>
    <g fill="none" fill-rule="evenodd">
        <g>
            <g transform="translate(-402 -1735) translate(402 1735)">
                <mask id="acjxv2gl1b" fill="#fff">
                    <use xlink:href="#uvll3cvt6a"/>
                </mask>
                <use fill="#1A1446" xlink:href="#uvll3cvt6a"/>
                <g fill="#1A1446" mask="url(#acjxv2gl1b)">
                    <path d="M0 0H20V20H0z"/>
                </g>
            </g>
        </g>
    </g>
</svg>
