<svg xmlns="http://www.w3.org/2000/svg" xmlns:xlink="http://www.w3.org/1999/xlink" width="130" height="130" viewBox="0 0 130 130">
    <defs>
        <path id="ed6inaptya" d="M3.071 0v52.948h36.062V42.96l3.073-3.836v14.004c0 1.598-1.295 2.893-2.893 2.893H2.891C1.294 56.021 0 54.726 0 53.128V2.895C0 1.295 1.295 0 2.893 0h.178zm52.422 4.083l3.815 2.864-1.653 2.201-.003.006 1.413 1.045-.004.003.297.215c.32.257.563.616.625 1.027.061.41-.046.835-.296 1.165L36.702 43.082c-.177.236-.416.413-.69.516l-6.151 2.323-2.55 3.448c-.529.713-1.535.865-2.25.336-.714-.529-.864-1.535-.335-2.25l2.546-3.44.186-6.79c.01-.322.116-.629.309-.885l15.351-20.595.467-.622 1.418-1.883 2.49 1.854-2.808 3.742-14.138 18.966-.125 4.59 4.074-1.538L56.199 12.08l-5.775-4.274-.173-.123.002-.003-.76-.561.958-1.294.956-1.292 2.41 1.783.004-.005 1.672-2.228zM21.71 46.912c.843 0 1.527.683 1.527 1.528 0 .843-.684 1.527-1.527 1.527H7.444c-.843 0-1.527-.684-1.527-1.527 0-.845.684-1.528 1.527-1.528zm-8.615-11.419l1.835 3.124 1.716-3.124h2.547l-2.796 4.78 2.973 5.094h-2.76l-1.964-3.348-1.962 3.348h-2.562l3.06-5.067-2.853-4.807h2.766zm19.906-12.66v3.074H6.981v-3.073h26.02zM43.868 5.657l.03.021.213.157.243.18.016-.022.006.039 1.056.779 6.773 5.012-1.914 2.585-5.839-4.32-5.962 8.072-.243-.18-.241-.179-1.526-1.13-.243-.178-.241-.178 7.872-10.658zm-10.867 7.327v3.074H6.981v-3.074h26.02zM39.313.067c1.594 0 2.893 1.298 2.893 2.893v1.074l-3.073 4.64V3.141H6.007V.067z"/>
    </defs>
    <g fill="none" fill-rule="evenodd">
        <g>
            <g transform="translate(-142 -187) translate(142 187)">
                <circle cx="65" cy="65" r="65" fill="#EDFDFC"/>
                <g>
                    <g transform="translate(39 35) translate(0 2.5)">
                        <mask id="4md2wq86wb" fill="#fff">
                            <use xlink:href="#ed6inaptya"/>
                        </mask>
                        <use fill="#13112B" xlink:href="#ed6inaptya"/>
                        <g fill="#1A1446" mask="url(#4md2wq86wb)">
                            <path d="M0 0H250V250H0z" transform="translate(-95 -97.5)"/>
                        </g>
                    </g>
                </g>
            </g>
        </g>
    </g>
</svg>
