<svg xmlns="http://www.w3.org/2000/svg" xmlns:xlink="http://www.w3.org/1999/xlink" width="19" height="19" viewBox="0 0 19 19">
    <defs>
        <path id="qhzippbbya" d="M9 0c4.962 0 9 4.037 9 9 0 4.395-3.167 8.062-7.338 8.844v-1.058c3.595-.767 6.3-3.966 6.3-7.786 0-4.39-3.572-7.961-7.962-7.961S1.039 4.61 1.039 9c0 4.39 3.571 7.962 7.961 7.962.184 0 .366-.009.548-.022v1.042c-.182.011-.364.019-.548.019C4.037 18 0 13.963 0 9c0-4.963 4.037-9 9-9zm.585 4.883v3.65h3.532v1.04H9.585v3.544H8.546V9.572H4.883V8.533h3.663v-3.65h1.04z"/>
    </defs>
    <g fill="none" fill-rule="evenodd">
        <g>
            <g transform="translate(-113 -1554) translate(113.5 1554.5)">
                <mask id="bic6jg9xnb" fill="#fff">
                    <use xlink:href="#qhzippbbya"/>
                </mask>
                <use fill="#06748c" xlink:href="#qhzippbbya"/>
                <g fill="#06748c" mask="url(#bic6jg9xnb)">
                    <path d="M0 0H75V75H0z" transform="translate(-28.5 -28.5)"/>
                </g>
            </g>
        </g>
    </g>
</svg>
