<svg xmlns="http://www.w3.org/2000/svg" xmlns:xlink="http://www.w3.org/1999/xlink" width="34" height="34" viewBox="0 0 34 34">
    <defs>
        <path id="f3molvkn7a" d="M4.973 4.973c6.633-6.63 17.422-6.63 24.054 0 6.63 6.632 6.63 17.421 0 24.053-5.874 5.873-15.006 6.54-21.624 2.012l1.414-1.414c5.828 3.78 13.717 3.118 18.821-1.986 5.866-5.866 5.866-15.41 0-21.276-5.865-5.866-15.41-5.866-21.276 0s-5.866 15.41 0 21.276c.246.247.501.478.76.704L5.73 29.734c-.257-.227-.51-.462-.757-.707-6.63-6.632-6.63-17.422 0-24.054zm6.491 4.62l5.8 5.948 5.6-5.742 1.39 1.425-5.6 5.74 5.048 5.177-1.39 1.424-5.048-5.175-5.248 5.381-1.389-1.423 5.249-5.383-5.801-5.947 1.39-1.425z"/>
    </defs>
    <g fill="none" fill-rule="evenodd">
        <g>
            <g>
                <g transform="translate(-917 -1245) translate(472 1229) translate(445 16)">
                    <mask id="rfk9cimldb" fill="#fff">
                        <use xlink:href="#f3molvkn7a"/>
                    </mask>
                    <use fill="#13112B" xlink:href="#f3molvkn7a"/>
                    <g fill="#1A1446" mask="url(#rfk9cimldb)">
                        <path d="M0 0H141.667V141.667H0z" transform="translate(-53.833 -53.833)"/>
                    </g>
                </g>
            </g>
        </g>
    </g>
</svg>
