<svg height="14" viewBox="0 0 14 14" width="14" xmlns="http://www.w3.org/2000/svg" xmlns:xlink="http://www.w3.org/1999/xlink"><defs><path id="a" d="m2.0478604 2.04910867c2.73092962-2.73048053 7.17379867-2.73048053 9.9042792 0 2.7304805 2.73048053 2.7304805 7.17334959 0 9.90383013-2.41836145 2.4183614-6.17861038 2.6932059-8.9037018.8285751l.58202348-.5820235c2.39949958 1.5561044 5.6482325 1.2839546 7.74998392-.818246 2.4152179-2.41521778 2.4152179-6.34522356 0-8.76044137-2.41521777-2.4156669-6.34567263-2.4156669-8.76089044 0-2.41521781 2.41521781-2.41521781 6.34522359 0 8.76089047.10149483.1014949.20658241.1967024.31301726.2896645l-.57349073.5730416c-.10553667-.0938602-.20972606-.189966-.31122089-.2914608-2.73048053-2.73048054-2.73048053-7.1733496 0-9.90383013zm5.77139834 7.7062494v1.39818673h-1.44672711v-1.39818673zm.04742453-6.95410979-.18077114 5.77296004h-1.19342433l-.1924878-5.77296004z"/><mask id="b" fill="#fff"><use fill="#fff" fill-rule="evenodd" xlink:href="#a"/></mask></defs><g fill="none" fill-rule="evenodd"><use fill="#037b86" transform="matrix(-1 0 0 -1 14 14.001248)" xlink:href="#a"/><g mask="url(#b)"><path d="m0 0h58.333333v58.333333h-58.333333z" fill="#037b86" transform="translate(-22.166667 -22.166667)"/></g></g></svg>