<svg height="24" viewBox="0 0 23 24" width="23" xmlns="http://www.w3.org/2000/svg" xmlns:xlink="http://www.w3.org/1999/xlink"><defs><path id="a" d="m9.44440256 0v2.38522427h3.00414624c.3377309 0 .6106295.27289861.6106295.61062948v3.14511873h-1.221259v-2.53448925h-2.39351674v2.24575951h-5.85224274v-2.24575951h-2.37090087v19.17225777h4.66943084v-1.96683h1.22125895v1.96683h4.72597056v-14.45684126c0-.33697701.2736525-.61062948.6106295-.61062948h9.4594798c.3369771 0 .6106295.27365247.6106295.61062948v15.66226916h-1.2212589v-15.05163969h-8.2382209v14.45684129c0 .336977-.2728986.6106295-.6106295.6106295h-11.83791932c-.33697701 0-.61062948-.2736525-.61062948-.6106295v-20.39351675c0-.33773087.27365247-.61062948.61062948-.61062948h2.98153034v-2.38522427zm7.97670564 20.8117603v3.1722578h-1.221259v-3.1722578zm-1.1895967-4.3611761v1.9826612h-1.221259v-1.9826612zm3.1721824 0v1.9826612h-1.2212589v-1.9826612zm-14.6710893 0v1.9826612h-1.22125895v-1.9826612zm4.75816057 0v1.9826612h-1.22125895v-1.9826612zm-4.75831134-3.9651715v1.9826612h-1.22125896v-1.9826612zm4.75816057 0v1.9826612h-1.22125895v-1.9826612zm6.7410479-.3965322v1.9826612h-1.221259v-1.9826612zm3.1722578 0v1.9826612h-1.221259v-1.9826612zm-14.67146627-3.56833772v1.98266112h-1.22125896v-1.98266112zm4.75816057 0v1.98266112h-1.22125895v-1.98266112zm-2.43520543-7.60082925h-1.08556351v1.5740671h-1.59366755v1.08556351h1.59366755v1.57406709h1.08556351v-1.57406709h1.55446664v-1.08556351h-1.55446664z"/><mask id="b" fill="#fff"><use fill="#fff" fill-rule="evenodd" xlink:href="#a"/></mask></defs><g fill="none" fill-rule="evenodd"><use fill="#006729" xlink:href="#a"/><g mask="url(#b)"><path d="m0 0h100v100h-100z" fill="#1a1446" transform="translate(-39 -38)"/></g></g></svg>
