<svg height="16" viewBox="0 0 16 16" width="16" xmlns="http://www.w3.org/2000/svg" xmlns:xlink="http://www.w3.org/1999/xlink"><defs><path id="a" d="m8 0c4.4109273 0 8 3.5885597 8 8 0 3.9066308-2.8154418 7.166346-6.52302168 7.8614852v-.9408747c3.19558808-.6812877 5.59958958-3.5249455 5.59958958-6.9206105 0-3.90201359-3.1745543-7.07656791-7.0765679-7.07656791-3.90201359 0-7.07656791 3.17455432-7.07656791 7.07656791 0 3.9025266 3.17455432 7.0770809 7.07656791 7.0770809.16365269 0 .32576632-.0076952.48685392-.0189816v.9259971c-.1610876.0097474-.32320123.0164166-.48685392.0164166-4.4114403 0-8-3.5890727-8-8.000513s3.5885597-8 8-8zm.52020008 4.34023342v3.24483776h3.13966912v.92343209h-3.13966912v3.15146853h-.92343209v-3.15146853h-3.25663717v-.92343209h3.25663717v-3.24483776z"/><mask id="b" fill="#fff"><use fill="#fff" fill-rule="evenodd" xlink:href="#a"/></mask></defs><g fill="none" fill-rule="evenodd"><use fill="#13112b" xlink:href="#a"/><g mask="url(#b)"><path d="m0 0h66.666667v66.666667h-66.666667z" fill="#1a1446" transform="translate(-25.333333 -25.333333)"/></g></g></svg>