<svg height="18" viewBox="0 0 18 18" width="18" xmlns="http://www.w3.org/2000/svg"><path d="m411.99963 1772c4.971535 0 9.00037 3.99113 9.00037 8.91613 0 4.92354-4.028835 8.91541-9.00037 8.91541-1.582994 0-3.06987-.40725-4.362292-1.11773l-4.510166 1.28619 1.134196-4.53241c-.80074-1.33233-1.261368-2.88806-1.261368-4.55146 0-4.925 4.029575-8.91613 8.99963-8.91613zm.102034 1.54694c-4.126433 0-7.47135 3.31361-7.47135 7.40215 0 1.56379.490943 3.01331 1.326433 4.2094l-.655823 2.62145 2.567838-.73319c1.202957.82108 2.660998 1.3045 4.232902 1.3045 4.127171 0 7.472088-3.31434 7.472088-7.40216 0-4.08854-3.344917-7.40215-7.472088-7.40215zm-3.731865 3.19723c.313904-.13822.70953-.09051.940948.13471.170318.16628.322305.5641.439924.84826.064919.15716.132893.31222.198576.46798.103107.24206.206214.50727.192467.77459-.013748.27784-.284881.46377-.465891.65671-.10769.11367-.21538.22803-.323069.34169.736261 1.89999 3.507932 2.83525 3.507932 2.83525.215379-.20557.432286-.40974.64461-.61672.163444-.16067.336053-.36204.576636-.42378.327652-.08279.655303.10805.940948.23715.328415.14874.585038.29117.872974.44202.22378.11927.415483.28415.434577.53393.019094.25679-.058046.58936-.171845.82581-.526228 1.09663-2.490609.83843-2.490609.83843-5.473078-.93455-6.560667-5.47825-6.560667-5.47825-.496588-1.42628.873357-2.22116 1.196109-2.38561l.058526-.0286z" fill="#191446" fill-rule="evenodd" transform="translate(-403 -1772)"/></svg>