<svg xmlns="http://www.w3.org/2000/svg" xmlns:xlink="http://www.w3.org/1999/xlink" width="16" height="16" viewBox="0 0 16 16">
    <defs>
        <path id="a" d="M8 0c4.411 0 8 3.589 8 8 0 4.412-3.589 8-8 8s-8-3.588-8-8c0-4.411 3.589-8 8-8zm0 14.667A6.674 6.674 0 0 0 14.667 8 6.675 6.675 0 0 0 8 1.333 6.675 6.675 0 0 0 1.333 8 6.674 6.674 0 0 0 8 14.667zm.8-11.332V7.2h3.865v1.6H8.8v3.865H7.2V8.8H3.335V7.2H7.2V3.335h1.6z"/>
    </defs>
    <g fill="none" fill-rule="evenodd">
        <mask id="b" fill="#fff">
            <use xlink:href="#a"/>
        </mask>
        <use fill="#1A1446" xlink:href="#a"/>
        <g fill="#28A3AF" mask="url(#b)">
            <path d="M0 0h16v16H0z"/>
        </g>
    </g>
</svg>
