<svg width="25" height="25" viewBox="0 0 25 25" fill="none" xmlns="http://www.w3.org/2000/svg">
<g clip-path="url(#clip0_503_57)">
<path fill-rule="evenodd" clip-rule="evenodd" d="M21.3695 3.65234C19.0147 1.30859 15.8947 0.0195312 12.5588 0C5.69069 0 0.117738 5.54688 0.117738 12.3828C0.117738 14.5508 0.70643 16.6992 1.76608 18.5742L0 25L6.59335 23.2617C8.41829 24.2383 10.4591 24.7656 12.5588 24.7656C19.4268 24.7656 24.9998 19.2188 24.9998 12.3828C25.0194 9.12109 23.7243 5.99609 21.3695 3.65234ZM12.5588 22.7148C10.6946 22.7148 8.86962 22.2266 7.29978 21.2695L6.92694 21.0352L3.00233 22.0508L4.04235 18.2617L3.80687 17.8906C2.76685 16.25 2.23703 14.3555 2.23703 12.4219C2.23703 6.73828 6.88769 2.10938 12.5784 2.10938C15.3452 2.10938 17.9355 3.18359 19.8978 5.11719C21.8405 7.05078 22.9197 9.66797 22.9197 12.4023C22.9001 18.0664 18.2691 22.6953 12.5391 22.6953L12.5588 22.7148ZM18.2494 14.9805C17.9355 14.8438 16.4245 14.082 16.1302 13.9648C15.8358 13.8477 15.6396 13.8281 15.4237 14.1016C15.2275 14.4141 14.6192 15.1172 14.4426 15.3125C14.266 15.5078 14.0894 15.5469 13.7754 15.3906C13.4614 15.2539 12.4606 14.9023 11.2833 13.8477C10.361 13.0469 9.73304 12.0312 9.53681 11.6992C9.3602 11.3867 9.51719 11.2305 9.67417 11.0547C9.81153 10.918 9.98814 10.7031 10.1451 10.5078C10.2825 10.332 10.3414 10.1953 10.4591 9.98047C10.5768 9.78516 10.518 9.60937 10.4395 9.43359C10.361 9.29687 9.73304 7.75391 9.47794 7.14844C9.22284 6.54297 8.94812 6.62109 8.77151 6.62109H8.16319C7.92772 6.62109 7.61375 6.69922 7.3194 6.99219C7.02506 7.30469 6.24013 8.06641 6.24013 9.57031C6.24013 11.0742 7.33903 12.5781 7.51563 12.7734C7.65299 12.9687 9.69379 16.0937 12.8335 17.4609C13.5988 17.7734 14.1482 17.9883 14.5996 18.125C15.3649 18.3594 16.032 18.3203 16.5422 18.2422C17.1506 18.1641 18.3672 17.4805 18.6419 16.7578C18.897 16.0352 18.897 15.4297 18.8185 15.2734C18.7596 15.1367 18.5242 15.0781 18.2298 14.9023L18.2494 14.9805Z" fill="#1A1446"/>
</g>
<defs>
<clipPath id="clip0_503_57">
<rect width="25" height="25" fill="white"/>
</clipPath>
</defs>
</svg>
