<?xml version="1.0" encoding="UTF-8"?>
<svg width="19px" height="24px" viewBox="0 0 19 24" version="1.1" xmlns="http://www.w3.org/2000/svg" xmlns:xlink="http://www.w3.org/1999/xlink">
    <!-- Generator: Sketch 63.1 (92452) - https://sketch.com -->
    <title>Icons/Attachments</title>
    <desc>Created with Sketch.</desc>
    <defs>
        <path d="M18.1834501,3.56064593 C17.6662004,2.21290814 16.2913815,1.12605195 14.8660111,0.490547996 C13.4433489,-0.144053252 11.8952107,-0.141345139 10.5438621,0.374099118 L10.5402513,0.375904527 C9.18890266,0.892251489 8.03524634,1.9222373 7.39974238,3.34219144 L0.870480892,17.9398256 C0.384825883,19.0248763 0.385728587,20.2047111 0.780210444,21.2337942 L0.782015853,21.2328915 C1.17740041,22.26378 1.96546142,23.1430142 3.0496095,23.6268638 C4.13375758,24.1098107 5.31630045,24.1080053 6.34809167,23.7135234 L6.34899437,23.7162315 C7.37988289,23.3226524 8.26092246,22.5363968 8.74567476,21.4504433 L14.1023231,9.47697108 C14.4209778,8.76473725 14.4200751,7.9893141 14.1609989,7.31409115 C13.9019227,6.6388682 13.3846731,6.06023463 12.6706338,5.74248265 C11.9556919,5.42382797 11.179366,5.42473067 10.5032404,5.68290416 C9.82621202,5.94198034 9.24757845,6.4583273 8.92892377,7.17146384 L3.99022757,18.2115396 L5.4679548,18.8696112 L10.4057483,7.82953541 C10.5420567,7.52442129 10.7912031,7.30325869 11.0809712,7.19222604 C11.3716421,7.08119339 11.7038373,7.08029069 12.0098542,7.21659906 C12.3167737,7.35381015 12.538839,7.60205388 12.6498716,7.89091931 C12.7609043,8.18068745 12.7609043,8.5128827 12.6245959,8.81889951 L7.26885023,20.7923717 C6.96554153,21.4703028 6.4148918,21.961374 5.77126351,22.2069096 L5.7694581,22.2105205 C5.12853792,22.4551534 4.39012565,22.4551534 3.70948648,22.1518447 C3.0279446,21.848536 2.53597065,21.2996916 2.29043504,20.6596742 L2.29133774,20.6560633 C2.04489942,20.0133378 2.04399671,19.2767309 2.34730542,18.5987998 L8.87656691,4.00116571 C9.33152997,2.98472047 10.1556992,2.24811362 11.1188848,1.87981019 C12.0829732,1.51240947 13.1887862,1.51150676 14.2070369,1.96556711 C15.2234821,2.41872476 16.3031167,3.17519111 16.6723228,4.13747409 C17.0406262,5.10065977 17.0424316,6.20466734 16.5883713,7.21930718 L12.315871,16.7708233 L13.7926955,17.4297975 L18.0651958,7.87828145 C18.7016025,6.45561919 18.699797,4.90838371 18.1834501,3.56064593" id="path-1"></path>
    </defs>
    <g id="Chat" stroke="none" stroke-width="1" fill="none" fill-rule="evenodd">
        <g id="1.3.2-Chat-default-opcion-adjutnar" transform="translate(-27.000000, -560.000000)">
            <g id="Chat-Copy">
                <g id="Icons/Attachments" transform="translate(24.000000, 560.000000)">
                    <g id="Color/Liberty-Blue" transform="translate(2.505558, 0.000000)">
                        <mask id="mask-2" fill="white">
                            <use xlink:href="#path-1"></use>
                        </mask>
                        <use id="Mask" fill="#13112B" xlink:href="#path-1"></use>
                        <g mask="url(#mask-2)" fill="#1A1446" id="Rectangle">
                            <g transform="translate(-40.000000, -38.000000)">
                                <rect x="0" y="0" width="100" height="100"></rect>
                            </g>
                        </g>
                    </g>
                </g>
            </g>
        </g>
    </g>
</svg>