<?xml version="1.0" encoding="UTF-8"?>
<svg width="82px" height="82px" viewBox="0 0 82 82" version="1.1" xmlns="http://www.w3.org/2000/svg" xmlns:xlink="http://www.w3.org/1999/xlink">
    <!-- Generator: Sketch 52.6 (67491) - http://www.bohemiancoding.com/sketch -->
    <title>Group 3</title>
    <desc>Created with Sketch.</desc>
    <g id="Symbols" stroke="none" stroke-width="1" fill="none" fill-rule="evenodd">
        <g id="Components-/-Float-/-Box-/-Chat-" transform="translate(-119.000000, -77.000000)" fill-rule="nonzero">
            <g id="Group-3" transform="translate(119.000000, 77.000000)">
                <circle id="Oval" fill="#F0FBFC" cx="41" cy="41" r="41"></circle>
                <g id="Group-2" transform="translate(18.000000, 18.000000)" fill="#1A1446">
                    <path d="M43.8,0 C44.8895522,0 45.761194,0.871641791 45.761194,1.96119403 L45.761194,31.4880597 C45.761194,32.5776119 44.8895522,33.4492537 43.8,33.4492537 L20.8093582,33.4492537 L24.5149254,29.5268657 L41.8377164,29.5268657 L41.8377164,3.92238806 L3.92129851,3.92238806 L3.92129851,39.8776119 L13.0746269,30.180597 C13.4014925,29.7447761 13.9462687,29.5268657 14.4910448,29.5268657 L19.0671642,29.5268657 L15.361597,33.4492537 L3.37652239,46.0880597 C3.05074627,46.5238806 2.50597015,46.741791 1.96119403,46.741791 C1.63432836,46.741791 1.41641791,46.741791 1.19741791,46.6328358 C0.544776119,46.3059701 0,45.5432836 0,44.780597 L0,1.96119403 C0,0.871641791 0.871641791,0 1.96119403,0 L43.8,0 Z M14.1641791,18.5223881 C12.9606929,18.5223881 11.9850746,17.5467698 11.9850746,16.3432836 C11.9850746,15.1397974 12.9606929,14.1641791 14.1641791,14.1641791 C15.3676653,14.1641791 16.3432836,15.1397974 16.3432836,16.3432836 C16.3432836,17.5467698 15.3676653,18.5223881 14.1641791,18.5223881 Z M22.880597,18.5223881 C21.6771108,18.5223881 20.7014925,17.5467698 20.7014925,16.3432836 C20.7014925,15.1397974 21.6771108,14.1641791 22.880597,14.1641791 C24.0840832,14.1641791 25.0597015,15.1397974 25.0597015,16.3432836 C25.0597015,17.5467698 24.0840832,18.5223881 22.880597,18.5223881 Z M31.5970149,18.5223881 C30.3935288,18.5223881 29.4179104,17.5467698 29.4179104,16.3432836 C29.4179104,15.1397974 30.3935288,14.1641791 31.5970149,14.1641791 C32.8005011,14.1641791 33.7761194,15.1397974 33.7761194,16.3432836 C33.7761194,17.5467698 32.8005011,18.5223881 31.5970149,18.5223881 Z" id="Icon_24-hr-Claims_Assistance"></path>
                </g>
            </g>
        </g>
    </g>
</svg>