<?xml version="1.0" encoding="UTF-8"?>
<svg width="20px" height="16px" viewBox="0 0 20 16" version="1.1" xmlns="http://www.w3.org/2000/svg" xmlns:xlink="http://www.w3.org/1999/xlink">
    <!-- Generator: Sketch 51.1 (57501) - http://www.bohemiancoding.com/sketch -->
    <title>icon</title>
    <desc>Created with Sketch.</desc>
    <defs>
        <path d="M18.6666667,15.3333333 C19.0353333,15.3333333 19.3333333,15.6313333 19.3333333,16 L19.3333333,17.3333333 C19.3333333,17.702 19.0353333,18 18.6666667,18 L1.33333333,18 C0.964666667,18 0.666666667,17.702 0.666666667,17.3333333 L0.666666667,16 C0.666666667,15.6313333 0.964666667,15.3333333 1.33333333,15.3333333 L18.6666667,15.3333333 Z M18.6666667,8.66666667 C19.0353333,8.66666667 19.3333333,8.96533333 19.3333333,9.33333333 L19.3333333,10.6666667 C19.3333333,11.0353333 19.0353333,11.3333333 18.6666667,11.3333333 L1.33333333,11.3333333 C0.964666667,11.3333333 0.666666667,11.0353333 0.666666667,10.6666667 L0.666666667,9.33333333 C0.666666667,8.96533333 0.964666667,8.66666667 1.33333333,8.66666667 L18.6666667,8.66666667 Z M18.6666667,2 C19.0353333,2 19.3333333,2.29866667 19.3333333,2.66666667 L19.3333333,4 C19.3333333,4.368 19.0353333,4.66666667 18.6666667,4.66666667 L1.33333333,4.66666667 C0.964666667,4.66666667 0.666666667,4.368 0.666666667,4 L0.666666667,2.66666667 C0.666666667,2.29866667 0.964666667,2 1.33333333,2 L18.6666667,2 Z" id="path-1"></path>
    </defs>
    <g id="Symbols" stroke="none" stroke-width="1" fill="none" fill-rule="evenodd">
        <g id="Components-/-Head-/-Personas-Default-3" transform="translate(-15.000000, -17.000000)">
            <g id="head">
                <g id="Elements-/-Icon-/-Glyph-/-Menu" transform="translate(15.000000, 15.000000)">
                    <mask id="mask-2" fill="white">
                        <use xlink:href="#path-1"></use>
                    </mask>
                    <use id="Mask" fill="#1A1446" fill-rule="evenodd" xlink:href="#path-1"></use>
                    <g id="Elements-/-Color-/-Secundario-/-Blue-1" mask="url(#mask-2)" fill="#1A1446" fill-rule="evenodd">
                        <rect id="Rectangle" x="0" y="0" width="20" height="20"></rect>
                    </g>
                </g>
            </g>
        </g>
    </g>
</svg>