<?xml version="1.0" encoding="UTF-8"?>
<svg width="22px" height="22px" viewBox="0 0 22 22" version="1.1" xmlns="http://www.w3.org/2000/svg" xmlns:xlink="http://www.w3.org/1999/xlink">
    <!-- Generator: Sketch 52.5 (67469) - http://www.bohemiancoding.com/sketch -->
    <title>icon </title>
    <desc>Created with Sketch.</desc>
    <defs>
        <path d="M1.83333333,19.9833333 L1.83333333,3.85 C1.83333333,3.7488 1.91546667,3.66666667 2.01666667,3.66666667 L5.5,3.66666667 L5.5,4.58333333 C5.5,5.08933333 5.91066667,5.5 6.41666667,5.5 C6.92266667,5.5 7.33333333,5.08933333 7.33333333,4.58333333 L7.33333333,3.66666667 L10.0833333,3.66666667 L10.0833333,4.58333333 C10.0833333,5.08933333 10.494,5.5 11,5.5 C11.506,5.5 11.9166667,5.08933333 11.9166667,4.58333333 L11.9166667,3.66666667 L14.6666667,3.66666667 L14.6666667,4.58333333 C14.6666667,5.08933333 15.0773333,5.5 15.5833333,5.5 C16.0893333,5.5 16.5,5.08933333 16.5,4.58333333 L16.5,3.66666667 L19.9833333,3.66666667 C20.0845333,3.66666667 20.1666667,3.7488 20.1666667,3.85 L20.1666667,16.5 L18.5166667,16.5 C17.4042,16.5 16.5,17.4042 16.5,18.5166667 L16.5,20.1666667 L2.01666667,20.1666667 C1.91546667,20.1666667 1.83333333,20.0845333 1.83333333,19.9833333 Z M22,3.85 L22,17.4166667 C22,17.5391333 21.9750667,17.6586667 21.9288667,17.7686667 C21.8826667,17.8808667 21.8152,17.9813333 21.7308667,18.0656667 L18.0656667,21.7308667 C17.9813333,21.8152 17.8808667,21.8826667 17.7686667,21.9288667 C17.6586667,21.9750667 17.5391333,22 17.4166667,22 L2.01666667,22 C0.9042,22 0,21.0958 0,19.9833333 L0,3.85 C0,2.73753333 0.9042,1.83333333 2.01666667,1.83333333 L5.5,1.83333333 L5.5,0.916666667 C5.5,0.410666667 5.91066667,0 6.41666667,0 C6.92266667,0 7.33333333,0.410666667 7.33333333,0.916666667 L7.33333333,1.83333333 L10.0833333,1.83333333 L10.0833333,0.916666667 C10.0833333,0.410666667 10.494,0 11,0 C11.506,0 11.9166667,0.410666667 11.9166667,0.916666667 L11.9166667,1.83333333 L14.6666667,1.83333333 L14.6666667,0.916666667 C14.6666667,0.410666667 15.0773333,0 15.5833333,0 C16.0893333,0 16.5,0.410666667 16.5,0.916666667 L16.5,1.83333333 L19.9833333,1.83333333 C21.0958,1.83333333 22,2.73753333 22,3.85 Z M9.84052667,11.56144 C10.5283933,11.1859733 10.8737933,10.68364 10.8737933,10.0551733 C10.8737933,9.61150667 10.7051267,9.21330667 10.36926,8.86204 C9.96152667,8.43157333 9.42106,8.21597333 8.74492667,8.21597333 C8.35039333,8.21597333 7.99546,8.29077333 7.67646,8.43890667 C7.35966,8.58704 7.11179333,8.79090667 6.93286,9.05050667 C6.75539333,9.30864 6.62412667,9.65550667 6.53466,10.08964 L7.80332667,10.3045067 C7.83926,9.99137333 7.93899333,9.75377333 8.10546,9.59024 C8.27266,9.42744 8.47139333,9.34604 8.70606,9.34604 C8.94366,9.34604 9.13432667,9.41717333 9.27806,9.56164 C9.42326,9.70464 9.49439333,9.89677333 9.49439333,10.13804 C9.49439333,10.42184 9.39612667,10.64844 9.20106,10.8207733 C9.00526,10.9909067 8.72292667,11.0723067 8.35039333,11.06204 L8.19786,12.1825733 C8.44352667,12.11364 8.65326,12.0791733 8.82852667,12.0791733 C9.09546,12.0791733 9.32352667,12.17964 9.50832667,12.3827733 C9.69532667,12.5851733 9.78699333,12.85944 9.78699333,13.2033733 C9.78699333,13.56784 9.69019333,13.8597067 9.49586,14.0745733 C9.30226,14.28944 9.06392667,14.3965067 8.78086,14.3965067 C8.51612667,14.3965067 8.29172667,14.3077733 8.10546,14.1281067 C7.92066,13.9491733 7.80552667,13.68884 7.76446,13.35004 L6.43346,13.5113733 C6.50166,14.1149067 6.74806,14.6033067 7.17632667,14.97584 C7.60386,15.3505733 8.14139333,15.53684 8.78892667,15.53684 C9.47386,15.53684 10.0465933,15.31464 10.50566,14.87244 C10.9661933,14.42804 11.1957267,13.8919733 11.1957267,13.2627733 C11.1957267,12.82864 11.07326,12.4597733 10.82686,12.1539733 C10.58046,11.84744 10.25266,11.64944 9.84052667,11.56144 Z M13.5866867,9.36327333 C13.1657533,9.69034 12.7763533,9.91327333 12.41702,10.0306067 L12.41702,11.2772733 C13.0982867,11.05214 13.69082,10.7052733 14.1931533,10.23594 L14.1931533,15.4140067 L15.5659533,15.4140067 L15.5659533,8.21634 L14.4512867,8.21634 C14.2950867,8.65340667 14.0061533,9.03547333 13.5866867,9.36327333 Z" id="path-1"></path>
    </defs>
    <g id="DSK-Red-médica" stroke="none" stroke-width="1" fill="none" fill-rule="evenodd">
        <g id="Red-médica-Copy-2" transform="translate(-365.000000, -1270.000000)">
            <g id="Group-13" transform="translate(182.000000, 1132.000000)">
                <g id="info-copy-10" transform="translate(85.000000, 89.000000)">
                    <g id="Group-5">
                        <g id="Elements-/-Icon-/-Glyph-/-Calendar" transform="translate(98.000000, 49.000000)">
                            <mask id="mask-2" fill="white">
                                <use xlink:href="#path-1"></use>
                            </mask>
                            <use id="Mask" fill="#1A1446" fill-rule="evenodd" xlink:href="#path-1"></use>
                            <g id="Elements-/-Color-/-Secundario-/-Blue-1" mask="url(#mask-2)" fill="#1A1446" fill-rule="evenodd">
                                <rect id="Rectangle" x="0" y="0" width="22" height="22"></rect>
                            </g>
                        </g>
                    </g>
                </g>
            </g>
        </g>
    </g>
</svg>