<svg xmlns="http://www.w3.org/2000/svg" width="15.9" height="15.729" viewBox="0 0 15.9 15.729">
  <g id="Icon_Account_Experience_Phone_16px" data-name="Icon/Account Experience/Phone/16px" transform="translate(-0.05 -0.186)">
    <g id="Fill_1" data-name="Fill 1">
      <path id="Fill_1-2" data-name="Fill 1" d="M12.242,15.729c-.092,0-.186,0-.282-.008a15.6,15.6,0,0,1-8.114-3.976A13.749,13.749,0,0,1,.023,4.2a2.949,2.949,0,0,1,.908-2.73C1.494.994,2.759.04,2.812,0l.6.8c-.013.01-1.3.976-1.835,1.436-.334.285-.662.731-.56,1.88A12.814,12.814,0,0,0,4.535,11.02a14.692,14.692,0,0,0,7.481,3.7,3.308,3.308,0,0,0,2.558-.91c.225-.235.329-.4.326-.517,0-.081-.057-.269-.41-.6-.486-.458-1.738-1.7-2.041-2a.734.734,0,0,0-.47-.246.661.661,0,0,0-.494.274l-.3.3c-.189.187-.341.339-.589.618a1.434,1.434,0,0,1-2.162.341c-.7-.547-3.573-3.35-3.982-3.754C3.9,7.682,3.069,6.86,3.908,5.992c.261-.271.615-.574.946-.856.254-.216.494-.42.655-.582.222-.225.116-.356.046-.442-.364-.447-1.813-2-1.828-2.02l.732-.681c.06.065,1.487,1.6,1.871,2.07a1.268,1.268,0,0,1-.11,1.775c-.176.179-.438.4-.718.641-.3.261-.634.54-.874.789a.264.264,0,0,0-.072.1c0,.139.45.584.6.731.651.643,3.281,3.2,3.894,3.677.223.175.381.255.8-.216.266-.3.43-.463.632-.664l.292-.292a1.689,1.689,0,0,1,1.2-.574,1.87,1.87,0,0,1,1.184.538c.3.3,1.541,1.529,2.021,1.983a1.891,1.891,0,0,1,.724,1.306,1.749,1.749,0,0,1-.607,1.233,4.25,4.25,0,0,1-3.051,1.223" transform="translate(0.05 0.186)" fill="none"/>
      <path id="Fill_1-3" data-name="Fill 1" d="M12.242,15.729c-.092,0-.186,0-.282-.008a15.6,15.6,0,0,1-8.114-3.976A13.749,13.749,0,0,1,.023,4.2a2.949,2.949,0,0,1,.908-2.73C1.494.994,2.759.04,2.812,0l.6.8c-.013.01-1.3.976-1.835,1.436-.334.285-.662.731-.56,1.88A12.814,12.814,0,0,0,4.535,11.02a14.692,14.692,0,0,0,7.481,3.7,3.308,3.308,0,0,0,2.558-.91c.225-.235.329-.4.326-.517,0-.081-.057-.269-.41-.6-.486-.458-1.738-1.7-2.041-2a.734.734,0,0,0-.47-.246.661.661,0,0,0-.494.274l-.3.3c-.189.187-.341.339-.589.618a1.434,1.434,0,0,1-2.162.341c-.7-.547-3.573-3.35-3.982-3.754C3.9,7.682,3.069,6.86,3.908,5.992c.261-.271.615-.574.946-.856.254-.216.494-.42.655-.582.222-.225.116-.356.046-.442-.364-.447-1.813-2-1.828-2.02l.732-.681c.06.065,1.487,1.6,1.871,2.07a1.268,1.268,0,0,1-.11,1.775c-.176.179-.438.4-.718.641-.3.261-.634.54-.874.789a.264.264,0,0,0-.072.1c0,.139.45.584.6.731.651.643,3.281,3.2,3.894,3.677.223.175.381.255.8-.216.266-.3.43-.463.632-.664l.292-.292a1.689,1.689,0,0,1,1.2-.574,1.87,1.87,0,0,1,1.184.538c.3.3,1.541,1.529,2.021,1.983a1.891,1.891,0,0,1,.724,1.306,1.749,1.749,0,0,1-.607,1.233,4.25,4.25,0,0,1-3.051,1.223" transform="translate(0.05 0.186)" fill="none"/>
      <path id="Fill_1-4" data-name="Fill 1" d="M12.242,15.729c-.092,0-.186,0-.282-.008a15.6,15.6,0,0,1-8.114-3.976A13.749,13.749,0,0,1,.023,4.2a2.949,2.949,0,0,1,.908-2.73C1.494.994,2.759.04,2.812,0l.6.8c-.013.01-1.3.976-1.835,1.436-.334.285-.662.731-.56,1.88A12.814,12.814,0,0,0,4.535,11.02a14.692,14.692,0,0,0,7.481,3.7,3.308,3.308,0,0,0,2.558-.91c.225-.235.329-.4.326-.517,0-.081-.057-.269-.41-.6-.486-.458-1.738-1.7-2.041-2a.734.734,0,0,0-.47-.246.661.661,0,0,0-.494.274l-.3.3c-.189.187-.341.339-.589.618a1.434,1.434,0,0,1-2.162.341c-.7-.547-3.573-3.35-3.982-3.754C3.9,7.682,3.069,6.86,3.908,5.992c.261-.271.615-.574.946-.856.254-.216.494-.42.655-.582.222-.225.116-.356.046-.442-.364-.447-1.813-2-1.828-2.02l.732-.681c.06.065,1.487,1.6,1.871,2.07a1.268,1.268,0,0,1-.11,1.775c-.176.179-.438.4-.718.641-.3.261-.634.54-.874.789a.264.264,0,0,0-.072.1c0,.139.45.584.6.731.651.643,3.281,3.2,3.894,3.677.223.175.381.255.8-.216.266-.3.43-.463.632-.664l.292-.292a1.689,1.689,0,0,1,1.2-.574,1.87,1.87,0,0,1,1.184.538c.3.3,1.541,1.529,2.021,1.983a1.891,1.891,0,0,1,.724,1.306,1.749,1.749,0,0,1-.607,1.233,4.25,4.25,0,0,1-3.051,1.223" transform="translate(0.05 0.186)" fill="none"/>
      <path id="Fill_1-5" data-name="Fill 1" d="M12.242,15.729c-.092,0-.186,0-.282-.008a15.6,15.6,0,0,1-8.114-3.976A13.749,13.749,0,0,1,.023,4.2a2.949,2.949,0,0,1,.908-2.73C1.494.994,2.759.04,2.812,0l.6.8c-.013.01-1.3.976-1.835,1.436-.334.285-.662.731-.56,1.88A12.814,12.814,0,0,0,4.535,11.02a14.692,14.692,0,0,0,7.481,3.7,3.308,3.308,0,0,0,2.558-.91c.225-.235.329-.4.326-.517,0-.081-.057-.269-.41-.6-.486-.458-1.738-1.7-2.041-2a.734.734,0,0,0-.47-.246.661.661,0,0,0-.494.274l-.3.3c-.189.187-.341.339-.589.618a1.434,1.434,0,0,1-2.162.341c-.7-.547-3.573-3.35-3.982-3.754C3.9,7.682,3.069,6.86,3.908,5.992c.261-.271.615-.574.946-.856.254-.216.494-.42.655-.582.222-.225.116-.356.046-.442-.364-.447-1.813-2-1.828-2.02l.732-.681c.06.065,1.487,1.6,1.871,2.07a1.268,1.268,0,0,1-.11,1.775c-.176.179-.438.4-.718.641-.3.261-.634.54-.874.789a.264.264,0,0,0-.072.1c0,.139.45.584.6.731.651.643,3.281,3.2,3.894,3.677.223.175.381.255.8-.216.266-.3.43-.463.632-.664l.292-.292a1.689,1.689,0,0,1,1.2-.574,1.87,1.87,0,0,1,1.184.538c.3.3,1.541,1.529,2.021,1.983a1.891,1.891,0,0,1,.724,1.306,1.749,1.749,0,0,1-.607,1.233,4.25,4.25,0,0,1-3.051,1.223" transform="translate(0.05 0.186)" fill="none"/>
      <path id="Fill_1-6" data-name="Fill 1" d="M12.242,15.729c-.092,0-.186,0-.282-.008a15.6,15.6,0,0,1-8.114-3.976A13.749,13.749,0,0,1,.023,4.2a2.949,2.949,0,0,1,.908-2.73C1.494.994,2.759.04,2.812,0l.6.8c-.013.01-1.3.976-1.835,1.436-.334.285-.662.731-.56,1.88A12.814,12.814,0,0,0,4.535,11.02a14.692,14.692,0,0,0,7.481,3.7,3.308,3.308,0,0,0,2.558-.91c.225-.235.329-.4.326-.517,0-.081-.057-.269-.41-.6-.486-.458-1.738-1.7-2.041-2a.734.734,0,0,0-.47-.246.661.661,0,0,0-.494.274l-.3.3c-.189.187-.341.339-.589.618a1.434,1.434,0,0,1-2.162.341c-.7-.547-3.573-3.35-3.982-3.754C3.9,7.682,3.069,6.86,3.908,5.992c.261-.271.615-.574.946-.856.254-.216.494-.42.655-.582.222-.225.116-.356.046-.442-.364-.447-1.813-2-1.828-2.02l.732-.681c.06.065,1.487,1.6,1.871,2.07a1.268,1.268,0,0,1-.11,1.775c-.176.179-.438.4-.718.641-.3.261-.634.54-.874.789a.264.264,0,0,0-.072.1c0,.139.45.584.6.731.651.643,3.281,3.2,3.894,3.677.223.175.381.255.8-.216.266-.3.43-.463.632-.664l.292-.292a1.689,1.689,0,0,1,1.2-.574,1.87,1.87,0,0,1,1.184.538c.3.3,1.541,1.529,2.021,1.983a1.891,1.891,0,0,1,.724,1.306,1.749,1.749,0,0,1-.607,1.233,4.25,4.25,0,0,1-3.051,1.223" transform="translate(0.05 0.186)" fill="none"/>
      <path id="Fill_1-7" data-name="Fill 1" d="M12.242,15.729c-.092,0-.186,0-.282-.008a15.6,15.6,0,0,1-8.114-3.976A13.749,13.749,0,0,1,.023,4.2a2.949,2.949,0,0,1,.908-2.73C1.494.994,2.759.04,2.812,0l.6.8c-.013.01-1.3.976-1.835,1.436-.334.285-.662.731-.56,1.88A12.814,12.814,0,0,0,4.535,11.02a14.692,14.692,0,0,0,7.481,3.7,3.308,3.308,0,0,0,2.558-.91c.225-.235.329-.4.326-.517,0-.081-.057-.269-.41-.6-.486-.458-1.738-1.7-2.041-2a.734.734,0,0,0-.47-.246.661.661,0,0,0-.494.274l-.3.3c-.189.187-.341.339-.589.618a1.434,1.434,0,0,1-2.162.341c-.7-.547-3.573-3.35-3.982-3.754C3.9,7.682,3.069,6.86,3.908,5.992c.261-.271.615-.574.946-.856.254-.216.494-.42.655-.582.222-.225.116-.356.046-.442-.364-.447-1.813-2-1.828-2.02l.732-.681c.06.065,1.487,1.6,1.871,2.07a1.268,1.268,0,0,1-.11,1.775c-.176.179-.438.4-.718.641-.3.261-.634.54-.874.789a.264.264,0,0,0-.072.1c0,.139.45.584.6.731.651.643,3.281,3.2,3.894,3.677.223.175.381.255.8-.216.266-.3.43-.463.632-.664l.292-.292a1.689,1.689,0,0,1,1.2-.574,1.87,1.87,0,0,1,1.184.538c.3.3,1.541,1.529,2.021,1.983a1.891,1.891,0,0,1,.724,1.306,1.749,1.749,0,0,1-.607,1.233,4.25,4.25,0,0,1-3.051,1.223" transform="translate(0.05 0.186)"/>
    </g>
  </g>
</svg>
