<?xml version="1.0" encoding="UTF-8"?>
<svg width="16px" height="16px" viewBox="0 0 16 16" version="1.1" xmlns="http://www.w3.org/2000/svg" xmlns:xlink="http://www.w3.org/1999/xlink">
    <!-- Generator: Sketch 52.5 (67469) - http://www.bohemiancoding.com/sketch -->
    <title>icon</title>
    <desc>Created with Sketch.</desc>
    <defs>
        <path d="M10.0373742,15.9797333 C9.61764089,15.9797333 9.19044089,15.9264 8.76857423,15.8229333 C8.29070756,15.7050667 7.81230756,15.5226667 7.34617423,15.28 C6.88964089,15.0410667 6.44590756,14.7482667 6.02724089,14.4069333 C5.78457423,14.232 5.51950756,14.0245333 5.24004089,13.792 C5.00377423,13.5973333 4.73017423,13.36 4.40324089,13.0672 C4.08804089,12.7877333 3.75577423,12.4672 3.38724089,12.0901333 C3.02297423,11.7216 2.72697423,11.4026667 2.48804089,11.1184 C2.25070756,10.8362667 2.05710756,10.5946667 1.91044089,10.4 C1.73817423,10.1706667 1.60484089,9.97333333 1.50190756,9.79626667 C1.27097423,9.48906667 1.06670756,9.176 0.895507559,8.86613333 C0.712574226,8.53493333 0.554174226,8.19626667 0.426174226,7.8592 C0.253907559,7.41013333 0.131240892,6.95093333 0.0608408923,6.49386667 C-0.0106257743,6.01813333 -0.0186257743,5.5552 0.0341742257,5.1152 C0.0864408923,4.65546667 0.210174226,4.21066667 0.402174226,3.79626667 C0.595774226,3.3712 0.870974226,2.97653333 1.21764089,2.62666667 L1.69284089,2.1408 C1.69977423,2.13386667 1.70670756,2.1264 1.71417423,2.12 C1.85604089,1.98773333 2.01230756,1.888 2.18030756,1.824 C2.42510756,1.73013333 2.68697423,1.70986667 2.94884089,1.7648 C3.21444089,1.81866667 3.45070756,1.94826667 3.64697423,2.1488 L5.73550756,4.25973333 C5.87844089,4.41066667 5.97924089,4.56853333 6.04484089,4.73973333 C6.13924089,4.9888 6.16324089,5.2464 6.11470756,5.50613333 C6.06564089,5.77706667 5.93924089,6.0176 5.74030756,6.2176 L4.79577423,7.1824 C4.75417423,7.224 4.74457423,7.2528 4.74030756,7.27786667 C4.73124089,7.3312 4.73550756,7.37333333 4.75310756,7.42026667 C4.76110756,7.44106667 4.79737423,7.49813333 4.83364089,7.53546667 L8.33977423,11.0949333 C8.37604089,11.1317333 8.41070756,11.1557333 8.43470756,11.16 C8.45070756,11.1626667 8.46350756,11.1642667 8.47577423,11.1642667 C8.50297423,11.1642667 8.53017423,11.1578667 8.56004089,11.1461333 C8.58030756,11.1392 8.60217423,11.1232 8.62617423,11.0986667 L9.56857423,10.1386667 C9.71684089,9.992 9.87684089,9.888 10.0517742,9.82133333 C10.2928409,9.72906667 10.5531076,9.70773333 10.8155076,9.76213333 C11.0843076,9.816 11.3189742,9.94293333 11.5152409,10.1392 L13.6064409,12.2576 C13.7435076,12.3984 13.8475076,12.56 13.9163076,12.7397333 C14.0101742,12.984 14.0331076,13.2378667 13.9867076,13.4965333 C13.9360409,13.7648 13.8144409,13.9994667 13.6261742,14.1994667 L13.1349742,14.7077333 C12.9040409,14.9413333 12.6624409,15.1381333 12.4112409,15.2965333 C12.1680409,15.4538667 11.9013742,15.5882667 11.6229742,15.6944 C11.1797742,15.8629333 10.7061742,15.9589333 10.2165742,15.9765333 C10.1563076,15.9786667 10.0965742,15.9797333 10.0373742,15.9797333 Z M2.61124089,3.06506667 L2.14670756,3.54133333 C1.90084089,3.7888 1.71897423,4.048 1.58617423,4.33973333 C1.45124089,4.63093333 1.36537423,4.94186667 1.32804089,5.2672 C1.28857423,5.5952 1.29550756,5.94133333 1.34937423,6.29866667 C1.40484089,6.66133333 1.50404089,7.03093333 1.64324089,7.39413333 C1.74990756,7.67466667 1.88217423,7.95786667 2.03630756,8.23573333 C2.18297423,8.5024 2.36110756,8.77333333 2.56537423,9.04213333 C2.58190756,9.06506667 2.59844089,9.08906667 2.61284089,9.11413333 C2.69177423,9.2528 2.80270756,9.41706667 2.95257423,9.61706667 C3.08430756,9.79306667 3.26457423,10.016 3.48537423,10.2794667 C3.70190756,10.5365333 3.97390756,10.8298667 4.31630756,11.1765333 C4.66670756,11.5349333 4.97710756,11.8341333 5.26990756,12.0944 C5.58617423,12.3776 5.84804089,12.6037333 6.07150756,12.7893333 C6.33604089,13.0085333 6.58190756,13.2005333 6.80537423,13.3610667 C6.81604089,13.3690667 6.82670756,13.3776 6.83737423,13.3861333 C7.19150756,13.6757333 7.56537423,13.9242667 7.94777423,14.1242667 C8.32217423,14.3184 8.70350756,14.464 9.08057423,14.5578667 C9.44537423,14.6474667 9.81177423,14.6858667 10.1696409,14.6746667 C10.5195076,14.6608 10.8437742,14.5962667 11.1584409,14.4768 C11.3531076,14.4021333 11.5387076,14.3082667 11.7104409,14.1984 C11.8837742,14.088 12.0437742,13.9578667 12.2032409,13.7962667 L12.6832409,13.2997333 C12.7013742,13.28 12.7040409,13.2672 12.7056409,13.2586667 C12.7093742,13.2384 12.7061742,13.2224 12.6992409,13.2058667 C12.6944409,13.192 12.6885742,13.1829333 12.6768409,13.1712 L10.5904409,11.0570667 C10.5760409,11.0426667 10.5685742,11.0410667 10.5573742,11.0389333 C10.5445742,11.0362667 10.5365742,11.0357333 10.5317742,11.0357333 C10.5120409,11.0405333 10.5024409,11.0474667 10.4907076,11.0586667 L9.54990756,12.0181333 C9.38937423,12.1776 9.21444089,12.2922667 9.02510756,12.3642667 C8.84697423,12.432 8.66190756,12.4672 8.47577423,12.4672 C8.38617423,12.4672 8.29550756,12.4586667 8.20590756,12.4421333 C7.91257423,12.3909333 7.64430756,12.2453333 7.41177423,12.0101333 L3.90084089,8.44533333 C3.82297423,8.36533333 3.63950756,8.15733333 3.53550756,7.88533333 C3.43204089,7.61386667 3.40590756,7.3344 3.45710756,7.05226667 C3.50724089,6.75946667 3.64484089,6.49386667 3.86564089,6.26933333 L4.81230756,5.30186667 C4.83044089,5.28373333 4.83150756,5.27893333 4.83310756,5.26986667 C4.83737423,5.248 4.83737423,5.23146667 4.82670756,5.20426667 C4.82297423,5.192 4.80750756,5.176 4.79950756,5.16693333 L2.71684089,3.0624 C2.69870756,3.04373333 2.69284089,3.04266667 2.68537423,3.04106667 L2.66137423,3.03786667 C2.64324089,3.04213333 2.62884089,3.0496 2.61124089,3.06506667 Z M16.0019609,8.00213333 L14.6686276,8.00213333 C14.6686276,4.3248 11.6771609,1.33333333 7.99982756,1.33333333 L7.99982756,0 C12.4126276,0 16.0019609,3.58986667 16.0019609,8.00213333 Z M14.0061209,8.00213333 L12.6727876,8.00213333 C12.6727876,5.4256 10.5762542,3.3296 7.99972089,3.3296 L7.99972089,1.99626667 C11.3117209,1.99626667 14.0061209,4.69066667 14.0061209,8.00213333 Z" id="path-1"></path>
    </defs>
    <g id="DSK--Header-y-footer" stroke="none" stroke-width="1" fill="none" fill-rule="evenodd">
        <g id="Liberty2_Pago1-1-Copy-5" transform="translate(-1276.000000, -425.000000)">
            <g id="Group-14-Copy" transform="translate(0.000000, 336.000000)">
                <g id="Group-4" transform="translate(1222.000000, 79.000000)">
                    <g id="Group-10" transform="translate(44.000000, 0.000000)">
                        <g id="Elements-/-Icon-/-Glyph-/-Call-Outline" transform="translate(18.000000, 18.000000) scale(-1, 1) translate(-18.000000, -18.000000) translate(10.000000, 10.000000)">
                            <mask id="mask-2" fill="white">
                                <use xlink:href="#path-1"></use>
                            </mask>
                            <use id="Mask" fill="#1A1446" fill-rule="evenodd" xlink:href="#path-1"></use>
                            <g id="Elements-/-Color-/-Secundario-/-Blue-1" mask="url(#mask-2)" fill="#1A1446" fill-rule="evenodd">
                                <rect id="Rectangle" x="0" y="0" width="16" height="16"></rect>
                            </g>
                        </g>
                    </g>
                </g>
            </g>
        </g>
    </g>
</svg>