<?xml version="1.0" encoding="UTF-8"?>
<svg width="22px" height="22px" viewBox="0 0 22 22" version="1.1" xmlns="http://www.w3.org/2000/svg" xmlns:xlink="http://www.w3.org/1999/xlink">
    <!-- Generator: Sketch 52.5 (67469) - http://www.bohemiancoding.com/sketch -->
    <title>icon </title>
    <desc>Created with Sketch.</desc>
    <defs>
        <path d="M13.8013896,21.9721333 C13.2242562,21.9721333 12.6368562,21.8988 12.0567896,21.7565333 C11.3997229,21.5944667 10.7419229,21.3436667 10.1009896,21.01 C9.47325623,20.6814667 8.86312289,20.2788667 8.28745623,19.8095333 C7.95378956,19.569 7.58932289,19.2837333 7.20505623,18.964 C6.88018956,18.6963333 6.50398956,18.37 6.05445623,17.9674 C5.62105623,17.5831333 5.16418956,17.1424 4.65745623,16.6239333 C4.15658956,16.1172 3.74958956,15.6786667 3.42105623,15.2878 C3.09472289,14.8998667 2.82852289,14.5676667 2.62685623,14.3 C2.38998956,13.9846667 2.20665623,13.7133333 2.06512289,13.4698667 C1.74758956,13.0474667 1.46672289,12.617 1.23132289,12.1909333 C0.97978956,11.7355333 0.76198956,11.2698667 0.58598956,10.8064 C0.349122894,10.1889333 0.180456227,9.55753333 0.083656227,8.92906667 C-0.0146104397,8.27493333 -0.0256104397,7.6384 0.0469895603,7.0334 C0.118856227,6.40126667 0.28898956,5.78966667 0.55298956,5.21986667 C0.81918956,4.6354 1.19758956,4.09273333 1.67425623,3.61166667 L2.32765623,2.9436 C2.33718956,2.93406667 2.34672289,2.9238 2.35698956,2.915 C2.55205623,2.73313333 2.76692289,2.596 2.99792289,2.508 C3.33452289,2.37893333 3.69458956,2.35106667 4.05465623,2.4266 C4.41985623,2.50066667 4.74472289,2.67886667 5.01458956,2.9546 L7.88632289,5.85713333 C8.08285623,6.06466667 8.22145623,6.28173333 8.31165623,6.51713333 C8.44145623,6.8596 8.47445623,7.2138 8.40772289,7.57093333 C8.34025623,7.94346667 8.16645623,8.2742 7.89292289,8.5492 L6.59418956,9.8758 C6.53698956,9.933 6.52378956,9.9726 6.51792289,10.0070667 C6.50545623,10.0804 6.51132289,10.1383333 6.53552289,10.2028667 C6.54652289,10.2314667 6.59638956,10.3099333 6.64625623,10.3612667 L11.4671896,15.2555333 C11.5170562,15.3061333 11.5647229,15.3391333 11.5977229,15.345 C11.6197229,15.3486667 11.6373229,15.3508667 11.6541896,15.3508667 C11.6915896,15.3508667 11.7289896,15.3420667 11.7700562,15.3259333 C11.7979229,15.3164 11.8279896,15.2944 11.8609896,15.2606667 L13.1567896,13.9406667 C13.3606562,13.739 13.5806562,13.596 13.8211896,13.5043333 C14.1526562,13.3774667 14.5105229,13.3481333 14.8713229,13.4229333 C15.2409229,13.497 15.5635896,13.6715333 15.8334562,13.9414 L18.7088562,16.8542 C18.8973229,17.0478 19.0403229,17.27 19.1349229,17.5171333 C19.2639896,17.853 19.2955229,18.2020667 19.2317229,18.5577333 C19.1620562,18.9266 18.9948562,19.2492667 18.7359896,19.5242667 L18.0605896,20.2231333 C17.7430562,20.5443333 17.4108562,20.8149333 17.0654562,21.0327333 C16.7310562,21.2490667 16.3643896,21.4338667 15.9815896,21.5798 C15.3721896,21.8115333 14.7209896,21.9435333 14.0477896,21.9677333 C13.9649229,21.9706667 13.8827896,21.9721333 13.8013896,21.9721333 Z M3.59045623,4.21446667 L2.95172289,4.86933333 C2.61365623,5.2096 2.36358956,5.566 2.18098956,5.96713333 C1.99545623,6.36753333 1.87738956,6.79506667 1.82605623,7.2424 C1.77178956,7.6934 1.78132289,8.16933333 1.85538956,8.66066667 C1.93165623,9.15933333 2.06805623,9.66753333 2.25945623,10.1669333 C2.40612289,10.5526667 2.58798956,10.9420667 2.79992289,11.3241333 C3.00158956,11.6908 3.24652289,12.0633333 3.52738956,12.4329333 C3.55012289,12.4644667 3.57285623,12.4974667 3.59265623,12.5319333 C3.70118956,12.7226 3.85372289,12.9484667 4.05978956,13.2234667 C4.24092289,13.4654667 4.48878956,13.772 4.79238956,14.1342667 C5.09012289,14.4877333 5.46412289,14.8910667 5.93492289,15.3677333 C6.41672289,15.8605333 6.84352289,16.2719333 7.24612289,16.6298 C7.68098956,17.0192 8.04105623,17.3301333 8.34832289,17.5853333 C8.71205623,17.8867333 9.05012289,18.1507333 9.35738956,18.3714667 C9.37205623,18.3824667 9.38672289,18.3942 9.40138956,18.4059333 C9.88832289,18.8041333 10.4023896,19.1458667 10.9281896,19.4208667 C11.4429896,19.6878 11.9673229,19.888 12.4857896,20.0170667 C12.9873896,20.1402667 13.4911896,20.1930667 13.9832562,20.1776667 C14.4643229,20.1586 14.9101896,20.0698667 15.3428562,19.9056 C15.6105229,19.8029333 15.8657229,19.6738667 16.1018562,19.5228 C16.3401896,19.371 16.5601896,19.1920667 16.7794562,18.9698667 L17.4394562,18.2871333 C17.4643896,18.26 17.4680562,18.2424 17.4702562,18.2306667 C17.4753896,18.2028 17.4709896,18.1808 17.4614562,18.1580667 C17.4548562,18.139 17.4467896,18.1265333 17.4306562,18.1104 L14.5618562,15.2034667 C14.5420562,15.1836667 14.5317896,15.1814667 14.5163896,15.1785333 C14.4987896,15.1748667 14.4877896,15.1741333 14.4811896,15.1741333 C14.4540562,15.1807333 14.4408562,15.1902667 14.4247229,15.2056667 L13.1311229,16.5249333 C12.9103896,16.7442 12.6698562,16.9018667 12.4095229,17.0008667 C12.1645896,17.094 11.9101229,17.1424 11.6541896,17.1424 C11.5309896,17.1424 11.4063229,17.1306667 11.2831229,17.1079333 C10.8797896,17.0375333 10.5109229,16.8373333 10.1911896,16.5139333 L5.36365623,11.6123333 C5.25658956,11.5023333 5.00432289,11.2163333 4.86132289,10.8423333 C4.71905623,10.4690667 4.68312289,10.0848 4.75352289,9.69686667 C4.82245623,9.29426667 5.01165623,8.92906667 5.31525623,8.62033333 L6.61692289,7.29006667 C6.64185623,7.26513333 6.64332289,7.25853333 6.64552289,7.24606667 C6.65138956,7.216 6.65138956,7.19326667 6.63672289,7.15586667 C6.63158956,7.139 6.61032289,7.117 6.59932289,7.10453333 L3.73565623,4.2108 C3.71072289,4.18513333 3.70265623,4.18366667 3.69238956,4.18146667 L3.65938956,4.17706667 C3.63445623,4.18293333 3.61465623,4.1932 3.59045623,4.21446667 Z M22.0026962,11.0029333 L20.1693629,11.0029333 C20.1693629,5.9466 16.0560962,1.83333333 10.9997629,1.83333333 L10.9997629,0 C17.0673629,0 22.0026962,4.93606667 22.0026962,11.0029333 Z M19.2584162,11.0029333 L17.4250829,11.0029333 C17.4250829,7.4602 14.5423496,4.5782 10.9996162,4.5782 L10.9996162,2.74486667 C15.5536162,2.74486667 19.2584162,6.44966667 19.2584162,11.0029333 Z" id="path-1"></path>
    </defs>
    <g id="DSK-Red-médica" stroke="none" stroke-width="1" fill="none" fill-rule="evenodd">
        <g id="Red-médica-Copy-2" transform="translate(-365.000000, -1270.000000)">
            <g id="Group-13" transform="translate(182.000000, 1132.000000)">
                <g id="info-copy-10" transform="translate(85.000000, 89.000000)">
                    <g id="Group-5">
                        <g id="Elements-/-Icon-/-Glyph-/-Call-Outline" transform="translate(98.000000, 49.000000)">
                            <mask id="mask-2" fill="white">
                                <use xlink:href="#path-1"></use>
                            </mask>
                            <use id="Mask" fill="#1A1446" fill-rule="evenodd" xlink:href="#path-1"></use>
                            <g id="Elements-/-Color-/-Secundario-/-Blue-1" mask="url(#mask-2)" fill="#1A1446" fill-rule="evenodd">
                                <rect id="Rectangle" x="0" y="0" width="22" height="22"></rect>
                            </g>
                        </g>
                    </g>
                </g>
            </g>
        </g>
    </g>
</svg>