<?xml version="1.0" encoding="UTF-8"?>
<svg width="35px" height="35px" viewBox="0 0 35 35" version="1.1" xmlns="http://www.w3.org/2000/svg" xmlns:xlink="http://www.w3.org/1999/xlink">
    <!-- Generator: Sketch 52.5 (67469) - http://www.bohemiancoding.com/sketch -->
    <title>icon</title>
    <desc>Created with Sketch.</desc>
    <defs>
        <path d="M30.7508852,20.5 C30.7508852,14.84815 26.1527352,10.25 20.5008852,10.25 L20.5008852,8.2 C27.2827977,8.2 32.8008852,13.7180875 32.8008852,20.5 L30.7508852,20.5 Z M20.5008852,2.05 C30.6745227,2.05 38.9508852,10.3263625 38.9508852,20.5 L36.9008852,20.5 C36.9008852,11.4569375 29.5439477,4.1 20.5008852,4.1 L20.5008852,2.05 Z M36.4108909,31.31375 C36.8716284,32.6975 36.1546409,34.08125 34.2583909,35.465 L34.1558909,35.51625 C34.0528784,35.5675 33.7966284,35.7725 33.5921409,35.875 C33.4378784,35.9775 32.9253784,36.23375 32.9253784,36.23375 C31.6958909,36.7975 30.5171409,37.0025 29.3896409,37.0025 C27.8521409,37.0025 26.5191284,36.695 25.5458909,36.43875 C20.8308909,35.26 16.3716284,32.9025 12.7333909,29.6225 C10.2733909,27.41875 8.12089087,24.44625 6.48089087,21.0125 C5.04589087,17.98875 2.89339087,12.4025 4.94339087,9.1225 C5.14839087,8.815 5.45589087,8.5075 5.76339087,8.2 L5.96839087,8.04625 C5.96839087,8.04625 5.86537837,8.0975 5.76339087,8.2 L5.81464087,8.14875 L6.22464087,7.84125 L9.70912837,5.125 L10.6218909,6.130525 L10.6290659,6.1248875 L10.7213159,6.2402 L10.8376534,6.3688375 L10.8289409,6.3749875 L10.8904409,6.45135 L7.02516587,9.44435 L7.02209087,9.4407625 C6.92522837,9.5227625 6.75712837,9.66575 6.68589087,9.7375 C6.61055337,9.82565 6.57929087,9.8569125 6.51779087,9.92405 C6.46244087,9.9850375 6.42707837,10.0475625 6.37787837,10.09625 C5.25089087,11.94125 5.86537837,15.6825 8.01839087,20.14125 C9.55589087,23.37 11.6058909,26.1375 13.8608909,28.1875 C17.2946409,31.2625 21.4458909,33.46625 25.9046409,34.59375 C27.9028784,35.10625 30.0046409,35.51625 31.9521409,34.5425 C31.9521409,34.5425 32.3621409,34.28625 32.5153784,34.235 C32.5671409,34.18375 32.7208909,34.08125 32.8233909,33.97875 C32.8746409,33.97875 32.9253784,33.9275 32.9771409,33.87625 C34.1558909,33.05625 34.6171409,32.33875 34.4628784,31.82625 C34.3608909,31.57 33.8996409,31.21125 33.5921409,30.90375 C33.4378784,30.75 33.2841284,30.6475 33.1308909,30.49375 C32.8746409,30.2375 32.6183909,30.0325 32.3621409,29.77625 C32.1058909,29.52 31.7983909,29.26375 31.4903784,28.95625 C31.2858909,28.75125 31.0296409,28.495 30.7733909,28.1875 C30.2608909,27.62375 29.0308909,26.29125 28.5183909,26.24 C27.8003784,26.1375 27.3396409,26.65 26.7246409,27.3675 C26.5708909,27.52125 26.4683909,27.675 26.3146409,27.82875 C26.2628784,27.93125 26.0583909,28.13625 25.8021409,28.3925 C25.6483909,28.54625 25.5458909,28.5975 25.4941284,28.64875 C25.4941284,28.64875 25.4433909,28.7 25.3921409,28.75125 C25.3403784,28.8025 25.2378784,28.905 25.1871409,28.95625 C24.8796409,29.315 24.4183909,29.725 23.5983909,29.98125 C21.9066284,30.4425 20.6771409,29.16125 19.7546409,28.1875 C19.6008909,28.03375 19.4983909,27.88 19.3446409,27.7775 L17.2946409,25.77875 C15.8083909,24.2925 14.3216284,22.8575 12.8358909,21.4225 C12.7333909,21.32 12.6308909,21.2175 12.5278784,21.115 C12.1183909,20.75625 11.6058909,20.295 11.4008909,19.68 C10.7858909,17.9375 12.0153784,16.9125 12.6308909,16.4 L12.7333909,16.2975 L12.7841284,16.24625 C12.8871409,16.14375 13.0403784,16.04125 13.0921409,15.99 C13.2458909,15.8875 13.4508909,15.6825 13.6046409,15.58 L14.3733909,14.965 C15.2446409,14.29875 15.5521409,13.99125 15.4496409,13.58125 C15.3983909,13.27375 14.8341284,12.76125 14.4758909,12.45375 L14.2708909,12.3 C13.8608909,11.89 13.3996409,11.48 12.9896409,11.07 C12.3746409,10.50625 11.7591284,9.9425 11.1446409,9.3275 C11.0421409,9.17375 10.8883909,9.02 10.7341284,8.86625 L10.6833909,8.815 L12.1183909,7.585 C12.2716284,7.6875 12.3746409,7.84125 12.4771409,7.94375 C13.0921409,8.55875 13.7071409,9.1225 14.3216284,9.68625 C14.7833909,10.09625 15.1933909,10.50625 15.6546409,10.91625 L15.8083909,11.07 C16.3716284,11.63375 17.0896409,12.3 17.2946409,13.12 C17.7046409,14.76 16.4746409,15.73375 15.5521409,16.45125 C15.2958909,16.65625 15.0903784,16.81 14.8858909,17.015 C14.8341284,17.015 14.8341284,17.06625 14.7833909,17.06625 C14.6296409,17.16875 14.4758909,17.27125 14.4246409,17.3225 C14.3216284,17.47625 14.0653784,17.63 13.9633909,17.7325 L13.8608909,17.835 C13.1946409,18.39875 13.0403784,18.655 13.1946409,19.01375 C13.2966284,19.21875 13.6046409,19.475 13.8608909,19.73125 L14.2196409,20.09 C15.6546409,21.525 17.1403784,22.96 18.6778784,24.44625 L20.7278784,26.445 C20.8816284,26.59875 21.0358909,26.7525 21.1896409,26.90625 C21.8046409,27.5725 22.5733909,28.34125 23.1371409,28.1875 C23.4958909,28.085 23.7003784,27.88 23.9566284,27.62375 C24.0083909,27.52125 24.1108909,27.47 24.2128784,27.3675 C24.3671409,27.265 24.4691284,27.11125 24.6233909,27.00875 C24.8796409,26.80375 24.9816284,26.65 24.9816284,26.65 C24.9816284,26.59875 25.0333909,26.5475 25.0333909,26.5475 C25.1358909,26.445 25.2896409,26.29125 25.3921409,26.1375 C26.0066284,25.36875 27.0833909,24.13875 28.8771409,24.34375 C29.9528784,24.4975 31.0296409,25.5225 32.2591284,26.90625 C32.5153784,27.21375 32.7716284,27.47 32.9253784,27.62375 C33.2333909,27.93125 33.5403784,28.1875 33.7966284,28.44375 C34.0528784,28.7 34.3608909,28.95625 34.6171409,29.2125 C34.7708909,29.315 34.8733909,29.46875 35.0271409,29.57125 C35.5903784,30.0325 36.1546409,30.59625 36.4108909,31.31375 Z" id="path-1"></path>
    </defs>
    <g id="DSK-Asistencias" stroke="none" stroke-width="1" fill="none" fill-rule="evenodd">
        <g id="Asistencias-Copy" transform="translate(-1040.000000, -845.000000)">
            <g id="Group-8" transform="translate(929.000000, 799.000000)">
                <g id="Group-Copy-2" transform="translate(98.000000, 32.000000)">
                    <g id="Elements-/-Icon-/-Liberty-/-Call" transform="translate(9.000000, 12.000000)">
                        <mask id="mask-2" fill="white">
                            <use xlink:href="#path-1"></use>
                        </mask>
                        <use id="Combined-Shape" fill="#171343" fill-rule="evenodd" xlink:href="#path-1"></use>
                        <g id="Elements-/-Color-/-Principal-/-Yellow-4-Copy-2" mask="url(#mask-2)" fill="#28A3AF" fill-rule="evenodd">
                            <rect id="Rectangle" x="0" y="0" width="41" height="41"></rect>
                        </g>
                    </g>
                </g>
            </g>
        </g>
    </g>
</svg>