<?xml version="1.0" encoding="UTF-8"?>
<svg viewBox="0 0 58 59" version="1.1" xmlns="http://www.w3.org/2000/svg" xmlns:xlink="http://www.w3.org/1999/xlink">
    <!-- Generator: Sketch 55.1 (78136) - https://sketchapp.com -->
    <title>Group 9</title>
    <desc>Created with Sketch.</desc>
    <g id="DSK-Cotizadores" stroke="none" stroke-width="1" fill="none" fill-rule="evenodd">
        <g id="Home-personas-New-Copy-14" transform="translate(-437.000000, -914.000000)">
            <g id="Group-16" transform="translate(0.000000, 869.000000)">
                <g id="Group-15" transform="translate(416.000000, 24.000000)">
                    <g id="Group-11">
                        <g id="Group-9" transform="translate(21.311475, 21.311475)">
                            <g id="Group-8" transform="translate(4.098361, 36.065574)" fill="#99E5EA">
                                <rect id="Rectangle" x="0" y="0" width="10.6557377" height="5.73770492"></rect>
                                <rect id="Rectangle-Copy-4" x="40.1639344" y="0" width="10.6557377" height="5.73770492"></rect>
                            </g>
                            <g id="Group-7">
                                <polygon id="Fill-2259" fill="#13112B" points="8.28740085 51.1092993 49.732853 51.1092993 49.732853 48.1356346 8.28740085 48.1356346"></polygon>
                                <path d="M54.6410894,29.2746404 L51.1098625,29.2746404 L50.1805923,28.4392359 L49.3433104,26.0231333 L54.7349551,26.0231333 L54.6410894,29.2746404 Z M52.6905605,40.7975912 L45.2545214,40.7975912 L44.3271285,38.0097805 C44.3083554,37.9177922 44.2708091,37.8295584 44.4247488,37.7150423 C44.4247488,37.7150423 44.497964,37.6380724 44.6969593,37.6380724 L52.6905605,37.6380724 L52.6905605,40.7975912 Z M7.71200423,28.4392359 L6.78461132,29.182652 L2.97366473,29.182652 L2.97366473,26.0231333 L8.45542041,26.0231333 L7.71200423,28.4392359 Z M13.0097832,37.7319381 L13.0980169,37.7319381 C13.283871,37.7319381 13.2970122,37.743202 13.3589635,37.8182946 C13.4021417,37.8877552 13.3946325,37.9440746 13.3758593,38.0285537 L12.452221,40.7975912 L5.29590164,40.7975912 L5.29590164,37.7319381 L13.0097832,37.7319381 Z M54.6410894,23.0494685 L48.2300635,23.0494685 L46.185669,17.4738472 C45.3483871,15.2435986 43.3039926,13.7567663 40.9798784,13.7567663 L33.8254363,13.7567663 C33.6395822,14.7780249 33.3598625,15.8011608 32.896166,16.730431 L40.9798784,16.730431 C42.09688,16.730431 43.0261502,17.3799815 43.3978583,18.4951058 L46.8352195,27.787808 L10.9653887,27.787808 L12.8239291,22.0263326 C11.9866473,21.3767821 11.1512427,20.6314886 10.4078265,19.7960841 L9.38469064,22.9556029 L2.97366473,22.9556029 C1.30097832,22.9556029 -3.73034936e-14,24.2565812 -3.73034936e-14,25.9292676 L-3.73034936e-14,29.0887864 C-3.73034936e-14,30.7614728 1.30097832,32.0624511 2.97366473,32.0624511 L3.53122686,32.0624511 C2.693945,32.9917213 2.23024855,34.1068456 2.23024855,35.4078239 L2.23024855,45.7236621 L2.23024855,47.8600449 L2.23024855,54.8305103 C2.23024855,56.5013194 3.53122686,57.8022977 5.20391327,57.8022977 L11.8026705,57.8022977 C13.475357,57.8022977 14.7763353,56.5013194 14.7763353,54.8305103 L14.7763353,52.6922501 L11.8026705,52.6922501 L11.8026705,54.9224987 L5.20391327,54.9224987 L5.20391327,47.9520333 L5.20391327,45.8156504 L5.20391327,43.7712559 L12.5442094,43.7712559 C13.8451877,43.7712559 14.960312,42.9358514 15.2400317,41.7268614 L16.169302,38.8470624 C16.355156,37.8239265 16.169302,36.8026679 15.5178741,36.0573744 C14.8683236,35.2219699 13.9390534,34.7563961 12.9159175,34.7563961 L5.29590164,34.7563961 C5.38976732,34.4785537 5.57562136,34.2926996 5.76147541,34.1068456 L9.38469064,30.9473268 L48.2300635,30.9473268 L51.8532787,34.1068456 C52.0391327,34.2926996 52.2249868,34.570542 52.4108408,34.7563961 L44.6049709,34.7563961 C43.5837123,34.7563961 42.6525648,35.2219699 42.0030143,36.0573744 C41.3515865,36.8946563 41.1657324,37.9177922 41.3515865,38.8470624 L41.4229244,39.1511872 L42.282734,41.7268614 C42.5605764,42.9358514 43.6757007,43.7712559 44.976679,43.7712559 L52.5966949,43.7712559 L52.5966949,45.8156504 L52.5966949,55.0163644 L45.9979376,55.0163644 L45.9979376,52.8781042 L43.0261502,52.8781042 L43.0261502,55.0163644 C43.0261502,56.6871735 44.3271285,57.9881518 45.9979376,57.9881518 L52.5966949,57.9881518 C54.2693813,57.9881518 55.5703596,56.6871735 55.5703596,55.0163644 L55.5703596,48.045899 L55.5703596,45.9076388 L55.5703596,35.5016896 C55.5703596,34.2926996 55.1047858,33.085587 54.2693813,32.1563168 L54.5472237,32.1563168 C56.2217874,32.1563168 57.5227657,30.8553384 57.5227657,29.182652 L57.5227657,26.0231333 C57.6147541,24.3485695 56.3137758,23.0494685 54.6410894,23.0494685 L54.6410894,23.0494685 Z" id="Fill-2260" fill="#1A1446"></path>
                                <path d="M13.2763617,8.70885775 L18.6267054,8.70885775 C18.7430989,8.70885775 18.8444738,8.6337652 18.8801428,8.52488102 L20.5340561,3.43548387 C20.6147805,3.1914331 20.9602062,3.1914331 21.0409307,3.43548387 L22.6929667,8.52488102 C22.7286356,8.6337652 22.8318879,8.70885775 22.946404,8.70885775 L28.2986251,8.70885775 C28.555817,8.70885775 28.6628239,9.03926494 28.4544421,9.18945003 L24.125357,12.3358276 C24.0314913,12.4034109 23.993945,12.523559 24.0277366,12.6324432 L25.6816499,17.7218403 C25.7623744,17.9677684 25.4807774,18.1705182 25.2723956,18.0184558 L20.9433104,14.8739556 C20.8494447,14.8063723 20.7236647,14.8063723 20.6316764,14.8739556 L16.3025912,18.0184558 C16.0942094,18.1705182 15.8126124,17.9677684 15.8914595,17.7218403 L17.5453728,12.6324432 C17.5810418,12.523559 17.5416182,12.4034109 17.4496298,12.3358276 L13.1205447,9.18945003 C12.9121629,9.03926494 13.0191698,8.70885775 13.2763617,8.70885775 M20.8325489,22.4883395 C25.0152036,22.4883395 28.7322845,20.1642253 30.590825,16.7268641 C31.1483871,15.7975939 31.5200952,14.7763353 31.7059492,13.7531994 C31.8918033,12.9159175 31.9837916,12.080513 31.9837916,11.2432311 C32.0776573,5.01805923 26.9657324,-3.40172335e-13 20.8325489,-3.40172335e-13 C14.607377,-3.40172335e-13 9.58931782,5.01805923 9.58931782,11.2432311 C9.58931782,13.5673453 10.332734,15.7975939 11.5398466,17.5622686 C12.0974088,18.3995505 12.7488366,19.2349551 13.5842411,19.8863829 C15.5366473,21.5590693 18.0447382,22.4883395 20.8325489,22.4883395 Z" id="Fill-2263" fill="#1A1446"></path>
                            </g>
                        </g>
                    </g>
                </g>
            </g>
        </g>
    </g>
</svg>