<?xml version="1.0" encoding="UTF-8"?>
<svg width="21px" height="24px" viewBox="0 0 21 24" version="1.1" xmlns="http://www.w3.org/2000/svg" xmlns:xlink="http://www.w3.org/1999/xlink">
    <!-- Generator: Sketch 63.1 (92452) - https://sketch.com -->
    <title>Icons/Chat </title>
    <desc>Created with Sketch.</desc>
    <defs>
        <path d="M20.2265454,-2.66453526e-14 C20.6233318,-2.66453526e-14 20.944426,0.321890977 20.944426,0.717880619 L20.944426,15.1726977 C20.944426,15.463515 20.7691388,15.7248523 20.5014275,15.8363986 C20.2329195,15.9471483 19.9245734,15.8857978 19.7190094,15.6802337 L15.3710909,11.3323153 C15.2364385,11.1976628 15.1607463,11.0152048 15.1607463,10.8247792 L15.1607463,8.48708585 L1.43576124,8.48708585 L1.43576124,21.5491667 L5.55739991,17.4275281 C5.69205232,17.2928756 5.87451032,17.2171835 6.06493593,17.2171835 L15.8786269,17.2171835 L15.8786269,18.6529447 L6.36292411,18.6529447 L1.22541664,23.7896554 C1.08837395,23.9274949 0.904322422,24 0.717880619,24 C0.625456477,24 0.532235575,23.9824713 0.442998473,23.9450236 C0.175287166,23.834274 -5.68434189e-14,23.57214 -5.68434189e-14,23.2821194 L-5.68434189e-14,7.76920523 C-5.68434189e-14,7.37241883 0.321890977,7.05132461 0.717880619,7.05132461 L15.8786269,7.05132461 C16.2746166,7.05132461 16.5965075,7.37241883 16.5965075,7.76920523 L16.5965075,10.5275878 L19.5086648,13.4405418 L19.5086648,1.43576124 L6.22269438,1.43576124 L6.22269438,6.4266649 L4.78693314,6.4266649 L4.78693314,0.717880619 C4.78693314,0.321890977 5.10802736,-2.66453526e-14 5.50481376,-2.66453526e-14 L20.2265454,-2.66453526e-14 Z M5.6542859,12.3528849 C6.10843901,12.3528849 6.47654206,12.720988 6.47654206,13.1751411 C6.47654206,13.6292942 6.10843901,13.998194 5.6542859,13.998194 C5.19933603,13.998194 4.83123299,13.6292942 4.83123299,13.1751411 C4.83123299,12.720988 5.19933603,12.3528849 5.6542859,12.3528849 Z M8.70978023,12.3528849 C9.16393334,12.3528849 9.53203639,12.720988 9.53203639,13.1751411 C9.53203639,13.6292942 9.16393334,13.998194 8.70978023,13.998194 C8.25483036,13.998194 7.88672731,13.6292942 7.88672731,13.1751411 C7.88672731,12.720988 8.25483036,12.3528849 8.70978023,12.3528849 Z M11.7646371,12.3528849 C12.219587,12.3528849 12.5876901,12.720988 12.5876901,13.1751411 C12.5876901,13.6292942 12.219587,13.998194 11.7646371,13.998194 C11.310484,13.998194 10.942381,13.6292942 10.942381,13.1751411 C10.942381,12.720988 11.310484,12.3528849 11.7646371,12.3528849 Z" id="path-1"></path>
    </defs>
    <g id="Chat" stroke="none" stroke-width="1" fill="none" fill-rule="evenodd">
        <g id="1.-Chat" transform="translate(-173.000000, -254.000000)">
            <g id="Group-2" transform="translate(91.000000, 241.000000)">
                <g id="Group-18">
                    <g id="Group-19">
                        <g id="Icons/Chat-" transform="translate(80.000000, 13.000000)">
                            <g id="Color/Liberty-Blue" transform="translate(2.000000, 0.000000)">
                                <mask id="mask-2" fill="white">
                                    <use xlink:href="#path-1"></use>
                                </mask>
                                <use id="Mask" fill="#13112B" xlink:href="#path-1"></use>
                                <g mask="url(#mask-2)" fill="#1A1446" id="Rectangle">
                                    <g transform="translate(-40.000000, -38.000000)">
                                        <rect x="0" y="0" width="100" height="100"></rect>
                                    </g>
                                </g>
                            </g>
                        </g>
                    </g>
                </g>
            </g>
        </g>
    </g>
</svg>