<?xml version="1.0" encoding="utf-8"?>
<!-- Generator: Adobe Illustrator 22.1.0, SVG Export Plug-In . SVG Version: 6.00 Build 0)  -->
<svg version="1.1" id="Capa_1" xmlns="http://www.w3.org/2000/svg" xmlns:xlink="http://www.w3.org/1999/xlink" x="0px" y="0px"
	 viewBox="0 0 16 16" style="enable-background:new 0 0 16 16;" xml:space="preserve">
<style type="text/css">
	.st0{fill:#FFFFFF;}
	.st1{filter:url(#Adobe_OpacityMaskFilter);}
	.st2{mask:url(#mask-2_1_);}
</style>
<title>Icon/Close</title>
<desc>Created with Sketch.</desc>
<g id="MOB--Header-y-footer">
	<g id="Liberty_1-Home2-1-Copy" transform="translate(-242.000000, -12.000000)">
		<g id="Icon_x2F_Close" transform="translate(238.000000, 8.000000)">
			<g id="Color_x2F_Liberty-Blue-_x2B_-Color_x2F_Liberty-Blue-Mask" transform="translate(4.000000, 4.000000)">
				<g id="Mask">
					<path id="path-1_1_" class="st0" d="M7.9,7l7-7l0.9,0.9l-7,7l7,7L15,15.9l-7-7l-7,7L0,15l7-7l-7-7L0.9,0L7.9,7z"/>
				</g>
				<defs>
					<filter id="Adobe_OpacityMaskFilter" filterUnits="userSpaceOnUse" x="-42" y="-40" width="101" height="97">
						<feColorMatrix  type="matrix" values="1 0 0 0 0  0 1 0 0 0  0 0 1 0 0  0 0 0 1 0"/>
					</filter>
				</defs>
				<mask maskUnits="userSpaceOnUse" x="-42" y="-40" width="101" height="97" id="mask-2_1_">
					<g class="st1">
						<path id="path-1_2_" class="st0" d="M7.9,7l7-7l0.9,0.9l-7,7l7,7L15,15.9l-7-7l-7,7L0,15l7-7l-7-7L0.9,0L7.9,7z"/>
					</g>
				</mask>
				<g id="Color_x2F_Liberty-Blue" class="st2">
					<g id="Rectangle-Copy" transform="translate(-42.000000, -40.000000)">
						<polygon class="st0" points="0,0 101,0 101,97 0,97 						"/>
					</g>
				</g>
			</g>
		</g>
	</g>
</g>
</svg>
