<?xml version="1.0" encoding="UTF-8"?>
<svg width="111px" height="124px" viewBox="0 0 111 124" version="1.1" xmlns="http://www.w3.org/2000/svg" xmlns:xlink="http://www.w3.org/1999/xlink">
    <!-- Generator: Sketch 52.5 (67469) - http://www.bohemiancoding.com/sketch -->
    <title>Group 2</title>
    <desc>Created with Sketch.</desc>
    <defs>
        <path d="M34.503098,46.2803327 C33.93224,46.8511907 33.0023056,46.8511907 32.4307147,46.2803327 L28.979185,42.8273374 C30.4242841,42.5027031 31.9250766,42.3260962 33.4669064,42.3260962 C35.0087361,42.3260962 36.5102614,42.5027031 37.9560933,42.8273374 L34.503098,46.2803327 Z M33.4669064,39.3948608 C46.3797309,39.3948608 56.8845455,49.8989427 56.8845455,62.8125 L53.9533102,62.8125 C53.9533102,54.2188508 48.6323852,46.8497251 41.1152322,43.8122325 L36.5754814,48.352716 C35.745209,49.1829885 34.6408661,49.6402612 33.4669064,49.6402612 C32.2922138,49.6402612 31.1886037,49.1829885 30.3583313,48.352716 L25.8193133,43.8129653 C18.3021603,46.8497251 12.9812353,54.2188508 12.9812353,62.8125 L10.05,62.8125 C10.05,49.8989427 20.5548147,39.3948608 33.4669064,39.3948608 Z M18.8106564,24.7164067 C17.1918816,24.7164067 15.879421,23.4039461 15.879421,21.7851714 L15.879421,15.9227007 C15.879421,14.303926 17.1918816,12.9914654 18.8106564,12.9914654 L20.0322487,12.9914654 C22.2988264,7.81563655 27.4643959,4.1875 33.4668331,4.1875 C39.4685374,4.1875 44.6341069,7.81563655 46.9021503,12.9914654 L48.1332691,12.9914654 C49.7520438,12.9914654 51.0645045,14.303926 51.0645045,15.9227007 L51.0645045,21.7851714 C51.0645045,23.4039461 49.7520438,24.7164067 48.1332691,24.7164067 L46.9014175,24.7164067 C44.6341069,29.8915027 39.4685374,33.5196393 33.4668331,33.5196393 C27.4643959,33.5196393 22.2995592,29.8915027 20.0322487,24.7164067 L18.8106564,24.7164067 Z M33.4668331,7.11873534 C26.9961311,7.11873534 21.7316324,12.383234 21.7316324,18.853936 C21.7316324,25.3239053 26.9961311,30.5884039 33.4668331,30.5884039 C37.8680829,30.5884039 41.7058028,28.1503489 43.713699,24.5566544 L36.9909108,27.5303927 C36.798182,27.6161313 36.5966596,27.6564358 36.3988012,27.6564358 C35.836004,27.6564358 35.299588,27.3310687 35.0577611,26.7829276 C34.7301955,26.0427907 35.0650891,25.1773435 35.8052261,24.8497779 L45.0312893,20.7687655 C45.1346154,20.1444124 45.2020338,19.5076015 45.2020338,18.853936 C45.2020338,12.383234 39.9375351,7.11873534 33.4668331,7.11873534 Z M29.0699801,15.9310547 C30.6887548,15.9310547 32.0012154,17.2435153 32.0012154,18.8622901 L26.1387447,18.8622901 C26.1387447,17.2435153 27.4512053,15.9310547 29.0699801,15.9310547 Z M37.8636861,15.9310547 C39.4824608,15.9310547 40.7949214,17.2435153 40.7949214,18.8622901 L34.9324507,18.8622901 C34.9324507,17.2435153 36.2449114,15.9310547 37.8636861,15.9310547 Z" id="path-1"></path>
        <polygon id="path-3" points="5.279 9.608 0.911 5.319 0 6.247 5.277 11.429 15.995 0.928 15.084 0"></polygon>
    </defs>
    <g id="MOB-Pago" stroke="none" stroke-width="1" fill="none" fill-rule="evenodd">
        <g id="Asistencias-4-slide-Copy-2" transform="translate(-105.000000, -298.000000)">
            <g id="Group-2" transform="translate(105.000000, 298.000000)">
                <circle id="Oval" fill="#F0FBFC" cx="55.5" cy="68.5" r="55.5"></circle>
                <g id="Elements-/-Icon-/-Liberty-/-Contact-1" transform="translate(21.000000, 34.000000)">
                    <mask id="mask-2" fill="white">
                        <use xlink:href="#path-1"></use>
                    </mask>
                    <use id="Mask" fill="#171343" fill-rule="evenodd" xlink:href="#path-1"></use>
                    <g id="Elements-/-Color-/-Secundario-/-Blue-1" mask="url(#mask-2)" fill="#1A1446" fill-rule="evenodd">
                        <rect id="Rectangle" x="0" y="0" width="67" height="67"></rect>
                    </g>
                </g>
                <g id="Group" transform="translate(43.000000, 0.000000)">
                    <circle id="Oval" fill="#28A3AF" fill-rule="nonzero" cx="12" cy="12" r="12"></circle>
                    <g id="Icon/Check" transform="translate(0.000000, 1.000000)">
                        <g id="Color/Liberty-Blue" transform="translate(4.000000, 6.000000)">
                            <mask id="mask-4" fill="white">
                                <use xlink:href="#path-3"></use>
                            </mask>
                            <use id="Mask" fill="#1A1446" fill-rule="nonzero" xlink:href="#path-3"></use>
                            <g id="Color/White" mask="url(#mask-4)" fill="#FFFFFF" fill-rule="nonzero">
                                <g transform="translate(-41.000000, -44.000000)" id="Rectangle-Copy-8">
                                    <polygon points="0 0 101 0 101 97 0 97"></polygon>
                                </g>
                            </g>
                        </g>
                    </g>
                </g>
            </g>
        </g>
    </g>
</svg>