<?xml version="1.0" encoding="UTF-8"?>
<svg width="25px" height="25px" viewBox="0 0 25 25" version="1.1" xmlns="http://www.w3.org/2000/svg" xmlns:xlink="http://www.w3.org/1999/xlink">
    <!-- Generator: Sketch 52.5 (67469) - http://www.bohemiancoding.com/sketch -->
    <title>icon</title>
    <desc>Created with Sketch.</desc>
    <defs>
        <path d="M15.6833972,24.9683333 C15.0275639,24.9683333 14.3600639,24.885 13.7008972,24.7233333 C12.9542306,24.5391667 12.2067306,24.2541667 11.4783972,23.875 C10.7650639,23.5016667 10.0717306,23.0441667 9.41756389,22.5108333 C9.03839723,22.2375 8.62423056,21.9133333 8.18756389,21.55 C7.81839723,21.2458333 7.39089723,20.875 6.88006389,20.4175 C6.38756389,19.9808333 5.86839723,19.48 5.29256389,18.8908333 C4.72339723,18.315 4.26089723,17.8166667 3.88756389,17.3725 C3.51673056,16.9316667 3.21423056,16.5541667 2.98506389,16.25 C2.71589723,15.8916667 2.50756389,15.5833333 2.34673056,15.3066667 C1.98589723,14.8266667 1.66673056,14.3375 1.39923056,13.8533333 C1.11339723,13.3358333 0.865897228,12.8066667 0.665897228,12.28 C0.396730561,11.5783333 0.205063894,10.8608333 0.0950638943,10.1466667 C-0.0166027724,9.40333333 -0.0291027724,8.68 0.0533972276,7.9925 C0.135063894,7.27416667 0.328397228,6.57916667 0.628397228,5.93166667 C0.930897228,5.2675 1.36089723,4.65083333 1.90256389,4.10416667 L2.64506389,3.345 C2.65589723,3.33416667 2.66673056,3.3225 2.67839723,3.3125 C2.90006389,3.10583333 3.14423056,2.95 3.40673056,2.85 C3.78923056,2.70333333 4.19839723,2.67166667 4.60756389,2.7575 C5.02256389,2.84166667 5.39173056,3.04416667 5.69839723,3.3575 L8.96173056,6.65583333 C9.18506389,6.89166667 9.34256389,7.13833333 9.44506389,7.40583333 C9.59256389,7.795 9.63006389,8.1975 9.55423056,8.60333333 C9.47756389,9.02666667 9.28006389,9.4025 8.96923056,9.715 L7.49339723,11.2225 C7.42839723,11.2875 7.41339723,11.3325 7.40673056,11.3716667 C7.39256389,11.455 7.39923056,11.5208333 7.42673056,11.5941667 C7.43923056,11.6266667 7.49589723,11.7158333 7.55256389,11.7741667 L13.0308972,17.3358333 C13.0875639,17.3933333 13.1417306,17.4308333 13.1792306,17.4375 C13.2042306,17.4416667 13.2242306,17.4441667 13.2433972,17.4441667 C13.2858972,17.4441667 13.3283972,17.4341667 13.3750639,17.4158333 C13.4067306,17.405 13.4408972,17.38 13.4783972,17.3416667 L14.9508972,15.8416667 C15.1825639,15.6125 15.4325639,15.45 15.7058972,15.3458333 C16.0825639,15.2016667 16.4892306,15.1683333 16.8992306,15.2533333 C17.3192306,15.3375 17.6858972,15.5358333 17.9925639,15.8425 L21.2600639,19.1525 C21.4742306,19.3725 21.6367306,19.625 21.7442306,19.9058333 C21.8908972,20.2875 21.9267306,20.6841667 21.8542306,21.0883333 C21.7750639,21.5075 21.5850639,21.8741667 21.2908972,22.1866667 L20.5233972,22.9808333 C20.1625639,23.3458333 19.7850639,23.6533333 19.3925639,23.9008333 C19.0125639,24.1466667 18.5958972,24.3566667 18.1608972,24.5225 C17.4683972,24.7858333 16.7283972,24.9358333 15.9633972,24.9633333 C15.8692306,24.9666667 15.7758972,24.9683333 15.6833972,24.9683333 Z M4.08006389,4.78916667 L3.35423056,5.53333333 C2.97006389,5.92 2.68589723,6.325 2.47839723,6.78083333 C2.26756389,7.23583333 2.13339723,7.72166667 2.07506389,8.23 C2.01339723,8.7425 2.02423056,9.28333333 2.10839723,9.84166667 C2.19506389,10.4083333 2.35006389,10.9858333 2.56756389,11.5533333 C2.73423056,11.9916667 2.94089723,12.4341667 3.18173056,12.8683333 C3.41089723,13.285 3.68923056,13.7083333 4.00839723,14.1283333 C4.03423056,14.1641667 4.06006389,14.2016667 4.08256389,14.2408333 C4.20589723,14.4575 4.37923056,14.7141667 4.61339723,15.0266667 C4.81923056,15.3016667 5.10089723,15.65 5.44589723,16.0616667 C5.78423056,16.4633333 6.20923056,16.9216667 6.74423056,17.4633333 C7.29173056,18.0233333 7.77673056,18.4908333 8.23423056,18.8975 C8.72839723,19.34 9.13756389,19.6933333 9.48673056,19.9833333 C9.90006389,20.3258333 10.2842306,20.6258333 10.6333972,20.8766667 C10.6500639,20.8891667 10.6667306,20.9025 10.6833972,20.9158333 C11.2367306,21.3683333 11.8208972,21.7566667 12.4183972,22.0691667 C13.0033972,22.3725 13.5992306,22.6 14.1883972,22.7466667 C14.7583972,22.8866667 15.3308972,22.9466667 15.8900639,22.9291667 C16.4367306,22.9075 16.9433972,22.8066667 17.4350639,22.62 C17.7392306,22.5033333 18.0292306,22.3566667 18.2975639,22.185 C18.5683972,22.0125 18.8183972,21.8091667 19.0675639,21.5566667 L19.8175639,20.7808333 C19.8458972,20.75 19.8500639,20.73 19.8525639,20.7166667 C19.8583972,20.685 19.8533972,20.66 19.8425639,20.6341667 C19.8350639,20.6125 19.8258972,20.5983333 19.8075639,20.58 L16.5475639,17.2766667 C16.5250639,17.2541667 16.5133972,17.2516667 16.4958972,17.2483333 C16.4758972,17.2441667 16.4633972,17.2433333 16.4558972,17.2433333 C16.4250639,17.2508333 16.4100639,17.2616667 16.3917306,17.2791667 L14.9217306,18.7783333 C14.6708972,19.0275 14.3975639,19.2066667 14.1017306,19.3191667 C13.8233972,19.425 13.5342306,19.48 13.2433972,19.48 C13.1033972,19.48 12.9617306,19.4666667 12.8217306,19.4408333 C12.3633972,19.3608333 11.9442306,19.1333333 11.5808972,18.7658333 L6.09506389,13.1958333 C5.97339723,13.0708333 5.68673056,12.7458333 5.52423056,12.3208333 C5.36256389,11.8966667 5.32173056,11.46 5.40173056,11.0191667 C5.48006389,10.5616667 5.69506389,10.1466667 6.04006389,9.79583333 L7.51923056,8.28416667 C7.54756389,8.25583333 7.54923056,8.24833333 7.55173056,8.23416667 C7.55839723,8.2 7.55839723,8.17416667 7.54173056,8.13166667 C7.53589723,8.1125 7.51173056,8.0875 7.49923056,8.07333333 L4.24506389,4.785 C4.21673056,4.75583333 4.20756389,4.75416667 4.19589723,4.75166667 L4.15839723,4.74666667 C4.13006389,4.75333333 4.10756389,4.765 4.08006389,4.78916667 Z M25.0030639,12.5033333 L22.9197306,12.5033333 C22.9197306,6.7575 18.2455639,2.08333333 12.4997306,2.08333333 L12.4997306,0 C19.3947306,0 25.0030639,5.60916667 25.0030639,12.5033333 Z M21.8845639,12.5033333 L19.8012306,12.5033333 C19.8012306,8.4775 16.5253972,5.2025 12.4995639,5.2025 L12.4995639,3.11916667 C17.6745639,3.11916667 21.8845639,7.32916667 21.8845639,12.5033333 Z" id="path-1"></path>
    </defs>
    <g id="MOB--Header-y-footer" stroke="none" stroke-width="1" fill="none" fill-rule="evenodd">
        <g id="Liberty_1-Home2-1-Copy" transform="translate(-123.000000, -50.000000)">
            <g id="menu" transform="translate(0.000000, 40.000000)">
                <g id="Elements-/-Icon-/-Glyph-/-Call-Outline" transform="translate(135.500000, 22.500000) scale(-1, 1) translate(-135.500000, -22.500000) translate(123.000000, 10.000000)">
                    <mask id="mask-2" fill="white">
                        <use xlink:href="#path-1"></use>
                    </mask>
                    <use id="Mask" fill="#1A1446" fill-rule="evenodd" xlink:href="#path-1"></use>
                    <g id="Elements-/-Color-/-Secundario-/-Blue-1" mask="url(#mask-2)" fill="#1A1446" fill-rule="evenodd">
                        <rect id="Rectangle" x="0" y="0" width="25" height="25"></rect>
                    </g>
                </g>
            </g>
        </g>
    </g>
</svg>