<svg xmlns="http://www.w3.org/2000/svg" xmlns:xlink="http://www.w3.org/1999/xlink" width="30" height="30" viewBox="0 0 30 30">
    <defs>
        <path id="a" d="M25.25 0A2.752 2.752 0 0 1 28 2.75v24.5A2.752 2.752 0 0 1 25.25 30h-17a2.752 2.752 0 0 1-2.75-2.75v-4H3a2 2 0 0 1 0-4h2.5v-8.5H3a2 2 0 0 1 0-4h2.5v-4A2.752 2.752 0 0 1 8.25 0h17zm.25 27.25V2.75a.25.25 0 0 0-.25-.25h-17a.25.25 0 0 0-.25.25v24.5c0 .138.112.25.25.25h17a.25.25 0 0 0 .25-.25zm-8.76-11.992a6.004 6.004 0 0 1 5.993 5.777 1 1 0 0 1-.976 1.219H11.743a1 1 0 0 1-1-1 6.003 6.003 0 0 1 5.997-5.996zm.003-.508a3.506 3.506 0 0 1-3.502-3.502 3.505 3.505 0 0 1 3.502-3.502 3.505 3.505 0 0 1 3.502 3.502 3.506 3.506 0 0 1-3.502 3.502z"/>
    </defs>
    <g fill="none" fill-rule="evenodd">
        <mask id="b" fill="#fff">
            <use xlink:href="#a"/>
        </mask>
        <use fill="#1A1446" xlink:href="#a"/>
        <g fill="#C0BFC0" mask="url(#b)">
            <path d="M0 0h30v30H0z"/>
        </g>
    </g>
</svg>
