<svg xmlns="http://www.w3.org/2000/svg" xmlns:xlink="http://www.w3.org/1999/xlink" width="22" height="22" viewBox="0 0 22 22">
    <defs>
        <path id="a" d="M19.983 0C21.096 0 22 .904 22 2.017v17.966A2.018 2.018 0 0 1 19.983 22H2.017A2.018 2.018 0 0 1 0 19.983V2.017C0 .904.904 0 2.017 0h2.566a.917.917 0 0 1 0 1.833H2.017a.183.183 0 0 0-.184.184v17.966c0 .102.082.184.184.184h17.966a.183.183 0 0 0 .184-.184V2.017a.183.183 0 0 0-.184-.184h-2.566a.917.917 0 0 1 0-1.833h2.566zm-9.645 15.298l-3.652-3.65a.916.916 0 1 1 1.295-1.297l2.106 2.103V.917a.917.917 0 1 1 1.833 0v11.532l2.1-2.098a.917.917 0 0 1 1.296 1.298l-3.652 3.649c-.005.005-.006.012-.012.016-.01.01-.022.013-.031.022a.931.931 0 0 1-.266.176.928.928 0 0 1-.352.072l-.002-.001h-.003a.912.912 0 0 1-.649-.269c-.005-.004-.006-.011-.011-.016z"/>
    </defs>
    <g fill="none" fill-rule="evenodd">
        <mask id="b" fill="#fff">
            <use xlink:href="#a"/>
        </mask>
        <use fill="#1A1446" xlink:href="#a"/>
        <g fill="#006675" mask="url(#b)">
            <path d="M0 0h22v22H0z"/>
        </g>
    </g>
</svg>
