<svg xmlns="http://www.w3.org/2000/svg" xmlns:xlink="http://www.w3.org/1999/xlink" width="20" height="20" viewBox="0 0 20 20">
    <defs>
        <path id="a" d="M18.167 0C19.178 0 20 .822 20 1.833v16.334A1.835 1.835 0 0 1 18.167 20H1.833A1.835 1.835 0 0 1 0 18.167V1.833C0 .822.822 0 1.833 0h2.334a.834.834 0 0 1 0 1.667H1.833a.167.167 0 0 0-.166.166v16.334c0 .092.074.166.166.166h16.334a.167.167 0 0 0 .166-.166V1.833a.167.167 0 0 0-.166-.166h-2.334a.834.834 0 0 1 0-1.667h2.334zm-8.77 13.907l-3.32-3.317a.833.833 0 1 1 1.179-1.18l1.914 1.912V.834a.833.833 0 1 1 1.666 0v10.483l1.91-1.907a.834.834 0 0 1 1.178 1.18l-3.32 3.317c-.005.005-.006.011-.01.015-.01.009-.02.012-.03.02a.847.847 0 0 1-.242.16.843.843 0 0 1-.319.065H10h-.002a.829.829 0 0 1-.59-.245c-.004-.004-.006-.01-.01-.015z"/>
    </defs>
    <g fill="none" fill-rule="evenodd">
        <mask id="b" fill="#fff">
            <use xlink:href="#a"/>
        </mask>
        <use fill="#1A1446" xlink:href="#a"/>
        <g fill="#28A3AF" mask="url(#b)">
            <path d="M0 0h20v20H0z"/>
        </g>
    </g>
</svg>
