<svg xmlns="http://www.w3.org/2000/svg" xmlns:xlink="http://www.w3.org/1999/xlink" width="80" height="80" viewBox="0 0 80 80">
    <defs>
        <path id="a" d="M26.337 16.01h8.01V8.001h-8.01v8.009zm31.997-6.013a2 2 0 0 1 0 4h-1.497l-1.982-1.982-1.989 1.982h-2.854l-1.982-1.982-1.98 1.982h-7.703v4.013a2 2 0 0 1-2 2h-12.01a2 2 0 0 1-2-2V6a2 2 0 0 1 2-2h12.01a2 2 0 0 1 2 2v3.997h19.987zm-40.83 60.389v-4h45.661v4H17.503zm54.169-29.02h-4.148l-1.111-3.143h5.259v3.143zM59.051 58.032l-1.016-2.921c0-.037.01-.087.051-.137.066-.085.149-.085.175-.085h10.043l.001 3.143h-9.254zm-36.644-3.143c.027 0 .109 0 .175.085.041.05.051.1.051.137l-1.016 2.92H12.36V54.89h10.047zM9 38.223h5.26l-1.11 3.143H9v-3.143zm11.788-6.47c.418-1.167 1.388-1.864 2.592-1.864h33.913c1.204 0 2.174.697 2.589 1.855l3.82 10.81h-46.73l3.816-10.801zm51.078 2.47h-6.865l-1.35-3.821c-.985-2.742-3.48-4.513-6.358-4.513H23.38c-2.878 0-5.373 1.77-6.36 4.522l-1.347 3.812H8.807A3.81 3.81 0 0 0 5 38.028v3.532a3.81 3.81 0 0 0 3.807 3.806h2.138l-2.151 2.708c-.28.354-.434.792-.434 1.244v26.765a3.81 3.81 0 0 0 3.804 3.806h8.296a3.81 3.81 0 0 0 3.805-3.806v-2.955h-4v2.76H12.36V62.033h9.575a3.544 3.544 0 0 0 3.446-2.644l1.082-3.116c.024-.067.044-.136.061-.206a4.205 4.205 0 0 0-.811-3.582 4.202 4.202 0 0 0-3.306-1.595H12.36v-.874l2.75-3.46h50.454l2.739 3.459v.875H58.261a4.202 4.202 0 0 0-3.306 1.595 4.207 4.207 0 0 0-.81 3.582c.016.07.036.139.06.206l1.083 3.117a3.547 3.547 0 0 0 3.446 2.643h9.572l.003 13.857h-7.906v-2.761h-4v2.955a3.81 3.81 0 0 0 3.805 3.806h8.296a3.81 3.81 0 0 0 3.805-3.806l-.006-26.765c0-.451-.152-.89-.433-1.242l-2.146-2.71h2.142a3.81 3.81 0 0 0 3.807-3.806v-3.532a3.81 3.81 0 0 0-3.807-3.805z"/>
    </defs>
    <g fill="none" fill-rule="evenodd">
        <mask id="b" fill="#fff">
            <use xlink:href="#a"/>
        </mask>
        <use fill="#171343" xlink:href="#a"/>
        <g fill="#C0BFC0" mask="url(#b)">
            <path d="M0 0h80v80H0z"/>
        </g>
    </g>
</svg>
