<?xml version="1.0"?>
<svg width="80" height="80" xmlns="http://www.w3.org/2000/svg" xmlns:svg="http://www.w3.org/2000/svg" xmlns:xlink="http://www.w3.org/1999/xlink">
 <defs>
  <path d="m29.969,76l8,0l0,-19.984l-8,0l0,19.984zm12,0l8,0l0,-19.984l-8,0l0,19.984zm36.019,-60a2,2 0 0 1 2,2l0,60.015a2,2 0 0 1 -2,2l-8.769,0a2,2 0 0 1 -2,-2l0,-10l4,0l0,8l4.769,0l0,-56.015l-14.019,0l0,58a2,2 0 0 1 -2,2l-40.167,0l-0.005,-0.001l0,0.016l-17.797,0a2,2 0 0 1 -2,-2l0,-60.015a2,2 0 0 1 2,-2l11.94,0l0,4l-9.94,0l0,56.015l4.898,0l0,-7.907l4,0l0,7.907l4.904,0l0,-74.015a2,2 0 0 1 2,-2l40.167,0a2,2 0 0 1 2,2l0,10l-4,0l0,-8l-36.167,0l0,72l4.167,0l0,-21.984a2,2 0 0 1 2,-2l24,0a2,2 0 0 1 2,2l0,21.984l4,0l0,-58l0.019,0a2,2 0 0 1 2,-2l18,0zm-11,39.314l0,-7.314l4,0l0,7.313l-4,0l0,0.001zm0,-12.001l0,-7.313l4,0l0,7.312l-4,0l0,0.001zm0,-12l0,-7.313l4,0l0,7.313l-4,0zm-58.09,24l0,-7.312l4,0l0,7.313l-4,0l0,-0.001zm0,-12.001l0,-7.312l4,0l0,7.312l-4,0zm0,-12l0,-7.312l4,0l0,7.313l-4,0l0,-0.001zm34.07,4.736l-6,0l0,-8.915l-9,0l0,-6l9,0l0,-9.085l6,0l0,9.085l9,0l0,6l-9,0l0,8.915z" id="a"/>
 </defs>
 <g class="layer">
  <title>Layer 1</title>
  <g fill="none" fill-rule="evenodd" id="svg_1">
   <mask id="b">
    <use id="svg_2" xlink:href="#a"/>
   </mask>
   <use fill="#171343" id="svg_3" xlink:href="#a"/>
   <g fill="#C0BFC0" id="svg_4" mask="url(#b)">
    <path d="m0,0l80,0l0,80l-80,0l0,-80z" id="svg_5"/>
   </g>
  </g>
 </g>
</svg>