<svg xmlns="http://www.w3.org/2000/svg" xmlns:xlink="http://www.w3.org/1999/xlink" width="80" height="80" viewBox="0 0 80 80">
    <defs>
        <path id="a" d="M79.903 30.884a2 2 0 0 0-1.616-1.363l-25.223-3.652L41.793 3.112a2 2 0 0 0-3.584 0L26.937 25.869 1.714 29.521a2.002 2.002 0 0 0-1.107 3.414L18.85 50.658 14.543 75.66a2 2 0 0 0 2.898 2.112L40 65.967l17.206 9.007-.853-4.961-15.426-8.076a2.006 2.006 0 0 0-1.855-.001L19.172 72.351l3.799-22.053a2.002 2.002 0 0 0-.577-1.775L6.309 32.898l22.24-3.22a1.999 1.999 0 0 0 1.506-1.092L40 8.506l9.945 20.08c.292.59.854.998 1.506 1.092l22.24 3.22-16.085 15.625a1.998 1.998 0 0 0-.577 1.774l3.79 22.054-.007-.004.853 4.962.883.462a1.998 1.998 0 0 0 2.898-2.11L61.15 50.658l18.244-17.723a1.999 1.999 0 0 0 .509-2.051"/>
    </defs>
    <g fill="none" fill-rule="evenodd">
        <mask id="b" fill="#fff">
            <use xlink:href="#a"/>
        </mask>
        <use fill="#171343" xlink:href="#a"/>
        <g fill="#C0BFC0" mask="url(#b)">
            <path d="M0 0h80v80H0z"/>
        </g>
    </g>
</svg>
