<svg xmlns="http://www.w3.org/2000/svg" xmlns:xlink="http://www.w3.org/1999/xlink" width="80" height="80" viewBox="0 0 80 80">
    <defs>
        <path id="a" d="M2.047 80a2.003 2.003 0 0 1-2.004-2.003V2.003C.043.897.94 0 2.047 0h72.95C76.103 0 77 .897 77 2.003v6.284l-4.006 4.643V4.006H4.05v71.988h68.944V29.08L77 24.407v53.59A2.003 2.003 0 0 1 74.997 80H2.047zm36.849-19.776L22.043 44.547l2.725-2.928 15.328 14.259L76.888 13l3.035 2.604-38.147 44.46a2.003 2.003 0 0 1-1.406.693c-.616.003-1.103-.187-1.474-.533z"/>
    </defs>
    <g fill="none" fill-rule="evenodd">
        <mask id="b" fill="#fff">
            <use xlink:href="#a"/>
        </mask>
        <use fill="#171343" xlink:href="#a"/>
        <g fill="#C0BFC0" mask="url(#b)">
            <path d="M0 0h80v80H0z"/>
        </g>
    </g>
</svg>
