<?xml version="1.0"?>
<svg width="80" height="80" xmlns="http://www.w3.org/2000/svg" xmlns:svg="http://www.w3.org/2000/svg" xmlns:xlink="http://www.w3.org/1999/xlink">
 <defs>
  <path d="m40.125,76.25c-19.919,0 -36.125,-16.206 -36.125,-36.125s16.206,-36.125 36.125,-36.125s36.125,16.206 36.125,36.125s-16.206,36.125 -36.125,36.125m0,-76.25c-22.125,0 -40.125,18 -40.125,40.125s18,40.125 40.125,40.125s40.125,-18 40.125,-40.125s-18,-40.125 -40.125,-40.125m-4.697,50.24l-9.886,-9.887l-2.828,2.828l11.484,11.485a2,2 0 0 0 2.99,-0.183l20.517,-26.253l-3.152,-2.463l-19.125,24.473z" id="a"/>
 </defs>
 <g class="layer">
  <title>Layer 1</title>
  <g fill="none" fill-rule="evenodd" id="svg_1">
   <mask id="b">
    <use id="svg_2" xlink:href="#a"/>
   </mask>
   <use fill="#171343" id="svg_3" xlink:href="#a"/>
   <g fill="#C0BFC0" id="svg_4" mask="url(#b)">
    <path d="m0,0l80,0l0,80l-80,0l0,-80z" id="svg_5"/>
   </g>
  </g>
 </g>
</svg>