<svg xmlns="http://www.w3.org/2000/svg" xmlns:xlink="http://www.w3.org/1999/xlink" width="80" height="80" viewBox="0 0 80 80">
    <defs>
        <path id="a" d="M62.683 72.054a4.097 4.097 0 0 1-4.092-4.093 4.097 4.097 0 0 1 4.092-4.092 4.097 4.097 0 0 1 4.093 4.092 4.097 4.097 0 0 1-4.093 4.093zm-37.777-20l3.561-19.189a1.994 1.994 0 0 0-.303-1.474L15.369 12.197l23.365 23.366 5.06 16.491H24.906zM18.5 63.87a4.097 4.097 0 0 1 4.093 4.092 4.097 4.097 0 0 1-4.093 4.093 4.097 4.097 0 0 1-4.092-4.093A4.097 4.097 0 0 1 18.5 63.87zm57.821-20.642c.118.26.179.542.179.827v26a2 2 0 0 1-2 2h-4.847c-1.409 2.39-4.002 4-6.97 4-4.462 0-8.092-3.63-8.092-8.093 0-4.462 3.63-8.092 8.092-8.092 4.462 0 8.093 3.63 8.093 8.092 0 .031-.004.062-.005.093H72.5v-12h-64v12h1.913c-.001-.03-.005-.062-.005-.093 0-4.462 3.63-8.092 8.092-8.092 4.462 0 8.093 3.63 8.093 8.092 0 4.462-3.631 8.093-8.093 8.093-2.968 0-5.561-1.61-6.969-4H6.5a2 2 0 0 1-2-2v-16a2 2 0 0 1 2-2h14.337l3.549-19.12L10 11.356v12.995a3.996 3.996 0 0 1 2.5 3.703 3.996 3.996 0 0 1-2.5 3.703v.96c1.941.598 4 2.26 4 5.432 0 4.036-3.289 5.501-5.5 5.501h-.001c-.145 0-1.393-.02-2.669-.657C4.005 42.081 3 40.361 3 38.15h3c0 2.28 1.923 2.491 2.512 2.501.565-.01 2.488-.222 2.488-2.5 0-2.498-2.308-2.68-2.571-2.693A1.501 1.501 0 0 1 7 33.958v-2.2a3.998 3.998 0 0 1-2.5-3.704A3.998 3.998 0 0 1 7 24.351V6.063c0-.22.049-.439.143-.638.259-.55.853-1.202 1.747-1.38.581-.116 1.474-.058 2.489.801a1.999 1.999 0 0 1 2.535.24l28 28c.232.231.403.515.498.827l5.567 18.141H72.5v-7.566l-.197-.434H58.5a2 2 0 0 1-2-2V28.046h4v12.008h9.985l-7.273-16H52.5v24h-4v-26a2 2 0 0 1 2-2h2v-4h2a2 2 0 0 1 2 2v2h8a2 2 0 0 1 1.821 1.172l10 22.001zm-16.29 4.79h-2a1.5 1.5 0 0 1-1.5-1.5v-1.5h3.5v3zm-31.53 24.037v-4h24v4h-24z"/>
    </defs>
    <g fill="none" fill-rule="evenodd">
        <mask id="b" fill="#fff">
            <use xlink:href="#a"/>
        </mask>
        <use fill="#171343" xlink:href="#a"/>
        <g fill="#C0BFC0" mask="url(#b)">
            <path d="M0 0h80v80H0z"/>
        </g>
    </g>
</svg>
