<svg xmlns="http://www.w3.org/2000/svg" xmlns:xlink="http://www.w3.org/1999/xlink" width="80" height="80" viewBox="0 0 80 80">
    <defs>
        <path id="a" d="M73.735 10.265A21.245 21.245 0 0 0 58.612 4a21.244 21.244 0 0 0-15.077 6.219l-3.538 3.116-3.536-3.116A21.245 21.245 0 0 0 21.383 4 21.246 21.246 0 0 0 6.26 10.265c-8.338 8.339-8.338 21.907-.053 30.19L38.53 75.36a2.001 2.001 0 0 0 2.935 0l1.243-1.342-28.724-31.017h.03l-4.925-5.319c-6.779-6.779-6.779-17.81 0-24.589A17.275 17.275 0 0 1 21.383 8c4.645 0 9.011 1.809 12.295 5.093l.092.086 4.906 4.322a2 2 0 0 0 2.645 0l4.904-4.322c.031-.028.063-.057.092-.086A17.273 17.273 0 0 1 58.612 8c4.644 0 9.011 1.809 12.295 5.093 6.778 6.779 6.778 17.81-.054 24.645L42.706 68.132l2.71 2.925.006-.005v.035l28.313-30.576c8.34-8.339 8.34-21.907 0-30.246"/>
    </defs>
    <g fill="none" fill-rule="evenodd">
        <mask id="b" fill="#fff">
            <use xlink:href="#a"/>
        </mask>
        <use fill="#171343" xlink:href="#a"/>
        <g fill="#C0BFC0" mask="url(#b)">
            <path d="M0 0h80v80H0z"/>
        </g>
    </g>
</svg>
