<svg xmlns="http://www.w3.org/2000/svg" xmlns:xlink="http://www.w3.org/1999/xlink" width="30" height="30" viewBox="0 0 30 30">
    <defs>
        <path id="a" d="M4.83 27.504c1.115-4.307 5.023-7.5 9.674-7.5 4.65 0 8.558 3.193 9.674 7.5H4.83zm19.678 2.504v-.004H4.5v.004H2c0-6.895 5.609-12.504 12.504-12.504 6.894 0 12.504 5.609 12.504 12.504h-2.5zm-10.004-15C10.366 15.008 7 11.642 7 7.504S10.366 0 14.504 0s7.504 3.366 7.504 7.504-3.366 7.504-7.504 7.504zm0-12.508A5.01 5.01 0 0 0 9.5 7.504a5.01 5.01 0 0 0 5.004 5.004 5.01 5.01 0 0 0 5.004-5.004A5.01 5.01 0 0 0 14.504 2.5z"/>
    </defs>
    <g fill="none" fill-rule="evenodd">
        <mask id="b" fill="#fff">
            <use xlink:href="#a"/>
        </mask>
        <use fill="#000" xlink:href="#a"/>
        <g fill="#C0BFC0" mask="url(#b)">
            <path d="M0 0h30v30H0z"/>
        </g>
    </g>
</svg>
