<svg xmlns="http://www.w3.org/2000/svg" xmlns:xlink="http://www.w3.org/1999/xlink" width="22" height="22" viewBox="0 0 22 22">
    <defs>
        <path id="a" d="M11 22C4.935 22 0 17.065 0 11S4.935 0 11 0s11 4.935 11 11-4.935 11-11 11zm0-20.167c-5.055 0-9.167 4.112-9.167 9.167 0 5.054 4.112 9.167 9.167 9.167s9.167-4.113 9.167-9.167c0-5.055-4.112-9.167-9.167-9.167zm-.957 14.665v-1.912h1.913v1.912h-1.913zM11 5.501c2.677 0 3.538 1.722 3.538 2.774 0 2.773-2.391 2.39-2.581 4.111v1.244h-1.914v-.957c.192-2.485 2.296-2.677 2.2-4.208 0-.86-.478-1.242-1.243-1.242-.957 0-1.434.764-1.434 1.625H7.462C7.653 6.936 8.897 5.501 11 5.501z"/>
    </defs>
    <g fill="none" fill-rule="evenodd">
        <mask id="b" fill="#fff">
            <use xlink:href="#a"/>
        </mask>
        <use fill="#1A1446" xlink:href="#a"/>
        <g fill="#006675" mask="url(#b)">
            <path d="M0 0h22v22H0z"/>
        </g>
    </g>
</svg>
