<?xml version="1.0" encoding="UTF-8"?>
<svg width="35px" height="36px" viewBox="0 0 35 36" version="1.1" xmlns="http://www.w3.org/2000/svg" xmlns:xlink="http://www.w3.org/1999/xlink">
    <!-- Generator: Sketch 52.6 (67491) - http://www.bohemiancoding.com/sketch -->
    <title>Group 12</title>
    <desc>Created with Sketch.</desc>
    <g id="DSK-Acerca-de-Liberty" stroke="none" stroke-width="1" fill="none" fill-rule="evenodd">
        <g id="prueba-sidebar-copy" transform="translate(-354.000000, -2677.000000)" fill-rule="nonzero">
            <g id="Group-21" transform="translate(338.000000, 2661.000000)">
                <g id="Group-20">
                    <g id="Group-4" transform="translate(16.000000, 16.000000)">
                        <g id="Group-12">
                            <ellipse id="Oval" fill="#28A3AF" cx="17.5" cy="18" rx="17.5" ry="18"></ellipse>
                            <path d="M18,19.2799273 C18.2807439,19.2799273 18.5263949,19.352605 18.7369528,19.4979604 L19.7897426,20.1883988 L20.3512304,19.0618941 C20.5968814,18.5894889 21.1583692,18.2624392 21.6496711,18.298778 L22.8779258,18.3714557 L22.8077399,17.0995956 C22.7726469,16.5545127 23.0884838,16.0094298 23.5446927,15.7550578 L24.6325754,15.1736361 L23.9658086,14.0834703 C23.6850646,13.6474039 23.6850646,12.9933045 23.9658086,12.5208993 L24.6325754,11.4307335 L23.5095997,10.8493117 C23.0533908,10.5949397 22.7375539,10.0498568 22.7726469,9.50477388 L22.8428328,8.23291378 L21.6145781,8.3055915 C21.0881833,8.34193036 20.5617884,8.01488062 20.3161374,7.54247543 L19.7897426,6.30695419 L18.7369528,6.99739253 C18.3158369,7.28810341 17.6841631,7.28810341 17.2279542,6.99739253 L16.1751644,6.30695419 L15.6136766,7.43345885 C15.3680256,7.90586404 14.8416308,8.23291378 14.3152359,8.19657492 L13.0869812,8.16023606 L13.1571672,9.43209616 C13.1922601,9.97717906 12.8764232,10.522262 12.4202143,10.776634 L11.2972386,11.3943946 L11.9640054,12.4845604 C12.2447494,12.9206267 12.2447494,13.5747262 11.9640054,14.0471314 L11.2972386,15.1372972 L12.3851213,15.718719 C12.8413302,15.973091 13.1571672,16.5181739 13.1220742,17.0632568 L13.0869812,18.3351169 L14.3152359,18.2624392 C14.8416308,18.2261003 15.3680256,18.55315 15.6136766,19.0255552 L16.1751644,20.1883988 L17.2279542,19.4979604 C17.4736051,19.352605 17.7192561,19.2799273 18,19.2799273 Z M16.1400714,21.5329366 C16.0347925,21.5329366 15.9646065,21.5329366 15.8593275,21.4965977 C15.5785836,21.42392 15.3329326,21.2058868 15.1925607,20.9515148 L14.5257938,19.6433159 C14.4907008,19.606977 14.4205149,19.5706381 14.3854219,19.5342993 L12.9817022,19.606977 C12.6658653,19.6433159 12.3851213,19.4979604 12.1745634,19.2799273 C11.9640054,19.0618941 11.8587265,18.7711832 11.8587265,18.4441335 L11.9289124,16.9905791 C11.9289124,16.9542402 11.8587265,16.8452236 11.8236335,16.8452236 L10.5602858,16.1547853 C10.2795418,16.0094298 10.1040769,15.7550578 10.0338909,15.4643469 C9.96370491,15.1736361 9.9987979,14.8465863 10.1742629,14.5922143 L10.9463087,13.3566931 C10.9814017,13.3203542 10.9814017,13.2113376 10.9463087,13.1749988 L10.1742629,11.9394775 C9.9987979,11.6851055 9.96370491,11.3580557 10.0338909,11.0673449 C10.1040769,10.776634 10.3146348,10.522262 10.5953788,10.3769065 L11.8587265,9.68646818 C11.8938195,9.65012932 11.9289124,9.5774516 11.9640054,9.54111274 L11.8938195,8.08755834 C11.8938195,7.76050859 11.9990984,7.46979771 12.2096564,7.25176455 C12.4202143,7.03373139 12.7009583,6.92471481 13.0167952,6.92471481 L14.4205149,6.99739253 C14.4556078,6.99739253 14.5608868,6.92471481 14.5608868,6.88837595 L15.2276537,5.58017699 C15.3680256,5.28946611 15.6136766,5.10777181 15.8944205,5.03509409 C16.1751644,4.96241637 16.4910014,4.99875523 16.7366523,5.18044953 L17.929814,5.97990445 C17.964907,6.01624331 18.070186,6.01624331 18.105279,5.97990445 L19.2984407,5.18044953 C19.5440916,4.99875523 19.8599286,4.96241637 20.1406725,5.03509409 C20.4214164,5.10777181 20.6670674,5.32580497 20.8074393,5.58017699 L21.4742062,6.88837595 C21.5092992,6.92471481 21.5794851,6.96105367 21.6145781,6.99739253 L23.0182978,6.92471481 C23.3341347,6.92471481 23.6148787,7.03373139 23.8254366,7.25176455 C24.0359946,7.46979771 24.1412735,7.76050859 24.1412735,8.08755834 L24.0710876,9.54111274 C24.0710876,9.5774516 24.1412735,9.68646818 24.1763665,9.68646818 L25.4397142,10.3769065 C25.7204582,10.522262 25.8959231,10.776634 25.9661091,11.0673449 C26.0362951,11.3580557 26.0012021,11.6851055 25.8257371,11.9394775 L25.0536913,13.1749988 C25.0185983,13.2113376 25.0185983,13.3203542 25.0536913,13.3566931 L25.8257371,14.5922143 C26.0012021,14.8465863 26.0362951,15.1736361 25.9661091,15.4643469 C25.8959231,15.7550578 25.6853652,16.0094298 25.4397142,16.1547853 L24.1763665,16.8452236 C24.1412735,16.8815625 24.1061805,16.9542402 24.0710876,16.9905791 L24.1412735,18.4441335 C24.1412735,18.7711832 24.0359946,19.0618941 23.8254366,19.2799273 C23.6148787,19.4979604 23.3341347,19.606977 23.0182978,19.606977 L21.6145781,19.5342993 C21.5794851,19.5342993 21.4742062,19.606977 21.4742062,19.6433159 L20.8074393,20.915176 C20.6670674,21.2058868 20.4214164,21.3875811 20.1406725,21.4602589 C19.8599286,21.5329366 19.5440916,21.4965977 19.2984407,21.3149034 L18.105279,20.5154485 C18.070186,20.4791096 17.964907,20.4791096 17.929814,20.5154485 L16.7366523,21.3149034 C16.5260944,21.4602589 16.3506294,21.5329366 16.1400714,21.5329366 Z M22.2814152,20.6245741 L23.7202278,30 L17.7544192,25.8210311 L11.8587966,30 L13.4028883,20.2611855 L13.4379813,20.2611855 L14.3503991,22.1144674 L13.5081673,27.2745855 L17.7544192,24.294799 L22.0705063,27.310561 L21.3339044,22.5505337 L22.2814152,20.6245741 Z M21.5442518,11.1762888 L20.5970919,10.3768338 L17.1930717,14.8465136 L15.2275133,13.2839427 L14.4905605,14.3014307 L17.3685367,16.5907789 L17.4032788,16.5544401 L17.4383718,16.5544401 L21.5442518,11.1762888 Z" id="Icon_Lifetime_Repair_Guarantee" fill="#FFFFFF"></path>
                        </g>
                    </g>
                </g>
            </g>
        </g>
    </g>
</svg>