<?xml version="1.0" encoding="UTF-8"?>
<svg width="14px" height="14px" viewBox="0 0 14 14" version="1.1" xmlns="http://www.w3.org/2000/svg" xmlns:xlink="http://www.w3.org/1999/xlink">
    <title>Icons/Conference meeting</title>
    <defs>
        <path d="M11.9041366,6.91993872 C13.0597505,6.91993872 14,7.86018822 14,9.01536441 L14,9.01536441 L13.3482162,9.01536441 C13.3482162,8.21912891 12.7003721,7.57128475 11.9041366,7.57128475 C11.3272051,7.57128475 10.8299409,7.9122784 10.5983804,8.40210112 L10.5983804,8.40210112 L11.0488072,11.3896257 C11.0632524,11.4837382 11.0356752,11.5787262 10.9735172,11.6505143 C10.9117969,11.7227402 10.821624,11.7638871 10.7270738,11.7638871 L10.7270738,11.7638871 L9.56752025,11.7638871 C9.68001751,12.0637339 9.74436419,12.3867805 9.74436419,12.7251477 L9.74436419,12.7251477 L9.09301817,12.7251477 C9.09301817,11.5669074 8.15014226,10.6244692 6.99190195,10.6244692 C5.83366163,10.6244692 4.89122346,11.5669074 4.89122346,12.7251477 L4.89122346,12.7251477 L4.2394397,12.7251477 C4.2394397,12.3867805 4.30378639,12.0637339 4.41628365,11.7638871 L4.41628365,11.7638871 L3.28080543,11.7638871 C3.1862552,11.7638871 3.09608229,11.7227402 3.03392427,11.6505143 C2.97220398,11.5787262 2.94462683,11.4837382 2.95907201,11.3896257 L2.95907201,11.3896257 L3.4081856,8.41917269 C3.40599694,8.41348216 3.40424601,8.40779164 3.40161961,8.40210112 C3.17049683,7.9122784 2.67279492,7.57128475 2.09586343,7.57128475 C1.29962793,7.57128475 0.65178376,8.21912891 0.65178376,9.01536441 L0.65178376,9.01536441 L-1.24344979e-14,9.01536441 C-1.24344979e-14,7.86018822 0.940249508,6.91993872 2.09586343,6.91993872 C2.65484789,6.91993872 3.16174218,7.14099365 3.53775443,7.49862114 C3.77631867,7.7253666 3.9610418,8.00770409 4.07222587,8.32418472 L4.07222587,8.32418472 L4.07003721,8.33950536 L4.07922959,8.33950536 L3.65944408,11.112541 L4.76646969,11.112541 C5.26723572,10.42355 6.07704093,9.97312322 6.99190195,9.97312322 C7.9072007,9.97312322 8.71700591,10.42355 9.21777194,11.112541 L9.21777194,11.112541 L10.3484351,11.112541 L10.0319545,9.01536441 L9.92777413,8.32418472 C10.0389582,8.00770409 10.2236813,7.7253666 10.4622456,7.49862114 C10.8382578,7.14099365 11.3455898,6.91993872 11.9041366,6.91993872 Z M6.99172685,6.51070256 C7.85668636,6.51070256 8.56012257,7.21457649 8.56012257,8.079536 C8.56012257,8.94362005 7.85668636,9.64705625 6.99172685,9.64705625 C6.12720508,9.64705625 5.42376888,8.94362005 5.42376888,8.079536 C5.42376888,7.21457649 6.12720508,6.51070256 6.99172685,6.51070256 Z M6.99172685,7.16248632 C6.48614576,7.16248632 6.0751149,7.57395491 6.0751149,8.079536 C6.0751149,8.58467936 6.48614576,8.99571022 6.99172685,8.99571022 C7.49730794,8.99571022 7.90877654,8.58467936 7.90877654,8.079536 C7.90877654,7.57395491 7.49730794,7.16248632 6.99172685,7.16248632 Z M7.22970836,2.58840009 C8.23320084,2.58840009 9.06780975,3.31339824 9.23797274,4.26477249 L9.23797274,4.26477249 L9.86105073,4.26477249 C10.017993,4.26477249 10.1514793,4.37902234 10.1749353,4.53362066 L10.1749353,4.53362066 L10.5237908,6.83857962 C10.3101275,6.99317794 10.1216261,7.18005503 9.96553677,7.39199063 L9.96553677,7.39199063 L9.58768112,4.89675682 L4.89476517,4.89675682 L4.51563011,7.40345809 C4.42393827,7.2781655 4.3215846,7.16051788 4.20856908,7.05348827 C4.12924499,6.977888 4.04522968,6.90908325 3.95780258,6.84495043 L3.95780258,6.84495043 L4.30793744,4.53362066 C4.33139349,4.37902234 4.46487974,4.26477249 4.62182204,4.26477249 L4.62182204,4.26477249 L5.22144398,4.26477249 C5.39160696,3.31339824 6.22621588,2.58840009 7.22970836,2.58840009 Z M11.9039615,4.3950974 C12.5833224,4.3950974 13.1361786,4.94751587 13.1361786,5.62731451 C13.1361786,6.30623769 12.5833224,6.85865616 11.9039615,6.85865616 C11.2246006,6.85865616 10.6721821,6.30623769 10.6721821,5.62731451 C10.6721821,4.94751587 11.2246006,4.3950974 11.9039615,4.3950974 Z M1.97618735,4.3950974 C2.65554826,4.3950974 3.20840446,4.94751587 3.20840446,5.62731451 C3.20840446,6.30623769 2.65554826,6.85865616 1.97618735,6.85865616 C1.29682644,6.85865616 0.744407967,6.30623769 0.744407967,5.62731451 C0.744407967,4.94751587 1.29682644,4.3950974 1.97618735,4.3950974 Z M11.9039615,5.04644342 C11.583979,5.04644342 11.3235281,5.30689429 11.3235281,5.62731451 C11.3235281,5.94685927 11.583979,6.2068724 11.9039615,6.2068724 C12.223944,6.2068724 12.4848326,5.94685927 12.4848326,5.62731451 C12.4848326,5.30689429 12.223944,5.04644342 11.9039615,5.04644342 Z M1.97618735,5.04644342 C1.65620486,5.04644342 1.39575399,5.30689429 1.39575399,5.62731451 C1.39575399,5.94685927 1.65620486,6.2068724 1.97618735,6.2068724 C2.29616984,6.2068724 2.5566207,5.94685927 2.5566207,5.62731451 C2.5566207,5.30689429 2.29616984,5.04644342 1.97618735,5.04644342 Z M7.22970836,3.22038441 C6.57805663,3.22038441 6.02961153,3.66464221 5.87053686,4.26477249 L5.87053686,4.26477249 L8.58887985,4.26477249 C8.42980519,3.66464221 7.88136008,3.22038441 7.22970836,3.22038441 Z M6.99177063,1.66533454e-14 C7.67113154,1.66533454e-14 8.22398774,0.552418472 8.22398774,1.23177938 C8.22398774,1.91114029 7.67113154,2.46355877 6.99177063,2.46355877 C6.31240972,2.46355877 5.75999125,1.91114029 5.75999125,1.23177938 C5.75999125,0.552418472 6.31240972,1.66533454e-14 6.99177063,1.66533454e-14 Z M6.99177063,0.651346028 C6.67178814,0.651346028 6.41133727,0.911796892 6.41133727,1.23177938 C6.41133727,1.55176187 6.67178814,1.81177501 6.99177063,1.81177501 C7.31175312,1.81177501 7.57264172,1.55176187 7.57264172,1.23177938 C7.57264172,0.911796892 7.31175312,0.651346028 6.99177063,0.651346028 Z" id="path-1"></path>
    </defs>
    <g id="Symbols" stroke="none" stroke-width="1" fill="none" fill-rule="evenodd">
        <g id="tarjetas-de-noticias-2" transform="translate(-16.000000, -324.000000)">
            <g id="Group" transform="translate(16.000000, 324.000000)">
                <g id="Color/Liberty-Blue" transform="translate(0.000000, 0.583333)">
                    <mask id="mask-2" fill="white">
                        <use xlink:href="#path-1"></use>
                    </mask>
                    <use id="Mask" fill="#13112B" xlink:href="#path-1"></use>
                    <g id="Group" mask="url(#mask-2)">
                        <g transform="translate(-22.166667, -22.750000)" id="Color/Liberty-Blue">
                            <rect id="Rectangle" fill="#1A1446" x="0" y="0" width="58.3333333" height="58.3333333"></rect>
                        </g>
                    </g>
                </g>
            </g>
        </g>
    </g>
</svg>