<svg xmlns="http://www.w3.org/2000/svg" xmlns:xlink="http://www.w3.org/1999/xlink" width="24" height="24" viewBox="0 0 24 24">
    <defs>
        <path id="im0y7a49pa" d="M6.805 0v1.651h10.39V0h1.464v1.651h4.61c.403 0 .731.325.731.726v2.666h-1.463v-1.94h-3.878v1.921h-1.464V3.102H6.805v1.922H5.34V3.102H1.463v3.864h21.805c.404 0 .732.324.732.725v14.783c0 .401-.328.726-.732.726H.732c-.404 0-.732-.325-.732-.726V7.691c0-.03.005-.06.009-.091H0V2.377c0-.401.328-.726.732-.726h4.61V0h1.463zm15.732 8.417H1.463v13.332h21.074V8.417zM8 16.8v2.4H5.6v-2.4H8zm4.8 0v2.4h-2.4v-2.4h2.4zm5.6 0v2.4H16v-2.4h2.4zM8 11.2v2.4H5.6v-2.4H8zm4.8 0v2.4h-2.4v-2.4h2.4zm5.6 0v2.4H16v-2.4h2.4z"/>
    </defs>
    <g fill="none" fill-rule="evenodd">
        <g>
            <g transform="translate(-360 -812) translate(360 812)">
                <mask id="45k9nv23rb" fill="#fff">
                    <use xlink:href="#im0y7a49pa"/>
                </mask>
                <use fill="#13112B" xlink:href="#im0y7a49pa"/>
                <g fill="#1A1446" mask="url(#45k9nv23rb)">
                    <path d="M0 0H100V100H0z" transform="translate(-38 -38)"/>
                </g>
            </g>
        </g>
    </g>
</svg>
