<?xml version="1.0" encoding="UTF-8"?>
<svg width="20px" height="20px" viewBox="0 0 20 20" version="1.1" xmlns="http://www.w3.org/2000/svg" xmlns:xlink="http://www.w3.org/1999/xlink">
    <!-- Generator: Sketch 52.6 (67491) - http://www.bohemiancoding.com/sketch -->
    <title>Icon 1 Copy 2</title>
    <desc>Created with Sketch.</desc>
    <defs>
        <path d="M20,10 L19.9866667,10 C19.9893333,10.1793333 19.9486667,10.3606667 19.8326667,10.5146667 C19.6686667,10.7326667 19.4186667,10.8473333 19.166,10.8473333 C18.9913333,10.8473333 18.816,10.7926667 18.6653333,10.68 C17.92,10.1186667 17.0366667,9.822 16.1113333,9.822 C15.1853333,9.822 14.302,10.1186667 13.5566667,10.68 C13.5473333,10.6866667 13.5366667,10.6886667 13.5266667,10.6953333 C13.4706667,10.7346667 13.4106667,10.7646667 13.348,10.7893333 C13.3273333,10.7966667 13.3073333,10.8046667 13.2866667,10.8106667 C13.212,10.832 13.136,10.8466667 13.0593333,10.8473333 C13.058,10.8473333 13.0573333,10.8473333 13.056,10.8473333 L13.0553333,10.8473333 L13.0546667,10.8473333 C13.0533333,10.8473333 13.0526667,10.8473333 13.0513333,10.8473333 C12.9746667,10.8466667 12.8986667,10.832 12.824,10.8106667 C12.8033333,10.8046667 12.7833333,10.7966667 12.7626667,10.7893333 C12.6993333,10.7646667 12.64,10.7346667 12.5833333,10.6953333 C12.574,10.6886667 12.5633333,10.6866667 12.554,10.68 C12.04,10.292 11.4473333,10.048 10.8333333,9.928 L10.8333333,16.6666667 C10.8333333,18.5046667 9.338,20 7.5,20 C5.662,20 4.16666667,18.5046667 4.16666667,16.6666667 L5.83333333,16.6666667 C5.83333333,17.586 6.58066667,18.3333333 7.5,18.3333333 C8.41933333,18.3333333 9.16666667,17.586 9.16666667,16.6666667 L9.16666667,9.928 C8.55266667,10.048 7.96,10.292 7.446,10.68 C7.43866667,10.6846667 7.43066667,10.6853333 7.42333333,10.6906667 C7.34266667,10.7473333 7.25466667,10.7906667 7.16133333,10.816 C7.15466667,10.818 7.14866667,10.8206667 7.14133333,10.8226667 C7.07666667,10.8386667 7.01066667,10.8473333 6.944,10.8473333 C6.92133333,10.8473333 6.89933333,10.8386667 6.876,10.8366667 C6.84066667,10.834 6.808,10.8273333 6.77266667,10.82 C6.71066667,10.8073333 6.65266667,10.7866667 6.594,10.7586667 C6.55866667,10.742 6.526,10.7273333 6.49333333,10.706 C6.47733333,10.6953333 6.45866667,10.6913333 6.44333333,10.68 C5.698,10.1186667 4.81466667,9.822 3.88866667,9.822 C2.96333333,9.822 2.08,10.1186667 1.33466667,10.68 C1.184,10.7926667 1.00866667,10.8473333 0.834,10.8473333 C0.581333333,10.8473333 0.331333333,10.7333333 0.167333333,10.5146667 C0.0513333333,10.3606667 0.0106666667,10.1793333 0.0133333333,10 L0,10 C0,4.486 4.486,0 10,0 C15.514,0 20,4.486 20,10 Z M10,1.66666667 C5.90333333,1.66666667 2.496,4.64 1.80266667,8.54 C2.464,8.28933333 3.16666667,8.15533333 3.88866667,8.15533333 C4.97733333,8.15533333 6.02133333,8.452 6.94466667,9.01266667 C7.86733333,8.452 8.91133333,8.15533333 10,8.15533333 C11.0886667,8.15533333 12.1326667,8.452 13.0553333,9.01266667 C13.9786667,8.452 15.0226667,8.15533333 16.1113333,8.15533333 C16.8333333,8.15533333 17.536,8.28933333 18.1973333,8.54 C17.504,4.64 14.0966667,1.66666667 10,1.66666667 Z" id="path-1"></path>
    </defs>
    <g id="Symbols" stroke="none" stroke-width="1" fill="none" fill-rule="evenodd">
        <g id="Components-/-Float-/-Box-/-Menu" transform="translate(-32.000000, -65.000000)">
            <g id="Elements-/-Icon-/-Glyph-/-Umbrella-Outline" transform="translate(32.000000, 65.000000)">
                <mask id="mask-2" fill="white">
                    <use xlink:href="#path-1"></use>
                </mask>
                <use id="Mask" fill="#1A1446" fill-rule="evenodd" xlink:href="#path-1"></use>
                <g id="Elements-/-Color-/-Secundario-/-Blue-1" mask="url(#mask-2)" fill="#1A1446" fill-rule="evenodd">
                    <rect id="Rectangle" x="0" y="0" width="20" height="20"></rect>
                </g>
            </g>
        </g>
    </g>
</svg>