<?xml version="1.0" encoding="UTF-8"?>
<svg width="15px" height="24px" viewBox="0 0 15 24" version="1.1" xmlns="http://www.w3.org/2000/svg" xmlns:xlink="http://www.w3.org/1999/xlink">
    <!-- Generator: Sketch 53.2 (72643) - https://sketchapp.com -->
    <title>Icon_Lifetime_Repair_Guarantee</title>
    <desc>Created with Sketch.</desc>
    <g id="DSK-SPRINT-8" stroke="none" stroke-width="1" fill="none" fill-rule="evenodd">
        <g id="Home-personas-New" transform="translate(-1112.000000, -550.000000)" fill="#FFFFFF" fill-rule="nonzero">
            <g id="Group-12" transform="translate(1103.000000, 546.000000)">
                <path d="M16.4571429,17.6732666 C16.713823,17.6732666 16.9384182,17.7398879 17.1309283,17.8731304 L18.0934789,18.5060322 L18.6068393,17.4734029 C18.8314344,17.0403648 19.3447947,16.7405692 19.793985,16.7738799 L20.9169608,16.8405011 L20.8527907,15.6746293 C20.8207057,15.17497 21.1094709,14.6753107 21.5265762,14.4421363 L22.5212118,13.9091664 L21.9115964,12.9098477 C21.6549162,12.5101203 21.6549162,11.9105291 21.9115964,11.477491 L22.5212118,10.4781723 L21.4944911,9.9452024 C21.0773859,9.71202804 20.7886207,9.21236872 20.8207057,8.71270939 L20.8848757,7.54683763 L19.7619,7.61345887 C19.2806247,7.64676949 18.7993494,7.3469739 18.5747542,6.91393581 L18.0934789,5.78137467 L17.1309283,6.41427649 C16.745908,6.68076146 16.1683777,6.68076146 15.7512724,6.41427649 L14.7887218,5.78137467 L14.2753614,6.81400395 C14.0507663,7.24704203 13.569491,7.54683763 13.0882157,7.51352701 L11.9652399,7.48021638 L12.02941,8.64608815 C12.061495,9.14574747 11.7727298,9.6454068 11.3556245,9.87858115 L10.3289039,10.4448617 L10.9385193,11.4441804 C11.1951994,11.8439078 11.1951994,12.443499 10.9385193,12.8765371 L10.3289039,13.8758558 L11.3235395,14.4088257 C11.7406448,14.6420001 12.02941,15.1416594 11.9973249,15.6413187 L11.9652399,16.8071905 L13.0882157,16.7405692 C13.569491,16.7072586 14.0507663,17.0070542 14.2753614,17.4400923 L14.7887218,18.5060322 L15.7512724,17.8731304 C15.9758675,17.7398879 16.2004627,17.6732666 16.4571429,17.6732666 L16.4571429,17.6732666 Z M14.7566367,19.7385252 C14.6603817,19.7385252 14.5962116,19.7385252 14.4999566,19.7052146 C14.2432764,19.6385933 14.0186813,19.4387296 13.8903412,19.2055552 L13.2807258,18.0063729 C13.2486408,17.9730622 13.1844707,17.9397516 13.1523857,17.906441 L11.8689849,17.9730622 C11.5802197,18.0063729 11.3235395,17.8731304 11.1310294,17.6732666 C10.9385193,17.4734029 10.8422642,17.2069179 10.8422642,16.9071223 L10.9064342,15.5746975 C10.9064342,15.5413869 10.8422642,15.441455 10.8101792,15.441455 L9.65511842,14.8085532 C9.39843825,14.6753107 9.23801315,14.4421363 9.1738431,14.1756514 C9.10967306,13.9091664 9.14175808,13.6093708 9.30218319,13.3761964 L10.0080536,12.2436353 C10.0401387,12.2103247 10.0401387,12.1103928 10.0080536,12.0770822 L9.30218319,10.944521 C9.14175808,10.7113467 9.10967306,10.4115511 9.1738431,10.1450661 C9.23801315,9.87858115 9.43052327,9.6454068 9.68720344,9.51216431 L10.8422642,8.8792625 C10.8743492,8.84595188 10.9064342,8.77933063 10.9385193,8.74602001 L10.8743492,7.41359514 C10.8743492,7.11379955 10.9706043,6.84731457 11.1631144,6.64745084 C11.3556245,6.44758711 11.6123047,6.34765524 11.9010699,6.34765524 L13.1844707,6.41427649 C13.2165557,6.41427649 13.3128108,6.34765524 13.3128108,6.31434462 L13.9224262,5.11516224 C14.0507663,4.84867727 14.2753614,4.68212416 14.5320416,4.61550291 C14.7887218,4.54888167 15.077487,4.58219229 15.3020821,4.7487454 L16.3929728,5.48157908 C16.4250578,5.5148897 16.5213129,5.5148897 16.5533979,5.48157908 L17.6442886,4.7487454 C17.8688838,4.58219229 18.157649,4.54888167 18.4143291,4.61550291 C18.6710093,4.68212416 18.8956044,4.88198789 19.0239445,5.11516224 L19.6335599,6.31434462 C19.665645,6.34765524 19.729815,6.38096587 19.7619,6.41427649 L21.0453009,6.34765524 C21.334066,6.34765524 21.5907462,6.44758711 21.7832563,6.64745084 C21.9757665,6.84731457 22.0720215,7.11379955 22.0720215,7.41359514 L22.0078515,8.74602001 C22.0078515,8.77933063 22.0720215,8.8792625 22.1041065,8.8792625 L23.2591673,9.51216431 C23.5158475,9.6454068 23.6762726,9.87858115 23.7404426,10.1450661 C23.8046127,10.4115511 23.7725276,10.7113467 23.6121025,10.944521 L22.9062321,12.0770822 C22.874147,12.1103928 22.874147,12.2103247 22.9062321,12.2436353 L23.6121025,13.3761964 C23.7725276,13.6093708 23.8046127,13.9091664 23.7404426,14.1756514 C23.6762726,14.4421363 23.4837624,14.6753107 23.2591673,14.8085532 L22.1041065,15.441455 C22.0720215,15.4747656 22.0399365,15.5413869 22.0078515,15.5746975 L22.0720215,16.9071223 C22.0720215,17.2069179 21.9757665,17.4734029 21.7832563,17.6732666 C21.5907462,17.8731304 21.334066,17.9730622 21.0453009,17.9730622 L19.7619,17.906441 C19.729815,17.906441 19.6335599,17.9730622 19.6335599,18.0063729 L19.0239445,19.1722446 C18.8956044,19.4387296 18.6710093,19.6052827 18.4143291,19.671904 C18.157649,19.7385252 17.8688838,19.7052146 17.6442886,19.5386615 L16.5533979,18.8058278 C16.5213129,18.7725172 16.4250578,18.7725172 16.3929728,18.8058278 L15.3020821,19.5386615 C15.109572,19.671904 14.9491469,19.7385252 14.7566367,19.7385252 Z M20.3715796,18.9058596 L21.6870654,27.5 L16.2326119,23.6692785 L10.8423284,27.5 L12.2540693,18.5727534 L12.2861543,18.5727534 L13.1203648,20.2715951 L12.3503243,25.0017034 L16.2326119,22.2702324 L20.1787486,25.0346809 L19.505284,20.6713225 L20.3715796,18.9058596 Z M19.6976016,10.2449314 L18.8316269,9.51209769 L15.7193799,13.6093042 L13.9222979,12.1769474 L13.2485124,13.1096448 L15.879805,15.208214 L15.9115692,15.1749034 L15.9436542,15.1749034 L19.6976016,10.2449314 Z" id="Icon_Lifetime_Repair_Guarantee"></path>
            </g>
        </g>
    </g>
</svg>