<?xml version="1.0" encoding="UTF-8"?>
<svg width="16px" height="13px" viewBox="0 0 16 13" version="1.1" xmlns="http://www.w3.org/2000/svg" xmlns:xlink="http://www.w3.org/1999/xlink">
    <!-- Generator: Sketch 52.6 (67491) - http://www.bohemiancoding.com/sketch -->
    <title>icon copy</title>
    <desc>Created with Sketch.</desc>
    <defs>
        <path d="M14.5333333,2.13333333 C15.3418667,2.13333333 16,2.79146667 16,3.6 L16,12.6666667 C16,13.4757333 15.3418667,14.1333333 14.5333333,14.1333333 L1.46666667,14.1333333 C0.6576,14.1333333 0,13.4757333 0,12.6666667 L0,3.6 C0,2.79146667 0.6576,2.13333333 1.46666667,2.13333333 L14.5333333,2.13333333 Z M5.99573333,9.74293333 L2.93973333,12.8 L13.0613333,12.8 L10.0042667,9.74293333 L8.47146667,11.2757333 C8.3408,11.4058667 8.17066667,11.4709333 8,11.4709333 C7.82933333,11.4709333 7.65866667,11.4058667 7.52853333,11.2757333 L5.99573333,9.74293333 Z M5.0528,8.8 L1.33333333,5.08053333 L1.33333333,12.5210667 L5.0528,8.8 Z M9.53653333,8.32533333 L14.3562667,3.5056 C14.3733333,3.48853333 14.3962667,3.48213333 14.4144,3.46666667 L1.5904,3.46666667 C1.60426667,3.4784 1.62133333,3.48266667 1.6336,3.49546667 L8,9.86186667 L9.52853333,8.33333333 C9.53013333,8.33173333 9.53013333,8.33013333 9.53173333,8.32853333 C9.53333333,8.32693333 9.53546667,8.3264 9.53653333,8.32533333 Z M14.6666667,12.52 L14.6666667,5.08053333 L10.9466667,8.80053333 L14.6666667,12.52 Z" id="path-1"></path>
    </defs>
    <g id="Symbols" stroke="none" stroke-width="1" fill="none" fill-rule="evenodd">
        <g id="Components-/-Float-/-Box-/-Menu" transform="translate(-232.000000, -18.000000)">
            <g id="Elements-/-Icon-/-Glyph-/-Mail" transform="translate(232.000000, 16.000000)">
                <mask id="mask-2" fill="white">
                    <use xlink:href="#path-1"></use>
                </mask>
                <use id="Mask" fill="#1A1446" fill-rule="evenodd" xlink:href="#path-1"></use>
                <g id="Elements-/-Color-/-Secundario-/-Blue-1" mask="url(#mask-2)" fill="#1A1446" fill-rule="evenodd">
                    <rect id="Rectangle" x="0" y="0" width="16" height="16"></rect>
                </g>
            </g>
        </g>
    </g>
</svg>