<?xml version="1.0" encoding="UTF-8"?>
<svg width="16px" height="16px" viewBox="0 0 16 16" version="1.1" xmlns="http://www.w3.org/2000/svg" xmlns:xlink="http://www.w3.org/1999/xlink">
    <!-- Generator: Sketch 52.6 (67491) - http://www.bohemiancoding.com/sketch -->
    <title>icon copy</title>
    <desc>Created with Sketch.</desc>
    <defs>
        <path d="M13.4274901,10.672 C13.0517952,10.672 12.7455929,10.3717333 12.7455929,10.0016 C12.7455929,9.63253333 13.0517952,9.33173333 13.4274901,9.33173333 C13.803185,9.33173333 14.1093873,9.63253333 14.1093873,10.0016 C14.1093873,10.3717333 13.803185,10.672 13.4274901,10.672 M15.4666667,10.0016 C15.4666667,8.89706667 14.5518604,7.9984 13.4274901,7.9984 C12.3031199,7.9984 11.3883136,8.89706667 11.3883136,10.0016 C11.3883136,10.8714667 11.9589138,11.6064 12.7488504,11.8826667 L12.7488504,12.0016 C12.7488504,13.472 11.5310993,14.6682667 10.0342916,14.6682667 C8.53748393,14.6682667 7.31973286,13.472 7.31973286,12.0016 L7.31973286,9.6112 L11.871505,5.13973333 L11.8731338,5.1376 C11.8742196,5.13653333 11.8753054,5.13653333 11.8763912,5.13546667 C12.4290754,4.5808 12.7472217,3.80426667 12.7488504,3.00426667 C12.7510221,1.34986667 11.3823415,0.00266666667 9.69822926,0 L9.35565194,0 C8.98104283,0 8.67701225,0.298666667 8.67701225,0.666666667 C8.67701225,1.0352 8.98104283,1.33333333 9.35565194,1.33333333 L9.69714344,1.33333333 C10.6331233,1.33493333 11.3926569,2.0832 11.391571,3.00213333 C11.3910281,3.45013333 11.2096956,3.89813333 10.9067508,4.2016 C10.9067508,4.2016 10.9067508,4.20213333 10.9062079,4.20213333 L6.64109317,8.39253333 L2.37597841,4.20213333 C2.3754355,4.20213333 2.3754355,4.2016 2.3754355,4.2016 C2.07249074,3.89813333 1.89115822,3.45013333 1.8906153,3.00266667 C1.88952948,2.0832 2.64906303,1.33493333 3.58395707,1.33333333 L3.92653439,1.33333333 C4.3011435,1.33333333 4.60517408,1.0352 4.60517408,0.666666667 C4.60517408,0.298666667 4.3011435,0 3.92653439,0 L3.58287125,0 C1.8998448,0.00266666667 0.531164267,1.34986667 0.533335914,3.00426667 C0.534964649,3.80426667 0.853110938,4.5808 1.40579511,5.13546667 C1.40688093,5.13653333 1.40796675,5.13653333 1.40905258,5.1376 L1.41068131,5.13973333 L5.96245347,9.6112 L5.96245347,12.0016 C5.96245347,14.2074667 7.78880862,16.0016 10.0342916,16.0016 C12.2797747,16.0016 14.1061298,14.2074667 14.1061298,12.0016 L14.1061298,11.8826667 C14.8960664,11.6064 15.4666667,10.8714667 15.4666667,10.0016" id="path-1"></path>
    </defs>
    <g id="Symbols" stroke="none" stroke-width="1" fill="none" fill-rule="evenodd">
        <g id="Components-/-Float-/-Box-/-Menu" transform="translate(-232.000000, -16.000000)">
            <g id="Elements-/-Icon-/-Glyph-/-Doctor" transform="translate(232.000000, 16.000000)">
                <mask id="mask-2" fill="white">
                    <use xlink:href="#path-1"></use>
                </mask>
                <use id="Mask" fill="#1A1446" fill-rule="evenodd" xlink:href="#path-1"></use>
                <g id="Elements-/-Color-/-Secundario-/-Blue-1" mask="url(#mask-2)" fill="#1A1446" fill-rule="evenodd">
                    <rect id="Rectangle" x="0" y="0" width="16" height="16"></rect>
                </g>
            </g>
        </g>
    </g>
</svg>