<?xml version="1.0" encoding="utf-8"?>
<!-- Generator: Adobe Illustrator 24.3.0, SVG Export Plug-In . SVG Version: 6.00 Build 0)  -->
<svg version="1.1" id="Capa_1" xmlns="http://www.w3.org/2000/svg" xmlns:xlink="http://www.w3.org/1999/xlink" x="0px" y="0px"
	 viewBox="0 0 64.96 49.43" style="enable-background:new 0 0 64.96 49.43;" xml:space="preserve">
<style type="text/css">
	.st0{fill:#1A1446;}
</style>
<g id="Home_1_">
	<path class="st0" d="M56.55,39.29c4.79,0.01,8.66,3.98,8.4,8.68l-2.98-0.01c0.01-3.05-2.47-5.62-5.6-5.63
		c-3.05-0.01-5.62,2.47-5.63,5.6l-2.98-0.01c0-1.73,0.59-3.38,1.49-4.79c-0.15-2.98-2.63-5.29-5.6-5.3l0.01-2.98
		c3.8,0.01,7,2.41,8.16,5.8C53.26,39.78,54.83,39.29,56.55,39.29z M31.09,28.83l0.01-5.2l2.98,0.01l-0.01,5.2L31.09,28.83z
		 M15.66,28.79l0.01-5.2l2.98,0.01l-0.01,5.2L15.66,28.79z M46.37,25.81l-4.45-4.47l-0.06,26.56c0,0.83-0.67,1.48-1.48,1.48
		l-13.03-0.03c-0.83,0-1.48-0.66-1.48-1.48l0.02-8.58l-4.62-0.01l0.01-2.98l6.11,0.01c0.83,0,1.48,0.66,1.48,1.48l-0.02,8.59
		l9.99,0.02l0.06-28.04L24.3,3.66L9.08,18.72L9.02,46.35l12.13,0.03l-0.01,3.05L7.44,49.4c-0.83,0-1.48-0.66-1.48-1.48l0.06-26.15
		l-3.97,3.95L0,23.56L23.23,0.43c0.58-0.58,1.57-0.58,2.15,0l13.5,13.65l0.02-7.26l-4.46-0.01l0.01-2.98l6.02,0.01
		c0.83,0,1.48,0.66,1.48,1.48l-0.03,11.71l6.59,6.62L46.37,25.81z"/>
</g>
</svg>
