<?xml version="1.0" encoding="utf-8"?>
<!-- Generator: Adobe Illustrator 24.3.0, SVG Export Plug-In . SVG Version: 6.00 Build 0)  -->
<svg version="1.1" id="Capa_1" xmlns="http://www.w3.org/2000/svg" xmlns:xlink="http://www.w3.org/1999/xlink" x="0px" y="0px"
	 viewBox="0 0 51.58 27.28" style="enable-background:new 0 0 51.58 27.28;" xml:space="preserve">
<style type="text/css">
	.st0{fill:#1A1446;}
</style>
<path class="st0" d="M42.05,15.15c5.27,0.02,9.54,4.3,9.52,9.66l-2.41-0.01c0.01-3.94-3.19-7.16-7.12-7.17
	c-3.94-0.01-7.09,3.12-7.17,6.99c0.26,0.81,0.4,1.74,0.39,2.67l-2.41-0.01c0.01-3.94-3.19-7.16-7.12-7.17
	c-3-0.01-5.56,1.79-6.63,4.39l0,0.14l-0.07,0c-0.27,0.8-0.48,1.67-0.48,2.6l-2.41-0.01c0-1.14,0.2-2.14,0.54-3.14
	c-0.32-3.67-3.39-6.63-7.13-6.64c-3.94-0.01-7.16,3.18-7.17,7.12L0,24.55c0.02-5.28,4.3-9.54,9.59-9.52
	c4.01,0.01,7.47,2.5,8.87,5.97c1.75-2.07,4.35-3.39,7.3-3.38c3,0.01,5.67,1.42,7.4,3.57C34.56,17.67,37.98,15.13,42.05,15.15z
	 M42.17,2.52c-2.27-0.01-4.15,1.85-4.16,4.13s1.85,4.15,4.13,4.16c2.27,0.01,4.15-1.85,4.16-4.13S44.43,2.53,42.17,2.52z
	 M42.13,13.21c-3.6-0.01-6.54-2.96-6.53-6.57s2.96-6.54,6.57-6.53c3.6,0.01,6.54,2.96,6.53,6.57S45.73,13.23,42.13,13.21z
	 M9.56,2.41C7.29,2.4,5.41,4.26,5.4,6.54C5.4,8.82,7.25,10.69,9.53,10.7c2.28,0.01,4.15-1.85,4.16-4.13
	C13.63,4.3,11.83,2.41,9.56,2.41z M9.53,13.1C5.92,13.09,2.99,10.14,3,6.53S5.96-0.01,9.57,0s6.54,2.96,6.53,6.57
	C16.09,10.19,13.13,13.11,9.53,13.1z M26.08,16.69c-3-0.01-5.47-2.49-5.46-5.5c0.01-3,2.49-5.47,5.5-5.46c3,0.01,5.47,2.49,5.46,5.5
	C31.64,14.25,29.15,16.7,26.08,16.69z M26.11,8.15c-1.67-0.01-3.08,1.39-3.08,3.06c-0.01,1.67,1.39,3.08,3.06,3.08
	s3.08-1.39,3.08-3.06C29.18,9.55,27.85,8.16,26.11,8.15"/>
</svg>
