<svg xmlns="http://www.w3.org/2000/svg" xmlns:xlink="http://www.w3.org/1999/xlink" width="16" height="16" viewBox="0 0 16 16">
    <defs>
        <filter id="24b6ksc4da" width="121.1%" height="119.2%" x="-10.5%" y="-9.6%" filterUnits="objectBoundingBox">
            <feOffset dy="2" in="SourceAlpha" result="shadowOffsetOuter1"/>
            <feGaussianBlur in="shadowOffsetOuter1" result="shadowBlurOuter1" stdDeviation="8"/>
            <feColorMatrix in="shadowBlurOuter1" result="shadowMatrixOuter1" values="0 0 0 0 0 0 0 0 0 0 0 0 0 0 0 0 0 0 0.16 0"/>
            <feMerge>
                <feMergeNode in="shadowMatrixOuter1"/>
                <feMergeNode in="SourceGraphic"/>
            </feMerge>
        </filter>
        <path id="bwg8cvawcb" d="M12.667 14.667c-1.103 0-2-.898-2-2 0-1.103.897-2 2-2 1.102 0 2 .897 2 2 0 1.102-.898 2-2 2M3.333 10c-1.102 0-2-.898-2-2 0-1.103.898-2 2-2 1.103 0 2 .897 2 2 0 1.102-.897 2-2 2m9.334-8.667c1.102 0 2 .897 2 2s-.898 2-2 2c-1.103 0-2-.897-2-2s.897-2 2-2m0 8c-1.063 0-2.009.502-2.62 1.278L6.55 8.862c.074-.275.118-.563.118-.862 0-.299-.044-.587-.118-.863l3.498-1.749c.611.777 1.557 1.279 2.62 1.279C14.505 6.667 16 5.17 16 3.333S14.505 0 12.667 0 9.333 1.495 9.333 3.333c0 .299.044.588.118.863l-3.498 1.75c-.611-.778-1.557-1.28-2.62-1.28C1.495 4.667 0 6.163 0 8s1.495 3.333 3.333 3.333c1.063 0 2.009-.501 2.62-1.278l3.498 1.75c-.074.274-.118.562-.118.862 0 1.838 1.496 3.333 3.334 3.333S16 14.505 16 12.667s-1.495-3.334-3.333-3.334"/>
    </defs>
    <g fill="none" fill-rule="evenodd">
        <g>
            <g>
                <g filter="url(#24b6ksc4da)" transform="translate(-503 -3987) translate(0 3456) translate(203 198)">
                    <g transform="translate(300 333)">
                        <mask id="gvm673pijc" fill="#fff">
                            <use xlink:href="#bwg8cvawcb"/>
                        </mask>
                        <use fill="#1A1446" xlink:href="#bwg8cvawcb"/>
                        <g fill="#1A1446" mask="url(#gvm673pijc)">
                            <path d="M0 0H16V16H0z"/>
                        </g>
                    </g>
                </g>
            </g>
        </g>
    </g>
</svg>
