<?xml version="1.0" encoding="utf-8"?>
<!-- Generator: Adobe Illustrator 24.3.0, SVG Export Plug-In . SVG Version: 6.00 Build 0)  -->
<svg version="1.1" id="Capa_1" xmlns="http://www.w3.org/2000/svg" xmlns:xlink="http://www.w3.org/1999/xlink" x="0px" y="0px"
	 viewBox="0 0 418.02 394.32" style="enable-background:new 0 0 418.02 394.32;" xml:space="preserve">
<style type="text/css">
	.st0{fill:#1A1446;}
</style>
<path class="st0" d="M181.5,200.49c-2.82-1.11-6,0.27-7.12,3.09c-3.38,8.58-9.71,15.77-17.81,20.25c-2.65,1.47-3.61,4.8-2.15,7.45
	c1,1.81,2.87,2.83,4.81,2.83c0.9,0,1.81-0.22,2.65-0.68c10.33-5.7,18.39-14.88,22.71-25.83C185.7,204.78,184.32,201.6,181.5,200.49
	L181.5,200.49z"/>
<path class="st0" d="M137.42,149.3c9.5,0,18.7,3.42,25.9,9.62c2.3,1.98,5.76,1.72,7.74-0.58c1.98-2.3,1.72-5.76-0.58-7.74
	c-9.19-7.92-20.94-12.28-33.06-12.28c-27.96,0-50.7,22.74-50.7,50.7c0,13.23,5.07,25.76,14.28,35.26
	c9.18,9.48,21.49,14.95,34.66,15.4c0.06,0,0.13,0,0.19,0c2.94,0,5.38-2.33,5.48-5.3c0.1-3.03-2.27-5.57-5.29-5.67
	c-21.5-0.74-38.34-18.17-38.34-39.69C97.69,167.12,115.51,149.3,137.42,149.3L137.42,149.3z"/>
<path class="st0" d="M154.44,317.86c18.29,0,33.18-14.88,33.18-33.18c0-18.29-14.88-33.18-33.18-33.18s-33.18,14.88-33.18,33.18
	C121.26,302.98,136.15,317.86,154.44,317.86z M154.44,262.48c12.24,0,22.2,9.96,22.2,22.2c0,12.24-9.96,22.2-22.2,22.2
	c-12.24,0-22.2-9.96-22.2-22.2C132.24,272.44,142.2,262.48,154.44,262.48z"/>
<path class="st0" d="M251.17,248.14c0-10.69-8.7-19.38-19.38-19.38s-19.38,8.7-19.38,19.38c0,10.69,8.7,19.38,19.38,19.38
	S251.17,258.82,251.17,248.14z M223.37,248.14c0-4.64,3.77-8.41,8.41-8.41s8.41,3.77,8.41,8.41c0,4.64-3.77,8.41-8.41,8.41
	S223.37,252.77,223.37,248.14z"/>
<path class="st0" d="M413.14,150.11L329.41,15.16C323.52,5.67,313.33,0,302.17,0C291,0,280.82,5.67,274.93,15.16L254.36,48.3
	c-1.9,3.06-0.96,7.08,2.1,8.98c3.06,1.9,7.08,0.96,8.98-2.1l20.56-33.14c3.49-5.63,9.54-8.99,16.16-8.99
	c6.63,0,12.67,3.36,16.16,8.99l83.73,134.96c3.69,5.95,3.86,13.16,0.46,19.27s-9.62,9.77-16.62,9.77H218.43
	c-7,0-13.21-3.65-16.62-9.77c-3.4-6.12-3.23-13.32,0.46-19.27l48.13-77.57c1.9-3.06,0.96-7.08-2.1-8.98
	c-3.06-1.9-7.08-0.96-8.98,2.1l-48.13,77.57c-6.22,10.03-6.51,22.17-0.77,32.49c5.74,10.31,16.21,16.47,28.01,16.47H385.9
	c11.8,0,22.27-6.16,28.01-16.47C419.65,172.29,419.36,160.14,413.14,150.11L413.14,150.11z"/>
<path class="st0" d="M333.51,219.81c-7.08-0.95-13.85,2.61-17.29,8.5l-12.69-3.71c0.07-1.74,0.1-3.48,0.1-5.19
	c0-1.32-0.02-2.73-0.08-4.31c-0.1-3.03-2.61-5.41-5.66-5.31c-3.03,0.1-5.4,2.63-5.31,5.66c0.05,1.46,0.07,2.75,0.07,3.95
	c0,1.73-0.04,3.5-0.12,5.25c-0.21,4.74,2.82,8.99,7.37,10.32l18.07,5.28c1.5,0.44,3.12,0.22,4.44-0.61c1.33-0.83,2.24-2.18,2.5-3.72
	c0.59-3.42,3.85-5.76,7.28-5.21c0.29,0.05,0.57,0.07,0.86,0.07c1.56,0,2.9,0.55,3.76,1.56c0.86,1.01,1.2,2.41,0.95,3.95l-3.15,19.75
	c-0.27,1.68-1.17,3.16-2.55,4.16c-1.38,1-3.06,1.4-4.75,1.14c-3.42-0.54-5.8-3.78-5.3-7.22c0.23-1.55-0.22-3.12-1.22-4.32
	c-1-1.2-2.47-1.91-4.03-1.96l-19.25-0.6c-4.62-0.16-8.77,2.83-10.13,7.24c-3,9.74-7.26,19.07-12.66,27.74
	c-2.55,4.1-1.94,9.33,1.48,12.72l11.12,11.01c1.86,1.84,4.77,2.11,6.94,0.65c2.26-1.53,5.29-1.38,7.38,0.36
	c2.61,2.17,2.96,6.06,0.79,8.67l-5.35,6.42c-2.17,2.61-6.06,2.96-8.67,0.79c-1.94-1.61-2.69-4.21-1.91-6.62
	c0.79-2.45-0.23-5.13-2.46-6.42l-13.71-7.99c-4.03-2.35-9.14-1.68-12.44,1.63c-12.95,12.98-28.92,22.91-46.19,28.74
	c-4.5,1.52-7.36,5.88-6.96,10.6l1.6,18.73c0.13,1.56,0.92,2.98,2.18,3.92c1.25,0.94,2.84,1.3,4.38,0.99
	c3.41-0.69,6.69,1.43,7.47,4.81c0.36,1.58,0.06,3.26-0.87,4.71c-0.98,1.54-2.55,2.65-4.31,3.02l-19.78,4.25
	c-1.5,0.32-2.85,0.09-3.78-0.67c-0.93-0.75-1.45-2.02-1.45-3.55c0-0.39-0.04-0.77-0.12-1.15c-0.73-3.39,1.43-6.78,4.81-7.55
	c1.52-0.35,2.83-1.33,3.58-2.7c0.76-1.37,0.89-2.99,0.37-4.47l-6.4-18.19c-1.53-4.34-5.79-7.15-10.4-6.83
	c-2.78,0.19-5.6,0.29-8.37,0.29c-27.93,0-55.09-9.88-76.45-27.82c-3.31-2.78-8.04-3.18-11.78-0.99l-16.55,9.69
	c-1.44,0.84-2.41,2.29-2.65,3.93c-0.24,1.65,0.27,3.31,1.4,4.53l2.59,2.8c4.29,4.63,4.01,11.89-0.62,16.17
	c-4.63,4.29-11.89,4.01-16.17-0.62l-17.71-19.12c-4.29-4.63-4.01-11.89,0.62-16.17c2.24-2.08,5.17-3.16,8.22-3.04
	c3.06,0.12,5.88,1.42,7.96,3.66l2.59,2.8c1.13,1.22,2.75,1.87,4.41,1.74c1.66-0.12,3.18-0.98,4.12-2.35l11.23-16.19
	c2.43-3.5,2.46-8.04,0.08-11.58c-4.96-7.37-9.05-15.2-12.22-23.36c-0.02-0.06-0.04-0.12-0.07-0.18
	c-5.24-13.57-7.96-28.05-7.96-42.86c0-4.69,0.28-9.42,0.83-14.07c0.56-4.71-2.15-9.16-6.58-10.83l-17.62-6.61
	c-1.46-0.55-3.09-0.45-4.48,0.28c-1.38,0.73-2.39,2.01-2.77,3.53c-0.84,3.37-4.27,5.46-7.65,4.66c-0.41-0.1-0.84-0.15-1.26-0.15
	c-1.53,0-2.77-0.5-3.48-1.4c-0.72-0.9-0.92-2.22-0.56-3.71l4.7-19.88c0.41-1.75,1.55-3.29,3.11-4.25c1.47-0.89,3.14-1.17,4.72-0.77
	c3.37,0.85,5.41,4.17,4.66,7.57c-0.34,1.53-0.01,3.12,0.9,4.39c0.91,1.27,2.32,2.09,3.88,2.26l19.15,2.03
	c4.58,0.49,8.95-2.17,10.64-6.47c3.4-8.67,7.84-16.95,13.18-24.61c2.72-3.9,2.43-9.11-0.7-12.67L62.94,124.6
	c-1.03-1.17-2.52-1.85-4.08-1.86c-0.01,0-0.02,0-0.04,0c-1.55,0-3.03,0.66-4.07,1.81c-2.33,2.58-6.23,2.83-8.87,0.57
	c-1.23-1.06-1.98-2.58-2.1-4.3c-0.13-1.83,0.48-3.65,1.67-4.99l11.87-13.47c2.32-2.64,6.36-2.89,9-0.57c2.6,2.29,2.88,6.3,0.62,8.93
	c-1.02,1.19-1.48,2.75-1.28,4.3c0.21,1.55,1.07,2.94,2.36,3.82l15.96,10.83c3.81,2.59,8.92,2.3,12.43-0.7
	c18.11-15.49,40.16-25.08,63.77-27.75c4.72-0.53,8.44-4.2,9.04-8.9l2.37-18.67c0.2-1.55-0.28-3.11-1.3-4.29
	c-1.03-1.18-2.51-1.87-4.07-1.89c-3.47-0.04-6.29-2.9-6.29-6.37c0-3.52,2.86-6.38,6.38-6.38h18.26c3.52,0,6.38,2.86,6.38,6.38
	c0,3.47-2.82,6.32-6.29,6.37c-1.56,0.02-3.04,0.71-4.07,1.89c-1.03,1.18-1.5,2.74-1.3,4.29l2.43,19.13
	c0.58,4.57,4.18,8.22,8.76,8.87c3.14,0.44,6.43,1.05,9.78,1.82c2.96,0.67,5.9-1.17,6.57-4.13c0.67-2.95-1.17-5.9-4.13-6.57
	c-3.46-0.79-6.88-1.43-10.17-1.91l-1.72-13.57c6.49-2.52,11.12-8.85,11.12-16.18c0-9.57-7.78-17.35-17.35-17.35H166.3
	c-9.57,0-17.35,7.78-17.35,17.35c0,7.33,4.63,13.65,11.12,16.18l-1.67,13.11c-12.96,1.52-25.49,4.96-37.25,10.16l-8.23-15.31
	c-1.44-2.67-4.76-3.67-7.43-2.24c-2.67,1.43-3.67,4.76-2.24,7.43l8.05,14.98c-7.64,4.19-14.88,9.16-21.62,14.88l-11.33-7.68
	c2.4-6.53,0.71-14.19-4.78-19.03c-7.18-6.32-18.16-5.63-24.49,1.54l-11.87,13.47c-3.12,3.54-4.71,8.28-4.38,13.02
	c0.33,4.67,2.43,8.88,5.91,11.87c5.58,4.77,13.21,5.43,19.31,2.21l8.71,9.89c-5.6,8.09-10.27,16.82-13.89,25.95l-13.55-1.44
	c-0.9-6.84-5.85-12.69-12.97-14.48c-4.45-1.12-9.1-0.4-13.1,2.03c-4.06,2.47-7.01,6.51-8.09,11.1l-4.7,19.88
	c-1.12,4.75-0.16,9.51,2.64,13.04c2.68,3.38,6.82,5.39,11.45,5.56c6.92,1.37,13.84-1.66,17.68-7.23l12.37,4.64
	c-0.56,4.9-0.84,9.89-0.84,14.82c0,2.5,0.07,4.98,0.21,7.46l-14.15,1.93c-3,0.41-5.11,3.17-4.7,6.18c0.37,2.75,2.73,4.75,5.43,4.75
	c0.25,0,0.5-0.02,0.75-0.05l13.75-1.87c1.16,8.17,3.08,16.18,5.75,23.94l-7.81,4.11c-2.68,1.41-3.71,4.73-2.3,7.41
	c0.98,1.87,2.89,2.93,4.86,2.93c0.86,0,1.74-0.2,2.55-0.63l6.74-3.55c3,6.77,6.59,13.3,10.75,19.53l-7.17,10.34
	c-3.77-3.13-8.44-4.93-13.42-5.12c-5.99-0.23-11.7,1.89-16.09,5.96c-9.07,8.4-9.61,22.61-1.21,31.68l17.71,19.12
	c8.4,9.07,22.61,9.61,31.68,1.21c8.33-7.72,9.47-20.33,3.09-29.37l10.4-6.09c8.38,6.98,17.57,12.82,27.32,17.45L112.73,349
	c-1.18,2.79,0.14,6.01,2.93,7.18c0.69,0.29,1.42,0.43,2.13,0.43c2.14,0,4.18-1.26,5.06-3.36l5.15-12.22
	c6.8,2.55,13.81,4.54,20.96,5.93v4.17c0,3.03,2.46,5.49,5.49,5.49c3.03,0,5.49-2.46,5.49-5.49v-2.52
	c7.38,0.79,14.86,0.96,22.36,0.47l4.54,12.91c-5.66,3.73-8.84,10.61-7.58,17.58c0.15,4.62,2.14,8.78,5.51,11.51
	c2.63,2.12,5.94,3.24,9.43,3.24c1.17,0,2.36-0.13,3.55-0.38l19.78-4.25c4.61-0.99,8.71-3.86,11.26-7.86
	c2.51-3.95,3.33-8.58,2.3-13.05c-1.65-7.15-7.39-12.22-14.21-13.26l-1.12-13.11c8.49-2.9,16.69-6.73,24.42-11.35l6.77,9.24
	c1.07,1.47,2.74,2.24,4.43,2.24c1.13,0,2.26-0.35,3.24-1.06c2.44-1.79,2.97-5.22,1.18-7.67l-6.43-8.77
	c5.66-4.05,11-8.55,15.94-13.46l9.96,5.8c-0.24,5.26,1.96,10.41,6.15,13.91c7.26,6.05,18.08,5.06,24.12-2.2l5.35-6.42
	c6.04-7.26,5.06-18.08-2.2-24.12c-4.6-3.83-10.84-4.9-16.35-3.08l-7.98-7.9c5.67-9.19,10.17-19.05,13.38-29.32l13.66,0.43
	c1.47,6.8,6.99,12.37,14.23,13.52c4.58,0.73,9.16-0.37,12.91-3.09s6.22-6.74,6.95-11.32l3.15-19.75c0.75-4.7-0.51-9.36-3.44-12.8
	C342.33,221.88,338.1,219.93,333.51,219.81L333.51,219.81z"/>
<g>
	<g>
		<path class="st0" d="M222.47,158.89v-1.03c0-10.37,5.45-14.24,12.22-14.24c2.93,0,4.97,0.54,6.47,1.36v4.73
			c-1.79-0.7-3.4-1.19-5.74-1.19c-4.24,0-6.95,2.55-6.95,8.77v1.4c0,6.09,1.9,9.55,6.99,9.55c2.78,0,4.54-0.78,5.92-1.44v4.69
			c-1.72,0.99-3.95,1.65-7.09,1.65C226.97,173.14,222.47,168.57,222.47,158.89z"/>
		<path class="st0" d="M243.36,158.85v-0.91c0-9.59,5.19-14.33,11.96-14.33c6.8,0,11.74,4.57,11.74,14.24v0.91
			c0,9.63-5.19,14.37-11.92,14.37C248.3,173.14,243.36,168.57,243.36,158.85z M261.14,159.35v-1.44c0-6.22-1.68-9.51-6-9.55
			c-3.91,0-5.85,3.38-5.85,9.06v1.4c0,6.34,1.79,9.59,5.96,9.59C259.2,168.4,261.14,164.99,261.14,159.35z"/>
		<path class="st0" d="M267.39,144.11h5.74l6.18,20.96h0.11l6.11-20.96h5.19l-8.85,28.53h-5.63L267.39,144.11z"/>
		<path class="st0" d="M293.33,144.11h5.6v28.53h-5.6V144.11z"/>
		<path class="st0" d="M303.64,144.11h8.89c7.83,0,12.36,4.03,12.36,13.54v0.91c0,9.35-4.28,14.08-12.33,14.08h-8.92V144.11z
			 M312.53,167.95c4.39,0,6.44-2.43,6.44-8.93v-1.44c0-6.75-2.45-8.77-6.73-8.77h-3v19.14H312.53z"/>
		<path class="st0" d="M327.78,158.69h8.38v4.65h-8.38V158.69z"/>
	</g>
	<g>
		<path class="st0" d="M342.27,148.46l-5.98,0.49v-4.26l9.7-3.67h4.08v34.14h-7.81V148.46z"/>
		<path class="st0" d="M355.39,174.37v-5.39c1.43,0.44,4.44,0.98,7,0.98c6.95,0,10.42-1.81,10.72-9.5c-1.84,1.18-4.75,2.2-8.43,2.2
			c-6.79,0-11.24-3.38-11.24-10.33c0-6.47,4.29-11.71,13.28-11.71c8.83,0,14.5,5.24,14.5,15.38v2.01c0,12.93-6.84,17.78-17.06,17.78
			C360.25,175.79,357.13,175.25,355.39,174.37z M373.12,156.1v-1.03c0-6.07-2.2-9.21-6.18-9.21c-3.83,0-5.67,2.16-5.67,6.07
			c0,4.8,2.45,5.73,5.87,5.73C369.64,157.67,371.69,156.93,373.12,156.1z"/>
	</g>
</g>
<polygon class="st0" points="294.89,36.48 308.48,36.48 306.8,86.44 296.53,86.44 "/>
<rect x="295.62" y="96.7" class="st0" width="12.42" height="12.2"/>
<g>
	<rect x="215.08" y="121.42" class="st0" width="173.46" height="10.31"/>
</g>
</svg>
