<?xml version="1.0" encoding="UTF-8"?>
<svg width="20px" height="20px" viewBox="0 0 20 20" version="1.1" xmlns="http://www.w3.org/2000/svg" xmlns:xlink="http://www.w3.org/1999/xlink">
    <!-- Generator: Sketch 52.6 (67491) - http://www.bohemiancoding.com/sketch -->
    <title>Icon 4</title>
    <desc>Created with Sketch.</desc>
    <defs>
        <path d="M9.16666667,19.838 C9.04,19.838 8.912,19.8093333 8.794,19.75 C8.512,19.6093333 8.33333333,19.3206667 8.33333333,19.0046667 L8.33333333,17.3333333 L1.83333333,17.3333333 C0.822,17.3333333 0,16.5106667 0,15.5 L0,2.5 C0,1.48866667 0.822,0.666666667 1.83333333,0.666666667 L18.1666667,0.666666667 C19.178,0.666666667 20,1.48866667 20,2.5 L20,15.5 C20,16.5106667 19.178,17.3333333 18.1666667,17.3333333 L12.778,17.3333333 L9.66733333,19.6706667 C9.52,19.7813333 9.344,19.838 9.16666667,19.838 Z M1.83333333,2.33333333 C1.74133333,2.33333333 1.66666667,2.408 1.66666667,2.5 L1.66666667,15.5 C1.66666667,15.5913333 1.74133333,15.6666667 1.83333333,15.6666667 L9.16666667,15.6666667 C9.62666667,15.6666667 10,16.0393333 10,16.5 L10,17.336 L11.9993333,15.8333333 C12.144,15.7246667 12.3193333,15.6666667 12.5,15.6666667 L18.1666667,15.6666667 C18.2586667,15.6666667 18.3333333,15.5913333 18.3333333,15.5 L18.3333333,2.5 C18.3333333,2.408 18.2586667,2.33333333 18.1666667,2.33333333 L1.83333333,2.33333333 Z M3.328,6.5002 L3.328,4.83353333 L7.48933333,4.83353333 L7.48933333,6.5002 L3.328,6.5002 Z M15,6.5002 L15,4.83353333 L16.6666667,4.83353333 L16.6666667,6.5002 L15,6.5002 Z M11.6666667,6.5002 L11.6666667,4.83353333 L13.3333333,4.83353333 L13.3333333,6.5002 L11.6666667,6.5002 Z M3.328,9.83353333 L3.328,8.16686667 L16.6666667,8.16686667 L16.6666667,9.83353333 L3.328,9.83353333 Z M3.328,13.1662 L3.328,11.4995333 L16.6666667,11.4995333 L16.6666667,13.1662 L3.328,13.1662 Z" id="path-1"></path>
    </defs>
    <g id="Symbols" stroke="none" stroke-width="1" fill="none" fill-rule="evenodd">
        <g id="Components-/-Float-/-Box-/-Menu" transform="translate(-32.000000, -331.000000)">
            <g id="Elements-/-Icon-/-Glyph-/-Chat" transform="translate(32.000000, 331.000000)">
                <mask id="mask-2" fill="white">
                    <use xlink:href="#path-1"></use>
                </mask>
                <use id="Mask" fill="#1A1446" fill-rule="evenodd" xlink:href="#path-1"></use>
                <g id="Elements-/-Color-/-Secundario-/-Blue-1" mask="url(#mask-2)" fill="#1A1446" fill-rule="evenodd">
                    <rect id="Rectangle" x="0" y="0" width="20" height="20"></rect>
                </g>
            </g>
        </g>
    </g>
</svg>