<svg xmlns="http://www.w3.org/2000/svg" xmlns:xlink="http://www.w3.org/1999/xlink" width="21" height="21" viewBox="0 0 21 21">
    <defs>
        <path id="czb624b97a" d="M21 7.22l-7.786-.078L10.44 0l-.597 1.536c.557 1.443 2.279 5.901 2.628 6.746l5.33.054-4.194 3.402 1.175 4.727-4.342-2.923-4.324 2.91 1.232-4.745L3.186 8.28 8.46 8.26l1.263-3.25-.565-1.714-1.485 3.82L0 7.142l6.053 4.984-1.81 6.969 6.197-4.17 6.176 4.157-1.719-6.913L21 7.22z"/>
    </defs>
    <g fill="none" fill-rule="evenodd">
        <g>
            <g>
                <g transform="translate(-877 -921) translate(877 921) translate(0 .875)">
                    <mask id="qnbxfpgoob" fill="#fff">
                        <use xlink:href="#czb624b97a"/>
                    </mask>
                    <use fill="#13112B" xlink:href="#czb624b97a"/>
                    <g fill="#1A1446" mask="url(#qnbxfpgoob)">
                        <path d="M0 0H87.5V87.5H0z" transform="translate(-33.25 -34.125)"/>
                    </g>
                </g>
            </g>
        </g>
    </g>
</svg>
