<?xml version="1.0" encoding="utf-8"?>
<!-- Generator: Adobe Illustrator 24.3.0, SVG Export Plug-In . SVG Version: 6.00 Build 0)  -->
<svg version="1.1" id="Capa_1" xmlns="http://www.w3.org/2000/svg" xmlns:xlink="http://www.w3.org/1999/xlink" x="0px" y="0px"
	 viewBox="0 0 58.12 58.11" style="enable-background:new 0 0 58.12 58.11;" xml:space="preserve">
<style type="text/css">
	.st0{fill:#1A1446;}
</style>
<g>
	<path class="st0" d="M58.01,13.77c-0.2-0.74-0.69-1.38-1.36-1.76c-0.67-0.39-1.46-0.49-2.21-0.29c-0.74,0.2-1.38,0.69-1.76,1.36
		l-0.48,0.84c-0.46-0.26-1.05-0.11-1.32,0.35l-2.46,4.19l-0.84-0.48c-0.22-0.13-0.49-0.16-0.74-0.1c-0.25,0.07-0.46,0.23-0.59,0.46
		c-0.26,0.46-0.1,1.05,0.36,1.32l0.84,0.48L39.22,34.4l-2.03,5.43l-0.97,1.81c-0.57,0.99-0.51,2.21,0.16,3.14l-2.18,2.67l-0.61-1.53
		c-0.28-0.68-0.91-1.15-1.64-1.21c-0.73-0.06-1.44,0.3-1.81,0.93l-0.35,0.59l-0.33-3.87c-0.08-0.92-0.79-1.65-1.7-1.76
		c-0.91-0.11-1.78,0.44-2.07,1.31l-2.38,7.15c-0.17,0.51,0.11,1.05,0.61,1.22c0.09,0.04,0.2,0.07,0.3,0.08
		c0.42,0,0.79-0.26,0.92-0.66l2.37-7.15l0.34,3.93c0.07,0.84,0.67,1.54,1.49,1.73c0.82,0.19,1.67-0.17,2.1-0.89l0.36-0.59l0.6,1.52
		c0.25,0.64,0.83,1.1,1.51,1.2c0.68,0.1,1.37-0.17,1.8-0.71l2.26-2.86c0.25,0.07,0.51,0.1,0.77,0.1c1.04,0.01,2-0.54,2.53-1.43
		l0.97-1.62l3.69-4.48l8.32-14.44l0.84,0.48c0.22,0.13,0.39,0.34,0.45,0.59c0.07,0.25,0.03,0.51-0.1,0.74l-3.87,6.71
		c-0.15,0.22-0.2,0.49-0.14,0.75c0.06,0.26,0.22,0.48,0.45,0.62c0.22,0.13,0.49,0.16,0.74,0.1c0.25-0.07,0.46-0.23,0.59-0.46
		l3.87-6.71c0.39-0.67,0.49-1.46,0.29-2.21c-0.2-0.74-0.69-1.38-1.36-1.76l-0.84-0.48l2.42-4.19c0.26-0.46,0.11-1.05-0.35-1.32
		l0.48-0.84C58.12,15.34,58.22,14.53,58.01,13.77z M54.36,14.04c0.13-0.22,0.34-0.39,0.59-0.45c0.25-0.06,0.51-0.03,0.74,0.1
		c0.22,0.13,0.39,0.34,0.46,0.59c0.06,0.25,0.03,0.51-0.1,0.74l-0.48,0.84l-1.69-0.97L54.36,14.04z M41.16,41.08l-0.48-0.28
		l-1.43-0.83l1.38-3.68l3.05,1.76L41.16,41.08z M38.26,43.88c-0.41-0.29-0.53-0.83-0.29-1.27l0.48-0.84l1.68,0.97l-0.48,0.83
		c-0.14,0.24-0.36,0.4-0.63,0.46C38.76,44.09,38.48,44.04,38.26,43.88z M44.77,36.46l-3.35-1.94l7.75-13.42l3.35,1.94L44.77,36.46z
		 M53.49,21.37l-3.35-1.94l1.94-3.35l3.35,1.94L53.49,21.37z"/>
	<path class="st0" d="M15.28,43.4l-3.43,3.42L9.8,44.76c-0.38-0.38-0.99-0.38-1.37,0c-0.18,0.18-0.29,0.43-0.29,0.69
		c0,0.26,0.1,0.51,0.29,0.69l2.05,2.05c0.36,0.36,0.85,0.56,1.37,0.56c0.51,0,1.01-0.2,1.38-0.56l3.42-3.43
		c0.33-0.38,0.31-0.96-0.05-1.31C16.24,43.09,15.67,43.07,15.28,43.4z"/>
	<path class="st0" d="M3.87,46c0,4.55,3.69,8.23,8.23,8.23s8.23-3.69,8.23-8.23c0-0.53-0.43-0.97-0.97-0.97S18.4,45.47,18.4,46
		c0,3.48-2.82,6.3-6.3,6.3s-6.3-2.82-6.3-6.3c0-3.48,2.82-6.3,6.3-6.3c1.36,0,2.69,0.44,3.78,1.26c0.43,0.32,1.04,0.23,1.36-0.19
		c0.32-0.43,0.23-1.03-0.19-1.36c-2.49-1.87-5.83-2.17-8.62-0.78C5.64,40.04,3.87,42.89,3.87,46z"/>
	<path class="st0" d="M34.87,7.75c0.53,0,0.97-0.43,0.97-0.97c0-0.53-0.43-0.97-0.97-0.97H9.68c-0.53,0-0.97,0.43-0.97,0.97v3.87
		c0,0.54,0.43,0.97,0.97,0.97h25.18c0.53,0,0.97-0.43,0.97-0.97c0-0.53-0.43-0.97-0.97-0.97H10.65V7.75H34.87z"/>
	<path class="st0" d="M12.59,13.56c-0.53,0-0.97,0.43-0.97,0.97c0,0.54,0.43,0.97,0.97,0.97h19.37c0.53,0,0.97-0.43,0.97-0.97
		c0-0.53-0.43-0.97-0.97-0.97H12.59z"/>
	<path class="st0" d="M37.77,20.34H16.46c-0.53,0-0.97,0.43-0.97,0.97c0,0.54,0.43,0.97,0.97,0.97h21.31c0.53,0,0.97-0.43,0.97-0.97
		C38.74,20.77,38.31,20.34,37.77,20.34z"/>
	<path class="st0" d="M28.09,27.12c0-0.53-0.43-0.97-0.97-0.97H7.75c-0.53,0-0.97,0.43-0.97,0.97c0,0.54,0.43,0.97,0.97,0.97h19.37
		C27.65,28.09,28.09,27.65,28.09,27.12z"/>
	<path class="st0" d="M37.77,26.15h-6.78c-0.53,0-0.97,0.43-0.97,0.97c0,0.54,0.43,0.97,0.97,0.97h6.78c0.53,0,0.97-0.43,0.97-0.97
		C38.74,26.58,38.31,26.15,37.77,26.15z"/>
	<path class="st0" d="M17.43,32.93c0.53,0,0.97-0.43,0.97-0.97c0-0.53-0.43-0.97-0.97-0.97H7.75c-0.53,0-0.97,0.43-0.97,0.97
		c0,0.54,0.43,0.97,0.97,0.97H17.43z"/>
	<path class="st0" d="M21.31,32.93h6.78c0.53,0,0.97-0.43,0.97-0.97c0-0.53-0.43-0.97-0.97-0.97h-6.78c-0.53,0-0.97,0.43-0.97,0.97
		C20.34,32.5,20.77,32.93,21.31,32.93z"/>
	<path class="st0" d="M43.58,44.55c-0.53,0-0.97,0.43-0.97,0.97v9.68c0,0.54-0.43,0.97-0.97,0.97H2.91c-0.53,0-0.97-0.43-0.97-0.97
		V2.91c0-0.53,0.43-0.97,0.97-0.97h38.74c0.53,0,0.97,0.43,0.97,0.97v18.19c0,0.53,0.43,0.97,0.97,0.97s0.97-0.43,0.97-0.97V2.91
		c0-1.6-1.3-2.91-2.91-2.91H2.91C1.3,0,0,1.3,0,2.91v52.3c0,1.61,1.3,2.91,2.91,2.91h38.74c1.6,0,2.91-1.3,2.91-2.91v-9.68
		C44.55,44.98,44.12,44.55,43.58,44.55z"/>
</g>
</svg>
