<?xml version="1.0" encoding="UTF-8"?>
<svg width="16px" height="16px" viewBox="0 0 16 16" version="1.1" xmlns="http://www.w3.org/2000/svg" xmlns:xlink="http://www.w3.org/1999/xlink">
    <!-- Generator: Sketch 52.6 (67491) - http://www.bohemiancoding.com/sketch -->
    <title>icon copy</title>
    <desc>Created with Sketch.</desc>
    <defs>
        <path d="M8,12.268642 C5.7904,12.268642 3.99253333,10.4328353 3.99253333,8.17660656 C3.99253333,5.91983325 5.7904,4.08457116 8,4.08457116 C10.2096,4.08457116 12.0074667,5.91983325 12.0074667,8.17660656 C12.0074667,10.4328353 10.2096,12.268642 8,12.268642 Z M2,10.2095541 L1.70186667,10.2090096 C1.50186667,10.2090096 1.33333333,10.0793976 1.33333333,9.92691289 L1.33333333,9.12800207 C1.33333333,8.97551739 1.50186667,8.84699458 1.70026667,8.84699458 L1.992,8.84808376 C1.99466667,8.84808376 1.99733333,8.84971752 2,8.84971752 L2,10.2095541 Z M8,1.36163039 C10.9408,1.36163039 13.3333333,3.80410826 13.3333333,6.80696735 L13.3333333,7.48824713 L13.3317333,7.48824713 C13.3189333,7.48824713 13.3072,7.49478219 13.2944,7.49587137 C12.9648,4.809418 10.7189333,2.72310078 8,2.72310078 C5.28106667,2.72310078 3.0352,4.809418 2.7056,7.49587137 C2.6928,7.49478219 2.68106667,7.48824713 2.66826667,7.48824713 L2.66666667,7.48824713 L2.66666667,6.80696735 C2.66666667,3.80410826 5.0592,1.36163039 8,1.36163039 Z M14,8.84971752 C14.0026667,8.84971752 14.0053333,8.84808376 14.008,8.84808376 L14.2981333,8.84699458 C14.4981333,8.84699458 14.6666667,8.97551739 14.6666667,9.12800207 L14.6666667,9.92691289 C14.6666667,10.0793976 14.4981333,10.2090096 14.2965333,10.2090096 L14,10.2095541 L14,8.84971752 Z M14.6666667,7.52691289 L14.6666667,6.80696735 C14.6666667,3.05366579 11.6762667,0.00016 8,0.00016 C4.32373333,0.00016 1.33333333,3.05366579 1.33333333,6.80696735 L1.33333333,7.5263683 C0.571733333,7.69028934 0,8.3448843 0,9.12800207 L0,9.92691289 C0,10.8331076 0.763733333,11.5704799 1.70026667,11.5704799 L2.66506667,11.5726583 L2.66666667,11.5726583 C2.8432,11.5726583 3.01226667,11.5013172 3.1376,11.373339 C3.26293333,11.2459054 3.33333333,11.0727264 3.33333333,10.8919231 L3.33333333,10.8216712 C4.2464,12.494646 5.99466667,13.6301123 8,13.6301123 C10.0053333,13.6301123 11.7536,12.494646 12.6666667,10.8216712 L12.6666667,10.8919231 C12.6666667,11.0727264 12.7370667,11.2459054 12.8624,11.373339 C12.9877333,11.5013172 13.1568,11.5726583 13.3333333,11.5726583 L13.3349333,11.5726583 L13.904,11.5715691 C13.6069333,13.121467 12.2677333,14.2955991 10.6634667,14.2955991 L9.07466667,14.2955991 C8.89173333,14.0864772 8.6288,13.9525085 8.33333333,13.9525085 L7.66666667,13.9525085 C7.1152,13.9525085 6.66666667,14.4121409 6.66666667,14.9763343 C6.66666667,15.5405276 7.1152,16.00016 7.66666667,16.00016 L8.33333333,16.00016 C8.6288,16.00016 8.89173333,15.8656467 9.07466667,15.6570695 L10.6634667,15.6570695 C13.1082667,15.6570695 15.1114667,13.7139789 15.2832,11.2616985 C15.7157333,10.9638087 16,10.4780361 16,9.92691289 L16,9.12800207 C16,8.3448843 15.4288,7.69083393 14.6666667,7.52691289 Z" id="path-1"></path>
    </defs>
    <g id="Symbols" stroke="none" stroke-width="1" fill="none" fill-rule="evenodd">
        <g id="Components-/-Float-/-Box-/-Menu" transform="translate(-232.000000, -16.000000)">
            <g id="Elements-/-Icon-/-Glyph-/-Custome-Service" transform="translate(232.000000, 16.000000)">
                <mask id="mask-2" fill="white">
                    <use xlink:href="#path-1"></use>
                </mask>
                <use id="Mask" fill="#1A1446" fill-rule="evenodd" xlink:href="#path-1"></use>
                <g id="Elements-/-Color-/-Principal-/-White" mask="url(#mask-2)" fill="#FFFFFF" fill-rule="evenodd">
                    <rect id="Rectangle" x="0" y="0" width="16" height="16"></rect>
                </g>
            </g>
        </g>
    </g>
</svg>