<?xml version="1.0" encoding="UTF-8"?>
<svg width="199px" height="201px" viewBox="0 0 199 201" version="1.1" xmlns="http://www.w3.org/2000/svg" xmlns:xlink="http://www.w3.org/1999/xlink">
    <!-- Generator: Sketch 52.5 (67469) - http://www.bohemiancoding.com/sketch -->
    <title>illu</title>
    <desc>Created with Sketch.</desc>
    <defs>
        <polygon id="path-1" points="0.235885714 0.135935484 17.8013143 0.135935484 17.8013143 29.9729032 0.235885714 29.9729032"></polygon>
    </defs>
    <g id="DSK-Home-personas" stroke="none" stroke-width="1" fill="none" fill-rule="evenodd">
        <g id="Home-personas" transform="translate(-257.000000, -1527.000000)">
            <g id="illu" transform="translate(257.000000, 1527.000000)">
                <path d="M87.5724152,194.861281 C81.4904413,195.830341 75.7811201,191.619202 74.8213635,185.448564 L62,87.5021576 L84.0357298,84 L96.8641245,181.939281 C97.8168499,188.106356 93.6579047,193.895782 87.5724152,194.861281" id="Fill-1" fill="#000A8B"></path>
                <polygon id="Fill-3" fill="#000A8B" points="178 85.2766843 139.498228 75 101 85.2766843 105.074824 129.569907 105.074824 201 173.918089 201 173.918089 129.145281"></polygon>
                <path d="M103.641889,86.0196264 C97.5777963,85.6574202 92.3735634,90.3520338 92.0164441,96.5060216 L89,148.691838 L110.964567,150 L113.981011,97.810667 C114.334663,91.6601957 109.705982,86.3818325 103.641889,86.0196264" id="Fill-5" fill="#000A8B"></path>
                <path d="M177.229219,85.019936 C183.217651,84.6520148 188.356952,89.4207033 188.709615,95.6717932 L192,194.674769 L170.309481,196 L167.019096,96.9970243 C166.666433,90.7495064 171.240787,85.3878573 177.229219,85.019936" id="Fill-7" fill="#000A8B"></path>
                <path d="M160.824265,53.5024355 L160.820851,15.2855329 C160.820224,8.26279185 155.138975,2.56407834 148.125717,2.56345127 L110.842155,2.5601177 L110.842231,3.40890164 L160.824265,53.5024355 Z" id="Fill-9" fill="#412312" transform="translate(135.833210, 28.031277) rotate(5.000000) translate(-135.833210, -28.031277) "></path>
                <path d="M137.673863,12 L126.5523,12 C122.378566,12 119,15.3880189 119,19.5689784 L119,41 L147,41 L137.673863,12 Z" id="Fill-11" fill="#412312"></path>
                <path d="M124,32.501845 C124,34.9852399 121.984413,37 119.5,37 C117.015587,37 115,34.9852399 115,32.501845 C115,30.0147601 117.015587,28 119.5,28 C121.984413,28 124,30.0147601 124,32.501845" id="Fill-13" fill="#F4AF96"></path>
                <path d="M166,32.501845 C166,34.9852399 163.98524,37 161.498155,37 C159.01476,37 157,34.9852399 157,32.501845 C157,30.0147601 159.01476,28 161.498155,28 C163.98524,28 166,30.0147601 166,32.501845" id="Fill-15" fill="#F4AF96"></path>
                <path d="M140.5,88 C135.806569,88 132,84.2821123 132,79.6936251 L132,66.3099429 C132,61.7214558 135.806569,58 140.5,58 C145.193431,58 149,61.7214558 149,66.3099429 L149,79.6936251 C149,84.2821123 145.193431,88 140.5,88" id="Fill-17" fill="#F4AF96"></path>
                <g id="Group-21" transform="translate(131.000000, 48.000000)">
                    <mask id="mask-2" fill="white">
                        <use xlink:href="#path-1"></use>
                    </mask>
                    <g id="Clip-20"></g>
                    <path d="M9.01765714,29.9743226 C4.1676,29.9743226 0.234,26.2769032 0.234,21.710129 L0.234,8.40012903 C0.234,3.83690323 4.1676,0.135935484 9.01765714,0.135935484 C13.8677143,0.135935484 17.8013143,3.83690323 17.8013143,8.40012903 L17.8013143,21.710129 C17.8013143,26.2769032 13.8677143,29.9743226 9.01765714,29.9743226" id="Fill-19" fill="#F4AF96" mask="url(#mask-2)"></path>
                </g>
                <path d="M140,72 C128.450178,72 119,62.5277062 119,50.9472821 L119,32.0455717 C119,20.4722938 128.450178,11 140,11 C151.549822,11 161,20.4722938 161,32.0455717 L161,50.9472821 C161,62.5277062 151.549822,72 140,72" id="Fill-22" fill="#F4AF96"></path>
                <path d="M131,32.5 C131,33.3287293 130.328729,34 129.504144,34 C128.671271,34 128,33.3287293 128,32.5 C128,31.6712707 128.671271,31 129.504144,31 C130.328729,31 131,31.6712707 131,32.5" id="Fill-24" fill="#010101"></path>
                <path d="M153,32.5 C153,33.3287293 152.328729,34 151.5,34 C150.671271,34 150,33.3287293 150,32.5 C150,31.6712707 150.671271,31 151.5,31 C152.328729,31 153,31.6712707 153,32.5" id="Fill-26" fill="#010101"></path>
                <path d="M119,48 L119,52.2541203 C119,63.6606564 128.447415,73 140.001783,73 C151.552585,73 161,63.6606564 161,52.2541203 L161,48 L119,48 Z" id="Fill-28" fill="#412312"></path>
                <path d="M133,51 C134.35159,53.9558233 137.198637,56 140.5,56 C143.805149,56 146.652196,53.9558233 148,51 L133,51 Z" id="Fill-30" fill="#FFFFFF"></path>
                <path d="M157.444083,32.5 C157.444083,36.8215981 154.149201,40.3352453 150.104522,40.3352453 C146.056323,40.3352453 142.761441,36.8215981 142.761441,32.5 C142.761441,28.1821598 146.056323,24.6647547 150.104522,24.6647547 L153.849986,24.6647547 C154.311129,24.7737342 155.103168,25.0856408 156.176821,25.9462025 C157.518007,27.0247231 157.408882,29.572587 157.408882,29.572587 L157.444083,29.0502373 L157.444083,32.5 Z M128.902518,40.3352453 C124.854319,40.3352453 121.562957,36.8215981 121.562957,32.5 L121.562957,29.065269 C121.61928,28.2685918 121.862172,26.7240902 122.83374,25.9462025 C123.907392,25.0856408 124.692391,24.7737342 125.153534,24.6647547 L128.902518,24.6647547 C132.950718,24.6647547 136.24208,28.1821598 136.24208,32.5 C136.24208,36.8215981 132.950718,40.3352453 128.902518,40.3352453 Z M158.222042,23 L150.104522,23 C146.295695,23 143.039534,25.5779272 141.779312,29.1780063 L137.227728,29.1780063 C135.960466,25.5779272 132.714866,23 128.902518,23 L120.784999,23 C120.355538,23 120,23.3720332 120,23.8342563 L120,32.5 C120,37.7422864 123.995397,42 128.902518,42 C133.80612,42 137.801516,37.7422864 137.801516,32.5 C137.801516,32.1091772 137.776875,31.7296282 137.727593,31.353837 L141.272407,31.353837 C141.233685,31.7296282 141.205524,32.1091772 141.205524,32.5 C141.205524,37.7422864 145.1974,42 150.104522,42 C155.011644,42 159,37.7422864 159,32.5 L159,23.8342563 C159,23.3720332 158.655023,23 158.222042,23 Z" id="Fill-32" fill="#FFFFFF"></path>
                <path d="M143,50 C141.826011,45.3941606 137.801406,42 133,42 C128.195079,42 124.170475,45.3941606 123,50 L143,50 Z" id="Fill-34" fill="#412312"></path>
                <path d="M158,50 C156.826217,45.3941606 152.802319,42 147.998243,42 C143.194166,42 139.170269,45.3941606 138,50 L158,50 Z" id="Fill-36" fill="#412312"></path>
                <path d="M173,193.435643 C173,186.016501 178.820634,180 186.001753,180 C193.179366,180 199,186.016501 199,193.435643 C199,200.854786 173,200.854786 173,193.435643 Z" id="Fill-38" fill="#F4AF96"></path>
                <path d="M123.93587,140 L56.6449967,140 C53.0772547,140 51.1539339,142.893896 52.3600842,146.465087 L70.7819479,201 L151,201 L132.581758,146.465087 C131.375608,142.893896 127.49999,140 123.93587,140" id="Fill-40" fill="#B4B4B4"></path>
                <path d="M32.2834874,161.670314 L31.7396726,161.662888 L30.2184612,157.36306 C30.2184612,157.36306 29.9612515,156.638996 29.5533905,156.297386 C29.1602271,155.978055 28.491482,156.000334 28.491482,156.000334 L16.4981628,156.000334 L16.4981628,156.00776 L4.50851798,156.00776 C4.50851798,156.00776 3.83977285,155.985481 3.45028393,156.304812 C3.03874847,156.642709 2.78521323,157.370486 2.78521323,157.370486 L1.26400178,161.670314 L0.712838214,161.670314 C0.319674869,161.670314 0,161.989645 0,162.379526 L0,163.426634 C0,163.816515 0.319674869,164.135846 0.712838214,164.135846 L2.37000334,164.135846 L6.50740452,201 L26.4889211,201 L30.6299967,164.135846 L32.2834874,164.135846 C32.6766507,164.135846 33,163.816515 33,163.426634 L33,162.379526 C33,161.989645 32.6766507,161.670314 32.2834874,161.670314" id="Fill-1" fill="#99E5EA"></path>
                <polygon id="Fill-42" fill="#676767" points="71.5827911 201 150 201 148.413668 196 70 196"></polygon>
                <path d="M106.657759,171.001774 C107.803983,174.318356 105.977302,177 102.578656,177 C99.1763713,177 95.4902597,174.318356 94.3440354,171.001774 C93.1941724,167.681644 95.0208535,165 98.4194994,165 C101.821784,165 105.507896,167.681644 106.657759,171.001774" id="Fill-44" fill="#FFFFFF"></path>
                <path d="M49.5064153,66.5425076 C50.8456332,66.1106458 52.5008059,66.9315401 53.2511988,68.2878002 L57.5991689,74.9299058 C58.5901184,76.0184831 59.3046073,74.7121904 59.0640507,74.158979 C58.8199037,73.6021985 53.4127666,60.2287597 53.4127666,60.2287597 C52.7557241,58.8510849 52.5869754,57.3520605 53.9800493,56.6953451 C55.3659423,56.049337 56.7051602,56.8452475 57.3622028,58.2300605 C57.3622028,58.2300605 62.6472664,70.7040848 63.5448655,71.8176457 C64.446055,72.9312067 64.9343489,72.4029791 64.690202,71.4286132 C64.5429957,70.8504181 59.6780085,55.4961256 59.6780085,55.4961256 C59.2184377,54.0684833 59.4589943,52.569459 60.9023337,52.1126134 C62.3384923,51.6557679 63.3114897,52.6444102 63.7710605,54.0756215 C63.7710605,54.0756215 69.0274009,68.923101 69.3900309,69.9652799 C69.7562514,71.0038896 70.7543816,70.8611254 70.6574409,69.6476295 C70.5640906,68.4377027 68.0508131,55.8994345 68.0508131,55.8994345 C67.6845926,54.4432394 68.0579939,53.0191663 69.5192852,52.6551175 C70.9769862,52.2982069 71.9751164,53.3867842 72.3341561,54.8429793 C72.3341561,54.8429793 75.6050072,67.5061661 76.0861204,69.8546376 C76.617499,72.3958408 78.093152,78.7095887 79.7985903,78.4990115 C81.4070879,78.3098489 83.381806,75.8650115 84.2363204,73.4951254 C84.9974844,71.5606701 86.7747307,69.9938327 88.9935957,69.7511336 C92.2070005,69.3728084 90.961133,72.2495075 89.3921297,75.1012229 C86.0494706,81.1722716 85.5360439,84.0703854 84.1142469,87.9178813 C83.209467,90.509052 80.6961894,94.934743 74.4309476,96.3730926 C66.0330102,98.3432389 60.5325228,96.2089137 55.879369,82.1359302 C54.89201,78.987979 49.9408532,69.5191417 49.2586779,68.4519791 C49.0181214,68.3056458 48.7272992,66.7352393 49.5064153,66.5425076" id="Fill-46" fill="#F4AF96"></path>
            </g>
        </g>
    </g>
</svg>