<?xml version="1.0" encoding="UTF-8"?>
<svg width="22px" height="26px" viewBox="0 0 22 26" version="1.1" xmlns="http://www.w3.org/2000/svg" xmlns:xlink="http://www.w3.org/1999/xlink">
    <!-- Generator: Sketch 52.5 (67469) - http://www.bohemiancoding.com/sketch -->
    <title>icon</title>
    <desc>Created with Sketch.</desc>
    <defs>
        <path d="M4.025,22.9199167 C4.95416667,19.33075 8.21083333,16.6699167 12.0866667,16.6699167 C15.9616667,16.6699167 19.2183333,19.33075 20.1483333,22.9199167 L4.025,22.9199167 Z M20.4233333,25.0065833 L20.4233333,25.00325 L3.75,25.00325 L3.75,25.0065833 L1.66666667,25.0065833 C1.66666667,19.26075 6.34083333,14.5865833 12.0866667,14.5865833 C17.8316667,14.5865833 22.5066667,19.26075 22.5066667,25.0065833 L20.4233333,25.0065833 Z M12.0865,12.5066667 C8.63816667,12.5066667 5.83316667,9.70166667 5.83316667,6.25333333 C5.83316667,2.805 8.63816667,0 12.0865,0 C15.5348333,0 18.3398333,2.805 18.3398333,6.25333333 C18.3398333,9.70166667 15.5348333,12.5066667 12.0865,12.5066667 Z M12.0865,2.08333333 C9.78733333,2.08333333 7.9165,3.95416667 7.9165,6.25333333 C7.9165,8.5525 9.78733333,10.4233333 12.0865,10.4233333 C14.3856667,10.4233333 16.2565,8.5525 16.2565,6.25333333 C16.2565,3.95416667 14.3856667,2.08333333 12.0865,2.08333333 Z" id="path-1"></path>
    </defs>
    <g id="MOB--Header-y-footer" stroke="none" stroke-width="1" fill="none" fill-rule="evenodd">
        <g id="Liberty_1-Home2-1-Copy" transform="translate(-43.000000, -52.000000)">
            <g id="menu" transform="translate(0.000000, 40.000000)">
                <g id="Elements-/-Icon-/-Glyph-/-User-Outline" transform="translate(42.000000, 12.000000)">
                    <mask id="mask-2" fill="white">
                        <use xlink:href="#path-1"></use>
                    </mask>
                    <use id="Mask" fill="#000000" fill-rule="evenodd" xlink:href="#path-1"></use>
                    <g id="Elements-/-Color-/-Secundario-/-Blue-1" mask="url(#mask-2)" fill="#1A1446" fill-rule="evenodd">
                        <rect id="Rectangle" x="0" y="0" width="25" height="25"></rect>
                    </g>
                </g>
            </g>
        </g>
    </g>
</svg>