<?xml version="1.0" standalone="no"?>
<!DOCTYPE svg PUBLIC "-//W3C//DTD SVG 20010904//EN"
 "http://www.w3.org/TR/2001/REC-SVG-20010904/DTD/svg10.dtd">
<svg version="1.0" xmlns="http://www.w3.org/2000/svg"
 width="200.000000pt" height="200.000000pt" viewBox="0 0 200.000000 200.000000"
 preserveAspectRatio="xMidYMid meet">

<g transform="translate(0.000000,200.000000) scale(0.100000,-0.100000)"
fill="#000000" stroke="none">
<path d="M1027 1483 c-4 -3 -7 -115 -7 -249 0 -291 -1 -289 99 -190 l66 65
170 3 170 3 3 174 c2 119 -1 178 -9 187 -9 11 -59 14 -249 14 -130 0 -240 -3
-243 -7z m443 -183 l0 -130 -157 0 -156 0 -38 -40 c-21 -22 -40 -40 -41 -40
-2 0 -2 76 0 170 l3 170 194 0 195 0 0 -130z"/>
<path d="M1154 1305 c-9 -23 4 -47 23 -43 22 4 30 38 11 49 -19 13 -28 11 -34
-6z"/>
<path d="M1254 1305 c-9 -23 4 -47 23 -43 22 4 30 38 11 49 -19 13 -28 11 -34
-6z"/>
<path d="M1354 1305 c-9 -23 4 -47 23 -43 22 4 30 38 11 49 -19 13 -28 11 -34
-6z"/>
<path d="M477 1342 c-15 -16 -17 -54 -17 -333 0 -269 2 -318 16 -337 l15 -22
458 0 c431 0 459 1 474 18 15 16 17 46 17 205 l0 187 -30 0 -30 0 0 -175 0
-175 -430 0 -430 0 0 295 0 295 225 0 225 0 0 30 0 30 -238 0 c-219 0 -240 -2
-255 -18z"/>
<path d="M759 1149 c-52 -55 -36 -139 33 -175 87 -45 189 57 144 144 -22 43
-54 62 -104 62 -36 0 -49 -5 -73 -31z m126 -63 c7 -22 5 -30 -13 -48 -18 -18
-26 -20 -48 -13 -41 15 -49 51 -19 80 29 30 65 22 80 -19z"/>
<path d="M794 920 c-69 -16 -134 -92 -134 -155 0 -20 5 -25 25 -25 16 0 28 7
31 18 26 82 75 120 141 107 44 -8 91 -53 99 -94 5 -24 12 -31 30 -31 33 0 38
16 19 65 -20 53 -70 100 -122 114 -42 12 -45 12 -89 1z"/>
<path d="M930 595 l0 -25 -125 0 -125 0 0 -30 0 -30 280 0 280 0 0 30 0 30
-125 0 -125 0 0 25 c0 21 -5 25 -30 25 -25 0 -30 -4 -30 -25z"/>
</g>
</svg>
