<?xml version="1.0" standalone="no"?>
<!DOCTYPE svg PUBLIC "-//W3C//DTD SVG 20010904//EN"
 "http://www.w3.org/TR/2001/REC-SVG-20010904/DTD/svg10.dtd">
<svg version="1.0" xmlns="http://www.w3.org/2000/svg"
 width="200.000000pt" height="200.000000pt" viewBox="0 0 200.000000 200.000000"
 preserveAspectRatio="xMidYMid meet">

<g transform="translate(0.000000,200.000000) scale(0.100000,-0.100000)"
fill="#000000" stroke="none">
<path d="M951 1496 c-70 -39 -66 -149 8 -177 l26 -11 -38 -13 c-48 -16 -85
-50 -103 -92 -12 -27 -20 -33 -44 -33 -38 0 -44 -14 -60 -126 -12 -89 -12 -92
10 -114 12 -12 23 -20 25 -18 1 2 9 46 16 98 l14 95 196 3 196 2 13 -100 c7
-55 15 -100 17 -100 1 0 13 10 24 21 21 21 21 25 9 113 -15 113 -22 126 -63
126 -28 0 -35 5 -45 33 -15 43 -50 75 -99 92 l-38 13 28 13 c30 14 57 55 57
88 0 75 -83 124 -149 87z m89 -67 c20 -36 -22 -79 -59 -60 -25 14 -33 38 -21
61 18 33 62 33 80 -1z m39 -216 l36 -38 -109 -3 c-60 -1 -111 0 -115 3 -3 4
11 22 31 41 30 27 46 34 79 34 34 0 47 -6 78 -37z"/>
<path d="M562 1148 c-34 -9 -72 -57 -72 -91 0 -33 31 -78 62 -91 l31 -13 -35
-12 c-42 -14 -91 -65 -107 -110 -16 -48 -15 -51 19 -51 20 0 30 5 30 15 0 32
30 73 66 90 44 21 97 10 132 -28 l21 -23 -19 -128 c-11 -70 -17 -132 -14 -137
3 -5 29 -9 59 -9 l53 0 -5 -40 c-5 -37 -4 -40 19 -40 21 0 27 6 32 31 15 76
89 139 164 139 73 0 155 -65 168 -135 5 -29 11 -35 31 -35 24 0 25 2 20 40
l-5 40 54 0 c35 0 56 5 59 13 3 6 -4 68 -14 137 l-20 125 22 23 c34 37 87 48
131 27 36 -17 66 -58 66 -90 0 -10 10 -15 30 -15 34 0 35 3 19 51 -16 47 -66
97 -112 111 l-38 11 30 13 c29 12 61 58 61 89 0 9 -7 29 -15 45 -47 91 -185
57 -185 -44 1 -46 14 -69 54 -90 l28 -14 -32 -7 c-44 -10 -110 -77 -110 -113
0 -24 10 -96 25 -189 l6 -33 -44 0 c-34 0 -49 6 -68 26 -78 86 -238 85 -318 0
-19 -20 -34 -26 -68 -26 l-44 0 5 33 c3 17 10 59 16 91 18 104 14 122 -29 165
-25 25 -53 42 -76 47 l-36 6 27 14 c40 21 53 44 54 90 0 31 -6 46 -27 66 -34
31 -58 37 -101 26z m62 -64 c19 -18 20 -28 6 -55 -20 -37 -80 -18 -80 26 0 42
44 59 74 29z m804 4 c7 -7 12 -21 12 -33 0 -44 -60 -63 -80 -26 -14 27 -13 37
6 55 18 19 45 21 62 4z"/>
<path d="M915 947 c-43 -43 -52 -79 -34 -131 38 -108 192 -114 235 -9 21 50
10 99 -31 140 -29 29 -39 33 -85 33 -46 0 -56 -4 -85 -33z m129 -38 c52 -41
23 -122 -44 -122 -64 0 -95 79 -48 123 28 26 58 26 92 -1z"/>
</g>
</svg>
