<?xml version="1.0" standalone="no"?>
<!DOCTYPE svg PUBLIC "-//W3C//DTD SVG 20010904//EN"
 "http://www.w3.org/TR/2001/REC-SVG-20010904/DTD/svg10.dtd">
<svg version="1.0" xmlns="http://www.w3.org/2000/svg"
 width="200.000000pt" height="200.000000pt" viewBox="0 0 200.000000 200.000000"
 preserveAspectRatio="xMidYMid meet">

<g transform="translate(0.000000,200.000000) scale(0.100000,-0.100000)"
fill="#000000" stroke="none">
<path d="M935 1611 c-92 -47 -101 -165 -19 -230 54 -43 156 -21 194 42 69 113
-57 248 -175 188z m88 -53 c50 -26 60 -69 26 -112 -26 -33 -73 -35 -106 -4
-37 35 -26 99 20 118 30 12 35 12 60 -2z"/>
<path d="M915 1311 c-48 -21 -89 -67 -105 -116 -15 -45 -7 -65 23 -65 19 0 26
7 30 30 4 16 21 46 40 66 26 28 42 37 77 41 73 7 121 -28 150 -109 6 -18 17
-28 30 -28 28 0 34 22 20 65 -36 110 -160 164 -265 116z"/>
<path d="M960 1032 l0 -98 -84 -48 c-73 -42 -84 -52 -75 -67 17 -33 29 -31
110 16 l80 46 81 -45 c44 -25 84 -46 88 -46 4 0 12 11 18 25 11 23 8 26 -71
73 l-82 48 -3 97 -3 97 -29 0 -30 0 0 -98z"/>
<path d="M552 1050 c-59 -36 -78 -118 -42 -177 72 -119 250 -75 250 61 0 110
-114 173 -208 116z m125 -62 c58 -54 -4 -148 -78 -118 -25 11 -49 46 -49 74 0
7 9 25 21 40 26 33 73 35 106 4z"/>
<path d="M1276 1049 c-81 -64 -73 -184 16 -230 48 -24 85 -24 126 1 90 55 95
178 9 230 -44 27 -116 27 -151 -1z m133 -65 c34 -43 26 -86 -20 -110 -76 -39
-145 51 -87 113 30 33 80 31 107 -3z"/>
<path d="M566 765 c-65 -23 -115 -81 -131 -152 -6 -32 -5 -33 25 -33 20 0 32
6 36 18 19 62 36 84 79 103 37 16 51 18 83 10 47 -13 89 -56 98 -99 6 -27 11
-32 35 -32 24 0 29 4 29 25 0 64 -69 145 -138 165 -48 13 -68 12 -116 -5z"/>
<path d="M1300 769 c-52 -16 -95 -53 -119 -102 -30 -63 -28 -87 8 -87 25 0 31
5 36 30 16 74 94 120 167 100 42 -12 86 -59 95 -101 5 -24 10 -29 36 -29 29 0
29 1 24 37 -18 108 -140 184 -247 152z"/>
</g>
</svg>
