<?xml version="1.0" standalone="no"?>
<!DOCTYPE svg PUBLIC "-//W3C//DTD SVG 20010904//EN"
 "http://www.w3.org/TR/2001/REC-SVG-20010904/DTD/svg10.dtd">
<svg version="1.0" xmlns="http://www.w3.org/2000/svg"
 width="200.000000pt" height="200.000000pt" viewBox="0 0 200.000000 200.000000"
 preserveAspectRatio="xMidYMid meet">

<g transform="translate(0.000000,200.000000) scale(0.100000,-0.100000)"
fill="#000000" stroke="none">
<path d="M562 1528 c-9 -9 -12 -118 -12 -428 l0 -415 111 -118 111 -117 326 2
327 3 3 225 c2 124 0 240 -3 258 -3 18 -21 48 -40 67 -55 55 -135 59 -194 9
-24 -20 -33 -23 -56 -14 -33 12 -95 13 -114 1 -10 -7 -25 -1 -49 17 -84 64
-213 15 -236 -90 -6 -26 -4 -28 23 -28 24 0 33 7 48 38 23 48 77 65 118 38 21
-14 25 -23 20 -39 -4 -12 -9 -34 -12 -49 -5 -26 -3 -28 26 -28 24 0 31 4 31
19 0 32 45 71 83 71 40 0 84 -31 89 -63 3 -22 28 -33 53 -24 10 5 11 14 3 47
-13 50 0 68 55 77 31 5 40 1 67 -25 l30 -30 0 -211 0 -211 -255 0 -254 0 -3
123 -3 122 -122 3 -123 3 0 359 0 360 380 0 380 0 0 -50 c0 -49 1 -50 30 -50
l30 0 0 68 c0 40 -5 73 -12 80 -17 17 -839 17 -856 0z m238 -921 l0 -92 -90
90 c-49 49 -90 92 -90 95 0 3 40 4 90 2 l90 -3 0 -92z"/>
<path d="M809 1261 c-64 -64 -18 -181 71 -181 34 0 79 28 96 61 52 102 -86
201 -167 120z m113 -56 c9 -21 8 -28 -7 -45 -31 -34 -75 -20 -75 25 0 48 62
63 82 20z"/>
<path d="M1209 1259 c-43 -46 -41 -99 6 -146 32 -32 40 -35 76 -30 50 7 87 39
95 85 19 100 -108 165 -177 91z m111 -44 c31 -38 -27 -96 -65 -65 -18 15 -20
51 -3 68 17 17 53 15 68 -3z"/>
<path d="M1023 1186 c-22 -19 -28 -32 -28 -66 0 -80 82 -116 144 -64 25 20 31
34 31 63 0 81 -86 120 -147 67z m85 -64 c4 -28 -24 -41 -44 -20 -20 20 -7 50
20 46 13 -2 22 -12 24 -26z"/>
</g>
</svg>
