<?xml version="1.0" standalone="no"?>
<!DOCTYPE svg PUBLIC "-//W3C//DTD SVG 20010904//EN"
 "http://www.w3.org/TR/2001/REC-SVG-20010904/DTD/svg10.dtd">
<svg version="1.0" xmlns="http://www.w3.org/2000/svg"
 width="200.000000pt" height="200.000000pt" viewBox="0 0 200.000000 200.000000"
 preserveAspectRatio="xMidYMid meet">

<g transform="translate(0.000000,200.000000) scale(0.100000,-0.100000)"
fill="#000000" stroke="none">
<path d="M883 1505 c-90 -20 -178 -70 -254 -145 -213 -211 -209 -546 10 -752
114 -108 239 -155 391 -145 462 29 669 593 333 907 -135 126 -303 173 -480
135z m-55 -103 c-24 -26 -57 -69 -72 -94 l-28 -48 -39 20 c-21 11 -39 25 -39
30 0 21 185 139 219 140 2 0 -16 -21 -41 -48z m144 -73 l-3 -121 -52 6 c-67 9
-137 27 -137 35 1 28 162 201 189 201 3 0 5 -55 3 -121z m156 36 c34 -36 68
-78 77 -94 l15 -29 -48 -11 c-26 -6 -68 -13 -94 -17 l-48 -6 0 121 c0 143 -1
143 98 36z m99 41 c100 -51 177 -141 223 -261 32 -83 32 -224 1 -309 -45 -124
-131 -221 -246 -276 -35 -17 -66 -30 -70 -30 -4 0 12 21 37 48 24 26 53 62 63
80 14 23 39 42 86 63 52 24 70 38 83 66 9 20 15 37 13 39 -2 2 -28 -9 -58 -26
-30 -16 -57 -30 -60 -30 -4 0 0 19 8 43 8 23 18 68 21 100 7 57 8 58 62 91 47
28 55 37 53 61 -1 15 -4 29 -6 32 -3 2 -25 -10 -50 -27 -25 -16 -47 -30 -50
-30 -3 0 -8 21 -12 46 -3 25 -13 63 -20 85 -14 39 -14 39 15 54 34 17 37 27
15 45 -12 10 -22 10 -40 2 -22 -10 -26 -8 -49 32 -14 23 -46 66 -71 94 -52 57
-46 58 52 8z m-567 -171 l49 -25 -14 -33 c-8 -19 -17 -57 -21 -85 -3 -29 -9
-52 -12 -52 -9 0 -100 60 -111 74 -7 8 -1 31 21 79 17 37 33 67 35 67 2 0 26
-11 53 -25z m228 -67 l82 -12 0 -100 0 -99 -58 6 c-31 3 -88 16 -126 27 l-69
22 6 48 c3 27 12 68 18 90 11 38 15 41 38 36 14 -3 63 -12 109 -18z m376 -47
c25 -109 26 -107 -51 -131 -37 -11 -94 -24 -125 -27 l-58 -6 0 102 0 101 38 1
c20 0 62 7 92 14 91 20 87 23 104 -54z m-592 -212 c3 -35 11 -77 17 -92 6 -16
11 -33 11 -38 0 -11 -98 39 -138 69 -26 20 -46 114 -36 174 l6 37 66 -44 67
-43 7 -63z m594 -42 c-9 -40 -25 -86 -35 -103 -17 -28 -27 -33 -88 -43 -127
-22 -113 -33 -113 83 l0 102 123 25 c67 14 124 22 125 17 2 -5 -3 -41 -12 -81z
m-461 63 c43 -11 98 -20 122 -20 l43 0 0 -101 0 -102 -62 6 c-35 4 -80 11
-100 17 -33 10 -38 16 -57 73 -21 63 -37 147 -29 147 3 0 40 -9 83 -20z m-39
-277 c14 -21 44 -57 67 -80 23 -24 37 -43 33 -43 -23 0 -138 65 -179 101 -42
36 -107 118 -107 133 0 3 36 -12 80 -34 61 -29 87 -48 106 -77z m162 2 l42 -7
0 -59 c0 -32 -3 -59 -7 -59 -13 0 -101 80 -124 112 l-22 31 34 -6 c19 -3 53
-9 77 -12z m227 -19 c-25 -33 -107 -106 -119 -106 -3 0 -6 27 -6 59 l0 60 48
6 c26 4 52 8 57 10 6 2 18 4 28 4 16 1 15 -4 -8 -33z"/>
</g>
</svg>
