<svg version="1.1" id="Layer_1" xmlns="http://www.w3.org/2000/svg" xmlns:xlink="http://www.w3.org/1999/xlink" x="0px" y="0px" viewBox="0 0 114 114" style="enable-background:new 0 0 114 114;" xml:space="preserve">
<style type="text/css">
  .st0{fill: #1a1447;}
  .st1{fill:none;stroke: #1a1447;stroke-width:7.1698;stroke-linecap:round;stroke-linejoin:round;}
</style>
  <g>
  <path class="st0" d="M-80,62.4c-17.7,0-32.2,14.4-32.2,32.2h5.1c0-10.4,5.9-19.4,14.5-23.9l7.3,7.3c1.4,1.4,3.2,2.1,5.2,2.1
    s3.8-0.8,5.2-2.1l7.3-7.3C-58.9,75.2-53,84.2-53,94.6h5.1C-47.9,76.8-62.3,62.4-80,62.4z M-78.4,74.3c-0.8,0.8-2.3,0.8-3.1,0
    l-5.8-5.8c2.3-0.6,4.7-1,7.2-1c2.6,0,5,0.4,7.4,1L-78.4,74.3z"></path>
    <path class="st0" d="M-101.9,45.2h1.8c3.3,7.7,10.9,13.1,19.8,13.1c8.7,0,16.2-5.2,19.6-12.6l2.4-0.5h0.3c0.6,0,1.2-0.2,1.7-0.4
    c1.2-0.3,2-1.3,2-2.5v-0.8c0,0,0,0,0-0.1v-8.8c0-2.1-1.7-3.8-3.8-3.8h-2.2c-3.2-7.9-10.9-13.6-20-13.6c-9.1,0-16.8,5.6-20,13.6
    h-1.6c-2.1,0-3.8,1.7-3.8,3.8v8.8C-105.6,43.5-103.9,45.2-101.9,45.2z M-80.3,20.5c9,0,16.4,7.3,16.4,16.4c0,1.6-0.2,3.1-0.6,4.5
    l-11.6,2.6c-1.4,0.3-2.3,1.7-2,3.1c0.3,1.2,1.3,2,2.5,2c0.2,0,0.4,0,0.6-0.1l7.3-1.6c-3,3.6-7.5,5.9-12.6,5.9
    c-9,0-16.4-7.3-16.4-16.3C-96.7,27.8-89.3,20.5-80.3,20.5z"></path>
    <path class="st0" d="M-87.4,32.6c-2,0-3.7,1.6-3.7,3.7h7.3C-83.8,34.2-85.4,32.6-87.4,32.6z"></path>
    <path class="st0" d="M-72.2,32.6c-2,0-3.7,1.6-3.7,3.7h7.3C-68.6,34.2-70.2,32.6-72.2,32.6z"></path>
</g>
  <g>
  <path class="st0" d="M95.4,82.7l-16-16l11.4-6.6c0.9-0.5,1.4-1.5,1.3-2.5c-0.1-1-0.7-1.9-1.7-2.3L39.6,35.1c-1-0.4-2.1-0.2-2.9,0.6
    c-0.8,0.8-1,1.9-0.6,2.9l20.3,50.8c0.4,1,1.3,1.6,2.3,1.7c1,0.1,2-0.4,2.5-1.3l6.6-11.4l16,16c0.5,0.5,1.2,0.8,1.9,0.8
    c0.7,0,1.4-0.3,1.9-0.8l7.8-7.8C96.5,85.5,96.5,83.8,95.4,82.7z M85.7,88.6L69.2,72.1c-0.5-0.5-1.2-0.8-1.9-0.8c-0.1,0-0.2,0-0.4,0
    c-0.8,0.1-1.6,0.6-2,1.3l-5.6,9.6L43.5,42.4l39.9,15.9l-9.6,5.6c-0.7,0.4-1.2,1.1-1.3,2c-0.1,0.8,0.2,1.7,0.8,2.2l16.6,16.6
    L85.7,88.6z"></path>
    <path class="st0" d="M27.7,22.8c-1-1-2.7-1-3.8,0c-1,1-1,2.7,0,3.8l6,6c0.5,0.5,1.2,0.8,1.9,0.8c0.7,0,1.4-0.3,1.9-0.8
    c1-1,1-2.7,0-3.8L27.7,22.8z"></path>
    <path class="st0" d="M29.7,41.4c0-1.5-1.2-2.7-2.7-2.7h-8.4c-1.5,0-2.7,1.2-2.7,2.7c0,1.5,1.2,2.7,2.7,2.7H27
    C28.5,44,29.7,42.8,29.7,41.4z"></path>
    <path class="st0" d="M28.6,49.6l-6,6c-1,1-1,2.7,0,3.8c0.5,0.5,1.2,0.8,1.9,0.8c0.7,0,1.4-0.3,1.9-0.8l6-6c1-1,1-2.7,0-3.8
    C31.4,48.6,29.7,48.6,28.6,49.6z"></path>
    <path class="st0" d="M42.5,28.6c1.5,0,2.7-1.2,2.7-2.7v-8.4c0-1.5-1.2-2.7-2.7-2.7c-1.5,0-2.7,1.2-2.7,2.7v8.4
    C39.8,27.4,41,28.6,42.5,28.6z"></path>
    <path class="st0" d="M52.6,32.1c0.7,0,1.4-0.3,1.9-0.8l6-6c1-1,1-2.7,0-3.8c-1-1-2.7-1-3.8,0l-6,6c-1,1-1,2.7,0,3.8
    C51.3,31.8,52,32.1,52.6,32.1z"></path>
</g>
  <g>
  <g>
    <g>
      <path class="st0" d="M252.3,80c-3.3-4.9-5-10.6-5-16.5V46.7c0-6.9-2.7-13.3-7.5-18.2c-4.1-4.1-9.4-6.6-15.1-7.3V15h-6.2v6.3
        C205.9,22.9,196,33.8,196,47v16.5c0,5.9-1.7,11.6-5,16.5l-5.9,8.8H213c1.3,3.6,4.7,6.2,8.7,6.2c4,0,7.4-2.6,8.7-6.2h27.8
        L252.3,80z M196.6,82.6c3.6-5.7,5.5-12.4,5.5-19.2V47c0-10.8,8.7-19.7,19.4-19.7c0,0,0,0,0.1,0c5.2,0,10.1,2,13.8,5.7
        c3.7,3.7,5.7,8.6,5.7,13.8v16.7c0,6.8,1.9,13.4,5.5,19.2H196.6z"></path>
    </g>
  </g>
    <g>
    <g>
      <path class="st0" d="M265.5,33.9l-4.4,4.4c4.5,4.5,6.9,10.4,6.9,16.7c0,6.2-2.4,12-6.6,16.4l4.4,4.3c5.4-5.6,8.4-12.9,8.4-20.7
        C274.2,47,271.1,39.5,265.5,33.9z"></path>
    </g>
  </g>
    <g>
    <g>
      <path class="st0" d="M256.7,42.6l-4.4,4.4c2.1,2.1,3.3,5,3.3,8c0,3-1.1,5.8-3.2,7.9l4.4,4.3c3.2-3.3,5-7.6,5-12.2
        C261.9,50.3,260,45.9,256.7,42.6z"></path>
    </g>
  </g>
    <g>
    <g>
      <path class="st0" d="M182.2,38.3l-4.4-4.4c-5.6,5.6-8.7,13.1-8.7,21c0,7.8,3,15.1,8.4,20.7l4.4-4.3c-4.3-4.4-6.6-10.3-6.6-16.4
        C175.3,48.6,177.8,42.7,182.2,38.3z"></path>
    </g>
  </g>
    <g>
    <g>
      <path class="st0" d="M190.9,47l-4.4-4.4c-3.3,3.3-5.1,7.7-5.1,12.3c0,4.6,1.8,8.9,5,12.2l4.4-4.3c-2.1-2.1-3.2-4.9-3.2-7.9
        C187.6,51.9,188.8,49.1,190.9,47z"></path>
    </g>
  </g>
</g>
  <g>
  <path class="st1" d="M-267.6,72.1l-0.2,10.8c-0.1,4,3.1,7.2,7.1,7.3l50.2,0.8c4,0.1,7.2-3.1,7.3-7.1l0.2-10.8"></path>
    <polyline class="st1" points="-220.4,33.5 -234.5,18.9 -249,33   "></polyline>
    <line class="st1" x1="-234.5" y1="18.9" x2="-235.3" y2="69.1"></line>
</g>
  <g>
  <g>
    <path class="st0" d="M-422.1,43.5c-6.5,0-11.7,5.1-11.7,11.7s5.1,11.7,11.7,11.7s11.7-5.1,11.7-11.7S-415.5,43.5-422.1,43.5
      L-422.1,43.5z M-422.1,62.2c-3.7,0-7-3.3-7-7s3.3-7,7-7s7,3.3,7,7C-415.1,58.9-418.3,62.2-422.1,62.2z"></path>
    <path class="st0" d="M-388,46.3h-4.2c-0.5,0-0.9,0-0.9-0.5c-0.5-1.4-0.9-3.3-1.9-4.7c0,0-0.5-0.5,0-0.9l3.3-3.3
      c2.3-2.3,2.3-5.6,0-7.9l-4.7-4.7c-2.3-1.9-6.1-1.9-7.9,0l-3.3,3.3c0,0-0.5,0-0.9,0c-1.4-0.5-3.3-1.4-4.7-1.9
      c0-0.5-0.5-0.5-0.5-0.9v-4.2c0-3.3-2.8-5.6-5.6-5.6h-6.1c-3.3,0-5.6,2.8-5.6,5.6v4.2c0,0.5,0,0.9-0.5,0.9
      c-1.4,0.5-3.3,0.9-4.7,1.9c-0.5,0.5-0.5,0.5-0.9,0l-3.3-3.3c-2.3-1.9-6.1-1.9-7.9,0l-4.7,4.7c-2.3,2.3-2.3,5.6,0,7.9l3.3,3.3
      c0,0.5,0,0.5,0,0.9c-0.5,1.4-1.4,2.8-1.9,4.7c-0.5,0-0.5,0.5-0.9,0.5h-4.2c-3.3,0-5.6,2.8-5.6,5.6V58c0,3.3,2.8,5.6,5.6,5.6h4.2
      c0.5,0,0.9,0,0.9,0.5c0.5,1.4,0.9,3.3,1.9,4.7c0,0,0.5,0.5,0,0.9l-3.3,3.3c-2.3,2.3-2.3,5.6,0,7.9l4.7,4.7c2.3,1.9,6.1,1.9,7.9,0
      l3.3-3.3c0,0,0.5,0,0.9,0c1.9,0.9,3.7,1.9,5.6,2.3v4.7c0,3.3,2.8,5.6,5.6,5.6h6.1c2.8,0,5.1-2.3,5.1-5.6v-4.2c0-0.5,0-0.9,0.5-0.9
      c1.4-0.5,3.3-0.9,4.7-1.9c0.5-0.5,0.5-0.5,0.9,0l3.3,3.3c2.3,1.9,6.1,1.9,7.9,0l4.7-4.7c2.3-2.3,2.3-5.6,0-7.9l-3.3-3.3
      c0-0.5,0-0.5,0-0.9c0.5-1.4,1.4-2.8,1.9-4.7c0.5,0,0.5-0.5,0.9-0.5h4.2c3.3,0,5.6-2.8,5.6-5.6v-6.1
      C-382.4,48.6-385.2,46.3-388,46.3L-388,46.3z M-386.6,58c0,0.5-0.5,0.9-0.9,0.9h-4.2c-2.3,0-4.2,1.4-5.1,3.7
      c-0.5,1.4-1.4,2.8-1.9,4.2c-0.9,2.3-0.9,4.7,0.9,6.5l3.3,3.3c0.5,0,0.5,0.5,0,0.9l-4.7,4.7c0,0.5-0.5,0.5-0.9,0l-3.3-3.3
      c-1.9-1.9-4.2-1.9-6.5-0.9c-1.4,0.9-2.8,1.4-4.2,1.9c-2.3,0.5-3.7,2.8-3.7,5.1v4.2c0,0.5-0.5,0.9-0.9,0.9h-6.1
      c-0.5,0-0.9-0.5-0.9-0.9v-6.5c0-0.9-0.9-1.9-1.9-2.3c-1.9-0.5-4.2-1.4-6.1-2.3c-0.9-0.5-1.9-0.5-2.8-0.5c-1.4,0-2.8,0.5-3.7,1.4
      l-3.3,3.3c0,0.5-0.5,0.5-0.9,0l-4.7-4.7c-0.5,0-0.5-0.5,0-0.9l3.3-3.3c1.9-1.9,1.9-4.2,0.9-6.5c-0.9-1.4-1.4-2.8-1.9-4.2
      c-0.5-2.3-2.8-3.7-5.1-3.7h-4.2c-0.5,0-0.9-0.5-0.9-0.9v-6.1c0-0.5,0.5-0.9,0.9-0.9h4.2c2.3,0,4.2-1.4,5.1-3.7
      c0.5-1.4,1.4-2.8,1.9-4.2c0.9-2.3,0.9-4.7-0.9-6.5l-3.3-3.3c-0.5,0-0.5-0.5,0-0.9l4.7-4.7c0-0.5,0.5-0.5,0.9,0l3.3,3.3
      c1.9,1.9,4.2,1.9,6.5,0.9c1.4-0.9,2.8-1.4,4.2-1.9c2.3-0.5,3.7-2.8,3.7-5.1v-4.2c0-0.5,0.5-0.9,0.9-0.9h6.1c0.5,0,0.9,0.5,0.9,0.9
      v4.2c0,2.3,1.4,4.2,3.7,5.1c1.4,0.5,2.8,1.4,4.2,1.9c2.3,0.9,4.7,0.5,6.5-0.9l3.3-3.3c0-0.5,0.5-0.5,0.9,0l4.7,4.7
      c0.5,0,0.5,0.5,0,0.9l-3.3,3.3c-1.9,1.9-1.9,4.2-0.9,6.5c0.9,1.4,1.4,2.8,1.9,4.2c0.5,2.3,2.8,3.7,5.1,3.7h4.2
      c0.5,0,0.9,0.5,0.9,0.9L-386.6,58L-386.6,58z"></path>
  </g>
</g>
</svg>
