<svg version="1.1" id="Layer_1" xmlns="http://www.w3.org/2000/svg" xmlns:xlink="http://www.w3.org/1999/xlink" x="0px"
     y="0px" viewBox="0 0 45.9 46.4" style="enable-background:new 0 0 45.9 46.4;" xml:space="preserve">
                        <style type="text/css">
                          .st0{fill:#1A1446;}
                        </style>
  <g>
                          <path class="st0" d="M45.7,22.7c0,12.2-10,22.1-22.4,22.1c-4,0-7.6-1.1-10.8-2.9L0.2,46.1l4-12C2,30.7,0.8,26.7,0.8,22.6
                            c0-12.2,10-22.1,22.4-22.1C35.5,0.4,45.7,10.4,45.7,22.7L45.7,22.7z M23.2,3.9c-10.4,0-18.9,8.4-18.9,18.8c0,4.1,1.3,7.9,3.6,10.9
                            l-2.3,6.9l7.1-2.2c3,1.9,6.5,3.1,10.4,3.1c10.4,0,19-8.4,19-18.7C42.2,12.4,33.6,3.9,23.2,3.9L23.2,3.9z M34.4,27.7
                            c-0.1-0.2-0.5-0.4-1.1-0.6s-3.3-1.6-3.7-1.7c-0.5-0.1-1-0.2-1.2,0.2c-0.4,0.5-1.5,1.7-1.7,2.1c-0.4,0.4-0.6,0.4-1.2,0.1
                            c-0.5-0.2-2.2-0.7-4.4-2.8c-1.6-1.5-2.9-3.3-3.1-3.7c-0.2-0.5,0-0.7,0.2-1.1c0.2-0.2,0.5-0.6,0.7-1c0.2-0.2,0.4-0.5,0.5-1
                            c0.1-0.4,0.1-0.6,0-1c-0.1-0.2-1.2-3-1.7-4c-0.4-1.1-1-1-1.2-1s-0.6,0-1.1,0c-0.4,0-0.8,0.3-1.3,0.8c-0.5,0.5-1.8,1.8-1.8,4.6
                            c0,2.8,1.9,5.3,2.2,5.6c0.2,0.4,3.9,5.9,9.4,8.3c5.6,2.1,5.6,1.5,6.6,1.3c1.1-0.1,3.3-1.3,3.7-2.4C34.7,29.1,34.7,28.1,34.4,27.7
                            L34.4,27.7z"></path>
                        </g>
                        </svg>
