<svg version="1.1" id="Layer_1" xmlns="http://www.w3.org/2000/svg" xmlns:xlink="http://www.w3.org/1999/xlink" x="0px" y="0px" viewBox="0 0 45.9 46.4" style="enable-background:new 0 0 45.9 46.4;" xml:space="preserve">
                <style type="text/css">
                  .st0{fill:#1A1446;}
                </style>
  <g>
                  <path class="st0" d="M22.9,0.7c-9.1,0-16.6,7.4-16.6,16.6c0,2.4,0.5,4.7,1.4,6.8c4.1,9.1,12.1,18.6,14.4,21.3
                    c0.2,0.2,0.4,0.3,0.7,0.3c0.3,0,0.5-0.1,0.7-0.3C26,42.6,33.9,33.1,38.1,24c1-2.1,1.5-4.4,1.5-6.8C39.5,8.1,32.1,0.7,22.9,0.7
                    L22.9,0.7z M22.9,25.9c-4.7,0-8.6-3.9-8.6-8.6s3.9-8.6,8.6-8.6s8.6,3.9,8.6,8.6C31.6,22,27.7,25.9,22.9,25.9L22.9,25.9z"></path>
                </g>
                </svg>
