<svg viewBox="0 0 16 16">
  <path class="st0" xmlns="http://www.w3.org/2000/svg"
        d="M8 15.9C3.644 15.9.1 12.356.1 8 .1 3.643 3.644.1 8 .1s7.9 3.543 7.9 7.9c0 4.356-3.544 7.9-7.9 7.9zM8 1.4C4.36 1.4 1.4 4.36 1.4 8A6.606 6.606 0 0 0 8 14.6c3.64 0 6.6-2.96 6.6-6.6 0-3.64-2.96-6.6-6.6-6.6zM7.216 12.4v-1.237h1.445v1.237H7.216zm1.421-2.092H7.24V9.75c0-.63.148-1.345 1.23-2.306.721-.65.78-1.073.78-1.52 0-.046-.014-1.13-1.178-1.13-.775 0-1.205.404-1.353 1.269l-.057.332H5.298l.03-.425c.06-.942.71-2.54 2.755-2.54 1.787 0 2.6 1.287 2.6 2.48 0 1.027-.343 1.698-1.312 2.562-.555.494-.734.822-.734 1.35v.484z"></path>
</svg>
