<svg xmlns="http://www.w3.org/2000/svg" xmlns:xlink="http://www.w3.org/1999/xlink" width="22" height="22" viewBox="0 0 22 22">
    <defs>
        <path id="a" d="M21.083 13.75c.506 0 .917.41.917.917v5.316A2.018 2.018 0 0 1 19.983 22H2.017A2.018 2.018 0 0 1 0 19.983V2.017C0 .904.904 0 2.017 0h5.316a.917.917 0 0 1 0 1.833H2.017a.183.183 0 0 0-.184.184v17.966c0 .102.082.184.184.184h17.966a.183.183 0 0 0 .184-.184v-5.316c0-.506.41-.917.916-.917zM21.93.566A.921.921 0 0 1 22 .917v6.417a.917.917 0 0 1-1.833 0V3.13L8.897 14.398a.913.913 0 0 1-1.295 0 .916.916 0 0 1 0-1.296L18.869 1.835l-4.203-.001a.917.917 0 0 1 0-1.834h.002l6.402.003a.91.91 0 0 1 .86.564z"/>
    </defs>
    <g fill="none" fill-rule="evenodd">
        <mask id="b" fill="#fff">
            <use xlink:href="#a"/>
        </mask>
        <use fill="#1A1446" xlink:href="#a"/>
        <g fill="#006675" mask="url(#b)">
            <path d="M0 0h22v22H0z"/>
        </g>
    </g>
</svg>
