<svg xmlns="http://www.w3.org/2000/svg" xmlns:xlink="http://www.w3.org/1999/xlink" width="30" height="30" viewBox="0 0 30 30">
    <defs>
        <path id="a" d="M15.245 30h-.012a1.25 1.25 0 0 1-.936-.436C13.243 28.339 4 17.41 4 11.232 4 5.039 9.045 0 15.245 0c6.2 0 11.245 5.039 11.245 11.232 0 6.73-9.891 17.879-10.312 18.351a1.252 1.252 0 0 1-.933.417zm0-27.5C10.423 2.5 6.5 6.417 6.5 11.232c0 4.006 5.661 11.783 8.762 15.587 3.098-3.688 8.728-11.28 8.728-15.587 0-4.815-3.923-8.732-8.745-8.732zm0 3.504c2.209 0 4 1.788 4 3.995a3.998 3.998 0 0 1-4 3.996c-2.209 0-4-1.789-4-3.996a3.997 3.997 0 0 1 4-3.995z"/>
    </defs>
    <g fill="none" fill-rule="evenodd">
        <mask id="b" fill="#fff">
            <use xlink:href="#a"/>
        </mask>
        <use fill="#1A1446" xlink:href="#a"/>
        <g fill="#28A3AF" mask="url(#b)">
            <path d="M0 0h30v30H0z"/>
        </g>
    </g>
</svg>
