<?xml version="1.0" encoding="UTF-8"?>
<svg width="13px" height="16px" viewBox="0 0 13 16" version="1.1" xmlns="http://www.w3.org/2000/svg" xmlns:xlink="http://www.w3.org/1999/xlink">
    <!-- Generator: Sketch 52.5 (67469) - http://www.bohemiancoding.com/sketch -->
    <title>icon</title>
    <desc>Created with Sketch.</desc>
    <defs>
        <path d="M8.13066667,16 L8.12426667,16 C7.93226667,15.9978667 7.7504,15.9136 7.62506667,15.7674667 C7.06293333,15.1141333 2.13333333,9.28533333 2.13333333,5.9904 C2.13333333,2.68746667 4.824,0 8.13066667,0 C11.4373333,0 14.128,2.68746667 14.128,5.9904 C14.128,9.57973333 8.8528,15.5258667 8.62826667,15.7776 C8.50133333,15.9194667 8.32,16 8.13066667,16 Z M8.13066667,1.33333333 C5.55893333,1.33333333 3.46666667,3.4224 3.46666667,5.9904 C3.46666667,8.12693333 6.48586667,12.2746667 8.13973333,14.3034667 C9.792,12.3365333 12.7946667,8.28746667 12.7946667,5.9904 C12.7946667,3.4224 10.7024,1.33333333 8.13066667,1.33333333 Z M8.13066667,3.20234667 C9.3088,3.20234667 10.264,4.15594667 10.264,5.33301333 C10.264,6.51008 9.3088,7.46421333 8.13066667,7.46421333 C6.95253333,7.46421333 5.99733333,6.51008 5.99733333,5.33301333 C5.99733333,4.15594667 6.95253333,3.20234667 8.13066667,3.20234667 Z" id="path-1"></path>
    </defs>
    <g id="DSK--Header-y-footer" stroke="none" stroke-width="1" fill="none" fill-rule="evenodd">
        <g id="Liberty2_Pago1-1-Copy-5" transform="translate(-1180.000000, -349.000000)">
            <g id="Group-14-Copy" transform="translate(0.000000, 336.000000)">
                <g id="Top-Right-Menu" transform="translate(1119.000000, 11.000000)">
                    <g id="Contact-Us">
                        <g id="Elements-/-Icon-/-Glyph-/-Location-Pin-Outline" transform="translate(59.000000, 2.000000)">
                            <mask id="mask-2" fill="white">
                                <use xlink:href="#path-1"></use>
                            </mask>
                            <use id="Mask" fill="#1A1446" fill-rule="evenodd" xlink:href="#path-1"></use>
                            <g id="Elements-/-Color-/-Principal-/-Withe" mask="url(#mask-2)" fill="#FFFFFF" fill-rule="evenodd">
                                <rect id="Rectangle" x="0" y="0" width="16" height="16"></rect>
                            </g>
                        </g>
                    </g>
                </g>
            </g>
        </g>
    </g>
</svg>