<?xml version="1.0"?>
<svg width="30" height="30" xmlns="http://www.w3.org/2000/svg" xmlns:svg="http://www.w3.org/2000/svg" xmlns:xlink="http://www.w3.org/1999/xlink">
 <defs>
  <path d="m27.25,4a2.754,2.754 0 0 1 2.75,2.75l0,17a2.753,2.753 0 0 1 -2.75,2.75l-24.5,0a2.752,2.752 0 0 1 -2.75,-2.75l0,-17a2.753,2.753 0 0 1 2.75,-2.75l24.5,0zm-16.008,14.268l-5.73,5.732l18.978,0l-5.732,-5.732l-2.874,2.874a1.248,1.248 0 0 1 -1.768,0l-2.874,-2.874zm-1.768,-1.768l-6.974,-6.974l0,13.951l6.974,-6.977zm8.407,-0.89l9.037,-9.037c0.032,-0.032 0.075,-0.044 0.109,-0.073l-24.045,0c0.026,0.022 0.058,0.03 0.081,0.054l11.937,11.937l2.866,-2.866l0.006,-0.009l0.009,-0.006zm9.619,7.865l0,-13.949l-6.975,6.975l6.975,6.974z" id="a"/>
 </defs>
 <g class="layer">
  <title>Layer 1</title>
  <g fill="none" fill-rule="evenodd" id="svg_1">
   <mask fill="#28a3af" id="b">
    <use fill="#28a3af" id="svg_2" xlink:href="#a"/>
   </mask>
   <use fill="#28a3af" id="svg_3" xlink:href="#a"/>
   <g fill="#C0BFC0" id="svg_4" mask="url(#b)">
    <path d="m0,0l30,0l0,30l-30,0l0,-30z" fill="#28a3af" id="svg_5"/>
   </g>
  </g>
 </g>
</svg>