<svg xmlns="http://www.w3.org/2000/svg" xmlns:xlink="http://www.w3.org/1999/xlink" width="30" height="30" viewBox="0 0 30 30">
    <defs>
        <path id="a" d="M27.25 4A2.754 2.754 0 0 1 30 6.75v17a2.753 2.753 0 0 1-2.75 2.75H2.75A2.752 2.752 0 0 1 0 23.75v-17A2.753 2.753 0 0 1 2.75 4h24.5zM11.242 18.268L5.512 24H24.49l-5.732-5.732-2.874 2.874a1.248 1.248 0 0 1-1.768 0l-2.874-2.874zM9.474 16.5L2.5 9.526v13.951L9.474 16.5zm8.407-.89l9.037-9.037c.032-.032.075-.044.109-.073H2.982c.026.022.058.03.081.054L15 18.491l2.866-2.866.006-.009.009-.006zm9.619 7.865V9.526l-6.975 6.975 6.975 6.974z"/>
    </defs>
    <g fill="none" fill-rule="evenodd">
        <mask id="b" fill="#fff">
            <use xlink:href="#a"/>
        </mask>
        <use fill="#1A1446" xlink:href="#a"/>
        <g fill="#C0BFC0" mask="url(#b)">
            <path d="M0 0h30v30H0z"/>
        </g>
    </g>
</svg>
