<?xml version="1.0" encoding="UTF-8"?>
<svg width="18px" height="21px" viewBox="0 0 18 21" version="1.1" xmlns="http://www.w3.org/2000/svg" xmlns:xlink="http://www.w3.org/1999/xlink">
    <!-- Generator: Sketch 52.6 (67491) - http://www.bohemiancoding.com/sketch -->
    <title>Icon/Message</title>
    <desc>Created with Sketch.</desc>
    <defs>
        <path d="M4.85660377,10.6301887 C5.25056604,10.6301887 5.56981132,10.949434 5.56981132,11.3433962 C5.56981132,11.7373585 5.25056604,12.0566038 4.85660377,12.0566038 C4.46264151,12.0566038 4.14339623,11.7373585 4.14339623,11.3433962 C4.14339623,10.949434 4.46264151,10.6301887 4.85660377,10.6301887 Z M7.47176604,10.6301887 C7.8657283,10.6301887 8.18497358,10.949434 8.18497358,11.3433962 C8.18497358,11.7373585 7.8657283,12.0566038 7.47176604,12.0566038 C7.07780377,12.0566038 6.75855849,11.7373585 6.75855849,11.3433962 C6.75855849,10.949434 7.07780377,10.6301887 7.47176604,10.6301887 Z M10.1207547,10.6301887 C10.514717,10.6301887 10.8343019,10.949434 10.8343019,11.3433962 C10.8343019,11.7373585 10.514717,12.0566038 10.1207547,12.0566038 C9.72713208,12.0566038 9.40754717,11.7373585 9.40754717,11.3433962 C9.40754717,10.949434 9.72713208,10.6301887 10.1207547,10.6301887 Z M0.611320755,20.6490566 C0.543396226,20.6490566 0.441509434,20.6490566 0.373584906,20.6150943 C0.135849057,20.5132075 0,20.309434 0,20.0377358 L0,6.65660377 C0,6.31698113 0.271698113,6.04528302 0.611320755,6.04528302 L13.6528302,6.04528302 C13.9924528,6.04528302 14.2641509,6.31698113 14.2641509,6.65660377 L14.2641509,9.03396226 L16.7776981,11.5471698 L16.7776981,1.22264151 L5.33207547,1.22264151 L5.33207547,5.53584906 L4.10943396,5.53584906 L4.10943396,0.611320755 C4.10943396,0.271698113 4.38113208,0 4.72075472,0 L17.3886792,0 C17.7283019,0 18,0.271698113 18,0.611320755 L18,13.0754717 C18,13.3132075 17.8641509,13.5509434 17.6267547,13.6528302 C17.3886792,13.754717 17.1173208,13.6867925 16.9475094,13.5169811 L13.2116604,9.78113208 C13.109434,9.67924528 13.0418491,9.50943396 13.0418491,9.33962264 L13.0418491,7.33584906 L1.22264151,7.33584906 L1.22264151,18.5773585 L4.78867925,15.0113208 C4.89056604,14.909434 5.06037736,14.8415094 5.23018868,14.8415094 L13.6867925,14.8415094 L13.6867925,16.0641509 L5.46792453,16.0641509 L1.05283019,20.4792453 C0.916981132,20.5811321 0.747169811,20.6490566 0.611320755,20.6490566 Z" id="path-1"></path>
    </defs>
    <g id="DSK-Buscas-ayuda" stroke="none" stroke-width="1" fill="none" fill-rule="evenodd">
        <g id="BUscas-ayuda-Chat-Copy-2" transform="translate(-1061.000000, -2308.000000)">
            <g id="Group" transform="translate(975.000000, 2293.000000)">
                <g id="Icon/Message" transform="translate(83.000000, 13.000000)">
                    <g id="Color/Liberty-Blue" transform="translate(3.000000, 2.000000)">
                        <mask id="mask-2" fill="white">
                            <use xlink:href="#path-1"></use>
                        </mask>
                        <use id="Mask" fill="#1A1446" fill-rule="nonzero" xlink:href="#path-1"></use>
                        <g mask="url(#mask-2)" fill="#1A1446" fill-rule="nonzero" id="Rectangle-Copy">
                            <g transform="translate(-41.000000, -38.000000)">
                                <polygon points="0 0 101 0 101 97 0 97"></polygon>
                            </g>
                        </g>
                    </g>
                </g>
            </g>
        </g>
    </g>
</svg>