<?xml version="1.0" encoding="UTF-8" standalone="no"?>
<svg
   xmlns:dc="http://purl.org/dc/elements/1.1/"
   xmlns:cc="http://creativecommons.org/ns#"
   xmlns:rdf="http://www.w3.org/1999/02/22-rdf-syntax-ns#"
   xmlns:svg="http://www.w3.org/2000/svg"
   xmlns="http://www.w3.org/2000/svg"
   xmlns:sodipodi="http://sodipodi.sourceforge.net/DTD/sodipodi-0.dtd"
   xmlns:inkscape="http://www.inkscape.org/namespaces/inkscape"
   fill="none"
   height="24"
   stroke="currentColor"
   stroke-linecap="round"
   stroke-linejoin="round"
   stroke-width="2"
   viewBox="0 0 24 24"
   width="24"
   version="1.1"
   id="svg10"
   sodipodi:docname="minimize.svg"
   inkscape:version="0.92.3 (2405546, 2018-03-11)">
  <metadata
     id="metadata16">
    <rdf:RDF>
      <cc:Work
         rdf:about="">
        <dc:format>image/svg+xml</dc:format>
        <dc:type
           rdf:resource="http://purl.org/dc/dcmitype/StillImage" />
      </cc:Work>
    </rdf:RDF>
  </metadata>
  <defs
     id="defs14" />
  <sodipodi:namedview
     pagecolor="#ffffff"
     bordercolor="#666666"
     borderopacity="1"
     objecttolerance="10"
     gridtolerance="10"
     guidetolerance="10"
     inkscape:pageopacity="0"
     inkscape:pageshadow="2"
     inkscape:window-width="1280"
     inkscape:window-height="927"
     id="namedview12"
     showgrid="false"
     inkscape:zoom="4"
     inkscape:cx="40.380764"
     inkscape:cy="8.6325891"
     inkscape:window-x="0"
     inkscape:window-y="0"
     inkscape:window-maximized="1"
     inkscape:current-layer="svg10" />
  <polyline
     points="4 14 10 14 10 20"
     id="polyline2" />
  <polyline
     points="20 10 14 10 14 4"
     id="polyline4" />
  <line
     x1="14"
     x2="21"
     y1="10"
     y2="3"
     id="line6" />
  <line
     x1="3"
     x2="10"
     y1="21"
     y2="14"
     id="line8" />
  <path
     style="fill:#1a1446;fill-opacity:1;stroke-width:0.0625"
     d="m 13.671643,10.932359 c -0.276615,-0.09867 -0.494235,-0.312954 -0.599297,-0.59011 -0.04415,-0.116476 -0.04852,-0.4784265 -0.04074,-3.3804425 l 0.0087,-3.2499999 0.07167,-0.1342207 c 0.110413,-0.2067883 0.275962,-0.3710602 0.469244,-0.4656244 0.247038,-0.1208645 0.571612,-0.1232404 0.818465,-0.00599 0.218623,0.1038405 0.392609,0.2778217 0.496475,0.4964613 l 0.08165,0.171875 0.009,1.9203124 0.009,1.9203125 2.741038,-2.7368064 c 3.047315,-3.0426091 2.831282,-2.8542301 3.272289,-2.8534135 0.488017,9.036e-4 0.897695,0.3654042 0.969394,0.862495 0.02727,0.1890741 -0.05041,0.4915844 -0.170119,0.6625166 -0.0504,0.071958 -1.288001,1.3261458 -2.750232,2.7870833 l -2.658602,2.65625 1.914155,0.015625 1.914154,0.015625 0.171875,0.08165 c 0.439062,0.2085782 0.665265,0.6689335 0.54992,1.1191663 -0.08633,0.336976 -0.29326,0.571413 -0.610909,0.692109 -0.15275,0.05804 -0.272989,0.06015 -3.353409,0.05883 -2.605585,-0.0011 -3.216868,-0.0092 -3.313643,-0.0437 z"
     id="path973"
     inkscape:connector-curvature="0" />
  <path
     style="fill:#1a1446;fill-opacity:1;stroke-width:0.0625"
     d="M 2.6496842,21.922984 C 2.4422509,21.849949 2.1445351,21.541352 2.0727479,21.324962 1.9988063,21.102077 2.0182307,20.767355 2.1164907,20.571182 2.166895,20.470551 2.961451,19.655112 4.9102502,17.703994 L 7.6335726,14.977432 H 5.7253205 c -2.2172406,0 -2.0968756,0.01473 -2.4065343,-0.294419 -0.2393725,-0.238974 -0.3087509,-0.419788 -0.287268,-0.748676 0.023921,-0.36622 0.2214451,-0.661497 0.550649,-0.823162 l 0.176892,-0.08687 h 3.25 3.2499998 l 0.155435,0.07649 c 0.198071,0.09747 0.387189,0.286616 0.485936,0.486013 l 0.07738,0.15625 0.0085,3.152658 c 0.0094,3.470996 0.01404,3.377213 -0.18113,3.660884 -0.181762,0.264182 -0.481992,0.420833 -0.8065512,0.420833 -0.2853225,0 -0.4614528,-0.07631 -0.6795632,-0.294419 C 9.0099658,20.373877 9.0246842,20.494158 9.0246842,18.276966 v -1.908081 l -2.7421875,2.738204 c -2.6144116,2.610613 -2.7506149,2.741282 -2.9230473,2.804273 -0.215951,0.07889 -0.5052625,0.08363 -0.7097652,0.01162 z"
     id="path975"
     inkscape:connector-curvature="0" />
</svg>
