<?xml version="1.0" encoding="UTF-8"?>
<svg width="16px" height="12px" viewBox="0 0 16 12" version="1.1" xmlns="http://www.w3.org/2000/svg" xmlns:xlink="http://www.w3.org/1999/xlink">
    <!-- Generator: Sketch 57.1 (83088) - https://sketch.com -->
    <title>Icons/12 Month Rate  Copy</title>
    <desc>Created with Sketch.</desc>
    <defs>
        <path d="M1.28723302,-8.34887715e-14 L14.712767,-8.34887715e-14 C15.378412,-8.34887715e-14 15.9273298,0.507314912 15.9933443,1.15576887 L16,1.28723302 L16,8.66890145 L15.0805478,8.66890145 L15.0805478,4.16409667 L0.91945216,4.16409667 L0.91945216,9.05558216 C0.91945216,9.34061233 1.12798391,9.57806085 1.40093707,9.62270025 L1.49410976,9.63023976 L14.4629825,9.63023976 L14.4629825,9.67519075 L15.9790569,9.67519075 C15.8904123,10.1339738 15.5105897,10.4909098 15.0392655,10.5431084 L14.9196437,10.5496919 L1.49410976,10.5496919 C0.71864501,10.5496919 0.0793765418,9.95603903 0.00685175575,9.19928064 L-8.70414851e-14,9.05558216 L-8.70414851e-14,1.28723302 C-8.70414851e-14,0.621587971 0.507314912,0.0726702423 1.15576887,0.00665570228 L1.28723302,-8.34887715e-14 L14.712767,-8.34887715e-14 Z M8.21877853,6.31479743 L8.21877853,7.23424959 L2.05283019,7.23424959 L2.05283019,6.31479743 L8.21877853,6.31479743 Z M12.092737,6.31479743 L12.092737,7.23424959 L9.36707212,7.23424959 L9.36707212,6.31479743 L12.092737,6.31479743 Z M14.712767,0.91945216 L1.28723302,0.91945216 C1.10979153,0.91945216 0.961290426,1.04577307 0.926937674,1.21320695 L0.91945216,1.28723302 L0.91945216,2.92794432 L15.0805478,2.92794432 L15.0805478,1.28723302 C15.0805478,1.08444274 14.9155573,0.91945216 14.712767,0.91945216 Z" id="path-1"></path>
    </defs>
    <g id="Desktop" stroke="none" stroke-width="1" fill="none" fill-rule="evenodd">
        <g id="2.2" transform="translate(-878.000000, -42.000000)">
            <g id="Button/IconButton/Default/SM" transform="translate(862.000000, 30.000000)">
                <g id="Icons/Credit-card" transform="translate(16.000000, 10.000000)">
                    <g id="Color/Liberty-Blue" transform="translate(0.000000, 2.666667)">
                        <mask id="mask-2" fill="white">
                            <use xlink:href="#path-1"></use>
                        </mask>
                        <use id="Mask" fill="#13112B" xlink:href="#path-1"></use>
                        <g mask="url(#mask-2)" fill="#1A1446" id="Rectangle">
                            <g transform="translate(-25.333333, -28.000000)">
                                <rect x="0" y="0" width="67" height="67"></rect>
                            </g>
                        </g>
                    </g>
                </g>
            </g>
        </g>
    </g>
</svg>