<svg id="Icon_Account_Experience_Smartphone_16px" data-name="Icon/Account Experience/Smartphone/16px" xmlns="http://www.w3.org/2000/svg" width="16" height="16.002" viewBox="0 0 16 16.002">
  <g id="Combined_Shape" data-name="Combined Shape">
    <path id="Combined_Shape-2" data-name="Combined Shape" d="M.443,16A.457.457,0,0,1,0,15.529V.471A.457.457,0,0,1,.443,0H7.164V.941H.885V15.059H8.116V.941H8.1V0h.454A.456.456,0,0,1,9,.471V15.529A.457.457,0,0,1,8.558,16ZM4,13.241a.5.5,0,1,1,.5.5A.5.5,0,0,1,4,13.241Z" transform="translate(3.568 0.002)" fill="none"/>
    <path id="Combined_Shape-3" data-name="Combined Shape" d="M.443,16A.457.457,0,0,1,0,15.529V.471A.457.457,0,0,1,.443,0H7.164V.941H.885V15.059H8.116V.941H8.1V0h.454A.456.456,0,0,1,9,.471V15.529A.457.457,0,0,1,8.558,16ZM4,13.241a.5.5,0,1,1,.5.5A.5.5,0,0,1,4,13.241Z" transform="translate(3.568 0.002)" fill="none"/>
    <path id="Combined_Shape-4" data-name="Combined Shape" d="M.443,16A.457.457,0,0,1,0,15.529V.471A.457.457,0,0,1,.443,0H7.164V.941H.885V15.059H8.116V.941H8.1V0h.454A.456.456,0,0,1,9,.471V15.529A.457.457,0,0,1,8.558,16ZM4,13.241a.5.5,0,1,1,.5.5A.5.5,0,0,1,4,13.241Z" transform="translate(3.568 0.002)" fill="none"/>
    <path id="Combined_Shape-5" data-name="Combined Shape" d="M.443,16A.457.457,0,0,1,0,15.529V.471A.457.457,0,0,1,.443,0H7.164V.941H.885V15.059H8.116V.941H8.1V0h.454A.456.456,0,0,1,9,.471V15.529A.457.457,0,0,1,8.558,16ZM4,13.241a.5.5,0,1,1,.5.5A.5.5,0,0,1,4,13.241Z" transform="translate(3.568 0.002)" fill="none"/>
    <path id="Combined_Shape-6" data-name="Combined Shape" d="M.443,16A.457.457,0,0,1,0,15.529V.471A.457.457,0,0,1,.443,0H7.164V.941H.885V15.059H8.116V.941H8.1V0h.454A.456.456,0,0,1,9,.471V15.529A.457.457,0,0,1,8.558,16ZM4,13.241a.5.5,0,1,1,.5.5A.5.5,0,0,1,4,13.241Z" transform="translate(3.568 0.002)" fill="none"/>
    <path id="Combined_Shape-7" data-name="Combined Shape" d="M.443,16A.457.457,0,0,1,0,15.529V.471A.457.457,0,0,1,.443,0H7.164V.941H.885V15.059H8.116V.941H8.1V0h.454A.456.456,0,0,1,9,.471V15.529A.457.457,0,0,1,8.558,16ZM4,13.241a.5.5,0,1,1,.5.5A.5.5,0,0,1,4,13.241Z" transform="translate(3.568 0.002)"/>
  </g>
</svg>
