<?xml version="1.0" encoding="UTF-8"?>
<svg width="44px" height="49px" viewBox="0 0 44 49" version="1.1" xmlns="http://www.w3.org/2000/svg" xmlns:xlink="http://www.w3.org/1999/xlink">
    <!-- Generator: Sketch 52.5 (67469) - http://www.bohemiancoding.com/sketch -->
    <title>pin</title>
    <desc>Created with Sketch.</desc>
    <defs>
        <filter x="-42.9%" y="-300.0%" width="185.7%" height="700.0%" filterUnits="objectBoundingBox" id="filter-1">
            <feGaussianBlur stdDeviation="2" in="SourceGraphic"></feGaussianBlur>
        </filter>
        <path d="M31.0313987,5.28966435 L30.9968401,5.1251105 C30.4221431,2.72424289 29.0564377,1.45906659 26.6667733,0.966753853 L26.4235831,0.919545782 C20.6676533,-0.306515261 11.3329867,-0.306515261 5.57577697,0.919545782 L5.33386665,0.966753853 C2.94292228,1.45906659 1.53625855,2.65140758 1.01531939,5.08060003 L0.970521179,5.28966435 C-0.32350706,10.749615 -0.32350706,19.6045003 0.970521179,25.0644509 L1.01531939,25.2276559 C1.51449942,27.6028963 2.94292228,28.8963974 5.3325867,29.3873614 L5.57577697,29.4332206 C6.96324147,29.7286083 8.56061758,29.9511606 10.2629495,30.1035752 L14.399744,35.814403 L14.8682053,36.5063385 C15.4928203,37.1645538 16.5052598,37.1645538 17.1311548,36.5063385 L17.599616,35.8157518 L21.7364105,30.104924 C23.4387425,29.9511606 25.0361186,29.7286083 26.4235831,29.4332206 L26.6667733,29.3873614 C29.0564377,28.8963974 30.4733411,27.5948035 30.9904404,25.2276559 L31.0313987,25.0644509 C32.3228671,19.6045003 32.3228671,10.749615 31.0313987,5.28966435" id="path-2"></path>
        <filter x="-21.8%" y="-18.9%" width="162.4%" height="154.0%" filterUnits="objectBoundingBox" id="filter-3">
            <feMorphology radius="1" operator="dilate" in="SourceAlpha" result="shadowSpreadOuter1"></feMorphology>
            <feOffset dx="3" dy="3" in="shadowSpreadOuter1" result="shadowOffsetOuter1"></feOffset>
            <feGaussianBlur stdDeviation="2.5" in="shadowOffsetOuter1" result="shadowBlurOuter1"></feGaussianBlur>
            <feComposite in="shadowBlurOuter1" in2="SourceAlpha" operator="out" result="shadowBlurOuter1"></feComposite>
            <feColorMatrix values="0 0 0 0 0.152941176   0 0 0 0 0.152941176   0 0 0 0 0.152941176  0 0 0 0.3 0" type="matrix" in="shadowBlurOuter1"></feColorMatrix>
        </filter>
        <path d="M18.4627989,14.674 C17.9462184,14.674 17.5251903,14.2611333 17.5251903,13.7522 C17.5251903,13.2447333 17.9462184,12.8311333 18.4627989,12.8311333 C18.9793794,12.8311333 19.4004075,13.2447333 19.4004075,13.7522 C19.4004075,14.2611333 18.9793794,14.674 18.4627989,14.674 M21.2666667,13.7522 C21.2666667,12.2334667 20.008808,10.9978 18.4627989,10.9978 C16.9167898,10.9978 15.6589311,12.2334667 15.6589311,13.7522 C15.6589311,14.9482667 16.4435065,15.9588 17.5296693,16.3386667 L17.5296693,16.5022 C17.5296693,18.524 15.8552616,20.1688667 13.797151,20.1688667 C11.7390404,20.1688667 10.0646327,18.524 10.0646327,16.5022 L10.0646327,13.2154 L16.3233194,7.06713333 L16.3255589,7.0642 C16.3270519,7.06273333 16.3285449,7.06273333 16.3300379,7.06126667 C17.0899787,6.2986 17.5274298,5.23086667 17.5296693,4.13086667 C17.5326553,1.85606667 15.6507196,0.00366666667 13.3350652,0 L12.8640214,0 C12.3489339,0 11.9308918,0.410666667 11.9308918,0.916666667 C11.9308918,1.4234 12.3489339,1.83333333 12.8640214,1.83333333 L13.3335722,1.83333333 C14.6205445,1.83553333 15.6649032,2.8644 15.6634102,4.12793333 C15.6626637,4.74393333 15.4133314,5.35993333 14.9967824,5.7772 C14.9967824,5.7772 14.9967824,5.77793333 14.9960359,5.77793333 L9.1315031,11.5397333 L3.26697032,5.77793333 C3.26622381,5.77793333 3.26622381,5.7772 3.26622381,5.7772 C2.84967477,5.35993333 2.60034255,4.74393333 2.59959604,4.12866667 C2.59810303,2.8644 3.64246166,1.83553333 4.92794097,1.83333333 L5.39898478,1.83333333 C5.91407231,1.83333333 6.33211436,1.4234 6.33211436,0.916666667 C6.33211436,0.410666667 5.91407231,0 5.39898478,0 L4.92644796,0 C2.6122866,0.00366666667 0.730350867,1.85606667 0.733336882,4.13086667 C0.735576393,5.23086667 1.17302754,6.2986 1.93296827,7.06126667 C1.93446128,7.06273333 1.93595428,7.06273333 1.93744729,7.0642 L1.9396868,7.06713333 L8.19837352,13.2154 L8.19837352,16.5022 C8.19837352,19.5352667 10.7096118,22.0022 13.797151,22.0022 C16.8846902,22.0022 19.3959285,19.5352667 19.3959285,16.5022 L19.3959285,16.3386667 C20.4820913,15.9588 21.2666667,14.9482667 21.2666667,13.7522" id="path-4"></path>
    </defs>
    <g id="DSK-Red-médica" stroke="none" stroke-width="1" fill="none" fill-rule="evenodd">
        <g id="Red-médica-Copy-4" transform="translate(-678.000000, -473.000000)">
            <g id="lightbox" transform="translate(0.000000, -10.000000)">
                <g id="Components-/-Map-/-Pin-5" transform="translate(681.000000, 486.000000)">
                    <ellipse id="Oval" fill="#000000" fill-rule="evenodd" opacity="0.600000024" filter="url(#filter-1)" cx="16" cy="39" rx="7" ry="1"></ellipse>
                    <g id="Fill-1">
                        <use fill="black" fill-opacity="1" filter="url(#filter-3)" xlink:href="#path-2"></use>
                        <use stroke="#1A1446" stroke-width="2" fill="#1A1446" fill-rule="evenodd" xlink:href="#path-2"></use>
                    </g>
                    <g id="Elements-/-Icon-/-Glyph-/-Doctor" transform="translate(5.000000, 4.000000)">
                        <mask id="mask-5" fill="white">
                            <use xlink:href="#path-4"></use>
                        </mask>
                        <use id="Mask" fill="#1A1446" fill-rule="evenodd" xlink:href="#path-4"></use>
                        <g id="Elements-/-Color-/-Principal-/-Withe" mask="url(#mask-5)" fill="#FFFFFF" fill-rule="evenodd">
                            <rect id="Rectangle" x="0" y="0" width="22" height="22"></rect>
                        </g>
                    </g>
                </g>
            </g>
        </g>
    </g>
</svg>