<?xml version="1.0" encoding="utf-8"?>
<!-- Generator: Adobe Illustrator 22.1.0, SVG Export Plug-In . SVG Version: 6.00 Build 0)  -->
<svg version="1.1" id="Capa_1" xmlns="http://www.w3.org/2000/svg" xmlns:xlink="http://www.w3.org/1999/xlink" x="0px" y="0px"
	 viewBox="0 0 345 324" style="enable-background:new 0 0 345 324;" xml:space="preserve">
<style type="text/css">
	.st0{fill:none;}
	.st1{fill:#61DAFB;}
	.st2{fill:#137CC1;}
</style>
<path class="st0" d="M109.8,189.3c-6.7-11.5-12.7-23.1-17.9-34.7c-8.2,13-14.3,26.4-16.7,40.2c14.3,4.3,28.9,7.4,43.7,9.4
	C115.8,199.4,112.8,194.4,109.8,189.3z M285.2,188.9c25.3-10.3,39.7-23.4,39.7-36c0-14.9-20.8-30.8-55.6-41.6
	c-2.5,8.2-5.4,16.7-8.8,25.2C272.2,153,281.4,170.4,285.2,188.9z M134.1,297.8c24.4,10.3,52,10.3,76.4,0
	c-12.2-6-25.1-15.4-38.2-27.6C159.3,282.4,146.3,291.8,134.1,297.8z M234.8,189.3c-2.9,5-5.9,9.9-8.9,14.7c14.7-2,29.3-5.2,43.5-9.5
	c-2.4-13.7-8.5-27-16.7-39.9C247.4,166.2,241.4,177.8,234.8,189.3z M184,258.6c16.1,15.1,31.8,25.3,45.2,28.8
	c24.8-17.6,40-45.6,41.3-75.9c-18.6,5.3-37.6,8.9-56.8,10.7C204.7,235,194.7,247.1,184,258.6z M131.1,222.3
	c-19.2-1.8-38.3-5.3-56.9-10.5c1.4,30.2,16.6,58.1,41.3,75.5c12.9-3.4,28.7-13.5,45.2-28.8C150,247.2,140.1,235.1,131.1,222.3z
	 M248.6,121.1c1.7-4.8,3.3-9.5,4.7-14.2c-6.5-1.6-13.4-2.9-20.6-4.1C238.2,108.7,243.5,114.8,248.6,121.1z M257.6,90.9
	c1.2-5.1,2.2-10.2,2.9-15.1c4.3-28.4,0.3-48.4-11-54.9c-13.3-7.7-38.4,3.4-65,28.4c7.9,10.4,18.5,21.7,30.5,34.4
	C229.3,85.2,243.6,87.6,257.6,90.9z M75.2,110.8c-5.1,1.6-10,3.3-14.7,5.1c-26.7,10.4-42,23.9-42,37c0,12.7,15,26.1,40.9,36.4
	c3.8-18.7,13-36.2,24.8-52.8C80.8,127.8,77.8,119.2,75.2,110.8z M160.1,49.3c-26.7-25.1-51.5-36.2-65-28.3
	c-13,7.5-16.3,33.7-8.1,69.6c14.1-3.2,28.4-5.6,42.8-7C141.7,71,152.3,59.7,160.1,49.3z M112.1,102.5c-7.2,1.1-14.2,2.5-20.9,4.1
	c1.4,4.7,3,9.5,4.8,14.5C101.2,114.7,106.6,108.6,112.1,102.5z M137.5,99.4c-11.8,12.6-24,25.7-34.5,39.4
	c6.2,14.5,13.3,28.6,21.2,42.2c5.1,8.9,10.5,17.4,16,25.5c10.1,0.8,20.6,1.2,31.5,1.2c11.2,0,22.2-0.4,32.9-1.3
	c5.5-8.1,10.8-16.6,15.9-25.4c7.9-13.6,15-27.7,21.2-42.2c-10.5-13.6-22.6-26.8-34.4-39.3c-11.2-1-23.1-1.6-35.5-1.6
	C160,98,148.6,98.5,137.5,99.4z M152.8,223.9c6.4,8.3,13,16,19.6,23.1c6.7-7.1,13.2-14.8,19.6-23.1c-6.7,0.3-13.4,0.5-20.3,0.5
	C165.3,224.3,159,224.1,152.8,223.9z M190.7,81.9c-6.9-7.4-13.1-14.5-18.3-21.3c-5.2,6.8-11.4,13.9-18.3,21.3
	c5.8-0.2,11.7-0.4,17.6-0.4C178.1,81.5,184.4,81.6,190.7,81.9z"/>
<path class="st1" d="M225.9,204.1c-6.9,1-14.1,1.8-21.3,2.4c-10.7,0.9-21.7,1.3-32.9,1.3c-10.9,0-21.4-0.4-31.5-1.2
	c-7.3-0.6-14.4-1.3-21.3-2.3c-14.8-2-29.4-5.1-43.7-9.4c-0.7,4.1-1.1,8.3-1.1,12.4c0,1.5,0,3,0.1,4.5c18.6,5.2,37.6,8.7,56.9,10.5
	c7.1,0.7,14.4,1.2,21.7,1.5c6.2,0.3,12.6,0.4,18.9,0.4c6.8,0,13.6-0.2,20.3-0.5c7.4-0.4,14.6-0.9,21.7-1.6
	c19.2-1.9,38.2-5.5,56.8-10.7c0.1-1.4,0.1-2.8,0.1-4.2c0-4.3-0.4-8.5-1.2-12.8C255.2,198.9,240.6,202,225.9,204.1z M60.5,115.9
	c4.7-1.8,9.6-3.5,14.7-5.1s10.5-3,16-4.3c6.7-1.6,13.7-2.9,20.9-4.1c5.8-6.3,11.6-12.5,17.3-18.6l0.3-0.4c-14.4,1.4-28.7,3.8-42.8,7
	c-5.5,1.3-10.9,2.7-16,4.3c-5.7,1.7-11.2,3.6-16.5,5.7C20.7,113.8,2,132.4,2,152.9s18.7,39.1,52.5,52.3l3.1,1.2
	c0.1-5.7,0.7-11.5,1.8-17.1c-25.9-10.3-40.9-23.8-40.9-36.4C18.5,139.9,33.8,126.4,60.5,115.9z M207.2,99.6l-4-4.3
	c-4.4-4.6-8.6-9.1-12.5-13.4c-6.3-0.3-12.6-0.4-19-0.4c-5.9,0-11.8,0.1-17.7,0.4c-4,4.3-8.2,8.8-12.6,13.4l-3.9,4.2
	c11.1-0.9,22.5-1.4,34.1-1.4C184.1,98,196,98.6,207.2,99.6z M288.8,100.6c-4.9-1.9-10-3.7-15.3-5.3c-5.1-1.6-10.5-3-16-4.3
	c-14-3.3-28.2-5.7-42.6-7.2l0.2,0.2c5.8,6.1,11.7,12.4,17.6,18.8c7.2,1.2,14.1,2.6,20.6,4.1c3,0.7,6,1.5,8.9,2.3
	c2.4,0.7,4.8,1.4,7,2.1c34.8,10.8,55.6,26.7,55.6,41.6c0,12.6-14.4,25.7-39.7,36c1.2,5.6,1.8,11.3,1.9,17l1.8-0.7
	c33.9-13.2,52.5-31.8,52.5-52.3S322.7,113.8,288.8,100.6z"/>
<path class="st1" d="M282.8,189.8c-4.3,1.7-9,3.3-13.7,4.7c0.8,4.2,0.9,8.5,0.9,12.8c0,1.4,0.1,2.8,0,4.2c5.8-1.7,11.9-3.7,17.2-5.7
	c-0.1-5.7-0.7-11.4-1.9-17L282.8,189.8z M74.4,207.4c0-2.5,0.7-4.9,1-7.4c0.2-1.6-0.1-3.4,0.2-5c-5.6-1.7-11.5-3.8-16.4-5.7
	c-1.1,5.6-1.8,11.4-1.9,17.1c5.3,2,11.6,4,17.3,5.6C74.5,210.4,74.4,209,74.4,207.4z"/>
<path class="st2" d="M287,205.9c-5.3,2-10.8,3.8-16.6,5.5c-2.3,52.5-45.4,93.9-97.9,94c-52.5,0.1-95.8-41.1-98.3-93.6
	c-5.8-1.7-11.3-3.5-16.6-5.4c0,0.3,0,0.6,0,0.9c0.6,63,51.8,113.7,114.8,113.7s114.2-50.7,114.8-113.7
	C287.1,206.8,287,206.4,287,205.9z M91.9,154.6c3.4-5.3,7.1-10.6,11.1-15.8c10.5-13.7,22.7-26.8,34.5-39.4l3.9-4.2
	c4.4-4.6,8.6-9.1,12.6-13.4c6.9-7.4,13-14.4,18.3-21.3c5.3,6.9,11.5,13.9,18.3,21.3c4,4.3,8.2,8.8,12.5,13.4l4,4.3
	c11.8,12.5,23.9,25.7,34.4,39.3c4,5.2,7.7,10.4,11.1,15.8c8.2,12.9,14.3,26.2,16.7,39.9c4.7-1.4,9.2-3,13.4-4.7l2.3-0.9
	c-3.8-18.5-13-35.9-24.7-52.4c-3.7-5.2-7.7-10.4-11.8-15.4c-5.1-6.2-10.4-12.3-15.9-18.3c-5.8-6.4-11.7-12.7-17.5-18.8l-0.2-0.2
	c-12-12.7-22.6-24-30.5-34.4c-1.9-2.6-3.7-5-5.2-7.5c-1.5-2.3-4.1-3.8-6.9-3.8h-0.2c-2.8,0-5.4,1.5-6.9,3.8
	c-1.6,2.5-3.3,4.9-5.2,7.5c-7.8,10.4-18.4,21.7-30.4,34.2l-0.3,0.4c-5.7,6-11.6,12.2-17.3,18.6c-5.5,6-10.9,12.2-16.1,18.5
	c-4.1,5-8.1,10.2-11.8,15.4c-11.8,16.6-21,34.2-24.8,52.8c4.9,2,10.2,3.8,15.8,5.5C77.6,181.1,83.7,167.6,91.9,154.6z"/>
<path class="st1" d="M124.2,181.1c-7.9-13.6-15-27.7-21.2-42.2c-4,5.2-7.7,10.4-11.1,15.8c5.3,11.5,11.3,23.2,17.9,34.7
	c2.9,5.1,5.9,10.1,9,14.9c6.8,0.9,13.9,1.7,21.3,2.3C134.6,198.4,129.3,189.9,124.2,181.1z"/>
<path class="st1" d="M171.7,269.6c13,12.2,26.6,22.2,38.8,28.2c6.6-2.8,12.8-6.3,18.6-10.4c-13.4-3.5-29.9-14.1-46-29.1
	C179.2,262.4,175.6,266,171.7,269.6z"/>
<path class="st1" d="M87,90.6c-8.2-35.9-4.9-62.1,8.1-69.6c13.5-7.8,38.3,3.3,65,28.4c1.9-2.5,3.7-5,5.2-7.5
	c1.5-2.3,4.1-3.8,6.9-3.8c-13.7-13-27.2-22.8-39.7-28.9C110-1.7,95.2,1.8,86.8,6.7C69.1,16.9,62.3,42.4,67.8,78.3
	c0.8,5.4,1.9,10.9,3.2,16.6l4.3,16c2.5,8.4,5.5,17,8.9,25.6c3.7-5.2,7.7-10.4,11.8-15.4c-1.8-4.9-3.4-9.8-4.8-14.5L87,90.6z"/>
<path class="st1" d="M273.6,95.2c1.4-5.8,2.5-11.4,3.3-16.9c5.5-36-1.3-61.4-19.1-71.7C237-5.3,206.1,6.1,172.4,38
	c2.8,0,5.4,1.5,6.9,3.8c1.6,2.4,3.3,4.9,5.2,7.5c26.6-25,51.7-36,65-28.4c11.3,6.5,15.3,26.5,11,54.9c-0.7,4.9-1.7,9.9-2.9,15.1
	l-4.3,16c-1.4,4.6-3,9.4-4.7,14.2c4.1,5,8.1,10.2,11.8,15.4c3.4-8.6,6.3-17,8.8-25.2L273.6,95.2z"/>
<path class="st1" d="M220.5,181.1c-5.1,8.8-10.4,17.3-15.9,25.4c7.3-0.6,14.4-1.4,21.3-2.4c3-4.8,6-9.7,8.9-14.7
	c6.6-11.5,12.6-23.2,17.9-34.7c-3.4-5.3-7.1-10.6-11.1-15.8C235.4,153.3,228.4,167.4,220.5,181.1z"/>
<path class="st1" d="M161.5,258.2c-16.5,15.3-33,25.8-46,29.2c5.8,4.1,12.1,7.6,18.7,10.4c12.2-6,25.3-15.8,38.4-28
	C168.6,266.2,165.4,262.3,161.5,258.2z"/>
<path class="st1" d="M192,223.8c-6.4,8.3-13,16-19.6,23.1c-6.6-7-13.1-14.7-19.6-23.1c-7.4-0.3-14.6-0.8-21.7-1.5
	c9,12.7,18.9,24.8,29.6,36.2c3.9,4.1,7.8,8,11.7,11.6c3.9-3.6,7.8-7.5,11.6-11.6c10.7-11.4,20.7-23.6,29.7-36.4
	C206.6,222.9,199.3,223.4,192,223.8z"/>
<circle class="st1" cx="171.7" cy="152" r="30.1"/>
</svg>
