<svg xmlns="http://www.w3.org/2000/svg" width="21.352" height="21.352" viewBox="0 0 21.352 21.352">
  <g id="FB" transform="translate(10.676)">
    <g id="Grupo_17423" data-name="Grupo 17423" transform="translate(-10.676)">
      <circle id="Elipse_406" data-name="Elipse 406" cx="10.676" cy="10.676" r="10.676" transform="translate(0 21.352) rotate(-90)" fill="#fff"/>
      <path id="Trazado_8362" data-name="Trazado 8362" d="M8.907,10.8v6.539a.17.17,0,0,0,.17.17h2.428a.171.171,0,0,0,.171-.17V10.69h1.76a.17.17,0,0,0,.17-.156l.169-2a.17.17,0,0,0-.17-.184H11.676V6.927a.6.6,0,0,1,.6-.6h1.357a.171.171,0,0,0,.171-.17v-2a.172.172,0,0,0-.171-.171H11.343A2.436,2.436,0,0,0,8.907,6.417V8.348H7.693a.171.171,0,0,0-.171.17v2a.171.171,0,0,0,.171.17H8.907Z" transform="translate(0 0)" fill-rule="evenodd"/>
    </g>
  </g>
</svg>
