<?xml version="1.0" encoding="utf-8"?>
<!-- Generator: Adobe Illustrator 22.1.0, SVG Export Plug-In . SVG Version: 6.00 Build 0)  -->
<svg version="1.1" id="Capa_1" xmlns="http://www.w3.org/2000/svg" xmlns:xlink="http://www.w3.org/1999/xlink" x="0px" y="0px"
	 viewBox="0 0 30 30" style="enable-background:new 0 0 30 30;" xml:space="preserve">
<style type="text/css">
	.st0{fill:#1A1446;}
</style>
<g>
	<g>
		<path id="a_1_" class="st0" d="M15,30C6.7,30,0,23.3,0,15S6.7,0,15,0s15,6.7,15,15S23.3,30,15,30z M22.3,7H8.7C7.8,7,7,7.8,7,8.7
			v13.6C7,23.2,7.8,24,8.7,24h13.6c0.9,0,1.7-0.8,1.7-1.7V8.7C24,7.8,23.2,7,22.3,7z M15.5,12.1c1.9,0,3.4,1.5,3.4,3.4
			s-1.5,3.4-3.4,3.4c-1.9,0-3.4-1.5-3.4-3.4C12.1,13.6,13.6,12.1,15.5,12.1z M9.1,22.3c-0.3,0-0.4-0.2-0.4-0.4v-7.2h1.8
			c-0.1,0.3-0.1,0.6-0.1,0.9c0,2.8,2.3,5.1,5.1,5.1s5.1-2.3,5.1-5.1c0-0.3,0-0.6-0.1-0.9h1.8v7.2c0,0.3-0.2,0.4-0.4,0.4H9.1z
			 M22.3,10.8c0,0.3-0.2,0.4-0.4,0.4h-1.7c-0.3,0-0.4-0.2-0.4-0.4V9.1c0-0.3,0.2-0.4,0.4-0.4h1.7c0.3,0,0.4,0.2,0.4,0.4V10.8z"/>
	</g>
</g>
</svg>
