<svg xmlns="http://www.w3.org/2000/svg" xmlns:xlink="http://www.w3.org/1999/xlink" width="30" height="30" viewBox="0 0 30 30">
    <defs>
        <path id="a" d="M15 30C6.716 30 0 23.284 0 15 0 6.716 6.716 0 15 0c8.284 0 15 6.716 15 15 0 8.284-6.716 15-15 15zm7.3-23H8.7C7.765 7 7 7.765 7 8.7v13.6c0 .935.765 1.7 1.7 1.7h13.6c.935 0 1.7-.765 1.7-1.7V8.7c0-.935-.765-1.7-1.7-1.7zm-6.8 5.1c1.87 0 3.4 1.53 3.4 3.4 0 1.87-1.53 3.4-3.4 3.4a3.41 3.41 0 0 1-3.4-3.4c0-1.87 1.53-3.4 3.4-3.4zM9.125 22.3c-.255 0-.425-.17-.425-.425V14.65h1.785c-.085.255-.085.595-.085.85 0 2.805 2.295 5.1 5.1 5.1 2.805 0 5.1-2.295 5.1-5.1 0-.255 0-.595-.085-.85H22.3v7.225c0 .255-.17.425-.425.425H9.125zM22.3 10.825c0 .255-.17.425-.425.425h-1.7c-.255 0-.425-.17-.425-.425v-1.7c0-.255.17-.425.425-.425h1.7c.255 0 .425.17.425.425v1.7z"/>
    </defs>
    <g fill="none" fill-rule="evenodd">
        <mask id="b" fill="#fff">
            <use xlink:href="#a"/>
        </mask>
        <use fill="#1A1446" fill-rule="nonzero" xlink:href="#a"/>
        <g fill="#FFF" mask="url(#b)">
            <path d="M0 0h30v30H0z"/>
        </g>
    </g>
</svg>
