<svg xmlns="http://www.w3.org/2000/svg" xmlns:xlink="http://www.w3.org/1999/xlink" width="30" height="30" viewBox="0 0 30 30">
    <defs>
        <path id="a" d="M12.645 22.48c-.112 0-.225-.01-.336-.029-.546-.097-1.226-.452-2.291-1.023-.716-.383-2.046-1.095-2.451-1.095h-.005l-.02-1.851c.776.05 1.856.515 3.35 1.317.614.329 1.456.78 1.736.83.029.014.178-.015.408-.185.414-.315.734-.858.766-1.15a.905.905 0 0 1 .172-.45c.16-.335.53-.581.9-.59.24.002.426-.032.582-.12a.946.946 0 0 0 .461-.915.915.915 0 0 1 .255-.739c.189-.199.462-.294.73-.281.3.014.594-.077.818-.278.386-.35.476-.911.219-1.364a.924.924 0 0 1 .129-1.09c.18-.189.28-.473.28-.778 0-.483-.237-.812-.458-.914-1.196-.769-3.512-1.497-4.314-1.719-.286-.11-1.864-.85-.887-3.782.444-1.328.215-2.912-.24-3.787-.198-.383-.403-.56-.516-.593-.201-.06-.284-.042-.29-.035-.096.076-.334.555-.262 1.843.108 2.005-1.831 4.4-3.3 6.028l-.137.153c-.58.66-2.066 1.088-2.679 1.24a.934.934 0 0 1-.22.029l-2.72.014c-.175.001-.33.001-.464.003l.082 7.39h2.505v-2.82H6.3v3.746c0 .51-.414.925-.926.925H1.03a.927.927 0 0 1-.926-.915L0 10.25a.927.927 0 0 1 1.073-.924c.032-.002.284-.004 1.227-.01l2.618-.012c.927-.254 1.516-.53 1.643-.649l.148-.164c2.526-2.802 2.855-4.14 2.824-4.69-.091-1.7.223-2.81.967-3.395.367-.288 1-.577 1.965-.284.651.195 1.214.719 1.627 1.513.762 1.47.903 3.569.351 5.225-.29.872-.234 1.324-.17 1.475.542.154 3.13.927 4.508 1.826.813.362 1.418 1.379 1.418 2.528 0 .544-.144 1.074-.403 1.527a2.928 2.928 0 0 1-.836 3.077c-.366.33-.798.559-1.265.673a2.788 2.788 0 0 1-1.316 1.77 2.743 2.743 0 0 1-.866.32c-.232.688-.735 1.388-1.361 1.862-.491.37-1.005.561-1.507.561z"/>
    </defs>
    <g fill="none" fill-rule="evenodd" transform="translate(5 4)">
        <mask id="b" fill="#fff">
            <use xlink:href="#a"/>
        </mask>
        <use fill="#1A1446" fill-rule="nonzero" xlink:href="#a"/>
        <g fill="#C0BFC0" mask="url(#b)">
            <path d="M-5-4h30v30H-5z"/>
        </g>
    </g>
</svg>
