<svg xmlns="http://www.w3.org/2000/svg" width="21.352" height="21.352" viewBox="0 0 21.352 21.352">
  <g id="LK" transform="translate(10.676)">
    <g id="Grupo_17424" data-name="Grupo 17424" transform="translate(-10.676)">
      <circle id="Elipse_407" data-name="Elipse 407" cx="10.676" cy="10.676" r="10.676" fill="#fff"/>
      <path id="Trazado_8363" data-name="Trazado 8363" d="M9.393,8.429h2.238V9.456h.031a2.452,2.452,0,0,1,2.209-1.213c2.363,0,2.8,1.554,2.8,3.576v4.117H14.338v-3.65c0-.871-.017-1.991-1.213-1.991-1.215,0-1.4.949-1.4,1.927v3.714H9.393Z" transform="translate(0 0)"/>
      <path id="Trazado_8364" data-name="Trazado 8364" d="M5.592,8.429H7.929v7.507H5.592ZM6.761,4.7A1.353,1.353,0,1,1,5.406,6.05,1.353,1.353,0,0,1,6.761,4.7" transform="translate(0 0)"/>
    </g>
  </g>
</svg>
