<svg xmlns="http://www.w3.org/2000/svg" xmlns:xlink="http://www.w3.org/1999/xlink" width="30" height="30" viewBox="0 0 30 30">
    <defs>
        <path id="a" d="M18.308 4.335l1.278-.591C19.85 5.596 20 7.488 20 9.458c0 10.325-7.97 13.872-9.548 14.463-.151.04-.302.079-.452.079-.15 0-.3-.04-.451-.079C7.932 23.291 0 19.744 0 9.458c0-2.286.188-4.492.526-6.62.076-.355.263-.71.564-.907C1.917 1.34 4.398 0 10 0s8.083 1.34 8.91 1.931c.113.04.188.158.263.236l-1.429.67C16.767 2.325 14.474 1.42 10 1.42c-5.3 0-7.519 1.26-8.12 1.655-.301 2.05-.489 4.177-.489 6.345 0 9.34 7.218 12.571 8.647 13.123 1.39-.552 8.609-3.783 8.609-13.123 0-1.734-.113-3.429-.339-5.084zm-3.369 6.371v1.3h-4.473v4.69h-1.24v-4.69H4.75v-1.3h4.474v-4.73h1.24v4.73h4.474z"/>
    </defs>
    <g fill="none" fill-rule="evenodd" transform="translate(5 3)">
        <mask id="b" fill="#fff">
            <use xlink:href="#a"/>
        </mask>
        <use fill="#1A1446" fill-rule="nonzero" xlink:href="#a"/>
        <g fill="#C0BFC0" mask="url(#b)">
            <path d="M-5-3h30v30H-5z"/>
        </g>
    </g>
</svg>
