<?xml version="1.0" encoding="utf-8"?>
<!-- Generator: Adobe Illustrator 22.1.0, SVG Export Plug-In . SVG Version: 6.00 Build 0)  -->
<svg version="1.1" id="Capa_1" xmlns="http://www.w3.org/2000/svg" xmlns:xlink="http://www.w3.org/1999/xlink" x="0px" y="0px"
	 viewBox="0 0 30 30" style="enable-background:new 0 0 30 30;" xml:space="preserve">
<style type="text/css">
	.st0{fill:#1A1446;}
</style>
<g>
	<g>
		<path id="a_1_" class="st0" d="M15,0c8.3,0,15,6.7,15,15s-6.7,15-15,15S0,23.3,0,15S6.7,0,15,0z M22.3,22v-5.4
			c0-2.9-1.5-4.2-3.6-4.2c-1.7,0-2.4,0.9-2.8,1.6v-1.3h-3.1c0,0.9,0,9.4,0,9.4h3.1v-5.3c0-0.3,0-0.6,0.1-0.8
			c0.2-0.6,0.7-1.1,1.6-1.1c1.1,0,1.6,0.9,1.6,2.1V22C19.2,22,22.3,22,22.3,22z M9.4,11.3c1.1,0,1.8-0.7,1.8-1.6
			c0-0.9-0.7-1.6-1.8-1.6S7.7,8.7,7.7,9.6C7.7,10.5,8.4,11.3,9.4,11.3L9.4,11.3z M7.9,22H11v-9.4H7.9V22z"/>
	</g>
</g>
</svg>
