<svg xmlns="http://www.w3.org/2000/svg" xmlns:xlink="http://www.w3.org/1999/xlink" width="30" height="30" viewBox="0 0 30 30">
    <defs>
        <path id="a" d="M15 4C8.935 4 4 8.934 4 15s4.935 11 11 11 11-4.934 11-11S21.065 4 15 4m1 8.502V7.034C16 6.463 15.552 6 15 6s-1 .463-1 1.034v5.016a2.499 2.499 0 0 1 2 .452zM16.499 16h4.428C21.52 16 22 15.553 22 15c0-.553-.48-1-1.073-1H16.95a2.499 2.499 0 0 1-.451 2zM15 28C7.832 28 2 22.168 2 15 2 7.834 7.832 2 15 2s13 5.833 13 13c0 7.168-5.832 13-13 13zm-2-13.5a1.5 1.5 0 1 0 2.999 0 1.5 1.5 0 0 0-2.999 0z"/>
    </defs>
    <g fill="none" fill-rule="evenodd">
        <mask id="b" fill="#fff">
            <use xlink:href="#a"/>
        </mask>
        <use fill="#1A1446" fill-rule="nonzero" xlink:href="#a"/>
        <g fill="#C0BFC0" mask="url(#b)">
            <path d="M0 0h30v30H0z"/>
        </g>
    </g>
</svg>
