<svg xmlns="http://www.w3.org/2000/svg" xmlns:xlink="http://www.w3.org/1999/xlink" width="30" height="30" viewBox="0 0 30 30">
    <defs>
        <path id="a" d="M13.27 7.242l.744-.705c.43-.43.705-.743.705-1.135 0-.391-.235-.548-.666-.548-.313 0-.548.078-.744.157v-.548c.235-.118.548-.196 1.018-.196.783 0 1.214.391 1.214 1.018 0 .587-.353.978-.9 1.487l-.47.43h1.448v.588H13.27v-.548zm4.15-.352h-1.605v-.51l1.644-2.074h.704v2.036h.587v.548h-.587v.86h-.743v-.86zm0-.548V5.167h-.04l-.9 1.175h.94zm2.544-2.27h.627l-1.214 4.266h-.627l1.214-4.267zm2.427.821l-1.644-.039v-.587h2.388v.548L21.882 7.75h-.861l1.37-2.858zM4.58 16.793a3.224 3.224 0 0 1-3.21-3.21 3.224 3.224 0 0 1 3.21-3.21 3.224 3.224 0 0 1 3.21 3.21c.039 1.762-1.41 3.21-3.21 3.21zm0-5.01c-.979 0-1.8.822-1.8 1.8 0 .98.821 1.801 1.8 1.801.979 0 1.8-.822 1.8-1.8 0-1.018-.782-1.801-1.8-1.801zM9.238 22H7.83a3.224 3.224 0 0 0-3.21-3.21A3.224 3.224 0 0 0 1.41 22H0a4.628 4.628 0 0 1 4.62-4.62A4.628 4.628 0 0 1 9.237 22zM25.562 0c.392 0 .705.313.705.705v10.608a.702.702 0 0 1-.705.705h-8.26l1.331-1.41h6.224V1.41H11.234v12.918l3.29-3.484a.631.631 0 0 1 .508-.235h1.644l-1.331 1.41-4.306 4.54a.63.63 0 0 1-.509.235c-.117 0-.195 0-.274-.039-.235-.117-.43-.391-.43-.665V.705c0-.392.313-.705.704-.705h15.032z"/>
    </defs>
    <g fill="none" fill-rule="evenodd" transform="translate(2 4)">
        <mask id="b" fill="#fff">
            <use xlink:href="#a"/>
        </mask>
        <use fill="#1A1446" fill-rule="nonzero" xlink:href="#a"/>
        <g fill="#C0BFC0" mask="url(#b)">
            <path d="M-2-4h30v30H-2z"/>
        </g>
    </g>
</svg>
