<?xml version="1.0" encoding="utf-8"?>
<!-- Generator: Adobe Illustrator 22.1.0, SVG Export Plug-In . SVG Version: 6.00 Build 0)  -->
<svg version="1.1" id="Capa_1" xmlns="http://www.w3.org/2000/svg" xmlns:xlink="http://www.w3.org/1999/xlink" x="0px" y="0px"
	 viewBox="0 0 30 30" style="enable-background:new 0 0 30 30;" xml:space="preserve">
<style type="text/css">
	.st0{fill:#1A1446;}
</style>
<g>
	<g>
		<path id="a_1_" class="st0" d="M15,30C6.7,30,0,23.3,0,15S6.7,0,15,0s15,6.7,15,15S23.3,30,15,30z M6,21c1.7,1.1,3.7,1.7,5.7,1.7
			c6.9,0,10.7-5.8,10.5-11c0.7-0.5,1.3-1.2,1.8-1.9c-0.7,0.3-1.4,0.5-2.1,0.6c0.8-0.5,1.3-1.2,1.6-2C22.8,8.7,22,9,21.2,9.2
			C20.5,8.4,19.5,8,18.5,8c-2.4,0-4.1,2.2-3.6,4.5c-3-0.1-5.7-1.6-7.6-3.9c-1,1.7-0.5,3.8,1.1,4.9c-0.6,0-1.2-0.2-1.7-0.5
			c0,1.7,1.2,3.3,3,3.7C9.1,17,8.6,17,8,16.9c0.5,1.5,1.9,2.5,3.4,2.6C9.9,20.7,8,21.2,6,21L6,21z"/>
	</g>
</g>
</svg>
