<svg xmlns="http://www.w3.org/2000/svg" xmlns:xlink="http://www.w3.org/1999/xlink" width="30" height="30" viewBox="0 0 30 30">
    <defs>
        <path id="a" d="M15 30C6.716 30 0 23.284 0 15 0 6.716 6.716 0 15 0c8.284 0 15 6.716 15 15 0 8.284-6.716 15-15 15zm-9-9.03a10.453 10.453 0 0 0 5.663 1.66c6.856 0 10.726-5.792 10.494-10.986A7.494 7.494 0 0 0 24 9.73a7.432 7.432 0 0 1-2.121.583 3.73 3.73 0 0 0 1.624-2.045 7.342 7.342 0 0 1-2.347.896A3.674 3.674 0 0 0 18.462 8c-2.384 0-4.136 2.225-3.598 4.535a10.47 10.47 0 0 1-7.61-3.859 3.694 3.694 0 0 0 1.143 4.93 3.689 3.689 0 0 1-1.674-.46c-.041 1.71 1.186 3.31 2.96 3.666a3.68 3.68 0 0 1-1.665.063 3.696 3.696 0 0 0 3.448 2.566A7.418 7.418 0 0 1 6 20.969z"/>
    </defs>
    <g fill="none" fill-rule="evenodd">
        <mask id="b" fill="#fff">
            <use xlink:href="#a"/>
        </mask>
        <use fill="#1A1446" xlink:href="#a"/>
        <g fill="#FFF" mask="url(#b)">
            <path d="M0 0h30v30H0z"/>
        </g>
    </g>
</svg>
