<svg width="30" height="30" viewBox="0 0 30 30" fill="none" xmlns="http://www.w3.org/2000/svg">
<path d="M15.7246 6.81639C14.3489 6.81592 12.9999 7.19522 11.826 7.91249C10.6522 8.62976 9.69911 9.65716 9.07187 10.8815C8.44462 12.1058 8.16753 13.4795 8.27113 14.8513C8.37473 16.223 8.855 17.5395 9.65902 18.6557C9.74102 18.7686 9.79152 18.9013 9.80535 19.0402C9.81917 19.179 9.79583 19.319 9.73771 19.4459L8.87541 21.3475L11.3508 20.6656C11.4195 20.6488 11.4899 20.64 11.5607 20.6393C11.7013 20.6387 11.8395 20.6761 11.9607 20.7475C12.952 21.3241 14.0628 21.6648 15.2069 21.7432C16.3511 21.8215 17.498 21.6355 18.5587 21.1994C19.6194 20.7633 20.5655 20.089 21.3237 19.2285C22.0819 18.368 22.6318 17.3446 22.931 16.2375C23.2301 15.1303 23.2704 13.9692 23.0487 12.844C22.8269 11.7187 22.3492 10.6597 21.6524 9.74876C20.9556 8.83785 20.0585 8.09955 19.0306 7.59105C18.0026 7.08254 16.8714 6.81748 15.7246 6.81639ZM20.1541 17.1869C19.9975 17.5138 19.7637 17.7977 19.473 18.0141C19.1823 18.2306 18.8433 18.3731 18.4852 18.4295C17.8295 18.5574 17.2623 18.3443 16.6426 18.1377C16.0918 17.9467 15.5639 17.6949 15.0689 17.3869C14.0803 16.7727 13.2198 15.9734 12.5344 15.0328C12.323 14.7462 12.1271 14.4485 11.9475 14.141C11.6994 13.7412 11.5115 13.3071 11.3902 12.8525C11.3421 12.6616 11.3168 12.4657 11.3148 12.2688C11.303 11.9218 11.369 11.5764 11.508 11.2582C11.647 10.9399 11.8554 10.6568 12.118 10.4295C12.2711 10.2921 12.4611 10.2026 12.6645 10.1723C12.868 10.142 13.0759 10.1721 13.2623 10.259C13.6492 10.4787 13.8492 11.0295 14.0295 11.4164C14.2075 11.7339 14.2917 12.0955 14.2721 12.459C14.1704 12.7936 13.9841 13.0962 13.7312 13.3377C13.6612 13.3991 13.6175 13.485 13.6089 13.5777C13.6004 13.6704 13.6277 13.7629 13.6852 13.8361C14.3627 14.9995 15.4127 15.9005 16.6656 16.3934C16.7355 16.433 16.8176 16.4456 16.8962 16.4287C16.9747 16.4117 17.0444 16.3665 17.0918 16.3016C17.3148 16.0262 17.5344 15.4885 17.8754 15.3508C18.3213 15.1672 18.8164 15.4197 19.1869 15.6459C19.5574 15.8721 20.1279 16.118 20.223 16.5541C20.264 16.7672 20.24 16.9876 20.1541 17.1869ZM15.7246 6.81639C14.3489 6.81592 12.9999 7.19522 11.826 7.91249C10.6522 8.62976 9.69911 9.65716 9.07187 10.8815C8.44462 12.1058 8.16753 13.4795 8.27113 14.8513C8.37473 16.223 8.855 17.5395 9.65902 18.6557C9.74102 18.7686 9.79152 18.9013 9.80535 19.0402C9.81917 19.179 9.79583 19.319 9.73771 19.4459L8.87541 21.3475L11.3508 20.6656C11.4195 20.6488 11.4899 20.64 11.5607 20.6393C11.7013 20.6387 11.8395 20.6761 11.9607 20.7475C12.952 21.3241 14.0628 21.6648 15.2069 21.7432C16.3511 21.8215 17.498 21.6355 18.5587 21.1994C19.6194 20.7633 20.5655 20.089 21.3237 19.2285C22.0819 18.368 22.6318 17.3446 22.931 16.2375C23.2301 15.1303 23.2704 13.9692 23.0487 12.844C22.8269 11.7187 22.3492 10.6597 21.6524 9.74876C20.9556 8.83785 20.0585 8.09955 19.0306 7.59105C18.0026 7.08254 16.8714 6.81748 15.7246 6.81639ZM20.1541 17.1869C19.9975 17.5138 19.7637 17.7977 19.473 18.0141C19.1823 18.2306 18.8433 18.3731 18.4852 18.4295C17.8295 18.5574 17.2623 18.3443 16.6426 18.1377C16.0918 17.9467 15.5639 17.6949 15.0689 17.3869C14.0803 16.7727 13.2198 15.9734 12.5344 15.0328C12.323 14.7462 12.1271 14.4485 11.9475 14.141C11.6994 13.7412 11.5115 13.3071 11.3902 12.8525C11.3421 12.6616 11.3168 12.4657 11.3148 12.2688C11.303 11.9218 11.369 11.5764 11.508 11.2582C11.647 10.9399 11.8554 10.6568 12.118 10.4295C12.2711 10.2921 12.4611 10.2026 12.6645 10.1723C12.868 10.142 13.0759 10.1721 13.2623 10.259C13.6492 10.4787 13.8492 11.0295 14.0295 11.4164C14.2075 11.7339 14.2917 12.0955 14.2721 12.459C14.1704 12.7936 13.9841 13.0962 13.7312 13.3377C13.6612 13.3991 13.6175 13.485 13.6089 13.5777C13.6004 13.6704 13.6277 13.7629 13.6852 13.8361C14.3627 14.9995 15.4127 15.9005 16.6656 16.3934C16.7355 16.433 16.8176 16.4456 16.8962 16.4287C16.9747 16.4117 17.0444 16.3665 17.0918 16.3016C17.3148 16.0262 17.5344 15.4885 17.8754 15.3508C18.3213 15.1672 18.8164 15.4197 19.1869 15.6459C19.5574 15.8721 20.1279 16.118 20.223 16.5541C20.264 16.7672 20.24 16.9876 20.1541 17.1869ZM15.0033 3.58414e-07C12.0363 -0.000648095 9.13574 0.878618 6.6685 2.52659C4.20126 4.17456 2.27816 6.51721 1.14244 9.25823C0.00672014 11.9993 -0.290606 15.0155 0.288068 17.9255C0.866741 20.8356 2.29542 23.5086 4.3934 25.6066C6.49139 27.7046 9.16443 29.1333 12.0745 29.7119C14.9845 30.2906 18.0007 29.9933 20.7418 28.8576C23.4828 27.7218 25.8254 25.7987 27.4734 23.3315C29.1214 20.8643 30.0006 17.9637 30 14.9967C29.9948 11.0209 28.4131 7.20949 25.6018 4.39819C22.7905 1.58688 18.9791 0.0052054 15.0033 3.58414e-07ZM15.7246 23.3475C14.2377 23.3463 12.7739 22.9792 11.4623 22.2787L7.65574 23.318C7.58749 23.3375 7.51688 23.3474 7.44591 23.3475C7.31341 23.3479 7.18294 23.315 7.0665 23.2518C6.95006 23.1886 6.85138 23.0971 6.77955 22.9857C6.70772 22.8744 6.66504 22.7468 6.65544 22.6146C6.64584 22.4825 6.66962 22.3501 6.72459 22.2295L8.10164 19.2033C7.01037 17.5128 6.51316 15.5071 6.68851 13.5026C6.86385 11.4982 7.70177 9.60925 9.06998 8.13395C10.4382 6.65865 12.2588 5.68104 14.2443 5.35544C16.2299 5.02983 18.2674 5.37477 20.0351 6.33581C21.8029 7.29686 23.2002 8.81926 24.0065 10.6627C24.8129 12.5062 24.9823 14.5657 24.4881 16.5161C23.9939 18.4666 22.8642 20.1969 21.2773 21.4339C19.6904 22.6709 17.7367 23.3442 15.7246 23.3475ZM15.7246 6.81639C14.3489 6.81592 12.9999 7.19522 11.826 7.91249C10.6522 8.62976 9.69911 9.65716 9.07187 10.8815C8.44462 12.1058 8.16753 13.4795 8.27113 14.8513C8.37473 16.223 8.855 17.5395 9.65902 18.6557C9.74102 18.7686 9.79152 18.9013 9.80535 19.0402C9.81917 19.179 9.79583 19.319 9.73771 19.4459L8.87541 21.3475L11.3508 20.6656C11.4195 20.6488 11.4899 20.64 11.5607 20.6393C11.7013 20.6387 11.8395 20.6761 11.9607 20.7475C12.952 21.3241 14.0628 21.6648 15.2069 21.7432C16.3511 21.8215 17.498 21.6355 18.5587 21.1994C19.6194 20.7633 20.5655 20.089 21.3237 19.2285C22.0819 18.368 22.6318 17.3446 22.931 16.2375C23.2301 15.1303 23.2704 13.9692 23.0487 12.844C22.8269 11.7187 22.3492 10.6597 21.6524 9.74876C20.9556 8.83785 20.0585 8.09955 19.0306 7.59105C18.0026 7.08254 16.8714 6.81748 15.7246 6.81639ZM20.1541 17.1869C19.9975 17.5138 19.7637 17.7977 19.473 18.0141C19.1823 18.2306 18.8433 18.3731 18.4852 18.4295C17.8295 18.5574 17.2623 18.3443 16.6426 18.1377C16.0918 17.9467 15.5639 17.6949 15.0689 17.3869C14.0803 16.7727 13.2198 15.9734 12.5344 15.0328C12.323 14.7462 12.1271 14.4485 11.9475 14.141C11.6994 13.7412 11.5115 13.3071 11.3902 12.8525C11.3421 12.6616 11.3168 12.4657 11.3148 12.2688C11.303 11.9218 11.369 11.5764 11.508 11.2582C11.647 10.9399 11.8554 10.6568 12.118 10.4295C12.2711 10.2921 12.4611 10.2026 12.6645 10.1723C12.868 10.142 13.0759 10.1721 13.2623 10.259C13.6492 10.4787 13.8492 11.0295 14.0295 11.4164C14.2075 11.7339 14.2917 12.0955 14.2721 12.459C14.1704 12.7936 13.9841 13.0962 13.7312 13.3377C13.6612 13.3991 13.6175 13.485 13.6089 13.5777C13.6004 13.6704 13.6277 13.7629 13.6852 13.8361C14.3627 14.9995 15.4127 15.9005 16.6656 16.3934C16.7355 16.433 16.8176 16.4456 16.8962 16.4287C16.9747 16.4117 17.0444 16.3665 17.0918 16.3016C17.3148 16.0262 17.5344 15.4885 17.8754 15.3508C18.3213 15.1672 18.8164 15.4197 19.1869 15.6459C19.5574 15.8721 20.1279 16.118 20.223 16.5541C20.264 16.7672 20.24 16.9876 20.1541 17.1869Z" fill="#1A1446"/>
</svg>
