<?xml version="1.0" encoding="UTF-8"?>
<svg width="81px" height="62px" viewBox="0 0 81 62" version="1.1" xmlns="http://www.w3.org/2000/svg" xmlns:xlink="http://www.w3.org/1999/xlink">
    <!-- Generator: Sketch 52.5 (67469) - http://www.bohemiancoding.com/sketch -->
    <title>Icon Copy 7</title>
    <desc>Created with Sketch.</desc>
    <defs>
        <path d="M80.632125,32.0355 L75.9645,32.0355 L74.71575,28.499625 L80.632125,28.499625 L80.632125,32.0355 Z M66.432375,50.785875 L65.289375,47.49975 C65.289375,47.457 65.300625,47.401875 65.34675,47.345625 C65.421,47.25 65.514375,47.25 65.543625,47.25 L76.842,47.25 L76.843125,50.785875 L66.432375,50.785875 Z M25.207875,47.25 C25.23825,47.25 25.329375,47.25 25.405875,47.3445 C25.450875,47.401875 25.461,47.457 25.461,47.49975 L24.319125,50.785875 L13.905,50.785875 L13.905,47.25 L25.207875,47.25 Z M10.125,28.499625 L16.041375,28.499625 L14.792625,32.0355 L10.125,32.0355 L10.125,28.499625 Z M23.385375,21.222 C23.85675,19.909125 24.946875,19.125 26.3025,19.125 L45.37575,19.125 L64.454625,19.125 C65.809125,19.125 66.900375,19.909125 67.36725,21.21075 L71.66475,33.37425 L19.092375,33.37425 L23.385375,21.222 Z M80.84925,23.999625 C83.210625,23.999625 85.132125,25.92 85.132125,28.28025 L85.132125,32.254875 C85.132125,34.615125 83.210625,36.5355 80.84925,36.5355 L78.438375,36.5355 L80.85375,39.585375 C81.169875,39.9825 81.340875,40.474125 81.340875,40.9815 L81.347625,71.092125 C81.347625,73.4535 79.42725,75.375 77.067,75.375 L67.734,75.375 C65.37375,75.375 63.453375,73.4535 63.453375,71.092125 L63.453375,67.76775 L67.953375,67.76775 L67.953375,70.875 L76.847625,70.875 L76.84425,55.285875 L66.07575,55.285875 C64.240875,55.285875 62.667,54.06975 62.199,52.3125 L60.980625,48.805875 C60.953625,48.729375 60.931125,48.65175 60.913125,48.574125 C60.58575,47.15325 60.917625,45.684 61.824375,44.54325 C62.73225,43.403625 64.08675,42.75 65.543625,42.75 L76.840875,42.75 L76.840875,41.765625 L73.7595,37.87425 L16.997625,37.87425 L13.905,41.76675 L13.905,42.75 L25.207875,42.75 C26.66475,42.75 28.020375,43.403625 28.927125,44.54325 C29.833875,45.684 30.166875,47.15325 29.838375,48.574125 C29.820375,48.65175 29.797875,48.729375 29.772,48.805875 L28.553625,52.311375 C28.085625,54.06975 26.51175,55.285875 24.67575,55.285875 L13.905,55.285875 L13.905,70.875 L22.798125,70.875 L22.798125,67.76775 L27.298125,67.76775 L27.298125,71.092125 C27.298125,73.4535 25.37775,75.375 23.0175,75.375 L13.6845,75.375 C11.325375,75.375 9.405,73.4535 9.405,71.092125 L9.405,40.982625 C9.405,40.474125 9.577125,39.98025 9.89325,39.582 L12.313125,36.5355 L9.907875,36.5355 C7.5465,36.5355 5.625,34.615125 5.625,32.254875 L5.625,28.28025 C5.625,25.92 7.5465,23.999625 9.907875,23.999625 L17.632125,23.999625 L19.146375,19.71225 C20.25675,16.617375 23.06475,14.625 26.3025,14.625 L45.37575,14.625 L64.454625,14.625 C67.692375,14.625 70.49925,16.617375 71.607375,19.701 L73.125,23.999625 L80.84925,23.999625 Z M19.6898625,64.6840125 L19.6898625,60.1840125 L71.0607375,60.1840125 L71.0607375,64.6840125 L19.6898625,64.6840125 Z" id="path-1"></path>
    </defs>
    <g id="DSK--Buscador" stroke="none" stroke-width="1" fill="none" fill-rule="evenodd">
        <g id="Buscador_idea2" transform="translate(-207.000000, -850.000000)">
            <g id="Group-7" transform="translate(182.000000, 810.000000)">
                <g id="Elements-/-Icon-/-Liberty-/-Car-1" transform="translate(20.000000, 26.000000)">
                    <mask id="mask-2" fill="white">
                        <use xlink:href="#path-1"></use>
                    </mask>
                    <use id="Mask" fill="#171343" fill-rule="evenodd" xlink:href="#path-1"></use>
                    <g id="Elements-/-Color-/-Principal-/-Yellow-4-Copy-2" mask="url(#mask-2)" fill="#28A3AF" fill-rule="evenodd">
                        <rect id="Rectangle" x="0" y="0" width="90" height="90"></rect>
                    </g>
                </g>
            </g>
        </g>
    </g>
</svg>