<?xml version="1.0" encoding="UTF-8"?>
<svg id="Capa_1" data-name="Capa 1" xmlns="http://www.w3.org/2000/svg" xmlns:xlink="http://www.w3.org/1999/xlink" viewBox="0 0 600 600">
  <defs>
    <style>
      .cls-1 {
        fill: #1a1446;
      }

      .cls-2, .cls-3, .cls-4 {
        fill: none;
      }

      .cls-3 {
        clip-path: url(#clippath);
      }

      .cls-4 {
        clip-path: url(#clippath-1);
      }
    </style>
    <clipPath id="clippath">
      <rect class="cls-2" x="46.73" y="10" width="506.53" height="580"/>
    </clipPath>
    <clipPath id="clippath-1">
      <rect class="cls-2" x="46.73" y="9.99" width="506.52" height="580.01"/>
    </clipPath>
  </defs>
  <g id="Seguimiento_y_control_de_calidad" data-name="Seguimiento y control de calidad">
    <g class="cls-3">
      <g class="cls-4">
        <path class="cls-1" d="m510.45,114.78l32.33-14.22c6.74,44.74,10.49,90.39,10.49,138.01,0,249.5-201.93,335.12-241.88,349.5-3.89.9-7.64,1.95-11.39,1.95s-7.64-.93-11.39-1.95c-40.99-15.29-241.86-100.91-241.86-349.5,0-55.24,4.77-108.53,13.32-160.01,1.95-8.55,6.58-17.21,14.22-21.86,20.96-14.36,83.81-46.69,225.71-46.69s204.75,32.33,225.71,46.69c2.85.9,4.79,3.75,6.74,5.7l-36.22,16.17c-24.71-12.44-82.8-34.28-196.23-34.28-134.26,0-190.4,30.52-205.66,39.97-7.64,49.54-12.41,100.88-12.41,153.27,0,225.71,182.75,303.72,218.97,317.03,35.18-13.32,218.09-91.43,218.09-317.03,0-41.92-2.85-82.77-8.55-122.75"/>
        <polygon class="cls-1" points="424.31 221.51 390.85 194.32 270.9 346.38 201.73 293.16 175.69 327.76 277.18 405.67 278.34 404.37 279.66 404.37 424.31 221.51"/>
      </g>
    </g>
  </g>
</svg>