<?xml version="1.0" encoding="UTF-8"?>
<svg width="22px" height="20px" viewBox="0 0 22 20" version="1.1" xmlns="http://www.w3.org/2000/svg" xmlns:xlink="http://www.w3.org/1999/xlink">
    <!-- Generator: Sketch 63.1 (92452) - https://sketch.com -->
    <title>Mask</title>
    <desc>Created with Sketch.</desc>
    <defs>
        <path d="M8.82606548,21 C8.60761216,21 8.40727641,20.8747624 8.31366896,20.6772627 L4.10011169,11.7965134 L-4.67012231,7.79881981 C-4.87815084,7.70399142 -5.00799343,7.49451339 -4.99961765,7.26774522 C-4.99124186,7.0410127 -4.84597778,6.84140965 -4.63158653,6.76205327 L16.235217,-0.964392136 C16.4411606,-1.04100349 16.67464,-0.991842457 16.8319106,-0.837621563 C16.9887498,-0.683471968 17.0413051,-0.453103171 16.9663185,-0.247190114 L9.35927563,20.6289572 C9.28134132,20.842428 9.08143694,20.9887703 8.85277451,20.9991088 C8.84396736,20.9997505 8.83512426,21 8.82606548,21 Z M-2.95891062,7.34189674 L4.76115137,10.8609209 C4.88261817,10.9162137 4.98028769,11.0123968 5.03719268,11.13218 L8.75762132,18.973489 L15.4842006,0.513326376 L-2.95891062,7.34189674 Z M5.47122343,11.0502525 C5.33776183,11.0502525 5.20453177,10.9993465 5.10255851,10.8976007 C4.89881045,10.6938774 4.89881045,10.3637657 5.10255851,10.1604724 L16.0599373,-0.796955018 C16.2636523,-1.00067829 16.5935522,-1.00067829 16.7970356,-0.796955018 C17.0005522,-0.593231751 17.0007506,-0.263086935 16.7970356,-0.0597936732 L5.83988834,10.8976007 C5.73791509,10.9993465 5.60465195,11.0502525 5.47122343,11.0502525 Z" id="path-1"></path>
    </defs>
    <g id="Symbols" stroke="none" stroke-width="1" fill="none" fill-rule="evenodd">
        <mask id="mask-2" fill="white">
            <use xlink:href="#path-1"></use>
        </mask>
        <use id="Mask" fill="#1A1446" fill-rule="nonzero" transform="translate(6.000000, 10.000000) rotate(-315.000000) translate(-6.000000, -10.000000) " xlink:href="#path-1"></use>
    </g>
</svg>