<?xml version="1.0" encoding="UTF-8"?>
<svg width="22px" height="22px" viewBox="0 0 22 22" version="1.1" xmlns="http://www.w3.org/2000/svg" xmlns:xlink="http://www.w3.org/1999/xlink">
    <!-- Generator: Sketch 52.5 (67469) - http://www.bohemiancoding.com/sketch -->
    <title>icon </title>
    <desc>Created with Sketch.</desc>
    <defs>
        <path d="M20.1666667,19.9833333 C20.1666667,20.0845333 20.0845333,20.1666667 19.9833333,20.1666667 L2.01666667,20.1666667 C1.91546667,20.1666667 1.83333333,20.0845333 1.83333333,19.9833333 L1.83333333,2.01666667 C1.83333333,1.91546667 1.91546667,1.83333333 2.01666667,1.83333333 L19.9833333,1.83333333 C20.0845333,1.83333333 20.1666667,1.91546667 20.1666667,2.01666667 L20.1666667,19.9833333 Z M19.9833333,0 C21.0958,0 22,0.9042 22,2.01666667 L22,19.9833333 C22,21.0958 21.0958,22 19.9833333,22 L2.01666667,22 C0.9042,22 0,21.0958 0,19.9833333 L0,2.01666667 C0,0.9042 0.9042,0 2.01666667,0 L19.9833333,0 Z M16.5,4.58333333 L9.16666667,4.58333333 C8.66066667,4.58333333 8.25,4.994 8.25,5.5 C8.25,6.006 8.66066667,6.41666667 9.16666667,6.41666667 L16.5,6.41666667 C17.006,6.41666667 17.4166667,6.006 17.4166667,5.5 C17.4166667,4.994 17.006,4.58333333 16.5,4.58333333 Z M5.5,4.21666667 C4.79233333,4.21666667 4.21666667,4.79233333 4.21666667,5.5 C4.21666667,6.20766667 4.79233333,6.78333333 5.5,6.78333333 C6.20766667,6.78333333 6.78333333,6.20766667 6.78333333,5.5 C6.78333333,4.79233333 6.20766667,4.21666667 5.5,4.21666667 Z M16.5,8.25 L9.16666667,8.25 C8.66066667,8.25 8.25,8.66066667 8.25,9.16666667 C8.25,9.67266667 8.66066667,10.0833333 9.16666667,10.0833333 L16.5,10.0833333 C17.006,10.0833333 17.4166667,9.67266667 17.4166667,9.16666667 C17.4166667,8.66066667 17.006,8.25 16.5,8.25 Z M5.5,7.88333333 C4.79233333,7.88333333 4.21666667,8.459 4.21666667,9.16666667 C4.21666667,9.87433333 4.79233333,10.45 5.5,10.45 C6.20766667,10.45 6.78333333,9.87433333 6.78333333,9.16666667 C6.78333333,8.459 6.20766667,7.88333333 5.5,7.88333333 Z M16.5,11.9166667 L9.16666667,11.9166667 C8.66066667,11.9166667 8.25,12.3273333 8.25,12.8333333 C8.25,13.3393333 8.66066667,13.75 9.16666667,13.75 L16.5,13.75 C17.006,13.75 17.4166667,13.3393333 17.4166667,12.8333333 C17.4166667,12.3273333 17.006,11.9166667 16.5,11.9166667 Z M5.5,11.55 C4.79233333,11.55 4.21666667,12.1256667 4.21666667,12.8333333 C4.21666667,13.541 4.79233333,14.1166667 5.5,14.1166667 C6.20766667,14.1166667 6.78333333,13.541 6.78333333,12.8333333 C6.78333333,12.1256667 6.20766667,11.55 5.5,11.55 Z M16.5,15.5833333 L9.16666667,15.5833333 C8.66066667,15.5833333 8.25,15.994 8.25,16.5 C8.25,17.006 8.66066667,17.4166667 9.16666667,17.4166667 L16.5,17.4166667 C17.006,17.4166667 17.4166667,17.006 17.4166667,16.5 C17.4166667,15.994 17.006,15.5833333 16.5,15.5833333 Z M5.5,15.2166667 C4.79233333,15.2166667 4.21666667,15.7923333 4.21666667,16.5 C4.21666667,17.2076667 4.79233333,17.7833333 5.5,17.7833333 C6.20766667,17.7833333 6.78333333,17.2076667 6.78333333,16.5 C6.78333333,15.7923333 6.20766667,15.2166667 5.5,15.2166667 Z" id="path-1"></path>
    </defs>
    <g id="DSK-Red-médica" stroke="none" stroke-width="1" fill="none" fill-rule="evenodd">
        <g id="Red-médica-Copy-2" transform="translate(-365.000000, -1270.000000)">
            <g id="Group-13" transform="translate(182.000000, 1132.000000)">
                <g id="info-copy-10" transform="translate(85.000000, 89.000000)">
                    <g id="Group-5">
                        <g id="Elements-/-Icon-/-Glyph-/-List-Outline" transform="translate(98.000000, 49.000000)">
                            <mask id="mask-2" fill="white">
                                <use xlink:href="#path-1"></use>
                            </mask>
                            <use id="Mask" fill="#1A1446" fill-rule="evenodd" xlink:href="#path-1"></use>
                            <g id="Elements-/-Color-/-Secundario-/-Blue-1" mask="url(#mask-2)" fill="#1A1446" fill-rule="evenodd">
                                <rect id="Rectangle" x="0" y="0" width="22" height="22"></rect>
                            </g>
                        </g>
                    </g>
                </g>
            </g>
        </g>
    </g>
</svg>