<svg xmlns="http://www.w3.org/2000/svg" xmlns:xlink="http://www.w3.org/1999/xlink" width="22" height="22" viewBox="0 0 22 22">
    <defs>
        <path id="a" d="M17.417 20.167a2.754 2.754 0 0 1-2.75-2.75 2.754 2.754 0 0 1 2.75-2.75 2.754 2.754 0 0 1 2.75 2.75 2.754 2.754 0 0 1-2.75 2.75M4.583 13.75A2.754 2.754 0 0 1 1.833 11a2.753 2.753 0 0 1 2.75-2.75A2.753 2.753 0 0 1 7.333 11a2.754 2.754 0 0 1-2.75 2.75M17.417 1.833a2.753 2.753 0 0 1 2.75 2.75 2.753 2.753 0 0 1-2.75 2.75 2.753 2.753 0 0 1-2.75-2.75 2.753 2.753 0 0 1 2.75-2.75m0 11c-1.461 0-2.762.69-3.602 1.757l-4.81-2.404A4.55 4.55 0 0 0 9.167 11c0-.41-.06-.807-.162-1.187l4.81-2.404a4.573 4.573 0 0 0 3.602 1.758A4.589 4.589 0 0 0 22 4.583 4.589 4.589 0 0 0 17.417 0a4.589 4.589 0 0 0-4.584 4.583c0 .411.06.808.162 1.187l-4.81 2.404a4.573 4.573 0 0 0-3.602-1.757A4.589 4.589 0 0 0 0 11a4.589 4.589 0 0 0 4.583 4.583c1.461 0 2.762-.689 3.602-1.757l4.81 2.405a4.546 4.546 0 0 0-.162 1.186A4.589 4.589 0 0 0 17.417 22 4.589 4.589 0 0 0 22 17.417a4.589 4.589 0 0 0-4.583-4.584"/>
    </defs>
    <g fill="none" fill-rule="evenodd">
        <mask id="b" fill="#fff">
            <use xlink:href="#a"/>
        </mask>
        <use fill="#1A1446" xlink:href="#a"/>
        <g fill="#28A3AF" mask="url(#b)">
            <path d="M0 0h22v22H0z"/>
        </g>
    </g>
</svg>
