<?xml version="1.0" encoding="UTF-8"?>
<svg width="96px" height="96px" viewBox="0 0 96 96" version="1.1" xmlns="http://www.w3.org/2000/svg" xmlns:xlink="http://www.w3.org/1999/xlink">
    <!-- Generator: Sketch 52.5 (67469) - http://www.bohemiancoding.com/sketch -->
    <title>Group 20</title>
    <desc>Created with Sketch.</desc>
    <g id="DSK-Siniestros" stroke="none" stroke-width="1" fill="none" fill-rule="evenodd">
        <g id="Siniestros" transform="translate(-498.000000, -998.000000)" fill-rule="nonzero">
            <g id="Group-20" transform="translate(498.000000, 998.000000)">
                <circle id="Oval-3-Copy-6" fill="#F0FBFC" cx="48" cy="48" r="48"></circle>
                <g id="Icons/Nature-Events/Earthquake" transform="translate(17.000000, 16.000000)" fill="#1A1446">
                    <path d="M20.1498063,36.5401938 L20.1498063,29.9494246 L23.9279313,29.9494246 L23.9279313,36.5401938 L22.0873063,36.5401938 L20.1498063,36.5401938 Z M54.6378875,24.7153846 L61.6119188,34.2138462 L58.6097625,36.4430769 L53.8619188,30.0461538 L50.7628875,46.3292308 L47.4691375,43.9061538 L50.6650438,25.7815385 L35.0691375,4.74923077 L24.3160125,12.6 L22.7660125,9.01384615 L34.3910125,0.484615385 C35.1650438,-0.193846154 36.4244188,-1.4321877e-14 37.0066375,0.872307692 L51.4400438,20.4507692 L52.7972625,11.4369231 L47.1785125,10.5646154 L47.7587938,6.78461538 L55.3150438,7.94769231 C56.2837938,8.04461538 57.0597625,9.01384615 56.8660125,10.08 L54.6378875,24.7153846 Z M45.53125,27.5260569 L44.36875,34.0199031 L42.43125,33.6322108 L40.590625,33.3414415 L41.753125,26.8475954 L45.53125,27.5260569 Z M37.3933625,24.4248092 L33.2277375,36.6371169 L52.8933625,51.2725015 L52.8933625,61.93404 C52.8933625,62.5155785 52.4089875,62.9032708 51.9246125,62.9032708 L31.8724563,62.9032708 L31.8724563,50.7878862 L25.0902375,50.7878862 L25.0902375,47.0078862 L35.7474563,47.0078862 L35.7474563,59.1232708 L48.1474563,59.1232708 C48.7277375,59.1232708 49.1162063,58.6386554 49.1162063,58.15404 L49.1162063,53.11404 L28.6746125,37.8961477 L32.0652375,27.91404 L23.0558625,27.5263477 L18.9871125,16.9617323 L11.8193313,23.9401938 L11.8193313,58.15404 C11.8193313,58.7346092 12.3037063,59.1232708 12.7880813,59.1232708 L26.3505813,59.1232708 L26.3505813,62.9032708 L9.0089875,62.9032708 C8.42870625,62.9032708 8.0402375,62.4186554 8.0402375,61.93404 L8.0402375,27.6232708 L3.0027375,32.6632708 L0.2902375,29.9494246 L20.4402375,10.3709631 L21.7964875,13.7632708 L21.8933625,13.6663477 L23.1527375,16.9617323 L25.7683625,23.8432708 L37.3933625,24.4248092 Z" id="Icon_Earthquake"></path>
                </g>
            </g>
        </g>
    </g>
</svg>