<?xml version="1.0" encoding="UTF-8"?>
<svg width="47px" height="56px" viewBox="0 0 47 56" version="1.1" xmlns="http://www.w3.org/2000/svg" xmlns:xlink="http://www.w3.org/1999/xlink">
    <!-- Generator: Sketch 52.5 (67469) - http://www.bohemiancoding.com/sketch -->
    <title>Icon_Vehicle_Theft 2</title>
    <desc>Created with Sketch.</desc>
    <g id="DSK-Siniestros" stroke="none" stroke-width="1" fill="none" fill-rule="evenodd">
        <g id="Siniestros" transform="translate(-521.000000, -829.000000)" fill="#1A1446" fill-rule="nonzero">
            <g id="Group-16" transform="translate(498.000000, 812.000000)">
                <g id="Icon_Vehicle_Theft-2" transform="translate(23.000000, 17.000000)">
                    <path d="M43.9,45.3004 C44.4,46.3004 44.8,47.4004 45.2,48.4004 C46,50.6004 46.4,53.1004 46.4,55.6004 L43.3,55.6004 C43.3,53.1004 42.8,50.6004 41.9,48.4004 C41.5,47.3004 41,46.3004 40.4,45.3004 C38.4,42.1004 35.6,39.4994 32.3,37.8004 L26.8,43.3004 C25.8,44.3004 24.5,44.8004 23.2,44.8004 C21.9,44.8004 20.6,44.3004 19.6,43.3004 L14.1,37.8004 C8.6,40.6004 4.5,45.8004 3.4,52.1004 C3.2,53.2004 3.1,54.4004 3.1,55.6004 L3.1,55.7004 L2.8,55.7004 L-4.97379915e-14,55.7004 C-4.97379915e-14,47.4004 4.4,40.1004 11,35.9994 C11.6,35.6004 12.2,35.2004 12.9,34.9004 C13.6,34.6004 14.3,34.3004 15,33.9994 C17.5,32.9994 20.2,32.4994 23.1,32.4994 C32.2,32.4994 40,37.7004 43.9,45.3004 Z M24.5,41.1004 L29.1,36.4994 C27.2,35.9004 25.2,35.6004 23.1,35.6004 C21.1,35.6004 19.1,35.9004 17.2,36.4994 L21.8,41.1004 C22.5,41.9004 23.7,41.9004 24.5,41.1004 Z M22.6001,30.8 C14.2001,30.6 7.5001,23.8 7.4001,15.4 C7.4001,6.9 14.3001,-2.13162821e-14 22.8001,-2.13162821e-14 C30.2001,-2.13162821e-14 36.4001,5.3 37.9001,12.2 C38.1001,13.2 38.2001,14.2 38.2001,15.3 L38.2001,15.4 C38.2001,19.7 36.3001,23.7 33.4001,26.5 C32.8001,27.1 32.2001,27.6 31.5001,28.1 C31.2001,28.4 30.8001,28.6 30.4001,28.8 C29.6001,29.2 28.8001,29.6 27.9001,29.9 C26.9001,30.3 25.8001,30.6 24.7001,30.7 L22.6001,30.8 Z M10.6001,15.2 C10.6001,15.3 10.6001,15.3 10.7001,15.3 C10.7001,21.4 15.1001,26.4 20.9001,27.4 C21.6001,27.5 22.3001,27.6 23.0001,27.6 C23.3001,27.6 23.7001,27.5 24.0001,27.5 C25.9001,27.3 27.6001,26.8 29.1001,25.9 C29.8001,25.5 30.4001,25.1 31.0001,24.6 L31.1001,24.5 C32.3001,23.5 33.3001,22.2 34.0001,20.7 L35.1001,17.4 C35.2001,16.8 35.3001,16.1 35.3001,15.4 L35.3001,15.2 C34.7001,17.2 33.1001,18.8 31.3001,19.1 C31.0001,19.2 30.8001,19.2 30.6001,19.2 L26.5001,19.2 C25.8001,19.2 25.2001,18.9 24.7001,18.4 C24.4001,18.2 23.8001,17.9 22.9001,17.9 C22.0001,17.9 21.3001,18.1 21.1001,18.4 C20.7001,18.9 20.0001,19.2 19.3001,19.2 L15.2001,19.2 C13.1001,19.2 11.3001,17.5 10.6001,15.2 Z M19.8001,14.2 C20.0001,13.5 19.0001,12.7 17.5001,12.4 C16.2001,12.1 14.9001,12.4 14.8001,13.1 C14.7001,13.8 15.7001,14.6 17.1001,14.9 C18.4001,15.2 19.7001,14.9 19.8001,14.2 Z M31.2001,13 C31.0001,12.3 29.8001,12 28.5001,12.3 C27.1001,12.6 26.1001,13.4 26.2001,14.1 C26.3001,14.8 27.5001,15.1 28.9001,14.8 C30.3001,14.5 31.3001,13.7 31.2001,13 Z M22.9001,3.1 C18.6001,3.1 14.7001,5.4 12.5001,8.8 L13.2001,8.8 L32.6001,8.8 L33.3001,8.8 C31.1001,5.4 27.3001,3.1 22.9001,3.1 Z" id="Icon_Vehicle_Theft"></path>
                </g>
            </g>
        </g>
    </g>
</svg>