<?xml version="1.0" encoding="UTF-8"?>
<svg width="96px" height="96px" viewBox="0 0 96 96" version="1.1" xmlns="http://www.w3.org/2000/svg" xmlns:xlink="http://www.w3.org/1999/xlink">
    <!-- Generator: Sketch 52.5 (67469) - http://www.bohemiancoding.com/sketch -->
    <title>Group 19</title>
    <desc>Created with Sketch.</desc>
    <g id="DSK-Siniestros" stroke="none" stroke-width="1" fill="none" fill-rule="evenodd">
        <g id="Siniestros" transform="translate(-247.000000, -998.000000)" fill-rule="nonzero">
            <g id="Group-19" transform="translate(247.000000, 998.000000)">
                <circle id="Oval-3-Copy-8" fill="#F0FBFC" cx="48" cy="48" r="48"></circle>
                <g id="Icons/Products/Flood" transform="translate(17.000000, 16.000000)" fill="#1A1446">
                    <path d="M11.7524239,55.6520812 C5.45988657,55.5593275 0.925558209,50.9216464 0.647946269,50.7361391 L2.77630448,48.6955594 C2.86884179,48.6955594 6.75540896,52.6839652 11.8449612,52.6839652 L11.9374985,52.6839652 L12.0300358,24.1158493 L7.95839403,28.1970087 L5.55242388,25.7854145 L30.2598866,1.20570435 C30.9076478,0.556428986 32.0171701,0.556428986 32.6658567,1.20570435 L46.916603,15.6752696 L46.916603,8.25497971 L42.1962746,8.25497971 L42.1962746,4.91584928 L48.5822746,4.91584928 C49.5076478,4.91584928 50.2479463,5.65787826 50.2479463,6.58541449 L50.2479463,19.1071536 L57.0957075,26.0636754 L54.6888119,28.4752696 L50.2479463,23.930342 L50.2479463,52.6839652 C50.6180955,52.7767188 50.8957075,52.7767188 51.2658567,52.7767188 C54.3195881,52.7767188 57.1882448,51.3854145 59.8718269,48.6955594 L61.9076478,50.7361391 C58.6688418,53.9825159 55.0598866,55.6520812 51.2658567,55.6520812 L51.1733194,55.6520812 C46.5464537,55.5593275 42.9374985,53.0549797 41.1792896,51.6636754 C38.2180955,54.3535304 34.8867522,55.6520812 31.4628716,55.6520812 C26.836006,55.5593275 23.2270507,53.0549797 21.4688418,51.6636754 C18.5076478,54.3535304 15.1763045,55.6520812 11.7524239,55.6520812 Z M15.4539164,20.7767188 L15.3613791,52.0346899 C17.2121254,51.3854145 18.877797,50.272371 20.5434687,48.6028058 L21.5613791,47.5825159 L22.5792896,48.6955594 C22.6718269,48.6955594 26.558394,52.6839652 31.6479463,52.6839652 L31.7404836,52.6839652 C32.2031701,52.6839652 32.6658567,52.6839652 33.1285433,52.5912116 L33.036006,42.6665739 L28.2240657,42.6665739 L28.2240657,39.3274435 L34.7016776,39.3274435 C35.6270507,39.3274435 36.3673493,40.0694725 36.3673493,40.9970087 L36.4598866,51.4781681 C37.755409,50.8288928 39.0509313,49.8086029 40.2539164,48.6028058 L41.2709015,47.5825159 L42.2897373,48.6955594 C42.2897373,48.6955594 44.1404836,50.5506319 46.916603,51.756429 L46.916603,20.4057043 L31.4628716,4.82309565 L15.4539164,20.7767188 Z M51.2660418,60.7536232 C54.3197731,60.7536232 57.1875045,59.3623188 59.8720119,56.7652174 L61.9078328,58.8057971 C58.6690269,62.0521739 55.0600716,63.7217391 51.2660418,63.7217391 L51.1725791,63.7217391 C46.5457134,63.6289855 42.9376836,61.1246377 41.1794746,59.7333333 C38.2173552,62.4231884 34.8869373,63.7217391 31.4630567,63.7217391 C26.836191,63.6289855 23.2272358,61.1246377 21.4690269,59.7333333 C18.5078328,62.4231884 15.1764896,63.7217391 11.752609,63.7217391 C5.36660896,63.6289855 0.83320597,58.9913043 0.648131343,58.8057971 L2.77648955,56.7652174 C2.86902687,56.7652174 6.75466866,60.7536232 11.8442209,60.7536232 C14.8063403,60.7536232 17.7675343,59.3623188 20.4511164,56.6724638 L21.4690269,55.6521739 L22.5794746,56.7652174 C22.6720119,56.7652174 26.5585791,60.7536232 31.6481313,60.7536232 L31.7397433,60.7536232 C34.7018627,60.7536232 37.569594,59.3623188 40.2541015,56.6724638 L41.2710866,55.6521739 L42.1964597,56.7652174 C42.2899224,56.7652174 46.1764896,60.7536232 51.2660418,60.7536232 Z M22.1628716,31.4248348 L22.1841552,25.8596174 L25.5154985,25.8726029 L25.4942149,31.4378203 L22.1628716,31.4248348 Z M38.5340179,31.4501565 L38.5553015,25.8849391 L41.8866448,25.8979246 L41.8653612,31.463142 L38.5340179,31.4501565 Z" id="Icon_Flood"></path>
                </g>
            </g>
        </g>
    </g>
</svg>