<?xml version="1.0" encoding="UTF-8"?>
<svg width="51px" height="61px" viewBox="0 0 51 61" version="1.1" xmlns="http://www.w3.org/2000/svg" xmlns:xlink="http://www.w3.org/1999/xlink">
    <!-- Generator: Sketch 52.5 (67469) - http://www.bohemiancoding.com/sketch -->
    <title>Icon_Fire</title>
    <desc>Created with Sketch.</desc>
    <g id="DSK-Siniestros" stroke="none" stroke-width="1" fill="none" fill-rule="evenodd">
        <g id="Siniestros" transform="translate(-270.000000, -830.000000)" fill="#1A1446" fill-rule="nonzero">
            <g id="Group-14" transform="translate(247.000000, 812.000000)">
                <path d="M67.5484515,43.8241436 C72.3484515,49.9241436 74.0484515,56.2231436 72.8484515,62.8241436 C71.5484515,70.8241436 63.5484515,77.8241436 55.5484515,78.0241436 L55.4474515,78.0241436 L54.5484515,74.5241436 C54.7474515,74.5241436 54.9474515,74.4241436 55.2474515,74.4241436 C59.8484515,74.0241436 63.7474515,71.8241436 66.4474515,68.2231436 C69.0484515,64.6241436 70.0484515,60.1241436 69.1484515,55.6241436 C68.0484515,50.6241436 65.2474515,46.7241436 62.6484515,43.6241436 C62.2474515,43.2241436 61.8484515,42.7241436 61.4474515,42.2241436 C57.0484515,37.0241436 52.4474515,31.6241436 50.6484515,24.4241436 L50.4474515,23.8241436 L49.9474515,24.2241436 C49.5484515,24.5241436 49.1484515,24.7241436 48.8484515,25.0241436 L48.7484515,25.1241436 C47.9474515,25.7241436 47.1484515,26.3241436 46.4474515,26.9241436 C39.1484515,32.8241436 34.3484515,38.0241436 30.8484515,43.8241436 C27.1484515,50.0241436 25.9474515,55.1241436 26.9474515,60.4241436 C28.2484515,67.1241436 31.4474515,71.7231436 36.7484515,74.5241436 C36.9474515,74.5241436 37.0484515,74.6241436 37.1484515,74.7231436 L36.2484515,78.2231436 C35.9474515,78.1241436 35.5484515,78.1241436 35.2484515,77.9241436 C32.8484515,76.8241436 30.7484515,75.2231436 29.1484515,73.3241436 C23.2484515,66.3241436 21.5484515,58.2231436 24.2484515,49.3241436 C25.9474515,43.6241436 29.3484515,38.3241436 34.7484515,32.4241436 C38.8484515,27.9241436 44.5484515,23.2241436 51.0484515,18.8241436 C52.0484515,18.1241436 52.6484515,17.9241436 52.8484515,18.0241436 C52.9474515,18.1241436 53.2474515,18.4241436 53.3484515,19.6241436 C53.9474515,24.3241436 56.0484515,29.5241436 58.9474515,33.1241436 C60.2474515,34.8241436 61.6484515,36.5241436 62.9474515,38.1241436 C64.4474515,39.9241436 66.0484515,41.9241436 67.5484515,43.8241436 Z M54.6480515,69.0243436 L53.8480515,65.5243436 C53.9480515,65.4233436 53.9480515,65.3243436 54.0480515,65.3243436 C57.8480515,63.0243436 58.6480515,59.4233436 56.1480515,55.2233436 L55.9480515,54.9233436 L55.6480515,55.1243436 C55.1480515,55.3243436 54.6480515,55.6243436 54.2480515,55.8243436 C53.3480515,56.3243436 52.4480515,56.8243436 51.4480515,57.0243436 C48.3480515,57.5243436 45.9480515,55.7233436 45.2480515,52.2233436 C44.9480515,50.6243436 44.8480515,48.9233436 44.7480515,47.2243436 C44.6480515,46.5243436 44.6480515,45.7243436 44.5480515,44.9233436 L44.4480515,43.9233436 L43.5480515,45.0243436 C43.3480515,45.3243436 43.0480515,45.6243436 42.8480515,45.9233436 C39.5480515,50.2243436 38.3480515,54.2233436 39.1480515,58.5243436 C39.5480515,60.4233436 40.2480515,62.3243436 41.4480515,64.3243436 L40.2480515,68.8243436 C39.8480515,68.6243436 39.5480515,68.4233436 39.3480515,68.1243436 C35.5480515,62.8243436 34.3480515,57.2233436 35.7480515,51.5243436 C37.2480515,45.6243436 42.4480515,40.5243436 46.8480515,36.6243436 L47.0480515,36.4233436 C47.5480515,36.0243436 48.0480515,35.5243436 48.2480515,35.6243436 C48.6480515,35.8243436 48.6480515,35.8243436 48.4480515,36.5243436 C48.3480515,36.7243436 48.3480515,37.0243436 48.2480515,37.3243436 C47.4480515,41.5243436 47.4480515,42.8243436 47.4480515,45.3243436 L47.4480515,45.5243436 C47.4480515,47.7243436 48.3480515,51.7233436 49.9480515,53.5243436 L50.1480515,53.7233436 L50.4480515,53.5243436 C52.2480515,52.7233436 53.6480515,51.0243436 55.3480515,48.7243436 C55.5480515,48.5243436 56.0480515,47.7243436 56.2480515,47.7243436 C56.3480515,47.7243436 56.8480515,48.4233436 57.1480515,48.9233436 C58.3480515,50.8243436 59.9480515,53.4233436 60.5480515,55.1243436 C62.5480515,60.5243436 60.6480515,65.8243436 55.8480515,68.6243436 C55.4480515,68.9233436 55.0480515,69.0243436 54.6480515,69.0243436 Z" id="Icon_Fire"></path>
            </g>
        </g>
    </g>
</svg>