<?xml version="1.0" encoding="UTF-8"?>
<svg width="63px" height="64px" viewBox="0 0 63 64" version="1.1" xmlns="http://www.w3.org/2000/svg" xmlns:xlink="http://www.w3.org/1999/xlink">
    <!-- Generator: Sketch 52.5 (67469) - http://www.bohemiancoding.com/sketch -->
    <title>Icon_Collision</title>
    <desc>Created with Sketch.</desc>
    <g id="DSK-Siniestros" stroke="none" stroke-width="1" fill="none" fill-rule="evenodd">
        <g id="Siniestros" transform="translate(-782.000000, -825.000000)" fill="#1A1446" fill-rule="nonzero">
            <g id="Group-17" transform="translate(765.000000, 812.000000)">
                <path d="M48.4996,13 C49.3996,13 50.1006,13.7 50.1006,14.6 L50.1006,41.4 C50.1006,42.3 49.3996,43 48.4996,43 C47.5996,43 46.8996,42.3 46.8996,41.4 L46.8996,14.6 C46.8996,13.7 47.5996,13 48.4996,13 Z M41.0997,38.2998 L34.6997,24.4998 C34.3997,23.6998 34.6997,22.7998 35.4997,22.3998 C36.2997,22.0998 37.1997,22.3998 37.5997,23.1998 L43.9997,36.9998 C44.2997,37.7998 43.9997,38.6998 43.1997,39.0998 C42.9997,39.1998 42.6997,39.1998 42.4997,39.1998 C41.8997,39.1998 41.3997,38.8998 41.0997,38.2998 Z M53.6002,39.0996 C52.7992,38.6996 52.4992,37.7996 52.7992,36.9996 L59.2002,23.1996 C59.6002,22.3996 60.4992,21.9996 61.2992,22.3996 C62.1002,22.7996 62.4992,23.6996 62.1002,24.4996 L55.7002,38.2996 C55.4992,38.8996 54.9002,39.1996 54.2992,39.1996 C53.9992,39.1996 53.7992,39.1996 53.6002,39.0996 Z M66.7994,38.9998 C65.9004,38.9998 65.1004,39.4998 64.4004,40.2998 L61.1994,48.1998 L78.1994,49.3998 L77.9994,52.5998 L59.4994,51.2998 L56.1004,53.8998 L55.9004,54.0998 L62.2994,54.5998 C63.2994,54.6998 64.1994,55.1998 64.7994,55.9998 C65.2994,56.7998 65.4994,57.7998 65.1994,58.7998 L65.1994,58.8998 L64.1994,61.3998 C63.7994,62.4998 62.7994,63.2998 61.6004,63.2998 L61.4004,63.2998 L54.9994,62.7998 L54.6994,66.3998 L54.2994,72.5998 L59.7994,72.9998 L59.9004,71.2998 L63.1004,71.4998 L62.9994,73.4998 C62.9994,74.2998 62.6004,74.9998 61.9994,75.4998 C61.4994,75.8998 60.7994,76.1998 60.1004,76.1998 L59.9004,76.1998 L53.9004,75.7998 C53.1004,75.7998 52.4004,75.3998 51.9004,74.7998 C51.4004,74.1998 51.1004,73.3998 51.1994,72.5998 L51.6004,66.1998 L51.6994,65.1998 L51.7994,64.2998 L52.4994,54.7998 C52.6004,53.3998 53.2994,52.0998 54.4004,51.2998 L57.9994,48.5998 L61.7994,39.0998 C62.6994,36.9998 64.7994,35.5998 67.1004,35.7998 L79.4004,36.6998 L79.1994,39.8998 L66.7994,38.9998 Z M62.2994,57.7998 L55.4994,57.2998 L55.2994,59.6998 L61.4994,60.0998 L62.4004,57.8998 L62.2994,57.7998 Z M57.1041,69.6504 L57.3301,66.4584 L77.1801,67.8624 L76.9541,71.0544 L57.1041,69.6504 Z M43.9,54.8996 L44.6,64.2996 L44.9,72.4996 C45,73.2996 44.7,74.0996 44.2,74.7006 C43.7,75.2996 43,75.5996 42.2,75.7006 L36.2,76.0996 L36,76.0996 C35.3,76.0996 34.6,75.8996 34.1,75.3996 C33.5,74.8996 33.2,74.2006 33.1,73.3996 L33,71.3996 L36.2,71.2006 L36.3,72.8996 L41.8,72.4996 L41.4,66.2996 L41.3,64.7996 L41.3,64.3996 L41.2,62.7996 L34.8,63.2996 L34.6,63.2996 C33.4,63.2996 32.4,62.4996 32,61.3996 L31,58.8996 L31,58.7996 C30.7,57.8996 30.8,56.7996 31.4,55.9996 C32,55.2006 32.9,54.7006 33.9,54.5996 L40.3,54.0996 C40.2,53.9996 40.2,53.9996 40.1,53.8996 L36.7,51.2996 L18,52.7006 L17.8,49.4996 L34.8,48.2996 L31.6,40.3996 C31.3,39.5996 30.4,38.9996 29.5,39.0996 L17.2,39.9996 L17,36.7996 L29.3,35.8996 C31.6,35.6996 33.7,37.0996 34.6,39.1996 L38.4,48.6996 L42,51.3996 C43.1,52.2996 43.8,53.4996 43.9,54.8996 Z M34.9,60.0996 L41.1,59.7006 L40.9,57.2996 L34,57.7996 L34.9,60.0996 Z M19.2125,67.9033 L39.0635,66.4993 L39.2885,69.6913 L19.4385,71.0953 L19.2125,67.9033 Z" id="Icon_Collision"></path>
            </g>
        </g>
    </g>
</svg>