<?xml version="1.0" encoding="UTF-8"?>
<svg width="44px" height="60px" viewBox="0 0 44 60" version="1.1" xmlns="http://www.w3.org/2000/svg" xmlns:xlink="http://www.w3.org/1999/xlink">
    <!-- Generator: Sketch 52.5 (67469) - http://www.bohemiancoding.com/sketch -->
    <title>icon</title>
    <desc>Created with Sketch.</desc>
    <defs>
        <path d="M22.4023382,7.54595532 L25.0207944,7.54595532 C25.8439082,7.54595532 26.5119425,6.87792094 26.5119425,6.05480715 C26.5119425,4.36086283 27.8867812,2.98229634 29.5784888,2.98229634 C31.2716875,2.98229634 32.6495084,4.36086283 32.6495084,6.05480715 C32.6495084,6.87792094 33.3175428,7.54595532 34.1406566,7.54595532 L36.7561305,7.54595532 L36.7561305,11.6302102 L22.4023382,11.6302102 L22.4023382,7.54595532 Z M20.91119,14.6125065 C20.0880762,14.6125065 19.4200418,13.9444721 19.4200418,13.1213583 L19.4200418,6.05480715 C19.4200418,5.23169336 20.0880762,4.56365898 20.91119,4.56365898 L23.7152941,4.56365898 C24.3803462,1.94371164 26.7572364,0 29.5784888,0 C32.4019778,0 34.7811047,1.94371164 35.4461568,4.56365898 L38.2472787,4.56365898 C39.0703924,4.56365898 39.7384268,5.23169336 39.7384268,6.05480715 L39.7384268,13.1213583 C39.7384268,13.9444721 39.0703924,14.6125065 38.2472787,14.6125065 L20.91119,14.6125065 Z M50.1095115,7.29909574 C50.9326253,7.29909574 51.6006596,7.96713012 51.6006596,8.79024391 L51.6006596,58.5088518 C51.6006596,59.3327112 50.9326253,60 50.1095115,60 L9.74114817,60 C8.91803438,60 8.25,59.3327112 8.25,58.5088518 L8.25,8.79024391 C8.25,7.96713012 8.91803438,7.29909574 9.74114817,7.29909574 L16.2619391,7.29909574 L16.2619391,10.2813921 L11.2322963,10.2813921 L11.2322963,57.0177037 L48.6183633,57.0177037 L48.6183633,10.2813921 L43.3292607,10.2813921 L43.3292607,7.29909574 L50.1095115,7.29909574 Z M27.354143,37.8155922 L37.3850968,24.9782976 L39.7351463,26.8146466 L28.667099,40.9798086 C28.4039113,41.3160625 28.0087571,41.5240777 27.5830343,41.5501728 C27.5524657,41.5524095 27.5218972,41.5531551 27.4920742,41.5531551 C27.09692,41.5531551 26.7174228,41.3965845 26.4378325,41.1162487 L20.2413663,34.9197824 L22.3498498,32.8112989 L27.354143,37.8155922 Z" id="path-1"></path>
    </defs>
    <g id="DSK-Siniestros" stroke="none" stroke-width="1" fill="none" fill-rule="evenodd">
        <g id="Siniestros" transform="translate(-1047.000000, -828.000000)">
            <g id="Group-18" transform="translate(1021.000000, 812.000000)">
                <g id="Elements-/-Icon-/-Liberty-/-Clipboard" transform="translate(18.000000, 16.000000)">
                    <mask id="mask-2" fill="white">
                        <use xlink:href="#path-1"></use>
                    </mask>
                    <use id="Mask" fill="#171343" fill-rule="evenodd" xlink:href="#path-1"></use>
                    <g id="Elements-/-Color-/-Secundario-/-Blue-1" mask="url(#mask-2)" fill="#1A1446" fill-rule="evenodd">
                        <rect id="Rectangle" x="0" y="0" width="60" height="60"></rect>
                    </g>
                </g>
            </g>
        </g>
    </g>
</svg>