<?xml version="1.0" standalone="no"?>
<!DOCTYPE svg PUBLIC "-//W3C//DTD SVG 20010904//EN"
 "http://www.w3.org/TR/2001/REC-SVG-20010904/DTD/svg10.dtd">
<svg version="1.0" xmlns="http://www.w3.org/2000/svg"
 width="112.000000pt" height="106.000000pt" viewBox="0 0 112.000000 106.000000"
 preserveAspectRatio="xMidYMid meet">

<g transform="translate(0.000000,106.000000) scale(0.100000,-0.100000)"
fill="#000000" stroke="none">
<path d="M567 993 c-4 -3 -7 -18 -7 -33 0 -24 -4 -27 -71 -38 -141 -24 -255
-104 -308 -215 -37 -77 -50 -147 -28 -147 9 0 18 8 22 18 17 57 175 53 175 -4
0 -21 28 -17 35 4 12 40 110 57 153 26 20 -14 22 -23 22 -108 0 -73 -3 -95
-15 -99 -10 -5 -15 -27 -17 -84 -3 -65 -6 -78 -20 -81 -12 -2 -18 3 -18 15 0
27 -20 43 -52 43 -57 0 -62 -88 -8 -134 40 -33 80 -40 124 -22 57 24 76 65 76
169 0 80 -2 89 -20 94 -18 5 -20 14 -20 93 0 84 1 90 26 109 47 37 154 20 154
-25 0 -23 20 -16 50 16 23 24 36 30 72 30 46 0 88 -22 88 -46 0 -14 21 -19 32
-8 9 9 -17 105 -41 152 -52 102 -170 180 -307 205 -67 13 -69 14 -72 45 -3 31
-11 39 -25 25z m-5 -130 c4 -39 28 -42 28 -4 0 43 29 41 79 -4 40 -36 73 -101
90 -173 l9 -42 -27 7 c-34 10 -78 9 -118 -1 l-33 -8 0 41 c0 30 -4 41 -15 41
-11 0 -15 -12 -15 -44 l0 -44 -42 15 c-32 11 -52 12 -82 4 -22 -5 -42 -8 -45
-6 -6 7 20 96 42 140 24 49 82 105 107 105 13 0 20 -8 22 -27z m-132 -15 c-31
-48 -58 -112 -65 -155 -11 -64 -10 -63 -56 -46 -32 11 -53 12 -81 5 -37 -10
-38 -9 -32 11 20 68 105 154 187 193 68 31 73 30 47 -8z m345 7 c74 -31 157
-116 184 -188 10 -25 9 -25 -22 -16 -32 9 -88 3 -119 -12 -13 -7 -17 -2 -23
34 -10 61 -39 133 -71 174 l-27 35 24 -7 c13 -4 38 -13 54 -20z m-177 -569
c-3 -62 -7 -79 -27 -100 -47 -50 -135 -23 -143 43 -4 36 21 37 33 2 14 -39 51
-51 79 -26 16 15 20 31 20 87 0 63 2 68 21 68 20 0 21 -4 17 -74z"/>
<path d="M562 778 c6 -18 28 -21 28 -4 0 9 -7 16 -16 16 -9 0 -14 -5 -12 -12z"/>
</g>
</svg>
