<?xml version="1.0" encoding="utf-8"?>
<!-- Generator: Adobe Illustrator 22.1.0, SVG Export Plug-In . SVG Version: 6.00 Build 0)  -->
<svg version="1.1" id="Capa_1" xmlns="http://www.w3.org/2000/svg" xmlns:xlink="http://www.w3.org/1999/xlink" x="0px" y="0px"
	 viewBox="0 0 30 30" style="enable-background:new 0 0 30 30;" xml:space="preserve">
<style type="text/css">
	.st0{fill:#FFD000;}
</style>
<g>
	<g>
		<path id="a_1_" class="st0" d="M29.9,11.8c-0.3-1.1-1.3-1.8-2.5-1.9l-7.1-0.5l-2.6-6.6C17.1,1.7,16.1,1,15,1
			c-1.1,0-2.1,0.7-2.6,1.8L9.8,9.5L2.7,9.9c-1.2,0.1-2.2,0.8-2.5,1.9c-0.3,1.1,0,2.2,1,3l5.5,4.6l-1.7,6.9c-0.3,1.2,0.1,2.3,1,3
			c0.4,0.3,1,0.5,1.6,0.5c0.6,0,1.1-0.2,1.6-0.5l6-3.8l6,3.8c0.5,0.3,1,0.5,1.6,0.5c0.6,0,1.1-0.2,1.5-0.5c0.9-0.7,1.3-1.8,1-3
			l-1.7-6.9l5.5-4.6C29.9,14,30.2,12.9,29.9,11.8"/>
	</g>
</g>
</svg>
