<svg xmlns="http://www.w3.org/2000/svg" xmlns:xlink="http://www.w3.org/1999/xlink" width="30" height="30" viewBox="0 0 30 30">
    <defs>
        <path id="a" d="M29.87 11.806c.35 1.077-.019 2.229-.964 3.007l-5.473 4.565 1.747 6.915c.3 1.164-.088 2.339-.99 2.995a2.62 2.62 0 0 1-1.55.499 3.011 3.011 0 0 1-1.609-.484l-6.033-3.797-6.038 3.799a2.992 2.992 0 0 1-1.604.482c-.563 0-1.1-.172-1.549-.499-.917-.666-1.296-1.815-.99-3l1.745-6.91-5.478-4.568c-.926-.765-1.303-1.944-.958-3.005.35-1.077 1.325-1.793 2.547-1.867l7.112-.476 2.652-6.623C12.878 1.722 13.883 1 14.998 1c1.132 0 2.113.707 2.562 1.844l2.651 6.618 7.117.476c1.2.073 2.197.806 2.541 1.868zm-2.749 1.406c.237-.195.34-.435.271-.642-.066-.207-.288-.342-.59-.36h-.008l-7.55-.505a1.05 1.05 0 0 1-.906-.658l-2.81-7.02-.003-.006c-.113-.286-.31-.456-.527-.456-.218 0-.414.168-.525.451l-.002.007-2.815 7.024a1.05 1.05 0 0 1-.904.658l-7.545.505H3.2c-.308.018-.53.152-.597.359-.068.208.033.447.267.64l.005.004 5.812 4.847c.31.258.445.673.346 1.063l-1.852 7.332v.007c-.08.298-.02.552.156.679.177.129.44.103.69-.057l.006-.004 6.405-4.029a1.051 1.051 0 0 1 1.12 0l6.4 4.027.005.004c.254.161.518.188.696.059.175-.127.235-.379.158-.674v-.006l-1.854-7.338c-.1-.39.035-.805.346-1.062l5.806-4.844.006-.005z"/>
    </defs>
    <g fill="none" fill-rule="evenodd">
        <mask id="b" fill="#fff">
            <use xlink:href="#a"/>
        </mask>
        <use fill="#1A1446" xlink:href="#a"/>
        <g fill="#C0BFC0" mask="url(#b)">
            <path d="M0 0h30v30H0z"/>
        </g>
    </g>
</svg>
