<?xml version="1.0" encoding="UTF-8"?>
<svg width="38px" height="38px" viewBox="0 0 38 38" version="1.1" xmlns="http://www.w3.org/2000/svg" xmlns:xlink="http://www.w3.org/1999/xlink">
    <!-- Generator: Sketch 52.5 (67469) - http://www.bohemiancoding.com/sketch -->
    <title>Elements / Icon / Liberty / Stethoscope 2</title>
    <desc>Created with Sketch.</desc>
    <defs>
        <path d="M13.299905,28.59538 C15.46543,29.03713 17.099905,30.95613 17.099905,33.249905 C17.099905,35.869055 14.969055,37.999905 12.349905,37.999905 C9.730755,37.999905 7.599905,35.869055 7.599905,33.249905 C7.599905,30.95613 9.23438,29.03713 11.399905,28.59538 L11.399905,20.899905 L13.299905,20.899905 L13.299905,28.59538 Z M12.349905,36.099905 C13.92168,36.099905 15.199905,34.82168 15.199905,33.249905 C15.199905,31.67813 13.92168,30.399905 12.349905,30.399905 C10.77813,30.399905 9.499905,31.67813 9.499905,33.249905 C9.499905,34.82168 10.77813,36.099905 12.349905,36.099905 Z M28.495725,7.5962 C33.74305,7.5962 37.9962,11.84935 37.9962,17.0962 C37.9962,22.34305 33.74305,26.5962 28.495725,26.5962 C23.248875,26.5962 18.9962,22.34305 18.9962,17.0962 C18.9962,17.08005 18.9981,17.065325 18.9981,17.049175 C17.0772,18.2818 14.796725,19 12.35,19 C5.539925,19 0,13.4596 0,6.65 L0,0.95 C0,0.425125 0.425125,-4.26325641e-14 0.95,-4.26325641e-14 L5.7,-4.26325641e-14 L5.7,1.9 L1.9,1.9 L1.9,6.65 C1.9,12.412225 6.587775,17.1 12.35,17.1 C15.065575,17.1 17.54175,16.058325 19.40185,14.3545 C19.924825,12.61695 20.9342,11.0941 22.26895,9.932725 C22.611425,8.8996 22.8,7.79665 22.8,6.65 L22.8,1.9 L19,1.9 L19,-4.26325641e-14 L23.75,-4.26325641e-14 C24.2744,-4.26325641e-14 24.7,0.425125 24.7,0.95 L24.7,6.65 C24.7,7.26275 24.65345,7.864575 24.567,8.45405 C25.765425,7.9078 27.09305,7.5962 28.495725,7.5962 Z M34.2,18.0481 L34.2,16.1481 L29.45,16.147625 L29.45,11.4 L27.55,11.4 L27.55,16.14715 L22.8,16.1462 L22.8,18.0462 L27.55,18.04715 L27.55,22.8 L29.45,22.8 L29.45,18.047625 L34.2,18.0481 Z" id="path-1"></path>
    </defs>
    <g id="DSK-Red-médica" stroke="none" stroke-width="1" fill="none" fill-rule="evenodd">
        <g id="Red-médica-Copy-2" transform="translate(-281.000000, -1237.000000)">
            <g id="Group-13" transform="translate(182.000000, 1132.000000)">
                <g id="info-copy-10" transform="translate(85.000000, 89.000000)">
                    <g id="Group-5">
                        <g id="Elements-/-Icon-/-Liberty-/-Stethoscope-3" transform="translate(14.000000, 16.000000)">
                            <mask id="mask-2" fill="white">
                                <use xlink:href="#path-1"></use>
                            </mask>
                            <use id="Mask" fill="#1A1446" fill-rule="evenodd" xlink:href="#path-1"></use>
                            <g id="Elements-/-Color-/-Secundario-/-Blue-1" mask="url(#mask-2)" fill="#1A1446" fill-rule="evenodd">
                                <rect id="Rectangle" x="0" y="0" width="38" height="38"></rect>
                            </g>
                        </g>
                    </g>
                </g>
            </g>
        </g>
    </g>
</svg>