<?xml version="1.0" encoding="UTF-8"?>
<svg width="56px" height="56px" viewBox="0 0 56 56" version="1.1" xmlns="http://www.w3.org/2000/svg" xmlns:xlink="http://www.w3.org/1999/xlink">
    <!-- Generator: Sketch 61 (89581) - https://sketch.com -->
    <title>Group 2 Copy 5</title>
    <desc>Created with Sketch.</desc>
    <defs>
        <path d="M23.7293358,15.6455454 C25.4119166,15.5988071 26.9806258,16.4970333 27.810869,17.9756649 C27.951084,18.2246529 27.9502342,18.5339758 27.8091694,18.7838136 C27.6672547,19.0336513 27.4021208,19.1934115 27.1157421,19.2010596 L27.1157421,19.2010596 L24.583373,19.259695 L24.6267122,21.1147829 L27.1624805,21.0561475 C27.4420608,21.0476496 27.7199416,21.194663 27.8729035,21.4360028 C28.0258654,21.6764929 28.0420114,21.9849661 27.9145431,22.2407524 C27.1556822,23.7584742 25.6337113,24.7263831 23.9426326,24.7654734 C22.363726,24.8088126 20.9258842,24.0533508 20.0531516,22.748076 L20.0531516,22.748076 L8.04649284,22.7336296 C7.23409523,24.0601491 5.83364412,24.8682978 4.27003366,24.9048387 L4.27003366,24.9048387 L4.16296034,24.9065382 L3.93880705,24.901035 C2.38173385,24.8242176 0.95991513,23.9480157 0.188500493,22.5747192 C0.0482854251,22.3248814 0.0499850017,22.0147087 0.191899647,21.7657207 C0.333814292,21.5158829 0.600647816,21.3561227 0.88702647,21.3493244 L0.88702647,21.3493244 L3.41599643,21.290689 L3.37265723,19.4356012 L0.836888961,19.4942366 C0.534364329,19.4882881 0.272629534,19.3455236 0.126465948,19.1135314 C-0.0256461564,18.8721916 -0.0417921339,18.5645682 0.0848263217,18.3104815 C0.843687267,16.7919098 2.3656581,15.8248507 4.05758659,15.7857605 C5.63054472,15.7347732 7.07518482,16.4995826 7.94706761,17.8023081 L7.94706761,17.8023081 L19.9537264,17.8167545 C20.7652742,16.4910848 22.1657253,15.6820863 23.7293358,15.6455454 Z M23.7667265,17.1828124 C22.6178127,17.2100057 21.5989165,17.8736903 21.1051895,18.9163806 C20.9785711,19.1832141 20.7066388,19.3557211 20.4109125,19.3557211 L20.4109125,19.3557211 L7.51027643,19.3404249 C7.22559735,19.3395751 6.96641192,19.1832141 6.83214537,18.9316767 C6.28998044,17.9119308 5.23879232,17.3026326 4.0932777,17.3230275 C3.46528415,17.3374739 2.8593851,17.549921 2.36140916,17.9204287 L2.36140916,17.9204287 L4.10602452,17.8796388 C4.30997371,17.8736903 4.50287566,17.9450725 4.65073882,18.0844378 C4.80200114,18.2263525 4.88867954,18.4201042 4.89292848,18.6308517 L4.89292848,18.6308517 L4.97195879,22.0232066 C4.97705752,22.2297051 4.90142637,22.4243066 4.75951172,22.5730196 C4.61759708,22.7217325 4.42639471,22.8058616 4.22074594,22.8101105 L4.22074594,22.8101105 L2.47613058,22.8509003 C2.99110228,23.1993135 3.5995507,23.3760695 4.23349277,23.3675716 C5.38155675,23.3403784 6.40045291,22.6766937 6.89417991,21.6348533 C7.02079837,21.36717 7.29358041,21.194663 7.58930674,21.194663 L7.58930674,21.194663 L20.489093,21.2108089 C20.7746219,21.2108089 21.0346571,21.3680198 21.1672241,21.6187073 C21.7102388,22.6410026 22.7469805,23.2596485 23.905242,23.2273566 C24.5340853,23.2129102 25.1399844,23.0004631 25.6379603,22.6299554 L25.6379603,22.6299554 L23.8933449,22.6707452 C23.6876962,22.6851916 23.4905453,22.6010626 23.3435319,22.4616973 C23.1956687,22.3206325 23.1115397,22.1285803 23.106441,21.9195324 L23.106441,21.9195324 L23.0274107,18.5271775 C23.0223119,18.3215287 23.0979431,18.1260774 23.2407075,17.9773645 C23.3809226,17.8295013 23.5721249,17.7445225 23.7786235,17.7402736 L23.7786235,17.7402736 L25.5240887,17.6994837 C25.0074174,17.3493709 24.3921707,17.168366 23.7667265,17.1828124 Z M19.69862,14.7594712 L19.69862,16.2890901 L7.72595269,16.2890901 L7.72595269,14.7594712 L19.69862,14.7594712 Z M19.3014289,0.259958411 C20.3611149,0.259958411 21.3740626,1.02051893 21.7649652,2.10909774 L21.7649652,2.10909774 L22.7014319,4.74938996 L25.4963856,4.74938996 C26.277341,4.74938996 26.8229051,5.32299706 26.8229051,6.14304276 L26.8229051,6.14304276 L26.8229051,7.58428371 C26.8229051,8.40178005 26.277341,8.97283778 25.4963856,8.97283778 L25.4963856,8.97283778 L25.4793898,8.97283778 C25.7657684,9.36628976 25.9255286,9.87531295 25.9255286,10.4438213 L25.9255286,10.4438213 L25.9255286,14.3341521 L24.4868371,14.3341521 L21.1539674,14.3604956 C20.5302228,14.3604956 19.9957059,13.9457989 19.8376453,13.3483977 L19.8376453,13.3483977 L19.4246482,12.090711 C19.4170001,12.0694663 19.4110516,12.046522 19.4059529,12.0244275 C19.2997293,11.5629925 19.4017039,11.0930596 19.6872328,10.7344489 C19.9897574,10.3545935 20.4588406,10.1370477 20.9738123,10.1370477 L20.9738123,10.1370477 L24.3559697,10.1370477 C24.3177292,9.99003436 24.2556947,9.86681506 24.1664669,9.78863454 L24.1664669,9.78863454 L22.7983077,8.52414956 L4.85587771,8.52414956 L3.36194989,9.82092649 C3.25572636,9.91440321 3.17159732,10.0248757 3.11296192,10.1370477 L3.11296192,10.1370477 L6.56650155,10.1370477 C7.08232304,10.1370477 7.55140618,10.3545935 7.85393081,10.7344489 C8.13860989,11.0930596 8.24143427,11.5638423 8.13521074,12.0244275 C8.12926222,12.0473718 8.1233137,12.0694663 8.11651539,12.0915608 L8.11651539,12.0915608 L7.70266849,13.3483977 C7.54545766,13.9457989 7.01009104,14.3604956 6.38634643,14.3604956 L6.38634643,14.3604956 L1.49921396,14.3341521 L1.49921396,10.4438213 C1.49921396,9.92375088 1.70316315,9.40538002 2.06347338,8.97283778 L2.06347338,8.97283778 L2.03712995,8.97283778 C1.21878382,8.97283778 0.600987731,8.3762864 0.600987731,7.58428371 L0.600987731,7.58428371 L0.600987731,6.14304276 C0.600987731,5.34849071 1.21878382,4.74938996 2.03712995,4.74938996 L2.03712995,4.74938996 L4.83718237,4.74938996 L5.65127956,2.1915272 C6.01328937,1.07065644 7.06617706,0.259958411 8.15645544,0.259958411 L8.15645544,0.259958411 Z M6.56650155,11.6666667 L3.02883288,11.6666667 L3.02883288,12.8308766 L6.26312713,12.8308766 L6.64128292,11.6785637 C6.63193525,11.6743148 6.60559181,11.6666667 6.56650155,11.6666667 L6.56650155,11.6666667 Z M24.3959097,11.6666667 L20.9738123,11.6666667 C20.9389709,11.6666667 20.9143271,11.673465 20.8990309,11.6794135 L20.8990309,11.6794135 L21.2780365,12.8308766 L24.3959097,12.8308766 L24.3959097,11.6666667 Z M4.34940389,6.27900889 L2.13060666,6.27900889 L2.13060666,7.44236906 L3.76729891,7.44321885 L4.06047587,7.18828236 L4.34940389,6.27900889 Z M25.2932862,6.27900889 L23.2444466,6.27900889 L23.547821,7.13389591 L23.8817878,7.44321885 L25.2932862,7.44321885 L25.2932862,6.27900889 Z M19.3014289,1.78957734 L8.15645544,1.78957734 C7.72561278,1.78957734 7.26502752,2.17113228 7.10781669,2.65891076 L7.10781669,2.65891076 L5.7277605,6.99453063 L21.8745879,6.99453063 L20.3237242,2.62321965 C20.1537666,2.14903779 19.7135762,1.78957734 19.3014289,1.78957734 L19.3014289,1.78957734 Z" id="path-1"></path>
    </defs>
    <g id="DSK-Cotizadores" stroke="none" stroke-width="1" fill="none" fill-rule="evenodd">
        <g id="1.-Talleres-Ecuador" transform="translate(-528.000000, -1094.000000)">
            <g id="Group-2-Copy-5" transform="translate(528.000000, 1094.000000)">
                <g id="Group-3">
                    <circle id="Oval-Copy" fill="#FFFFFF" cx="28" cy="28" r="28"></circle>
                    <g id="Group" transform="translate(14.000000, 14.000000)">
                        <path d="M2.58076643,24.8691855 C3.54216038,25.6815218 4.3948266,26.0876899 5.13876508,26.0876899 C6.2546728,26.0876899 8.69590023,24.5664578 8.96555402,24.1089913 C9.14532321,23.8040137 13.3550498,23.8040137 21.5947337,24.1089913 C22.6159758,25.4281237 23.5293338,26.0876899 24.3348078,26.0876899 C25.1402818,26.0876899 26.4019848,25.5141272 28.1199168,24.3670017 L25.4905392,23.7654274 L25.240291,20.6963015 L28.1199168,20.1441693 C28.0573688,19.3668194 27.4668754,18.8590108 26.3484365,18.6207435 C24.6707782,18.2633426 22.5231663,19.5920372 22.05895,20.1441693 C21.7494725,20.5122575 19.0638467,20.6963015 14.0020726,20.6963015 L8.39452246,20.6963015 C7.92451263,19.6741595 7.17022449,19.0726977 6.13165802,18.891916 C5.09309156,18.7111344 3.90946102,19.1285521 2.58076643,20.1441693 L5.13876508,20.6963015 L5.13876508,23.7654274 L2.58076643,24.8691855 Z" id="Path-2" fill="#99E5EA"></path>
                        <g id="Icons/Auto-repair-">
                            <g id="Color/Liberty-Blue" transform="translate(0.000000, 0.906708)">
                                <mask id="mask-2" fill="white">
                                    <use xlink:href="#path-1"></use>
                                </mask>
                                <use id="Mask" fill="#13112B" xlink:href="#path-1"></use>
                                <g mask="url(#mask-2)" fill="#1A1446" id="Rectangle">
                                    <g transform="translate(-44.333333, -46.666667)">
                                        <rect x="0" y="0" width="116.666667" height="116.666667"></rect>
                                    </g>
                                </g>
                            </g>
                        </g>
                    </g>
                </g>
            </g>
        </g>
    </g>
</svg>