<?xml version="1.0" encoding="UTF-8"?>
<svg width="50px" height="45px" viewBox="0 0 50 45" version="1.1" xmlns="http://www.w3.org/2000/svg" xmlns:xlink="http://www.w3.org/1999/xlink">
    <!-- Generator: Sketch 52.5 (67469) - http://www.bohemiancoding.com/sketch -->
    <title>icon</title>
    <desc>Created with Sketch.</desc>
    <defs>
        <path d="M51.29595,3.675 L51.3,30.625 C51.3,30.9502375 51.157575,31.262 50.90445,31.4916875 C50.651325,31.721375 50.30775,31.85 49.95,31.85 L28.35,31.85 L28.35,29.4 L48.6,29.4 L48.59595,4.9 L5.4,4.9 L5.4,42.36785 L19.29555,29.758925 L21.20445,31.4916875 L5.00445,46.1916875 C4.7466,46.4256625 4.401,46.55 4.049325,46.55 C3.87585,46.55 3.70035,46.5199875 3.533625,46.4569 C3.028725,46.2676375 2.7,45.8205125 2.7,45.325 L2.7,3.675 C2.7,2.9988 3.304125,2.45 4.05,2.45 L49.94595,2.45 C50.69115,2.45 51.29595,2.9988 51.29595,3.675 Z M12.1499325,12.2503063 L12.1499325,9.80030625 L22.9499325,9.80030625 L22.9499325,12.2503063 L12.1499325,12.2503063 Z M12.1499325,17.1503063 L12.1499325,14.7003063 L39.1499325,14.7003063 L39.1499325,17.1503063 L12.1499325,17.1503063 Z M12.1499325,22.0503063 L12.1499325,19.6003063 L39.1499325,19.6003063 L39.1499325,22.0503063 L12.1499325,22.0503063 Z" id="path-1"></path>
    </defs>
    <g id="DSK-Siniestros" stroke="none" stroke-width="1" fill="none" fill-rule="evenodd">
        <g id="Siniestros_step2" transform="translate(-405.000000, -684.000000)">
            <g id="Stepper" transform="translate(382.000000, 654.000000)">
                <g id="Group-5" transform="translate(0.000000, 4.000000)">
                    <g id="Elements-/-Icon-/-Liberty-/-Chat-1" transform="translate(21.000000, 24.000000)">
                        <mask id="mask-2" fill="white">
                            <use xlink:href="#path-1"></use>
                        </mask>
                        <use id="Mask" fill="#171343" fill-rule="evenodd" xlink:href="#path-1"></use>
                        <g id="Elements-/-Color-/-Secundario-/-Blue-1" mask="url(#mask-2)" fill="#1A1446" fill-rule="evenodd">
                            <rect id="Rectangle" x="0" y="0" width="54" height="49"></rect>
                        </g>
                    </g>
                </g>
            </g>
        </g>
    </g>
</svg>