<?xml version="1.0" encoding="UTF-8"?>
<svg width="54px" height="47px" viewBox="0 0 54 47" version="1.1" xmlns="http://www.w3.org/2000/svg" xmlns:xlink="http://www.w3.org/1999/xlink">
    <!-- Generator: Sketch 52.5 (67469) - http://www.bohemiancoding.com/sketch -->
    <title>icon copy</title>
    <desc>Created with Sketch.</desc>
    <defs>
        <path d="M52.65,12.25 C53.3952,12.25 54,12.7988 54,13.475 L54,47.775 C54,48.4512 53.3952,49 52.65,49 L1.35,49 C0.6048,49 0,48.4512 0,47.775 L0,13.475 C0,12.7988 0.6048,12.25 1.35,12.25 L25.65,12.25 L25.65,2.45 L28.35,2.45 L28.35,18.045475 L25.65,18.045475 L25.65,14.7 L2.7,14.7 L2.7,46.55 L51.3,46.55 L51.3,14.7 L31.04865,14.7 L31.04865,12.25 L52.65,12.25 Z M28.34865,29.4 L28.34865,26.95 L44.458875,26.95 L44.458875,29.4 L28.34865,29.4 Z M11.9377125,26.3656138 C11.9377125,24.8172138 13.3248375,23.5573013 15.0292125,23.5573013 C16.7356125,23.5573013 18.1247625,24.8172138 18.1247625,26.3656138 C18.1247625,27.9115638 16.7356125,29.1696388 15.0292125,29.1696388 C13.3248375,29.1696388 11.9377125,27.9115638 11.9377125,26.3656138 M20.8247625,26.3656138 C20.8247625,29.2627388 18.2246625,31.6196388 15.0292125,31.6196388 C11.8357875,31.6196388 9.2377125,29.2627388 9.2377125,26.3656138 C9.2377125,23.4660388 11.8357875,21.1073013 15.0292125,21.1073013 C18.2246625,21.1073013 20.8247625,23.4660388 20.8247625,26.3656138 Z M6.801435,39.174275 C6.801435,35.0270375 10.520685,31.6533875 15.09111,31.6533875 C19.664235,31.6533875 23.383485,35.0270375 23.383485,39.174275 L20.683485,39.174275 C20.683485,36.3782125 18.175185,34.1033875 15.09111,34.1033875 C12.00906,34.1033875 9.501435,36.3782125 9.501435,39.174275 L6.801435,39.174275 Z M28.34865,34.3 L28.34865,31.85 L44.458875,31.85 L44.458875,34.3 L28.34865,34.3 Z M28.34865,39.2 L28.34865,36.75 L39.14865,36.75 L39.14865,39.2 L28.34865,39.2 Z" id="path-1"></path>
    </defs>
    <g id="DSK-Siniestros" stroke="none" stroke-width="1" fill="none" fill-rule="evenodd">
        <g id="Siniestros_step2" transform="translate(-653.000000, -680.000000)">
            <g id="Stepper" transform="translate(382.000000, 654.000000)">
                <g id="Group-7" transform="translate(250.000000, 0.000000)">
                    <g id="Elements-/-Icon-/-Liberty-/-ID" transform="translate(21.000000, 24.000000)">
                        <mask id="mask-2" fill="white">
                            <use xlink:href="#path-1"></use>
                        </mask>
                        <use id="Mask" fill="#171343" fill-rule="evenodd" xlink:href="#path-1"></use>
                        <g id="Elements-/-Color-/-Secundario-/-Blue-1" mask="url(#mask-2)" fill="#1A1446" fill-rule="evenodd">
                            <rect id="Rectangle" x="0" y="0" width="54" height="49"></rect>
                        </g>
                    </g>
                </g>
            </g>
        </g>
    </g>
</svg>