<?xml version="1.0" encoding="UTF-8"?>
<svg width="49px" height="35px" viewBox="0 0 49 35" version="1.1" xmlns="http://www.w3.org/2000/svg" xmlns:xlink="http://www.w3.org/1999/xlink">
    <!-- Generator: Sketch 52.5 (67469) - http://www.bohemiancoding.com/sketch -->
    <title>icon copy 2</title>
    <desc>Created with Sketch.</desc>
    <defs>
        <path d="M48.379275,17.44155 L45.5787,17.44155 L44.82945,15.5164625 L48.379275,15.5164625 L48.379275,17.44155 Z M39.859425,27.6500875 L39.173625,25.860975 C39.173625,25.8377 39.180375,25.8076875 39.20805,25.7770625 C39.2526,25.725 39.308625,25.725 39.326175,25.725 L46.1052,25.725 L46.105875,27.6500875 L39.859425,27.6500875 Z M15.124725,25.725 C15.14295,25.725 15.197625,25.725 15.243525,25.77645 C15.270525,25.8076875 15.2766,25.8377 15.2766,25.860975 L14.591475,27.6500875 L8.343,27.6500875 L8.343,25.725 L15.124725,25.725 Z M6.075,15.5164625 L9.624825,15.5164625 L8.875575,17.44155 L6.075,17.44155 L6.075,15.5164625 Z M14.031225,11.5542 C14.31405,10.8394125 14.968125,10.4125 15.7815,10.4125 L27.22545,10.4125 L38.672775,10.4125 C39.485475,10.4125 40.140225,10.8394125 40.42035,11.548075 L42.99885,18.170425 L11.455425,18.170425 L14.031225,11.5542 Z M48.50955,13.0664625 C49.926375,13.0664625 51.079275,14.112 51.079275,15.397025 L51.079275,17.5609875 C51.079275,18.8460125 49.926375,19.89155 48.50955,19.89155 L47.063025,19.89155 L48.51225,21.5520375 C48.701925,21.76825 48.804525,22.0359125 48.804525,22.31215 L48.808575,38.7057125 C48.808575,39.99135 47.65635,41.0375 46.2402,41.0375 L40.6404,41.0375 C39.22425,41.0375 38.072025,39.99135 38.072025,38.7057125 L38.072025,36.895775 L40.772025,36.895775 L40.772025,38.5875 L46.108575,38.5875 L46.10655,30.1000875 L39.64545,30.1000875 C38.544525,30.1000875 37.6002,29.437975 37.3194,28.48125 L36.588375,26.5720875 C36.572175,26.5304375 36.558675,26.488175 36.547875,26.4459125 C36.35145,25.672325 36.550575,24.8724 37.094625,24.251325 C37.63935,23.6308625 38.45205,23.275 39.326175,23.275 L46.104525,23.275 L46.104525,22.7390625 L44.2557,20.620425 L10.198575,20.620425 L8.343,22.739675 L8.343,23.275 L15.124725,23.275 C15.99885,23.275 16.812225,23.6308625 17.356275,24.251325 C17.900325,24.8724 18.100125,25.672325 17.903025,26.4459125 C17.892225,26.488175 17.878725,26.5304375 17.8632,26.5720875 L17.132175,28.4806375 C16.851375,29.437975 15.90705,30.1000875 14.80545,30.1000875 L8.343,30.1000875 L8.343,38.5875 L13.678875,38.5875 L13.678875,36.895775 L16.378875,36.895775 L16.378875,38.7057125 C16.378875,39.99135 15.22665,41.0375 13.8105,41.0375 L8.2107,41.0375 C6.795225,41.0375 5.643,39.99135 5.643,38.7057125 L5.643,22.3127625 C5.643,22.0359125 5.746275,21.767025 5.93595,21.5502 L7.387875,19.89155 L5.944725,19.89155 C4.5279,19.89155 3.375,18.8460125 3.375,17.5609875 L3.375,15.397025 C3.375,14.112 4.5279,13.0664625 5.944725,13.0664625 L10.579275,13.0664625 L11.487825,10.732225 C12.15405,9.0472375 13.83885,7.9625 15.7815,7.9625 L27.22545,7.9625 L38.672775,7.9625 C40.615425,7.9625 42.29955,9.0472375 42.964425,10.7261 L43.875,13.0664625 L48.50955,13.0664625 Z M11.8139175,35.2168513 L11.8139175,32.7668513 L42.6364425,32.7668513 L42.6364425,35.2168513 L11.8139175,35.2168513 Z" id="path-1"></path>
    </defs>
    <g id="DSK-Siniestros" stroke="none" stroke-width="1" fill="none" fill-rule="evenodd">
        <g id="Siniestros_step2" transform="translate(-912.000000, -685.000000)">
            <g id="Stepper" transform="translate(382.000000, 654.000000)">
                <g id="Group-8" transform="translate(506.000000, 0.000000)">
                    <g id="Elements-/-Icon-/-Liberty-/-Car-1" transform="translate(21.000000, 24.000000)">
                        <mask id="mask-2" fill="white">
                            <use xlink:href="#path-1"></use>
                        </mask>
                        <use id="Mask" fill="#171343" fill-rule="evenodd" xlink:href="#path-1"></use>
                        <g id="Elements-/-Color-/-Secundario-/-Blue-1" mask="url(#mask-2)" fill="#1A1446" fill-rule="evenodd">
                            <rect id="Rectangle" x="0" y="0" width="54" height="49"></rect>
                        </g>
                    </g>
                </g>
            </g>
        </g>
    </g>
</svg>