<?xml version="1.0" encoding="UTF-8"?>
<svg width="68px" height="90px" viewBox="0 0 68 90" version="1.1" xmlns="http://www.w3.org/2000/svg" xmlns:xlink="http://www.w3.org/1999/xlink">
    <!-- Generator: Sketch 52.5 (67469) - http://www.bohemiancoding.com/sketch -->
    <title>Icon Copy 7</title>
    <desc>Created with Sketch.</desc>
    <defs>
        <path d="M76.5045,13.5131625 L50.140125,13.5131625 L50.140125,18.0131625 L74.2545,18.0131625 L74.2545,85.4872875 L20.2545,85.4872875 L20.2545,71.9996625 L24.75,71.9996625 L24.75,67.5019125 L20.2545,67.5019125 L20.2545,54.0007875 L24.75,54.0007875 L24.75,49.5030375 L20.2545,49.5030375 L20.2545,36.0019125 L24.75,36.0019125 L24.75,31.5030375 L20.2545,31.5030375 L20.2545,18.0131625 L27.640125,18.0131625 L27.640125,13.5131625 L18.0045,13.5131625 C16.7625,13.5131625 15.7545,14.5211625 15.7545,15.7631625 L15.7545,31.5030375 L11.25,31.5030375 L11.25,36.0019125 L15.7545,36.0019125 L15.7545,49.5030375 L11.25,49.5030375 L11.25,54.0007875 L15.7545,54.0007875 L15.7545,67.5019125 L11.259,67.5019125 L11.259,71.9996625 L15.7545,71.9996625 L15.7545,87.7372875 C15.7545,88.9792875 16.7625,89.9872875 18.0045,89.9872875 L76.5045,89.9872875 C77.7465,89.9872875 78.7545,88.9792875 78.7545,87.7372875 L78.7545,15.7631625 C78.7545,14.5211625 77.7465,13.5131625 76.5045,13.5131625 M38.2545,4.5 C40.204125,4.5 40.5045,4.5 40.5045,9 L36.0045,9 C36.0045,4.5 36.347625,4.5 38.2545,4.5 Z M38.2545,61.19325 L36.459,58.5 L40.05,58.5 L38.2545,61.19325 Z M36.0045,54 L40.5045,54 L40.5045,13.5 L36.0045,13.5 L36.0045,54 Z M36.3825,66.497625 C36.799875,67.12425 37.501875,67.5 38.2545,67.5 C39.007125,67.5 39.709125,67.12425 40.1265,66.497625 L44.6265,59.7465 C44.872875,59.3775 45.0045,58.94325 45.0045,58.498875 L45.0045,9 C45.0045,5.41575 45.0045,0 38.2545,0 C31.5045,0 31.5045,5.41575 31.5045,9 L31.5045,58.498875 C31.5045,58.94325 31.636125,59.3775 31.8825,59.7465 L36.3825,66.497625 Z" id="path-1"></path>
    </defs>
    <g id="DSK--Buscador" stroke="none" stroke-width="1" fill="none" fill-rule="evenodd">
        <g id="Buscador_idea2" transform="translate(-213.000000, -987.000000)">
            <g id="Group-7-Copy-2" transform="translate(182.000000, 963.000000)">
                <g id="Elements-/-Icon-/-Liberty-/-Notebook" transform="translate(20.000000, 24.000000)">
                    <mask id="mask-2" fill="white">
                        <use xlink:href="#path-1"></use>
                    </mask>
                    <use id="Mask" fill="#FFD000" fill-rule="evenodd" xlink:href="#path-1"></use>
                    <g id="Elements-/-Color-/-Principal-/-Yellow-4-Copy-2" mask="url(#mask-2)" fill="#28A3AF" fill-rule="evenodd">
                        <rect id="Rectangle" x="0" y="0" width="90" height="90"></rect>
                    </g>
                </g>
            </g>
        </g>
    </g>
</svg>