<?xml version="1.0" encoding="UTF-8"?>
<svg width="82px" height="82px" viewBox="0 0 82 82" version="1.1" xmlns="http://www.w3.org/2000/svg" xmlns:xlink="http://www.w3.org/1999/xlink">
    <!-- Generator: Sketch 52.5 (67469) - http://www.bohemiancoding.com/sketch -->
    <title>Icon Copy 7</title>
    <desc>Created with Sketch.</desc>
    <defs>
        <path d="M83.25,4.5 C84.492,4.5 85.5,5.508 85.5,6.75 L85.5,65.2455 C85.5,66.155625 84.952125,66.97575 84.11175,67.3245 C83.268,67.671 82.30275,67.47975 81.65925,66.83625 L59.16825,44.34525 C58.746375,43.923375 58.509,43.351875 58.509,42.755625 L58.501125,31.5 L9,31.5 L9,77.331375 L23.068125,61.504875 C23.495625,61.0245 24.107625,60.75 24.75,60.75 L58.5,60.75 L58.5,65.25 L25.76025,65.25 L8.431875,84.745125 C7.9965,85.235625 7.38,85.5 6.75,85.5 C6.481125,85.5 6.211125,85.451625 5.950125,85.352625 C5.077125,85.02075 4.5,84.18375 4.5,83.25 L4.5,29.25 C4.5,28.008 5.508,27 6.75,27 L60.75,27 C61.992,27 62.998875,28.006875 63,29.248875 L63.007875,41.821875 L81,59.814 L81,9 L31.5,9 L31.5,20.25 L27,20.25 L27,6.75 C27,5.508 28.008,4.5 29.25,4.5 L83.25,4.5 Z M22.5,47.25 C22.5,46.006875 23.508,45 24.75,45 C25.992,45 27,46.006875 27,47.25 C27,48.492 25.992,49.5 24.75,49.5 C23.508,49.5 22.5,48.492 22.5,47.25 Z M31.5,47.25 C31.5,46.006875 32.508,45 33.75,45 C34.992,45 36,46.006875 36,47.25 C36,48.492 34.992,49.5 33.75,49.5 C32.508,49.5 31.5,48.492 31.5,47.25 Z M40.5,47.25 C40.5,46.006875 41.508,45 42.75,45 C43.992,45 45,46.006875 45,47.25 C45,48.492 43.992,49.5 42.75,49.5 C41.508,49.5 40.5,48.492 40.5,47.25 Z" id="path-1"></path>
    </defs>
    <g id="DSK--Buscador" stroke="none" stroke-width="1" fill="none" fill-rule="evenodd">
        <g id="Buscador_idea2" transform="translate(-206.000000, -1295.000000)">
            <g id="Group-7-Copy-8" transform="translate(182.000000, 1267.000000)">
                <g id="Elements-/-Icon-/-Liberty-/-Chat-2" transform="translate(20.000000, 24.000000)">
                    <mask id="mask-2" fill="white">
                        <use xlink:href="#path-1"></use>
                    </mask>
                    <use id="Mask" fill="#171343" fill-rule="evenodd" xlink:href="#path-1"></use>
                    <g id="Elements-/-Color-/-Principal-/-Yellow-4-Copy-2" mask="url(#mask-2)" fill="#28A3AF" fill-rule="evenodd">
                        <rect id="Rectangle" x="0" y="0" width="90" height="90"></rect>
                    </g>
                </g>
            </g>
        </g>
    </g>
</svg>