<?xml version="1.0" encoding="UTF-8"?>
<svg width="90px" height="82px" viewBox="0 0 90 82" version="1.1" xmlns="http://www.w3.org/2000/svg" xmlns:xlink="http://www.w3.org/1999/xlink">
    <!-- Generator: Sketch 52.5 (67469) - http://www.bohemiancoding.com/sketch -->
    <title>Icon Copy 7</title>
    <desc>Created with Sketch.</desc>
    <defs>
        <path d="M42.749775,72.0003375 L47.2509,72.0003375 L47.2509,81.0003375 L71.999775,81.0003375 L71.999775,85.5003375 L17.999775,85.5003375 L17.999775,81.0003375 L42.749775,81.0003375 L42.749775,72.0003375 Z M85.501125,4.5 C87.982875,4.5 90.001125,6.51825 90.001125,9 L90.001125,63 C90.001125,65.48175 87.982875,67.5 85.501125,67.5 L4.5,67.5 C2.01825,67.5 0,65.48175 0,63 L0,9 C0,6.51825 2.01825,4.5 4.5,4.5 L85.501125,4.5 Z M4.5,63 L85.5045,63 L85.501125,9 L4.5,9 L4.5,63 Z M45,11.25 C46.243125,11.25 47.25,12.258 47.25,13.5 C47.25,14.742 46.243125,15.75 45,15.75 C43.758,15.75 42.75,14.742 42.75,13.5 C42.75,12.258 43.758,11.25 45,11.25 Z" id="path-1"></path>
    </defs>
    <g id="DSK--Buscador" stroke="none" stroke-width="1" fill="none" fill-rule="evenodd">
        <g id="Buscador_idea2" transform="translate(-713.000000, -1143.000000)">
            <g id="Group-7-Copy-6" transform="translate(693.000000, 1115.000000)">
                <g id="Elements-/-Icon-/-Liberty-/-Screen-1" transform="translate(20.000000, 24.000000)">
                    <mask id="mask-2" fill="white">
                        <use xlink:href="#path-1"></use>
                    </mask>
                    <use id="Mask" fill="#171343" fill-rule="evenodd" xlink:href="#path-1"></use>
                    <g id="Elements-/-Color-/-Principal-/-Yellow-4-Copy-2" mask="url(#mask-2)" fill="#28A3AF" fill-rule="evenodd">
                        <rect id="Rectangle" x="0" y="0" width="90" height="90"></rect>
                    </g>
                </g>
            </g>
        </g>
    </g>
</svg>