<?xml version="1.0" encoding="UTF-8"?>
<svg width="23px" height="26px" viewBox="0 0 23 26" version="1.1" xmlns="http://www.w3.org/2000/svg" xmlns:xlink="http://www.w3.org/1999/xlink">
    <!-- Generator: Sketch 52.5 (67469) - http://www.bohemiancoding.com/sketch -->
    <title>Icon/User</title>
    <desc>Created with Sketch.</desc>
    <defs>
        <path d="M11.1031159,12.7454146 C7.58945835,12.7454146 4.72935789,9.88741563 4.72935789,6.37375804 C4.72935789,2.86010046 7.58945835,0 11.1031159,0 C14.6167735,0 17.4789754,2.86010046 17.4789754,6.37375804 C17.4789754,9.88741563 14.6167735,12.7454146 11.1031159,12.7454146 Z M11.1031159,2.82017253 C9.14454604,2.82017253 7.55163189,4.41518815 7.55163189,6.37375804 C7.55163189,8.33232794 9.14454604,9.92524208 11.1031159,9.92524208 C13.0637873,9.92524208 14.6588029,8.33232794 14.6588029,6.37375804 C14.6588029,4.41518815 13.0637873,2.82017253 11.1031159,2.82017253 Z M11.1041667,13.8291426 C17.2278498,13.8291426 22.2083333,18.8096262 22.2083333,24.9333093 L19.3881608,24.9333093 C19.3881608,20.3647138 15.6727621,16.6493151 11.1041667,16.6493151 C6.53557122,16.6493151 2.82017253,20.3647138 2.82017253,24.9333093 L0,24.9333093 C0,18.8096262 4.98048354,13.8291426 11.1041667,13.8291426 Z" id="path-1"></path>
    </defs>
    <g id="DSK-Pago" stroke="none" stroke-width="1" fill="none" fill-rule="evenodd">
        <g id="Liberty2_Pago1-1-Copy-8" transform="translate(-537.000000, -3006.000000)">
            <g id="testimonio" transform="translate(186.000000, 2776.000000)">
                <g id="item" transform="translate(341.000000, 84.000000)">
                    <g id="Icon/User" transform="translate(0.000000, 138.000000)">
                        <g id="Color/Liberty-Blue" transform="translate(10.250000, 8.541667)">
                            <mask id="mask-2" fill="white">
                                <use xlink:href="#path-1"></use>
                            </mask>
                            <use id="Mask" fill="#1A1446" fill-rule="nonzero" xlink:href="#path-1"></use>
                            <g id="Color/Medium" mask="url(#mask-2)" fill="#28A3AF">
                                <g transform="translate(-76.875000, -76.875000)" id="Rectangle-Copy-8">
                                    <polygon points="0 0 173 0 173 166 0 166"></polygon>
                                </g>
                            </g>
                        </g>
                    </g>
                </g>
            </g>
        </g>
    </g>
</svg>