<?xml version="1.0" encoding="UTF-8"?>
<svg width="22px" height="22px" viewBox="0 0 22 22" version="1.1" xmlns="http://www.w3.org/2000/svg" xmlns:xlink="http://www.w3.org/1999/xlink">
    <!-- Generator: Sketch 52.5 (67469) - http://www.bohemiancoding.com/sketch -->
    <title>icon </title>
    <desc>Created with Sketch.</desc>
    <defs>
        <path d="M11.9166667,14.6728267 C11.9166667,13.15336 13.1538,11.9162267 14.6732667,11.9162267 C16.1942,11.9162267 17.4320667,13.15336 17.4320667,14.6728267 C17.4320667,15.4186267 17.1314,16.0932933 16.6503333,16.5890267 C16.6386,16.5992933 16.6246667,16.60296 16.6136667,16.6132267 C16.6034,16.6242267 16.5997333,16.6388933 16.5894667,16.6498933 C16.093,17.1316933 15.4183333,17.4316267 14.6732667,17.4316267 C13.1538,17.4316267 11.9166667,16.19376 11.9166667,14.6728267 Z M18.5012667,17.2042933 L21.6773333,20.38036 C22.0352,20.7382267 22.0352,21.3190267 21.6773333,21.6768933 C21.4976667,21.8558267 21.2637333,21.9452933 21.0290667,21.9452933 C20.7936667,21.9452933 20.5597333,21.8558267 20.3808,21.6768933 L17.2047333,18.5008267 C16.4787333,18.9826267 15.6082667,19.26496 14.6732667,19.26496 C12.1425333,19.26496 10.0833333,17.2050267 10.0833333,14.6728267 C10.0833333,12.1420933 12.1425333,10.0828933 14.6732667,10.0828933 C17.2054667,10.0828933 19.2654,12.1420933 19.2654,14.6728267 C19.2654,15.6078267 18.9830667,16.4782933 18.5012667,17.2042933 Z M19.9833333,0 C21.0958,0 22,0.9042 22,2.01666667 L22,11 C22,11.506 21.5893333,11.9166667 21.0833333,11.9166667 C20.5773333,11.9166667 20.1666667,11.506 20.1666667,11 L20.1666667,2.01666667 C20.1666667,1.91546667 20.0845333,1.83333333 19.9833333,1.83333333 L18.7132,1.83333333 L11.6482667,8.89753333 C11.473,9.07353333 11.2383333,9.16666667 11,9.16666667 C10.8819333,9.16666667 10.7631333,9.1432 10.6487333,9.09626667 C10.307,8.95473333 10.0833333,8.62033333 10.0833333,8.25 L10.0833333,1.83333333 L7.33333333,1.83333333 L7.33333333,6.41666667 C7.33333333,6.92266667 6.92266667,7.33333333 6.41666667,7.33333333 L1.83333333,7.33333333 L1.83333333,9.16666667 L5.5,9.16666667 C6.006,9.16666667 6.41666667,9.5766 6.41666667,10.0833333 L6.41666667,16.5 C6.41666667,16.7427333 6.31986667,16.9759333 6.14826667,17.1475333 L3.12986667,20.1666667 L11,20.1666667 C11.506,20.1666667 11.9166667,20.5766 11.9166667,21.0833333 C11.9166667,21.5893333 11.506,22 11,22 L2.01666667,22 C0.9042,22 0,21.0950667 0,19.9833333 L0,19.25 L0,10.0833333 L0,6.41666667 L0,2.01666667 L0,0.916666667 C0,0.409933333 0.410666667,0 0.916666667,0 L2.01666667,0 L6.41666667,0 L11,0 L18.3333333,0 L19.9833333,0 Z M11.9166667,6.0368 L16.1201333,1.83333333 L11.9166667,1.83333333 L11.9166667,6.0368 Z M5.5,5.5 L5.5,1.83333333 L2.01666667,1.83333333 C1.91546667,1.83333333 1.83333333,1.91546667 1.83333333,2.01666667 L1.83333333,5.5 L5.5,5.5 Z M4.58333333,11 L1.83333333,11 L1.83333333,18.8701333 L4.58333333,16.1201333 L4.58333333,11 Z" id="path-1"></path>
    </defs>
    <g id="DSK-Red-médica" stroke="none" stroke-width="1" fill="none" fill-rule="evenodd">
        <g id="Red-médica-Copy-2" transform="translate(-365.000000, -1270.000000)">
            <g id="Group-13" transform="translate(182.000000, 1132.000000)">
                <g id="info-copy-10" transform="translate(85.000000, 89.000000)">
                    <g id="Group-5">
                        <g id="Elements-/-Icon-/-Glyph-/-Map-Outline" transform="translate(98.000000, 49.000000)">
                            <mask id="mask-2" fill="white">
                                <use xlink:href="#path-1"></use>
                            </mask>
                            <use id="Mask" fill="#1A1446" fill-rule="evenodd" xlink:href="#path-1"></use>
                            <g id="Elements-/-Color-/-Secundario-/-Blue-1" mask="url(#mask-2)" fill="#1A1446" fill-rule="evenodd">
                                <rect id="Rectangle" x="0" y="0" width="22" height="22"></rect>
                            </g>
                        </g>
                    </g>
                </g>
            </g>
        </g>
    </g>
</svg>