<?xml version="1.0" encoding="utf-8"?>
<!-- Generator: Adobe Illustrator 22.1.0, SVG Export Plug-In . SVG Version: 6.00 Build 0)  -->
<svg version="1.1" id="Capa_1" xmlns="http://www.w3.org/2000/svg" xmlns:xlink="http://www.w3.org/1999/xlink" x="0px" y="0px"
	 viewBox="0 0 44 44" style="enable-background:new 0 0 44 44;" xml:space="preserve">
<style type="text/css">
	.st0{fill:#FFFFFF;}
</style>
<g>
	<g>
		<path id="a_1_" class="st0" d="M27.6,43.9c-1.2,0-2.3-0.1-3.5-0.4c-1.4-0.3-2.7-0.8-3.9-1.5c-1.3-0.7-2.5-1.5-3.6-2.4
			c-0.7-0.5-1.5-1.1-2.2-1.7c-0.8-0.6-1.5-1.3-2.3-2c-1-0.9-1.9-1.8-2.8-2.7c-1-1-1.8-1.9-2.5-2.7c-0.5-0.6-1.1-1.3-1.6-2
			c-0.5-0.6-0.8-1.2-1.1-1.7c-0.6-0.8-1.2-1.7-1.7-2.6c-0.5-0.9-0.9-1.8-1.3-2.8c-0.5-1.2-0.8-2.5-1-3.8c-0.2-1.3-0.2-2.5-0.1-3.8
			c0.1-1.3,0.5-2.5,1-3.6c0.6-1.2,1.3-2.3,2.2-3.2l1.3-1.3c0,0,0,0,0.1-0.1C5.1,5.5,5.5,5.2,6,5c0.7-0.3,1.4-0.3,2.1-0.2
			C8.8,5,9.5,5.4,10,5.9l5.7,5.8c0.9,0.9,1.3,2.2,1,3.4c-0.1,0.7-0.5,1.4-1,2l-2.6,2.7C13.1,19.9,13,19.9,13,20c0,0.1,0,0.3,0,0.4
			c0,0.1,0.1,0.2,0.2,0.3l9.6,9.8c0.1,0.1,0.2,0.2,0.3,0.2c0,0,0.1,0,0.1,0c0.1,0,0.1,0,0.2,0c0.1,0,0.1-0.1,0.2-0.1l2.6-2.6
			c0.4-0.4,0.8-0.7,1.3-0.9c0.7-0.3,1.4-0.3,2.1-0.2c0.7,0.1,1.4,0.5,1.9,1l5.8,5.8c0.9,0.9,1.3,2.2,1,3.4c-0.1,0.7-0.5,1.4-1,1.9
			l-1.3,1.4c-0.6,0.6-1.3,1.2-2,1.6c-0.7,0.4-1.4,0.8-2.2,1.1C30.6,43.7,29.1,44,27.6,43.9z M7.2,8.4L5.9,9.7
			c-0.6,0.6-1.2,1.4-1.5,2.2c-0.4,0.8-0.6,1.7-0.7,2.6c-0.1,0.9-0.1,1.9,0.1,2.8c0.2,1,0.4,2,0.8,3C5.1,22,6,23.5,7.1,24.9
			c0,0.1,0.1,0.1,0.1,0.2c0.2,0.4,0.5,0.8,0.9,1.4c0.4,0.5,0.9,1.1,1.5,1.8c0.7,0.9,1.5,1.7,2.3,2.5c0.8,0.9,1.7,1.7,2.6,2.5
			c0.9,0.8,1.6,1.4,2.2,1.9c0.7,0.5,1.3,1.1,2,1.6c0,0,0.1,0,0.1,0.1c1,0.8,2,1.5,3.1,2c1,0.5,2,0.9,3.1,1.2c1,0.2,2,0.4,3,0.3
			c0.9,0,1.8-0.2,2.7-0.5c0.5-0.2,1-0.5,1.5-0.8c0.5-0.3,0.9-0.7,1.4-1.1l1.3-1.4c0,0,0.1-0.1,0.1-0.1c0,0,0-0.1,0-0.1
			c0,0,0-0.1-0.1-0.1l-5.7-5.8c0,0-0.1,0-0.1,0c0,0,0,0-0.1,0c0,0-0.1,0-0.1,0.1l-2.6,2.6c-0.8,0.8-1.8,1.2-3,1.2
			c-0.2,0-0.5,0-0.7-0.1c-0.8-0.1-1.5-0.5-2.2-1.2l-9.7-9.8c-0.2-0.2-0.7-0.8-1-1.5c-0.3-0.7-0.4-1.5-0.2-2.3
			c0.1-0.8,0.5-1.6,1.1-2.2l2.6-2.7c0.1-0.1,0.1-0.1,0.1-0.1c0-0.1,0-0.1,0-0.2c0,0-0.1-0.1-0.1-0.1L7.5,8.4
			C7.4,8.4,7.4,8.4,7.4,8.4l-0.1,0C7.3,8.4,7.2,8.4,7.2,8.4L7.2,8.4z M44,22h-3.7c0-10.1-8.2-18.3-18.3-18.3V0C34.1,0,44,9.9,44,22
			L44,22z M38.5,22h-3.7c0-7.1-5.8-12.9-12.9-12.9V5.5C31.1,5.5,38.5,12.9,38.5,22L38.5,22z"/>
	</g>
</g>
</svg>
