<svg height="20" viewBox="0 0 46 20" width="46" xmlns="http://www.w3.org/2000/svg"><path d="m54.8267912 25.8521821c.1056142.4936211.1635116.991721.1732088 1.4961999.0021801.1185532-.0322051.154282-.1542329.1514658-.3402857-.0079737-.6809869-.0066165-1.0213419-.0005768-.107311.0019001-.1352209-.0325394-.1361904-.1349756-.0296413-3.1077295-2.3625738-5.8636334-5.5791341-6.4706503-2.7947612-.5274159-5.7376247.7860342-7.1800039 3.2387691-.0507987.086421-.1022207.1725366-.1647929.2780605-.194538-.3028298-.3791725-.5872693-.5839949-.8582383-.2391038-.3163342-.2410775-.3193201-.0019045-.6432886 1.3930002-1.8869775 3.261784-3.01856 5.6180901-3.3358443 4.1938212-.5647394 8.1577496 2.2008687 9.0302966 6.2790786zm-22.4564251-4.32176c3.4752428.1184651 6.6149488 2.5091512 7.5927662 5.7733953.0568018.1896279.0568018.1901163-.1438218.1909186-.1722227.0006977-.3444455.0001396-.5166682.0001396-.1662717 0-.3332917-.0093837-.4986013.0028953-.1373007.0101861-.1904677-.0428721-.2380757-.1662558-.7013274-1.8177907-1.9512161-3.1463023-3.7674121-3.9297907-3.6728018-1.5843837-7.9294432.1995-9.3342717 3.8970349-.0564454.1485349-.120588.2083954-.2882851.2005814-.3258797-.0151744-.6533274-.012314-.9795278-.0011512-.1642049.0056163-.2001604-.03-.148882-.1899767.5059778-1.5784884 1.3984143-2.904314 2.7102718-3.9480349 1.6331403-1.2992791 3.5116971-1.9013721 5.6125077-1.8297558zm-9.9280163-.0130078c.5799082.4843545 1.0593922 1.0567427 1.4761926 1.6813165.0643349.0964051.0769954.1621266-.0044036.2617046-.2653899.3246245-.492523.6761182-.7206537 1.0635612-.2704817-.5155105-.5804587-.9798818-.9532913-1.4027004-.5302982-.601384-1.1507339-1.0932996-1.8557339-1.4853333-.1018693-.0566414-.1605276-.0542448-.2463303.0313249-.5669725.5653333-1.1404817 1.1243544-1.7125459 1.6847595-.7578784.7424135-1.9064105.7440675-2.6632569.0034092-.5723394-.5601012-1.1451605-1.1197974-1.7131307-1.6841519-.0815367-.0810126-.1380619-.0980928-.2447477-.0371308-1.9021789 1.0874262-3.0558372 2.6853671-3.4322477 4.8185654-.051984.2946498-.067672.5918988-.0815023.8890802-.0049885.1075106-.0328211.1445738-.146594.1421435-.3323739-.0070549-.66516059-.0084726-.99743123.0005401-.12863533.003443-.14783257-.0454009-.14667966-.1557131.01243654-1.1303967.25852599-2.2114093.76384709-3.2240338 1.1593349-2.3232405 3.0181651-3.8281181 5.599094-4.3784979 2.6458487-.5642531 5.0167776.0683207 7.0794152 1.7911561zm-7.1739565-.4609957c.0474427.0508017.080195.0886413.1158372.1236793l1.2745184 1.2507004c.2864449.2802701.581938.28.8688646-.0007426.4255046-.41627.8503899-.8331139 1.2740711-1.2512068.0377065-.037232.0965023-.0637974.0936468-.1304641-.9853211-.325097-2.6403784-.3245232-3.6269381.0080338zm16.2286681-11.55641763c3.0509828-.00179246 5.5039932 2.48421163 5.5029386 5.57695613-.0010215 2.989816-2.479613 5.4260965-5.5172599 5.4230439-3.0113972-.003031-5.4827401-2.4849559-5.4827401-5.5062096 0-3.0120755 2.4814417-5.4920312 5.4970614-5.49379043zm.0033076 1.06456613c-2.5443214.0134242-4.5018598 2.1672929-4.428635 4.5612697.0715709 2.3394355 2.0085247 4.3270432 4.5215645 4.2955 2.3716574-.0297849 4.3448541-2.0259378 4.3359468-4.4300069-.0091789-2.4499246-1.9907854-4.4395015-4.4288763-4.4267628zm-13.9929503-3.06453768c3.0266811.01001474 5.4925813 2.4803078 5.4925813 5.50251728 0 3.0591371-2.436629 5.4931683-5.4956311 5.497448-3.0380741.004234-5.5333508-2.5214154-5.5041146-5.5605471.0285702-2.96622261 2.5184833-5.44930368 5.5071644-5.43941818zm34.7001629 4.59940398c.0378408.2365146.0730744.4737115.0660982.7130636-.0034882.1196401.0486575.161304.1465364.2035785.9422161.4068697 1.4969687 1.1285534 1.5714877 2.1698999.077232 1.079311-.3868294 1.8950977-1.3061789 2.4350405-.3399688.1996995-.7509684.2962089-1.1647514.2973582-.4751952.0014726-.9169889-.1222261-1.3175946-.3821946-.0968219-.062855-.1597843-.0691405-.2627015-.0028374-1.9076512 1.2294088-3.8497609 1.2901088-5.8200574.1593285-.0911844-.0523672-.1494255-.0444295-.233669.0114576-1.5617985 1.035528-3.5830075.1141448-3.8606128-1.7573912-.154464-1.0414184.3871113-2.1124325 1.3218579-2.5983199.1179972-.0613466.1624972-.1224776.1611231-.2674034-.0262138-2.7303155 1.8837981-5.05343807 4.5187406-5.50660501 2.8960586-.49809932 5.7053369 1.55955945 6.1797217 4.52502471zm-34.7057367-3.66718106c-2.4889317 0-4.5710106 2.06685766-4.5720978 4.53869226-.0011563 2.5509101 2.0400831 4.5973419 4.5792841 4.59105 2.5291752-.0062859 4.5679257-2.0462361 4.567365-4.5700286-.000526-2.5211999-2.0456916-4.55971366-4.5745513-4.55971366zm30.5103345 2.94215706c-.4021912.3870434-.8412015.7252395-1.3233024 1.0044237-1.2573452.7281128-2.6239145 1.1093018-4.0429466 1.3204588-.1402648.0208679-.1661262.0583654-.1397011.2018545.3854553 2.0927139 2.2570978 3.651591 4.605521 3.650514.5336124-.0038796 1.2428642-.1714691 1.8965526-.5402307 1.2936005-.7296933 2.0586271-1.8471842 2.3144228-3.3302041.0222676-.1289068-.0002467-.1974367-.1405467-.2479003-1.1570705-.4161005-2.1538282-1.0775152-2.9394663-2.0482485-.087027-.107536-.1366006-.1011068-.2305333-.0106674zm-6.5858238 2.6330159c-.7912403.5550999-1.0520744 1.635201-.5987593 2.4982547.5109573.9727806 1.7836995 1.331665 2.6446671.7314532-.0415756-.0391497-.070749-.0678116-.1011204-.0950369-.9144168-.8206714-1.5066579-1.8354033-1.7532577-3.052708-.0328377-.162202-.0702205-.1670867-.1915297-.081963zm10.8023309-.2393879c-.0084561.1479069-.0442886.2949877-.0764921.4405241-.2315198 1.0470214-.7201742 1.9510925-1.470015 2.7038086-.12596.1264644-.0867451.1638542.0462969.2220041.2513915.1099065.509724.1754553.783806.172977 1.2177074.0007543 2.1270859-1.1621 1.844724-2.3686296-.1306108-.5580451-.4542311-.9737863-.9443301-1.2568136-.1088013-.0628551-.1741243-.085842-.1839897.0861294zm-32.2340673-2.387022c.0768526-.0020629.1261514.0467382.1251573.123188-.0008698.0683831-.0442042.1101334-.1210879.1148441-.0059831.0059402-.004951.0139546-.0043513.0222494.0076358.104657-.0546428.1526113-.1558828.1624398-.2649822.0256332-.5322365.0311055-.7930469.0927044-.1816957.0429501-.3588099.0962686-.5177098.1936173-.2420001.1481831-.3317678.3612773-.2713888.6329824.0065184.0292694.0122173.0587188.0191082.0879162.2278087.9629742.7531171 1.3659055 1.7752391 1.3690377.3000697.000936.5958188-.0176409.878531-.1226219.3127341-.1161056.5330559-.3214594.6381697-.6343864.0855587-.2546403.1125635-.5169848.0902892-.7814535-.02328-.2767093-.1711173-.4840433-.4248133-.6159896-.0760232-.0395299-.1578942-.0687993-.2380519-.1005168-.0937159-.0370818-.1421383-.1020289-.1119302-.1976855.0305433-.0968086.1088386-.1190937.2075085-.0988607.5167041.106061.9019973.5588908.9091489 1.0714474.0029426.2102501-.0064439.4198521-.0521099.626214-.1287291.5814639-.5025871.937377-1.0912916 1.0798358-.5139477.124386-1.0338923.1256821-1.5482498.0019441-.5166668-.1242419-.901513-.4200321-1.1321526-.8864345-.1556965-.3149071-.2776464-.6429549-.271426-.999228.0016761-.0949365-.0452191-.1324143-.1241103-.146707-.0972173-.0176048-.1962969-.0353537-.2946316-.0355337-.313926-.000576-.3390312.0304215-.3876026.3172832-.0929337.5486303-.2672915 1.062123-.7340833 1.4319687-.3032731.2402756-.6638336.3418364-1.0458117.3843545-.1009421.0112325-.1742088-.0335536-.1873946-.1320184-.0130368-.0975646.0424254-.1569315.1454161-.1724482.0918535-.0138967.1845265-.0252012.2747412-.0461903.4638864-.1078971.7975911-.3683336.9944095-.792182.0894324-.1925372.1539087-.3923828.1987925-.5973766.0665994-.3041426-.0305434-.5060043-.3108345-.665384-.2344761-.1333144-.4949512-.1869209-.7607156-.2193225-.4509986-.0550466-.9030775-.0738035-1.3530331.0030602-.8226218.1405147-1.0971395.5260572-.9500844 1.3228114.1119674.6067372.4793443.915812 1.1864601.9917396.1188583.0127446.2392438.0226811.2235252.1739604-.0171341.1647799-.1478746.1442229-.269899.1298942-.1481352-.0174248-.2938121-.0438501-.4369933-.0849281-.6227864-.1786765-.9569753-.5926604-1.041938-1.2034297-.0230565-.165644-.0369872-.3354281-.0274517-.5018281.0303198-.5306655.3442831-.855221.8427729-1.0306574.3730386-.1312983.7617958-.1596677 1.0983314-.1463471.4998307-.0051122.9365261.0326176 1.3603337.1677681.1970419.062823.3560908.2220586.5377492.2687169.1761457.0452541.3753852-.1183017.5845699-.1213618.2019586-.0029522.398479.0194409.5806589.1009488.1044433.0466942.1691431.0288374.26271-.0343456.4745394-.3204514 1.0252136-.3655616 1.5811026-.3791342l.0286786.0024296.0031711-.0386592c.0104763-.0531221.0490008-.0866258.1115017-.0883254zm-4.055651 1.1362653c.0627926.0401352.0724004.1185248.0501658.2058668-.0641576.2519827-.18297.4367099-.3426815.5719357-.1498673.1269129-.3132277.1861565-.4583174.2040237l-.0683447.0006598c-.0000012.0003826-.0000034.0007661-.0000066.0011506-.0006901.0833733-.0502813.1215089-.1267854.117896-.0695406-.003304-.1146149-.0472757-.1127329-.1191311.0020028-.076357.047367-.114478.12192-.1184451-.0016306-.0063168-.002068-.0157718-.0021656-.0259323-.0014963-.1555379.0814571-.1442911.1573227-.1563279.2788914-.0441976.5171723-.1838996.6359322-.5866808.0282986-.0960686.0768106-.1389873.1456934-.0950154zm4.9947406-.0040402c.069665.0399598.0786675.1226804.0534656.2163432-.1100193.408449-.337752.613327-.6188456.7215546-.0665246.0256191-.1364774.0330509-.20486.0488481-.07906.0003361-.1607633-.0043695-.1634064-.1496813-.0026432-.1454985.079217-.1446769.1569685-.1559553.2826115-.0409681.5217806-.1849354.6412473-.5900607.0260655-.0884344.0733288-.1266763.1354306-.0910486zm25.668564-4.08640961c-.6417794.00664468-1.5045791.27907641-2.2680554.84204214-1.1207446.82641817-1.7652723 1.94067657-1.8998293 3.35254457-.0111691.1171977.0053907.1564193.1365653.1360902.6384323-.0989159 1.2710511-.2248774 1.886652-.4241459 1.3132609-.4251156 2.5014778-1.0503258 3.3698444-2.1924559.2049537-.26959427.5831508-.22854095.7574865.0680271.6089771 1.0358512 1.4969335 1.7291604 2.5713108 2.1965146.0499259.0217299.1078147.080634.1595376.0348037.0392502-.0348037.0108871-.1027231.0030301-.1542642-.338489-2.2168078-2.2181647-3.85915631-4.716542-3.85915631z" fill="#707070" fill-rule="evenodd" transform="translate(-9 -7.5)"/></svg>
