<?xml version="1.0" encoding="utf-8"?>
<!-- Generator: Adobe Illustrator 24.0.2, SVG Export Plug-In . SVG Version: 6.00 Build 0)  -->
<svg version="1.1" id="Capa_1" xmlns="http://www.w3.org/2000/svg" xmlns:xlink="http://www.w3.org/1999/xlink" x="0px" y="0px"
	 viewBox="0 0 40 40" style="enable-background:new 0 0 40 40;" xml:space="preserve">
<style type="text/css">
	.st0{fill-rule:evenodd;clip-rule:evenodd;fill:#717070;}
	.st1{fill:#717070;}
</style>
<path class="st0" d="M19.65,10.84c2.96,0,5.36,2.41,5.36,5.36c0,2.6-1.86,4.78-4.33,5.26v3.55h-2.08v-4.49
	c0-0.57,0.47-1.04,1.04-1.04c1.81,0,3.29-1.47,3.29-3.28c0-1.81-1.47-3.29-3.29-3.29c-1.81,0-3.29,1.47-3.29,3.29h-2.08
	C14.28,13.24,16.69,10.84,19.65,10.84z M19.69,26.47c0.72,0,1.3,0.58,1.3,1.3c0,0.72-0.58,1.3-1.3,1.3c-0.72,0-1.3-0.58-1.3-1.3
	C18.39,27.05,18.97,26.47,19.69,26.47z M20,2c9.93,0,18,8.07,18,18s-8.07,18-18,18c-8.79,0-16.12-6.33-17.69-14.68h2.12
	c1.53,7.19,7.93,12.6,15.57,12.6c8.78,0,15.92-7.14,15.92-15.92S28.78,4.08,20,4.08C11.22,4.08,4.08,11.22,4.08,20
	c0,0.37,0.02,0.73,0.04,1.1H2.04C2.01,20.73,2,20.37,2,20C2,10.07,10.07,2,20,2z"/>
</svg>
