<svg height="20" viewBox="0 0 20 20" width="20" xmlns="http://www.w3.org/2000/svg" xmlns:xlink="http://www.w3.org/1999/xlink"><defs><path id="a" d="m10 0c5.5143004 0 10 4.48569963 10 10 0 5.5136591-4.4856996 10-10 10-4.88328844 0-8.95729127-3.5193023-9.82685648-8.1537771h1.17609337c.85160959 3.9938438 4.40618186 6.999487 8.65076311 6.999487 4.877517 0 8.8457099-3.9681929 8.8457099-8.8457099 0-4.87751699-3.9681929-8.84570989-8.8457099-8.84570989-4.87815827 0-8.84570989 3.9681929-8.84570989 8.84570989 0 .2045659.00897781.4072079.0230858.6085674h-1.15749647c-.01218417-.2013595-.01987944-.4040015-.01987944-.6085674 0-5.51430037 4.48569963-10 10-10zm-.1733359 13.5943953c.3988714 0 .7220726.3232012.7220726.7220726 0 .3988713-.3232012.7220726-.7220726.7220726-.39887136 0-.72207259-.3232013-.72207259-.7220726 0-.3988714.32320123-.7220726.72207259-.7220726zm-.02250866-8.68487882c1.64293956 0 2.97999226 1.33705271 2.97999226 2.97999231 0 1.44542772-1.0350134 2.65422601-2.4028472 2.92356031v1.9706298h-1.15429011v-2.4919841c0-.31871236.25843273-.57714509.57714505-.57714509 1.00679746 0 1.82570216-.81890471 1.82570216-1.82506092 0-1.00679749-.8189047-1.8257022-1.82570216-1.8257022-1.00615621 0-1.82506092.81890471-1.82506092 1.8257022h-1.15429011c0-1.6429396 1.33641144-2.97999231 2.97935103-2.97999231z"/><mask id="b" fill="#fff"><use fill="#fff" fill-rule="evenodd" xlink:href="#a"/></mask></defs><g fill="none" fill-rule="evenodd"><use fill="#13112b" xlink:href="#a"/><g fill="#707070" mask="url(#b)"><path d="m0 0h83.333333v83.333333h-83.333333z" transform="translate(-31.666667 -31.666667)"/></g></g></svg>