<?xml version="1.0" encoding="utf-8"?>
<!-- Generator: Adobe Illustrator 24.0.2, SVG Export Plug-In . SVG Version: 6.00 Build 0)  -->
<svg version="1.1" id="Capa_1" xmlns="http://www.w3.org/2000/svg" xmlns:xlink="http://www.w3.org/1999/xlink" x="0px" y="0px"
	 viewBox="0 0 40 40" style="enable-background:new 0 0 40 40;" xml:space="preserve">
<style type="text/css">
	.st0{fill-rule:evenodd;clip-rule:evenodd;fill:#717070;}
	.st1{fill:#717070;}
</style>
<path class="st0" d="M14.1,10.39L9.46,22.62h9.28L14.1,10.39z M29.31,19.09l-2.61,6.84h5.2L29.31,19.09z M29.31,15.16
	c0.43,0,0.81,0.27,0.96,0.67l6.02,15.88h1.39V34h-4.63v-2.29h1.03l-1.41-3.71H25.9l-0.42,1.08c-0.01,0.04-0.03,0.07-0.05,0.1
	l-0.15,0.26l-0.12-0.27l-0.95-2.52l1-2.58l3.13-8.26C28.5,15.43,28.88,15.16,29.31,15.16z M14.1,6c0.47,0,0.9,0.3,1.07,0.74
	l9.47,24.97h1.25V34h-4.63v-2.29h0.92l-2.57-6.79H8.59l-2.57,6.79h0.92V34H2.31v-2.29h1.25l9.47-24.97C13.2,6.3,13.63,6,14.1,6z"/>
</svg>
