<svg height="17" viewBox="0 0 20 17" width="20" xmlns="http://www.w3.org/2000/svg" xmlns:xlink="http://www.w3.org/1999/xlink"><defs><path id="a" d="m6.66648946 0c.26758105 0 .51153463.16834569.60663518.41938752l5.35339306 14.11327598h.7064612v1.2977386h-2.6161511v-1.2977386h.5215763l-1.45545191-3.8371004h-6.23351615l-1.45545189 3.8371004h.52157631v1.2977386h-2.61556046v-1.2977386h.70587054l5.35339305-14.11327598c.09510055-.25104183.33905413-.41938752.60722587-.41938752zm8.59561294 5.17801819c.2404095 0 .4595542.15121578.5446131.3756767l3.4058992 8.97902771h.7873853v1.2977385h-2.6161511v-1.2977385h.5835984l-.7956549-2.098119h-3.8353284l-.2386374.6137234c-.0082696.0212647-.0183113.0401667-.0289437.0590687l-.0838775.148853-.0661569-.1500344-.5398876-1.4229641.5676499-1.458996 1.7714692-4.67055931c.0850589-.22446092.3042037-.3756767.5440224-.3756767zm0 2.22393521-1.4731725 3.8684068h2.9410288zm-8.59561294-4.92225087-2.62442076 6.91753128h5.24825083z"/><mask id="b" fill="#fff"><use fill="#fff" fill-rule="evenodd" xlink:href="#a"/></mask></defs><g fill="none" fill-rule="evenodd" transform="translate(0 .5)"><use fill="#13112b" xlink:href="#a"/><g fill="#707070" mask="url(#b)"><path d="m0 0h83.333333v83.333333h-83.333333z" transform="translate(-31.666667 -34.166667)"/></g></g></svg>