<?xml version="1.0" encoding="utf-8"?>
<!-- Generator: Adobe Illustrator 24.0.2, SVG Export Plug-In . SVG Version: 6.00 Build 0)  -->
<svg version="1.1" id="Capa_1" xmlns="http://www.w3.org/2000/svg" xmlns:xlink="http://www.w3.org/1999/xlink" x="0px" y="0px"
	 viewBox="0 0 40 40" style="enable-background:new 0 0 40 40;" xml:space="preserve">
<style type="text/css">
	.st0{fill-rule:evenodd;clip-rule:evenodd;fill:#717070;}
	.st1{fill:#717070;}
</style>
<g>
	<path class="st1" d="M30.72,22.25c-0.57,0-1.07,0.18-1.53,0.46c-0.39-1-1.39-1.67-2.49-1.67c-0.57,0-1.07,0.18-1.53,0.46
		c-0.39-1-1.39-1.67-2.49-1.67c-0.46,0-0.93,0.11-1.32,0.36l0.04-6.09c0-0.71-0.28-1.39-0.78-1.92c-0.5-0.5-1.21-0.78-1.92-0.78
		c-1.5,0-2.71,1.21-2.71,2.71l-0.04,13.68l-1.82-1.82c-0.93-0.93-2.39-1.07-3.46-0.32c-0.64,0.43-1.07,1.1-1.18,1.89
		c-0.11,0.75,0.11,1.53,0.61,2.14l3.1,3.63c0.14,0.18,0.32,0.25,0.53,0.25c0.14,0,0.32-0.04,0.46-0.18
		c0.28-0.25,0.32-0.68,0.07-0.96l-3.06-3.63c-0.25-0.28-0.36-0.68-0.28-1.03c0.07-0.39,0.25-0.71,0.57-0.93
		c0.53-0.36,1.25-0.28,1.71,0.18l2.21,2.21c0.32,0.32,0.82,0.43,1.28,0.25c0.43-0.18,0.71-0.61,0.71-1.07V14.09
		c0-0.71,0.57-1.32,1.32-1.32c0.36,0,0.68,0.14,0.93,0.39c0.25,0.25,0.39,0.57,0.39,0.93v9.8c0,0.39,0.32,0.68,0.68,0.68
		c0.39,0,0.71-0.32,0.71-0.68v-1.32c0-0.71,0.61-1.32,1.32-1.32c0.71,0,1.32,0.61,1.32,1.32v2.53c0,0.39,0.32,0.68,0.71,0.68
		s0.68-0.32,0.68-0.68v-1.32c0-0.71,0.61-1.32,1.32-1.32c0.71,0,1.32,0.61,1.32,1.32v2.53c0,0.39,0.32,0.71,0.68,0.71
		c0.39,0,0.71-0.32,0.71-0.71v-1.25c0-0.04,0-0.07,0-0.07c0-0.71,0.57-1.32,1.32-1.32c0.71,0,1.32,0.57,1.32,1.32v7.87
		c0,0.39,0.32,0.68,0.68,0.68c0.36,0,0.71-0.32,0.71-0.68v-7.87C33.42,23.46,32.21,22.25,30.72,22.25z"/>
	<path class="st1" d="M13.7,13.74H6.33l2.07-2.07c0.28-0.28,0.28-0.71,0-1c-0.28-0.28-0.71-0.28-1,0l-3.24,3.24
		c-0.14,0.14-0.21,0.32-0.21,0.5c0,0.18,0.07,0.36,0.21,0.5l3.24,3.24c0.14,0.14,0.32,0.21,0.5,0.21c0.18,0,0.36-0.07,0.5-0.21
		c0.28-0.28,0.28-0.71,0-1l-2.07-2.07h7.41c0.39,0,0.71-0.32,0.71-0.71C14.41,14.02,14.09,13.74,13.7,13.74z"/>
	<path class="st1" d="M24.3,15.09h7.37l-2.07,2.07c-0.28,0.28-0.28,0.71,0,1c0.28,0.28,0.71,0.28,1,0l3.24-3.24
		c0.14-0.14,0.21-0.32,0.21-0.5c0-0.18-0.07-0.36-0.21-0.5l-3.24-3.24c-0.14-0.14-0.32-0.21-0.5-0.21s-0.36,0.07-0.5,0.21
		c-0.28,0.28-0.28,0.71,0,1l2.07,2.07h-7.41c-0.39,0-0.71,0.32-0.71,0.71C23.59,14.81,23.91,15.09,24.3,15.09z"/>
</g>
</svg>
