<svg height="16" viewBox="0 0 16 16" width="16" xmlns="http://www.w3.org/2000/svg"><g fill="none"><path d="m9.52147239 8c0 .84030299-.6811694 1.52147239-1.52147239 1.52147239s-1.52147239-.6811694-1.52147239-1.52147239.6811694-1.52147239 1.52147239-1.52147239 1.52147239.6811694 1.52147239 1.52147239z" fill="#000"/><path d="m11.5935618 5.28129438c-.0738642-.20015614-.191704-.38132561-.3448222-.530034-.1487084-.15311822-.3297554-.27095798-.530034-.34482221-.1624278-.06308471-.4064369-.13817387-.85586948-.15863047-.48618093-.02217151-.63194948-.0269488-1.86277488-.0269488-1.23094788 0-1.37671643.0046548-1.86277487.02682631-.44943255.02057909-.69356421.09566825-.85586951.15875296-.20027862.07386423-.38144809.19170399-.53003399.34482221-.15311822.14870839-.27095798.32975537-.3449447.530034-.06308471.16242778-.13817387.40655944-.15863047.85599199-.02217151.48605844-.0269488.63182699-.0269488 1.86277487 0 1.2308254.00477729 1.37659395.0269488 1.86277488.0204566.44943258.09554576.69344168.15863047.85586958.07398672.2002786.19170399.3813255.34482221.5300339.14870839.1531182.32975534.270958.53003397.3448222.16242781.0632072.40655947.1382964.85599202.158753.48605844.0221715.6317045.0268263 1.86265239.0268263 1.23107037 0 1.37683892-.0046548 1.86277487-.0268263.44943257-.0204566.69356417-.0955458.85599197-.158753.4020272-.1550781.7197781-.472829.8748562-.8748561.0630847-.1624279.1381739-.406437.158753-.85586958.0221715-.48618093.0268263-.63194948.0268263-1.86277488 0-1.23094788-.0046548-1.37671643-.0268263-1.86277487-.0204566-.44943255-.0955458-.69356421-.158753-.85599199zm-3.59350056 5.08572932c-1.30738449 0-2.36720748-1.05970045-2.36720748-2.36708494 0-1.3073845 1.05982299-2.367085 2.36720748-2.367085 1.30726201 0 2.36708496 1.0597005 2.36708496 2.367085 0 1.30738449-1.05982295 2.36708494-2.36708496 2.36708494zm2.46067086-4.27457032c-.3055015 0-.55318548-.247684-.55318548-.55318546 0-.30550147.24768398-.55318546.55318548-.55318546.3055014 0 .5531854.24768399.5531854.55318546-.0001224.30550146-.247684.55318546-.5531854.55318546z" fill="#000"/><path d="m8 0c-4.41760253 0-8 3.58239747-8 8 0 4.4176025 3.58239747 8 8 8 4.4176025 0 8-3.5823975 8-8 0-4.41760253-3.5823975-8-8-8zm4.56604 9.89392091c-.0222167.48901369-.0999756.82287599-.2135009 1.11511229-.2386475.6170654-.7264405 1.1048584-1.3435059 1.3435059-.2921143.1135253-.6260986.1911621-1.11499023.2135009-.48986816.0223389-.64636231.02771-1.89392091.02771-1.24768065 0-1.40405272-.0053711-1.89404297-.02771-.48889159-.0223388-.82287597-.0999756-1.11499021-.2135009-.30664063-.1153565-.58422854-.2961426-.81372072-.5299073-.23364257-.2293701-.41442872-.50708-.52978516-.8135986-.11352538-.2921143-.19128419-.6260986-.21350097-1.11499023-.022583-.48999022-.02783203-.64648438-.02783203-1.89404297s.00524903-1.40405275.02770997-1.89392091c.02221678-.48901365.0998535-.82287596.2133789-1.11511228.11535644-.30651856.29626463-.58422853.53002929-.81359865.22937012-.23376466.50708009-.41455078.81359865-.52990722.29223631-.11352538.62609863-.19116213 1.11511228-.21350097.48986816-.02233888.64636232-.02770997 1.89392091-.02770997s1.40405275.00537109 1.89392091.02783203c.48901369.02221678.82287599.09985353 1.11511229.21325685.3065185.11535643.5842285.29626462.8137207.53002928.2336426.22949218.4145508.50708009.5297852.81359865.1136474.29223632.1912842.62609863.213623 1.11511228.0223389.48986816.0275879.64636232.0275879 1.89392091s-.005249 1.40405275-.02771 1.89392091z" fill="#1a1446"/></g></svg>