<?xml version="1.0" encoding="utf-8"?>
<!-- Generator: Adobe Illustrator 24.0.2, SVG Export Plug-In . SVG Version: 6.00 Build 0)  -->
<svg version="1.1" id="Capa_1" xmlns="http://www.w3.org/2000/svg" xmlns:xlink="http://www.w3.org/1999/xlink" x="0px" y="0px"
	 viewBox="0 0 40 40" style="enable-background:new 0 0 40 40;" xml:space="preserve">
<style type="text/css">
	.st0{fill-rule:evenodd;clip-rule:evenodd;fill:#717070;}
	.st1{fill:#717070;}
</style>
<path class="st0" d="M30.6,13.08c0.58,0,1.06,0.47,1.06,1.06c0,0.58-0.47,1.06-1.06,1.06c-0.58,0-1.06-0.47-1.06-1.06
	C29.54,13.55,30.01,13.08,30.6,13.08z M26.67,13.08c0.58,0,1.06,0.47,1.06,1.06c0,0.58-0.47,1.06-1.06,1.06
	c-0.58,0-1.06-0.47-1.06-1.06C25.62,13.55,26.09,13.08,26.67,13.08z M22.75,13.08c0.58,0,1.06,0.47,1.06,1.06
	c0,0.58-0.47,1.06-1.06,1.06c-0.58,0-1.06-0.47-1.06-1.06C21.69,13.55,22.17,13.08,22.75,13.08z M8.59,21.17
	c-1.26,0-2.28,1.02-2.28,2.28c0,1.26,1.02,2.28,2.28,2.28c1.26,0,2.28-1.02,2.28-2.28C10.87,22.2,9.85,21.17,8.59,21.17z
	 M8.59,19.36c2.26,0,4.09,1.84,4.09,4.09c0,2.25-1.84,4.09-4.09,4.09c-2.26,0-4.09-1.83-4.09-4.09C4.5,21.2,6.34,19.36,8.59,19.36z
	 M36.08,5.83c0.51,0,0.92,0.41,0.92,0.92v13.74c0,0.51-0.41,0.92-0.92,0.92h-10.7l1.74-1.84h8.04V7.67H17.54v16.68l4.24-4.49
	c0.17-0.19,0.42-0.29,0.67-0.29h2.14l-1.74,1.84l-5.56,5.89c-0.18,0.19-0.42,0.29-0.67,0.29c-0.11,0-0.23-0.02-0.34-0.07
	c-0.35-0.14-0.58-0.48-0.58-0.86V6.75c0-0.51,0.41-0.92,0.92-0.92H36.08z M8.99,28.18c3.3,0,5.99,2.69,5.99,5.99h-1.84
	c0-2.29-1.86-4.15-4.15-4.15c-2.29,0-4.15,1.86-4.15,4.15H3C3,30.87,5.69,28.18,8.99,28.18z"/>
</svg>
