<svg height="18" viewBox="0 0 20 18" width="20" xmlns="http://www.w3.org/2000/svg" xmlns:xlink="http://www.w3.org/1999/xlink"><defs><path id="a" d="m4.19294762 13.1489605c1.94301531 0 3.52378373 1.5807684 3.52378373 3.523182h-1.08433372c0-1.3448867-1.09456329-2.4388483-2.43945001-2.4388483s-2.43884827 1.0939616-2.43884827 2.4388483h-1.08433373c0-1.9424136 1.58076842-3.523182 3.523182-3.523182zm15.93465118-13.1489605c.2990643 0 .5421668.24250083.5421668.54216686v8.08376207c0 .29966604-.2431025.54216687-.5421668.54216687h-6.2959955l1.0235581-1.08433373h4.7302705v-6.99942835h-10.36555646v9.80954958l2.49240306-2.63982908c.1022956-.10891477.2449078-.17029215.394139-.17029215h1.2576346l-1.0235581 1.08433373-3.26804462 3.4618046c-.10470259.1113217-.24791648.1702922-.3947408.1702922-.06739477 0-.13478954-.0126366-.19977736-.0385113-.20639648-.0818365-.34178777-.2816139-.34178777-.5036556v-11.71585884c0-.29966603.24250083-.54216686.54216687-.54216686zm-16.16793476 7.96190992c1.32760889 0 2.4075472 1.08020359 2.4075472 2.40813858 0 1.3267525-1.07993831 2.4057736-2.4075472 2.4057736-1.32701779 0-2.40636501-1.0790211-2.40636501-2.4057736 0-1.32793499 1.07934722-2.40813858 2.40636501-2.40813858zm0 1.06542248c-.73946515 0-1.34120418.60247808-1.34120418 1.3427161 0 .7390556.60173903 1.3409424 1.34120418 1.3409424.74005625 0 1.34238637-.6018868 1.34238637-1.3409424 0-.74023802-.60233012-1.3427161-1.34238637-1.3427161zm8.32859906-4.76094253c.3429912 0 .6209947.27800343.6209947.62099467 0 .34299125-.2780035.62159641-.6209947.62159641-.343593 0-.6215964-.27860516-.6215964-.62159641 0-.34299124.2780034-.62099467.6215964-.62099467zm2.3077895 0c.3429912 0 .6209947.27800343.6209947.62099467 0 .34299125-.2780035.62159641-.6209947.62159641-.343593 0-.6215964-.27860516-.6215964-.62159641 0-.34299124.2780034-.62099467.6215964-.62099467zm2.3071276 0c.343593 0 .6215964.27800343.6215964.62099467 0 .34299125-.2780034.62159641-.6215964.62159641-.3429913 0-.6209947-.27860516-.6209947-.62159641 0-.34299124.2780034-.62099467.6209947-.62099467z"/><mask id="b" fill="#fff"><use fill="#fff" fill-rule="evenodd" xlink:href="#a"/></mask></defs><g fill="none" fill-rule="evenodd" transform="translate(-.669766 .666667)"><use fill="#13112b" xlink:href="#a"/><g fill="#707070" mask="url(#b)"><path d="m0 0h83.333333v83.333333h-83.333333z" transform="translate(-30 -31.666667)"/></g></g></svg>