<?xml version="1.0" encoding="utf-8"?>
<!-- Generator: Adobe Illustrator 24.0.2, SVG Export Plug-In . SVG Version: 6.00 Build 0)  -->
<svg version="1.1" id="Capa_1" xmlns="http://www.w3.org/2000/svg" xmlns:xlink="http://www.w3.org/1999/xlink" x="0px" y="0px"
	 viewBox="0 0 40 40" style="enable-background:new 0 0 40 40;" xml:space="preserve">
<style type="text/css">
	.st0{fill-rule:evenodd;clip-rule:evenodd;fill:#717070;}
	.st1{fill:#717070;}
</style>
<path class="st0" d="M14.01,12.64c0.29-0.5,0.92-0.67,1.42-0.38l11.81,6.82c0.32,0.19,0.52,0.53,0.52,0.9c0,0.37-0.2,0.72-0.52,0.9
	l-12.9,7.36c-0.08,0.05-0.17,0.08-0.26,0.11v-2.36l10.56-6.02l-8.68-5.01v7.52l-2.08,1.2V13.16C13.88,12.98,13.92,12.81,14.01,12.64
	z M11.94,3.9c8.88-4.44,19.71-0.83,24.15,8.04c4.44,8.88,0.83,19.71-8.04,24.16c-7.86,3.93-17.25,1.55-22.39-5.21l1.89-0.95
	c4.59,5.74,12.73,7.72,19.56,4.3c7.85-3.93,11.04-13.51,7.11-21.37C30.31,5.02,20.73,1.83,12.88,5.76
	C5.02,9.69,1.83,19.28,5.76,27.13c0.17,0.33,0.34,0.65,0.53,0.96l-1.86,0.93c-0.18-0.32-0.36-0.64-0.52-0.96
	C-0.54,19.18,3.07,8.34,11.94,3.9z"/>
</svg>
