<svg height="20" viewBox="0 0 20 20" width="20" xmlns="http://www.w3.org/2000/svg" xmlns:xlink="http://www.w3.org/1999/xlink"><defs><path id="a" d="m5.52514452 1.05628771c4.93190428-2.46787615 10.95152108-.46304744 13.41939728 4.46885681 2.4672348 4.93126288.4630474 10.95152108-4.4688569 13.41939728-4.3675251 2.1850452-9.58610827.8606782-12.43750571-2.8950086l1.05179752-.5265401c2.54868499 3.1913076 7.07269699 4.2886403 10.86942959 2.3889913 4.3623944-2.1824798 6.1356993-7.5075255 3.9525781-11.87056121-2.1824798-4.36239438-7.5075255-6.13569936-11.86991987-3.95257815-4.36303572 2.18312121-6.1363407 7.50816686-3.95321949 11.87056126.09171162.1827819.19047797.3597917.29309236.5335948l-1.03512269.5175614c-.10133171-.1744445-.19881538-.3520957-.290527-.5348776-2.46787615-4.93190421-.46304744-10.95152104 4.46885681-13.41939719zm1.14947361 4.85475107c.15969365-.27641752.51307196-.37197718.79077216-.21164219l6.55962511 3.78711244c.1789338.10325573.2892443.29437504.2892443.50152784 0 .20651143-.1103105.39763073-.2892443.50152783l-7.16697405 4.0904663c-.04681781.0269362-.09555965.0461764-.14494283.0590032v-1.3089748l5.86505388-3.34202253-4.82351779-2.78469808v4.17897111l-1.15761862.6669936v-5.8490204c.00256536-.09812502.02437092-.19753271.07760214-.28924432z"/><mask id="b" fill="#fff"><use fill="#fff" fill-rule="evenodd" xlink:href="#a"/></mask></defs><g fill="none" fill-rule="evenodd"><use fill="#13112b" xlink:href="#a"/><g fill="#707070" mask="url(#b)"><path d="m0 0h83.333333v83.333333h-83.333333z" transform="translate(-31.666667 -30)"/></g></g></svg>