<?xml version="1.0" encoding="utf-8"?>
<!-- Generator: Adobe Illustrator 24.0.2, SVG Export Plug-In . SVG Version: 6.00 Build 0)  -->
<svg version="1.1" id="Capa_1" xmlns="http://www.w3.org/2000/svg" xmlns:xlink="http://www.w3.org/1999/xlink" x="0px" y="0px"
	 viewBox="0 0 14 158.8" style="enable-background:new 0 0 14 158.8;" xml:space="preserve">
<style type="text/css">
	.st0{fill:#1F0D4C;}
	.st1{enable-background:new    ;}
</style>
<g transform="translate(-0.323 159.491) rotate(-90)">
	<path class="st0" d="M4.5,13.3v-0.9h46.6v0.9H4.5z M4.5,4.7L4.5,4.7h1.6l1.4,3.7L9,4.7h1.6L8.4,10H6.7C6.7,10,4.5,4.7,4.5,4.7z
		 M4.5,2.2V1.3h46.6v0.9L4.5,2.2z M11.1,5.6V4.7h3.5v0.9h-1V9h1V10h-3.5V9h1V5.6H11.1z M15.5,7.3c0-0.8,0.3-1.5,0.9-2
		c0.7-0.5,1.6-0.8,2.4-0.8c0.4,0,0.8,0,1.1,0.1c0.4,0.1,0.8,0.2,1.2,0.4v1.2H21c-0.1,0-0.2-0.1-0.3-0.2c-0.1-0.1-0.3-0.2-0.4-0.2
		c-0.2-0.1-0.4-0.2-0.5-0.2c-0.2-0.1-0.4-0.1-0.7-0.1c-0.3,0-0.5,0-0.7,0.1C18,5.7,17.8,5.8,17.7,6c-0.2,0.1-0.3,0.3-0.4,0.5
		c-0.1,0.2-0.2,0.5-0.1,0.8c0,0.5,0.2,1,0.5,1.4c0.4,0.3,1,0.5,1.6,0.5c0.1,0,0.1,0,0.2,0s0.1,0,0.2,0v-1h-1.2v-1h2.8v2.6
		c-0.3,0.1-0.7,0.2-1.1,0.3c-0.4,0.1-0.9,0.1-1.3,0.1c-0.9,0-1.7-0.2-2.4-0.7C15.8,8.8,15.5,8.1,15.5,7.3z M22.2,5.6V4.7h3.5v0.9h-1
		V9h1V10h-3.5V9h1V5.6H22.2z M27,10V4.7h1.5V9h2.8v1H27L27,10z M31.5,10L31.5,10l2.2-5.3h1.8l2.2,5.3h-1.6l-0.4-1.1h-2.2L33.1,10
		L31.5,10L31.5,10z M35.3,7.9L34.6,6l-0.7,1.9L35.3,7.9z M38.5,10V4.7h2.2c0.4,0,0.8,0,1.3,0.1c0.3,0.1,0.6,0.2,0.9,0.3
		c0.4,0.2,0.7,0.5,1,0.9c0.2,0.4,0.4,0.9,0.4,1.3c0,0.5-0.1,0.9-0.4,1.3c-0.2,0.4-0.6,0.7-1,0.9c-0.3,0.2-0.6,0.3-1,0.3
		C41.5,10,41.1,10,40.6,10H38.5z M42.6,7.3c0-0.3-0.1-0.6-0.2-0.9C42.2,6.2,42,6,41.7,5.8c-0.2-0.1-0.3-0.1-0.5-0.1
		c-0.2,0-0.5,0-0.7,0h-0.4V9h0.4c0.3,0,0.5,0,0.8,0c0.2,0,0.3-0.1,0.5-0.2c0.3-0.1,0.5-0.3,0.6-0.6C42.5,7.9,42.6,7.6,42.6,7.3z
		 M45,7.3c0-0.8,0.3-1.5,0.8-2c0.6-0.5,1.4-0.8,2.3-0.7c0.8,0,1.6,0.2,2.3,0.7c0.6,0.5,0.9,1.3,0.8,2c0,0.8-0.3,1.5-0.8,2
		c-0.6,0.5-1.4,0.8-2.3,0.7c-0.8,0-1.6-0.2-2.3-0.7C45.3,8.8,45,8.1,45,7.3z M49.5,7.3c0-0.3,0-0.6-0.1-0.8
		c-0.1-0.2-0.2-0.4-0.3-0.5c-0.1-0.1-0.3-0.2-0.5-0.3c-0.4-0.1-0.7-0.1-1.1,0C47.3,5.7,47.2,5.8,47,6c-0.1,0.2-0.3,0.3-0.3,0.6
		c-0.1,0.3-0.1,0.5-0.1,0.8c0,0.3,0,0.5,0.1,0.8c0.1,0.2,0.2,0.4,0.3,0.5c0.1,0.1,0.3,0.2,0.5,0.3c0.2,0.1,0.4,0.1,0.6,0.1
		c0.2,0,0.4,0,0.6-0.1c0.2-0.1,0.3-0.2,0.5-0.3c0.2-0.2,0.3-0.4,0.3-0.6C49.5,7.8,49.6,7.6,49.5,7.3z"/>
	<g class="st1">
		<path class="st0" d="M58.4,6.4c-0.3,0-0.6,0-0.8-0.1s-0.4-0.1-0.6-0.2V5.3h0c0.2,0.2,0.4,0.3,0.6,0.4s0.5,0.1,0.7,0.1
			c0.3,0,0.6-0.1,0.7-0.2c0.2-0.1,0.2-0.3,0.2-0.5c0-0.2,0-0.3-0.1-0.4s-0.2-0.2-0.4-0.2c-0.1,0-0.3-0.1-0.4-0.1
			c-0.1,0-0.2-0.1-0.4-0.1c-0.1,0-0.3-0.1-0.4-0.1c-0.1-0.1-0.2-0.1-0.3-0.2c-0.1-0.1-0.2-0.2-0.2-0.3S57,3.3,57,3.2
			c0-0.3,0.1-0.6,0.4-0.9s0.6-0.4,1-0.4c0.2,0,0.5,0,0.7,0.1c0.2,0,0.4,0.1,0.6,0.2v0.7h0c-0.1-0.1-0.3-0.2-0.5-0.3
			c-0.2-0.1-0.4-0.1-0.7-0.1c-0.3,0-0.5,0.1-0.6,0.2c-0.2,0.1-0.2,0.3-0.2,0.5c0,0.2,0,0.3,0.1,0.4c0.1,0.1,0.2,0.2,0.4,0.2
			c0.1,0,0.3,0.1,0.4,0.1C58.8,3.9,58.9,4,59,4c0.3,0.1,0.5,0.2,0.7,0.4c0.1,0.2,0.2,0.4,0.2,0.7c0,0.2,0,0.3-0.1,0.5
			S59.6,5.9,59.5,6c-0.1,0.1-0.3,0.2-0.5,0.3C58.8,6.4,58.6,6.4,58.4,6.4z"/>
		<path class="st0" d="M62.2,6.4c-0.3,0-0.5,0-0.7-0.1C61.3,6.2,61.2,6.1,61,6c-0.2-0.2-0.3-0.3-0.3-0.5c-0.1-0.2-0.1-0.5-0.1-0.8V2
			h0.6v2.7c0,0.2,0,0.4,0,0.5c0,0.1,0.1,0.3,0.1,0.4c0.1,0.1,0.2,0.2,0.3,0.3c0.1,0.1,0.3,0.1,0.5,0.1c0.2,0,0.3,0,0.5-0.1
			c0.1-0.1,0.2-0.1,0.3-0.3c0.1-0.1,0.1-0.2,0.1-0.4c0-0.1,0-0.3,0-0.5V2h0.6v2.7c0,0.3,0,0.6-0.1,0.8c-0.1,0.2-0.2,0.4-0.3,0.5
			c-0.1,0.1-0.3,0.2-0.5,0.3C62.7,6.4,62.4,6.4,62.2,6.4z"/>
		<path class="st0" d="M67.5,3.3c0,0.2,0,0.4-0.1,0.5s-0.2,0.3-0.3,0.4c-0.1,0.1-0.3,0.3-0.5,0.3c-0.2,0.1-0.5,0.1-0.8,0.1h-0.5v1.6
			h-0.6V2h1.1c0.3,0,0.5,0,0.7,0.1c0.2,0,0.3,0.1,0.5,0.2c0.2,0.1,0.3,0.2,0.4,0.4C67.5,2.9,67.5,3.1,67.5,3.3z M66.9,3.3
			c0-0.1,0-0.3-0.1-0.4c-0.1-0.1-0.1-0.2-0.2-0.3c-0.1-0.1-0.2-0.1-0.3-0.1c-0.1,0-0.3,0-0.5,0h-0.5v1.7h0.4c0.2,0,0.4,0,0.6-0.1
			c0.1,0,0.3-0.1,0.4-0.2c0.1-0.1,0.1-0.2,0.2-0.3C66.9,3.6,66.9,3.5,66.9,3.3z"/>
		<path class="st0" d="M68.3,6.3V2H71v0.5h-2.1v1.2h2v0.5h-2v1.6H71v0.5H68.3z"/>
		<path class="st0" d="M75.1,6.3h-0.7L73,4.6h-0.7v1.7h-0.6V2h1.1c0.2,0,0.5,0,0.6,0c0.2,0,0.3,0.1,0.5,0.2c0.2,0.1,0.3,0.2,0.4,0.4
			s0.1,0.3,0.1,0.6c0,0.3-0.1,0.6-0.2,0.8s-0.4,0.4-0.7,0.5L75.1,6.3z M73.9,3.2c0-0.1,0-0.2-0.1-0.3c0-0.1-0.1-0.2-0.2-0.2
			c-0.1-0.1-0.2-0.1-0.3-0.1c-0.1,0-0.2,0-0.4,0h-0.6v1.6h0.5c0.2,0,0.3,0,0.4,0c0.1,0,0.2-0.1,0.3-0.2c0.1-0.1,0.1-0.2,0.2-0.3
			C73.9,3.5,73.9,3.4,73.9,3.2z"/>
		<path class="st0" d="M77.2,6.3h-1.7V5.9h0.5V2.5h-0.5V2h1.7v0.4h-0.5v3.4h0.5V6.3z"/>
		<path class="st0" d="M81.2,6.3h-0.6l-1.9-3.7v3.7h-0.5V2h0.8l1.7,3.4V2h0.5V6.3z"/>
		<path class="st0" d="M83.3,6.3V2.5h-1.4V2h3.5v0.5h-1.4v3.8H83.3z"/>
		<path class="st0" d="M86,6.3V2h2.7v0.5h-2.1v1.2h2v0.5h-2v1.6h2.1v0.5H86z"/>
		<path class="st0" d="M92.6,6.3H92l-1.9-3.7v3.7h-0.5V2h0.8l1.7,3.4V2h0.5V6.3z"/>
		<path class="st0" d="M97.1,4.2c0,0.4-0.1,0.7-0.2,1.1c-0.2,0.3-0.4,0.6-0.6,0.7c-0.2,0.1-0.4,0.2-0.7,0.3S95,6.3,94.7,6.3h-1V2h1
			c0.4,0,0.7,0,1,0.1c0.2,0.1,0.4,0.1,0.6,0.2c0.3,0.2,0.5,0.4,0.6,0.7S97.1,3.8,97.1,4.2z M96.5,4.2c0-0.3-0.1-0.6-0.2-0.8
			s-0.3-0.4-0.5-0.5c-0.2-0.1-0.3-0.2-0.5-0.2c-0.2,0-0.4-0.1-0.6-0.1h-0.4v3.3h0.4c0.3,0,0.5,0,0.7-0.1c0.2,0,0.4-0.1,0.5-0.2
			c0.2-0.1,0.3-0.3,0.4-0.5C96.4,4.8,96.5,4.5,96.5,4.2z"/>
		<path class="st0" d="M97.9,6.3V2h2.7v0.5h-2.1v1.2h2v0.5h-2v1.6h2.1v0.5H97.9z"/>
		<path class="st0" d="M104.5,6.3h-0.6L102,2.6v3.7h-0.5V2h0.8l1.7,3.4V2h0.5V6.3z"/>
		<path class="st0" d="M107.3,6.4c-0.3,0-0.5,0-0.8-0.1c-0.2-0.1-0.4-0.2-0.6-0.4c-0.2-0.2-0.3-0.4-0.4-0.7s-0.1-0.6-0.1-1
			c0-0.4,0-0.7,0.1-0.9c0.1-0.3,0.2-0.5,0.4-0.7c0.2-0.2,0.4-0.3,0.6-0.4c0.2-0.1,0.5-0.2,0.8-0.2c0.1,0,0.3,0,0.4,0
			c0.1,0,0.2,0,0.4,0.1c0.1,0,0.2,0.1,0.3,0.1c0.1,0,0.2,0.1,0.3,0.1V3h0c-0.1,0-0.1-0.1-0.2-0.2s-0.2-0.1-0.3-0.2
			c-0.1-0.1-0.2-0.1-0.4-0.1c-0.1,0-0.3-0.1-0.4-0.1c-0.2,0-0.4,0-0.5,0.1c-0.2,0.1-0.3,0.2-0.4,0.3c-0.1,0.1-0.2,0.3-0.3,0.6
			S106,3.9,106,4.2c0,0.3,0,0.5,0.1,0.8s0.2,0.4,0.3,0.5c0.1,0.1,0.3,0.3,0.4,0.3c0.2,0.1,0.3,0.1,0.5,0.1c0.2,0,0.3,0,0.5-0.1
			c0.1,0,0.3-0.1,0.4-0.2c0.1-0.1,0.2-0.1,0.3-0.2c0.1-0.1,0.1-0.1,0.2-0.2h0V6c-0.1,0-0.2,0.1-0.3,0.1c-0.1,0-0.2,0.1-0.3,0.1
			c-0.1,0-0.2,0.1-0.3,0.1C107.6,6.4,107.5,6.4,107.3,6.4z"/>
		<path class="st0" d="M110.9,6.3h-1.7V5.9h0.5V2.5h-0.5V2h1.7v0.4h-0.5v3.4h0.5V6.3z"/>
		<path class="st0" d="M111.4,6.3l1.5-4.3h0.7l1.5,4.3h-0.6L114,5.1h-1.6L112,6.3H111.4z M113.8,4.6l-0.7-2l-0.7,2H113.8z"/>
		<path class="st0" d="M120.3,2.5h-2v1.2h1.9v0.5h-1.9v2.1h-0.6V2h2.6V2.5z"/>
		<path class="st0" d="M122.5,6.3h-1.7V5.9h0.5V2.5h-0.5V2h1.7v0.4h-0.5v3.4h0.5V6.3z"/>
		<path class="st0" d="M126.5,6.3h-0.6L124,2.6v3.7h-0.5V2h0.8l1.7,3.4V2h0.5V6.3z"/>
		<path class="st0" d="M127.1,6.3l1.5-4.3h0.7l1.5,4.3h-0.6l-0.4-1.2h-1.6l-0.4,1.2H127.1z M129.6,4.6l-0.7-2l-0.7,2H129.6z"/>
		<path class="st0" d="M134.4,6.3h-0.6l-1.9-3.7v3.7h-0.5V2h0.8l1.7,3.4V2h0.5V6.3z"/>
		<path class="st0" d="M137.2,6.4c-0.3,0-0.5,0-0.8-0.1c-0.2-0.1-0.4-0.2-0.6-0.4c-0.2-0.2-0.3-0.4-0.4-0.7s-0.1-0.6-0.1-1
			c0-0.4,0-0.7,0.1-0.9c0.1-0.3,0.2-0.5,0.4-0.7c0.2-0.2,0.4-0.3,0.6-0.4c0.2-0.1,0.5-0.2,0.8-0.2c0.1,0,0.3,0,0.4,0
			c0.1,0,0.2,0,0.4,0.1c0.1,0,0.2,0.1,0.3,0.1c0.1,0,0.2,0.1,0.3,0.1V3h0c-0.1,0-0.1-0.1-0.2-0.2s-0.2-0.1-0.3-0.2
			c-0.1-0.1-0.2-0.1-0.4-0.1c-0.1,0-0.3-0.1-0.4-0.1c-0.2,0-0.4,0-0.5,0.1c-0.2,0.1-0.3,0.2-0.4,0.3c-0.1,0.1-0.2,0.3-0.3,0.6
			s-0.1,0.5-0.1,0.7c0,0.3,0,0.5,0.1,0.8s0.2,0.4,0.3,0.5c0.1,0.1,0.3,0.3,0.4,0.3c0.2,0.1,0.3,0.1,0.5,0.1c0.2,0,0.3,0,0.5-0.1
			c0.1,0,0.3-0.1,0.4-0.2c0.1-0.1,0.2-0.1,0.3-0.2c0.1-0.1,0.1-0.1,0.2-0.2h0V6c-0.1,0-0.2,0.1-0.3,0.1c-0.1,0-0.2,0.1-0.3,0.1
			c-0.1,0-0.2,0.1-0.3,0.1C137.5,6.4,137.4,6.4,137.2,6.4z"/>
		<path class="st0" d="M140.8,6.3h-1.7V5.9h0.5V2.5h-0.5V2h1.7v0.4h-0.5v3.4h0.5V6.3z"/>
		<path class="st0" d="M141.7,6.3V2h2.7v0.5h-2.1v1.2h2v0.5h-2v1.6h2.1v0.5H141.7z"/>
		<path class="st0" d="M148.6,6.3h-0.7l-1.4-1.7h-0.7v1.7h-0.6V2h1.1c0.2,0,0.5,0,0.6,0c0.2,0,0.3,0.1,0.5,0.2
			c0.2,0.1,0.3,0.2,0.4,0.4S148,3,148,3.2c0,0.3-0.1,0.6-0.2,0.8s-0.4,0.4-0.7,0.5L148.6,6.3z M147.4,3.2c0-0.1,0-0.2-0.1-0.3
			c0-0.1-0.1-0.2-0.2-0.2c-0.1-0.1-0.2-0.1-0.3-0.1c-0.1,0-0.2,0-0.4,0h-0.6v1.6h0.5c0.2,0,0.3,0,0.4,0c0.1,0,0.2-0.1,0.3-0.2
			c0.1-0.1,0.1-0.2,0.2-0.3C147.4,3.5,147.4,3.4,147.4,3.2z"/>
		<path class="st0" d="M148.7,6.3l1.5-4.3h0.7l1.5,4.3h-0.6l-0.4-1.2h-1.6l-0.4,1.2H148.7z M151.2,4.6l-0.7-2l-0.7,2H151.2z"/>
	</g>
	<g class="st1">
		<path class="st0" d="M88.3,11.2c0,0.4-0.1,0.7-0.2,1.1c-0.2,0.3-0.4,0.6-0.6,0.7c-0.2,0.1-0.4,0.2-0.7,0.3s-0.5,0.1-0.9,0.1h-1V9
			h1c0.4,0,0.7,0,1,0.1c0.2,0.1,0.4,0.1,0.6,0.2c0.3,0.2,0.5,0.4,0.6,0.7S88.3,10.8,88.3,11.2z M87.7,11.2c0-0.3-0.1-0.6-0.2-0.8
			s-0.3-0.4-0.5-0.5c-0.2-0.1-0.3-0.2-0.5-0.2c-0.2,0-0.4-0.1-0.6-0.1h-0.4v3.3h0.4c0.3,0,0.5,0,0.7-0.1c0.2,0,0.4-0.1,0.5-0.2
			c0.2-0.1,0.3-0.3,0.4-0.5C87.7,11.8,87.7,11.5,87.7,11.2z"/>
		<path class="st0" d="M89.1,13.3V9h2.7v0.5h-2.1v1.2h2v0.5h-2v1.6h2.1v0.5H89.1z"/>
		<path class="st0" d="M96.4,13.4c-0.3,0-0.5,0-0.8-0.1c-0.2-0.1-0.4-0.2-0.6-0.4c-0.2-0.2-0.3-0.4-0.4-0.7s-0.1-0.6-0.1-1
			c0-0.4,0-0.7,0.1-0.9c0.1-0.3,0.2-0.5,0.4-0.7c0.2-0.2,0.4-0.3,0.6-0.4c0.2-0.1,0.5-0.2,0.8-0.2c0.1,0,0.3,0,0.4,0
			c0.1,0,0.2,0,0.4,0.1c0.1,0,0.2,0.1,0.3,0.1c0.1,0,0.2,0.1,0.3,0.1V10h0c-0.1,0-0.1-0.1-0.2-0.2s-0.2-0.1-0.3-0.2
			c-0.1-0.1-0.2-0.1-0.4-0.1c-0.1,0-0.3-0.1-0.4-0.1c-0.2,0-0.4,0-0.5,0.1c-0.2,0.1-0.3,0.2-0.4,0.3c-0.1,0.1-0.2,0.3-0.3,0.6
			s-0.1,0.5-0.1,0.7c0,0.3,0,0.5,0.1,0.8s0.2,0.4,0.3,0.5c0.1,0.1,0.3,0.3,0.4,0.3c0.2,0.1,0.3,0.1,0.5,0.1c0.2,0,0.3,0,0.5-0.1
			c0.1,0,0.3-0.1,0.4-0.2c0.1-0.1,0.2-0.1,0.3-0.2c0.1-0.1,0.1-0.1,0.2-0.2h0V13c-0.1,0-0.2,0.1-0.3,0.1c-0.1,0-0.2,0.1-0.3,0.1
			c-0.1,0-0.2,0.1-0.3,0.1C96.8,13.4,96.6,13.4,96.4,13.4z"/>
		<path class="st0" d="M101.6,9.5c0.2,0.2,0.3,0.4,0.4,0.7c0.1,0.3,0.1,0.6,0.1,1c0,0.3,0,0.7-0.1,0.9c-0.1,0.3-0.2,0.5-0.4,0.7
			c-0.2,0.2-0.4,0.3-0.6,0.4c-0.2,0.1-0.5,0.1-0.8,0.1c-0.3,0-0.6,0-0.8-0.1c-0.2-0.1-0.4-0.2-0.6-0.4c-0.2-0.2-0.3-0.4-0.4-0.7
			c-0.1-0.3-0.1-0.6-0.1-0.9c0-0.4,0-0.7,0.1-1c0.1-0.3,0.2-0.5,0.4-0.7c0.2-0.2,0.4-0.3,0.6-0.4c0.2-0.1,0.5-0.1,0.8-0.1
			c0.3,0,0.6,0.1,0.8,0.2C101.2,9.2,101.4,9.3,101.6,9.5z M101.5,11.2c0-0.3,0-0.5-0.1-0.8c-0.1-0.2-0.1-0.4-0.3-0.5
			c-0.1-0.1-0.3-0.3-0.4-0.3c-0.2-0.1-0.3-0.1-0.5-0.1c-0.2,0-0.4,0-0.5,0.1s-0.3,0.2-0.4,0.3C99.1,10,99,10.2,99,10.4
			c-0.1,0.2-0.1,0.5-0.1,0.8c0,0.6,0.1,1,0.4,1.3c0.2,0.3,0.6,0.4,1,0.4c0.4,0,0.7-0.1,1-0.4C101.4,12.2,101.5,11.7,101.5,11.2z"/>
		<path class="st0" d="M105.4,13.3h-2.5V9h0.6v3.8h1.9V13.3z"/>
		<path class="st0" d="M109.1,9.5c0.2,0.2,0.3,0.4,0.4,0.7c0.1,0.3,0.1,0.6,0.1,1c0,0.3,0,0.7-0.1,0.9c-0.1,0.3-0.2,0.5-0.4,0.7
			c-0.2,0.2-0.4,0.3-0.6,0.4c-0.2,0.1-0.5,0.1-0.8,0.1c-0.3,0-0.6,0-0.8-0.1c-0.2-0.1-0.4-0.2-0.6-0.4c-0.2-0.2-0.3-0.4-0.4-0.7
			c-0.1-0.3-0.1-0.6-0.1-0.9c0-0.4,0-0.7,0.1-1c0.1-0.3,0.2-0.5,0.4-0.7c0.2-0.2,0.4-0.3,0.6-0.4c0.2-0.1,0.5-0.1,0.8-0.1
			c0.3,0,0.6,0.1,0.8,0.2C108.7,9.2,108.9,9.3,109.1,9.5z M109,11.2c0-0.3,0-0.5-0.1-0.8c-0.1-0.2-0.1-0.4-0.3-0.5
			c-0.1-0.1-0.3-0.3-0.4-0.3c-0.2-0.1-0.3-0.1-0.5-0.1c-0.2,0-0.4,0-0.5,0.1s-0.3,0.2-0.4,0.3c-0.1,0.1-0.2,0.3-0.3,0.6
			c-0.1,0.2-0.1,0.5-0.1,0.8c0,0.6,0.1,1,0.4,1.3c0.2,0.3,0.6,0.4,1,0.4c0.4,0,0.7-0.1,1-0.4C108.9,12.2,109,11.7,109,11.2z"/>
		<path class="st0" d="M114.2,13.3h-0.6V9.6l-1.1,2.5h-0.3L111,9.6v3.7h-0.5V9h0.8l1.1,2.4l1-2.4h0.8V13.3z"/>
		<path class="st0" d="M118.2,12c0,0.2,0,0.4-0.1,0.6s-0.2,0.3-0.3,0.4c-0.2,0.1-0.3,0.2-0.5,0.3c-0.2,0.1-0.4,0.1-0.7,0.1h-1.2V9
			h1.1c0.3,0,0.5,0,0.7,0s0.3,0.1,0.4,0.1c0.2,0.1,0.3,0.2,0.3,0.3S118,9.8,118,10c0,0.2-0.1,0.4-0.2,0.5s-0.3,0.3-0.4,0.4v0
			c0.3,0.1,0.5,0.2,0.6,0.4C118.1,11.5,118.2,11.7,118.2,12z M117.4,10.1c0-0.1,0-0.2-0.1-0.3s-0.1-0.1-0.2-0.2
			c-0.1-0.1-0.2-0.1-0.3-0.1s-0.3,0-0.5,0h-0.5v1.3h0.7c0.2,0,0.3,0,0.4,0c0.1,0,0.2-0.1,0.3-0.1c0.1-0.1,0.1-0.1,0.2-0.2
			C117.4,10.3,117.4,10.2,117.4,10.1z M117.6,12c0-0.2,0-0.3-0.1-0.4c0-0.1-0.1-0.2-0.3-0.3c-0.1,0-0.2-0.1-0.3-0.1s-0.3,0-0.5,0
			h-0.7v1.6h0.5c0.3,0,0.4,0,0.6,0s0.3-0.1,0.4-0.1c0.1-0.1,0.2-0.2,0.2-0.3C117.5,12.3,117.6,12.2,117.6,12z"/>
		<path class="st0" d="M120.5,13.3h-1.7v-0.4h0.5V9.5h-0.5V9h1.7v0.4h-0.5v3.4h0.5V13.3z"/>
		<path class="st0" d="M120.9,13.3l1.5-4.3h0.7l1.5,4.3h-0.6l-0.4-1.2h-1.6l-0.4,1.2H120.9z M123.4,11.6l-0.7-2l-0.7,2H123.4z"/>
	</g>
</g>
</svg>
