<svg xmlns="http://www.w3.org/2000/svg" xmlns:xlink="http://www.w3.org/1999/xlink" width="14" height="158.814" viewBox="0 0 14 158.814"><defs><style>.a,.c{fill:#1f0d4c;}.b{clip-path:url(#a);}.c{font-size:5.922px;font-family:Tahoma;letter-spacing:0.037em;}</style><clipPath id="a"><path class="a" d="M12,46.646h-.923V0H12Zm-8.657,0h0V45.028l3.732-1.444L3.342,42.141V40.563l5.317,2.18v1.725L3.343,46.646Zm-2.418,0H0V0H.923ZM4.284,40H3.342V36.5h.942v.979H7.717V36.5h.942V40H7.717V39.02H4.284V40ZM6,35.618a2.534,2.534,0,0,1-2-.869,3.6,3.6,0,0,1-.758-2.427A6.467,6.467,0,0,1,3.333,31.2a5.352,5.352,0,0,1,.377-1.186H4.955v.17c-.049.076-.121.186-.212.33a4.045,4.045,0,0,0-.234.418,2.75,2.75,0,0,0-.2.544,2.474,2.474,0,0,0-.083.659,2.409,2.409,0,0,0,.107.743,1.773,1.773,0,0,0,.328.6,1.514,1.514,0,0,0,.544.4,1.859,1.859,0,0,0,.761.148,1.723,1.723,0,0,0,1.353-.526,2.291,2.291,0,0,0,.467-1.553c0-.058,0-.125-.005-.194s0-.122-.01-.194H6.733v1.19h-1V29.985H8.354a8.571,8.571,0,0,1,.278,1.064,6.5,6.5,0,0,1,.137,1.319,3.568,3.568,0,0,1-.738,2.388A2.54,2.54,0,0,1,6,35.618ZM4.284,28.9H3.342V25.4h.942v.978H7.717V25.4h.942v3.5H7.717v-.978H4.284V28.9Zm4.375-4.729H3.342V22.631H7.631V19.859H8.659V24.17Zm0-4.548h0l-5.317-2.2V15.646l5.318-2.207v1.592l-1.076.415v2.21l1.076.417v1.549Zm-2.05-3.807L4.7,16.552l1.905.733ZM8.659,12.6H3.342V10.438a6.343,6.343,0,0,1,.109-1.26,3.115,3.115,0,0,1,.309-.89,2.569,2.569,0,0,1,.905-.973A2.493,2.493,0,0,1,6,6.962a2.4,2.4,0,0,1,1.331.379,2.676,2.676,0,0,1,.9.965,3.238,3.238,0,0,1,.329.957A7.269,7.269,0,0,1,8.659,10.5v2.1ZM6,8.554a1.81,1.81,0,0,0-.9.212,1.458,1.458,0,0,0-.583.681,1.884,1.884,0,0,0-.14.483,5.357,5.357,0,0,0-.037.744v.389H7.664v-.389a5.2,5.2,0,0,0-.045-.806,2,2,0,0,0-.162-.5,1.409,1.409,0,0,0-.574-.617A1.837,1.837,0,0,0,6,8.554ZM6,6.158a2.608,2.608,0,0,1-2.026-.819,3.236,3.236,0,0,1-.744-2.257A3.257,3.257,0,0,1,3.975.823,2.6,2.6,0,0,1,6,0a2.61,2.61,0,0,1,2.02.818,3.237,3.237,0,0,1,.748,2.263,3.222,3.222,0,0,1-.748,2.257A2.608,2.608,0,0,1,6,6.158ZM6,1.6a2.364,2.364,0,0,0-.813.124,1.51,1.51,0,0,0-.544.325,1.186,1.186,0,0,0-.31.472,1.658,1.658,0,0,0,0,1.106,1.279,1.279,0,0,0,.307.475,1.44,1.44,0,0,0,.552.327A2.391,2.391,0,0,0,6,4.558a2.385,2.385,0,0,0,.81-.122,1.63,1.63,0,0,0,.546-.321,1.306,1.306,0,0,0,.31-.471,1.647,1.647,0,0,0,.1-.567,1.613,1.613,0,0,0-.1-.564,1.255,1.255,0,0,0-.317-.47,1.52,1.52,0,0,0-.573-.333A2.5,2.5,0,0,0,6,1.6Z" transform="translate(47.323 1.324) rotate(90)"/></clipPath></defs><g transform="translate(-0.323 159.491) rotate(-90)"><path class="a" d="M12,46.646h-.923V0H12Zm-8.657,0h0V45.028l3.732-1.444L3.342,42.141V40.563l5.317,2.18v1.725L3.343,46.646Zm-2.418,0H0V0H.923ZM4.284,40H3.342V36.5h.942v.979H7.717V36.5h.942V40H7.717V39.02H4.284V40ZM6,35.618a2.534,2.534,0,0,1-2-.869,3.6,3.6,0,0,1-.758-2.427A6.467,6.467,0,0,1,3.333,31.2a5.352,5.352,0,0,1,.377-1.186H4.955v.17c-.049.076-.121.186-.212.33a4.045,4.045,0,0,0-.234.418,2.75,2.75,0,0,0-.2.544,2.474,2.474,0,0,0-.083.659,2.409,2.409,0,0,0,.107.743,1.773,1.773,0,0,0,.328.6,1.514,1.514,0,0,0,.544.4,1.859,1.859,0,0,0,.761.148,1.723,1.723,0,0,0,1.353-.526,2.291,2.291,0,0,0,.467-1.553c0-.058,0-.125-.005-.194s0-.122-.01-.194H6.733v1.19h-1V29.985H8.354a8.571,8.571,0,0,1,.278,1.064,6.5,6.5,0,0,1,.137,1.319,3.568,3.568,0,0,1-.738,2.388A2.54,2.54,0,0,1,6,35.618ZM4.284,28.9H3.342V25.4h.942v.978H7.717V25.4h.942v3.5H7.717v-.978H4.284V28.9Zm4.375-4.729H3.342V22.631H7.631V19.859H8.659V24.17Zm0-4.548h0l-5.317-2.2V15.646l5.318-2.207v1.592l-1.076.415v2.21l1.076.417v1.549Zm-2.05-3.807L4.7,16.552l1.905.733ZM8.659,12.6H3.342V10.438a6.343,6.343,0,0,1,.109-1.26,3.115,3.115,0,0,1,.309-.89,2.569,2.569,0,0,1,.905-.973A2.493,2.493,0,0,1,6,6.962a2.4,2.4,0,0,1,1.331.379,2.676,2.676,0,0,1,.9.965,3.238,3.238,0,0,1,.329.957A7.269,7.269,0,0,1,8.659,10.5v2.1ZM6,8.554a1.81,1.81,0,0,0-.9.212,1.458,1.458,0,0,0-.583.681,1.884,1.884,0,0,0-.14.483,5.357,5.357,0,0,0-.037.744v.389H7.664v-.389a5.2,5.2,0,0,0-.045-.806,2,2,0,0,0-.162-.5,1.409,1.409,0,0,0-.574-.617A1.837,1.837,0,0,0,6,8.554ZM6,6.158a2.608,2.608,0,0,1-2.026-.819,3.236,3.236,0,0,1-.744-2.257A3.257,3.257,0,0,1,3.975.823,2.6,2.6,0,0,1,6,0a2.61,2.61,0,0,1,2.02.818,3.237,3.237,0,0,1,.748,2.263,3.222,3.222,0,0,1-.748,2.257A2.608,2.608,0,0,1,6,6.158ZM6,1.6a2.364,2.364,0,0,0-.813.124,1.51,1.51,0,0,0-.544.325,1.186,1.186,0,0,0-.31.472,1.658,1.658,0,0,0,0,1.106,1.279,1.279,0,0,0,.307.475,1.44,1.44,0,0,0,.552.327A2.391,2.391,0,0,0,6,4.558a2.385,2.385,0,0,0,.81-.122,1.63,1.63,0,0,0,.546-.321,1.306,1.306,0,0,0,.31-.471,1.647,1.647,0,0,0,.1-.567,1.613,1.613,0,0,0-.1-.564,1.255,1.255,0,0,0-.317-.47,1.52,1.52,0,0,0-.573-.333A2.5,2.5,0,0,0,6,1.6Z" transform="translate(47.323 1.324) rotate(90)"/><text class="c" transform="translate(45.491 0.323)"><tspan x="-47.798" y="6">SUPERINTENDENCIA FINANCIERA </tspan><tspan x="-20.044" y="13">DE COLOMBIA</tspan></text></g></svg>