<svg xmlns="http://www.w3.org/2000/svg" width="141.459" height="67.712" viewBox="0 0 141.459 67.712"><defs><style>.a{fill:#1a1446;}.a,.b{fill-rule:evenodd;}.b,.c{fill:#fff;}</style></defs><g transform="translate(-7179.511 273.952)"><g transform="translate(7225.222 -259.832)"><path class="a" d="M305.591,135.7c-1.56.2-2.191,1.859-2.191,4.083C303.433,137.526,304.064,135.9,305.591,135.7Z" transform="translate(-249.125 -106.62)"/><path class="a" d="M300.311,133.7c-4.05,0-5.311,2.822-5.311,4.581C295,136.555,296.261,133.7,300.311,133.7Z" transform="translate(-243.513 -105.284)"/><path class="a" d="M295,147.5c0,2.257,1.759,4.614,5.311,4.614v-.033C296.759,152.081,295,149.791,295,147.5Z" transform="translate(-243.513 -114.503)"/><path class="a" d="M310.332,135.6a1.129,1.129,0,0,0-.332.033A1.023,1.023,0,0,1,310.332,135.6Z" transform="translate(-253.534 -106.553)"/><path class="b" d="M209.18,79.2h-.365a2.885,2.885,0,0,0-2.622-2.058c-.8,0-1.394.365-1.394.929,0,1.793,4.913,1.162,4.913,4.681a3.083,3.083,0,0,1-3.054,2.954,7.644,7.644,0,0,1-1.394-.166,4.378,4.378,0,0,0-1.029-.166,1.159,1.159,0,0,0-.8.332h-.365v-3.32h.365c.863,1.793,1.859,2.689,3.087,2.689a1.388,1.388,0,0,0,1.494-1.228c0-2.224-5.013-1.527-5.013-4.747a2.746,2.746,0,0,1,2.988-2.589,9.98,9.98,0,0,1,1.328.133c.432.066.8.133.963.133a.782.782,0,0,0,.5-.232h.365V79.2ZM196.7,76.516v.631c1.66,0,2.456,1.593,2.456,3.95,0,2.456-.9,3.984-2.456,3.984h0c-1.56,0-2.49-1.527-2.49-3.818,0-2.224.6-3.884,2.191-4.083.1,0,.2-.033.332-.033l-.033-.631Zm0,9.162h0c3.552.033,5.278-2.324,5.278-4.581,0-2.091-1.593-4.581-5.278-4.581-4.05,0-5.311,2.855-5.311,4.581,0,2.291,1.759,4.581,5.311,4.581ZM190.292,79.8A3,3,0,0,0,188.4,78.74c-.764,0-1.228.266-1.892,1.2v3.452c0,1.029.166,1.328,1.461,1.593v.365h-5.444v-.365c1.129-.3,1.427-.631,1.427-1.593V78.906a1.446,1.446,0,0,0-1.56-1.66v-.365l3.718-.365h.4v2.722h.033c.863-1.859,1.759-2.722,2.855-2.722a2.08,2.08,0,0,1,1.494.73l-.6,2.556ZM171.768,78.74c0-.963-.3-1.295-1.328-1.494v-.365l3.486-.365h.365V82.79a1.407,1.407,0,0,0,1.593,1.494c.863,0,1.394-.365,2.125-1.527V78.508c0-.7-.465-1.1-1.328-1.261v-.365l3.519-.365h.4v6.772c0,1.129.2,1.394,1.361,1.693v.365l-3.917.332V83.587h-.033a3.888,3.888,0,0,1-3.386,2.091,2.509,2.509,0,0,1-2.822-2.589V78.74Zm-9.428,1.2c0,1.66.764,2.722,1.925,2.722v.631c-1.494,0-2.39.232-2.39.9,0,.631,1.029.763,2.39.9v2.291a4.7,4.7,0,0,0-.631-.033c-1.427,0-2.357.5-2.357,1.295,0,1.1,1.527,1.693,3.021,1.959v1.627h-.166c-2.921,0-4.88-1.062-4.88-2.656,0-1.062,1.129-2.291,3.618-2.49v-.066c-2.589-.266-2.988-1.1-2.988-2.025,0-1,.764-1.461,2.755-1.892v-.033c-1.959-.631-2.855-1.56-2.855-2.988,0-1.959,1.759-3.519,4.315-3.519h.166v.631c-1.261.033-1.925.93-1.925,2.755ZM164.3,92.184h0c3.618-.066,5.444-1.925,5.444-3.851a2.709,2.709,0,0,0-.8-1.859c-1.1-1.062-3.12-1.261-4.681-1.427v2.291c1.494.1,4.05.531,4.05,2.025,0,.8-.93,1.394-2.191,1.394a10.158,10.158,0,0,1-1.859-.2v1.627Zm0-15.038h.1c.963,0,1.793.863,1.793,2.722,0,1.992-.863,2.788-1.892,2.788h0v.631c.133,0,.232-.033.365-.033,2.49,0,4.05-1.427,4.05-3.087a2.615,2.615,0,0,0-1.129-2.158l.066-.066,2.158.166V76.582h-4.448c-.133,0-.6-.033-1.062-.066v.631Zm-11.718,2.689h1.826v.531h-1.826c-.133,2.091.73,3.419,1.826,3.95v1.361a4.433,4.433,0,0,1-4.581-4.515,4.583,4.583,0,0,1,4.581-4.647v.631h-.033c-1.029,0-1.726,1.1-1.793,2.689Zm1.859,5.842h0a4.816,4.816,0,0,0,4.614-2.921h-.4a3.525,3.525,0,0,1-3.021,1.859,2.422,2.422,0,0,1-1.162-.3v1.361Zm0-8.531c1.029.033,1.759,1.129,1.859,2.689H154.44v.531h4.614a4.26,4.26,0,0,0-4.481-3.851h-.133v.631Zm-6.573-1.826H147.5a3.783,3.783,0,0,0-3.286-2.722,1.982,1.982,0,0,0-2.125,1.759,2.231,2.231,0,0,0,.631,1.394c.631.664,3.652,2.224,4.481,3.054a4.117,4.117,0,0,1,1.427,3.021c0,2.921-2.622,3.851-4.249,3.851a22.648,22.648,0,0,1-3.187-.531.726.726,0,0,0-.664.432h-.4V81.595h.4c.365,1.959,1.627,3.32,3.486,3.32,1.427,0,2.423-.8,2.423-1.859a2.259,2.259,0,0,0-.7-1.527c-1.029-1-3.286-1.992-4.382-3.087a3.878,3.878,0,0,1,2.954-6.639,5.848,5.848,0,0,1,1.361.2,4.885,4.885,0,0,0,1.1.166,1.038,1.038,0,0,0,.7-.332h.365v3.486Zm54.076-7.668h11.519v-.73H201.943v.73Zm-62.043,0h53.711v-.73H139.9v.73Zm63.205-13.71h3.685v.4c-1.129.332-1.427.631-2.158,2.291l-4.448,10.191c-.963,2.191-1.959,2.954-3.784,2.954a3.528,3.528,0,0,1-.764-.066l.564-2.656a2.96,2.96,0,0,0,1.2.2c1.66,0,2.589-1.2,3.685-4.083l-3.253-6.838c-.564-1.162-.963-1.66-2.224-1.66h-2.357v5.079c0,1.427.4,2.291,1.627,2.291a1.761,1.761,0,0,0,1.295-.7l.266.266a3.006,3.006,0,0,1-2.822,1.593c-1.66,0-3.021-.8-3.021-2.822v-5.71H189v-.465a15.5,15.5,0,0,0,3.784-3.685h.465v3.419h7.834v.4c-1.029.166-1.029.664-.465,1.793l1.892,3.884,1.228-2.855c.8-1.892.531-2.589-.6-2.822v-.4ZM188.167,57.03a3.028,3.028,0,0,0-1.992-1.129c-.8,0-1.295.3-1.959,1.261v3.618c0,1.029.2,1.361,1.494,1.627v.4h-5.643v-.4c1.162-.266,1.461-.631,1.461-1.627V56.1a1.491,1.491,0,0,0-1.593-1.726v-.4l3.851-.365h.432v2.822h.033c.863-1.925,1.826-2.822,2.954-2.822a2.081,2.081,0,0,1,1.56.764l-.6,2.656Zm-15.2.033h1.925v.531h-1.925c-.133,2.158.763,3.585,1.925,4.116v1.427a4.625,4.625,0,0,1-4.78-4.714,4.767,4.767,0,0,1,4.78-4.813v.631h-.033c-1.1,0-1.859,1.129-1.892,2.822Zm1.892,6.108h.033a4.978,4.978,0,0,0,4.747-3.087h-.4a3.66,3.66,0,0,1-3.154,1.925,2.787,2.787,0,0,1-1.228-.3v1.461Zm0-8.93c1.062,0,1.826,1.2,1.925,2.788h-1.925v.531h4.78a4.436,4.436,0,0,0-4.647-3.984.2.2,0,0,0-.133.033v.631Zm-13.444,1.627v5.179c0,1.029.365,1.494,1.427,1.494a4.2,4.2,0,0,0,.93-.1v.7H163.1a21.146,21.146,0,0,1-4.315-.365V50.092c0-.764-.531-1.162-1.361-1.295v-.4l3.618-.266h.4v7.1a5.432,5.432,0,0,1,2.357-1.494v1.1a.731.731,0,0,0-.266-.033,2.822,2.822,0,0,0-2.125,1.062Zm2.357-1.029c1.427.166,2.357,1.627,2.357,3.652,0,2.39-.9,3.618-2.357,3.984v.7c3.818-.232,5.278-2.39,5.278-4.946a4.334,4.334,0,0,0-4.216-4.581,5.469,5.469,0,0,0-1.062.133v1.062ZM154.373,48.1a1.527,1.527,0,1,1-1.56,1.527,1.545,1.545,0,0,1,1.56-1.527Zm1.295,12.814c0,.9.432,1.394,1.427,1.494v.4h-5.544v-.4c1.2-.232,1.494-.564,1.494-1.693V56c0-1.1-.332-1.394-1.593-1.66v-.4l3.851-.332h.4v7.3Zm-10.523-.365c0,1.129.465,1.494,2.158,1.494s2.49-.5,3.585-2.788h.4l-.4,3.552H140.4v-.4c1.593-.4,1.726-.764,1.726-2.224V51.42c0-1.228-.266-1.593-1.726-1.925v-.432H146.9v.4c-1.361.365-1.726.631-1.726,1.826v9.262Z" transform="translate(-139.9 -48.1)"/></g><g transform="translate(7179.511 -273.952)"><path class="c" d="M19.3-42.086A25.414,25.414,0,0,1,36.385-49.06c-.024.2-.029.268-.03.295v.021c0,.007-.008.025-.035.14-5.495.225-15.249,2.68-21.384,13.6-.316-.085-.616-.173-.9-.263A37.088,37.088,0,0,1,19.3-42.086Zm6.266-5.553a29.639,29.639,0,0,0-7,4.464,25.8,25.8,0,0,0-6.091,7.338,8.151,8.151,0,0,1-1.215-.675,43.282,43.282,0,0,1,2.916-4.219A21.109,21.109,0,0,1,25.567-47.638ZM6.451-64.274l.013.329.013.332c.058,1.436.122,2.84.161,2.993s.736,2.286,1.413,4.373l.135.416c.515,1.588.988,3.064,1.112,3.5a42.251,42.251,0,0,1,1.066,8.581c0,.015,0,.028,0,.04a14.8,14.8,0,0,1-.942,5.352C6.393-42.244,4.811-47.768,4.811-53.9h0A30.877,30.877,0,0,1,6.451-64.274ZM18.1-56.226l1.61,3.032a3.657,3.657,0,0,0-2.764.567c-1.431,1.1-1.91,2.579-2.15,4.745a13.248,13.248,0,0,1-1.5,5.2c-.492.836-1.875,2.527-2.358,3.166a14.981,14.981,0,0,0,.9-5.528,32.069,32.069,0,0,1-.074-5.942,6.806,6.806,0,0,1,2.269-4.352A4.213,4.213,0,0,1,18.1-56.226Zm1.636,4.038,1.824,3.715a1.087,1.087,0,0,0,1.058.509c-1.71.556-6.017,2.6-7.664,4.2A27.531,27.531,0,0,0,16.007-48a5.579,5.579,0,0,1,1.646-3.716A2.688,2.688,0,0,1,19.736-52.188Zm3.69-14.3a9.6,9.6,0,0,1,5.184,2.12,9.286,9.286,0,0,1,2.951,3.058,1.254,1.254,0,0,1,.033.59c-.2-.263-1.6-1.6-1.6-1.6h0l-.88,1.116,1.667,1.466a2.066,2.066,0,0,1-1.44.325c-.771-.1-2.48-1.174-2.513-2.023a10.238,10.238,0,0,0-3.594-.754,8.412,8.412,0,0,0-2.092.328c-.291.1-.508-.085-.736-.184h0l-.105.066.647,1c.195.1.564-.133,1.08-.224A4.7,4.7,0,0,1,25-60.723a24.086,24.086,0,0,1,2.71,2.157.953.953,0,0,0,1.177.225c.259-.225.633-.222.6.069s-.175.62.118.748a.377.377,0,0,0,.433-.107l.092-.08a1.109,1.109,0,0,1,.095-.074.539.539,0,0,1,.62-.034,4.234,4.234,0,0,1-.946,1.144,1.564,1.564,0,0,1-1.276.425h0l-.229.556,1.635,3.755c.428.865.486,1.093.835,1.676a36.631,36.631,0,0,0-7.133,1.977h0l-.653-2.24,1.5-2.1s-.457.164-.951.322l-.229.072a5.349,5.349,0,0,1-.853.209c-.1.008-.848.156-1.007-.578a4.258,4.258,0,0,1-.129-.688c0-.187.164-.416.327-.382a.587.587,0,0,0,.457-.065h0l.316-.42c-.264-.033-.564-.109-.695-.109a3.961,3.961,0,0,0-.595.18c-.129-.1-.334-.271-.268-.5h1.73l.033-.2A5.705,5.705,0,0,0,21.47-55.2a.588.588,0,0,0-.495.184h0v-.327l.982-.823-1.014-.416-.555.1.358-2.286-.188-.4-.989.593-.03-1.3c.03-.239.487-.7.862-.91h0l-.064-.786a3.353,3.353,0,0,0-1.092.739,2.113,2.113,0,0,0-.491,1.241,1.218,1.218,0,0,1-.295-1.067,1.857,1.857,0,0,1,.72-1.155,3.459,3.459,0,0,1-.032-1.665A4.155,4.155,0,0,1,23.425-66.491Zm12.627,5.1a31.64,31.64,0,0,1,.654,7.495,34.388,34.388,0,0,1-.189,3.566h0l-.817-.137-2.732-4.517-.213-2.547a4.066,4.066,0,0,0,.348-.75c.086-.3.161-.777.161-.777h0Zm-4.236,4.479.2,2.18s1.457,2.758,2.095,4.186c-.6-.013-1.165,0-1.687,0a11.145,11.145,0,0,1-.834-1.736l-.505-.935-.123-.227c-.225-.417-.443-.821-.52-.967a1.147,1.147,0,0,1,.024-1.2,4.945,4.945,0,0,1,1.346-1.3ZM5.324-77.871a4,4,0,0,0,1.83.437c.152,0,.474.341.654.412.207.082.558.275.722.349s.241.415.284.543c.021.066,1.343,3.5,2.671,6.94l.19.491c1.073,2.777,2.109,5.451,2.42,6.235l.047.118c.026.065.042.1.046.11.088.154.393,2.437.414,2.612a15.916,15.916,0,0,0,.957,2.179,4.236,4.236,0,0,0-2.775,1.292,9.127,9.127,0,0,0-1.906,3.763c-.032-.227-.625-2.106-1.252-4.043l-.21-.645c-.628-1.929-1.231-3.738-1.283-3.831-.11-.2-.61-10.777-.633-11.148h0l.568-.414v-.109a1.451,1.451,0,0,1-1.047-.413h0l-.152-3.246A2.543,2.543,0,0,1,5.5-76.676.893.893,0,0,1,5.324-77.871Zm20.486,18.7a3.808,3.808,0,0,0-2.885-1,5.748,5.748,0,0,0-1.394.556h0v.589a2.242,2.242,0,0,1,.914.749h0l.515-.131-.22-.356a2.162,2.162,0,0,1,.718-.166,1.6,1.6,0,0,1,1.08.259h0l1.123-.264ZM15.655-62.278l1.91,1.109a2.09,2.09,0,0,0-.166.706,2.444,2.444,0,0,0,.12.789l-1.76-1.213a5.222,5.222,0,0,0-.04-.868C15.714-61.79,15.663-62.225,15.655-62.278Zm24.329-3.5c.013.024-.026.063-.026.063L33.1-60.449a4.53,4.53,0,0,0-.837-2.183l7.654-3.153S39.971-65.807,39.984-65.782Zm-13.52,1.137-.619,1.6a16.45,16.45,0,0,1,2.545,1.28h0l.818-1.149a23.39,23.39,0,0,0-2.744-1.731ZM12.872-72.77l5.316,9.756a3.916,3.916,0,0,0-.075.485c0,.035,0,.093.008.159l.009.134c.008.11.015.206.015.206h0L18.1-62l-2.7-1.379c-.051-.163-.1-.324-.155-.469-.293-.825-1.223-3.173-2.167-5.572l-.183-.465h0l-.182-.463c-.242-.616-.479-1.223-.7-1.8a1.969,1.969,0,0,1,.432-.385,2.546,2.546,0,0,1,.432-.241Zm7.808,8.255a2.586,2.586,0,0,0-.85,2.318,7.977,7.977,0,0,1,1.406-1.044h0Zm2.647-.915a3.384,3.384,0,0,0-1.83.488h0l.525,1.5A5.656,5.656,0,0,1,25-63.306h0l.292-1.7A4.67,4.67,0,0,0,23.327-65.429Zm10.167-2.423a20.65,20.65,0,0,1,1.457,2.939h0L31.6-63.479a.465.465,0,0,0-.1-.122l-.032-.031a.816.816,0,0,0-.131-.1h0ZM35.1-73.3l.015,0c.017.013,0,.046,0,.046h0l-4.724,8.782a18.184,18.184,0,0,0-2.059-1.589h0l6.735-7.227s.033-.026.05-.012Zm-20.867.927L20.058-66.4a3.572,3.572,0,0,0-1.383,1.757l-4.5-7.684a.033.033,0,0,1,.01-.048A.035.035,0,0,1,14.232-72.37Zm11.375-1.877a8.587,8.587,0,0,1,1.468.56,12.057,12.057,0,0,1,4.078,2.927h0L27.378-66.58a2.033,2.033,0,0,0-.414-.233c-.158-.077-.453-.182-.453-.182h0Zm-5.135-.708.285.006a17.612,17.612,0,0,1,1.836.142h0l-.656,7.5a3.568,3.568,0,0,0-.434.131c-.072.028-.21.095-.293.136l-.061.031h0l-.009,0-6.761-6.577a4.61,4.61,0,0,1,.824-.409,14.226,14.226,0,0,1,5.555-.959Zm3.543-3.523c.027,0,.033.038.033.038h0l1.374,11.185a6.4,6.4,0,0,0-2.38-.238h0l.946-10.947S23.989-78.478,24.015-78.478ZM5.308-74.412a5.546,5.546,0,0,1,1.16,1.176,2.292,2.292,0,0,1,.438,1.241,7.482,7.482,0,0,1-.067,1.569c.178.152.348.282.369.521a.578.578,0,0,1-.059.335l-.059.119h0l-.032.069a3.407,3.407,0,0,0-1.547-.48,3.269,3.269,0,0,0-1.182.243c-.434.188-.319.68.355.85a2.155,2.155,0,0,0,.244.051h0l-.022.146c-.1-.015-.2-.033-.289-.054-.672-.15-1.033-.483-1.083-.916a.912.912,0,0,1,.567-.912.133.133,0,0,1,.026-.011.052.052,0,0,1,.013-.006h0l-.166-2.853a7.691,7.691,0,0,1,1.019-.635A.432.432,0,0,0,5.308-74.412Zm-.842-2.939a1.961,1.961,0,0,1,.045.652.4.4,0,0,1-.2.3l-.207.107-.128.066-.235.121a7.989,7.989,0,0,1,1.051.015c.195.02.282.065.282.26a.933.933,0,0,1-.163.544c-.109.155-.431.129-.605.149a.973.973,0,0,1,.113.483.353.353,0,0,1-.241.372,4.314,4.314,0,0,0-.606.349,2.047,2.047,0,0,0-.529.862,2.212,2.212,0,0,1-.631-1.045,2.062,2.062,0,0,1,.985-.843,5.267,5.267,0,0,0-1.133.066,1.775,1.775,0,0,1-.108-1.019h0l.436.017-.24-.589A4.911,4.911,0,0,1,4.466-77.351Zm1-6.4c.478,0,.869.629,1.327.695s1.175-.48,1.634-.3c.213.081.275.277.315.491l.032.186a.746.746,0,0,0,.218.478c.328.262,1.09-.045,1.308-.088a2.814,2.814,0,0,0-.13.85c.021.327.547,1.307.564,1.655a2.494,2.494,0,0,1-.128,1.2c-.045-1.307-1.6-2.9-5.04-2.961a6.059,6.059,0,0,0-4.23,1.22l-.013.014a2.293,2.293,0,0,0-.7,1.293,1.722,1.722,0,0,0-.01.21,2.02,2.02,0,0,0,1.1,1.763h0l-.179.126A2.6,2.6,0,0,1,0-79.052c0-1.329.6-1.644.622-2.519a1.352,1.352,0,0,0-.239-.7c.218-.047.658.221.962.144a.786.786,0,0,0,.642-.539c.147-.311.344-.567.669-.59.3-.024,1.051.32,1.5.219C4.749-83.168,4.989-83.753,5.469-83.753Zm-.077,4.058A3.318,3.318,0,0,1,7.5-79.1a1.371,1.371,0,0,1,.5,1.32,3.374,3.374,0,0,0-2.529-.945c-1.221-.006-2.165.483-2.3.9a1.233,1.233,0,0,1,.378-1.288A2.94,2.94,0,0,1,5.392-79.694Zm3.541-9.117a1.118,1.118,0,0,1-.092,1.032,5.285,5.285,0,0,0,1.85.366,3.006,3.006,0,0,0,2.086-.972,1.621,1.621,0,0,1-.385,1.56c-.852.762-2.854,1.176-3.442,1.613a2.087,2.087,0,0,0-.806.87c-.2-.2-.308-.357-.629-.323-.373.04-.569.41-.94.387-.48-.027-.85-.827-1.415-.85-.873-.033-1.219.676-1.591.7-.26.013-.615-.366-.762-.565a2.422,2.422,0,0,1-.379-1.5,2.345,2.345,0,0,1,2.378-2.128c.724-.04,1.659.154,2.139.154A5.472,5.472,0,0,0,8.934-88.811Z" transform="translate(0 88.811)"/></g><rect class="c" width="0.398" height="64.629" transform="translate(7320.572 -270.869)"/></g></svg>