<svg xmlns="http://www.w3.org/2000/svg" xmlns:xlink="http://www.w3.org/1999/xlink"><defs><symbol viewBox="0 0 5.813 10.523" id="Icon-Left">
  <defs>
    
  </defs>
  <g id="Icon-Left_Color_Liberty_Blue" data-name="Color/Liberty Blue">
    <path id="Icon-Left_Mask-2" data-name="Mask" d="M0,.633,4.545,5.261,0,9.889l.645.633L5.813,5.261.645,0Z" fill="#1a1446" />
    <g id="Icon-Left_Color_Liberty_Blue-2" data-name="Color/Liberty Blue" clip-path="url(#Icon-Left_clip-path)">
      <g id="Icon-Left_Color_Liberty_Blue-3" data-name="Color/Liberty Blue" transform="translate(-30 -28)">
        <rect id="Icon-Left_Rectangle_Copy" data-name="Rectangle Copy" width="67.333" height="64.667" fill="#1a1446" />
      </g>
    </g>
  </g>
</symbol><clipPath id="Icon-Left_clip-path">
      <path id="Icon-Left_Mask" d="M0,.633,4.545,5.261,0,9.889l.645.633L5.813,5.261.645,0Z" fill="#1a1446" />
    </clipPath><symbol viewBox="0 0 16 16" id="Icon-Plus">
  <defs>
    
  </defs>
  <rect id="Icon-Plus_Icons_Back_option_background" data-name="Icons/Back option background" width="16" height="16" fill="none" />
  <g id="Icon-Plus_Color_Liberty_Blue" data-name="Color/Liberty Blue" transform="translate(0.667 2.667)">
    <path id="Icon-Plus_Mask-2" data-name="Mask" d="M4.938,10.5.17,5.735A.561.561,0,0,1,.085,5.63h0L.078,5.618h0L.071,5.606h0L.064,5.594h0A.556.556,0,0,1,0,5.4H0V5.387H0V5.347s0-.009,0-.014,0-.009,0-.014V5.281H0V5.266H0a.559.559,0,0,1,.173-.342L4.938.164a.559.559,0,1,1,.791.791L1.91,4.774H13.29a.56.56,0,0,1,0,1.119H1.91L5.729,9.712a.559.559,0,1,1-.791.791Z" transform="translate(0)" />
    <g id="Icon-Plus_Color_Liberty_Blue-2" data-name="Color/Liberty Blue" transform="translate(0)" clip-path="url(#Icon-Plus_clip-path)">
      <g id="Icon-Plus_Color_Liberty_Blue-3" data-name="Color/Liberty Blue" transform="translate(-22.519 -24.296)">
        <rect id="Icon-Plus_Rectangle" width="59.259" height="59.259" fill="#1a1446" />
      </g>
    </g>
  </g>
</symbol><clipPath id="Icon-Plus_clip-path">
      <path id="Icon-Plus_Mask" d="M4.938,10.5.17,5.735A.561.561,0,0,1,.085,5.63h0L.078,5.618h0L.071,5.606h0L.064,5.594h0A.556.556,0,0,1,0,5.4H0V5.387H0V5.347s0-.009,0-.014,0-.009,0-.014V5.281H0V5.266H0a.559.559,0,0,1,.173-.342L4.938.164a.559.559,0,1,1,.791.791L1.91,4.774H13.29a.56.56,0,0,1,0,1.119H1.91L5.729,9.712a.559.559,0,1,1-.791.791Z" />
    </clipPath><symbol viewBox="0 0 13.333 20" id="cellphone"><defs><style>#cellphone .a{fill:#fff;fill-rule:evenodd;}</style></defs><g transform="translate(-5)"><g transform="translate(5)"><path class="a" d="M6.667,18.333h10V1.667h-10ZM16.833,20H6.5A1.5,1.5,0,0,1,5,18.5V1.5A1.5,1.5,0,0,1,6.5,0H16.833a1.5,1.5,0,0,1,1.5,1.5v17A1.5,1.5,0,0,1,16.833,20Zm-5.167-5.333A1.334,1.334,0,1,0,13,16,1.333,1.333,0,0,0,11.667,14.667ZM9.6,3.333a.6.6,0,0,0,0,1.2h3.8a.6.6,0,0,0,0-1.2Z" transform="translate(-5)" /></g></g></symbol><symbol viewBox="0 0 16 15.283" id="check"><defs><style>#check .a{fill:#06748c;}</style></defs><g transform="translate(-148.18 60.293)"><path class="a" d="M489.657,305.9a7.642,7.642,0,1,1,4.366-13.908l.411.288-.576.825-.411-.288a6.639,6.639,0,1,0,2.833,5.443,6.7,6.7,0,0,0-.154-1.432l-.108-.491.981-.216.108.491a7.742,7.742,0,0,1,.178,1.648,7.644,7.644,0,0,1-7.628,7.642" transform="translate(-333.849 -350.908)" /><path class="a" d="M492.959,302.548a.52.52,0,0,1-.367-.151l-3.608-3.573.734-.741,3.2,3.173,7.834-9.372.8.669-8.2,9.808a.524.524,0,0,1-.376.187h-.024" transform="translate(-337.375 -351.441)" /></g></symbol><symbol viewBox="0 0 16.881 17.414" id="close"><defs><style>#close .a{fill:none;stroke:#979797;stroke-linecap:square;stroke-miterlimit:10;}</style></defs><g transform="translate(0.44 0.707)"><path class="a" d="M.267,0,15.733,16" /><path class="a" d="M15.733,0,.267,16" /></g></symbol><symbol viewBox="0 0 17.1 13.3" id="dropdown">
<style type="text/css">
	#dropdown .st0{fill:#646363;}
</style>
<path class="st0" d="M16.5,0.8c-0.2-0.2-0.5-0.1-0.7,0.1L8.6,11.2L1.3,0.9C1.2,0.7,0.8,0.6,0.6,0.8C0.4,1,0.3,1.3,0.5,1.5l7.7,10.9
	c0,0,0,0,0,0c0,0,0,0.1,0.1,0.1c0,0,0,0,0,0c0.1,0,0.2,0.1,0.3,0.1c0,0,0,0,0,0c0,0,0,0,0,0s0,0,0,0c0,0,0,0,0,0
	c0.1,0,0.2,0,0.3-0.1c0,0,0,0,0,0c0,0,0.1-0.1,0.1-0.1c0,0,0,0,0,0l7.6-10.9C16.8,1.3,16.7,1,16.5,0.8z" />
</symbol><symbol viewBox="0 0 17.1 13.3" id="dropdown_secondary">
<style type="text/css">
	#dropdown_secondary .st0{fill:#06748C;}
</style>
<path class="st0" d="M16.6,0.6c-0.2-0.2-0.5-0.3-0.7-0.2c-0.2,0-0.4,0.2-0.6,0.4l-6.7,9.5L1.9,0.9C1.8,0.6,1.5,0.5,1.2,0.4
	c-0.3,0-0.6,0-0.7,0.2C0.1,1,0.1,1.6,0.4,1.9l7.1,10c0,0.1,0.1,0.1,0.1,0.2c0.1,0.1,0.1,0.2,0.2,0.2c0.2,0.3,0.5,0.5,0.8,0.5
	c0,0,0,0,0,0c0.2,0,0.5-0.1,0.6-0.3c0.1-0.1,0.2-0.3,0.3-0.4l6.1-8.8l1-1.4c0.1-0.1,0.2-0.3,0.2-0.6C16.9,1.1,16.8,0.9,16.6,0.6z" />
</symbol><symbol viewBox="0 0 16 16" id="error"><defs><style>#error .a{fill:#d32f2f;}</style></defs><path class="a" d="M2.347,13.654A8,8,0,1,1,8,16,7.946,7.946,0,0,1,2.347,13.654ZM1,8A7,7,0,1,0,8,1,7.008,7.008,0,0,0,1,8Zm6.468,4.141V11.079H8.52v1.063Zm.105-1.987L7.457,3.86H8.51l-.115,6.294Z" transform="translate(0 0)" /></symbol><symbol viewBox="0 0 30.022 30" id="facebook"><defs><style>#facebook .a{fill:#1a1446;}#facebook .b{clip-path:url(#facebook_a);}#facebook .c{fill:#fff;}</style></defs><path class="a" d="M15.011,30A15,15,0,0,1,4.4,4.393a15.018,15.018,0,0,1,21.228,0A15,15,0,0,1,15.011,30Zm-4-18.114v3.076h1.887V24h3.628V14.924h2.531l.269-3.038h-2.8V10.154c0-.691.121-1,.838-1h1.963V6H16.811c-2.635,0-3.916,1.132-3.916,3.461v2.424Z" /><g class="b"><g transform="translate(0 0)"><rect class="c" width="30.022" height="30" /></g></g></symbol><clipPath id="facebook_a"><path class="a" d="M15.011,30A15,15,0,0,1,4.4,4.393a15.018,15.018,0,0,1,21.228,0A15,15,0,0,1,15.011,30Zm-4-18.114v3.076h1.887V24h3.628V14.924h2.531l.269-3.038h-2.8V10.154c0-.691.121-1,.838-1h1.963V6H16.811c-2.635,0-3.916,1.132-3.916,3.461v2.424Z" /></clipPath><symbol viewBox="0 0 96 96" id="form"><defs><style>#form .a{fill:none;}#form .b{fill:#99e5ea;}#form .c{clip-path:url(#form_a);}#form .d{fill:#1a1446;}</style></defs><g transform="translate(-688 -104.099)"><g transform="translate(688 104.099)"><circle class="b" cx="48" cy="48" r="48" transform="translate(0 0)" /></g><g transform="translate(735.983 152.099)"><g class="c" transform="translate(-17.983 -24)"><path class="d" d="M6.49,7.3h23.8V9.33H6.49Zm0,7.707h23.8V16.9H6.49Zm0,15.414h14.6v1.893H6.49Zm0-7.707h23.8v1.893H6.49ZM33.8.27a2.3,2.3,0,0,1,2.3,2.3V45.7A2.3,2.3,0,0,1,33.8,48H2.3A2.3,2.3,0,0,1,0,45.7V0H2.434V45.431h31.1V2.7H5.138V.27Z" transform="translate(0)" /></g></g></g></symbol><clipPath id="form_a"><rect class="a" width="35.966" height="48" /></clipPath><symbol viewBox="0 0 114.01 6" id="hdi-seguros">
  <defs>
    
  </defs>
  <g id="hdi-seguros_Grupo_28958" data-name="Grupo 28958" transform="translate(114.01) rotate(90)">
    <path id="hdi-seguros_Trazado_15884" data-name="Trazado 15884" d="M.659,661.6v.662H3.1v2.261H.659v.662H6.483v-.662H3.807v-2.261H6.483V661.6Z" transform="translate(-0.571 -551.173)" />
    <g id="hdi-seguros_Grupo_28956" data-name="Grupo 28956">
      <g id="hdi-seguros_Grupo_28955" data-name="Grupo 28955" clip-path="url(#hdi-seguros_clip-path)">
        <path id="hdi-seguros_Trazado_15885" data-name="Trazado 15885" d="M.659,628.57v-1.193A6.409,6.409,0,0,1,.8,625.837a2.732,2.732,0,0,1,.611-1.128,2.759,2.759,0,0,1,2.163-.954,2.681,2.681,0,0,1,2.151.97,2.986,2.986,0,0,1,.659,1.524,6.908,6.908,0,0,1,.061,1v1.318Zm.7-.821H5.737v-.429a6.234,6.234,0,0,0-.053-.918,1.987,1.987,0,0,0-.623-1.213,2.154,2.154,0,0,0-1.516-.55,2.132,2.132,0,0,0-1.492.566,2,2,0,0,0-.655,1.314,7.474,7.474,0,0,0-.036.788Z" transform="translate(-0.55 -520.456)" />
        <rect id="hdi-seguros_Rectángulo_6841" data-name="Rectángulo 6841" width="5.782" height="0.821" transform="translate(0.109 101.257)" />
        <path id="hdi-seguros_Trazado_15886" data-name="Trazado 15886" d="M.206,570.575l.728.1a3.168,3.168,0,0,0-.235,1.08,1.219,1.219,0,0,0,.23.772.679.679,0,0,0,.566.271.816.816,0,0,0,.683-.4,3.922,3.922,0,0,0,.307-.534l.158-.311a3.537,3.537,0,0,1,.525-.841,1.428,1.428,0,0,1,1.092-.449,1.585,1.585,0,0,1,1.4.728A2.163,2.163,0,0,1,6,572.233a3.777,3.777,0,0,1-.226,1.33l-.78-.085a2.7,2.7,0,0,0,.307-1.14,1.411,1.411,0,0,0-.222-.8.854.854,0,0,0-.756-.384.867.867,0,0,0-.712.364,2.583,2.583,0,0,0-.307.53l-.142.324a3.011,3.011,0,0,1-.538.865,1.39,1.39,0,0,1-1.047.425,1.408,1.408,0,0,1-1.164-.526A2.09,2.09,0,0,1,0,571.8a3.736,3.736,0,0,1,.206-1.225" transform="translate(0 -475.823)" />
        <path id="hdi-seguros_Trazado_15887" data-name="Trazado 15887" d="M.659,543.531h.7v2.393h1.71V543.7h.7v2.224H5.737v-2.466h.7v3.287H.659Z" transform="translate(-0.55 -453.457)" />
        <path id="hdi-seguros_Trazado_15888" data-name="Trazado 15888" d="M.694,508.532l.8.053a2.982,2.982,0,0,0-.376,1.476,2.311,2.311,0,0,0,.691,1.755,2.084,2.084,0,0,0,1.5.566,2.194,2.194,0,0,0,1.585-.578,2.156,2.156,0,0,0,.518-.825,2.8,2.8,0,0,0,.166-.954,2.742,2.742,0,0,0-.125-.78H3.779v1.237h-.7v-2.058H6.011a5.257,5.257,0,0,1,.267,1.658,3.281,3.281,0,0,1-.764,2.292,2.845,2.845,0,0,1-2.216.894,2.66,2.66,0,0,1-2.115-.885,3.337,3.337,0,0,1-.768-2.268,4.339,4.339,0,0,1,.279-1.581" transform="translate(-0.346 -424.224)" />
        <path id="hdi-seguros_Trazado_15889" data-name="Trazado 15889" d="M.659,472.608H3.918a6.221,6.221,0,0,1,.877.049,1.963,1.963,0,0,1,1.363.8,2.625,2.625,0,0,1-.008,2.774,1.868,1.868,0,0,1-.974.7,4.776,4.776,0,0,1-1.371.15H.659v-.821H3.687a7.178,7.178,0,0,0,.845-.036,1.474,1.474,0,0,0,1.027-.5,1.442,1.442,0,0,0,.291-.91,1.221,1.221,0,0,0-.873-1.257,2.577,2.577,0,0,0-.671-.117q-.146-.008-.582-.008H.659Z" transform="translate(-0.55 -394.34)" />
        <path id="hdi-seguros_Trazado_15890" data-name="Trazado 15890" d="M.659,443.085v-1.391a4.358,4.358,0,0,1,.15-1.306,1.331,1.331,0,0,1,.574-.732,1.484,1.484,0,0,1,.8-.222,1.3,1.3,0,0,1,1.059.477,1.608,1.608,0,0,1,.3.748,1.309,1.309,0,0,1,.263-.4,2.166,2.166,0,0,1,.53-.323l2.107-.974v.946l-1.731.748a2.274,2.274,0,0,0-.639.372.668.668,0,0,0-.186.4,2.585,2.585,0,0,0-.02.36v.477H6.441v.821Zm.7-.821H3.154v-.514a2.91,2.91,0,0,0-.1-.9.844.844,0,0,0-.327-.433.864.864,0,0,0-.473-.133.833.833,0,0,0-.57.206,1.042,1.042,0,0,0-.3.671,4.592,4.592,0,0,0-.024.505Z" transform="translate(-0.55 -366.269)" />
        <path id="hdi-seguros_Trazado_15891" data-name="Trazado 15891" d="M0,403.93a2.551,2.551,0,0,1,.825-2.018A3.15,3.15,0,0,1,3,401.172a3.214,3.214,0,0,1,2.131.691A2.566,2.566,0,0,1,6,403.95a2.608,2.608,0,0,1-.809,2.038,2.847,2.847,0,0,1-1.092.6,3.6,3.6,0,0,1-1.092.17,3.585,3.585,0,0,1-1.589-.356A2.512,2.512,0,0,1,0,403.93m.655,0a1.706,1.706,0,0,0,.736,1.492A2.738,2.738,0,0,0,3,405.874a2.762,2.762,0,0,0,1.589-.445,1.715,1.715,0,0,0,.611-.74,1.785,1.785,0,0,0,.15-.728,1.731,1.731,0,0,0-.388-1.12,2.082,2.082,0,0,0-1.019-.655,3.046,3.046,0,0,0-.914-.129,2.811,2.811,0,0,0-1.6.433,1.637,1.637,0,0,0-.772,1.443" transform="translate(0 -334.734)" />
        <path id="hdi-seguros_Trazado_15892" data-name="Trazado 15892" d="M.206,376.117l.728.1A3.168,3.168,0,0,0,.7,377.3a1.219,1.219,0,0,0,.23.772.68.68,0,0,0,.566.271.816.816,0,0,0,.683-.4,3.938,3.938,0,0,0,.307-.534l.158-.311a3.539,3.539,0,0,1,.525-.841,1.428,1.428,0,0,1,1.092-.449,1.585,1.585,0,0,1,1.4.728A2.163,2.163,0,0,1,6,377.775a3.776,3.776,0,0,1-.226,1.33l-.78-.085a2.7,2.7,0,0,0,.307-1.14,1.41,1.41,0,0,0-.222-.8.854.854,0,0,0-.756-.384.867.867,0,0,0-.712.364,2.581,2.581,0,0,0-.307.53l-.142.323a3.014,3.014,0,0,1-.538.865,1.39,1.39,0,0,1-1.047.425,1.409,1.409,0,0,1-1.164-.526A2.09,2.09,0,0,1,0,377.342a3.736,3.736,0,0,1,.206-1.225" transform="translate(0 -313.569)" />
        <path id="hdi-seguros_Trazado_15893" data-name="Trazado 15893" d="M.67,330.648l.784.073a2.4,2.4,0,0,0-.339,1.2,2.32,2.32,0,0,0,.327,1.217,1.91,1.91,0,0,0,1,.833,2.378,2.378,0,0,0,.849.146,2.139,2.139,0,0,0,1.714-.748,2.215,2.215,0,0,0,.53-1.484,3.489,3.489,0,0,0-.255-1.237l.8-.057a4.057,4.057,0,0,1,.194,1.274,3.272,3.272,0,0,1-.606,2.058,2.606,2.606,0,0,1-1.16.865,3.354,3.354,0,0,1-1.2.214,2.729,2.729,0,0,1-2.685-1.819,3.444,3.444,0,0,1-.214-1.221,3.159,3.159,0,0,1,.255-1.314" transform="translate(-0.346 -275.842)" />
        <path id="hdi-seguros_Trazado_15894" data-name="Trazado 15894" d="M0,295.6a2.551,2.551,0,0,1,.825-2.018A3.15,3.15,0,0,1,3,292.847a3.214,3.214,0,0,1,2.131.691A2.566,2.566,0,0,1,6,295.625a2.608,2.608,0,0,1-.809,2.038,2.845,2.845,0,0,1-1.092.6,3.6,3.6,0,0,1-1.092.17,3.585,3.585,0,0,1-1.589-.356A2.512,2.512,0,0,1,0,295.6m.655,0a1.706,1.706,0,0,0,.736,1.492A2.738,2.738,0,0,0,3,297.549a2.761,2.761,0,0,0,1.589-.445,1.715,1.715,0,0,0,.611-.74,1.786,1.786,0,0,0,.15-.728,1.731,1.731,0,0,0-.388-1.12,2.084,2.084,0,0,0-1.019-.655,3.046,3.046,0,0,0-.914-.129,2.811,2.811,0,0,0-1.6.433,1.637,1.637,0,0,0-.772,1.443" transform="translate(0 -244.349)" />
        <path id="hdi-seguros_Trazado_15895" data-name="Trazado 15895" d="M.659,268.559H5.737v-2.446h.7v3.267H.659Z" transform="translate(-0.55 -222.042)" />
        <path id="hdi-seguros_Trazado_15896" data-name="Trazado 15896" d="M0,231.713a2.551,2.551,0,0,1,.825-2.018A3.15,3.15,0,0,1,3,228.955a3.214,3.214,0,0,1,2.131.691A2.566,2.566,0,0,1,6,231.733a2.608,2.608,0,0,1-.809,2.038,2.844,2.844,0,0,1-1.092.6,3.6,3.6,0,0,1-1.092.17,3.585,3.585,0,0,1-1.589-.356A2.511,2.511,0,0,1,0,231.713m.655,0a1.706,1.706,0,0,0,.736,1.492A2.738,2.738,0,0,0,3,233.657a2.761,2.761,0,0,0,1.589-.445,1.714,1.714,0,0,0,.611-.74,1.785,1.785,0,0,0,.15-.728,1.731,1.731,0,0,0-.388-1.12,2.084,2.084,0,0,0-1.019-.655,3.046,3.046,0,0,0-.914-.129,2.811,2.811,0,0,0-1.6.433,1.637,1.637,0,0,0-.772,1.443" transform="translate(0 -191.038)" />
        <path id="hdi-seguros_Trazado_15897" data-name="Trazado 15897" d="M.659,183.618H6.441v.821h-3.3q-.3,0-1.027-.012l-.534,0-.416-.012H1.043q.121.045.6.194.2.061,1.071.38.708.259.922.34l2.806,1.084v.8L3.635,188.3l-.477.186-.619.23q-.914.336-1.047.376-.323.1-.449.146.069,0,.121,0,.024,0,.356-.032.133-.012.437-.02l.667-.02q.408-.016.574-.016H6.441v.821H.659v-1.355l2.9-1.144.477-.186a13.453,13.453,0,0,1,1.46-.5q-.517-.133-1.953-.687L.659,185Z" transform="translate(-0.55 -153.209)" />
        <path id="hdi-seguros_Trazado_15898" data-name="Trazado 15898" d="M.66,156.063V154.7a7.494,7.494,0,0,1,.032-.845,1.675,1.675,0,0,1,.574-1.116,1.343,1.343,0,0,1,.873-.3,1.243,1.243,0,0,1,1.075.526,1.9,1.9,0,0,1,.283.708,2.084,2.084,0,0,1,.271-.833,1.253,1.253,0,0,1,1.12-.57,1.426,1.426,0,0,1,1.14.525,1.491,1.491,0,0,1,.311.586,4.224,4.224,0,0,1,.1,1.035v1.646Zm.7-.821H3.118v-.594a2.51,2.51,0,0,0-.1-.833.832.832,0,0,0-.307-.4.822.822,0,0,0-.469-.141.767.767,0,0,0-.59.251,1.216,1.216,0,0,0-.275.756q-.016.243-.016.538Zm2.43,0H5.738V154.6a2.479,2.479,0,0,0-.137-.966.817.817,0,0,0-.788-.518.9.9,0,0,0-.667.279,1.312,1.312,0,0,0-.332.833q-.02.218-.02.574Z" transform="translate(-0.551 -127.054)" />
        <rect id="hdi-seguros_Rectángulo_6842" data-name="Rectángulo 6842" width="5.782" height="0.821" transform="translate(0.109 23.058)" />
        <path id="hdi-seguros_Trazado_15899" data-name="Trazado 15899" d="M.659,101.608,6.441,99.1v.93l-1.464.611v2.81l1.464.6v.889L.659,102.473Zm3.615-.687-1.617.671a10.522,10.522,0,0,1-1.29.469,13.884,13.884,0,0,1,1.314.481l1.593.643Z" transform="translate(-0.55 -82.686)" />
        <path id="hdi-seguros_Trazado_15900" data-name="Trazado 15900" d="M.206,62.274l.728.1A3.169,3.169,0,0,0,.7,63.455a1.219,1.219,0,0,0,.23.772A.679.679,0,0,0,1.5,64.5a.816.816,0,0,0,.683-.4,3.92,3.92,0,0,0,.307-.534l.158-.311a3.538,3.538,0,0,1,.525-.841,1.428,1.428,0,0,1,1.092-.449,1.585,1.585,0,0,1,1.4.728A2.163,2.163,0,0,1,6,63.932a3.776,3.776,0,0,1-.226,1.33l-.78-.085a2.7,2.7,0,0,0,.307-1.14,1.41,1.41,0,0,0-.222-.8.854.854,0,0,0-.756-.384.867.867,0,0,0-.712.364,2.581,2.581,0,0,0-.307.53l-.142.323a3.012,3.012,0,0,1-.538.865,1.39,1.39,0,0,1-1.047.425A1.409,1.409,0,0,1,.412,64.83,2.09,2.09,0,0,1,0,63.5a3.736,3.736,0,0,1,.206-1.225" transform="translate(0 -51.701)" />
        <rect id="hdi-seguros_Rectángulo_6843" data-name="Rectángulo 6843" width="0.93" height="0.93" transform="translate(4.961 8.28)" />
        <path id="hdi-seguros_Trazado_15901" data-name="Trazado 15901" d="M.659,12.716,6.441,10.2v.93l-1.464.611v2.81l1.464.6v.889L.659,13.581Zm3.615-.687L2.656,12.7a10.521,10.521,0,0,1-1.29.469,13.885,13.885,0,0,1,1.314.481l1.593.643Z" transform="translate(-0.55 -8.515)" />
        <rect id="hdi-seguros_Rectángulo_6844" data-name="Rectángulo 6844" width="0.93" height="0.93" transform="translate(4.961)" />
      </g>
    </g>
  </g>
</symbol><clipPath id="hdi-seguros_clip-path">
      <rect id="hdi-seguros_Rectángulo_6845" data-name="Rectángulo 6845" width="6" height="114.01" fill="none" />
    </clipPath><symbol viewBox="0 0 16.364 12.725" id="home-icon">
  <path id="home-icon_Icon_awesome-home" data-name="Icon awesome-home" d="M7.964,5.555,2.726,9.868v4.656a.455.455,0,0,0,.455.455l3.183-.008a.455.455,0,0,0,.452-.455V11.8a.455.455,0,0,1,.455-.455H9.089a.455.455,0,0,1,.455.455v2.717A.455.455,0,0,0,10,14.97l3.182.009a.455.455,0,0,0,.455-.455V9.865L8.4,5.555A.346.346,0,0,0,7.964,5.555Zm8.273,2.932L13.862,6.529V2.594a.341.341,0,0,0-.341-.341H11.93a.341.341,0,0,0-.341.341V4.657L9.046,2.565a1.364,1.364,0,0,0-1.733,0L.123,8.487a.341.341,0,0,0-.045.48L.8,9.847a.341.341,0,0,0,.48.046l6.682-5.5a.346.346,0,0,1,.435,0l6.682,5.5a.341.341,0,0,0,.48-.045l.724-.881a.341.341,0,0,0-.048-.481Z" transform="translate(0.001 -2.254)" fill="#06748c" />
</symbol><symbol viewBox="0 0 448 512" id="instagram"><path d="M224.1 141c-63.6 0-114.9 51.3-114.9 114.9s51.3 114.9 114.9 114.9S339 319.5 339 255.9 287.7 141 224.1 141zm0 189.6c-41.1 0-74.7-33.5-74.7-74.7s33.5-74.7 74.7-74.7 74.7 33.5 74.7 74.7-33.6 74.7-74.7 74.7zm146.4-194.3c0 14.9-12 26.8-26.8 26.8-14.9 0-26.8-12-26.8-26.8s12-26.8 26.8-26.8 26.8 12 26.8 26.8zm76.1 27.2c-1.7-35.9-9.9-67.7-36.2-93.9-26.2-26.2-58-34.4-93.9-36.2-37-2.1-147.9-2.1-184.9 0-35.8 1.7-67.6 9.9-93.9 36.1s-34.4 58-36.2 93.9c-2.1 37-2.1 147.9 0 184.9 1.7 35.9 9.9 67.7 36.2 93.9s58 34.4 93.9 36.2c37 2.1 147.9 2.1 184.9 0 35.9-1.7 67.7-9.9 93.9-36.2 26.2-26.2 34.4-58 36.2-93.9 2.1-37 2.1-147.8 0-184.8zM398.8 388c-7.8 19.6-22.9 34.7-42.6 42.6-29.5 11.7-99.5 9-132.1 9s-102.7 2.6-132.1-9c-19.6-7.8-34.7-22.9-42.6-42.6-11.7-29.5-9-99.5-9-132.1s-2.6-102.7 9-132.1c7.8-19.6 22.9-34.7 42.6-42.6 29.5-11.7 99.5-9 132.1-9s102.7-2.6 132.1 9c19.6 7.8 34.7 22.9 42.6 42.6 11.7 29.5 9 99.5 9 132.1s2.7 102.7-9 132.1z" /></symbol><symbol viewBox="0 0 30.022 30" id="linkedin"><defs><style>#linkedin .a{fill:#1a1446;}#linkedin .b{clip-path:url(#linkedin_a);}#linkedin .c{fill:#fff;}</style></defs><g transform="translate(0 0)"><path class="a" d="M15.011,30A15,15,0,0,1,4.4,4.393a15.018,15.018,0,0,1,21.228,0A15,15,0,0,1,15.011,30Zm2.6-15.189c1.041,0,1.591.738,1.591,2.135V22h3.143V16.582c0-2.661-1.353-4.25-3.619-4.25a3.106,3.106,0,0,0-2.833,1.561V12.554H12.747c.042.87,0,9.359,0,9.445H15.89V16.724a2.068,2.068,0,0,1,.1-.766A1.724,1.724,0,0,1,17.607,14.81ZM7.866,12.554V22h3.142V12.554ZM9.459,8a1.637,1.637,0,1,0-.041,3.264h.02A1.637,1.637,0,1,0,9.459,8Z" transform="translate(0 0)" /><g class="b"><g transform="translate(0 0)"><rect class="c" width="30.022" height="30" /></g></g></g></symbol><clipPath id="linkedin_a"><path class="a" d="M15.011,30A15,15,0,0,1,4.4,4.393a15.018,15.018,0,0,1,21.228,0A15,15,0,0,1,15.011,30Zm2.6-15.189c1.041,0,1.591.738,1.591,2.135V22h3.143V16.582c0-2.661-1.353-4.25-3.619-4.25a3.106,3.106,0,0,0-2.833,1.561V12.554H12.747c.042.87,0,9.359,0,9.445H15.89V16.724a2.068,2.068,0,0,1,.1-.766A1.724,1.724,0,0,1,17.607,14.81ZM7.866,12.554V22h3.142V12.554ZM9.459,8a1.637,1.637,0,1,0-.041,3.264h.02A1.637,1.637,0,1,0,9.459,8Z" transform="translate(0 0)" /></clipPath><symbol viewBox="0 0 32 32" id="menu"><path d="M2 6h28v6H2zm0 8h28v6H2zm0 8h28v6H2z" /></symbol><symbol viewBox="0 0 44.005 43.944" id="phone"><defs><style>#phone .a{fill:#28a3af;}</style></defs><g transform="translate(0)"><path class="a" d="M27.6,43.944a14.645,14.645,0,0,1-3.489-.432A17.576,17.576,0,0,1,20.2,42.02a21.454,21.454,0,0,1-3.627-2.4c-.659-.474-1.387-1.043-2.165-1.691-.631-.519-1.362-1.152-2.3-1.993-.841-.747-1.755-1.625-2.793-2.686-1.025-1.037-1.834-1.912-2.474-2.673-.623-.74-1.157-1.4-1.588-1.975A17.1,17.1,0,0,1,4.13,26.94a21.625,21.625,0,0,1-2.958-5.328,18.2,18.2,0,0,1-1-3.754,14.166,14.166,0,0,1-.074-3.791A11.772,11.772,0,0,1,1.106,10.44,11.117,11.117,0,0,1,3.349,7.223L4.656,5.887l.014-.014c.015-.015.029-.03.044-.043A3.934,3.934,0,0,1,6,5.016,3.672,3.672,0,0,1,7.317,4.77a3.841,3.841,0,0,1,.791.084A3.664,3.664,0,0,1,10.029,5.91l5.743,5.8a3.958,3.958,0,0,1,.85,1.32,3.862,3.862,0,0,1,.193,2.108,3.648,3.648,0,0,1-1.03,1.956l-2.6,2.653a.463.463,0,0,0-.152.263.715.715,0,0,0,.034.392,1.34,1.34,0,0,0,.222.317l9.643,9.788a.593.593,0,0,0,.26.18.638.638,0,0,0,.114.012.607.607,0,0,0,.231-.05.482.482,0,0,0,.182-.131l2.592-2.64a3.779,3.779,0,0,1,1.328-.873,3.677,3.677,0,0,1,1.318-.244,3.834,3.834,0,0,1,.782.082,3.709,3.709,0,0,1,1.925,1.036l5.751,5.826a3.882,3.882,0,0,1,.851,1.325,3.81,3.81,0,0,1-.8,4.014l-1.35,1.4a11.337,11.337,0,0,1-1.991,1.62,11.6,11.6,0,0,1-2.167,1.094,12.065,12.065,0,0,1-3.868.775C27.94,43.941,27.778,43.944,27.6,43.944ZM7.319,8.354a.3.3,0,0,0-.139.075L5.9,9.739a7.448,7.448,0,0,0-1.54,2.2,8.291,8.291,0,0,0-.71,2.55,10.6,10.6,0,0,0,.058,2.837,14.632,14.632,0,0,0,.808,3.012,18.084,18.084,0,0,0,2.537,4.533c.038.054.087.124.129.2a13.889,13.889,0,0,0,.935,1.383c.352.469.845,1.082,1.465,1.822.589.7,1.337,1.505,2.285,2.466.962.985,1.82,1.811,2.623,2.525.845.757,1.566,1.381,2.2,1.91.736.61,1.415,1.14,2.018,1.573l.063.048.026.02a18.082,18.082,0,0,0,3.053,2.03,14.348,14.348,0,0,0,3.115,1.192,11.123,11.123,0,0,0,2.654.326c.114,0,.228,0,.341-.005A8.322,8.322,0,0,0,32.2,39.046a7.681,7.681,0,0,0,1.354-1.106l1.32-1.365a.2.2,0,0,0,.062-.114.241.241,0,0,0-.017-.145.216.216,0,0,0-.062-.1l-5.738-5.813a.139.139,0,0,0-.09-.05.339.339,0,0,0-.071-.009.217.217,0,0,0-.112.063L26.263,33.05A4.15,4.15,0,0,1,24.819,34a4.239,4.239,0,0,1-1.51.282,4.034,4.034,0,0,1-2.926-1.257l-9.654-9.8a4.766,4.766,0,0,1-1-1.539,4.234,4.234,0,0,1-.216-2.292,4,4,0,0,1,1.123-2.153l2.6-2.66c.049-.05.053-.063.057-.088a.284.284,0,0,0-.017-.181.344.344,0,0,0-.069-.1l-.006-.007L7.471,8.422c-.05-.051-.066-.054-.085-.058l-.067-.009ZM44,22.006H40.339A18.36,18.36,0,0,0,22,3.667V0A22.031,22.031,0,0,1,44,22Zm-5.489,0H34.851A12.865,12.865,0,0,0,22,9.157V5.49A16.536,16.536,0,0,1,38.516,22Z" /></g></symbol><symbol viewBox="0 0 20.017 19.975" id="phone-w"><defs><style>#phone-w .a{fill:#1a1446;}#phone-w .b{clip-path:url(#phone-w_a);}#phone-w .c{fill:#fff;}</style></defs><g transform="translate(0 0)"><path class="a" d="M12.556,19.975a6.666,6.666,0,0,1-1.587-.2A8,8,0,0,1,9.19,19.1a9.76,9.76,0,0,1-1.65-1.091c-.3-.215-.631-.474-.985-.769-.287-.236-.62-.524-1.047-.906-.383-.339-.8-.739-1.271-1.221S3.4,14.244,3.112,13.9s-.526-.638-.722-.9a7.771,7.771,0,0,1-.511-.755A9.828,9.828,0,0,1,.533,9.824,8.266,8.266,0,0,1,.076,8.117,6.434,6.434,0,0,1,.043,6.394,5.348,5.348,0,0,1,.5,4.745a5.053,5.053,0,0,1,1.02-1.462l.594-.607.006-.006.02-.019a1.79,1.79,0,0,1,.583-.37,1.671,1.671,0,0,1,.6-.112,1.748,1.748,0,0,1,.36.038,1.667,1.667,0,0,1,.874.48L7.175,5.324a1.8,1.8,0,0,1,.387.6,1.754,1.754,0,0,1,.088.958,1.658,1.658,0,0,1-.468.889L6,8.978A.21.21,0,0,0,5.93,9.1a.325.325,0,0,0,.016.178.609.609,0,0,0,.1.144l4.386,4.449a.27.27,0,0,0,.118.082.291.291,0,0,0,.052.005.276.276,0,0,0,.105-.023.219.219,0,0,0,.083-.059l1.179-1.2a1.719,1.719,0,0,1,.6-.4,1.674,1.674,0,0,1,.6-.111,1.745,1.745,0,0,1,.356.037,1.688,1.688,0,0,1,.875.471l2.616,2.648a1.764,1.764,0,0,1,.387.6,1.731,1.731,0,0,1-.363,1.825l-.614.635a5.156,5.156,0,0,1-.905.736,5.277,5.277,0,0,1-.986.5,5.492,5.492,0,0,1-1.759.352C12.709,19.973,12.636,19.975,12.556,19.975ZM3.329,3.8a.134.134,0,0,0-.063.034l-.581.6a3.385,3.385,0,0,0-.7,1,3.766,3.766,0,0,0-.323,1.159,4.817,4.817,0,0,0,.026,1.289,6.647,6.647,0,0,0,.367,1.369A8.219,8.219,0,0,0,3.209,11.3c.017.024.04.057.059.09a6.313,6.313,0,0,0,.425.629c.16.213.384.492.666.828.268.318.608.684,1.039,1.121s.828.823,1.193,1.148c.384.344.712.628,1,.868.335.277.644.518.918.715l.029.022.012.009a8.225,8.225,0,0,0,1.389.923,6.53,6.53,0,0,0,1.417.542,5.063,5.063,0,0,0,1.207.148l.155,0a3.787,3.787,0,0,0,1.927-.6,3.494,3.494,0,0,0,.616-.5l.6-.62a.092.092,0,0,0,.028-.052.11.11,0,0,0-.008-.066.1.1,0,0,0-.028-.043l-2.61-2.642a.063.063,0,0,0-.041-.023.154.154,0,0,0-.032,0,.1.1,0,0,0-.051.029l-1.177,1.2a1.888,1.888,0,0,1-.657.433,1.93,1.93,0,0,1-.687.128,1.836,1.836,0,0,1-1.331-.571L4.88,10.556a2.166,2.166,0,0,1-.457-.7,1.923,1.923,0,0,1-.1-1.042,1.816,1.816,0,0,1,.511-.979L6.02,6.628c.022-.023.024-.029.026-.04a.129.129,0,0,0-.008-.082.156.156,0,0,0-.031-.044l0,0L3.4,3.828C3.376,3.8,3.368,3.8,3.36,3.8l-.03,0ZM20.017,10H18.349a8.349,8.349,0,0,0-8.343-8.336V0a10.018,10.018,0,0,1,10.01,10Zm-2.5,0H15.853a5.85,5.85,0,0,0-5.846-5.84V2.5A7.519,7.519,0,0,1,17.52,10Z" /><g class="b"><g transform="translate(0 0)"><rect class="c" width="20.015" height="20" /></g></g></g></symbol><clipPath id="phone-w_a"><path class="a" d="M12.556,19.975a6.666,6.666,0,0,1-1.587-.2A8,8,0,0,1,9.19,19.1a9.76,9.76,0,0,1-1.65-1.091c-.3-.215-.631-.474-.985-.769-.287-.236-.62-.524-1.047-.906-.383-.339-.8-.739-1.271-1.221S3.4,14.244,3.112,13.9s-.526-.638-.722-.9a7.771,7.771,0,0,1-.511-.755A9.828,9.828,0,0,1,.533,9.824,8.266,8.266,0,0,1,.076,8.117,6.434,6.434,0,0,1,.043,6.394,5.348,5.348,0,0,1,.5,4.745a5.053,5.053,0,0,1,1.02-1.462l.594-.607.006-.006.02-.019a1.79,1.79,0,0,1,.583-.37,1.671,1.671,0,0,1,.6-.112,1.748,1.748,0,0,1,.36.038,1.667,1.667,0,0,1,.874.48L7.175,5.324a1.8,1.8,0,0,1,.387.6,1.754,1.754,0,0,1,.088.958,1.658,1.658,0,0,1-.468.889L6,8.978A.21.21,0,0,0,5.93,9.1a.325.325,0,0,0,.016.178.609.609,0,0,0,.1.144l4.386,4.449a.27.27,0,0,0,.118.082.291.291,0,0,0,.052.005.276.276,0,0,0,.105-.023.219.219,0,0,0,.083-.059l1.179-1.2a1.719,1.719,0,0,1,.6-.4,1.674,1.674,0,0,1,.6-.111,1.745,1.745,0,0,1,.356.037,1.688,1.688,0,0,1,.875.471l2.616,2.648a1.764,1.764,0,0,1,.387.6,1.731,1.731,0,0,1-.363,1.825l-.614.635a5.156,5.156,0,0,1-.905.736,5.277,5.277,0,0,1-.986.5,5.492,5.492,0,0,1-1.759.352C12.709,19.973,12.636,19.975,12.556,19.975ZM3.329,3.8a.134.134,0,0,0-.063.034l-.581.6a3.385,3.385,0,0,0-.7,1,3.766,3.766,0,0,0-.323,1.159,4.817,4.817,0,0,0,.026,1.289,6.647,6.647,0,0,0,.367,1.369A8.219,8.219,0,0,0,3.209,11.3c.017.024.04.057.059.09a6.313,6.313,0,0,0,.425.629c.16.213.384.492.666.828.268.318.608.684,1.039,1.121s.828.823,1.193,1.148c.384.344.712.628,1,.868.335.277.644.518.918.715l.029.022.012.009a8.225,8.225,0,0,0,1.389.923,6.53,6.53,0,0,0,1.417.542,5.063,5.063,0,0,0,1.207.148l.155,0a3.787,3.787,0,0,0,1.927-.6,3.494,3.494,0,0,0,.616-.5l.6-.62a.092.092,0,0,0,.028-.052.11.11,0,0,0-.008-.066.1.1,0,0,0-.028-.043l-2.61-2.642a.063.063,0,0,0-.041-.023.154.154,0,0,0-.032,0,.1.1,0,0,0-.051.029l-1.177,1.2a1.888,1.888,0,0,1-.657.433,1.93,1.93,0,0,1-.687.128,1.836,1.836,0,0,1-1.331-.571L4.88,10.556a2.166,2.166,0,0,1-.457-.7,1.923,1.923,0,0,1-.1-1.042,1.816,1.816,0,0,1,.511-.979L6.02,6.628c.022-.023.024-.029.026-.04a.129.129,0,0,0-.008-.082.156.156,0,0,0-.031-.044l0,0L3.4,3.828C3.376,3.8,3.368,3.8,3.36,3.8l-.03,0ZM20.017,10H18.349a8.349,8.349,0,0,0-8.343-8.336V0a10.018,10.018,0,0,1,10.01,10Zm-2.5,0H15.853a5.85,5.85,0,0,0-5.846-5.84V2.5A7.519,7.519,0,0,1,17.52,10Z" /></clipPath><symbol viewBox="0 0 64 64.001" id="thanks"><defs><style>#thanks .a{fill:#1a1446;}</style></defs><g transform="translate(-0.005 -0.004)"><path class="a" d="M9.387,54.618A31.982,31.982,0,1,1,32,64,31.787,31.787,0,0,1,9.387,54.618ZM4,32A28,28,0,1,0,32,4,28.031,28.031,0,0,0,4,32Zm9.6,3.206,2.813-2.849,9.492,9.362,21.7-21.857,2.842,2.828L25.939,47.371Z" transform="translate(0.005 0.004)" /></g></symbol><symbol viewBox="0 0 26 28" id="twitter"><path d="M25.312 6.375a10.85 10.85 0 01-2.531 2.609c.016.219.016.438.016.656 0 6.672-5.078 14.359-14.359 14.359-2.859 0-5.516-.828-7.75-2.266.406.047.797.063 1.219.063 2.359 0 4.531-.797 6.266-2.156a5.056 5.056 0 01-4.719-3.5c.313.047.625.078.953.078.453 0 .906-.063 1.328-.172a5.048 5.048 0 01-4.047-4.953v-.063a5.093 5.093 0 002.281.641 5.044 5.044 0 01-2.25-4.203c0-.938.25-1.797.688-2.547a14.344 14.344 0 0010.406 5.281 5.708 5.708 0 01-.125-1.156 5.045 5.045 0 015.047-5.047 5.03 5.03 0 013.687 1.594 9.943 9.943 0 003.203-1.219 5.032 5.032 0 01-2.219 2.781c1.016-.109 2-.391 2.906-.781z" /></symbol><symbol viewBox="0 0 17.1 13.3" id="up">
<style type="text/css">
	#up .st0{fill:#646363;}
</style>
<path class="st0" d="M0.6,12.5c0.2,0.2,0.5,0.1,0.7-0.1L8.5,2.1l7.3,10.3c0.1,0.2,0.5,0.3,0.7,0.1c0.2-0.2,0.3-0.5,0.1-0.7L8.9,0.9
	l0,0c0,0,0-0.1-0.1-0.1l0,0c-0.1,0-0.2-0.1-0.3-0.1l0,0l0,0l0,0l0,0c-0.1,0-0.2,0-0.3,0.1l0,0L8.1,0.9l0,0L0.5,11.8
	C0.3,12,0.4,12.3,0.6,12.5z" />
</symbol></defs></svg>