<svg height="24" viewBox="0 0 17 24" width="17" xmlns="http://www.w3.org/2000/svg" xmlns:xlink="http://www.w3.org/1999/xlink"><mask id="a" fill="#fff"><path d="m.26836528.14632258h16.54068952v23.47532902h-16.54068952z" fill="#fff" fill-rule="evenodd"/></mask><g fill="#06748c" fill-rule="evenodd"><path d="m8.5 6.3559018c1.18209323 0 2.144554.96121512 2.144554 2.1429212 0 1.18249075-.96246077 2.1452752-2.144554 2.1452752s-2.14455401-.96278445-2.14455401-2.1452752c0-1.18170608.96246078-2.1429212 2.14455401-2.1429212m3.5 2.1429212c0-1.92949221-1.570372-3.498823-3.5-3.498823-1.92962797 0-3.5 1.56933079-3.5 3.498823 0 1.9302769 1.57037203 3.501177 3.5 3.501177 1.929628 0 3.5-1.5709001 3.5-3.501177"/><path d="m14.3961409 2.57752258c-1.5647727-1.56774193-3.6441818-2.43174194-5.85572726-2.43174194-2.21231819 0-4.29172728.86322581-5.85495455 2.42941936-2.87686364 2.88232258-3.24390909 8.2931613-.78740909 11.5858065l4.79322727 6.9344516.22486364.3251613.00077273-.0015484.81136363-1.1736775-4.73990909-6.856258c-.00463636-.0069678-.00927273-.0139355-.01468182-.020129-2.0940909-2.7979355-1.78809091-7.39974198.65527273-9.84774198 1.31209091-1.31380646 3.05613636-2.03767742 4.91145455-2.03767742 1.85454546 0 3.59859086.72464516 4.91145456 2.04 2.4433636 2.44567742 2.7447273 7.0513548.646 9.8562581-.0054091.0069677-.0100455.0139354-.0146818.0209032l-5.54277276 8.019871-.86622728 1.0877419.77504546 1.1132903c.01159091-.0131613.02472727-.024.03477273-.0387097l6.68949995-9.4103225c2.4611364-3.3011613 2.0987273-8.71587101-.7773636-11.59509682" mask="url(#a)"/></g></svg>
