<svg xmlns="http://www.w3.org/2000/svg" xmlns:xlink="http://www.w3.org/1999/xlink" width="70" height="70" viewBox="0 0 70 70">
    <defs>
        <path id="twaqkwc4ta" d="M16.992 0c2.093 0 3.96 1.09 4.993 2.918l9.613 16.643-1.825.718L20.301 3.88c-.688-1.218-1.923-1.941-3.309-1.941-1.384 0-2.62.723-3.303 1.932L2.435 23.355c-.674 1.204-.658 2.65.049 3.857.695 1.186 1.927 1.895 3.295 1.895h22.427c1.382 0 2.625-.724 3.324-1.936.696-1.206.704-2.632.02-3.816l-.612-1.061 1.782-.788.509.88c1.035 1.79 1.027 3.94-.02 5.755-1.05 1.819-2.92 2.905-5.003 2.905H5.779c-2.064 0-3.921-1.068-4.968-2.855-1.06-1.807-1.082-3.973-.062-5.795L12.005 2.91C13.034 1.09 14.899 0 16.992 0zm1.364 22.737v2.616h-2.983v-2.616h2.983zm.098-14.619l-.372 12.409h-2.461l-.398-12.409h3.231z"/>
    </defs>
    <g fill="none" fill-rule="evenodd">
        <g>
            <g transform="translate(-685 -1665) translate(685 1665)">
                <circle cx="35" cy="35" r="35" fill="#EDFDFC"/>
                <g>
                    <g transform="translate(18 18) translate(0 1.417)">
                        <mask id="n8ze3q8l1b" fill="#fff">
                            <use xlink:href="#twaqkwc4ta"/>
                        </mask>
                        <use fill="#13112B" xlink:href="#twaqkwc4ta"/>
                        <g fill="#1A1446" mask="url(#n8ze3q8l1b)">
                            <path d="M0 0H141.667V141.667H0z" transform="translate(-53.833 -55.25)"/>
                        </g>
                    </g>
                </g>
            </g>
        </g>
    </g>
</svg>
