<svg height="24" viewBox="0 0 23 24" width="23" xmlns="http://www.w3.org/2000/svg" xmlns:xlink="http://www.w3.org/1999/xlink"><defs><path id="a" d="m7.50592274 13.7615893s.04855668 0 .08144991.0328933l.13705514.2827251 3.47493521 7.0869256 3.2579965-6.9921617.1934436-.3696573c.0438576-.0336764.0853658-.0281942.0853658-.0281942l.4346605.1589839c4.1719586 1.5318849 7.0391521 5.5816686 7.0391521 10.066896h-1.40971c0-3.6441004-2.1787852-6.9561358-5.4258173-8.4590434l-3.519576 7.5552626c-.1143432.2459161-.3602592.4041169-.63202.4064664-.2756766 0-.5215927-.1527186-.6398517-.3939356l-3.71771865-7.5811073c-3.26269555 1.4966422-5.45557782 4.8172925-5.45557782 8.4723573h-1.40971003c0-4.5079394 2.89695411-8.5749528 7.10415538-10.089608zm11.15910796 6.9619313v1.4097101h-4.210334v-1.4097101zm-6.0355169-7.3713737-.5247254 1.545982.1049451.495748c.0673528.2294695.0540389.4753855-.0375922.6962401l-1.1622276 2.4513291-1.22018239-2.4301834c-.10259557-.2333854-.11590949-.4965312-.03837544-.7400978l.13705514-.473036-.57093256-1.545982zm-1.5239748-13.3521469c3.1044947 0 5.6310084 2.52651364 5.6310084 5.6310084 0 3.10292841-2.5265137 5.6270925-5.6310084 5.6270925-3.1037116 0-5.6286589-2.52416409-5.6286589-5.6270925 0-3.10449476 2.5249473-5.6310084 5.6286589-5.6310084zm0 1.40971003c-2.32602156 0-4.21894887 1.89371047-4.21894887 4.22129837 0 2.32523838 1.89292731 4.21659934 4.21894887 4.21659934 2.3275879 0 4.2212984-1.89136096 4.2212984-4.21659934 0-2.3275879-1.8937105-4.22129837-4.2212984-4.22129837z"/><mask id="b" fill="#fff"><use fill="#fff" fill-rule="evenodd" xlink:href="#a"/></mask></defs><g fill="none" fill-rule="evenodd"><use fill="#13112b" xlink:href="#a"/><g mask="url(#b)"><path d="m0 0h100v100h-100z" fill="#1a1446" transform="translate(-39 -38)"/></g></g></svg>