<svg xmlns="http://www.w3.org/2000/svg" viewBox="0 0 40.22 42.48"><defs><style>.cls-1{fill:#1a1446;fill-rule:evenodd;}</style></defs><g id="Capa_2" data-name="Capa 2"><g id="Capa_1-2" data-name="Capa 1"><g id="b"><path id="a" class="cls-1" d="M9,30.19a.12.12,0,0,1,.09,0l.17.34,4.17,8.51,3.91-8.39.23-.45a.13.13,0,0,1,.1,0l.52.19a13,13,0,0,1,8.45,12.08H25a11.25,11.25,0,0,0-6.51-10.15L14.23,41.4a.85.85,0,0,1-1.53,0l-4.46-9.1A11.26,11.26,0,0,0,1.69,42.48H0A13,13,0,0,1,8.52,30.37ZM22.4,38.55v1.69h-5V38.55ZM15.16,29.7l-.63,1.86.12.59a1.27,1.27,0,0,1,0,.84l-1.4,2.94L11.75,33a1.22,1.22,0,0,1-.05-.88l.17-.57-.69-1.86Zm-1.83-16a6.76,6.76,0,1,1-6.76,6.76A6.76,6.76,0,0,1,13.33,13.68Zm0,1.69a5.07,5.07,0,1,0,5.06,5.07A5.08,5.08,0,0,0,13.33,15.37Z"/></g><g id="d"><path id="b-2" data-name="b" class="cls-1" d="M40.22,6.19l-6.67-.07L31.17,0l-.51,1.32c.47,1.23,1.95,5.06,2.25,5.78l4.57.05-3.6,2.91,1,4.06-3.72-2.51-3.71,2.5L28.52,10,25,7.1l4.52,0L30.55,4.3l-.48-1.47L28.8,6.1l-6.58,0,5.19,4.28-1.56,6,5.32-3.57,5.29,3.56L35,10.43Z"/></g></g></g></svg>