<svg height="50" viewBox="0 0 49 50" width="49" xmlns="http://www.w3.org/2000/svg" xmlns:xlink="http://www.w3.org/1999/xlink"><defs><path id="a" d="m13.3795703 0v3.37906772h4.2558739c.478452 0 .8650584.38660636.8650584.86505843v4.45558487h-1.7301169v-3.59052645h-3.3908154v3.18149265h-8.29067722v-3.18149265h-3.35877623v27.16069863h6.61502701v-2.7863426h1.73011684v2.7863426h6.695125v-20.4805252c0-.4773841.3876744-.8650585.8650585-.8650585h13.4009297c.4773841 0 .8650584.3876744.8650584.8650585v22.1882146h-1.7301168v-21.3231562h-11.6708129v20.4805252c0 .4773841-.3866064.8650584-.8650584.8650584h-16.77038578c-.47738409 0-.86505842-.3876743-.86505842-.8650584v-28.89081545c0-.47845207.38767433-.86505843.86505842-.86505843h4.22383466v-3.37906772zm11.300333 29.4833271v4.4940319h-1.7301169v-4.4940319zm-1.685262-6.1783328v2.80877h-1.7301169v-2.80877zm4.4939251 0v2.80877h-1.7301168v-2.80877zm-20.78404322 0v2.80877h-1.73011685v-2.80877zm6.74072752 0v2.80877h-1.7301169v-2.80877zm-6.74094111-5.6173263v2.80877h-1.73011685v-2.80877zm6.74072751 0v2.80877h-1.7301169v-2.80877zm9.5498178-.5617539v2.8087699h-1.7301169v-2.8087699zm4.4940319 0v2.8087699h-1.7301169v-2.8087699zm-20.78457721-5.0551452v2.80877h-1.73011685v-2.80877zm6.74072751 0v2.80877h-1.7301169v-2.80877zm-3.44987439-10.7678414h-1.53788164v2.22992839h-2.25769569v1.53788164h2.25769569v2.22992838h1.53788164v-2.22992838h2.20216109v-1.53788164h-2.20216109z"/><path id="b" d="m20 6.87680301-7.4148978-.07470165-2.64249493-6.80210136-.56846133 1.46305912c.53019951 1.37438888 2.17059916 5.62023626 2.50280886 6.42494914l5.0772828.05101576-3.9950198 3.24010808 1.11931 4.5021409-4.13592053-2.784003-4.11830798 2.771249 1.17396982-4.5191461-3.96404604-3.26379396 5.02383772-.01761259 1.20251435-3.09495612-.5380948-1.63311165-1.41386536 3.63730223-7.30861498.02611521 5.76478091 4.74628768-1.72421123 6.6369075 5.90203759-3.971334 5.88260303 3.9591874-1.637363-6.5840697z"/><mask id="c" fill="#fff"><use fill="#fff" fill-rule="evenodd" xlink:href="#a"/></mask><mask id="d" fill="#fff"><use fill="#fff" fill-rule="evenodd" xlink:href="#b"/></mask></defs><g fill="none" fill-rule="evenodd"><g transform="translate(1.416667 16)"><use fill="#13112b" xlink:href="#a"/><g mask="url(#c)"><path d="m0 0h141.666667v141.666667h-141.666667z" fill="#1a1446" transform="translate(-55.25 -53.833333)"/></g></g><g transform="translate(29 .833333)"><use fill="#13112b" xlink:href="#b"/><g mask="url(#d)"><path d="m0 0h83.333333v83.333333h-83.333333z" fill="#1a1446" transform="translate(-31.666667 -32.5)"/></g></g></g></svg>