<svg height="20" viewBox="0 0 20 20" width="20" xmlns="http://www.w3.org/2000/svg" xmlns:xlink="http://www.w3.org/1999/xlink"><defs><path id="a" d="m3.68605112 2.206c.332.06733333.62733333.22933333.87266666.48l2.61066667 2.63866667c.17866667.18866666.30466667.386.38666667.6.118.31133333.148.63333333.08733333.958-.06133333.33866666-.21933333.63933333-.468.88933333l-1.18066667 1.206c-.052.052-.064.088-.06933333.11933333-.01133333.06666667-.006.11933334.016.178.01.026.05533333.09733334.10066667.144l4.38266668 4.44933337c.0453333.046.0886666.076.1186666.0813333.02.0033333.036.0053333.0513334.0053333.034 0 .068-.008.1053333-.0226666.0253333-.0086667.0526667-.0286667.0826667-.0593334l1.178-1.2c.1853333-.1833333.3853333-.3133333.604-.3966666.3013333-.1153334.6266666-.142.9546666-.074.336.0673333.6293334.226.8746667.4713333l2.614 2.648c.1713333.176.3013333.378.3873333.6026667.1173334.3053333.146.6226666.088.946-.0633333.3353333-.2153333.6286666-.4506666.8786666l-.614.6353334c-.2886667.292-.5906667.538-.9046667.736-.304.1966666-.6373333.3646666-.9853333.4973333-.554.2106667-1.146.3306667-1.758.3526667-.0753334.0026666-.15.004-.224.004-.5246667 0-1.0586667-.0666667-1.586-.196-.5973334-.1473334-1.19533335-.3753334-1.77800002-.6786667-.57066666-.2986667-1.12533333-.6646667-1.64866666-1.0913333-.30333334-.2186667-.63466667-.478-.984-.7686667-.29533334-.2433333-.63733334-.54-1.046-.906-.394-.3493333-.80933334-.75-1.27-1.2213333-.45533334-.4606667-.82533334-.8593334-1.124-1.2146667-.29666667-.3526667-.53866667-.6546667-.722-.898-.21533334-.2866667-.382-.5333333-.51066667-.7546667-.28866667-.384-.544-.7753333-.758-1.1626666-.22866667-.414-.42666667-.8373334-.58666667-1.2586667-.21533333-.56133333-.36866666-1.13533333-.45666666-1.70666667-.08933334-.59466666-.09933334-1.17333333-.03333334-1.72333333.06533334-.57466667.22-1.13066667.46-1.64866667.242-.53133333.586-1.02466666 1.01933334-1.462l.594-.60733333c.00866666-.00866667.01733333-.018.02666666-.026.17733334-.16533333.37266667-.29.58266667-.37.306-.11733333.63333333-.14266667.96066667-.074zm-.35933334 1.59133333c-.02266666.00533334-.04066666.01466667-.06266666.034l-.58066667.59533334c-.30733333.30933333-.53466667.63333333-.70066667.998-.16866666.364-.276.75266666-.32266666 1.15933333-.04933334.41-.04066667.84266667.02666666 1.28933333.06933334.45333334.19333334.91533334.36733334 1.36933334.13333333.35066666.29866666.70466666.49133333 1.05200003.18333333.3333333.406.672.66133333 1.008.02066667.0286666.04133334.0586666.05933334.09.09866666.1733333.23733333.3786666.42466666.6286666.16466667.22.39.4986667.666.828.27066667.3213334.61066667.688 1.03866667 1.1213334.438.448.826.822 1.192 1.1473333.39533333.354.72266667.6366667 1.002.8686667.33066667.274.638.514.91733333.7146666.01333334.01.02666667.0206667.04.0313334.44266667.362.91.6726666 1.388.9226666.46800002.2426667.94466662.4246667 1.41600002.542.456.112.914.16 1.3613333.146.4373333-.0173333.8426667-.098 1.236-.2473333.2433333-.0933333.4753333-.2106667.69-.348.2166667-.138.4166667-.3006667.616-.5026667l.6-.6206666c.0226667-.0246667.026-.0406667.028-.0513334.0046667-.0253333.0006667-.0453333-.008-.066-.006-.0173333-.0133333-.0286666-.028-.0433333l-2.608-2.6426667c-.018-.018-.0273333-.02-.0413333-.0226666-.016-.0033334-.026-.004-.032-.004-.0246667.006-.0366667.0146666-.0513334.0286666l-1.176 1.1993334c-.2006666.1993333-.4193333.3426666-.656.4326666-.2226666.0846667-.454.1286667-.6866666.1286667-.112 0-.2253334-.0106667-.3373334-.0313333-.36666662-.064-.70199995-.246-.99266662-.54l-4.38866666-4.456c-.09733334-.1-.32666667-.36-.45666667-.70000003-.12933333-.33933334-.162-.68866667-.098-1.04133334.06266667-.366.23466667-.698.51066667-.97866666l1.18333333-1.20933334c.02266667-.02266666.024-.02866666.026-.04.00533333-.02733333.00533333-.048-.008-.082-.00466667-.01533333-.024-.03533333-.034-.04666666l-2.60333333-2.63066667c-.02266667-.02333333-.03-.02466667-.03933334-.02666667zm6.67306667-3.79733333c5.51599995 0 10.00266665 4.48733333 10.00266665 10.0026667h-1.6666667c0-4.5966667-3.7393333-8.33600003-8.33599995-8.33600003zm-.00013333 2.49533333c4.13999998 0 7.50799998 3.368 7.50799998 7.50733337h-1.6666667c0-3.2206667-2.6206666-5.8406667-5.84133328-5.8406667z"/><mask id="b" fill="#fff"><use fill="#fff" fill-rule="evenodd" xlink:href="#a"/></mask></defs><g fill="#1a1446" fill-rule="evenodd"><use xlink:href="#a"/><g mask="url(#b)"><path d="m0 0h20v20h-20z"/></g></g></svg>