<svg xmlns="http://www.w3.org/2000/svg" width="18" height="18" viewBox="0 0 18 18">
    <g fill="none" fill-rule="evenodd">
        <g fill="#191446">
            <path d="M412 1772c4.971 0 9 3.991 9 8.916 0 4.924-4.029 8.916-9 8.916-1.583 0-3.07-.408-4.363-1.118l-4.51 1.286 1.134-4.532c-.8-1.333-1.261-2.888-1.261-4.552 0-4.925 4.03-8.916 9-8.916zm.102 1.547c-4.127 0-7.472 3.314-7.472 7.402 0 1.564.491 3.013 1.327 4.21l-.656 2.62 2.568-.732c1.203.82 2.66 1.304 4.233 1.304 4.127 0 7.472-3.314 7.472-7.402s-3.345-7.402-7.472-7.402zm-3.732 3.197c.314-.138.71-.09.94.135.171.166.323.564.44.848.066.157.134.312.2.468.102.242.205.507.192.775-.014.278-.285.463-.466.656l-.323.342c.736 1.9 3.508 2.835 3.508 2.835.215-.205.432-.41.644-.616.164-.161.336-.362.577-.424.328-.083.655.108.94.237.33.149.586.291.874.442.224.12.415.284.434.534.02.257-.058.59-.171.826-.527 1.096-2.491.838-2.491.838-5.473-.934-6.56-5.478-6.56-5.478-.497-1.426.873-2.221 1.195-2.386l.059-.028z" transform="translate(-403 -1772)"/>
        </g>
    </g>
</svg>
