<svg xmlns="http://www.w3.org/2000/svg" width="24" height="24" viewBox="0 0 24 24">
  <g id="Grupo_29130" data-name="Grupo 29130" transform="translate(-1124 -770.5)">
    <g id="Elipse_408" data-name="Elipse 408" transform="translate(1124 770.5)" fill="#fff" stroke="#65a518" stroke-width="1">
      <circle cx="12" cy="12" r="12" stroke="none"/>
      <circle cx="12" cy="12" r="11.5" fill="none"/>
    </g>
    <g id="Icon_Account_Experience_Phone_16px" data-name="Icon/Account Experience/Phone/16px" transform="translate(1129.949 776.314)">
      <g id="Fill_1" data-name="Fill 1" transform="translate(0.05 0.186)">
        <path id="Fill_1-2" data-name="Fill 1" d="M9.7,12.457c-.073,0-.147,0-.223-.006A12.353,12.353,0,0,1,3.046,9.3,10.889,10.889,0,0,1,.018,3.329,2.336,2.336,0,0,1,.737,1.167C1.183.787,2.185.032,2.227,0L2.7.632C2.693.64,1.678,1.4,1.25,1.769.986,2,.726,2.348.807,3.258A10.148,10.148,0,0,0,3.591,8.728,11.636,11.636,0,0,0,9.516,11.66a2.62,2.62,0,0,0,2.026-.721c.178-.186.261-.316.258-.409,0-.064-.045-.213-.325-.477-.385-.363-1.376-1.346-1.616-1.586a.582.582,0,0,0-.372-.195A.524.524,0,0,0,9.1,8.49l-.238.238c-.15.148-.27.268-.466.489a1.136,1.136,0,0,1-1.712.27c-.556-.433-2.83-2.653-3.154-2.973-.436-.431-1.095-1.082-.43-1.769.207-.215.487-.455.749-.678.2-.171.391-.333.519-.461.176-.178.092-.282.036-.35C4.111,2.9,2.963,1.67,2.951,1.657l.58-.539c.048.051,1.178,1.265,1.482,1.639a1,1,0,0,1-.087,1.406c-.139.142-.347.32-.569.508-.242.207-.5.428-.692.625a.209.209,0,0,0-.057.078c0,.11.356.463.474.579.516.509,2.6,2.534,3.084,2.912.177.139.3.2.633-.171.211-.238.341-.367.5-.526l.231-.231a1.338,1.338,0,0,1,.95-.455,1.481,1.481,0,0,1,.938.426c.238.238,1.22,1.211,1.6,1.571a1.5,1.5,0,0,1,.573,1.034,1.385,1.385,0,0,1-.481.977,3.366,3.366,0,0,1-2.416.969" fill="none"/>
        <path id="Fill_1-3" data-name="Fill 1" d="M9.7,12.457c-.073,0-.147,0-.223-.006A12.353,12.353,0,0,1,3.046,9.3,10.889,10.889,0,0,1,.018,3.329,2.336,2.336,0,0,1,.737,1.167C1.183.787,2.185.032,2.227,0L2.7.632C2.693.64,1.678,1.4,1.25,1.769.986,2,.726,2.348.807,3.258A10.148,10.148,0,0,0,3.591,8.728,11.636,11.636,0,0,0,9.516,11.66a2.62,2.62,0,0,0,2.026-.721c.178-.186.261-.316.258-.409,0-.064-.045-.213-.325-.477-.385-.363-1.376-1.346-1.616-1.586a.582.582,0,0,0-.372-.195A.524.524,0,0,0,9.1,8.49l-.238.238c-.15.148-.27.268-.466.489a1.136,1.136,0,0,1-1.712.27c-.556-.433-2.83-2.653-3.154-2.973-.436-.431-1.095-1.082-.43-1.769.207-.215.487-.455.749-.678.2-.171.391-.333.519-.461.176-.178.092-.282.036-.35C4.111,2.9,2.963,1.67,2.951,1.657l.58-.539c.048.051,1.178,1.265,1.482,1.639a1,1,0,0,1-.087,1.406c-.139.142-.347.32-.569.508-.242.207-.5.428-.692.625a.209.209,0,0,0-.057.078c0,.11.356.463.474.579.516.509,2.6,2.534,3.084,2.912.177.139.3.2.633-.171.211-.238.341-.367.5-.526l.231-.231a1.338,1.338,0,0,1,.95-.455,1.481,1.481,0,0,1,.938.426c.238.238,1.22,1.211,1.6,1.571a1.5,1.5,0,0,1,.573,1.034,1.385,1.385,0,0,1-.481.977,3.366,3.366,0,0,1-2.416.969" fill="none"/>
        <path id="Fill_1-4" data-name="Fill 1" d="M9.7,12.457c-.073,0-.147,0-.223-.006A12.353,12.353,0,0,1,3.046,9.3,10.889,10.889,0,0,1,.018,3.329,2.336,2.336,0,0,1,.737,1.167C1.183.787,2.185.032,2.227,0L2.7.632C2.693.64,1.678,1.4,1.25,1.769.986,2,.726,2.348.807,3.258A10.148,10.148,0,0,0,3.591,8.728,11.636,11.636,0,0,0,9.516,11.66a2.62,2.62,0,0,0,2.026-.721c.178-.186.261-.316.258-.409,0-.064-.045-.213-.325-.477-.385-.363-1.376-1.346-1.616-1.586a.582.582,0,0,0-.372-.195A.524.524,0,0,0,9.1,8.49l-.238.238c-.15.148-.27.268-.466.489a1.136,1.136,0,0,1-1.712.27c-.556-.433-2.83-2.653-3.154-2.973-.436-.431-1.095-1.082-.43-1.769.207-.215.487-.455.749-.678.2-.171.391-.333.519-.461.176-.178.092-.282.036-.35C4.111,2.9,2.963,1.67,2.951,1.657l.58-.539c.048.051,1.178,1.265,1.482,1.639a1,1,0,0,1-.087,1.406c-.139.142-.347.32-.569.508-.242.207-.5.428-.692.625a.209.209,0,0,0-.057.078c0,.11.356.463.474.579.516.509,2.6,2.534,3.084,2.912.177.139.3.2.633-.171.211-.238.341-.367.5-.526l.231-.231a1.338,1.338,0,0,1,.95-.455,1.481,1.481,0,0,1,.938.426c.238.238,1.22,1.211,1.6,1.571a1.5,1.5,0,0,1,.573,1.034,1.385,1.385,0,0,1-.481.977,3.366,3.366,0,0,1-2.416.969" fill="none"/>
        <path id="Fill_1-5" data-name="Fill 1" d="M9.7,12.457c-.073,0-.147,0-.223-.006A12.353,12.353,0,0,1,3.046,9.3,10.889,10.889,0,0,1,.018,3.329,2.336,2.336,0,0,1,.737,1.167C1.183.787,2.185.032,2.227,0L2.7.632C2.693.64,1.678,1.4,1.25,1.769.986,2,.726,2.348.807,3.258A10.148,10.148,0,0,0,3.591,8.728,11.636,11.636,0,0,0,9.516,11.66a2.62,2.62,0,0,0,2.026-.721c.178-.186.261-.316.258-.409,0-.064-.045-.213-.325-.477-.385-.363-1.376-1.346-1.616-1.586a.582.582,0,0,0-.372-.195A.524.524,0,0,0,9.1,8.49l-.238.238c-.15.148-.27.268-.466.489a1.136,1.136,0,0,1-1.712.27c-.556-.433-2.83-2.653-3.154-2.973-.436-.431-1.095-1.082-.43-1.769.207-.215.487-.455.749-.678.2-.171.391-.333.519-.461.176-.178.092-.282.036-.35C4.111,2.9,2.963,1.67,2.951,1.657l.58-.539c.048.051,1.178,1.265,1.482,1.639a1,1,0,0,1-.087,1.406c-.139.142-.347.32-.569.508-.242.207-.5.428-.692.625a.209.209,0,0,0-.057.078c0,.11.356.463.474.579.516.509,2.6,2.534,3.084,2.912.177.139.3.2.633-.171.211-.238.341-.367.5-.526l.231-.231a1.338,1.338,0,0,1,.95-.455,1.481,1.481,0,0,1,.938.426c.238.238,1.22,1.211,1.6,1.571a1.5,1.5,0,0,1,.573,1.034,1.385,1.385,0,0,1-.481.977,3.366,3.366,0,0,1-2.416.969" fill="none"/>
        <path id="Fill_1-6" data-name="Fill 1" d="M9.7,12.457c-.073,0-.147,0-.223-.006A12.353,12.353,0,0,1,3.046,9.3,10.889,10.889,0,0,1,.018,3.329,2.336,2.336,0,0,1,.737,1.167C1.183.787,2.185.032,2.227,0L2.7.632C2.693.64,1.678,1.4,1.25,1.769.986,2,.726,2.348.807,3.258A10.148,10.148,0,0,0,3.591,8.728,11.636,11.636,0,0,0,9.516,11.66a2.62,2.62,0,0,0,2.026-.721c.178-.186.261-.316.258-.409,0-.064-.045-.213-.325-.477-.385-.363-1.376-1.346-1.616-1.586a.582.582,0,0,0-.372-.195A.524.524,0,0,0,9.1,8.49l-.238.238c-.15.148-.27.268-.466.489a1.136,1.136,0,0,1-1.712.27c-.556-.433-2.83-2.653-3.154-2.973-.436-.431-1.095-1.082-.43-1.769.207-.215.487-.455.749-.678.2-.171.391-.333.519-.461.176-.178.092-.282.036-.35C4.111,2.9,2.963,1.67,2.951,1.657l.58-.539c.048.051,1.178,1.265,1.482,1.639a1,1,0,0,1-.087,1.406c-.139.142-.347.32-.569.508-.242.207-.5.428-.692.625a.209.209,0,0,0-.057.078c0,.11.356.463.474.579.516.509,2.6,2.534,3.084,2.912.177.139.3.2.633-.171.211-.238.341-.367.5-.526l.231-.231a1.338,1.338,0,0,1,.95-.455,1.481,1.481,0,0,1,.938.426c.238.238,1.22,1.211,1.6,1.571a1.5,1.5,0,0,1,.573,1.034,1.385,1.385,0,0,1-.481.977,3.366,3.366,0,0,1-2.416.969" fill="none"/>
        <path id="Fill_1-7" data-name="Fill 1" d="M9.7,12.457c-.073,0-.147,0-.223-.006A12.353,12.353,0,0,1,3.046,9.3,10.889,10.889,0,0,1,.018,3.329,2.336,2.336,0,0,1,.737,1.167C1.183.787,2.185.032,2.227,0L2.7.632C2.693.64,1.678,1.4,1.25,1.769.986,2,.726,2.348.807,3.258A10.148,10.148,0,0,0,3.591,8.728,11.636,11.636,0,0,0,9.516,11.66a2.62,2.62,0,0,0,2.026-.721c.178-.186.261-.316.258-.409,0-.064-.045-.213-.325-.477-.385-.363-1.376-1.346-1.616-1.586a.582.582,0,0,0-.372-.195A.524.524,0,0,0,9.1,8.49l-.238.238c-.15.148-.27.268-.466.489a1.136,1.136,0,0,1-1.712.27c-.556-.433-2.83-2.653-3.154-2.973-.436-.431-1.095-1.082-.43-1.769.207-.215.487-.455.749-.678.2-.171.391-.333.519-.461.176-.178.092-.282.036-.35C4.111,2.9,2.963,1.67,2.951,1.657l.58-.539c.048.051,1.178,1.265,1.482,1.639a1,1,0,0,1-.087,1.406c-.139.142-.347.32-.569.508-.242.207-.5.428-.692.625a.209.209,0,0,0-.057.078c0,.11.356.463.474.579.516.509,2.6,2.534,3.084,2.912.177.139.3.2.633-.171.211-.238.341-.367.5-.526l.231-.231a1.338,1.338,0,0,1,.95-.455,1.481,1.481,0,0,1,.938.426c.238.238,1.22,1.211,1.6,1.571a1.5,1.5,0,0,1,.573,1.034,1.385,1.385,0,0,1-.481.977,3.366,3.366,0,0,1-2.416.969" fill="#006729"/>
      </g>
    </g>
  </g>
</svg>
