<svg id="Color_Liberty_Blue" data-name="Color/Liberty Blue" xmlns="http://www.w3.org/2000/svg" xmlns:xlink="http://www.w3.org/1999/xlink" viewBox="0 0 20.494 24">
  <defs>
    <clipPath id="clip-path">
      <path id="Mask" d="M4.86,24a.676.676,0,0,1-.676-.677V21.145H5.537v1.5H19.142V5.071H17.249V3.719h2.569a.676.676,0,0,1,.676.676V23.323a.676.676,0,0,1-.676.677ZM.676,20.281A.676.676,0,0,1,0,19.606V.675A.675.675,0,0,1,.676,0h.677V18.929H14.959V1.352H2.923V0H15.635a.675.675,0,0,1,.676.675V19.606a.676.676,0,0,1-.676.676Zm2.364-4.99V13.938H13.353v1.353Zm0-4.306V9.634H13.353v1.352Zm0-4.3V5.329H13.353V6.681Z" fill="#13112b"/>
    </clipPath>
  </defs>
  <path id="Mask-2" data-name="Mask" d="M4.86,24a.676.676,0,0,1-.676-.677V21.145H5.537v1.5H19.142V5.071H17.249V3.719h2.569a.676.676,0,0,1,.676.676V23.323a.676.676,0,0,1-.676.677ZM.676,20.281A.676.676,0,0,1,0,19.606V.675A.675.675,0,0,1,.676,0h.677V18.929H14.959V1.352H2.923V0H15.635a.675.675,0,0,1,.676.675V19.606a.676.676,0,0,1-.676.676Zm2.364-4.99V13.938H13.353v1.353Zm0-4.306V9.634H13.353v1.352Zm0-4.3V5.329H13.353V6.681Z" fill="#13112b"/>
</svg>
