<svg id="Icon_System_Help_16px" data-name="Icon/System/Help/16px" xmlns="http://www.w3.org/2000/svg" width="15.899" height="15.9" viewBox="0 0 15.899 15.9">
  <g id="Combined_Shape" data-name="Combined Shape" transform="translate(-0.05 -0.327)">
    <path id="Combined_Shape-2" data-name="Combined Shape" d="M2.331,13.569A7.947,7.947,0,1,1,13.57,2.331,7.947,7.947,0,1,1,2.331,13.569ZM1,7.95A6.949,6.949,0,1,0,7.951,1,6.958,6.958,0,0,0,1,7.95ZM7.24,12.444V11.079H8.562v1.365Zm.172-2.173V9.937A2.839,2.839,0,0,1,8.663,7.609a2.259,2.259,0,0,0,.955-1.882A1.486,1.486,0,0,0,8.042,4.213a1.658,1.658,0,0,0-1.75,1.619l-.023.136H5.286L5.3,5.792A2.653,2.653,0,0,1,8.057,3.264a2.515,2.515,0,0,1,1.993.826,2.528,2.528,0,0,1,.579,1.622A3.126,3.126,0,0,1,9.284,8.319a2.06,2.06,0,0,0-.893,1.7v.256Z" transform="translate(0.05 0.327)" fill="none"/>
    <path id="Combined_Shape-3" data-name="Combined Shape" d="M2.331,13.569A7.947,7.947,0,1,1,13.57,2.331,7.947,7.947,0,1,1,2.331,13.569ZM1,7.95A6.949,6.949,0,1,0,7.951,1,6.958,6.958,0,0,0,1,7.95ZM7.24,12.444V11.079H8.562v1.365Zm.172-2.173V9.937A2.839,2.839,0,0,1,8.663,7.609a2.259,2.259,0,0,0,.955-1.882A1.486,1.486,0,0,0,8.042,4.213a1.658,1.658,0,0,0-1.75,1.619l-.023.136H5.286L5.3,5.792A2.653,2.653,0,0,1,8.057,3.264a2.515,2.515,0,0,1,1.993.826,2.528,2.528,0,0,1,.579,1.622A3.126,3.126,0,0,1,9.284,8.319a2.06,2.06,0,0,0-.893,1.7v.256Z" transform="translate(0.05 0.327)" fill="none"/>
    <path id="Combined_Shape-4" data-name="Combined Shape" d="M2.331,13.569A7.947,7.947,0,1,1,13.57,2.331,7.947,7.947,0,1,1,2.331,13.569ZM1,7.95A6.949,6.949,0,1,0,7.951,1,6.958,6.958,0,0,0,1,7.95ZM7.24,12.444V11.079H8.562v1.365Zm.172-2.173V9.937A2.839,2.839,0,0,1,8.663,7.609a2.259,2.259,0,0,0,.955-1.882A1.486,1.486,0,0,0,8.042,4.213a1.658,1.658,0,0,0-1.75,1.619l-.023.136H5.286L5.3,5.792A2.653,2.653,0,0,1,8.057,3.264a2.515,2.515,0,0,1,1.993.826,2.528,2.528,0,0,1,.579,1.622A3.126,3.126,0,0,1,9.284,8.319a2.06,2.06,0,0,0-.893,1.7v.256Z" transform="translate(0.05 0.327)" fill="none"/>
    <path id="Combined_Shape-5" data-name="Combined Shape" d="M2.331,13.569A7.947,7.947,0,1,1,13.57,2.331,7.947,7.947,0,1,1,2.331,13.569ZM1,7.95A6.949,6.949,0,1,0,7.951,1,6.958,6.958,0,0,0,1,7.95ZM7.24,12.444V11.079H8.562v1.365Zm.172-2.173V9.937A2.839,2.839,0,0,1,8.663,7.609a2.259,2.259,0,0,0,.955-1.882A1.486,1.486,0,0,0,8.042,4.213a1.658,1.658,0,0,0-1.75,1.619l-.023.136H5.286L5.3,5.792A2.653,2.653,0,0,1,8.057,3.264a2.515,2.515,0,0,1,1.993.826,2.528,2.528,0,0,1,.579,1.622A3.126,3.126,0,0,1,9.284,8.319a2.06,2.06,0,0,0-.893,1.7v.256Z" transform="translate(0.05 0.327)" fill="none"/>
    <path id="Combined_Shape-6" data-name="Combined Shape" d="M2.331,13.569A7.947,7.947,0,1,1,13.57,2.331,7.947,7.947,0,1,1,2.331,13.569ZM1,7.95A6.949,6.949,0,1,0,7.951,1,6.958,6.958,0,0,0,1,7.95ZM7.24,12.444V11.079H8.562v1.365Zm.172-2.173V9.937A2.839,2.839,0,0,1,8.663,7.609a2.259,2.259,0,0,0,.955-1.882A1.486,1.486,0,0,0,8.042,4.213a1.658,1.658,0,0,0-1.75,1.619l-.023.136H5.286L5.3,5.792A2.653,2.653,0,0,1,8.057,3.264a2.515,2.515,0,0,1,1.993.826,2.528,2.528,0,0,1,.579,1.622A3.126,3.126,0,0,1,9.284,8.319a2.06,2.06,0,0,0-.893,1.7v.256Z" transform="translate(0.05 0.327)" fill="none"/>
    <path id="Combined_Shape-7" data-name="Combined Shape" d="M2.331,13.569A7.947,7.947,0,1,1,13.57,2.331,7.947,7.947,0,1,1,2.331,13.569ZM1,7.95A6.949,6.949,0,1,0,7.951,1,6.958,6.958,0,0,0,1,7.95ZM7.24,12.444V11.079H8.562v1.365Zm.172-2.173V9.937A2.839,2.839,0,0,1,8.663,7.609a2.259,2.259,0,0,0,.955-1.882A1.486,1.486,0,0,0,8.042,4.213a1.658,1.658,0,0,0-1.75,1.619l-.023.136H5.286L5.3,5.792A2.653,2.653,0,0,1,8.057,3.264a2.515,2.515,0,0,1,1.993.826,2.528,2.528,0,0,1,.579,1.622A3.126,3.126,0,0,1,9.284,8.319a2.06,2.06,0,0,0-.893,1.7v.256Z" transform="translate(0.05 0.327)" fill="#006729"/>
  </g>
</svg>
