<svg id="Grupo_11305" data-name="Grupo 11305" xmlns="http://www.w3.org/2000/svg" viewBox="0 0 32 32">
  <circle id="Elipse_216" data-name="Elipse 216" cx="16" cy="16" r="16" fill="#f5f5f5"/>
  <g id="Icon-System-Trash-16px" transform="translate(9.75 7.998)">
    <g id="Combined_Shape" data-name="Combined Shape">
      <path id="Combined_Shape-2" data-name="Combined Shape" d="M2.917,16a1.856,1.856,0,0,1-1.854-1.854v-9.4h1v9.4A.854.854,0,0,0,2.917,15H9.582a.854.854,0,0,0,.855-.854v-9.4h1v9.4A1.857,1.857,0,0,1,9.582,16Zm5.275-2.858v-8.4h1v8.4Zm-2.442,0v-8.4h1v8.4Zm-2.441,0v-8.4h1v8.4ZM0,3.361v-1H12.5v1ZM7.313,1.884V.951L5.139,1l.049.884h-1V.951A.952.952,0,0,1,5.139,0H7.361a.952.952,0,0,1,.951.951v.932Z" fill="none"/>
      <path id="Combined_Shape-3" data-name="Combined Shape" d="M2.917,16a1.856,1.856,0,0,1-1.854-1.854v-9.4h1v9.4A.854.854,0,0,0,2.917,15H9.582a.854.854,0,0,0,.855-.854v-9.4h1v9.4A1.857,1.857,0,0,1,9.582,16Zm5.275-2.858v-8.4h1v8.4Zm-2.442,0v-8.4h1v8.4Zm-2.441,0v-8.4h1v8.4ZM0,3.361v-1H12.5v1ZM7.313,1.884V.951L5.139,1l.049.884h-1V.951A.952.952,0,0,1,5.139,0H7.361a.952.952,0,0,1,.951.951v.932Z" fill="none"/>
      <path id="Combined_Shape-4" data-name="Combined Shape" d="M2.917,16a1.856,1.856,0,0,1-1.854-1.854v-9.4h1v9.4A.854.854,0,0,0,2.917,15H9.582a.854.854,0,0,0,.855-.854v-9.4h1v9.4A1.857,1.857,0,0,1,9.582,16Zm5.275-2.858v-8.4h1v8.4Zm-2.442,0v-8.4h1v8.4Zm-2.441,0v-8.4h1v8.4ZM0,3.361v-1H12.5v1ZM7.313,1.884V.951L5.139,1l.049.884h-1V.951A.952.952,0,0,1,5.139,0H7.361a.952.952,0,0,1,.951.951v.932Z" fill="none"/>
      <path id="Combined_Shape-5" data-name="Combined Shape" d="M2.917,16a1.856,1.856,0,0,1-1.854-1.854v-9.4h1v9.4A.854.854,0,0,0,2.917,15H9.582a.854.854,0,0,0,.855-.854v-9.4h1v9.4A1.857,1.857,0,0,1,9.582,16Zm5.275-2.858v-8.4h1v8.4Zm-2.442,0v-8.4h1v8.4Zm-2.441,0v-8.4h1v8.4ZM0,3.361v-1H12.5v1ZM7.313,1.884V.951L5.139,1l.049.884h-1V.951A.952.952,0,0,1,5.139,0H7.361a.952.952,0,0,1,.951.951v.932Z" fill="none"/>
      <path id="Combined_Shape-6" data-name="Combined Shape" d="M2.917,16a1.856,1.856,0,0,1-1.854-1.854v-9.4h1v9.4A.854.854,0,0,0,2.917,15H9.582a.854.854,0,0,0,.855-.854v-9.4h1v9.4A1.857,1.857,0,0,1,9.582,16Zm5.275-2.858v-8.4h1v8.4Zm-2.442,0v-8.4h1v8.4Zm-2.441,0v-8.4h1v8.4ZM0,3.361v-1H12.5v1ZM7.313,1.884V.951L5.139,1l.049.884h-1V.951A.952.952,0,0,1,5.139,0H7.361a.952.952,0,0,1,.951.951v.932Z" fill="none"/>
      <path id="Combined_Shape-7" data-name="Combined Shape" d="M2.917,16a1.856,1.856,0,0,1-1.854-1.854v-9.4h1v9.4A.854.854,0,0,0,2.917,15H9.582a.854.854,0,0,0,.855-.854v-9.4h1v9.4A1.857,1.857,0,0,1,9.582,16Zm5.275-2.858v-8.4h1v8.4Zm-2.442,0v-8.4h1v8.4Zm-2.441,0v-8.4h1v8.4ZM0,3.361v-1H12.5v1ZM7.313,1.884V.951L5.139,1l.049.884h-1V.951A.952.952,0,0,1,5.139,0H7.361a.952.952,0,0,1,.951.951v.932Z" fill="#1a1446"/>
    </g>
  </g>
</svg>
