<svg xmlns="http://www.w3.org/2000/svg" width="89.462" height="89.462" viewBox="0 0 89.462 89.462">
  <g id="Grupo_29239" data-name="Grupo 29239" transform="translate(0.5 0.5)">
    <g id="Grupo_4567" data-name="Grupo 4567">
      <circle id="Oval" cx="44.231" cy="44.231" r="44.231" fill="#fff" stroke="#65a518" stroke-width="1"/>
    </g>
    <g id="_16px" data-name="16px" transform="translate(16 18)">
      <g id="Combined_Shape" data-name="Combined Shape">
        <path id="Combined_Shape-2" data-name="Combined Shape" d="M9.627,51.285A9.5,9.5,0,0,1,1.35,46.519a9.663,9.663,0,0,1-.1-9.678L19.68,4.858a9.536,9.536,0,0,1,16.626.013l14.27,24.764-3.03,1.752L33.267,6.61A6.039,6.039,0,0,0,22.719,6.6L4.289,38.577a6.161,6.161,0,0,0,.082,6.165,6.033,6.033,0,0,0,5.256,3.037H46.356a6.175,6.175,0,0,0,5.332-9.2l-1.521-2.661L53.2,34.167l1.521,2.661a9.685,9.685,0,0,1-8.365,14.457Zm21.394-8.962H25.44v-5.84h5.584v5.84ZM29.969,31.639h-3.5L25.9,15.862h4.6l-.526,15.774v0Z" fill="none"/>
        <path id="Combined_Shape-3" data-name="Combined Shape" d="M9.627,51.285A9.5,9.5,0,0,1,1.35,46.519a9.663,9.663,0,0,1-.1-9.678L19.68,4.858a9.536,9.536,0,0,1,16.626.013l14.27,24.764-3.03,1.752L33.267,6.61A6.039,6.039,0,0,0,22.719,6.6L4.289,38.577a6.161,6.161,0,0,0,.082,6.165,6.033,6.033,0,0,0,5.256,3.037H46.356a6.175,6.175,0,0,0,5.332-9.2l-1.521-2.661L53.2,34.167l1.521,2.661a9.685,9.685,0,0,1-8.365,14.457Zm21.394-8.962H25.44v-5.84h5.584v5.84ZM29.969,31.639h-3.5L25.9,15.862h4.6l-.526,15.774v0Z" fill="none"/>
        <path id="Combined_Shape-4" data-name="Combined Shape" d="M9.627,51.285A9.5,9.5,0,0,1,1.35,46.519a9.663,9.663,0,0,1-.1-9.678L19.68,4.858a9.536,9.536,0,0,1,16.626.013l14.27,24.764-3.03,1.752L33.267,6.61A6.039,6.039,0,0,0,22.719,6.6L4.289,38.577a6.161,6.161,0,0,0,.082,6.165,6.033,6.033,0,0,0,5.256,3.037H46.356a6.175,6.175,0,0,0,5.332-9.2l-1.521-2.661L53.2,34.167l1.521,2.661a9.685,9.685,0,0,1-8.365,14.457Zm21.394-8.962H25.44v-5.84h5.584v5.84ZM29.969,31.639h-3.5L25.9,15.862h4.6l-.526,15.774v0Z" fill="none"/>
        <path id="Combined_Shape-5" data-name="Combined Shape" d="M9.627,51.285A9.5,9.5,0,0,1,1.35,46.519a9.663,9.663,0,0,1-.1-9.678L19.68,4.858a9.536,9.536,0,0,1,16.626.013l14.27,24.764-3.03,1.752L33.267,6.61A6.039,6.039,0,0,0,22.719,6.6L4.289,38.577a6.161,6.161,0,0,0,.082,6.165,6.033,6.033,0,0,0,5.256,3.037H46.356a6.175,6.175,0,0,0,5.332-9.2l-1.521-2.661L53.2,34.167l1.521,2.661a9.685,9.685,0,0,1-8.365,14.457Zm21.394-8.962H25.44v-5.84h5.584v5.84ZM29.969,31.639h-3.5L25.9,15.862h4.6l-.526,15.774v0Z" fill="none"/>
        <path id="Combined_Shape-6" data-name="Combined Shape" d="M9.627,51.285A9.5,9.5,0,0,1,1.35,46.519a9.663,9.663,0,0,1-.1-9.678L19.68,4.858a9.536,9.536,0,0,1,16.626.013l14.27,24.764-3.03,1.752L33.267,6.61A6.039,6.039,0,0,0,22.719,6.6L4.289,38.577a6.161,6.161,0,0,0,.082,6.165,6.033,6.033,0,0,0,5.256,3.037H46.356a6.175,6.175,0,0,0,5.332-9.2l-1.521-2.661L53.2,34.167l1.521,2.661a9.685,9.685,0,0,1-8.365,14.457Zm21.394-8.962H25.44v-5.84h5.584v5.84ZM29.969,31.639h-3.5L25.9,15.862h4.6l-.526,15.774v0Z" fill="none"/>
        <path id="Combined_Shape-7" data-name="Combined Shape" d="M9.627,51.285A9.5,9.5,0,0,1,1.35,46.519a9.663,9.663,0,0,1-.1-9.678L19.68,4.858a9.536,9.536,0,0,1,16.626.013l14.27,24.764-3.03,1.752L33.267,6.61A6.039,6.039,0,0,0,22.719,6.6L4.289,38.577a6.161,6.161,0,0,0,.082,6.165,6.033,6.033,0,0,0,5.256,3.037H46.356a6.175,6.175,0,0,0,5.332-9.2l-1.521-2.661L53.2,34.167l1.521,2.661a9.685,9.685,0,0,1-8.365,14.457Zm21.394-8.962H25.44v-5.84h5.584v5.84ZM29.969,31.639h-3.5L25.9,15.862h4.6l-.526,15.774v0Z" fill="#006729"/>
      </g>
    </g>
  </g>
</svg>
