<svg xmlns="http://www.w3.org/2000/svg" width="24" height="24" viewBox="0 0 24 24">
  <g id="Grupo_30153" data-name="Grupo 30153" transform="translate(-1124 -770.5)">
    <g id="Elipse_408" data-name="Elipse 408" transform="translate(1124 770.5)" fill="#fff" stroke="#65a518" stroke-width="1">
      <circle cx="12" cy="12" r="12" stroke="none"/>
      <circle cx="12" cy="12" r="11.5" fill="none"/>
    </g>
    <g id="_2071331" data-name="2071331" transform="translate(1129.941 776.331)">
      <path id="Trazado_698" data-name="Trazado 698" d="M323.771-684.652a6.064,6.064,0,0,0-2.918,1A5.99,5.99,0,0,0,318.8-681.3a5.923,5.923,0,0,0-.512,1.607,6.581,6.581,0,0,0-.041,1.652,6.887,6.887,0,0,0,.679,2.229l.1.194-.231.688c-.128.38-.358,1.07-.514,1.535s-.285.861-.285.88.024.041.055.052c.049.019.054.026.045.084s-.009.064.034.051c.077-.024,1.757-.559,2.466-.788.371-.118.691-.216.709-.216a.81.81,0,0,1,.178.073,6.085,6.085,0,0,0,2.2.623,7.353,7.353,0,0,0,1.237-.03,5.881,5.881,0,0,0,4.253-2.755,7.025,7.025,0,0,0,.753-1.787,6.232,6.232,0,0,0,.18-1.843,5.941,5.941,0,0,0-1.654-3.786,6.174,6.174,0,0,0-2.372-1.51,5.636,5.636,0,0,0-1.185-.276A10.229,10.229,0,0,0,323.771-684.652Zm.734,1.284a4.786,4.786,0,0,1,1.8.486,4.9,4.9,0,0,1,1.933,1.7,4.317,4.317,0,0,1,.7,1.837,6.306,6.306,0,0,1,0,1.277,4.816,4.816,0,0,1-4.452,4.161,4.81,4.81,0,0,1-2.275-.4,5.038,5.038,0,0,1-.636-.343.211.211,0,0,0-.092-.045c-.017,0-.417.122-.886.272s-.856.272-.858.269.116-.37.264-.813.27-.83.27-.86a.425.425,0,0,0-.082-.169,4.841,4.841,0,0,1-.659-3.992,3.863,3.863,0,0,1,.291-.732,4.923,4.923,0,0,1,1.652-1.843A4.875,4.875,0,0,1,324.5-683.368Z" transform="translate(-318 684.657)" fill="#006729"/>
      <path id="Trazado_699" data-name="Trazado 699" d="M486.98-524.478a.631.631,0,0,0-.116.053,2.128,2.128,0,0,0-.38.407,1.571,1.571,0,0,0-.143,1.292,3.5,3.5,0,0,0,.464.976,5.9,5.9,0,0,0,.792,1.014,3.915,3.915,0,0,0,1.439.986,4,4,0,0,0,.942.306,1.677,1.677,0,0,0,.562-.09,1.364,1.364,0,0,0,.579-.407,1.759,1.759,0,0,0,.214-.71l.009-.148-.048-.056a2.807,2.807,0,0,0-.456-.273c-.671-.36-.756-.395-.862-.339a1.517,1.517,0,0,0-.219.222c-.276.321-.334.377-.38.377a3.007,3.007,0,0,1-.626-.318,2.989,2.989,0,0,1-.518-.436,3.645,3.645,0,0,1-.551-.755l-.028-.056.112-.122a1.05,1.05,0,0,0,.267-.416.491.491,0,0,0-.031-.45c-.079-.207-.143-.377-.253-.674-.09-.244-.157-.343-.25-.373A1.826,1.826,0,0,0,486.98-524.478Z" transform="translate(-482.745 527.977)" fill="#006729"/>
    </g>
  </g>
</svg>
