<svg id="Icon_System_Success_Alert_16px" data-name="Icon/System/Success Alert/16px" xmlns="http://www.w3.org/2000/svg" width="16" height="16" viewBox="0 0 16 16">
  <g id="Combined_Shape" data-name="Combined Shape">
    <path id="Combined_Shape-2" data-name="Combined Shape" d="M2.347,13.654A8,8,0,1,1,8,16,7.946,7.946,0,0,1,2.347,13.654ZM1,8A7,7,0,1,0,8,1,7.008,7.008,0,0,0,1,8Zm2.4.8.7-.712,2.373,2.34L11.9,4.965l.711.707-6.129,6.17Z" fill="none"/>
    <path id="Combined_Shape-3" data-name="Combined Shape" d="M2.347,13.654A8,8,0,1,1,8,16,7.946,7.946,0,0,1,2.347,13.654ZM1,8A7,7,0,1,0,8,1,7.008,7.008,0,0,0,1,8Zm2.4.8.7-.712,2.373,2.34L11.9,4.965l.711.707-6.129,6.17Z" fill="none"/>
    <path id="Combined_Shape-4" data-name="Combined Shape" d="M2.347,13.654A8,8,0,1,1,8,16,7.946,7.946,0,0,1,2.347,13.654ZM1,8A7,7,0,1,0,8,1,7.008,7.008,0,0,0,1,8Zm2.4.8.7-.712,2.373,2.34L11.9,4.965l.711.707-6.129,6.17Z" fill="none"/>
    <path id="Combined_Shape-5" data-name="Combined Shape" d="M2.347,13.654A8,8,0,1,1,8,16,7.946,7.946,0,0,1,2.347,13.654ZM1,8A7,7,0,1,0,8,1,7.008,7.008,0,0,0,1,8Zm2.4.8.7-.712,2.373,2.34L11.9,4.965l.711.707-6.129,6.17Z" fill="none"/>
    <path id="Combined_Shape-6" data-name="Combined Shape" d="M2.347,13.654A8,8,0,1,1,8,16,7.946,7.946,0,0,1,2.347,13.654ZM1,8A7,7,0,1,0,8,1,7.008,7.008,0,0,0,1,8Zm2.4.8.7-.712,2.373,2.34L11.9,4.965l.711.707-6.129,6.17Z" fill="none"/>
    <path id="Combined_Shape-7" data-name="Combined Shape" d="M2.347,13.654A8,8,0,1,1,8,16,7.946,7.946,0,0,1,2.347,13.654ZM1,8A7,7,0,1,0,8,1,7.008,7.008,0,0,0,1,8Zm2.4.8.7-.712,2.373,2.34L11.9,4.965l.711.707-6.129,6.17Z" fill="#03ac63"/>
  </g>
</svg>
