<svg xmlns="http://www.w3.org/2000/svg" viewBox="0 0 20.494 24">
  <path id="Trazado_129" data-name="Trazado 129" d="M3.132,16.27l4.38-9.832a2.5,2.5,0,1,1,4.559,2.056L7.333,19.131A3.844,3.844,0,0,1,5.188,21.1a4.022,4.022,0,0,1-2.95-.089A3.844,3.844,0,0,1,.272,18.952,4.022,4.022,0,0,1,.361,16L6.082,2.952A5.184,5.184,0,0,1,8.942.36a5.006,5.006,0,0,1,3.844.089,5.721,5.721,0,0,1,2.95,2.682,5.006,5.006,0,0,1-.089,3.844l-3.754,8.492-1.341-.536,3.754-8.492a3.486,3.486,0,0,0,.089-2.771A4.2,4.2,0,0,0,12.249,1.7a3.486,3.486,0,0,0-2.771-.089A3.754,3.754,0,0,0,7.423,3.577L1.613,16.538a2.413,2.413,0,0,0,1.251,3.128,2.5,2.5,0,0,0,1.877.089A2.324,2.324,0,0,0,6.082,18.5L10.819,7.868a.983.983,0,0,0,0-.8,1.073,1.073,0,0,0-.536-.626.983.983,0,0,0-.8,0,1.162,1.162,0,0,0-.626.536l-4.38,9.832Z" fill="#1a1446"/>
</svg>
