<svg xmlns="http://www.w3.org/2000/svg" width="89.462" height="89.462" viewBox="0 0 89.462 89.462">
  <g id="Grupo_5096" data-name="Grupo 5096" transform="translate(-770.5 -137.5)">
    <g id="Grupo_5096-2" data-name="Grupo 5096" transform="translate(87.73 -183.5)">
      <path id="Oval" d="M44.231,0A44.231,44.231,0,1,1,0,44.231,44.231,44.231,0,0,1,44.231,0Z" transform="translate(683.27 321.5)" fill="#03ac63" stroke="#03ac63" stroke-width="1"/>
    </g>
    <g id="Icon_System_Success_Alert_16px" data-name="Icon/System/Success Alert/16px" transform="translate(795.002 161.002)">
      <path id="Combined_Shape" data-name="Combined Shape" d="M5.864,34.135A19.991,19.991,0,1,1,34.136,5.864,19.992,19.992,0,0,1,20,40,19.844,19.844,0,0,1,5.864,34.135ZM2.5,20A17.5,17.5,0,1,0,20,2.5,17.375,17.375,0,0,0,2.5,20ZM15.919,30.449l-.009.009L7.644,22.393,9.933,20.05l6.035,5.887L30.049,11.8l2.32,2.311L16.009,30.539Z" fill="#fff"/>
    </g>
  </g>
</svg>
