<?xml version="1.0" encoding="UTF-8"?>
<svg width="199px" height="101px" viewBox="0 0 199 101" version="1.1" xmlns="http://www.w3.org/2000/svg" xmlns:xlink="http://www.w3.org/1999/xlink">
    <!-- Generator: Sketch 51.1 (57501) - http://www.bohemiancoding.com/sketch -->
    <title>logo</title>
    <desc>Created with Sketch.</desc>
    <defs></defs>
    <g id="Symbols" stroke="none" stroke-width="1" fill="none" fill-rule="evenodd">
        <g id="Elements-/-Logo-/-Default" transform="translate(-1.000000, -1.000000)">
            <g id="logo" transform="translate(1.000000, 1.000000)">
                <g id="Seguros" transform="translate(75.000000, 66.000000)" fill="#211645">
                    <path d="M106.129412,13.4778431 C106.388235,16.7111765 109.254902,17.0347059 112.092157,18.1601961 C115.443137,19.4896078 115.1,21.6209804 113.415686,22.5464706 C112.023529,23.3131373 109.660784,23.2464706 108.147059,21.2954902 C107.378431,20.3052941 107.060784,19.1052941 106.578431,18.6445098 C106.458824,18.5288235 105.878431,18.5798039 105.803922,18.5798039 C105.74902,18.5798039 105.782353,23.8896078 105.747059,24.1386275 C105.680392,24.5915686 107.068627,23.1778431 107.276471,23.1817647 C109.013725,23.2052941 110.896078,24.3523529 112.698039,23.924902 C116.141176,23.1052941 117.131373,21.3484314 117.184314,18.8601961 C117.223529,16.9739216 115.780392,15.2307843 113.5,14.3798039 C112.217647,13.9013725 110.437255,13.3229412 109.527451,12.5837255 C107.466667,10.915098 110.111765,9.37392157 112.65098,10.197451 C115.627451,11.1621569 115.488235,13.124902 115.541176,13.1268627 C115.692157,13.1307843 116.072549,13.0739216 116.17451,13.1131373 C116.352941,13.1817647 116.278431,10.5405882 116.254902,8.84647059 C116.25098,8.53666667 115.966667,8.57980392 115.752941,8.70529412 C115.686275,8.7445098 115.558824,8.88764706 115.505882,8.91705882 C115.043137,9.18372549 113.990196,9.16019608 113.511765,8.97196078 C112.252941,8.47980392 110.213725,8.54647059 108.756863,9.09156863 C107.2,9.67196078 105.964706,11.3856863 106.129412,13.4778431" id="Fill-26"></path>
                    <path d="M96.1052941,8.67352941 C95.1013725,8.68137255 94.1817647,8.79705882 93.3562745,9.01862745 C92.5209804,9.23627451 91.7896078,9.50686275 91.1601961,9.83823529 C90.5288235,10.1637255 90.0092157,10.4931373 89.6013725,10.8284314 C89.0817647,11.2245098 88.6131373,11.7068627 88.1856863,12.2676471 C87.7660784,12.8323529 87.4327451,13.477451 87.1837255,14.1990196 C86.9307843,14.9186275 86.8033333,15.7166667 86.797451,16.5833333 C86.8033333,17.2833333 86.9386275,17.9872549 87.1954902,18.7009804 C87.4621569,19.4127451 87.8190196,20.0794118 88.2798039,20.7068627 C88.7347059,21.3303922 89.2562745,21.8617647 89.8464706,22.304902 C90.3523529,22.6852941 90.9268627,23.0264706 91.5601961,23.3186275 C92.1954902,23.6029412 92.8543137,23.8264706 93.524902,23.9872549 C94.1935294,24.1460784 94.8386275,24.2343137 95.4543137,24.2343137 C96.0837255,24.2343137 96.7209804,24.1852941 97.3719608,24.0754902 C98.0229412,23.9735294 98.6601961,23.8068627 99.2837255,23.5833333 C99.9131373,23.3617647 100.507255,23.0696078 101.066078,22.7107843 C101.450392,22.4872549 101.850392,22.177451 102.264118,21.795098 C102.681765,21.404902 103.07,20.9401961 103.434706,20.4009804 C103.801373,19.8637255 104.099412,19.2637255 104.330784,18.5892157 C104.560196,17.9205882 104.673922,17.1892157 104.681765,16.3990196 C104.673922,15.4323529 104.505294,14.5480392 104.179804,13.7401961 C103.856275,12.9362745 103.401373,12.2186275 102.834706,11.595098 C102.264118,10.9637255 101.615098,10.4382353 100.883725,10.004902 C100.150392,9.57156863 99.3778431,9.23627451 98.5582353,9.0127451 C97.7445098,8.78529412 96.924902,8.67352941 96.1052941,8.67352941 M96.7954902,9.96176471 C97.9954902,10.1970588 98.9994118,10.995098 99.5503922,11.9598039 C100.152353,13.0186275 100.230784,14.6794118 100.19549,15.85 C100.14451,17.4166667 100.066078,19.7735294 99.0954902,21.1186275 C98.6464706,21.7460784 98.0660784,22.7186275 96.724902,22.8676471 C93.1190196,23.2715686 92.0445098,20.6107843 91.6562745,18.1676471 C91.4327451,16.7735294 91.5523529,14.3421569 91.97,13.1088235 C92.6405882,11.1343137 94.3739216,9.4872549 96.7954902,9.96176471" id="Fill-20"></path>
                    <path d="M72.0760784,10.027451 C72.1329412,10.6196078 74.7505882,8.93333333 74.7505882,13.1098039 L74.7505882,20.5490196 C74.7505882,23.1568627 72.2113725,22.6411765 72.2290196,23.0392157 C72.2368627,23.2647059 72.1760784,23.6960784 72.3192157,23.6960784 L81.5015686,23.7019608 C81.5682353,23.7019608 81.6584314,22.9666667 81.5094118,22.9509804 C79.5623529,22.7803922 79.0486275,21.4823529 79.0486275,20.0156863 L79.0486275,14.8941176 C79.0486275,14.5294118 79.852549,13.1294118 81.1662745,12.7156863 C84.5721569,11.6431373 84.8878431,14.0960784 85.5878431,14.0745098 C85.9231373,12.4490196 86.607451,10.5411765 86.5643137,10.1117647 C86.4545098,9.07843137 85.6054902,8.68235294 84.7701961,8.65686275 C81.9035294,8.57254902 80.3054902,10.9921569 79.0192157,13.2431373 C78.9976471,13.2823529 79.2545098,8.55882353 79.1564706,8.56470588 L72.0094118,9.34705882 L72.0760784,10.027451 Z" id="Fill-25"></path>
                    <path d="M71.155098,23.5421569 C68.6629412,23.7931373 66.3668627,23.904902 64.6080392,23.8382353 L64.61,20.9872549 C64.61,20.8833333 64.5943137,20.7754902 64.582549,20.6696078 C62.2452941,23.5617647 58.4139216,24.6892157 55.9707843,23.4127451 C54.8982353,22.8539216 53.6590196,21.6794118 53.6629412,20.35 L53.6805882,12.6245098 C53.6845098,11.4343137 53.6747059,10.8637255 53.4511765,10.6166667 C53.1727451,10.3186275 53.0845098,10.1872549 51.6296078,10.0696078 L51.6472549,9.24607843 C53.3786275,9.11470588 56.9198039,8.63235294 58.0158824,8.60294118 L58.0080392,16.3382353 C58.0060784,18.8735294 58.1766667,20.7833333 59.155098,21.5166667 C60.8296078,22.777451 64.3315686,20.7715686 64.5668627,18.8911765 C64.682549,18.3421569 64.7903922,16.3362745 64.7903922,13.3539216 C64.7903922,11.6147059 64.5256863,10.5460784 64.2943137,10.295098 C64.0609804,10.0421569 63.6668627,10.1029412 62.1394118,9.95980392 L62.2531373,9.09705882 C64.3727451,8.90686275 66.7139216,8.91078431 68.7296078,8.61862745 L68.7884314,18.5382353 C68.7962745,19.8872549 68.6570588,21.2578431 69.4139216,22.1029412 C69.7354902,22.4578431 70.2492157,22.6911765 70.9531373,22.8362745 C71.3413725,22.9205882 71.2198039,23.0990196 71.155098,23.5421569" id="Fill-24"></path>
                    <path d="M33.8790196,12.4678431 C33.0731373,14.4639216 33.2201961,15.6933333 34.1927451,17.3639216 C34.8515686,18.4933333 36.5280392,18.987451 37.2045098,19.2305882 C37.5084314,19.3384314 37.7829412,19.5423529 37.4280392,19.7266667 C37.0241176,19.9305882 35.702549,20.3070588 34.5809804,20.8443137 C33.2692157,21.4776471 32.5221569,24.1403922 34.83,25.3031373 C35.9652941,25.8756863 37.5162745,25.7717647 37.1280392,26.36 C37.0241176,26.5247059 36.2633333,26.5482353 35.302549,26.8894118 C32.8711765,27.7501961 32.3731373,29.1443137 32.3554902,30.2541176 C32.3221569,32.1521569 34.6437255,33.7384314 37.4907843,34.4952941 C38.8809804,34.8658824 40.4868627,34.9501961 41.8319608,34.9501961 C42.7594118,34.9501961 44.2319608,34.7364706 45.3496078,34.3423529 C47.0868627,33.7266667 48.4672549,32.6717647 49.4947059,31.305098 C50.6476471,29.7698039 50.9947059,27.5501961 49.0515686,25.5815686 C46.675098,23.1717647 41.6515686,23.2992157 38.5496078,22.7384314 C35.7103922,22.2247059 37.0731373,19.8639216 39.3672549,20.0129412 C40.4143137,20.0796078 42.2182353,20.1580392 43.5064706,19.8286275 C47.5378431,18.7992157 50.7319608,15.5482353 46.8515686,11.5286275 C46.8201961,11.4972549 46.8437255,11.4188235 46.8868627,11.3423529 C46.9241176,11.2678431 46.9966667,11.2168627 47.0966667,11.2168627 L50.2594118,11.2168627 L50.33,9.01098039 L50.03,8.6854902 L40.075098,8.65019608 C39.2927451,8.64627451 38.4182353,8.76588235 37.7496078,9.02078431 C36.2378431,9.59333333 34.5378431,10.8384314 33.8790196,12.4678431 M35.7417647,28.6658824 C35.2123529,25.9286275 48.0672549,25.4933333 47.7770588,30.2854902 C47.6770588,31.9129412 44.1417647,32.5305882 41.802549,32.2501961 C39.2966667,31.9521569 36.2358824,31.2266667 35.7417647,28.6658824 M38.6162745,10.7933333 C40.1437255,9.40313725 42.6280392,9.44039216 43.8790196,11.6678431 C44.9790196,13.632549 45.0496078,16.7913725 42.7437255,18.3560784 C41.3456863,19.3031373 39.2868627,18.7364706 38.4358824,17.5541176 C37.9809804,16.9207843 37.6809804,16.1462745 37.5241176,15.3717647 C37.257451,14.0384314 37.402549,11.8972549 38.6162745,10.7933333" id="Fill-21"></path>
                    <path d="M31.012549,15.1572549 C31.4752941,15.1572549 31.3341176,14.8023529 31.3047059,14.547451 C29.8909804,8.95529412 24.6635294,7.49058824 20.7458824,9.19254902 C17.8890196,10.4317647 15.9301961,13.1788235 15.9145098,16.7415686 C15.9184314,17.8768627 16.2635294,19.0847059 16.6517647,19.992549 C17.0458824,20.8905882 17.594902,21.6670588 18.3066667,22.3062745 C19.0164706,22.947451 19.8478431,23.4356863 20.7929412,23.7709804 C24.9282353,25.2552941 29.3419608,23.5101961 31.2733333,19.6278431 C31.5243137,19.1219608 31.3439216,18.9964706 31.1988235,19.1513725 C25.7654902,24.9298039 22.0047059,21.6121569 20.9380392,18.5219608 C20.3517647,16.8317647 20.4047059,15.1572549 20.4380392,15.1572549 L31.012549,15.1572549 Z M20.4321569,14.2768627 C20.367451,14.2768627 20.6380392,10.0141176 23.585098,9.73960784 C25.9929412,9.51607843 27.7596078,14.2513725 26.5831373,14.2552941 L20.4321569,14.2768627 Z" id="Fill-23"></path>
                    <path d="M0.499803922,7.79745098 C0.923333333,11.1131373 2.82333333,12.6405882 4.67235294,13.824902 C5.74686275,14.5111765 7.09,15.3268627 8.15078431,15.8562745 C10.7703922,17.1621569 12.8488235,19.7405882 9.97235294,21.9523529 C8.97431373,22.7209804 7.43313725,22.9229412 6.04686275,22.6660784 C5.32137255,22.5347059 4.66254902,22.1366667 4.08803922,21.9229412 C1.28215686,20.8719608 1.40568627,17.3562745 1.08019608,16.9915686 C0.925294118,16.8209804 0.17627451,16.8954902 0.0743137255,16.8954902 C0.00764705882,16.8954902 0.129215686,23.6856863 0.0801960784,24.0641176 C0.0625490196,24.2170588 0.684117647,24.1641176 0.848823529,24.1209804 C1.39196078,23.9778431 1.2645098,22.8778431 1.49392157,22.9072549 C3.59392157,23.1543137 4.78019608,24.4562745 8.16843137,24.1464706 C8.82137255,24.0876471 9.58215686,23.9347059 10.1723529,23.7445098 C11.3135294,23.37 12.7801961,22.524902 13.4684314,21.5641176 C15.062549,19.3307843 15.1311765,16.3562745 13.8096078,14.0837255 C13.4507843,13.4719608 12.9586275,13.0288235 12.2292157,12.397451 C10.0370588,10.497451 5.10764706,9.21509804 3.93705882,6.90529412 C1.22137255,1.53078431 11.3547059,0.434705882 12.7311765,6.30529412 C12.744902,6.36215686 12.7096078,6.86215686 12.7782353,6.86411765 C12.9743137,6.87 13.3880392,6.8327451 13.5213725,6.89156863 C13.7527451,6.9954902 13.6566667,6.34647059 13.6566667,6.12294118 L13.6664706,1.08372549 C13.6664706,0.401372549 13.035098,0.589607843 12.735098,0.905294118 C12.4488235,1.21117647 12.0194118,1.39941176 11.7311765,1.46215686 C11.1880392,1.57392157 10.4547059,1.50529412 10.0507843,1.31901961 C8.41941176,0.571960784 5.83313725,0.768039216 3.94098039,1.58764706 C1.9272549,2.46411765 0.101764706,4.66019608 0.499803922,7.79745098" id="Fill-22"></path>
                </g>
                <polygon id="Fill-2" fill="#211645" points="179.472549 61.2576471 198.476471 61.2576471 198.476471 59.8615686 179.472549 59.8615686"></polygon>
                <polygon id="Fill-1" fill="#211645" points="74.9588235 61.2576471 166.254902 61.2576471 166.254902 59.8615686 74.9588235 59.8615686"></polygon>
                <g id="Liberty" transform="translate(75.000000, 27.000000)" fill="#211645">
                    <path d="M101.799854,11.3810475 C101.680375,10.8854376 103.247085,10.5974745 103.245158,10.5171582 C103.239377,10.056809 103.312606,10.0822752 102.95417,10.0235072 L94.3902594,10.0195893 C94.1551565,10.0195893 94.3729157,11.2615526 94.565623,11.2713473 C95.3788477,11.3066081 96.2749365,11.2184561 96.6198825,11.8786164 L100.161842,18.6565235 C101.778656,21.7496783 103.262502,24.8624223 103.102555,25.6420775 C102.87516,26.7645459 100.89413,31.826428 98.1769572,32.4924651 C97.1093589,32.7549621 94.7853093,31.8499352 94.9298397,32.320079 C95.0647348,32.7686746 94.9144232,34.8451433 94.0009907,36.7942813 C93.9412515,36.9255298 96.5948305,37.4466059 98.7955475,36.0675173 C99.7745004,35.4543713 100.504861,34.2222027 101.136941,32.8254837 L109.573665,14.1784034 C109.887778,13.5143252 110.21538,12.4114461 110.922616,11.7316965 C111.676101,11.0108093 112.803439,10.728723 112.807293,10.7189283 L113,10 L106.632952,10.0117536 C106.326547,10.0489733 106.571286,10.7620248 106.629098,10.7443944 C106.84493,10.6875854 107.507843,10.8129571 107.848935,10.9990557 C108.785492,12.0039881 108.816325,12.1744153 108.276745,13.957044 L105.592333,20.0963391 C104.996867,18.8054024 102.331726,13.580929 101.799854,11.3810475" id="Fill-1"></path>
                    <path d="M90.3184755,12.2374104 L94.5221224,12.2414167 C94.7661019,12.2414167 94.9340878,12.245423 95.0280799,12.1372531 C95.14607,12.0050455 95.1280715,11.3600326 95.0640769,11.1917684 C95.0240802,11.0795922 94.9460868,10.9954601 94.860094,10.9954601 L93.4122156,11.0034727 L90.8864278,11.0034727 C89.9985024,11.0034727 90.3024768,10.6068498 90.300477,9.39494672 L90.2864782,5.52887561 C90.2844784,4.89387844 89.9425071,4.80974632 89.360556,5.39065856 L83.2010733,11.5262937 C82.8831001,11.8447939 82.9650932,12.2293978 83.2870661,12.231401 L85.5948723,12.2354073 C85.7808566,12.2354073 85.7808566,12.6540647 85.7808566,12.906461 L85.7808566,22.299211 C85.7808566,27.5774998 92.7602704,28.3346889 95.4340458,24.953379 C95.8000151,24.4886492 96.4219628,23.3208153 95.5780337,23.893715 C92.6402805,25.8908512 90.3284747,24.8752563 90.3264748,21.335698 L90.3184755,12.2374104 Z" id="Fill-3"></path>
                    <path d="M67.0297201,11.4919266 C67.0515148,12.1122007 69.863035,10.699244 69.863035,14.9420776 L69.863035,22.7083855 C69.863035,25.4312502 67.1822832,24.9417687 67.2001152,25.3579271 C67.2100219,25.5937502 67.1743578,25.9960366 67.3209769,25.9960366 L76.9066954,26 C76.9780236,26 77.0691652,25.2310979 76.9126394,25.2172259 C74.4954057,24.9992382 74.5409765,23.6833851 74.5409765,22.1515259 L74.5409765,16.2202783 C74.5409765,15.8397907 75.1849117,14.9638764 76.5559984,14.5318644 C80.112502,13.4122002 80.2868599,15.8556444 81.0159927,15.8338456 C81.602469,15.8160102 82.0423263,12.6512249 81.9967555,12.2033592 C81.7669202,10.0472626 79.4903616,9.58354323 78.0063386,10.3365917 C76.0824584,11.3175364 75.0105539,13.8699744 74.4716297,14.8093033 C74.4478536,14.8529009 74.6776889,10.0750064 74.578622,10.0809516 L67,10.5090002 L67.0297201,11.4919266 Z" id="Fill-5"></path>
                    <path d="M66.6030199,17.1498481 C67.0821616,17.1498481 66.9333959,16.7689629 66.9044155,16.4908563 C65.4418739,10.4652118 60.0418689,8.88725873 55.9942801,10.7191353 C53.0382845,12.0552564 51.0154562,15.0156818 51,18.8567782 C51.0057961,20.0780292 51.3612884,21.3839214 51.7631492,22.35931 C52.1708061,23.3286528 52.7368889,24.1649881 53.4710578,24.8562242 C54.2052266,25.5474604 55.0630449,26.0734447 56.0406487,26.4341773 C60.3142842,28.032283 64.8757911,26.1520401 66.8715711,21.9683485 C67.1285302,21.4242267 66.944988,21.2892039 66.7962222,21.4544557 C61.1798306,27.683642 57.2964638,24.1085606 56.1894145,20.7773264 C55.5866232,18.9555262 55.6426519,17.1498481 55.6754963,17.1498481 L66.6030199,17.1498481 Z M55.6697002,16.200658 C55.6020794,16.200658 55.8822228,11.6078674 58.9251594,11.3116234 C61.4174694,11.0697915 63.2432314,16.1724443 62.0260568,16.1784901 L55.6697002,16.200658 Z" id="Fill-7"></path>
                    <path d="M31.3762277,24.7565653 C31.3762277,24.9726254 31.2623259,25.4322443 31.6590184,25.4361726 C35.2351429,25.4656354 35.8105435,25.9036483 36.1718873,25.933111 C39.1686835,26.1747055 42.3441878,25.7347285 43.9898728,25.0492286 C46.2698731,24.1024922 47.7741627,22.535074 48.565584,20.2016244 C49.9363335,16.177013 48.0098216,10.7087269 43.540157,9.65788887 C38.2181924,8.40670416 35.7300267,13.572506 35.7535926,11.2704833 L35.861603,0 L29,0.461583056 L29.033385,1.05673057 C29.0432041,1.23743543 31.4469254,1.94061302 31.4469254,2.32755711 L31.3762277,24.7565653 Z M35.883205,14.3287166 C35.883205,14.0576593 35.8930242,13.8023155 35.9342645,13.5685777 C36.0815513,12.7436207 38.4872364,11.7870635 39.1588644,11.7124245 C46.169718,10.9385363 45.8810358,24.6956756 38.7660995,24.7506727 C36.3486315,24.7703145 35.883205,23.6193032 35.883205,21.5235197 L35.883205,14.3287166 Z" id="Fill-9"></path>
                    <path d="M26,2.5684678 C25.9927326,2.08734271 25.8873547,1.65803109 25.6693314,1.26943005 C25.4513081,0.886380459 25.1587936,0.581051073 24.7845203,0.351591414 C24.4156977,0.122131754 23.994186,0.0074019245 23.5218023,0 C23.0257994,0.0074019245 22.5861192,0.13138416 22.2082122,0.368245744 C21.833939,0.603256847 21.534157,0.917838638 21.3234012,1.29903775 C21.1126453,1.68208734 21.0072674,2.08734271 21,2.52220577 C21.0072674,2.97372317 21.1126453,3.37897853 21.337936,3.75277572 C21.5559593,4.12842339 21.8484738,4.42635085 22.2318314,4.65581051 C22.6061047,4.87786825 23.0348837,4.99259808 23.5218023,5 C24.0196221,4.99259808 24.4520349,4.87046632 24.8263081,4.63360474 C25.1969477,4.39674315 25.4821948,4.09696521 25.6838663,3.73056995 C25.8946221,3.36417469 26,2.97372317 26,2.5684678" id="Fill-11"></path>
                    <path d="M21.67701,21.9902796 C21.6602887,22.5501621 21.6491412,24.1053914 21.1252071,24.5087476 C20.6663003,24.8639419 19.2598531,25.4117839 19.2635689,25.4860336 C19.2821481,25.9154775 19.5236781,25.9937407 19.8729675,25.9917339 L26.5540562,25.951599 C26.940504,25.9495922 27.4217059,26.0740106 27.7951483,25.9315315 C28.1723066,25.7890524 27.9865143,25.2091024 27.5796293,25.2111092 C25.6789748,25.2171294 26.1304499,23.2766047 26.0877177,22.1287452 C25.7885922,14.3947407 25.9446577,11.4628828 25.9465156,10.0962878 C25.9465156,9.78323518 21.127065,10.3069963 19.1223668,10.6200488 C18.9049899,10.6561703 19.0183232,11.5331189 19.1465198,11.5250919 C21.080617,11.4307748 21.940835,12.9378421 21.8888132,14.6837123 L21.67701,21.9902796 Z" id="Fill-13"></path>
                    <path d="M3.28436142,21.1400913 C3.28832884,21.5348326 3.280394,21.8926277 3.25262207,22.211532 C3.09590903,24.1988502 0.175888894,24.1307913 0.211595662,24.2571863 L0.431787398,25 L17.0294834,24.9883328 C17.9538919,24.9883328 18.062996,25.0330572 18.2712854,24.8347142 C18.4061777,24.7063747 18.4875098,24.4652519 18.5192491,24.115235 C18.5946301,22.4390429 18.8644145,20.7375719 18.9993068,19.0613798 C19.011209,18.9233176 18.8683819,18.8999831 18.683897,18.896094 C18.2752529,18.8883159 18.096719,19.5222354 17.9459571,19.7944707 C17.0671739,21.3812141 16.3847779,22.5732161 14.6589507,23.3763104 C13.4746763,23.9285594 10.7074017,24.140514 9.52114356,23.3918668 C9.07084155,23.1157423 8.75741547,22.7015556 8.5729305,22.1629185 C8.38646183,21.6223368 8.30314603,20.9514711 8.30314603,20.1619885 L8.30314603,5.64795401 C8.30314603,5.29015894 8.3388528,5.05681434 8.37257586,4.75541089 C8.40828263,4.46178559 8.48366358,4.19732837 8.61062098,3.97176192 C8.73956209,3.74425093 8.99149317,3.50312817 9.26921248,3.36895502 C9.4437789,3.28339533 11.0228115,2.58336152 11.7032238,2.23528914 C11.988878,2.08944877 11.9373015,1.98055462 11.7964582,2.02722354 L0.691653321,2 C0.584533017,2 0.177872604,2.00194454 0.0568663342,2.01944538 C-0.0641399351,2.03694623 0.0290944036,2.44335475 0.140182126,2.48030098 C1.39983755,2.91587758 3.06020226,3.19783564 3.15740402,4.7865235 C3.17525741,5.09959418 3.18517595,5.45350017 3.18715966,5.84240785 L3.28436142,21.1400913 Z" id="Fill-15"></path>
                </g>
                <g id="Isotipo">
                    <path d="M71.3770588,40.1376471 C71.1456863,39.8317647 70.5692157,40.0807843 70.5692157,40.0807843 L61.4123529,43.474902 C60.702549,41.7454902 59.884902,40.1121569 58.9476471,38.5984314 L61.9162745,30.5043137 C61.9162745,30.5043137 62.2868627,29.6964706 61.9476471,29.5003922 C61.6005882,29.2945098 61.0456863,29.8356863 61.0456863,29.8356863 L55.6554902,34.2533333 C53.5554902,32.0023529 51.0888235,30.1866667 48.2515686,28.9043137 C47.2005882,28.4317647 46.0986275,28.0376471 44.9496078,27.7160784 L43.2790196,21.3101961 C43.2790196,21.3101961 43.1358824,20.6709804 42.702549,20.6709804 C42.2770588,20.6709804 42.1613725,21.274902 42.1613725,21.274902 L41.0907843,26.9337255 C39.9201961,26.7847059 38.7143137,26.7003922 37.4633333,26.7003922 C33.4437255,26.7003922 29.875098,27.4631373 26.7456863,28.865098 C25.4084314,29.465098 24.1476471,30.1866667 22.9731373,31.0101961 C22.7770588,31.147451 22.5927451,31.2964706 22.4005882,31.4415686 C21.2888235,28.5768627 20.4123529,26.2435294 20.2496078,25.5376471 C20.8672549,24.9768627 22.1633333,22.9376471 22.4809804,21.5572549 C22.9221569,19.6356863 22.7868627,18.72 22.3221569,17.2611765 C21.9868627,16.1964706 21.3123529,15.1984314 21.357451,14.5239216 C21.3927451,14.0180392 21.657451,13.6592157 21.8829412,13.4298039 C21.7613725,12.7258824 21.302549,12.4101961 20.7554902,12.3435294 C20.2496078,12.274902 19.8554902,12.4219608 19.4103922,12.4435294 C19.2947059,12.2376471 19.0692157,12.274902 19.2398039,11.5435294 C19.4966667,10.4376471 21.6182353,9.91607843 23.3515686,9.2454902 C25.5476471,8.39254902 26.775098,6.81019608 26.8535294,4.26901961 C26.9045098,2.42392157 25.875098,1.05333333 24.5868627,0.439607843 C24.3260784,1.1827451 23.2554902,2.18666667 22.5123529,2.5945098 C21.7790196,3.00235294 20.7613725,3.15137255 20.0260784,2.98470588 C20.1868627,1.62784314 19.557451,0.465098039 18.5672549,0.000392156863 C18.2515686,0.576862745 17.057451,1.37882353 15.2633333,1.32 C13.4692157,1.26705882 13.3535294,0.845490196 10.8319608,0.851372549 C7.24568627,0.857254902 4.27313725,3.01607843 3.90843137,6.19647059 C3.66921569,8.26117647 4.4672549,9.99058824 5.06529412,10.892549 C4.61823529,11.2258824 3.56921569,12.2376471 3.38098039,12.5356863 C3.12411765,12.2376471 2.41039216,11.8317647 1.55352941,12.392549 C1.73784314,12.8435294 1.77313725,13.392549 1.63,13.9160784 C1.48098039,14.4396078 0.169215686,16.9788235 0.0221568627,19.0337255 C-0.232745098,22.5062745 1.77313725,24.8611765 3.4554902,25.5337255 C3.08686275,26.0945098 3.01039216,26.6905882 3.27117647,27.1768627 C3.44372549,27.5023529 3.7927451,27.8180392 4.5045098,27.8180392 C4.09666667,28.2631373 3.93784314,28.9415686 4.2045098,29.6082353 C4.5045098,30.3533333 5.36333333,31.4396078 6.11039216,31.4396078 C6.07117647,32.0729412 6.37313725,33.565098 6.52215686,34.1631373 C6.26333333,34.6533333 5.99666667,35.0180392 6.03588235,35.9160784 C6.07117647,36.8454902 6.67313725,37.6003922 7.41627451,37.747451 C7.6045098,38.2023529 7.74568627,38.692549 8.00647059,38.9905882 C8.2672549,39.2945098 8.49666667,39.6572549 9.06137255,40.0278431 C9.62215686,40.4003922 10.257451,40.7043137 11.0064706,40.7043137 C11.7535294,40.7043137 12.4103922,40.7376471 12.7456863,40.6278431 C12.7652941,40.8415686 12.8339216,42.8180392 12.9182353,45.0141176 C11.0378431,50.2435294 10.1045098,56.3043137 10.1045098,62.8082353 L10.1045098,62.8101961 C10.1045098,74.465098 13.4280392,84.8572549 19.775098,91.5454902 C19.775098,91.5454902 20.1417647,91.9945098 21.1594118,92.6572549 C21.1594118,92.6572549 23.1456863,89.2572549 26.1672549,85.4003922 C26.93,84.4219608 27.8084314,83.4768627 28.7731373,82.5631373 C30.2613725,81.2729412 31.702549,80.12 33.1084314,79.1062745 C37.0103922,76.4415686 41.5319608,74.4180392 45.7084314,73.5494118 C40.9182353,76.0219608 38.202549,77.3435294 33.7005882,81.2043137 C30.8476471,83.6494118 26.3064706,87.9670588 23.202549,93.874902 C23.8476471,94.3886275 24.7182353,94.9141176 25.7456863,95.0180392 C26.402549,94.2454902 29.7809804,88.0533333 34.9594118,83.0768627 C45.4456863,73.2592157 57.7986275,70.9886275 64.2652941,71.1141176 C64.6280392,68.447451 64.8162745,65.6729412 64.8162745,62.8082353 C64.8162745,58.1180392 64.3280392,53.6572549 63.3496078,49.5709804 L71.0711765,40.9807843 C71.0711765,40.9807843 71.6045098,40.4415686 71.3770588,40.1376471" id="Fill-27" fill="#211645"></path>
                    <path d="M13.9543137,36.2545098 C13.5033333,35.9976471 12.2739216,35.3976471 11.2994118,35.434902 C10.2935294,35.4721569 9.4445098,35.6780392 8.65039216,36.1858824 C8.31313725,35.9584314 8.21117647,35.507451 8.42490196,34.9878431 C8.64058824,34.4643137 8.94843137,34.3839216 8.94843137,34.3839216 L8.66607843,29.4956863 C8.66607843,29.4956863 10.042549,28.5113725 10.4111765,28.4054902 C10.7837255,28.2898039 10.9562745,27.9996078 10.9562745,27.6270588 C11.5641176,28.0388235 12.4641176,28.9603922 12.9464706,29.6466667 C13.3954902,30.28 13.6562745,30.9878431 13.6935294,31.7741176 C13.7288235,32.5584314 13.7386275,33.4937255 13.5798039,34.4643137 C13.8856863,34.7270588 14.1798039,34.9466667 14.215098,35.3603922 C14.2523529,35.7760784 14.1013725,35.9231373 13.9543137,36.2545098" id="Fill-28" fill="#FFFFFF"></path>
                    <path d="M58.5631373,51.497451 C58.5082353,50.5445098 57.4003922,47.9641176 56.7278431,47.4033333 L68.3513725,42.2503922 L58.5631373,51.497451 Z" id="Fill-29" fill="#FFFFFF"></path>
                    <path d="M26.6841176,32.2447059 L36.5194118,41.1682353 C35.5684314,41.6996078 34.1468627,43.1388235 33.7547059,44.3133333 L26.6841176,32.2447059 Z" id="Fill-30" fill="#FFFFFF"></path>
                    <path d="M32.4409804,49.922549 C32.1017647,50.4421569 31.9821569,50.7598039 31.8684314,51.3931373 C31.7566667,52.0303922 31.8409804,52.3833333 31.9154902,52.904902 L28.9017647,50.8245098 C28.9370588,50.1186275 28.7488235,48.9598039 28.7037255,48.3598039 C28.6958824,48.2970588 28.6762745,48.1852941 28.6605882,48.0990196 L32.4409804,49.922549 Z" id="Fill-31" fill="#FFFFFF"></path>
                    <path d="M15.8221569,50.7890196 C15.6319608,50.4537255 14.7731373,32.2968627 14.7398039,31.6596078 L15.7103922,30.9537255 L15.7103922,30.767451 C15.0005882,30.7301961 14.1790196,30.4694118 13.9182353,30.0537255 L13.657451,24.4909804 C12.684902,24.4145098 11.6829412,24.1066667 11.3084314,23.7360784 C10.8437255,23.267451 10.4829412,22.6929412 11.0064706,21.6870588 C11.4907843,22.0243137 12.9084314,22.4360784 14.1417647,22.4360784 C14.402549,22.4360784 14.9496078,23.0223529 15.2633333,23.1498039 C15.6221569,23.285098 16.2201961,23.6184314 16.502549,23.7439216 C16.7554902,23.8537255 16.9143137,24.4498039 16.9868627,24.6752941 C17.0613725,24.9027451 26.057451,48.2458824 26.2064706,48.5105882 C26.3594118,48.7694118 26.8829412,52.694902 26.9162745,52.9909804 C26.9554902,53.2909804 28.302549,56.4262745 28.5613725,56.7262745 C27.3652941,56.6929412 25.4084314,57.3752941 23.8045098,58.9498039 C22.2319608,60.4811765 20.8456863,63.8498039 20.5280392,65.4027451 C20.4162745,64.5811765 16.0103922,51.1243137 15.8221569,50.7890196" id="Fill-32" fill="#FFFFFF"></path>
                    <path d="M27.2527451,73.1254902 C26.862549,76.7176471 25.99,79.8294118 24.6762745,82.0490196 C23.8311765,83.4882353 21.4566667,86.3882353 20.6311765,87.4843137 C21.5272549,85.6901961 22.2213725,81.3647059 22.1645098,78.0019608 C22.1252941,75.8215686 21.462549,70.9980392 22.0409804,67.8039216 C22.6664706,64.3803922 23.6370588,62.454902 25.9311765,60.3372549 C27.1017647,59.2627451 29.4978431,57.8882353 32.9154902,58.8156863 L35.6821569,64.0215686 C34.2037255,63.7392157 32.244902,63.9901961 30.9429412,64.9901961 C28.4860784,66.8764706 27.6605882,69.4156863 27.2527451,73.1254902" id="Fill-33" fill="#FFFFFF"></path>
                    <path d="M27.5237255,80.1978431 C28.1962745,78.6841176 29.0805882,74.3664706 29.3276471,72.9252941 C29.6472549,71.0703922 29.9433333,68.3723529 32.1492157,66.5468627 C33.2335294,65.6527451 35.0178431,65.535098 35.7276471,65.744902 L38.8531373,72.1194118 C39.1335294,72.79 40.0531373,73.0272549 40.6688235,72.99 C37.7354902,73.9429412 30.3452941,77.4586275 27.5237255,80.1978431" id="Fill-34" fill="#FFFFFF"></path>
                    <path d="M54.1398039,59.8527451 C53.6358824,60.6390196 53.8162745,61.3939216 54.0947059,61.9213725 C54.4123529,62.5154902 56.0692157,65.5743137 56.0692157,65.5743137 C56.5868627,66.962549 56.9986275,67.6586275 57.4927451,68.5547059 C58.3907843,68.5547059 59.3613725,68.5311765 60.3868627,68.5547059 C59.2947059,66.1076471 56.7947059,61.3723529 56.7947059,61.3723529 L56.6143137,57.544902 C55.8888235,57.9860784 54.6437255,59.0723529 54.1398039,59.8527451" id="Fill-35" fill="#FFFFFF"></path>
                    <path d="M40.8021569,39.5747059 C42.0354902,39.3511765 44.8276471,39.6080392 45.7198039,40.0590196 L42.8884314,24.0080392 L40.8021569,39.5747059 Z" id="Fill-36" fill="#FFFFFF"></path>
                    <path d="M16.987451,24.6735294 C16.914902,24.45 16.7580392,23.8519608 16.5031373,23.7441176 C16.2207843,23.6147059 15.6227451,23.2813725 15.2639216,23.1441176 C14.9541176,23.0186275 14.4031373,22.4343137 14.1423529,22.4343137 C12.9109804,22.4343137 11.4913725,22.0245098 11.0070588,21.6852941 C10.4835294,22.6931373 10.8443137,23.2676471 11.3090196,23.7343137 C11.6835294,24.104902 12.6854902,24.4147059 13.6560784,24.4892157 L13.9188235,30.0519608 C14.1796078,30.4676471 14.9992157,30.7284314 15.7109804,30.7617647 L15.7109804,30.9519608 L14.7403922,31.6598039 C14.7717647,32.2970588 15.632549,50.4519608 15.8227451,50.7892157 C16.0090196,51.122549 20.4168627,64.5813725 20.5286275,65.4009804 C20.8443137,63.85 22.2305882,60.4735294 23.805098,58.9460784 C25.4090196,57.3735294 27.3658824,56.6931373 28.5619608,56.7264706 C28.3011765,56.4245098 26.9560784,53.2892157 26.9168627,52.9892157 C26.8835294,52.6931373 26.36,48.7676471 26.2090196,48.5088235 C26.06,48.2460784 17.0619608,24.9009804 16.987451,24.6735294" id="Fill-37" fill="#FFFFFF"></path>
                    <path d="M11.2439216,20.2215686 C13.785098,20.227451 14.9870588,21.2843137 15.5831373,21.845098 C15.6576471,20.9862745 15.5223529,20.227451 14.7223529,19.5784314 C14.0596078,19.0411765 12.8929412,18.5647059 11.1027451,18.5647059 C9.90470588,18.5647059 8.70470588,18.9176471 7.95568627,19.5529412 C7.27137255,20.1352941 7.15764706,20.7862745 7.30666667,21.7627451 C7.53019608,21.054902 9.14784314,20.2137255 11.2439216,20.2215686" id="Fill-38" fill="#FFFFFF"></path>
                    <path d="M6.69431373,6.89333333 C6.6354902,7.86588235 6.89431373,8.87568627 7.34333333,9.47568627 C7.60019608,9.81098039 8.20607843,10.4698039 8.65117647,10.4423529 C9.28647059,10.405098 9.8845098,9.18941176 11.3805882,9.24627451 C12.3472549,9.28352941 12.982549,10.6521569 13.8060784,10.7011765 C14.4413725,10.7443137 14.7727451,10.1090196 15.4198039,10.0403922 C15.9688235,9.98156863 16.1590196,10.2560784 16.4943137,10.5913725 C16.7198039,10.0698039 17.0433333,9.71490196 17.8786275,9.09921569 C18.8845098,8.35019608 22.3198039,7.64039216 23.782549,6.3345098 C24.5119608,5.67960784 24.6766667,4.47176471 24.4452941,3.65607843 C23.8923529,4.4345098 22.3609804,5.25019608 20.8668627,5.3227451 C20.1198039,5.36196078 18.3237255,5.03254902 17.6903922,4.69529412 C18.01,4.14627451 18.1139216,3.53058824 17.8511765,2.93254902 C17.3629412,3.30313725 15.2629412,3.50509804 14.4413725,3.50509804 C13.6217647,3.50509804 12.0158824,3.17372549 10.7707843,3.24039216 C8.0472549,3.38941176 6.7845098,5.3227451 6.69431373,6.89333333" id="Fill-39" fill="#FFFFFF"></path>
                    <path d="M11.3990196,15.3741176 C17.3029412,15.4878431 19.9656863,18.2133333 20.0441176,20.452549 C20.3441176,19.7839216 20.304902,19.1486275 20.2637255,18.3976471 C20.2343137,17.8035294 19.3362745,16.1192157 19.295098,15.5623529 C19.2598039,14.9996078 19.4088235,14.6231373 19.5205882,14.1054902 C19.1460784,14.1760784 17.8382353,14.6976471 17.2794118,14.252549 C16.6794118,13.7701961 17.0931373,12.5721569 16.3068627,12.2760784 C15.522549,11.9701961 14.2911765,12.9094118 13.5029412,12.7956863 C12.722549,12.6819608 12.05,11.6015686 11.2303922,11.6015686 C10.4029412,11.6015686 9.99313725,12.607451 8.98529412,12.834902 C8.20686275,13.0094118 7.26568627,12.5388235 6.80490196,12.5721569 C6.29509804,12.607451 5.99313725,13.0054902 5.76568627,13.4937255 C5.54019608,13.9760784 5.36176471,14.1760784 4.76372549,14.3290196 C4.28921569,14.4447059 3.60686275,14.0309804 3.26960784,14.1054902 C3.53039216,14.3643137 3.66176471,15.425098 3.42647059,16.0466667 C3.12843137,16.8309804 2.4872549,17.6545098 2.41078431,18.6329412 C2.34803922,19.4956863 2.63235294,19.8937255 2.85980392,20.5270588 C2.70882353,17.352549 6.24607843,15.2760784 11.3990196,15.3741176" id="Fill-40" fill="#FFFFFF"></path>
                    <path d="M7.68039216,26.6907843 C7.27254902,26.7672549 6.40784314,27.4398039 5.99215686,28.1378431 C6.10980392,28.5927451 6.59803922,29.6456863 7.0745098,29.9358824 C7.18431373,29.4496078 7.71568627,28.6339216 7.98235294,28.4496078 C8.35294118,28.184902 8.72352941,27.9986275 9.02352941,27.8554902 C9.32156863,27.702549 9.43529412,27.5535294 9.43529412,27.2162745 C9.43529412,26.8790196 9.39215686,26.7201961 9.24117647,26.384902 C9.5372549,26.3496078 10.0901961,26.3947059 10.2823529,26.1280392 C10.4647059,25.8711765 10.5568627,25.5319608 10.5568627,25.2005882 C10.5568627,24.8594118 10.4039216,24.7868627 10.072549,24.7496078 C9.73333333,24.7103922 8.75490196,24.6868627 8.27058824,24.7260784 C8.27058824,24.7260784 9.02352941,24.3378431 9.24901961,24.2280392 C9.47254902,24.1182353 9.54705882,23.8907843 9.58431373,23.702549 C9.62352941,23.5162745 9.61568627,23.0986275 9.50980392,22.5868627 C8.39019608,22.6201961 6.40784314,23.6280392 5.88431373,24.075098 L6.29607843,25.0927451 L5.55294118,25.0594118 C5.4372549,25.5692157 5.51372549,26.3535294 5.7372549,26.8045098 C6.40784314,26.6907843 7.19019608,26.6535294 7.68039216,26.6907843" id="Fill-41" fill="#FFFFFF"></path>
                    <path d="M50.5658824,49.3231373 C49.332549,48.525098 46.9207843,47.352549 46.1972549,47.125098 L47.2580392,44.38 C48.1580392,44.8309804 51.46,46.8427451 51.9658824,47.352549 L50.5658824,49.3231373 Z M44.7384314,46.6839216 C43.8403922,46.0584314 40.8737255,46.1741176 39.6384314,46.4564706 L38.7423529,43.8721569 C39.414902,43.3721569 40.705098,43.0329412 41.8796078,43.0329412 C43.0580392,43.0329412 44.3443137,43.3152941 45.2423529,43.7643137 L44.7384314,46.6839216 Z M35.8815686,48.5858824 C35.3796078,46.8937255 36.7266667,45.2211765 37.3443137,44.607451 L38.2913725,46.7898039 C37.5698039,47.1819608 36.4482353,48.0388235 35.8815686,48.5858824 Z M38.8011765,53.0113725 C38.8011765,53.0113725 40.0286275,52.3054902 41.1894118,52.0545098 C42.8992157,51.6878431 44.7933333,52.7133333 46.1384314,53.7701961 L45.8835294,54.1760784 L43.9541176,54.6290196 C43.5815686,54.3015686 42.8717647,54.1505882 42.1031373,54.1898039 C41.4207843,54.2152941 40.8737255,54.4701961 40.8737255,54.4701961 L41.2521569,55.0858824 L40.3678431,55.3094118 C39.9737255,54.8054902 39.3560784,54.1898039 38.8011765,54.0192157 L38.8011765,53.0113725 Z M56.0011765,50.0976471 C55.8619608,49.3721569 54.0443137,47.1996078 50.9384314,44.8505882 C48.5188235,43.0094118 44.9678431,41.1996078 42.0482353,41.2113725 C37.1168627,41.2407843 35.0796078,44.6309804 34.7070588,46.3976471 C34.4835294,47.4682353 34.5364706,48.6211765 34.7619608,49.2564706 C33.9815686,49.9270588 33.6796078,50.4701961 33.532549,51.2368627 C33.4266667,51.7858824 33.532549,52.58 34.0345098,53.0662745 C33.9815686,52.3368627 34.4737255,51.4956863 34.8756863,50.9407843 C35.3247059,50.3231373 36.0698039,50.08 36.7462745,49.6682353 L36.86,51.0192157 C36.2207843,51.3858824 35.4305882,52.1682353 35.3796078,52.58 L35.4305882,54.8054902 L37.1266667,53.7858824 L37.4560784,54.4701961 L36.8364706,58.3917647 L37.7913725,58.2231373 L39.5286275,58.934902 L37.8482353,60.3505882 L37.8482353,60.9094118 C37.8482353,60.9094118 38.0992157,60.5662745 38.6913725,60.5878431 C39.2854902,60.6192157 40.8129412,61.3015686 40.8129412,61.3015686 L40.7560784,61.6447059 L40.0854902,61.6447059 L37.7913725,61.6447059 C37.6776471,62.034902 38.0266667,62.334902 38.2501961,62.5015686 C38.6384314,62.3898039 39.0462745,62.1878431 39.2678431,62.1878431 C39.4913725,62.1878431 40.0090196,62.3231373 40.4580392,62.38 L39.9188235,63.1015686 C39.9188235,63.1015686 39.6403922,63.307451 39.132549,63.2094118 C38.8541176,63.152549 38.5756863,63.5427451 38.5756863,63.8623529 C38.5756863,64.2035294 38.7913725,65.0466667 38.7913725,65.0466667 C39.0658824,66.3035294 40.3580392,66.052549 40.5227451,66.0388235 C41.3403922,65.9662745 44.0070588,65.007451 44.0070588,65.007451 L41.4423529,68.5996078 L42.5619608,72.4466667 C44.2560784,71.7486275 49.3129412,69.9505882 54.7992157,69.0486275 C54.2011765,68.0584314 54.1031373,67.6584314 53.3678431,66.18 L50.5658824,59.734902 L50.9560784,58.7780392 C51.5776471,59.0054902 52.5266667,58.5584314 53.1443137,58.0545098 C53.7580392,57.5447059 54.487451,56.6564706 54.7678431,56.0937255 C54.3756863,55.8701961 54.0443137,55.9211765 53.7011765,56.1486275 C53.3678431,56.3760784 53.1070588,56.8035294 52.6423529,56.5956863 C52.1286275,56.3760784 52.3815686,55.8211765 52.4345098,55.3152941 C52.4913725,54.8152941 51.8521569,54.8054902 51.4070588,55.1956863 C50.9560784,55.5917647 50.0031373,55.4172549 49.387451,54.8054902 C48.7737255,54.1898039 45.805098,51.7211765 44.7384314,51.1054902 C43.205098,50.2270588 41.1521569,50.0054902 39.6384314,50.2760784 C38.7541176,50.434902 38.1266667,50.825098 37.7913725,50.6545098 L36.6796078,48.9407843 L36.86,48.8290196 C37.2482353,48.9976471 37.6207843,49.3152941 38.1266667,49.1447059 C38.6286275,48.9741176 40.2521569,48.607451 41.7129412,48.5858824 C43.9541176,48.5486275 46.6796078,49.3662745 47.8796078,49.8760784 C47.932549,51.3290196 50.8639216,53.1819608 52.1913725,53.3447059 C53.3070588,53.4858824 53.9854902,53.1819608 54.6560784,52.7858824 L51.7992157,50.2760784 L53.3109804,48.3603922 C53.3109804,48.3603922 55.7207843,50.6545098 56.06,51.1054902 C56.1678431,50.8466667 56.06,50.4054902 56.0011765,50.0976471 Z" id="Fill-42" fill="#FFFFFF"></path>
                    <path d="M50.1839216,42.0239216 C51.2917647,42.4219608 53.6368627,44.3886275 54.1976471,44.8435294 L60.1368627,32.1807843 L50.1839216,42.0239216 Z" id="Fill-43" fill="#FFFFFF"></path>
                </g>
            </g>
        </g>
    </g>
</svg>