<svg xmlns="http://www.w3.org/2000/svg" xmlns:xlink="http://www.w3.org/1999/xlink" width="44" height="44" viewBox="0 0 44 44">
    <defs>
        <path id="a" d="M27.603 43.944a14.68 14.68 0 0 1-3.49-.43 17.65 17.65 0 0 1-3.911-1.494 21.628 21.628 0 0 1-3.627-2.4 40.144 40.144 0 0 1-2.165-1.692 75.217 75.217 0 0 1-2.301-1.993 54.408 54.408 0 0 1-2.794-2.687c-1.002-1.014-1.816-1.89-2.473-2.672A48.63 48.63 0 0 1 5.254 28.6c-.474-.63-.84-1.173-1.124-1.66a21.964 21.964 0 0 1-1.667-2.558 21.668 21.668 0 0 1-1.291-2.77 18.275 18.275 0 0 1-1.005-3.754 14.165 14.165 0 0 1-.073-3.791 11.786 11.786 0 0 1 1.012-3.627 11.14 11.14 0 0 1 2.243-3.217l1.306-1.336c.02-.019.038-.04.059-.057.39-.364.82-.638 1.282-.814a3.716 3.716 0 0 1 2.113-.163c.73.148 1.38.505 1.92 1.056l5.744 5.805a3.862 3.862 0 0 1 1.043 3.428 3.662 3.662 0 0 1-1.03 1.956l-2.598 2.654c-.114.114-.14.193-.152.262a.704.704 0 0 0 .035.392c.022.057.122.214.222.317l9.641 9.788c.1.101.195.167.261.179.044.007.08.012.113.012.075 0 .15-.018.232-.05a.5.5 0 0 0 .182-.13l2.592-2.64c.407-.404.847-.69 1.328-.873a3.713 3.713 0 0 1 2.1-.163c.74.148 1.385.497 1.925 1.037l5.75 5.825a3.877 3.877 0 0 1 1.046 3.407 3.804 3.804 0 0 1-.991 1.934l-1.35 1.397c-.636.643-1.3 1.184-1.991 1.62a11.64 11.64 0 0 1-2.168 1.094 12.085 12.085 0 0 1-4.36.784zM7.18 8.43l-1.278 1.31a7.452 7.452 0 0 0-1.541 2.195 8.287 8.287 0 0 0-.71 2.55c-.108.903-.09 1.855.059 2.837.152.998.425 2.014.808 3.013a18.158 18.158 0 0 0 2.536 4.532c.045.063.09.129.13.198.217.381.522.833.935 1.383.362.484.858 1.097 1.465 1.822a43.218 43.218 0 0 0 2.285 2.466 52.023 52.023 0 0 0 2.622 2.525c.87.778 1.59 1.4 2.205 1.91a37.6 37.6 0 0 0 2.018 1.573c.03.022.058.045.088.069.974.796 2.002 1.48 3.053 2.03a14.3 14.3 0 0 0 3.116 1.192c1.003.247 2.01.352 2.995.321a8.495 8.495 0 0 0 2.719-.544 8.412 8.412 0 0 0 1.518-.765 7.677 7.677 0 0 0 1.355-1.106l1.32-1.366a.207.207 0 0 0 .062-.113.24.24 0 0 0-.018-.145.227.227 0 0 0-.062-.095l-5.737-5.814c-.04-.04-.06-.044-.091-.05a.349.349 0 0 0-.07-.009.218.218 0 0 0-.114.063l-2.587 2.639a4.119 4.119 0 0 1-2.954 1.235c-.246 0-.495-.024-.742-.07-.806-.14-1.544-.54-2.184-1.187l-9.655-9.803c-.214-.22-.718-.792-1.004-1.54a4.22 4.22 0 0 1-.216-2.291 4.002 4.002 0 0 1 1.124-2.153l2.603-2.66c.05-.05.053-.064.057-.089a.283.283 0 0 0-.018-.18c-.01-.034-.052-.078-.074-.103L7.47 8.422c-.05-.052-.066-.055-.086-.06l-.066-.008a.3.3 0 0 0-.138.075zm36.824 13.577H40.34c0-10.113-8.227-18.34-18.34-18.34V0c12.136 0 22.006 9.872 22.006 22.006zm-5.488 0H34.85c0-7.086-5.765-12.85-12.85-12.85V5.49c9.107 0 16.517 7.41 16.517 16.516z"/>
    </defs>
    <g fill="none" fill-rule="evenodd">
        <mask id="b" fill="#fff">
            <use xlink:href="#a"/>
        </mask>
        <use fill="#1A1446" xlink:href="#a"/>
        <g fill="#28A3AF" mask="url(#b)">
            <path d="M0 0h44v44H0z"/>
        </g>
    </g>
</svg>
