<svg class="lm-Icon lm-Icon-Auto" aria-label="IconAuto" width="32" height="32" viewBox="0 0 32 32" xmlns="http://www.w3.org/2000/svg" focusable="false" role="img" label="Auto"><path d="M22.934 3.387c1.23 0 2.408.887 2.864 2.158l1.205 3.397H30.6c.865 0 1.446.615 1.446 1.529v1.784c0 .91-.58 1.52-1.446 1.52h-.454l.074.07c.459.476.714 1.162.714 1.947V26.72c0 .898-.588 1.5-1.464 1.5h-3.69c-.914 0-1.901-.573-1.901-1.5v-1.194h1.5v1.083a.875.875 0 0 0 .4.112h3.648l.008-3.976-.002-2.303h-4.206a1.48 1.48 0 0 1-1.45-1.15l-.504-1.522c-.136-.577-.023-1.098.292-1.495.337-.423.861-.665 1.44-.665l4.42-.001c-.032-.332-.151-.608-.34-.774l-1.748-1.615H4.985L3.08 14.874c-.241.213-.406.478-.46.736h4.555c.578 0 1.102.242 1.44.665.314.397.427.918.31 1.43l-.542 1.654c-.138.61-.734 1.084-1.43 1.084L2.6 20.442l.001 6.278c0-.051.109 0 .234 0h3.69c.091 0 .141-.028.149-.036l-.017-1.158h1.5v1.194c0 .855-.702 1.5-1.632 1.5h-3.69c-.852 0-1.734-.561-1.734-1.5V15.792c0-.732.35-1.464.958-2.017h-.488c-.9 0-1.58-.653-1.58-1.52V10.47c0-.871.68-1.528 1.58-1.528l3.607-.001 1.052-3.3c.422-1.308 1.647-2.254 2.913-2.254h13.791zm4.751 18.608v1.5H4.352v-1.5h23.333zM7.176 17.11l-4.575-.001v1.833h4.352l.53-1.641c.004-.034-.03-.076-.042-.092-.039-.048-.128-.1-.265-.1zm22.258-.001h-4.43c-.137 0-.227.052-.265.1-.012.016-.046.058-.022.158l.504 1.523 4.212.043v-1.824zm-1.899-6.667l.485 1.366.506.467h2.02v-1.83l-3.01-.003zm-22.835 0H1.571l-.08 1.813 2.293.02.461-.399.455-1.434zm18.234-5.555H9.144c-.625 0-1.262.521-1.485 1.212L5.867 11.72h20.53l-2.012-5.671c-.24-.672-.85-1.162-1.45-1.162z" style="fill:#28a3af;fill-opacity:1"></path></svg>
