<svg xmlns="http://www.w3.org/2000/svg" xmlns:xlink="http://www.w3.org/1999/xlink" viewBox="0 0 79 79">
  <defs>
    <filter id="Oval" x="0" y="0" width="79" height="79" filterUnits="userSpaceOnUse">
      <feOffset dy="-2" input="SourceAlpha"/>
      <feGaussianBlur stdDeviation="5" result="blur"/>
      <feFlood flood-color="#191919" flood-opacity="0.133"/>
      <feComposite operator="in" in2="blur"/>
      <feComposite in="SourceGraphic"/>
    </filter>
    <filter id="Oval-2" x="5.654" y="5.654" width="67.692" height="67.692" filterUnits="userSpaceOnUse">
      <feOffset dy="-2" input="SourceAlpha"/>
      <feGaussianBlur stdDeviation="5" result="blur-2"/>
      <feFlood flood-color="#191919" flood-opacity="0.133"/>
      <feComposite operator="in" in2="blur-2"/>
      <feComposite in="SourceGraphic"/>
    </filter>
    <clipPath id="clip-path">
      <path id="Mask" d="M4.737,10.338,0,5.715,1.527,4.223,4.735,7.354,12.255,0l1.53,1.489Z" transform="translate(0)" fill="#343741"/>
    </clipPath>
  </defs>
  <g id="Group_Copy" data-name="Group Copy" transform="translate(15 17)">
    <g id="Group_9" data-name="Group 9" transform="translate(0 0)">
      <g id="Group_3_Copy" data-name="Group 3 Copy" transform="translate(0 0)">
        <g transform="matrix(1, 0, 0, 1, -15, -17)" filter="url(#Oval)">
          <circle id="Oval-3" data-name="Oval" cx="24.5" cy="24.5" r="24.5" transform="translate(15 17)" fill="#009c49" opacity="0.6"/>
        </g>
        <g transform="matrix(1, 0, 0, 1, -15, -17)" filter="url(#Oval-2)">
          <circle id="Oval-4" data-name="Oval" cx="18.846" cy="18.846" r="18.846" transform="translate(20.65 22.65)" fill="#e5f5ec"/>
        </g>
        <g id="Grupo_36" data-name="Grupo 36" transform="translate(17.608 19.331)">
          <path id="Mask-2" data-name="Mask" d="M4.737,10.338,0,5.715,1.527,4.223,4.735,7.354,12.255,0l1.53,1.489Z" transform="translate(0)" fill="#343741"/>
          <g id="Enmascarar_grupo_36" data-name="Enmascarar grupo 36" transform="translate(0)" clip-path="url(#clip-path)">
            <g id="Gray_1" data-name="Gray 1" transform="translate(-1.723 -3.446)">
              <rect id="Rectangle" width="17.231" height="17.231" fill="#343741"/>
            </g>
          </g>
        </g>
      </g>
    </g>
  </g>
</svg>
