<?xml version="1.0" encoding="UTF-8"?>
<svg width="19px" height="20px" viewBox="0 0 19 20" version="1.1" xmlns="http://www.w3.org/2000/svg" xmlns:xlink="http://www.w3.org/1999/xlink">
    <!-- Generator: Sketch 59.1 (86144) - https://sketch.com -->
    <title>icon</title>
    <desc>Created with Sketch.</desc>
    <defs>
        <path d="M1.58333333,18.1666667 L1.58333333,3.5 C1.58333333,3.408 1.65426667,3.33333333 1.74166667,3.33333333 L4.75,3.33333333 L4.75,4.16666667 C4.75,4.62666667 5.10466667,5 5.54166667,5 C5.97866667,5 6.33333333,4.62666667 6.33333333,4.16666667 L6.33333333,3.33333333 L8.70833333,3.33333333 L8.70833333,4.16666667 C8.70833333,4.62666667 9.063,5 9.5,5 C9.937,5 10.2916667,4.62666667 10.2916667,4.16666667 L10.2916667,3.33333333 L12.6666667,3.33333333 L12.6666667,4.16666667 C12.6666667,4.62666667 13.0213333,5 13.4583333,5 C13.8953333,5 14.25,4.62666667 14.25,4.16666667 L14.25,3.33333333 L17.2583333,3.33333333 C17.3457333,3.33333333 17.4166667,3.408 17.4166667,3.5 L17.4166667,15 L15.9916667,15 C15.0309,15 14.25,15.822 14.25,16.8333333 L14.25,18.3333333 L1.74166667,18.3333333 C1.65426667,18.3333333 1.58333333,18.2586667 1.58333333,18.1666667 L1.58333333,18.1666667 Z M13.4583333,0 C13.8953333,0 14.25,0.373333333 14.25,0.833333333 L14.25,0.833333333 L14.25,1.66666667 L17.2583333,1.66666667 C18.2191,1.66666667 19,2.48866667 19,3.5 L19,3.5 L19,15.8333333 C19,15.9446667 18.9784667,16.0533333 18.9385667,16.1533333 C18.8986667,16.2553333 18.8404,16.3466667 18.7675667,16.4233333 L18.7675667,16.4233333 L15.6021667,19.7553333 C15.5293333,19.832 15.4425667,19.8933333 15.3456667,19.9353333 C15.2506667,19.9773333 15.1474333,20 15.0416667,20 L15.0416667,20 L1.74166667,20 C0.7809,20 0,19.178 0,18.1666667 L0,18.1666667 L0,3.5 C0,2.48866667 0.7809,1.66666667 1.74166667,1.66666667 L1.74166667,1.66666667 L4.75,1.66666667 L4.75,0.833333333 C4.75,0.373333333 5.10466667,0 5.54166667,0 C5.97866667,0 6.33333333,0.373333333 6.33333333,0.833333333 L6.33333333,0.833333333 L6.33333333,1.66666667 L8.70833333,1.66666667 L8.70833333,0.833333333 C8.70833333,0.373333333 9.063,0 9.5,0 C9.937,0 10.2916667,0.373333333 10.2916667,0.833333333 L10.2916667,0.833333333 L10.2916667,1.66666667 L12.6666667,1.66666667 L12.6666667,0.833333333 C12.6666667,0.373333333 13.0213333,0 13.4583333,0 Z M7.55243667,7.46906667 C7.21170333,7.46906667 6.90517,7.53706667 6.62967,7.67173333 C6.35607,7.8064 6.14200333,7.99173333 5.98747,8.22773333 C5.83420333,8.4624 5.72083667,8.77773333 5.64357,9.1724 L6.73923667,9.36773333 C6.77027,9.08306667 6.85640333,8.86706667 7.00017,8.7184 C7.14457,8.5704 7.31620333,8.4964 7.51887,8.4964 C7.72407,8.4964 7.88873667,8.56106667 8.01287,8.6924 C8.13827,8.8224 8.19970333,8.99706667 8.19970333,9.2164 C8.19970333,9.4744 8.11483667,9.6804 7.94637,9.83706667 C7.77727,9.99173333 7.53343667,10.0657333 7.21170333,10.0564 L7.07997,11.0750667 C7.29213667,11.0124 7.47327,10.9810667 7.62463667,10.9810667 C7.85517,10.9810667 8.05213667,11.0724 8.21173667,11.2570667 C8.37323667,11.4410667 8.45240333,11.6904 8.45240333,12.0030667 C8.45240333,12.3344 8.36880333,12.5997333 8.20097,12.7950667 C8.03377,12.9904 7.82793667,13.0877333 7.58347,13.0877333 C7.35483667,13.0877333 7.16103667,13.0070667 7.00017,12.8437333 C6.84057,12.6810667 6.74113667,12.4444 6.70567,12.1364 L5.55617,12.2830667 C5.61507,12.8317333 5.82787,13.2757333 6.19773667,13.6144 C6.56697,13.9550667 7.03120333,14.1244 7.59043667,14.1244 C8.18197,14.1244 8.67660333,13.9224 9.07307,13.5204 C9.47080333,13.1164 9.66903667,12.6290667 9.66903667,12.0570667 C9.66903667,11.6624 9.56327,11.3270667 9.35047,11.0490667 C9.13767,10.7704 8.85457,10.5904 8.49863667,10.5104 C9.09270333,10.1690667 9.39100333,9.7124 9.39100333,9.14106667 C9.39100333,8.73773333 9.24533667,8.37573333 8.95527,8.0564 C8.60313667,7.66506667 8.13637,7.46906667 7.55243667,7.46906667 Z M13.4433233,7.4694 L12.4806567,7.4694 C12.3457567,7.86673333 12.0962233,8.21406667 11.7339567,8.51206667 C11.3704233,8.8094 11.0341233,9.01206667 10.72379,9.11873333 L10.72379,10.2520667 C11.3121567,10.0474 11.82389,9.73206667 12.2577233,9.3054 L12.2577233,14.0127333 L13.4433233,14.0127333 L13.4433233,7.4694 Z" id="path-1"></path>
    </defs>
    <g id="DSK-Siniestros" stroke="none" stroke-width="1" fill="none" fill-rule="evenodd">
        <g id="Claims-Insured-stp3.4" transform="translate(-561.000000, -1648.000000)">
            <g id="Group-3" transform="translate(386.000000, 1228.000000)">
                <g id="Group-30" transform="translate(175.000000, 348.000000)">
                    <g id="Group-31">
                        <g id="Elements-/-Icon-/-Glyph-/-Calendar" transform="translate(0.000000, 72.000000)">
                            <mask id="mask-2" fill="white">
                                <use xlink:href="#path-1"></use>
                            </mask>
                            <use id="Mask" fill="#1A1446" fill-rule="evenodd" xlink:href="#path-1"></use>
                            <g id="Elements-/-Color-/-Secundario-/-Blue-1" mask="url(#mask-2)" fill="#1A1446" fill-rule="evenodd">
                                <rect id="Rectangle" x="0" y="0" width="19" height="20"></rect>
                            </g>
                        </g>
                    </g>
                </g>
            </g>
        </g>
    </g>
</svg>