<svg xmlns="http://www.w3.org/2000/svg" viewBox="0 0 145 145">
  <g id="Grupo_29807" data-name="Grupo 29807" transform="translate(15361.5 -343.5)">
    <circle id="Oval_2" data-name="Oval 2" cx="71.5" cy="71.5" r="71.5" transform="translate(-15360.5 344.5)" fill="#fff" stroke="#79b530" stroke-width="2"/>
    <g id="DSK-Siniestros" transform="translate(-15315 386)">
      <g id="_9.2-Claims-Third-cases-modal" data-name="9.2-Claims-Third-cases-modal" transform="translate(-657 -1038)">
        <g id="Group-14" transform="translate(386 943)">
          <g id="Group-34" transform="translate(271 95)">
            <g id="noun_Document_2560041">
              <g id="Group-30">
                <g id="noun_Document_2560041-2" data-name="noun_Document_2560041">
                  <path id="Shape" d="M51.423,15.71H41.186v2.8h8.86V52.19a5.012,5.012,0,0,1-3.23,4.7,4.836,4.836,0,0,1-1.453.293,1.349,1.349,0,0,0-.24-.024h-.554a4.811,4.811,0,0,1-2.439-1A5.033,5.033,0,0,1,40.2,52.19c0-.005,0-.01,0-.015V1.4A1.389,1.389,0,0,0,38.823,0H1.377A1.389,1.389,0,0,0,0,1.4V52.153a7.754,7.754,0,0,0,7.677,7.812H44.431c.229.021.459.035.692.035a7.425,7.425,0,0,0,2.077-.292s0,0,0,0a7.792,7.792,0,0,0,5.6-7.514V17.111A1.391,1.391,0,0,0,51.423,15.71ZM7.677,57.162a4.972,4.972,0,0,1-4.923-5.009V2.8H37.446V52.19c0,.008,0,.016,0,.024a7.763,7.763,0,0,0,.294,2.109,7.493,7.493,0,0,0,.775,1.838,7.865,7.865,0,0,0,.7,1Z" fill="#006729"/>
                  <path id="Shape-2" data-name="Shape" d="M32.6,7.2H7a.99.99,0,0,0-1,.978v8.844A.99.99,0,0,0,7,18H32.6a.99.99,0,0,0,1-.978V8.178A.99.99,0,0,0,32.6,7.2Zm-1,8.844H8V9.156H31.6Z" fill="#006729"/>
                  <path id="Path" d="M32.6,20.4H7a1.22,1.22,0,0,0,0,2.4H32.6a1.22,1.22,0,0,0,0-2.4Z" fill="#006729" fill-rule="evenodd"/>
                  <path id="Path-2" data-name="Path" d="M32.6,27.6H7A1.22,1.22,0,0,0,7,30H32.6a1.22,1.22,0,0,0,0-2.4Z" fill="#006729" fill-rule="evenodd"/>
                  <path id="Path-3" data-name="Path" d="M32.6,34.8H7a1.22,1.22,0,0,0,0,2.4H32.6a1.22,1.22,0,0,0,0-2.4Z" fill="#006729" fill-rule="evenodd"/>
                  <path id="Path-4" data-name="Path" d="M18.208,40.8H6.992a1.222,1.222,0,0,0,0,2.4H18.208a1.222,1.222,0,0,0,0-2.4Z" fill="#006729" fill-rule="evenodd"/>
                  <path id="Path-5" data-name="Path" d="M18.208,48H6.992a1.222,1.222,0,0,0,0,2.4H18.208a1.222,1.222,0,0,0,0-2.4Z" fill="#006729" fill-rule="evenodd"/>
                  <path id="Shape-3" data-name="Shape" d="M31.463,42H23.736a.948.948,0,0,0-.937.96v6.48a.948.948,0,0,0,.937.96h7.727a.948.948,0,0,0,.937-.96V42.96A.948.948,0,0,0,31.463,42Zm-.937,6.48H24.673V43.92h5.854Z" fill="#006729"/>
                </g>
              </g>
            </g>
          </g>
        </g>
      </g>
    </g>
  </g>
</svg>
