<svg xmlns="http://www.w3.org/2000/svg" viewBox="0 0 73.066 55">
  <g id="DSK-Siniestros" transform="translate(-0.467 -0.5)">
    <g id="_9-Claims-Third-cases" data-name="9-Claims-Third-cases" transform="translate(-819 -1061)">
      <g id="Group-12" transform="translate(350 1032)">
        <g id="Group-11" transform="translate(470 30)">
          <g id="Group-6">
            <path id="Path" d="M15.89,51.528l-6.237,1.29a1.027,1.027,0,0,1-.209.022,1.1,1.1,0,0,1-1.057-.925L1.113,12.358a1.19,1.19,0,0,1,.164-.856,1.071,1.071,0,0,1,.689-.484L15.842,8.15V6.968L1.757,9.879A2.3,2.3,0,0,0,.04,12.58L7.314,52.137A2.21,2.21,0,0,0,9.444,54a2.075,2.075,0,0,0,.418-.043l6.424-1.328a3.091,3.091,0,0,1-.4-1.1Z" fill="#006729" stroke="#006729" stroke-width="1" fill-rule="evenodd"/>
            <path id="Path-2" data-name="Path" d="M16.286,15.677,6.48,17.295a.513.513,0,0,0-.469.589.577.577,0,0,0,.581.406.69.69,0,0,0,.114-.009l9.58-1.58Z" fill="#006729" fill-rule="evenodd"/>
            <path id="Path-3" data-name="Path" d="M16.286,22.645,8.175,24.169a.55.55,0,0,0-.45.644.564.564,0,0,0,.558.445.583.583,0,0,0,.109-.01l7.894-1.484Z" fill="#006729" fill-rule="evenodd"/>
            <path id="Path-4" data-name="Path" d="M16.286,19.161,7.328,20.734a.53.53,0,0,0-.46.615.57.57,0,0,0,.57.425.636.636,0,0,0,.112-.01l8.736-1.534Z" fill="#006729" fill-rule="evenodd"/>
            <path id="Path-5" data-name="Path" d="M16.286,26.129,9.02,27.6a.575.575,0,0,0-.438.676.56.56,0,0,0,.543.466.531.531,0,0,0,.106-.011L16.286,27.3Z" fill="#006729" fill-rule="evenodd"/>
            <path id="Path-6" data-name="Path" d="M17.143,32.226l-6.381,1.347a.638.638,0,0,0-.466.749.6.6,0,0,0,.578.517.541.541,0,0,0,.113-.012l6.156-1.3Z" fill="#006729" fill-rule="evenodd"/>
            <path id="Path-7" data-name="Path" d="M16.286,36.581l-5.537,1.274a.679.679,0,0,0-.452.792.605.605,0,0,0,.56.547.482.482,0,0,0,.11-.013l5.319-1.224Z" fill="#006729" fill-rule="evenodd"/>
            <path id="Path-8" data-name="Path" d="M16.286,40.064l-4.7,1.193a.731.731,0,0,0-.434.84.611.611,0,0,0,.539.58.423.423,0,0,0,.105-.013l4.488-1.139Z" fill="#006729" fill-rule="evenodd"/>
            <path id="Path-9" data-name="Path" d="M15.429,43.548l-3.864,1.1a.8.8,0,0,0-.412.895c.048.365.267.618.511.618a.36.36,0,0,0,.1-.014L15.429,45.1Z" fill="#006729" fill-rule="evenodd"/>
            <path id="Path-10" data-name="Path" d="M12.011,48.114a.686.686,0,0,0,.594.66.451.451,0,0,0,.116-.015l3.564-.935V46.161l-3.8,1A.838.838,0,0,0,12.011,48.114Z" fill="#006729" fill-rule="evenodd"/>
            <path id="Path-11" data-name="Path" d="M16.286,29.613,9.863,31.025a.606.606,0,0,0-.424.711.558.558,0,0,0,.526.49.474.474,0,0,0,.1-.011l6.218-1.367Z" fill="#006729" fill-rule="evenodd"/>
            <path id="Path-12" data-name="Path" d="M16.286,12.193,6.45,13.852a.49.49,0,0,0-.44.565.542.542,0,0,0,.546.39.638.638,0,0,0,.107-.009l9.623-1.622Z" fill="#006729" fill-rule="evenodd"/>
            <path id="Path-13" data-name="Path" d="M70.243,9.879,56.158,6.968V8.15l13.877,2.869a1.071,1.071,0,0,1,.689.484,1.189,1.189,0,0,1,.164.856L63.614,51.915a1.1,1.1,0,0,1-1.057.925,1.022,1.022,0,0,1-.209-.022l-6.237-1.29v0a3.211,3.211,0,0,1-.147.573,0,0,0,0,0,0,0,3.065,3.065,0,0,1-.248.523l6.424,1.328a2.078,2.078,0,0,0,.418.043,2.21,2.21,0,0,0,2.13-1.863L71.96,12.58A2.3,2.3,0,0,0,70.243,9.879Z" fill="#006729" stroke="#006729" stroke-width="1" fill-rule="evenodd"/>
            <path id="Path-14" data-name="Path" d="M65.408,18.29a.577.577,0,0,0,.581-.406.513.513,0,0,0-.468-.589l-9.806-1.617V16.7l9.58,1.58A.689.689,0,0,0,65.408,18.29Z" fill="#006729" fill-rule="evenodd"/>
            <path id="Path-15" data-name="Path" d="M63.717,25.258a.564.564,0,0,0,.558-.445.55.55,0,0,0-.45-.644l-8.111-1.524v1.119l7.894,1.484A.582.582,0,0,0,63.717,25.258Z" fill="#006729" fill-rule="evenodd"/>
            <path id="Path-16" data-name="Path" d="M64.562,21.774a.57.57,0,0,0,.57-.425.53.53,0,0,0-.46-.615l-8.958-1.573V20.23l8.736,1.534A.635.635,0,0,0,64.562,21.774Z" fill="#006729" fill-rule="evenodd"/>
            <path id="Path-17" data-name="Path" d="M62.875,28.742a.56.56,0,0,0,.543-.466.575.575,0,0,0-.438-.676l-7.266-1.471V27.3l7.055,1.428A.531.531,0,0,0,62.875,28.742Z" fill="#006729" fill-rule="evenodd"/>
            <path id="Path-18" data-name="Path" d="M61.126,34.839a.6.6,0,0,0,.578-.517.638.638,0,0,0-.465-.749l-6.381-1.347v1.3l6.156,1.3A.538.538,0,0,0,61.126,34.839Z" fill="#006729" fill-rule="evenodd"/>
            <path id="Path-19" data-name="Path" d="M61.143,39.194a.605.605,0,0,0,.56-.547.679.679,0,0,0-.451-.792l-5.538-1.274v1.376l5.32,1.224A.481.481,0,0,0,61.143,39.194Z" fill="#006729" fill-rule="evenodd"/>
            <path id="Path-20" data-name="Path" d="M60.308,42.677a.611.611,0,0,0,.539-.58.731.731,0,0,0-.434-.84l-4.7-1.193v1.46L60.2,42.664A.422.422,0,0,0,60.308,42.677Z" fill="#006729" fill-rule="evenodd"/>
            <path id="Path-21" data-name="Path" d="M60.336,46.161c.245,0,.463-.253.511-.618a.8.8,0,0,0-.412-.895l-3.864-1.1V45.1l3.665,1.043A.36.36,0,0,0,60.336,46.161Z" fill="#006729" fill-rule="evenodd"/>
            <path id="Path-22" data-name="Path" d="M59.395,48.774a.685.685,0,0,0,.594-.66.838.838,0,0,0-.479-.957l-3.8-1v1.663l3.565.935A.45.45,0,0,0,59.395,48.774Z" fill="#006729" fill-rule="evenodd"/>
            <path id="Path-23" data-name="Path" d="M62.035,32.226a.557.557,0,0,0,.526-.49.606.606,0,0,0-.424-.711l-6.423-1.412v1.235l6.218,1.367A.474.474,0,0,0,62.035,32.226Z" fill="#006729" fill-rule="evenodd"/>
            <path id="Path-24" data-name="Path" d="M65.444,14.807a.542.542,0,0,0,.546-.39.49.49,0,0,0-.44-.565l-9.836-1.658v.982L65.338,14.8A.637.637,0,0,0,65.444,14.807Z" fill="#006729" fill-rule="evenodd"/>
            <path id="Shape" d="M53.108,0H18.892a1.778,1.778,0,0,0-1.749,1.805V51.324a1.778,1.778,0,0,0,1.749,1.805H53.108a1.778,1.778,0,0,0,1.749-1.805V1.805A1.778,1.778,0,0,0,53.108,0Zm.607,51.324a.63.63,0,0,1-.607.65H18.892a.63.63,0,0,1-.606-.65V1.805a.63.63,0,0,1,.606-.65H53.108a.63.63,0,0,1,.607.65Z" fill="#006729" stroke="#006729" stroke-width="1"/>
            <path id="Path-25" data-name="Path" d="M46.586,6.1H25.414c-.308,0-.557.39-.557.871s.25.871.557.871H46.586c.308,0,.557-.39.557-.871S46.894,6.1,46.586,6.1Z" fill="#006729" fill-rule="evenodd"/>
            <path id="Path-26" data-name="Path" d="M46.586,10.452H25.414c-.308,0-.557.39-.557.871s.25.871.557.871H46.586c.308,0,.557-.39.557-.871S46.894,10.452,46.586,10.452Z" fill="#006729" fill-rule="evenodd"/>
            <path id="Path-27" data-name="Path" d="M46.586,13.936H25.414c-.308,0-.557.39-.557.871s.25.871.557.871H46.586c.308,0,.557-.39.557-.871S46.894,13.936,46.586,13.936Z" fill="#006729" fill-rule="evenodd"/>
            <path id="Path-28" data-name="Path" d="M46.586,16.548H25.414c-.308,0-.557.39-.557.871s.25.871.557.871H46.586c.308,0,.557-.39.557-.871S46.894,16.548,46.586,16.548Z" fill="#333740" fill-rule="evenodd"/>
            <path id="Path-29" data-name="Path" d="M46.586,20.032H25.414c-.308,0-.557.39-.557.871s.25.871.557.871H46.586c.308,0,.557-.39.557-.871S46.894,20.032,46.586,20.032Z" fill="#333740" fill-rule="evenodd"/>
            <path id="Path-30" data-name="Path" d="M46.586,24.1H25.414c-.308,0-.557.39-.557.871s.25.871.557.871H46.586c.308,0,.557-.39.557-.871S46.894,24.1,46.586,24.1Z" fill="#333740" fill-rule="evenodd"/>
            <path id="Path-31" data-name="Path" d="M46.586,28.452H25.414c-.308,0-.557.39-.557.871s.25.871.557.871H46.586c.308,0,.557-.39.557-.871S46.894,28.452,46.586,28.452Z" fill="#333740" fill-rule="evenodd"/>
            <path id="Path-32" data-name="Path" d="M46.586,31.935H25.414c-.308,0-.557.39-.557.871s.25.871.557.871H46.586c.308,0,.557-.39.557-.871S46.894,31.935,46.586,31.935Z" fill="#333740" fill-rule="evenodd"/>
            <path id="Path-33" data-name="Path" d="M46.586,34.548H25.414c-.308,0-.557.39-.557.871s.25.871.557.871H46.586c.308,0,.557-.39.557-.871S46.894,34.548,46.586,34.548Z" fill="#333740" fill-rule="evenodd"/>
            <path id="Path-34" data-name="Path" d="M46.586,38.032H25.414c-.308,0-.557.39-.557.871s.25.871.557.871H46.586c.308,0,.557-.39.557-.871S46.894,38.032,46.586,38.032Z" fill="#333740" fill-rule="evenodd"/>
            <path id="Path-35" data-name="Path" d="M46.586,42.1H25.414c-.308,0-.557.39-.557.871s.25.871.557.871H46.586c.308,0,.557-.39.557-.871S46.894,42.1,46.586,42.1Z" fill="#006729" fill-rule="evenodd"/>
            <path id="Path-36" data-name="Path" d="M46.586,46.452H25.414c-.308,0-.557.39-.557.871s.25.871.557.871H46.586c.308,0,.557-.39.557-.871S46.894,46.452,46.586,46.452Z" fill="#006729" fill-rule="evenodd"/>
            <g id="Group-5" transform="translate(16 8)">
              <g id="Shape2">
                <path id="Shape-2" data-name="Shape" d="M39.856,1.144a1.834,1.834,0,0,0-2.6,0L29.194,9.21A14.672,14.672,0,0,0,8.6,29.8L.538,37.866a1.836,1.836,0,1,0,2.6,2.6L11.2,32.4a14.672,14.672,0,0,0,20.59-20.59L39.856,3.74A1.834,1.834,0,0,0,39.856,1.144ZM9.181,20.8a11,11,0,0,1,17.39-8.969L11.228,27.176A10.945,10.945,0,0,1,9.181,20.8Zm22.033,0a11,11,0,0,1-17.39,8.969L29.167,14.43A10.945,10.945,0,0,1,31.214,20.8Z" fill="#fff" stroke="#fff" stroke-width="6"/>
              </g>
            </g>
          </g>
          <circle id="Oval" cx="13" cy="13" r="13" transform="translate(23 16)" fill="#fff"/>
          <path id="Shape-3" data-name="Shape" d="M55.467,9.533a1.816,1.816,0,0,0-2.571,0L44.909,17.52A14.528,14.528,0,0,0,24.52,37.909L16.533,45.9A1.818,1.818,0,1,0,19.1,48.467l7.987-7.987A14.528,14.528,0,0,0,47.48,20.091L55.467,12.1A1.816,1.816,0,0,0,55.467,9.533ZM25.091,29a10.891,10.891,0,0,1,17.22-8.882L27.118,35.311A10.838,10.838,0,0,1,25.091,29Zm21.818,0a10.891,10.891,0,0,1-17.22,8.882L44.882,22.689A10.838,10.838,0,0,1,46.909,29Z" fill="#006729" stroke="#fff" stroke-width="2"/>
        </g>
      </g>
    </g>
  </g>
</svg>
