<svg xmlns="http://www.w3.org/2000/svg" viewBox="0 0 105.497 98">
  <g id="Componente_336_5" data-name="Componente 336 – 5" transform="translate(1 1)">
    <g id="Grupo_29826" data-name="Grupo 29826">
      <circle id="Oval-2" cx="48" cy="48" r="48" fill="#fff" stroke="#65a518" stroke-width="2"/>
      <path id="Unión_9" data-name="Unión 9" d="M11.343,40.984H6.917A6.831,6.831,0,0,1,0,34.284V11.233a1.924,1.924,0,0,1,.276-1.072,1.724,1.724,0,0,1,.761-.8L5.045,6.473V1.5A1.5,1.5,0,0,1,6.545,0H40.363a1.5,1.5,0,0,1,1.5,1.5V5.669l5.168,3.688a3,3,0,0,1,.691.871A2.732,2.732,0,0,1,48,11.3V34.284a6.831,6.831,0,0,1-6.917,6.7ZM2.628,34.351a4.273,4.273,0,0,0,4.358,4.22H41.153a4.273,4.273,0,0,0,4.358-4.22V13.177h-.139L28.653,25.08q-.343.274-.655.512a17.336,17.336,0,0,1-1.825,1.254l-1.412,1.005c-.069.067-.139.067-.208.134a.258.258,0,0,1-.208.068h-.691c-.068,0-.139-.068-.207-.068s-.139-.067-.208-.134L2.628,13.177ZM16.484,19.184c2.66,2.111,4.793,3.712,6.345,4.758.729.492,1.268.818,1.644,1.027l7.063-5.018q.369-.335.755-.689V8.694H16.484ZM8.044,12.961l.393,1.288,6.046,4.3V8.468a1.776,1.776,0,0,1,1.775-1.774H32.516A1.776,1.776,0,0,1,34.29,8.468v9.526l4.841-3.439a1.5,1.5,0,0,1-.267-.856V3H8.044Zm34.077-.521L44.542,10.7,42.121,8.955ZM3.527,10.7l1.517,1.092V9.648Zm35.758,23.72-8.161-7.035a1.172,1.172,0,0,1-.069-1.742,1.263,1.263,0,0,1,1.8-.067l8.162,7.035a1.173,1.173,0,0,1,.068,1.743,1.388,1.388,0,0,1-.968.4A1.3,1.3,0,0,1,39.285,34.417Zm-32.3-.066a1.172,1.172,0,0,1,.068-1.743l8.162-7.035a1.263,1.263,0,0,1,1.8.067,1.172,1.172,0,0,1-.069,1.742L8.784,34.417a1.3,1.3,0,0,1-.83.336A1.388,1.388,0,0,1,6.986,34.351Z" transform="translate(24 27.508)" fill="#006729"/>
      <g id="Grupo_29793" data-name="Grupo 29793" transform="translate(85.958 38.73)">
        <g id="Grupo_29794" data-name="Grupo 29794" transform="translate(0 0)">
          <path id="Trazado_15822" data-name="Trazado 15822" d="M10.52,1.25a9.27,9.27,0,1,1-9.27,9.269A9.27,9.27,0,0,1,10.52,1.25" transform="translate(-1.25 -1.25)" fill="#65a518" fill-rule="evenodd"/>
          <path id="Trazado_15823" data-name="Trazado 15823" d="M10.52,1.25a9.27,9.27,0,1,1-9.27,9.269A9.27,9.27,0,0,1,10.52,1.25Z" transform="translate(-1.25 -1.25)" fill="none"/>
          <path id="Trazado_15824" data-name="Trazado 15824" d="M10.929,15.64l-2.864-2.4-.6.518,3.46,2.895,7.027-5.865-.6-.519Z" transform="translate(-3.625 -3.813)" fill="#1a1446" fill-rule="evenodd"/>
          <path id="Trazado_15825" data-name="Trazado 15825" d="M10.929,15.64l-2.864-2.4-.6.518,3.46,2.895,7.027-5.865-.6-.519Z" transform="translate(-3.625 -3.813)" fill="#fff" stroke="#fff" stroke-width="1"/>
        </g>
      </g>
    </g>
  </g>
</svg>
