<?xml version="1.0" encoding="UTF-8"?>
<svg width="74px" height="56px" viewBox="0 0 74 56" version="1.1" xmlns="http://www.w3.org/2000/svg" xmlns:xlink="http://www.w3.org/1999/xlink">
    <!-- Generator: Sketch 61.2 (89653) - https://sketch.com -->
    <title>Group 17</title>
    <desc>Created with Sketch.</desc>
    <g id="DSK-Siniestros" stroke="none" stroke-width="1" fill="none" fill-rule="evenodd">
        <g id="9-Claims-Third-cases" transform="translate(-474.000000, -1061.000000)">
            <g id="Group-12" transform="translate(350.000000, 1032.000000)">
                <g id="Group-17" transform="translate(125.000000, 30.000000)">
                    <g id="Group-2" fill="#333740">
                        <g id="noun_insurance-audit_1879074">
                            <path d="M15.8895988,51.5284162 L9.65258928,52.8178981 C9.58354219,52.832345 9.51312183,52.8397145 9.44374238,52.8397145 C8.9297363,52.8397145 8.48505549,52.450494 8.38639519,51.9148527 L1.11279763,12.3581267 C1.05784071,12.059239 1.11629395,11.7553012 1.27684902,11.5023611 C1.43795031,11.2488391 1.68257963,11.0768839 1.9655585,11.0185233 L15.842404,8.14983824 L15.842404,6.96774194 L1.75671138,9.87947219 C0.57983568,10.1228407 -0.188905562,11.3323801 0.0404821702,12.5804954 L7.31407929,52.1372193 C7.51653529,53.2365901 8.42583705,54 9.44374211,54 C9.58168097,54 9.72114842,53.9858408 9.86149114,53.9569515 L16.2857143,52.628949 C16.0888854,52.3003576 15.9538974,51.9284299 15.8895986,51.5287106 C15.8895988,51.5284162 15.8895988,51.5284162 15.8895988,51.5284162 Z" id="Path" stroke="#333740"></path>
                            <path d="M16.2857143,15.6774194 L6.47979327,17.2947451 C6.1580999,17.3477046 5.94848089,17.611446 6.01104068,17.8837802 C6.06601017,18.123756 6.3141734,18.2903226 6.5924009,18.2903226 C6.62975863,18.2903226 6.66800595,18.2874072 6.70619385,18.2810264 L16.2857143,16.7009851 L16.2857143,15.6774194 Z" id="Path"></path>
                            <path d="M16.2857143,22.6451613 L8.17472025,24.1694245 C7.86600682,24.2273861 7.66484569,24.5157665 7.72488075,24.8135425 C7.77763229,25.0758826 8.01578243,25.2580645 8.28278379,25.2580645 C8.31863418,25.2580645 8.35534316,25.2548223 8.3919859,25.2478454 L16.2857143,23.7643497 L16.2857143,22.6451613 Z" id="Path"></path>
                            <path d="M16.2857143,19.1612903 L7.32794174,20.7341452 C7.01227718,20.7895197 6.80659306,21.0650282 6.86797524,21.3495129 C6.92191389,21.6001434 7.16542332,21.7741935 7.43843323,21.7741935 C7.47509039,21.7741935 7.51262046,21.7710961 7.55009281,21.7644305 L16.2857143,20.2305216 L16.2857143,19.1612903 Z" id="Path"></path>
                            <path d="M16.2857143,26.1290323 L9.01976965,27.599997 C8.71916499,27.6607422 8.52328671,27.9632587 8.58174547,28.2756291 C8.63316698,28.550884 8.86500676,28.7419355 9.1249949,28.7419355 C9.15990475,28.7419355 9.19564427,28.7385938 9.23133309,28.7312726 L16.2857143,27.3030736 L16.2857143,26.1290323 Z" id="Path"></path>
                            <path d="M17.1428571,32.2258065 L10.7623759,33.5727916 C10.442845,33.6401916 10.2345283,33.9755341 10.2966807,34.3217996 C10.3513496,34.626859 10.5978367,34.8387097 10.8743082,34.8387097 C10.9117168,34.8387097 10.9493612,34.834937 10.9873597,34.8268264 L17.1428571,33.5275594 L17.1428571,32.2258065 Z" id="Path"></path>
                            <path d="M16.2857143,36.5806452 L10.7481519,37.8547673 C10.438149,37.9260505 10.2360603,38.2807136 10.296352,38.646929 C10.3493901,38.9695642 10.5885186,39.1935484 10.856742,39.1935484 C10.8927483,39.1935484 10.9295504,39.1896306 10.9664146,39.1810475 L16.2857143,37.9570628 L16.2857143,36.5806452 Z" id="Path"></path>
                            <path d="M16.2857143,40.0645161 L11.5875845,41.2569889 C11.289427,41.3326157 11.095145,41.7088901 11.1530727,42.0974207 C11.2040754,42.4397156 11.4340815,42.6774194 11.6919528,42.6774194 C11.7265773,42.6774194 11.7619754,42.6731918 11.7974207,42.6640857 L16.2857143,41.5248 L16.2857143,40.0645161 Z" id="Path"></path>
                            <path d="M15.4285714,43.5483871 L11.564959,44.6489477 C11.2819712,44.7293964 11.0975723,45.1300327 11.1525529,45.5437249 C11.2009609,45.9082627 11.4192694,46.1612903 11.6640176,46.1612903 C11.6968805,46.1612903 11.7304738,46.1567831 11.7641199,46.1470931 L15.4285714,45.1036241 L15.4285714,43.5483871 Z" id="Path"></path>
                            <path d="M12.0112604,48.1137381 C12.0674801,48.5035599 12.3210131,48.7741935 12.6052616,48.7741935 C12.6434278,48.7741935 12.6824433,48.7694537 12.7215177,48.7590895 L16.2857143,47.8243318 L16.2857143,46.1612903 L12.4902176,47.15662 C12.1615632,47.2427475 11.9474074,47.6712606 12.0112604,48.1137381 Z" id="Path"></path>
                            <path d="M16.2857143,29.6129032 L9.86265952,31.0249843 C9.57166328,31.0889187 9.38195818,31.4070185 9.43855825,31.7354796 C9.48834523,32.0248534 9.71281556,32.2258065 9.96459429,32.2258065 C9.99839344,32.2258065 10.0329437,32.2222325 10.0675482,32.2145342 L16.2857143,30.8474218 L16.2857143,29.6129032 Z" id="Path"></path>
                            <path d="M16.2857143,12.1935484 L6.45022657,13.8516211 C6.14838325,13.9024601 5.95169784,14.155394 6.0103418,14.4165685 C6.06197948,14.6466628 6.29482597,14.8064516 6.55588597,14.8064516 C6.5909386,14.8064516 6.62677019,14.8036079 6.66265753,14.7974886 L16.2857143,13.1751706 L16.2857143,12.1935484 Z" id="Path"></path>
                            <path d="M70.2432877,9.87947242 L56.1576058,6.96774194 L56.1576058,8.14983835 L70.0346607,11.0185236 C70.3174217,11.0768843 70.5623218,11.2488395 70.7234226,11.5023615 C70.8839857,11.7553015 70.9421609,12.0592394 70.8872033,12.3581271 L63.613606,51.9148548 C63.5149441,52.4504962 63.0705362,52.8397167 62.5562582,52.8397167 C62.4868798,52.8397167 62.4164677,52.8323472 62.3476853,52.8179003 L56.1106755,51.5284182 C56.1106755,51.5290025 56.1101295,51.5295823 56.1101295,51.5304498 C56.0781161,51.728975 56.0285101,51.9204804 55.9629036,52.1034566 C55.9623576,52.1043285 55.9623576,52.1051961 55.9623576,52.1057759 C55.8951089,52.2898542 55.8124517,52.464943 55.7142857,52.6289488 L62.138508,53.9569515 C62.2788528,53.9858408 62.4185933,54 62.5562581,54 C63.5741611,54 64.483737,53.23659 64.6859205,52.1372191 L71.9595179,12.5804914 C72.1889052,11.3323804 71.4201659,10.1228409 70.2432877,9.87947242 Z" id="Path" stroke="#333740"></path>
                            <path d="M65.4075981,18.2903226 C65.6861246,18.2903226 65.9339911,18.123756 65.988959,17.8837802 C66.0515183,17.611446 65.8418985,17.3477046 65.5205017,17.2947451 L55.7142857,15.6774194 L55.7142857,16.7009851 L65.294102,18.2810264 C65.3322899,18.2874072 65.3705367,18.2903226 65.4075981,18.2903226 Z" id="Path"></path>
                            <path d="M63.7172152,25.2580645 C63.984499,25.2580645 64.2223645,25.0758826 64.2751188,24.8135425 C64.3351539,24.5157665 64.133992,24.2273861 63.8255632,24.1694245 L55.7142857,22.6451613 L55.7142857,23.7643497 L63.6082984,25.2478454 C63.6449455,25.2548223 63.6816535,25.2580645 63.7172152,25.2580645 Z" id="Path"></path>
                            <path d="M64.5615665,21.7741935 C64.8348652,21.7741935 65.0780835,21.6001434 65.1320206,21.3495129 C65.1934155,21.0650282 64.9877223,20.7895197 64.6723527,20.7341452 L55.7142857,19.1612903 L55.7142857,20.2305215 L64.4501942,21.7644305 C64.4876661,21.771096 64.5252,21.7741935 64.5615665,21.7741935 Z" id="Path"></path>
                            <path d="M62.8750035,28.7419355 C63.1352716,28.7419355 63.3668347,28.550884 63.4182542,28.2756291 C63.4767125,27.9632587 63.280834,27.6607421 62.9805059,27.599997 L55.7142857,26.1290323 L55.7142857,27.3030735 L62.7688925,28.7312726 C62.804632,28.7385938 62.8403716,28.7419355 62.8750035,28.7419355 Z" id="Path"></path>
                            <path d="M61.1256889,34.8387097 C61.4024576,34.8387097 61.6486494,34.626859 61.7033173,34.3217996 C61.7654732,33.9755341 61.5571663,33.6401915 61.2379192,33.5727916 L54.8571429,32.2258065 L54.8571429,33.5275594 L61.0129328,34.8268266 C61.0509302,34.8349371 61.0882803,34.8387097 61.1256889,34.8387097 Z" id="Path"></path>
                            <path d="M61.1432633,39.1935484 C61.4117617,39.1935484 61.6506047,38.9695642 61.7036451,38.646929 C61.7639456,38.2807136 61.5618479,37.9260504 61.2521347,37.8547673 L55.7142857,36.5806452 L55.7142857,37.9570628 L61.0338643,39.1810475 C61.0707318,39.1896306 61.1075382,39.1935484 61.1432633,39.1935484 Z" id="Path"></path>
                            <path d="M60.3080458,42.6774194 C60.5661901,42.6774194 60.7959219,42.4397156 60.8469269,42.0974208 C60.9048546,41.7088901 60.7105713,41.3326156 60.412689,41.2569889 L55.7142857,40.0645161 L55.7142857,41.5248 L60.2028576,42.6640857 C60.2382474,42.6731917 60.2736959,42.6774194 60.3080458,42.6774194 Z" id="Path"></path>
                            <path d="M60.3359808,46.1612903 C60.5809962,46.1612903 60.7990405,45.9082627 60.8474466,45.5437249 C60.9024273,45.1300327 60.7180281,44.7293964 60.4353003,44.6489477 L56.5714286,43.5483871 L56.5714286,45.1036241 L60.23614,46.1470932 C60.2697334,46.1567831 60.3033784,46.1612903 60.3359808,46.1612903 Z" id="Path"></path>
                            <path d="M59.3947362,48.7741935 C59.6792905,48.7741935 59.9325214,48.5035599 59.9887391,48.1137381 C60.0525922,47.6712607 59.8384357,47.2427475 59.5100832,47.1566201 L55.7142857,46.1612903 L55.7142857,47.8243317 L59.2787837,48.7590895 C59.3177981,48.7694537 59.3568726,48.7741935 59.3947362,48.7741935 Z" id="Path"></path>
                            <path d="M62.0354054,32.2258065 C62.2874578,32.2258065 62.5116562,32.0248534 62.5614413,31.7354796 C62.6180414,31.4070185 62.428336,31.0889187 62.1376074,31.0249843 L55.7142857,29.6129032 L55.7142857,30.8474217 L61.9327205,32.2145342 C61.967324,32.2222324 62.0018743,32.2258065 62.0354054,32.2258065 Z" id="Path"></path>
                            <path d="M65.4441135,14.8064516 C65.7054582,14.8064516 65.9380306,14.6466628 65.9896577,14.4165685 C66.0483017,14.155394 65.8516161,13.9024601 65.5500505,13.8516211 L55.7142857,12.1935484 L55.7142857,13.1751706 L65.3376204,14.7974886 C65.3735073,14.8036079 65.4093389,14.8064516 65.4441135,14.8064516 Z" id="Path"></path>
                            <path d="M53.1077096,0 L18.8920005,0 C17.9263371,0 17.1428571,0.808139184 17.1428571,1.80523183 L17.1428571,51.3238005 C17.1428571,52.3208942 17.9263371,53.1290323 18.8920005,53.1290323 L53.1077096,53.1290323 C54.073652,53.1290323 54.8571429,52.3208942 54.8571429,51.3238004 L54.8571429,1.80523183 C54.8571429,0.808139184 54.073652,0 53.1077096,0 Z M53.7142857,51.3238004 C53.7142857,51.68248 53.4419381,51.9740533 53.1077096,51.9740533 L18.8920005,51.9740533 C18.5577676,51.9740533 18.2857143,51.68248 18.2857143,51.3238004 L18.2857143,1.80523183 C18.2857143,1.4465534 18.5577676,1.15497896 18.8920005,1.15497896 L53.1077096,1.15497896 C53.4419381,1.15497896 53.7142857,1.4465534 53.7142857,1.80523183 L53.7142857,51.3238004 Z" id="Shape" stroke="#333740" fill-rule="nonzero"></path>
                            <path d="M46.5857143,6.09677419 L25.4142857,6.09677419 C25.106627,6.09677419 24.8571429,6.48679329 24.8571429,6.96774194 C24.8571429,7.44869058 25.106627,7.83870968 25.4142857,7.83870968 L46.5857143,7.83870968 C46.8936408,7.83870968 47.1428571,7.44869058 47.1428571,6.96774194 C47.1428571,6.48679329 46.8936408,6.09677419 46.5857143,6.09677419 Z" id="Path"></path>
                            <path d="M46.5857143,10.4516129 L25.4142857,10.4516129 C25.106627,10.4516129 24.8571429,10.841632 24.8571429,11.3225806 C24.8571429,11.8035293 25.106627,12.1935484 25.4142857,12.1935484 L46.5857143,12.1935484 C46.8936408,12.1935484 47.1428571,11.8035293 47.1428571,11.3225806 C47.1428571,10.841632 46.8936408,10.4516129 46.5857143,10.4516129 Z" id="Path"></path>
                            <path d="M46.5857143,13.9354839 L25.4142857,13.9354839 C25.106627,13.9354839 24.8571429,14.325503 24.8571429,14.8064516 C24.8571429,15.2874003 25.106627,15.6774194 25.4142857,15.6774194 L46.5857143,15.6774194 C46.8936408,15.6774194 47.1428571,15.2874003 47.1428571,14.8064516 C47.1428571,14.325503 46.8936408,13.9354839 46.5857143,13.9354839 Z" id="Path"></path>
                            <path d="M46.5857143,16.5483871 L25.4142857,16.5483871 C25.106627,16.5483871 24.8571429,16.9384062 24.8571429,17.4193548 C24.8571429,17.9003035 25.106627,18.2903226 25.4142857,18.2903226 L46.5857143,18.2903226 C46.8936408,18.2903226 47.1428571,17.9003035 47.1428571,17.4193548 C47.1428571,16.9384062 46.8936408,16.5483871 46.5857143,16.5483871 Z" id="Path"></path>
                            <path d="M46.5857143,20.0322581 L25.4142857,20.0322581 C25.106627,20.0322581 24.8571429,20.4222772 24.8571429,20.9032258 C24.8571429,21.3841745 25.106627,21.7741935 25.4142857,21.7741935 L46.5857143,21.7741935 C46.8936408,21.7741935 47.1428571,21.3841745 47.1428571,20.9032258 C47.1428571,20.4222772 46.8936408,20.0322581 46.5857143,20.0322581 Z" id="Path"></path>
                            <path d="M47.2446825,27.8709677 L47.1428571,27.8709677 C47.2078133,28.1325199 47.2498113,28.4055677 47.2446825,28.6900251 C47.2395366,29.0060127 47.2225426,29.3037067 47.2137142,29.6129032 L47.2446825,29.6129032 C47.6621379,29.6129032 48,29.2228841 48,28.7419355 C48,28.2609868 47.6621379,27.8709677 47.2446825,27.8709677 Z" id="Path"></path>
                            <path d="M24.8225941,29.6129032 L24.827028,29.6129032 C24.8121416,28.647524 24.8378885,28.0606613 24.8410954,27.9888094 C24.8426581,27.9483948 24.8539265,27.9109438 24.8571429,27.8709677 L24.8225941,27.8709677 C24.3683511,27.8709677 24,28.2609868 24,28.7419355 C24,29.2228841 24.3683511,29.6129032 24.8225941,29.6129032 Z" id="Path"></path>
                            <path d="M24.5828161,32.2258065 L24.8571429,32.2258065 C24.8019547,31.6159523 24.7569558,31.034585 24.7214057,30.483871 L24.5828161,30.483871 C24.2609805,30.483871 24,30.8738901 24,31.3548387 C24,31.8357874 24.2609805,32.2258065 24.5828161,32.2258065 Z" id="Path"></path>
                            <path d="M47.4472941,30.483871 L47.2810336,30.483871 C47.2416275,31.0813522 47.1936022,31.6572374 47.1428571,32.2258065 L47.4472941,32.2258065 C47.7527683,32.2258065 48,31.8357874 48,31.3548387 C48,30.8738901 47.7527683,30.483871 47.4472941,30.483871 Z" id="Path"></path>
                            <path d="M24.6449067,35.7096774 L25.7142857,35.7096774 C25.7098993,35.6871178 25.7045485,35.6658672 25.7000982,35.6433076 C25.5889793,35.0756157 25.4932116,34.518456 25.4040862,33.9677419 L24.6449067,33.9677419 C24.2887841,33.9677419 24,34.357761 24,34.8387097 C24,35.3196583 24.2887841,35.7096774 24.6449067,35.7096774 Z" id="Path"></path>
                            <path d="M47.3857809,33.9677419 L46.5952138,33.9677419 C46.4992092,34.5674028 46.3960818,35.1479062 46.2857143,35.7096774 L47.3857809,35.7096774 C47.7252528,35.7096774 48,35.3196583 48,34.8387097 C48,34.357761 47.7252528,33.9677419 47.3857809,33.9677419 Z" id="Path"></path>
                            <path d="M46.6279649,37.4516129 L45.0199558,37.4516129 C44.8766037,38.0623376 44.7257917,38.6376977 44.5714286,39.1935484 L46.6279649,39.1935484 C46.91254,39.1935484 47.1428571,38.8035293 47.1428571,38.3225806 C47.1428571,37.841632 46.91254,37.4516129 46.6279649,37.4516129 Z" id="Path"></path>
                            <path d="M25.3900603,39.1935484 L27.4285714,39.1935484 C27.2674708,38.6275044 27.1152682,38.0474396 26.9729273,37.4516129 L25.3900603,37.4516129 C25.0957791,37.4516129 24.8571429,37.841632 24.8571429,38.3225806 C24.8571429,38.8035293 25.0957791,39.1935484 25.3900603,39.1935484 Z" id="Path"></path>
                            <path d="M25.4626343,43.5483871 L30,43.5483871 C29.6936834,42.9920979 29.4015926,42.4116011 29.1242774,41.8064516 L25.4626343,41.8064516 C25.1282772,41.8064516 24.8571429,42.1964707 24.8571429,42.6774194 C24.8571429,43.158368 25.1282772,43.5483871 25.4626343,43.5483871 Z" id="Path"></path>
                            <path d="M47.406151,41.8064516 L43.7096727,41.8064516 C43.4272374,42.4362473 43.1418933,43.0184917 42.8571429,43.5483871 L47.406151,43.5483871 C47.7343646,43.5483871 48,43.158368 48,42.6774194 C48,42.1964707 47.7343646,41.8064516 47.406151,41.8064516 Z" id="Path"></path>
                            <path d="M46.5803282,44.4193548 L40.0980787,44.4193548 C39.5520302,45.1342459 39.0372599,45.7049878 38.5714286,46.1612903 L46.5803282,46.1612903 C46.8912316,46.1612903 47.1428571,45.7712712 47.1428571,45.2903226 C47.1428571,44.8093739 46.8912316,44.4193548 46.5803282,44.4193548 Z" id="Path"></path>
                            <path d="M25.4183613,44.4193548 C25.108452,44.4193548 24.8571429,44.8093739 24.8571429,45.2903226 C24.8571429,45.7712712 25.108452,46.1612903 25.4183613,46.1612903 L33.4285714,46.1612903 C32.8701019,45.6411497 32.3357664,45.0615168 31.8285367,44.4193548 L25.4183613,44.4193548 Z" id="Path"></path>
                            <path d="M25.408258,25.2580645 L30.4950507,25.2580645 C31.2708511,24.761786 31.9745707,24.1404393 32.5714286,23.516129 L25.408258,23.516129 C25.1039279,23.516129 24.8571429,23.9061481 24.8571429,24.3870968 C24.8571429,24.8680454 25.1039279,25.2580645 25.408258,25.2580645 Z" id="Path"></path>
                            <path d="M46.5945514,23.516129 L39.4285714,23.516129 C40.1631946,24.2284949 40.9444191,24.8047256 41.6903328,25.2580645 L46.5945514,25.2580645 C46.8975937,25.2580645 47.1428571,24.8680454 47.1428571,24.3870968 C47.1428571,23.9061481 46.8975937,23.516129 46.5945514,23.516129 Z" id="Path"></path>
                        </g>
                    </g>
                    <path d="M47.8867886,26.4331519 C48.0439657,26.4025866 48.2010977,26.3676791 48.3581515,26.3283488 L48.6314615,26.259905 L48.7144874,25.990666 C48.7130183,25.99543 48.7074957,26.0078297 48.6638295,26.0576523 C48.4475086,26.3044716 48.0543633,26.2506616 47.8993248,25.9872425 C47.8664026,25.9313059 47.8778048,26.0076953 47.8821417,26.1025848 C47.886458,26.1970238 47.888012,26.3079609 47.8867886,26.4331519 Z M36.4460665,47.7455813 C36.3819447,47.7710519 36.3175509,47.7960222 36.2528848,47.8204895 L36.63586,47.8325593 C36.5723326,47.8038288 36.5090681,47.7748362 36.4460665,47.7455813 Z M25.1252056,26.3112218 C25.1237081,26.156022 25.1229593,26.0000569 25.1229593,25.8433262 L24.6508117,26.3425498 C24.8097968,26.3336798 24.9679284,26.3232371 25.1252056,26.3112218 Z" id="Path-3" stroke="#FFFFFF" fill="#99E5EA"></path>
                    <path d="M43.9960329,46.5289865 L43.9955561,46.5295061 C42.4949608,48.1637746 40.9302972,49.3991689 39.3868087,50.2885612 C38.4033057,50.8552775 37.5474217,51.2112614 37.0759581,51.3382553 C36.8691706,51.396561 36.6568305,51.4252772 36.4442262,51.4252772 C36.145226,51.4252772 35.8488544,51.3688591 35.5725518,51.2585198 C29.5211782,48.8572652 25.1330313,43.4323968 23.1660847,35.8779941 C22.5270378,33.4243279 22.1583843,30.9421739 21.9999826,28.546202 C21.9023342,27.069179 21.898982,25.8872241 21.9329449,25.2047629 C21.9909389,23.9312722 23.0288003,22.9082644 24.3059743,22.9082644 C24.3670542,22.9088327 24.3670542,22.9088327 24.4176927,22.9109139 C24.550947,22.9169959 24.6846834,22.9199883 24.8206622,22.9199883 C27.1380085,22.9199883 29.4887507,22.0425439 31.735381,20.5597975 C32.5403133,20.0285528 33.2733315,19.4569505 33.9175398,18.8854288 C34.3016079,18.5446955 34.5740823,18.27658 34.6916069,18.1501462 C35.1359558,17.6658296 35.7684715,17.3811744 36.42593,17.3811744 C36.4355083,17.3811673 36.4355083,17.3811673 36.4556436,17.3813071 C36.4810177,17.381653 36.4810177,17.381653 36.4876502,17.3819496 C37.1675237,17.3974031 37.805891,17.7045213 38.2444366,18.2228443 C39.2718788,19.4358954 40.7355567,20.4798049 42.5282041,21.3492147 C43.9140473,22.0213299 45.4118411,22.5501393 46.9128916,22.9477501 C47.4415758,23.0877924 47.9326134,23.2011893 48.3727394,23.2900138 C48.6351856,23.3429796 48.8145089,23.374647 48.9067706,23.389069 C50.1010163,23.5661774 50.963976,24.6145181 50.9409271,25.816278 C50.7680133,35.2526637 48.1239865,42.0290695 43.9960329,46.5289865 Z M36.4681986,46.6916538 C36.8146681,46.5248165 37.211099,46.3045933 37.6462427,46.0241968 C38.6517759,45.3762545 39.6713659,44.5253745 40.6648284,43.4432871 C43.793839,40.0325978 45.9269788,34.8580123 46.344573,27.5041967 C42.7145659,26.6444275 39.1265365,25.1449877 36.3872476,22.7730685 C33.5981147,25.1548372 30.2315177,26.9595695 26.4721336,27.3793528 C26.5584026,29.6201971 26.8804809,32.1578232 27.5493125,34.7255313 C29.0526271,40.4990248 32.2101846,44.6899754 36.4681986,46.6916538 Z" id="Shape" stroke="#FFFFFF" stroke-width="3" fill="#333740" fill-rule="nonzero"></path>
                    <path d="M41.3065872,30.6138945 C41.0210082,30.2995375 40.5613591,30.3010664 40.2772451,30.6162339 L34.9765824,36.5045944 L32.5585507,34.0261625 C32.2644613,33.7243562 31.8037967,33.7435875 31.5306572,34.0693777 C31.2575177,34.3954871 31.2749103,34.9047791 31.5697183,35.2065854 L34.5024626,38.2128959 C34.6423414,38.3563141 34.8196081,38.4274614 34.9968054,38.4274614 C35.1836729,38.4274614 35.3704711,38.3481046 35.5121701,38.1905208 L41.3087016,31.7519864 C41.5920885,31.4372242 41.5907067,30.927533 41.3065872,30.6138945 Z" id="Path" fill="#333740"></path>
                </g>
            </g>
        </g>
    </g>
</svg>