<?xml version="1.0" encoding="UTF-8"?>
<svg width="60px" height="65px" viewBox="0 0 60 65" version="1.1" xmlns="http://www.w3.org/2000/svg" xmlns:xlink="http://www.w3.org/1999/xlink">
    <!-- Generator: Sketch 61.2 (89653) - https://sketch.com -->
    <title>Group 9</title>
    <desc>Created with Sketch.</desc>
    <g id="DSK-Siniestros" stroke="none" stroke-width="1" fill="none" fill-rule="evenodd">
        <g id="9.1-Claims-Third-cases-docs" transform="translate(-827.000000, -1248.000000)">
            <g id="Group-9" transform="translate(827.000000, 1248.000000)">
                <rect id="BLUE-" fill="#99E5EA" opacity="0.364583333" x="10" y="24" width="30" height="13"></rect>
                <path d="M11.343683,36.2623614 L38.9109093,36.2623614 L38.9109093,24.6194346 L11.343683,24.6194346 L11.343683,36.2623614 Z M41.2324686,23.4899335 C41.2324686,22.8957816 40.7255948,22.4143348 40.1000636,22.4143348 L10.153239,22.4143348 C9.52899756,22.4143348 9.02212379,22.8957816 9.02212379,23.4899335 L9.02212379,37.3918625 C9.02212379,37.9860144 9.52899756,38.4674612 10.153239,38.4674612 L40.1000636,38.4674612 C40.7255948,38.4674612 41.2324686,37.9860144 41.2324686,37.3918625 L41.2324686,23.4899335 Z" id="Fill-3022" fill="#FFFFFF"></path>
                <g id="noun_Cashback_2654629-2">
                    <g id="noun_Cashback_2654629">
                        <g id="Group">
                            <path d="M29.9509804,4.75880695 L23.8614147,4.75880695 L26.8221067,1.78005314 C27.2223562,1.37751884 27.2223562,0.724948805 26.8221067,0.32318864 C26.4218572,-0.0793456585 25.7737608,-0.0793456585 25.3735113,0.32318864 L20.6641329,5.06022384 C20.5695066,5.15529355 20.4945561,5.26928041 20.4425044,5.39550779 C20.3388821,5.64733365 20.3388821,5.93094616 20.4425044,6.18277202 C20.494556,6.3089994 20.5695066,6.42298634 20.6641329,6.51805597 L25.3735113,11.2543171 C25.573636,11.4555842 25.8353377,11.5562179 26.097809,11.5562179 C26.3602803,11.5562179 26.621982,11.4555843 26.8221067,11.2543171 C27.2223562,10.8517828 27.2223562,10.1999869 26.8221067,9.79745262 L23.8616072,6.81947294 L29.9509804,6.81947294 C45.329799,6.81947294 57.8414454,19.4025403 57.8414454,34.8683725 C57.8414454,50.3349789 45.329799,62.9180462 29.9509804,62.9180462 C14.5721618,62.9180462 2.06051537,50.3349788 2.06051537,34.8683725 C2.06051537,29.8142447 3.41212729,24.8599764 5.96910602,20.5404738 C6.25851722,20.0512398 6.09918714,19.4187965 5.61273002,19.1277332 C5.12473349,18.8366699 4.49741927,18.9969095 4.20800807,19.4861435 C1.46245025,24.1245772 0.01154563,29.4434486 0.01154563,34.8683724 C0.01154563,51.471364 13.4422266,64.9787121 29.9509804,64.9787121 C46.4597342,64.9787121 59.8904152,51.4713641 59.8904152,34.8683725 C59.8904152,18.2661549 46.4597342,4.75880695 29.9509804,4.75880695 Z" id="Path" fill="#FFFFFF"></path>
                            <path d="M9.26115841,15.5846572 C9.52747827,15.5846572 9.79302847,15.4809272 9.99392294,15.2742413 C10.6966688,14.5512278 11.4425183,13.8615007 12.2106896,13.2244128 C12.6471155,12.862132 12.7094621,12.2126583 12.3492375,11.7737412 C11.9890129,11.335598 11.3439954,11.2705733 10.9067997,11.6344024 C10.0824397,12.3179366 9.28271027,13.0579804 8.52839388,13.8344071 C8.13276263,14.240812 8.14045972,14.893382 8.54532754,15.2912716 C8.7446826,15.4871201 9.00253564,15.5846572 9.26115841,15.5846572 Z" id="Path" fill="#FFFFFF"></path>
                            <polygon id="Fill-3020" fill="#FFFFFF" points="13.5504059 29.512306 26.5105348 29.512306 26.5105348 27.5277162 13.5504059 27.5277162"></polygon>
                            <polygon id="Fill-3021" fill="#FFFFFF" points="13.5504059 33.1874723 19.2589579 33.1874723 19.2589579 31.2028825 13.5504059 31.2028825"></polygon>
                            <g id="Group-3026" transform="translate(19.670021, 25.195122)">
                                <path d="M12.5532504,2.94818459 C12.7054415,2.8048531 12.8989047,2.71787417 13.1078451,2.692148 L13.1039758,4.50768016 C12.8950355,4.48072894 12.7015722,4.39375 12.5506708,4.24919346 C12.3675256,4.07523559 12.2682145,3.84370011 12.2682145,3.59868902 C12.2682145,3.35245288 12.3701051,3.12091741 12.5532504,2.94818459 L12.5532504,2.94818459 Z M14.5523708,5.90424335 C14.8000038,5.91159368 15.03087,6.00469789 15.2062767,6.17253049 C15.3881321,6.34648836 15.488733,6.57802384 15.4874433,6.82425998 C15.4874433,7.06927106 15.3868424,7.30080654 15.2024074,7.47353936 C15.0270007,7.6401469 14.7948448,7.73202605 14.5472118,7.73937639 L14.5523708,5.90424335 Z M13.1013963,5.88586752 L13.0962373,7.73937639 L11.5820647,7.73570122 L11.5794852,9.11388858 L13.0936578,9.11756375 L13.0910782,10.1355848 L14.5420528,10.13926 L14.5446323,9.11756375 C15.1791918,9.11143847 15.7763484,8.87622783 16.226473,8.44990854 C16.6856258,8.01746397 16.9384376,7.44046286 16.9384376,6.82671009 C16.9409973,6.21295732 16.6907848,5.63473115 16.2342115,5.19983647 C15.7853767,4.77229213 15.1895099,4.53463137 14.5549503,4.52605599 L14.5588196,2.68234756 L16.2161549,2.68602273 L16.2187344,1.30783537 L14.5613991,1.3041602 L14.5639786,0.599753326 L13.1130041,0.597303215 L13.1104246,1.31396064 C12.5145577,1.34581208 11.9560937,1.56754712 11.5291848,1.97181541 C11.0713217,2.40425998 10.8185297,2.98126109 10.817235,3.59501386 C10.8159502,4.20876663 11.0661627,4.78699279 11.522736,5.22188747 C11.9470654,5.62738082 12.5042397,5.85524113 13.1013963,5.88586752 L13.1013963,5.88586752 Z" id="Fill-3024" fill="#FFFFFF"></path>
                                <polyline id="Path-2" stroke="#6FD0D6" stroke-width="4" points="28.4553278 7 28.4553278 20.0400391 0 20.0400391"></polyline>
                            </g>
                        </g>
                    </g>
                </g>
                <path d="M48.5155869,45.5409313 L20.0274754,45.5409313 L20.0274754,43.3591075 L45.2241317,43.3591075 C45.8406347,43.3591075 46.3423494,42.882561 46.3423494,42.2969845 L46.3423494,32.5479933 L48.5155869,32.5479933 L48.5155869,45.5409313 Z M49.6338046,30.4249723 L46.3423494,30.4249723 L46.3423494,27.6771729 C46.3423494,27.0915965 45.8406347,26.6150499 45.2241317,26.6150499 L42.8935442,26.6150499 L42.8935442,28.738071 L44.105914,28.738071 L44.105914,41.2348614 L16.1401534,41.2348614 L16.1401534,40.0502328 L13.903718,40.0502328 L13.903718,42.2969845 C13.903718,42.882561 14.4054328,43.3591075 15.0219357,43.3591075 L17.79104,43.3591075 L17.79104,46.6030543 C17.79104,47.1886308 18.2927547,47.6651774 18.9092577,47.6651774 L49.6338046,47.6651774 C50.2503075,47.6651774 50.7520223,47.1886308 50.7520223,46.6030543 L50.7520223,31.4858703 C50.7520223,30.9002938 50.2503075,30.4249723 49.6338046,30.4249723 L49.6338046,30.4249723 Z" id="Fill-3025" fill="#FFFFFF"></path>
            </g>
        </g>
    </g>
</svg>