<?xml version="1.0" encoding="UTF-8"?>
<svg width="62px" height="53px" viewBox="0 0 62 53" version="1.1" xmlns="http://www.w3.org/2000/svg" xmlns:xlink="http://www.w3.org/1999/xlink">
    <!-- Generator: Sketch 61.2 (89653) - https://sketch.com -->
    <title>Group 39</title>
    <desc>Created with Sketch.</desc>
    <g id="DSK-Siniestros" stroke="none" stroke-width="1" fill="none" fill-rule="evenodd">
        <g id="7.2-Claims-Insured-Thanks-email-modal" transform="translate(-652.000000, -1015.000000)">
            <g id="Group-17" transform="translate(386.000000, 901.000000)">
                <g id="Group-13" transform="translate(226.000000, 70.000000)">
                    <g id="Group-39" transform="translate(40.000000, 46.000000)">
                        <g id="Group-11">
                            <g id="Group-28">
                                <g id="Group-27">
                                    <g id="noun_Email_199740" transform="translate(0.000000, 5.729730)"></g>
                                    <g id="Group-19" transform="translate(8.454545, 1.432432)"></g>
                                    <polygon id="Path-11" fill="#99E5EA" points="10.5204613 1.43243243 52.1363636 1.43243243 52.1363636 18.428708 31.3284125 32.9459459 9.86363636 17.8913978"></polygon>
                                    <g id="Group-26" transform="translate(8.454545, 0.000000)" stroke="#1A1446" stroke-linecap="round" stroke-linejoin="round" stroke-width="3">
                                        <polyline id="Path-2" points="8.02319109 0 42.1624902 0 43.6818182 0 43.6818182 15.7567568"></polyline>
                                        <polyline id="Path-2-Copy" transform="translate(17.829314, 7.878378) scale(-1, 1) translate(-17.829314, -7.878378) " points="0 0 34.1392991 0 35.6586271 0 35.6586271 15.7567568"></polyline>
                                    </g>
                                </g>
                            </g>
                            <path d="M21,8 C20.4477153,8 20,8.44771525 20,9 L20,22.9816908 C20,23.2866304 20.1391375,23.5749055 20.3778824,23.7646141 C23.9051147,26.5673864 26.7024447,28.6663443 28.7639026,30.0580832 C30.6595967,31.337911 31.9352247,32 32.2756389,32 C32.5913246,32 33.7257964,31.353589 35.3800301,30.0905552 C37.1979405,28.7025515 39.6325266,26.6061134 42.6770082,23.8055074 C42.8828554,23.6161494 42.999995,23.3492325 43,23.0695456 L43,9 C43,8.44771525 42.5522847,8 42,8 L21,8 Z" id="Rectangle" stroke="#1A1446" stroke-width="2" fill="#F0FBFC"></path>
                            <path d="M40.2017291,33.4304814 C39.4870317,32.8246359 39.4870317,31.7860437 40.1123919,31.1801982 C40.7377522,30.4878034 41.8097983,30.4878034 42.4351585,31.0936489 L52.9769452,40.1813309 C53.6916427,40.7871764 53.6916427,41.8257686 53.0662824,42.4316141 C52.7089337,42.7778115 52.2622478,42.9509102 51.815562,42.9509102 C51.4582133,42.9509102 51.0115274,42.7778115 50.7435159,42.5181634 L40.2017291,33.4304814 Z M19.6541787,31.0936489 L9.11239193,40.1813309 C8.39769452,40.7871764 8.39769452,41.8257686 9.02305476,42.4316141 C9.38040346,42.7778115 9.82708934,42.9509102 10.2737752,42.9509102 C10.6311239,42.9509102 11.0778098,42.7778115 11.3458213,42.5181634 L21.8876081,33.4304814 C22.6023055,32.8246359 22.6023055,31.7860437 21.9769452,31.1801982 C21.351585,30.4878034 20.2795389,30.4878034 19.6541787,31.0936489 Z M61.6426513,11.2738471 C61.8213256,11.7065939 62,12.1393407 62,12.6586368 L62,42.3450647 C62,47.1052791 57.9798271,51 53.0662824,51 L14.6512968,51 L8.93371758,51 C4.02017291,51 0,47.1052791 0,42.3450647 L0,12.5720874 C0,12.0527913 0.0893371758,11.6200446 0.357348703,11.1872978 C0.536023055,10.754551 0.893371758,10.4083536 1.34005764,10.1487056 L7.59365994,5.64813922 L10.8991354,16.4668083 L31,30.7474515 L51.1008646,16.4668083 L51.1008646,6.85983016 C51.1008646,6.51363275 51.1902017,6.16743534 51.4582133,5.90778728 C51.4582133,5.82123793 51.5475504,5.73468858 51.6368876,5.64813922 C52.1729107,4.9557444 53.2449568,4.7826457 53.9596542,5.30194181 L60.7492795,10.1487056 C61.1066282,10.4083536 61.3746398,10.8411004 61.6426513,11.2738471 Z M54.4063401,14.1299758 L57.5331412,11.8796926 L54.4063401,9.62940944 L54.4063401,14.1299758 Z M4.55619597,11.8796926 L7.68299712,14.1299758 L7.68299712,9.7159588 L4.55619597,11.8796926 Z M58.6051873,15.0820187 L31.9827089,34.0363269 C31.8933718,34.1228762 31.8040346,34.1228762 31.7146974,34.2094256 C31.7146974,34.2094256 31.7146974,34.2094256 31.7146974,34.2094256 C31.6253602,34.2959749 31.5360231,34.2959749 31.4466859,34.2959749 C31.4466859,34.2959749 31.3573487,34.2959749 31.3573487,34.2959749 C31.2680115,34.2959749 31.0893372,34.2959749 31,34.2959749 C31,34.2959749 31,34.2959749 31,34.2959749 C31,34.2959749 31,34.2959749 31,34.2959749 C30.9106628,34.2959749 30.7319885,34.2959749 30.6426513,34.2959749 C30.6426513,34.2959749 30.5533141,34.2959749 30.5533141,34.2959749 C30.4639769,34.2959749 30.3746398,34.2094256 30.2853026,34.2094256 C30.2853026,34.2094256 30.2853026,34.2094256 30.2853026,34.2094256 C30.1959654,34.2094256 30.1066282,34.1228762 30.0172911,34.0363269 L3.39481268,15.0820187 L3.39481268,42.4316141 C3.39481268,45.4608414 5.8962536,47.8842233 9.02305476,47.8842233 L14.740634,47.8842233 L53.1556196,47.8842233 C56.2824207,47.8842233 58.7838617,45.4608414 58.7838617,42.4316141 L58.7838617,15.0820187 L58.6051873,15.0820187 Z" id="Shape" fill="#1A1446" fill-rule="nonzero"></path>
                        </g>
                    </g>
                </g>
            </g>
        </g>
    </g>
</svg>