<svg xmlns="http://www.w3.org/2000/svg" viewBox="0 0 155.751 145">
  <g id="Group_34" data-name="Group 34" transform="translate(1 1)">
    <g id="Group_2" data-name="Group 2">
      <g id="Group">
        <circle id="Oval_2" data-name="Oval 2" cx="71.5" cy="71.5" r="71.5" fill="#fff" stroke="#79b530" stroke-width="2"/>
        <g id="Icons_Auto_Guaranteed_Auto_Repair" data-name="Icons/Auto/Guaranteed Auto Repair" transform="translate(27.862 37.9)">
          <path id="Icon_Guaranteed_Auto_Repair" d="M12.989,68.13h-.346A14,14,0,0,1,.507,60.959a1.776,1.776,0,0,1,0-1.85,1.855,1.855,0,0,1,1.619-.925l9.015-.231-.231-7.634-9.015.23a1.743,1.743,0,0,1-1.619-.809A2.105,2.105,0,0,1,.16,47.887,13.911,13.911,0,0,1,12.3,40.138c.111,0,.225,0,.336,0a13.877,13.877,0,0,1,11.8,6.483H64.191A13.82,13.82,0,0,1,75.98,39.559c.1,0,.207,0,.31,0a13.862,13.862,0,0,1,7.057,1.93,14.19,14.19,0,0,1,5.117,5.245,1.776,1.776,0,0,1,0,1.852,1.855,1.855,0,0,1-1.619.925l-9.015.231.231,7.634,9.015-.232a1.527,1.527,0,0,1,1.618.811,1.771,1.771,0,0,1,.117,1.85,13.905,13.905,0,0,1-12.136,7.75c-.1,0-.214,0-.342,0a13.87,13.87,0,0,1-11.793-6.481H24.779A13.812,13.812,0,0,1,12.989,68.13ZM12.7,46.72a1.617,1.617,0,0,1,1.558,1.631l.232,10.988a1.654,1.654,0,0,1-.463,1.157,1.425,1.425,0,0,1-1.156.579l-7.743.231a10.6,10.6,0,0,0,7.484,3.246c.133,0,.259,0,.374-.007a10.275,10.275,0,0,0,9.362-6.014,1.552,1.552,0,0,1,1.5-.925H65.578a1.655,1.655,0,0,1,1.5.925A10.419,10.419,0,0,0,76.37,64.2c.114,0,.213,0,.3,0A10.449,10.449,0,0,0,84.3,60.5l-7.746.232a1.681,1.681,0,0,1-1.733-1.62L74.593,48.12a1.665,1.665,0,0,1,.463-1.158,1.425,1.425,0,0,1,1.156-.578l7.743-.116a10.594,10.594,0,0,0-7.484-3.247c-.133,0-.259,0-.374.007a10.276,10.276,0,0,0-9.363,6.014,1.549,1.549,0,0,1-1.5.925H23.507a1.652,1.652,0,0,1-1.5-.925,10.417,10.417,0,0,0-9.286-5.671c-.115,0-.215,0-.307,0a10.859,10.859,0,0,0-7.629,3.585l7.744-.232A1.4,1.4,0,0,1,12.7,46.72Zm45.942-6H29.517v-3.7H58.644v3.7Zm-33.056-3.7H11.371V27.067a5.944,5.944,0,0,1,1.5-4.164H12.18a3.677,3.677,0,0,1-3.7-3.818V15.153a3.661,3.661,0,0,1,3.7-3.7h7.975l2.2-6.709A6.982,6.982,0,0,1,28.939,0H59.453a6.929,6.929,0,0,1,6.472,4.626l2.542,6.941h7.975a3.661,3.661,0,0,1,3.7,3.7V19.2a3.661,3.661,0,0,1-3.7,3.7H76.1a6.315,6.315,0,0,1,1.618,4.164v9.947H63.151A3.541,3.541,0,0,1,61.186,34.7l-1.156-3.47v-.116a4.281,4.281,0,0,1,.809-3.47,4.039,4.039,0,0,1,3.236-1.62h9.708a5.028,5.028,0,0,1-.346-.4,5.026,5.026,0,0,0-.346-.4l-4.508-3.933H20.271l-4.507,3.933a2.07,2.07,0,0,0-.578.81h9.477a4.226,4.226,0,0,1,4.045,5.09v.116L27.552,34.7a3.944,3.944,0,0,1-1.965,2.314ZM14.839,29.844v3.932h9.015l1.156-3.47a.427.427,0,0,0-.115-.347.194.194,0,0,0-.059-.136.387.387,0,0,0-.287-.1v.116Zm49.237-.232c-.114,0-.231.116-.343.229a.429.429,0,0,0-.119.35l1.156,3.47h9.247V29.612Zm5.779-14.458L70.9,18.16,72.051,19.2h4.392V15.269Zm-57.675.116L12.064,19.2H16.8l1.156-.924L19,15.269ZM28.939,3.7a3.143,3.143,0,0,0-3.121,2.2l-3.7,11.567H66.734L62.457,5.9a3.1,3.1,0,0,0-3-2.2Z" transform="translate(0)" fill="#006729"/>
        </g>
        <g id="Group_32" data-name="Group 32" transform="translate(126 56)">
          <g id="Group_35" data-name="Group 35">
            <ellipse id="Oval" cx="13.751" cy="13.603" rx="13.751" ry="13.603" transform="translate(0 0)" fill="#79b530" stroke="#79b530" stroke-width="2.5"/>
            <g id="Group_6" data-name="Group 6" transform="translate(5.598 8.848)">
              <g id="Mask" transform="translate(0.62 0.175)">
                <path id="path-3" d="M4.776,8.6.824,4.76,0,5.591l4.774,4.638,9.7-9.4L13.646,0Z" fill="#fff" stroke="#fff" stroke-width="1"/>
              </g>
            </g>
          </g>
        </g>
      </g>
    </g>
  </g>
</svg>
