<?xml version="1.0" encoding="UTF-8"?>
<svg viewBox="0 0 20 21" version="1.1" xmlns="http://www.w3.org/2000/svg" xmlns:xlink="http://www.w3.org/1999/xlink">
    <defs>
        <path d="M3.68605112,2.206 C4.01805112,2.27333333 4.31338445,2.43533333 4.55871778,2.686 L7.16938445,5.32466667 C7.34805112,5.51333333 7.47405112,5.71066667 7.55605112,5.92466667 C7.67405112,6.236 7.70405112,6.558 7.64338445,6.88266667 C7.58205112,7.22133333 7.42405112,7.522 7.17538445,7.772 L5.99471778,8.978 C5.94271778,9.03 5.93071778,9.066 5.92538445,9.09733333 C5.91405112,9.164 5.91938445,9.21666667 5.94138445,9.27533333 C5.95138445,9.30133333 5.99671778,9.37266667 6.04205112,9.41933333 L10.4247178,13.8686667 C10.4700511,13.9146667 10.5133844,13.9446667 10.5433844,13.95 C10.5633844,13.9533333 10.5793844,13.9553333 10.5947178,13.9553333 C10.6287178,13.9553333 10.6627178,13.9473333 10.7000511,13.9326667 C10.7253844,13.924 10.7527178,13.904 10.7827178,13.8733333 L11.9607178,12.6733333 C12.1460511,12.49 12.3460511,12.36 12.5647178,12.2766667 C12.8660511,12.1613333 13.1913844,12.1346667 13.5193844,12.2026667 C13.8553844,12.27 14.1487178,12.4286667 14.3940511,12.674 L17.0080511,15.322 C17.1793844,15.498 17.3093844,15.7 17.3953844,15.9246667 C17.5127178,16.23 17.5413844,16.5473333 17.4833844,16.8706667 C17.4200511,17.206 17.2680511,17.4993333 17.0327178,17.7493333 L16.4187178,18.3846667 C16.1300511,18.6766667 15.8280511,18.9226667 15.5140511,19.1206667 C15.2100511,19.3173333 14.8767178,19.4853333 14.5287178,19.618 C13.9747178,19.8286667 13.3827178,19.9486667 12.7707178,19.9706667 C12.6953844,19.9733333 12.6207178,19.9746667 12.5467178,19.9746667 C12.0220511,19.9746667 11.4880511,19.908 10.9607178,19.7786667 C10.3633844,19.6313333 9.76538445,19.4033333 9.18271778,19.1 C8.61205112,18.8013333 8.05738445,18.4353333 7.53405112,18.0086667 C7.23071778,17.79 6.89938445,17.5306667 6.55005112,17.24 C6.25471778,16.9966667 5.91271778,16.7 5.50405112,16.334 C5.11005112,15.9846667 4.69471778,15.584 4.23405112,15.1126667 C3.77871778,14.652 3.40871778,14.2533333 3.11005112,13.898 C2.81338445,13.5453333 2.57138445,13.2433333 2.38805112,13 C2.17271778,12.7133333 2.00605112,12.4666667 1.87738445,12.2453333 C1.58871778,11.8613333 1.33338445,11.47 1.11938445,11.0826667 C0.890717782,10.6686667 0.692717782,10.2453333 0.532717782,9.824 C0.317384449,9.26266667 0.164051115,8.68866667 0.0760511154,8.11733333 C-0.0132822179,7.52266667 -0.0232822179,6.944 0.0427177821,6.394 C0.108051115,5.81933333 0.262717782,5.26333333 0.502717782,4.74533333 C0.744717782,4.214 1.08871778,3.72066667 1.52205112,3.28333333 L2.11605112,2.676 C2.12471778,2.66733333 2.13338445,2.658 2.14271778,2.65 C2.32005112,2.48466667 2.51538445,2.36 2.72538445,2.28 C3.03138445,2.16266667 3.35871778,2.13733333 3.68605112,2.206 Z M3.32671778,3.79733333 C3.30405112,3.80266667 3.28605112,3.812 3.26405112,3.83133333 L2.68338445,4.42666667 C2.37605112,4.736 2.14871778,5.06 1.98271778,5.42466667 C1.81405112,5.78866667 1.70671778,6.17733333 1.66005112,6.584 C1.61071778,6.994 1.61938445,7.42666667 1.68671778,7.87333333 C1.75605112,8.32666667 1.88005112,8.78866667 2.05405112,9.24266667 C2.18738445,9.59333333 2.35271778,9.94733333 2.54538445,10.2946667 C2.72871778,10.628 2.95138445,10.9666667 3.20671778,11.3026667 C3.22738445,11.3313333 3.24805112,11.3613333 3.26605112,11.3926667 C3.36471778,11.566 3.50338445,11.7713333 3.69071778,12.0213333 C3.85538445,12.2413333 4.08071778,12.52 4.35671778,12.8493333 C4.62738445,13.1706667 4.96738445,13.5373333 5.39538445,13.9706667 C5.83338445,14.4186667 6.22138445,14.7926667 6.58738445,15.118 C6.98271778,15.472 7.31005112,15.7546667 7.58938445,15.9866667 C7.92005112,16.2606667 8.22738445,16.5006667 8.50671778,16.7013333 C8.52005112,16.7113333 8.53338445,16.722 8.54671778,16.7326667 C8.98938445,17.0946667 9.45671778,17.4053333 9.93471778,17.6553333 C10.4027178,17.898 10.8793844,18.08 11.3507178,18.1973333 C11.8067178,18.3093333 12.2647178,18.3573333 12.7120511,18.3433333 C13.1493844,18.326 13.5547178,18.2453333 13.9480511,18.096 C14.1913844,18.0026667 14.4233844,17.8853333 14.6380511,17.748 C14.8547178,17.61 15.0547178,17.4473333 15.2540511,17.2453333 L15.8540511,16.6246667 C15.8767178,16.6 15.8800511,16.584 15.8820511,16.5733333 C15.8867178,16.548 15.8827178,16.528 15.8740511,16.5073333 C15.8680511,16.49 15.8607178,16.4786667 15.8460511,16.464 L13.2380511,13.8213333 C13.2200511,13.8033333 13.2107178,13.8013333 13.1967178,13.7986667 C13.1807178,13.7953333 13.1707178,13.7946667 13.1647178,13.7946667 C13.1400511,13.8006667 13.1280511,13.8093333 13.1133844,13.8233333 L11.9373844,15.0226667 C11.7367178,15.222 11.5180511,15.3653333 11.2813844,15.4553333 C11.0587178,15.54 10.8273844,15.584 10.5947178,15.584 C10.4827178,15.584 10.3693844,15.5733333 10.2573844,15.5526667 C9.89071778,15.4886667 9.55538445,15.3066667 9.26471778,15.0126667 L4.87605112,10.5566667 C4.77871778,10.4566667 4.54938445,10.1966667 4.41938445,9.85666667 C4.29005112,9.51733333 4.25738445,9.168 4.32138445,8.81533333 C4.38405112,8.44933333 4.55605112,8.11733333 4.83205112,7.83666667 L6.01538445,6.62733333 C6.03805112,6.60466667 6.03938445,6.59866667 6.04138445,6.58733333 C6.04671778,6.56 6.04671778,6.53933333 6.03338445,6.50533333 C6.02871778,6.49 6.00938445,6.47 5.99938445,6.45866667 L3.39605112,3.828 C3.37338445,3.80466667 3.36605112,3.80333333 3.35671778,3.80133333 L3.32671778,3.79733333 Z M9.99978445,0 C15.5157844,0 20.0024511,4.48733333 20.0024511,10.0026667 L18.3357844,10.0026667 C18.3357844,5.406 14.5964511,1.66666667 9.99978445,1.66666667 L9.99978445,0 Z M9.99965112,2.49533333 C14.1396511,2.49533333 17.5076511,5.86333333 17.5076511,10.0026667 L15.8409844,10.0026667 C15.8409844,6.782 13.2203178,4.162 9.99965112,4.162 L9.99965112,2.49533333 Z" id="path-1"></path>
    </defs>
    <g id="DSK-Siniestros" stroke="none" stroke-width="1" fill="none" fill-rule="evenodd">
        <g id="Claims-Insured-stp3.3" transform="translate(-288.000000, -1362.000000)">
            <g id="Group-7" transform="translate(288.000000, 1268.000000)">
                <g id="Elements-/-Icon-/-Glyph-/-Call-Outline" transform="translate(0.000000, 94.492147)">
                    <mask id="mask-2" fill="white">
                        <use xlink:href="#path-1"></use>
                    </mask>
                    <use id="Mask" fill="#006729" fill-rule="evenodd" xlink:href="#path-1"></use>
                    <g id="Elements-/-Color-/-Secundario-/-Blue-1" mask="url(#mask-2)" fill="#006729" fill-rule="evenodd">
                        <rect id="Rectangle" x="0" y="0" width="20" height="20"></rect>
                    </g>
                </g>
            </g>
        </g>
    </g>
</svg>
