<svg xmlns="http://www.w3.org/2000/svg" width="96" height="96" viewBox="0 0 96 96">
  <g id="Grupo_28765" data-name="Grupo 28765" transform="translate(-517 -933)">
    <g id="Grupo_28764" data-name="Grupo 28764" transform="translate(219)">
      <g id="Elipse_425" data-name="Elipse 425" transform="translate(298 933)" fill="#fff" stroke="#65a518" stroke-width="1">
        <circle cx="48" cy="48" r="48" stroke="none"/>
        <circle cx="48" cy="48" r="47.5" fill="none"/>
      </g>
    </g>
    <g id="Grupo_28820" data-name="Grupo 28820" transform="translate(48 6)">
      <path id="Elipse_426" data-name="Elipse 426" d="M28,3a25.007,25.007,0,0,0-9.73,48.037A25.007,25.007,0,0,0,37.73,4.963,24.841,24.841,0,0,0,28,3m0-3A28,28,0,1,1,0,28,28,28,0,0,1,28,0Z" transform="translate(489 947)" fill="#006729"/>
      <path id="Trazado_15816" data-name="Trazado 15816" d="M-10300.933-18912.348l-1.112-.963-9.5-8.225,1.963-2.27,8.393,7.262,16.669-18.521,2.23,2.008Z" transform="translate(10814.067 19899.561)" fill="#006729"/>
    </g>
  </g>
</svg>
