<?xml version="1.0" encoding="UTF-8"?>
<svg width="20px" height="21px" viewBox="0 0 20 21" version="1.1" xmlns="http://www.w3.org/2000/svg" xmlns:xlink="http://www.w3.org/1999/xlink">
    <!-- Generator: Sketch 61.2 (89653) - https://sketch.com -->
    <title>icon</title>
    <desc>Created with Sketch.</desc>
    <defs>
        <path d="M1.60130719,18.2617801 L1.60130719,3.51832461 C1.60130719,3.42584293 1.67304575,3.35078534 1.76143791,3.35078534 L4.80392157,3.35078534 L4.80392157,4.18848168 C4.80392157,4.65089005 5.16261438,5.02617801 5.60457516,5.02617801 C6.04653595,5.02617801 6.40522876,4.65089005 6.40522876,4.18848168 L6.40522876,3.35078534 L8.80718954,3.35078534 L8.80718954,4.18848168 C8.80718954,4.65089005 9.16588235,5.02617801 9.60784314,5.02617801 C10.0498039,5.02617801 10.4084967,4.65089005 10.4084967,4.18848168 L10.4084967,3.35078534 L12.8104575,3.35078534 L12.8104575,4.18848168 C12.8104575,4.65089005 13.1691503,5.02617801 13.6111111,5.02617801 C14.0530719,5.02617801 14.4117647,4.65089005 14.4117647,4.18848168 L14.4117647,3.35078534 L17.4542484,3.35078534 C17.5426405,3.35078534 17.6143791,3.42584293 17.6143791,3.51832461 L17.6143791,15.078534 L16.1732026,15.078534 C15.2015294,15.078534 14.4117647,15.9048377 14.4117647,16.921466 L14.4117647,18.4293194 L1.76143791,18.4293194 C1.67304575,18.4293194 1.60130719,18.3542618 1.60130719,18.2617801 L1.60130719,18.2617801 Z M13.6111111,0 C14.0530719,0 14.4117647,0.375287958 14.4117647,0.837696335 L14.4117647,0.837696335 L14.4117647,1.67539267 L17.4542484,1.67539267 C18.4259216,1.67539267 19.2156863,2.50169634 19.2156863,3.51832461 L19.2156863,3.51832461 L19.2156863,15.9162304 C19.2156863,16.0281466 19.1939085,16.1373822 19.1535556,16.2379058 C19.1132026,16.3404398 19.0542745,16.4322513 18.9806144,16.5093194 L18.9806144,16.5093194 L15.779281,19.8587644 C15.7056209,19.9358325 15.6178693,19.9974869 15.5198693,20.0397068 C15.4237908,20.0819267 15.3193856,20.104712 15.2124183,20.104712 L15.2124183,20.104712 L1.76143791,20.104712 C0.789764706,20.104712 0,19.2784084 0,18.2617801 L0,18.2617801 L0,3.51832461 C0,2.50169634 0.789764706,1.67539267 1.76143791,1.67539267 L1.76143791,1.67539267 L4.80392157,1.67539267 L4.80392157,0.837696335 C4.80392157,0.375287958 5.16261438,0 5.60457516,0 C6.04653595,0 6.40522876,0.375287958 6.40522876,0.837696335 L6.40522876,0.837696335 L6.40522876,1.67539267 L8.80718954,1.67539267 L8.80718954,0.837696335 C8.80718954,0.375287958 9.16588235,0 9.60784314,0 C10.0498039,0 10.4084967,0.375287958 10.4084967,0.837696335 L10.4084967,0.837696335 L10.4084967,1.67539267 L12.8104575,1.67539267 L12.8104575,0.837696335 C12.8104575,0.375287958 13.1691503,0 13.6111111,0 Z M7.63817124,7.50817173 C7.29356993,7.50817173 6.98355686,7.57652775 6.70492941,7.71189948 C6.42822353,7.8472712 6.2117268,8.03357487 6.05543922,8.27081047 C5.90043268,8.50670576 5.78577908,8.82369005 5.70763529,9.22042304 L6.81573987,9.41677906 C6.84712549,9.13062199 6.9342366,8.9134911 7.07963529,8.76404607 C7.22567451,8.6152712 7.39925621,8.54088377 7.60422353,8.54088377 C7.81175294,8.54088377 7.97828889,8.60588901 8.10383137,8.73790995 C8.2306549,8.86859058 8.29278562,9.04417173 8.29278562,9.2646534 C8.29278562,9.52400419 8.20695556,9.73108272 8.03657647,9.88856963 C7.86555686,10.0440461 7.61895556,10.1184335 7.29356993,10.1090513 L7.16034118,11.1330513 C7.37491634,11.0700565 7.55810588,11.0385592 7.71119085,11.0385592 C7.94434118,11.0385592 8.14354379,11.1303707 8.30495556,11.3160042 C8.46828889,11.5009675 8.54835425,11.7516063 8.54835425,12.0659099 C8.54835425,12.398978 8.46380523,12.6657005 8.29406667,12.8620565 C8.12496863,13.0584126 7.91679869,13.1562555 7.66955686,13.1562555 C7.4383281,13.1562555 7.2423281,13.0751665 7.07963529,12.910978 C6.91822353,12.7474597 6.81766144,12.5095539 6.78179216,12.1999414 L5.61924314,12.3473759 C5.67881176,12.8989152 5.89402745,13.3452398 6.26809281,13.6856796 C6.64151765,14.0281298 7.11102092,14.1983497 7.67660261,14.1983497 C8.27485098,14.1983497 8.77509935,13.9952921 9.17606667,13.5911874 C9.57831503,13.1850723 9.77879869,12.6951874 9.77879869,12.1201927 C9.77879869,11.7234597 9.67183137,11.3863707 9.45661569,11.1069152 C9.2414,10.8267895 8.95508627,10.6458471 8.59511242,10.5654283 C9.19592288,10.2223079 9.49760915,9.76325026 9.49760915,9.18892565 C9.49760915,8.78348063 9.35028889,8.41958534 9.05692941,8.0985801 C8.70079869,7.70519791 8.22873333,7.50817173 7.63817124,7.50817173 Z M13.5959307,7.50850681 L12.6223359,7.50850681 C12.4859046,7.90792042 12.2335386,8.25707225 11.8671595,8.55663246 C11.4994993,8.85552251 11.1593817,9.05925026 10.8455255,9.16647539 L10.8455255,10.3057424 C11.4405712,10.1000042 11.9581137,9.7830199 12.3968719,9.35411937 L12.3968719,14.0860984 L13.5959307,14.0860984 L13.5959307,7.50850681 Z" id="path-1"></path>
    </defs>
    <g id="DSK-Siniestros" stroke="none" stroke-width="1" fill="none" fill-rule="evenodd">
        <g id="5.5-Claims-Insured-asigned" transform="translate(-561.000000, -1648.000000)">
            <g id="Group-3" transform="translate(386.000000, 1228.000000)">
                <g id="Group-30" transform="translate(175.000000, 348.000000)">
                    <g id="Group-31">
                        <g id="Elements-/-Icon-/-Glyph-/-Calendar" transform="translate(0.000000, 72.000000)">
                            <mask id="mask-2" fill="white">
                                <use xlink:href="#path-1"></use>
                            </mask>
                            <use id="Mask" fill="#1A1446" fill-rule="evenodd" xlink:href="#path-1"></use>
                            <g id="Elements-/-Color-/-Secundario-/-Blue-1" mask="url(#mask-2)" fill="#1A1446" fill-rule="evenodd">
                                <rect id="Rectangle" x="0" y="0" width="19.2156863" height="20.104712"></rect>
                            </g>
                        </g>
                    </g>
                </g>
            </g>
        </g>
    </g>
</svg>