<?xml version="1.0" encoding="UTF-8"?>
<svg width="156px" height="143px" viewBox="0 0 156 143" version="1.1" xmlns="http://www.w3.org/2000/svg" xmlns:xlink="http://www.w3.org/1999/xlink">
    <!-- Generator: Sketch 59.1 (86144) - https://sketch.com -->
    <title>Group 34</title>
    <desc>Created with Sketch.</desc>
    <defs>
        <path d="M12.1791667,2.00570833 C6.5675,2.00570833 2.00416667,6.56904167 2.00416667,12.1807083 C2.00416667,17.7908333 6.5675,22.3541667 12.1791667,22.3541667 C17.7908333,22.3541667 22.3541667,17.7908333 22.3541667,12.1807083 C22.3541667,6.56904167 17.7908333,2.00570833 12.1791667,2.00570833 M12.1791667,0 C18.8946667,0 24.3583333,5.46366667 24.3583333,12.1807083 C24.3583333,18.8962083 18.8946667,24.359875 12.1791667,24.359875 C5.46366667,24.359875 0,18.8962083 0,12.1807083 C0,5.46366667 5.46366667,0 12.1791667,0 Z M13.4522895,16.8089633 L10.918363,16.8089633 L10.918363,19.2584255 L13.4522895,19.2584255 L13.4522895,16.8089633 Z M13.5367537,4.625 L10.7916667,4.625 L11.1295235,14.7395899 L13.2200129,14.7395899 L13.5367537,4.625 Z" id="path-1"></path>
    </defs>
    <g id="DSK-Siniestros" stroke="none" stroke-width="1" fill="none" fill-rule="evenodd">
        <g id="Claims-Insured-stp3.6" transform="translate(-612.000000, -1386.000000)">
            <g id="Group-33" transform="translate(386.000000, 1317.000000)">
                <g id="Group-3">
                    <g id="Group-21" transform="translate(90.000000, 69.000000)">
                        <g id="Group-34" transform="translate(136.000000, 0.000000)">
                            <g id="Group">
                                <circle id="Oval-2" fill="#FFF5EC" fill-rule="nonzero" cx="71.5" cy="71.5" r="71.5"></circle>
                                <g id="Icons/Auto/Guaranteed-Auto-Repair" transform="translate(27.000000, 37.000000)" fill="#1A1446" fill-rule="nonzero">
                                    <path d="M76.8452308,40.36431 C82.0375385,40.25046 86.7694615,43.01046 89.3079231,47.49431 C89.6540769,48.06931 89.6540769,48.76046 89.3079231,49.33546 C88.9606154,49.91046 88.3836923,50.25546 87.6925385,50.25546 L87.6925385,50.25546 L78.6925385,50.48546 L78.9233077,58.07546 L87.9233077,57.84431 C88.6156154,57.73046 89.1925385,58.07546 89.5375385,58.65046 C89.8848462,59.22546 90.0002308,59.91431 89.6540769,60.48931 C87.3463846,65.08931 82.731,68.08046 77.5386923,68.19431 C72.5771538,68.31046 68.0771538,65.89431 65.4233077,61.75546 L65.4233077,61.75546 L25.731,61.75546 C23.3079231,66.01046 18.9233077,68.65546 13.9617692,68.76931 L13.9617692,68.76931 L13.6156154,68.76931 C8.65407692,68.76931 3.92330769,66.01046 1.50023077,61.63931 C1.15407692,61.06431 1.15407692,60.37546 1.50023077,59.80046 C1.84638462,59.22546 2.42330769,58.88046 3.11561538,58.88046 L3.11561538,58.88046 L12.1156154,58.65046 L11.8848462,51.06046 L2.88484615,51.28931 C2.19253846,51.28931 1.61561538,51.06046 1.26946154,50.48546 C0.923307692,49.91046 0.923307692,49.21931 1.15407692,48.64431 C3.46176923,44.04431 8.07715385,41.05546 13.2694615,40.93931 C18.231,40.82546 22.731,43.23931 25.3848462,47.38046 L25.3848462,47.38046 L65.0771538,47.38046 C67.5002308,43.12546 71.8848462,40.48046 76.8452308,40.36431 Z M77.2941294,43.8073006 L76.9617692,43.81431 C72.9233077,43.81431 69.3452308,46.11431 67.6144615,49.79431 C67.3848462,50.36931 66.8079231,50.71431 66.1156154,50.71431 L66.1156154,50.71431 L24.4617692,50.71431 C23.7694615,50.71431 23.3079231,50.36931 22.9617692,49.79431 C21.1156154,46.23046 17.4233077,44.04431 13.3848462,44.16046 C10.5002308,44.27546 7.731,45.53931 5.76946154,47.72546 L5.76946154,47.72546 L13.5002308,47.49431 C14.4233077,47.38046 15.231,48.18546 15.231,49.10546 L15.231,49.10546 L15.4617692,60.03046 C15.4617692,60.37546 15.3463846,60.83546 15.0002308,61.18046 C14.7694615,61.52546 14.3079231,61.75546 13.8463846,61.75546 L13.8463846,61.75546 L6.11561538,61.98546 C8.19253846,64.05546 10.9617692,65.31931 13.9617692,65.20546 C18.0002308,65.20546 21.5771538,62.90546 23.3079231,59.22546 C23.5386923,58.65046 24.1156154,58.30546 24.8079231,58.30546 L24.8079231,58.30546 L66.4606154,58.30546 C67.1540769,58.30546 67.6144615,58.65046 67.9617692,59.22546 C69.8079231,62.78931 73.5002308,64.97546 77.5386923,64.86046 C80.4233077,64.74431 83.1913846,63.48046 85.1540769,61.18046 L85.1540769,61.18046 L77.4221538,61.41046 C76.5002308,61.41046 75.6913846,60.71931 75.6913846,59.80046 L75.6913846,59.80046 L75.4617692,48.87546 C75.4617692,48.53046 75.5771538,48.06931 75.9233077,47.72546 C76.1540769,47.38046 76.6156154,47.15046 77.0771538,47.15046 L77.0771538,47.15046 L84.8079231,47.03546 C82.731,44.96431 79.9617692,43.70046 76.9617692,43.81431 Z M59.5384615,37.835 L59.5384615,41.51385 L30.4615385,41.51385 L30.4615385,37.835 L59.5384615,37.835 Z M60.3460385,1.035115 C63.2306538,1.035115 65.7691154,2.875115 66.8075769,5.635115 L66.8075769,5.635115 L69.3460385,12.535115 L77.3075769,12.535115 C79.3845,12.535115 80.9998846,14.145115 80.9998846,16.215115 L80.9998846,16.215115 L80.9998846,20.125115 C80.9998846,22.195115 79.3845,23.805115 77.3075769,23.805115 L77.3075769,23.805115 L76.9614231,23.805115 C77.9998846,24.955115 78.5768077,26.450115 78.5768077,27.945115 L78.5768077,27.945115 L78.5768077,37.835115 L64.0383462,37.835115 C63.1152692,37.375115 62.3075769,36.570115 62.0768077,35.535115 L62.0768077,35.535115 L60.9229615,32.085115 L60.9229615,31.970115 C60.6921923,30.820115 60.9229615,29.555115 61.7306538,28.520115 C62.5383462,27.485115 63.6921923,26.910115 64.9614231,26.910115 L64.9614231,26.910115 L74.6537308,26.910115 C74.4229615,26.680115 74.1921923,26.335115 73.9614231,26.105115 L73.9614231,26.105115 L69.4614231,22.195115 L21.2306538,22.195115 L16.7306538,26.105115 C16.4998846,26.335115 16.2691154,26.565115 16.1537308,26.910115 L16.1537308,26.910115 L25.6152692,26.910115 C26.8845,26.910115 28.0383462,27.485115 28.8460385,28.520115 C29.6537308,29.440115 29.8845,30.705115 29.6537308,31.970115 L29.6537308,31.970115 L29.6537308,32.085115 L28.4998846,35.535115 C28.1537308,36.570115 27.4614231,37.375115 26.5383462,37.835115 L26.5383462,37.835115 L12.3460385,37.835115 L12.3460385,27.945115 C12.3460385,26.335115 12.8075769,24.955115 13.8460385,23.805115 L13.8460385,23.805115 L13.1537308,23.805115 C11.0768077,23.805115 9.46142308,22.195115 9.46142308,20.010115 L9.46142308,20.010115 L9.46142308,16.100115 C9.46142308,14.030115 11.0768077,12.420115 13.1537308,12.420115 L13.1537308,12.420115 L21.1152692,12.420115 L23.3075769,5.750115 C24.2306538,2.990115 26.8845,1.035115 29.8845,1.035115 L29.8845,1.035115 Z M25.4998846,30.590115 L25.4998846,30.705115 L15.8075769,30.705115 L15.8075769,34.615115 L24.8075769,34.615115 L25.9614231,31.165115 C25.9614231,31.050115 25.9614231,30.935115 25.8460385,30.820115 C25.8460385,30.705115 25.7306538,30.590115 25.4998846,30.590115 L25.4998846,30.590115 Z M74.8845,30.475115 L64.9614231,30.475115 C64.8460385,30.475115 64.7306538,30.590115 64.6152692,30.705115 C64.4998846,30.820115 64.4998846,30.935115 64.4998846,31.050115 L64.4998846,31.050115 L65.6537308,34.500115 L74.8845,34.500115 L74.8845,30.475115 Z M70.7306538,16.100115 L71.7691154,19.090115 L72.9229615,20.125115 L77.3075769,20.125115 L77.3075769,16.215115 L70.7306538,16.100115 Z M19.9614231,16.215115 L13.1537308,16.215115 L13.0383462,20.125115 L17.7691154,20.125115 L18.9229615,19.205115 L19.9614231,16.215115 Z M60.3460385,4.715115 L29.8845,4.715115 C28.3845,4.715115 27.2306538,5.520115 26.7691154,6.900115 L26.7691154,6.900115 L23.0768077,18.400115 L67.6152692,18.400115 L63.3460385,6.900115 C62.8845,5.520115 61.7306538,4.715115 60.3460385,4.715115 L60.3460385,4.715115 Z" id="Icon_Guaranteed_Auto_Repair"></path>
                                </g>
                                <g id="Group-14" transform="translate(121.217757, 54.023457)">
                                    <circle id="Oval-3" fill="#D43900" fill-rule="nonzero" cx="18" cy="18" r="16"></circle>
                                    <g id="Icon/Exclamation">
                                        <g id="Color/Liberty-Blue" transform="translate(6.166667, 6.166667)">
                                            <mask id="mask-2" fill="white">
                                                <use xlink:href="#path-1"></use>
                                            </mask>
                                            <use id="Mask" fill="#1A1446" fill-rule="nonzero" xlink:href="#path-1"></use>
                                            <g id="Color/White" mask="url(#mask-2)" fill="#FFFFFF" fill-rule="nonzero">
                                                <g transform="translate(-63.208333, -63.208333)" id="Rectangle-Copy-8">
                                                    <polygon points="0 0 156 0 156 150 0 150"></polygon>
                                                </g>
                                            </g>
                                        </g>
                                    </g>
                                </g>
                            </g>
                        </g>
                    </g>
                </g>
            </g>
        </g>
    </g>
</svg>