<?xml version="1.0" encoding="UTF-8"?>
<svg width="74px" height="56px" viewBox="0 0 74 56" version="1.1" xmlns="http://www.w3.org/2000/svg" xmlns:xlink="http://www.w3.org/1999/xlink">
    <!-- Generator: Sketch 61.2 (89653) - https://sketch.com -->
    <title>Group 11</title>
    <desc>Created with Sketch.</desc>
    <g id="DSK-Siniestros" stroke="none" stroke-width="1" fill="none" fill-rule="evenodd">
        <g id="9-Claims-Third-cases" transform="translate(-819.000000, -1061.000000)">
            <g id="Group-12" transform="translate(350.000000, 1032.000000)">
                <g id="Group-11" transform="translate(470.000000, 30.000000)">
                    <g id="Group-6">
                        <path d="M15.8895988,51.5284162 L9.65258928,52.8178981 C9.58354219,52.832345 9.51312183,52.8397145 9.44374238,52.8397145 C8.9297363,52.8397145 8.48505549,52.450494 8.38639519,51.9148527 L1.11279763,12.3581267 C1.05784071,12.059239 1.11629395,11.7553012 1.27684902,11.5023611 C1.43795031,11.2488391 1.68257963,11.0768839 1.9655585,11.0185233 L15.842404,8.14983824 L15.842404,6.96774194 L1.75671138,9.87947219 C0.57983568,10.1228407 -0.188905562,11.3323801 0.0404821702,12.5804954 L7.31407929,52.1372193 C7.51653529,53.2365901 8.42583705,54 9.44374211,54 C9.58168097,54 9.72114842,53.9858408 9.86149114,53.9569515 L16.2857143,52.628949 C16.0888854,52.3003576 15.9538974,51.9284299 15.8895986,51.5287106 C15.8895988,51.5284162 15.8895988,51.5284162 15.8895988,51.5284162 Z" id="Path" stroke="#333740" fill="#333740"></path>
                        <path d="M16.2857143,15.6774194 L6.47979327,17.2947451 C6.1580999,17.3477046 5.94848089,17.611446 6.01104068,17.8837802 C6.06601017,18.123756 6.3141734,18.2903226 6.5924009,18.2903226 C6.62975863,18.2903226 6.66800595,18.2874072 6.70619385,18.2810264 L16.2857143,16.7009851 L16.2857143,15.6774194 Z" id="Path" fill="#333740"></path>
                        <path d="M16.2857143,22.6451613 L8.17472025,24.1694245 C7.86600682,24.2273861 7.66484569,24.5157665 7.72488075,24.8135425 C7.77763229,25.0758826 8.01578243,25.2580645 8.28278379,25.2580645 C8.31863418,25.2580645 8.35534316,25.2548223 8.3919859,25.2478454 L16.2857143,23.7643497 L16.2857143,22.6451613 Z" id="Path" fill="#333740"></path>
                        <path d="M16.2857143,19.1612903 L7.32794174,20.7341452 C7.01227718,20.7895197 6.80659306,21.0650282 6.86797524,21.3495129 C6.92191389,21.6001434 7.16542332,21.7741935 7.43843323,21.7741935 C7.47509039,21.7741935 7.51262046,21.7710961 7.55009281,21.7644305 L16.2857143,20.2305216 L16.2857143,19.1612903 Z" id="Path" fill="#333740"></path>
                        <path d="M16.2857143,26.1290323 L9.01976965,27.599997 C8.71916499,27.6607422 8.52328671,27.9632587 8.58174547,28.2756291 C8.63316698,28.550884 8.86500676,28.7419355 9.1249949,28.7419355 C9.15990475,28.7419355 9.19564427,28.7385938 9.23133309,28.7312726 L16.2857143,27.3030736 L16.2857143,26.1290323 Z" id="Path" fill="#333740"></path>
                        <path d="M17.1428571,32.2258065 L10.7623759,33.5727916 C10.442845,33.6401916 10.2345283,33.9755341 10.2966807,34.3217996 C10.3513496,34.626859 10.5978367,34.8387097 10.8743082,34.8387097 C10.9117168,34.8387097 10.9493612,34.834937 10.9873597,34.8268264 L17.1428571,33.5275594 L17.1428571,32.2258065 Z" id="Path" fill="#333740"></path>
                        <path d="M16.2857143,36.5806452 L10.7481519,37.8547673 C10.438149,37.9260505 10.2360603,38.2807136 10.296352,38.646929 C10.3493901,38.9695642 10.5885186,39.1935484 10.856742,39.1935484 C10.8927483,39.1935484 10.9295504,39.1896306 10.9664146,39.1810475 L16.2857143,37.9570628 L16.2857143,36.5806452 Z" id="Path" fill="#333740"></path>
                        <path d="M16.2857143,40.0645161 L11.5875845,41.2569889 C11.289427,41.3326157 11.095145,41.7088901 11.1530727,42.0974207 C11.2040754,42.4397156 11.4340815,42.6774194 11.6919528,42.6774194 C11.7265773,42.6774194 11.7619754,42.6731918 11.7974207,42.6640857 L16.2857143,41.5248 L16.2857143,40.0645161 Z" id="Path" fill="#333740"></path>
                        <path d="M15.4285714,43.5483871 L11.564959,44.6489477 C11.2819712,44.7293964 11.0975723,45.1300327 11.1525529,45.5437249 C11.2009609,45.9082627 11.4192694,46.1612903 11.6640176,46.1612903 C11.6968805,46.1612903 11.7304738,46.1567831 11.7641199,46.1470931 L15.4285714,45.1036241 L15.4285714,43.5483871 Z" id="Path" fill="#333740"></path>
                        <path d="M12.0112604,48.1137381 C12.0674801,48.5035599 12.3210131,48.7741935 12.6052616,48.7741935 C12.6434278,48.7741935 12.6824433,48.7694537 12.7215177,48.7590895 L16.2857143,47.8243318 L16.2857143,46.1612903 L12.4902176,47.15662 C12.1615632,47.2427475 11.9474074,47.6712606 12.0112604,48.1137381 Z" id="Path" fill="#333740"></path>
                        <path d="M16.2857143,29.6129032 L9.86265952,31.0249843 C9.57166328,31.0889187 9.38195818,31.4070185 9.43855825,31.7354796 C9.48834523,32.0248534 9.71281556,32.2258065 9.96459429,32.2258065 C9.99839344,32.2258065 10.0329437,32.2222325 10.0675482,32.2145342 L16.2857143,30.8474218 L16.2857143,29.6129032 Z" id="Path" fill="#333740"></path>
                        <path d="M16.2857143,12.1935484 L6.45022657,13.8516211 C6.14838325,13.9024601 5.95169784,14.155394 6.0103418,14.4165685 C6.06197948,14.6466628 6.29482597,14.8064516 6.55588597,14.8064516 C6.5909386,14.8064516 6.62677019,14.8036079 6.66265753,14.7974886 L16.2857143,13.1751706 L16.2857143,12.1935484 Z" id="Path" fill="#333740"></path>
                        <path d="M70.2432877,9.87947242 L56.1576058,6.96774194 L56.1576058,8.14983835 L70.0346607,11.0185236 C70.3174217,11.0768843 70.5623218,11.2488395 70.7234226,11.5023615 C70.8839857,11.7553015 70.9421609,12.0592394 70.8872033,12.3581271 L63.613606,51.9148548 C63.5149441,52.4504962 63.0705362,52.8397167 62.5562582,52.8397167 C62.4868798,52.8397167 62.4164677,52.8323472 62.3476853,52.8179003 L56.1106755,51.5284182 C56.1106755,51.5290025 56.1101295,51.5295823 56.1101295,51.5304498 C56.0781161,51.728975 56.0285101,51.9204804 55.9629036,52.1034566 C55.9623576,52.1043285 55.9623576,52.1051961 55.9623576,52.1057759 C55.8951089,52.2898542 55.8124517,52.464943 55.7142857,52.6289488 L62.138508,53.9569515 C62.2788528,53.9858408 62.4185933,54 62.5562581,54 C63.5741611,54 64.483737,53.23659 64.6859205,52.1372191 L71.9595179,12.5804914 C72.1889052,11.3323804 71.4201659,10.1228409 70.2432877,9.87947242 Z" id="Path" stroke="#333740" fill="#333740"></path>
                        <path d="M65.4075981,18.2903226 C65.6861246,18.2903226 65.9339911,18.123756 65.988959,17.8837802 C66.0515183,17.611446 65.8418985,17.3477046 65.5205017,17.2947451 L55.7142857,15.6774194 L55.7142857,16.7009851 L65.294102,18.2810264 C65.3322899,18.2874072 65.3705367,18.2903226 65.4075981,18.2903226 Z" id="Path" fill="#333740"></path>
                        <path d="M63.7172152,25.2580645 C63.984499,25.2580645 64.2223645,25.0758826 64.2751188,24.8135425 C64.3351539,24.5157665 64.133992,24.2273861 63.8255632,24.1694245 L55.7142857,22.6451613 L55.7142857,23.7643497 L63.6082984,25.2478454 C63.6449455,25.2548223 63.6816535,25.2580645 63.7172152,25.2580645 Z" id="Path" fill="#333740"></path>
                        <path d="M64.5615665,21.7741935 C64.8348652,21.7741935 65.0780835,21.6001434 65.1320206,21.3495129 C65.1934155,21.0650282 64.9877223,20.7895197 64.6723527,20.7341452 L55.7142857,19.1612903 L55.7142857,20.2305215 L64.4501942,21.7644305 C64.4876661,21.771096 64.5252,21.7741935 64.5615665,21.7741935 Z" id="Path" fill="#333740"></path>
                        <path d="M62.8750035,28.7419355 C63.1352716,28.7419355 63.3668347,28.550884 63.4182542,28.2756291 C63.4767125,27.9632587 63.280834,27.6607421 62.9805059,27.599997 L55.7142857,26.1290323 L55.7142857,27.3030735 L62.7688925,28.7312726 C62.804632,28.7385938 62.8403716,28.7419355 62.8750035,28.7419355 Z" id="Path" fill="#333740"></path>
                        <path d="M61.1256889,34.8387097 C61.4024576,34.8387097 61.6486494,34.626859 61.7033173,34.3217996 C61.7654732,33.9755341 61.5571663,33.6401915 61.2379192,33.5727916 L54.8571429,32.2258065 L54.8571429,33.5275594 L61.0129328,34.8268266 C61.0509302,34.8349371 61.0882803,34.8387097 61.1256889,34.8387097 Z" id="Path" fill="#333740"></path>
                        <path d="M61.1432633,39.1935484 C61.4117617,39.1935484 61.6506047,38.9695642 61.7036451,38.646929 C61.7639456,38.2807136 61.5618479,37.9260504 61.2521347,37.8547673 L55.7142857,36.5806452 L55.7142857,37.9570628 L61.0338643,39.1810475 C61.0707318,39.1896306 61.1075382,39.1935484 61.1432633,39.1935484 Z" id="Path" fill="#333740"></path>
                        <path d="M60.3080458,42.6774194 C60.5661901,42.6774194 60.7959219,42.4397156 60.8469269,42.0974208 C60.9048546,41.7088901 60.7105713,41.3326156 60.412689,41.2569889 L55.7142857,40.0645161 L55.7142857,41.5248 L60.2028576,42.6640857 C60.2382474,42.6731917 60.2736959,42.6774194 60.3080458,42.6774194 Z" id="Path" fill="#333740"></path>
                        <path d="M60.3359808,46.1612903 C60.5809962,46.1612903 60.7990405,45.9082627 60.8474466,45.5437249 C60.9024273,45.1300327 60.7180281,44.7293964 60.4353003,44.6489477 L56.5714286,43.5483871 L56.5714286,45.1036241 L60.23614,46.1470932 C60.2697334,46.1567831 60.3033784,46.1612903 60.3359808,46.1612903 Z" id="Path" fill="#333740"></path>
                        <path d="M59.3947362,48.7741935 C59.6792905,48.7741935 59.9325214,48.5035599 59.9887391,48.1137381 C60.0525922,47.6712607 59.8384357,47.2427475 59.5100832,47.1566201 L55.7142857,46.1612903 L55.7142857,47.8243317 L59.2787837,48.7590895 C59.3177981,48.7694537 59.3568726,48.7741935 59.3947362,48.7741935 Z" id="Path" fill="#333740"></path>
                        <path d="M62.0354054,32.2258065 C62.2874578,32.2258065 62.5116562,32.0248534 62.5614413,31.7354796 C62.6180414,31.4070185 62.428336,31.0889187 62.1376074,31.0249843 L55.7142857,29.6129032 L55.7142857,30.8474217 L61.9327205,32.2145342 C61.967324,32.2222324 62.0018743,32.2258065 62.0354054,32.2258065 Z" id="Path" fill="#333740"></path>
                        <path d="M65.4441135,14.8064516 C65.7054582,14.8064516 65.9380306,14.6466628 65.9896577,14.4165685 C66.0483017,14.155394 65.8516161,13.9024601 65.5500505,13.8516211 L55.7142857,12.1935484 L55.7142857,13.1751706 L65.3376204,14.7974886 C65.3735073,14.8036079 65.4093389,14.8064516 65.4441135,14.8064516 Z" id="Path" fill="#333740"></path>
                        <path d="M53.1077096,-6.39488462e-14 L18.8920005,-6.39488462e-14 C17.9263371,-6.39488462e-14 17.1428571,0.808139184 17.1428571,1.80523183 L17.1428571,51.3238005 C17.1428571,52.3208942 17.9263371,53.1290323 18.8920005,53.1290323 L53.1077096,53.1290323 C54.073652,53.1290323 54.8571429,52.3208942 54.8571429,51.3238004 L54.8571429,1.80523183 C54.8571429,0.808139184 54.073652,-6.39488462e-14 53.1077096,-6.39488462e-14 Z M53.7142857,51.3238004 C53.7142857,51.68248 53.4419381,51.9740533 53.1077096,51.9740533 L18.8920005,51.9740533 C18.5577676,51.9740533 18.2857143,51.68248 18.2857143,51.3238004 L18.2857143,1.80523183 C18.2857143,1.4465534 18.5577676,1.15497896 18.8920005,1.15497896 L53.1077096,1.15497896 C53.4419381,1.15497896 53.7142857,1.4465534 53.7142857,1.80523183 L53.7142857,51.3238004 Z" id="Shape" stroke="#333740" fill="#333740" fill-rule="nonzero"></path>
                        <path d="M46.5857143,6.09677419 L25.4142857,6.09677419 C25.106627,6.09677419 24.8571429,6.48679329 24.8571429,6.96774194 C24.8571429,7.44869058 25.106627,7.83870968 25.4142857,7.83870968 L46.5857143,7.83870968 C46.8936408,7.83870968 47.1428571,7.44869058 47.1428571,6.96774194 C47.1428571,6.48679329 46.8936408,6.09677419 46.5857143,6.09677419 Z" id="Path" fill="#333740"></path>
                        <path d="M46.5857143,10.4516129 L25.4142857,10.4516129 C25.106627,10.4516129 24.8571429,10.841632 24.8571429,11.3225806 C24.8571429,11.8035293 25.106627,12.1935484 25.4142857,12.1935484 L46.5857143,12.1935484 C46.8936408,12.1935484 47.1428571,11.8035293 47.1428571,11.3225806 C47.1428571,10.841632 46.8936408,10.4516129 46.5857143,10.4516129 Z" id="Path" fill="#333740"></path>
                        <path d="M46.5857143,13.9354839 L25.4142857,13.9354839 C25.106627,13.9354839 24.8571429,14.325503 24.8571429,14.8064516 C24.8571429,15.2874003 25.106627,15.6774194 25.4142857,15.6774194 L46.5857143,15.6774194 C46.8936408,15.6774194 47.1428571,15.2874003 47.1428571,14.8064516 C47.1428571,14.325503 46.8936408,13.9354839 46.5857143,13.9354839 Z" id="Path" fill="#333740"></path>
                        <path d="M46.5857143,16.5483871 L25.4142857,16.5483871 C25.106627,16.5483871 24.8571429,16.9384062 24.8571429,17.4193548 C24.8571429,17.9003035 25.106627,18.2903226 25.4142857,18.2903226 L46.5857143,18.2903226 C46.8936408,18.2903226 47.1428571,17.9003035 47.1428571,17.4193548 C47.1428571,16.9384062 46.8936408,16.5483871 46.5857143,16.5483871 Z" id="Path" fill="#333740"></path>
                        <path d="M46.5857143,20.0322581 L25.4142857,20.0322581 C25.106627,20.0322581 24.8571429,20.4222772 24.8571429,20.9032258 C24.8571429,21.3841745 25.106627,21.7741935 25.4142857,21.7741935 L46.5857143,21.7741935 C46.8936408,21.7741935 47.1428571,21.3841745 47.1428571,20.9032258 C47.1428571,20.4222772 46.8936408,20.0322581 46.5857143,20.0322581 Z" id="Path" fill="#333740"></path>
                        <path d="M46.5857143,24.0967742 L25.4142857,24.0967742 C25.106627,24.0967742 24.8571429,24.4867933 24.8571429,24.9677419 C24.8571429,25.4486906 25.106627,25.8387097 25.4142857,25.8387097 L46.5857143,25.8387097 C46.8936408,25.8387097 47.1428571,25.4486906 47.1428571,24.9677419 C47.1428571,24.4867933 46.8936408,24.0967742 46.5857143,24.0967742 Z" id="Path" fill="#333740"></path>
                        <path d="M46.5857143,28.4516129 L25.4142857,28.4516129 C25.106627,28.4516129 24.8571429,28.841632 24.8571429,29.3225806 C24.8571429,29.8035293 25.106627,30.1935484 25.4142857,30.1935484 L46.5857143,30.1935484 C46.8936408,30.1935484 47.1428571,29.8035293 47.1428571,29.3225806 C47.1428571,28.841632 46.8936408,28.4516129 46.5857143,28.4516129 Z" id="Path" fill="#333740"></path>
                        <path d="M46.5857143,31.9354839 L25.4142857,31.9354839 C25.106627,31.9354839 24.8571429,32.325503 24.8571429,32.8064516 C24.8571429,33.2874003 25.106627,33.6774194 25.4142857,33.6774194 L46.5857143,33.6774194 C46.8936408,33.6774194 47.1428571,33.2874003 47.1428571,32.8064516 C47.1428571,32.325503 46.8936408,31.9354839 46.5857143,31.9354839 Z" id="Path" fill="#333740"></path>
                        <path d="M46.5857143,34.5483871 L25.4142857,34.5483871 C25.106627,34.5483871 24.8571429,34.9384062 24.8571429,35.4193548 C24.8571429,35.9003035 25.106627,36.2903226 25.4142857,36.2903226 L46.5857143,36.2903226 C46.8936408,36.2903226 47.1428571,35.9003035 47.1428571,35.4193548 C47.1428571,34.9384062 46.8936408,34.5483871 46.5857143,34.5483871 Z" id="Path" fill="#333740"></path>
                        <path d="M46.5857143,38.0322581 L25.4142857,38.0322581 C25.106627,38.0322581 24.8571429,38.4222772 24.8571429,38.9032258 C24.8571429,39.3841745 25.106627,39.7741935 25.4142857,39.7741935 L46.5857143,39.7741935 C46.8936408,39.7741935 47.1428571,39.3841745 47.1428571,38.9032258 C47.1428571,38.4222772 46.8936408,38.0322581 46.5857143,38.0322581 Z" id="Path" fill="#333740"></path>
                        <path d="M46.5857143,42.0967742 L25.4142857,42.0967742 C25.106627,42.0967742 24.8571429,42.4867933 24.8571429,42.9677419 C24.8571429,43.4486906 25.106627,43.8387097 25.4142857,43.8387097 L46.5857143,43.8387097 C46.8936408,43.8387097 47.1428571,43.4486906 47.1428571,42.9677419 C47.1428571,42.4867933 46.8936408,42.0967742 46.5857143,42.0967742 Z" id="Path" fill="#333740"></path>
                        <path d="M46.5857143,46.4516129 L25.4142857,46.4516129 C25.106627,46.4516129 24.8571429,46.841632 24.8571429,47.3225806 C24.8571429,47.8035293 25.106627,48.1935484 25.4142857,48.1935484 L46.5857143,48.1935484 C46.8936408,48.1935484 47.1428571,47.8035293 47.1428571,47.3225806 C47.1428571,46.841632 46.8936408,46.4516129 46.5857143,46.4516129 Z" id="Path" fill="#333740"></path>
                        <g id="Group-5" transform="translate(16.000000, 8.000000)" fill="#FFFFFF" fill-rule="nonzero" stroke="#FFFFFF" stroke-width="6">
                            <g id="Shape2">
                                <path d="M39.8562227,1.14382629 C39.1383085,0.425912071 37.9778947,0.425912071 37.2599805,1.14382629 L29.1940031,9.20980367 C26.7079268,7.27639275 23.5920689,6.11414288 20.1971242,6.11414288 C12.0852444,6.11414288 5.50834225,12.691045 5.50834225,20.8029248 C5.50834225,24.1978696 6.67059213,27.3137274 8.60400305,29.7998038 L0.538025663,37.8657812 C-0.179888554,38.5836954 -0.179888554,39.7441091 0.538025663,40.4620234 C0.896064723,40.8200624 1.36610575,41 1.83614677,41 C2.30618779,41 2.77622881,40.8200624 3.13426787,40.4620234 L11.2002453,32.396046 C13.6881577,34.3294569 16.8021795,35.4917068 20.1971242,35.4917068 C28.309004,35.4917068 34.8859061,28.9148047 34.8859061,20.8029248 C34.8859061,17.4079801 33.7236563,14.2939583 31.7902454,11.8060459 L39.8562227,3.7400685 C40.574137,3.02215428 40.574137,1.86174051 39.8562227,1.14382629 Z M9.18053774,20.8029248 C9.18053774,14.7272774 14.1214768,9.78633837 20.1971242,9.78633837 C22.5730347,9.78633837 24.7690076,10.550155 26.5702195,11.8335873 L11.2277867,27.1760201 C9.9443544,25.3748082 9.18053774,23.1788353 9.18053774,20.8029248 Z M31.2137107,20.8029248 C31.2137107,26.8785723 26.2727716,31.8195113 20.1971242,31.8195113 C17.8212137,31.8195113 15.6252408,31.0556946 13.8240289,29.7722623 L29.1664617,14.4298296 C30.449894,16.2310414 31.2137107,18.4270143 31.2137107,20.8029248 Z" id="Shape"></path>
                            </g>
                        </g>
                    </g>
                    <circle id="Oval" fill="#99E5EA" cx="36" cy="29" r="13"></circle>
                    <path d="M55.4668303,9.53317576 C54.7559374,8.82227475 53.6068726,8.82227475 52.8959796,9.53317576 L44.9088884,17.5203577 C42.4471262,15.605834 39.3617418,14.454938 36,14.454938 C27.9674553,14.454938 21.454876,20.9675913 21.454876,29.0002273 C21.454876,32.3620072 22.605759,35.4474267 24.5202609,37.9092169 L16.5331697,45.8963989 C15.8222768,46.6072999 15.8222768,47.7563778 16.5331697,48.4672788 C16.8877071,48.8218202 17.3531511,49 17.818595,49 C18.284039,49 18.749483,48.8218202 19.1040204,48.4672788 L27.0911116,40.4800968 C29.5546919,42.3946205 32.6382582,43.5455165 36,43.5455165 C44.0325447,43.5455165 50.545124,37.0328633 50.545124,29.0002273 C50.545124,25.6384473 49.394241,22.554846 47.4797391,20.0912376 L55.4668303,12.1040556 C56.1777232,11.3931546 56.1777232,10.2440768 55.4668303,9.53317576 Z M25.091157,29.0002273 C25.091157,22.983932 29.9837731,18.0912603 36,18.0912603 C38.3526738,18.0912603 40.5271698,18.8476154 42.3107657,20.11851 L27.1183837,35.3110646 C25.8475035,33.5274486 25.091157,31.3529278 25.091157,29.0002273 Z M46.908843,29.0002273 C46.908843,35.0165225 42.0162269,39.9091942 36,39.9091942 C33.6473262,39.9091942 31.4728302,39.1528392 29.6892343,37.8819445 L44.8816163,22.6893899 C46.1524965,24.473006 46.908843,26.6475267 46.908843,29.0002273 Z" id="Shape" stroke="#FFFFFF" stroke-width="2" fill="#333740" fill-rule="nonzero"></path>
                </g>
            </g>
        </g>
    </g>
</svg>