<?xml version="1.0" encoding="UTF-8"?>
<svg width="22px" height="21px" viewBox="0 0 22 21" version="1.1" xmlns="http://www.w3.org/2000/svg" xmlns:xlink="http://www.w3.org/1999/xlink">
    <!-- Generator: Sketch 59.1 (86144) - https://sketch.com -->
    <title>Icon/Arrow Copy</title>
    <desc>Created with Sketch.</desc>
    <defs>
        <path d="M4.21408451,2 L4.21408451,3.13387097 L1.17746479,3.13387097 L1.14647887,19.8967742 L20.8225352,19.866129 L20.8535211,3.10322581 L17.8169014,3.13387097 L17.8169014,2 L20.8225352,2 C21.4732394,2 22,2.49032258 22,3.10322581 L22,19.9274194 C22,20.5096774 21.4732394,21 20.8225352,21 L1.17746479,21 C0.526760563,21 0,20.5096774 0,19.8967742 L0,3.10322581 C0,2.49032258 0.526760563,2 1.17746479,2 L4.21408451,2 Z M11,14 L11,17 L8,17 L8,14 L11,14 Z M6,14 L6,17 L3,17 L3,14 L6,14 Z M11,10 L11,13 L8,13 L8,10 L11,10 Z M6,10 L6,13 L3,13 L3,10 L6,10 Z M15,10 L15,13 L12,13 L12,10 L15,10 Z M19,10 L19,13 L16,13 L16,10 L19,10 Z M11,6 L11,9 L8,9 L8,6 L11,6 Z M6,6 L6,9 L3,9 L3,6 L6,6 Z M15,6 L15,9 L12,9 L12,6 L15,6 Z M19,6 L19,9 L16,9 L16,6 L19,6 Z M16,0 L16,3 L8,3 L8,2 L15,2 L15,0 L16,0 Z M6,0 L6,3 L5,3 L5,0 L6,0 Z" id="path-1"></path>
    </defs>
    <g id="Symbols" stroke="none" stroke-width="1" fill="none" fill-rule="evenodd">
        <g id="Map-Tag" transform="translate(-1.000000, -2.000000)">
            <g id="Icon/Date-calendar">
                <g id="Color/Liberty-Blue" transform="translate(1.000000, 2.000000)">
                    <mask id="mask-2" fill="white">
                        <use xlink:href="#path-1"></use>
                    </mask>
                    <use id="Mask" fill="#1A1446" fill-rule="nonzero" xlink:href="#path-1"></use>
                    <g id="Color/Liberty-Dark-Gray" mask="url(#mask-2)" fill="#343741" fill-rule="nonzero">
                        <g transform="translate(-40.000000, -39.000000)" id="Rectangle-Copy-3">
                            <polygon points="0 0 101 0 101 97 0 97"></polygon>
                        </g>
                    </g>
                </g>
            </g>
        </g>
    </g>
</svg>