<svg xmlns="http://www.w3.org/2000/svg" xmlns:xlink="http://www.w3.org/1999/xlink" viewBox="0 0 16 22">
  <defs>
    <clipPath id="clip-path">
      <path id="Mask" d="M1.019,22A1.036,1.036,0,0,1,0,20.949V0H1.112V20.853H14.889V1.261L2.3,1.234,2.3.087,14.983.113A1.038,1.038,0,0,1,16,1.166V20.949A1.036,1.036,0,0,1,14.981,22Zm9.61-3.388V14.378h2.636v.672H11.54v1.142h1.367V16.9H11.54v1.713Zm-4,0V14.378H8.058a1.788,1.788,0,0,1,2.018,2.016v.135a1.818,1.818,0,0,1-2.018,2.083Zm.945-.672h.52c.74,0,1.041-.39,1.041-1.344v-.2c0-.919-.321-1.31-1.074-1.31H7.57Zm-3.581.639h-.91V14.345H4.64c1,0,1.529.465,1.529,1.345a1.313,1.313,0,0,1-1.5,1.41l-.683-.033v1.511h0Zm.033-2.117h.52c.473,0,.684-.218.684-.706,0-.521-.179-.706-.684-.706h-.52Z" fill="#006729"/>
    </clipPath>
  </defs>
  <g id="Color_Liberty_Blue" data-name="Color/Liberty Blue" clip-path="url(#clip-path)">
    <g id="Color_Liberty_Blue-2" data-name="Color/Liberty Blue" transform="translate(-44 -43)">
      <rect id="Rectangle_Copy_8" data-name="Rectangle Copy 8" width="101" height="97" fill="#006729"/>
    </g>
  </g>
</svg>
