<svg xmlns="http://www.w3.org/2000/svg" xmlns:xlink="http://www.w3.org/1999/xlink" viewBox="0 0 24.278 16">
  <defs>
    <clipPath id="clip-path">
      <rect id="Rectángulo_6811" data-name="Rectángulo 6811" width="24.278" height="16" transform="translate(0 0)" fill="#006729"/>
    </clipPath>
  </defs>
  <g id="Grupo_29782" data-name="Grupo 29782" transform="translate(0 0)">
    <g id="Grupo_29782-2" data-name="Grupo 29782" transform="translate(0 0)" clip-path="url(#clip-path)">
      <path id="Trazado_15816" data-name="Trazado 15816" d="M23.6,0H.683A.685.685,0,0,0,0,.683V15.318A.684.684,0,0,0,.683,16H23.6a.684.684,0,0,0,.683-.682V.683A.685.685,0,0,0,23.6,0m-.682,2.236V14.009L17.662,7.637l-1.053.868,5.053,6.13H2.354l5.109-6.2L6.41,7.567l-5.045,6.12V2.375l10.706,8.778.066.054ZM2.288,1.365H21.825L12.131,9.436Z" transform="translate(0 0)" fill="#006729"/>
    </g>
  </g>
</svg>
