<?xml version="1.0" encoding="UTF-8"?>
<svg width="57px" height="57px" viewBox="0 0 57 57" version="1.1" xmlns="http://www.w3.org/2000/svg" xmlns:xlink="http://www.w3.org/1999/xlink">
    <!-- Generator: Sketch 64 (93537) - https://sketch.com -->
    <title>Group 26</title>
    <desc>Created with Sketch.</desc>
    <g id="DSK-Siniestros" stroke="none" stroke-width="1" fill="none" fill-rule="evenodd" opacity="0.209077381">
        <g id="12-Claims-Third-docs" transform="translate(-654.000000, -1432.000000)" fill="#343741">
            <g id="Group-26" transform="translate(654.000000, 1432.000000)">
                <g id="attachment2" fill-rule="nonzero">
                    <g id="Group">
                        <path d="M46.8743392,35.9200738 C46.8165859,35.9200738 46.7588326,35.9163758 46.6998238,35.9073221 C46.08337,35.8193356 45.6188326,35.2773893 45.6188326,34.644906 L45.6188326,16.681745 L41.332533,12.3283221 L32.6142952,12.3283221 C32.2225771,12.3283221 31.8473062,12.1383221 31.6112709,11.8208054 C31.3751101,11.5032886 31.2986498,11.0850336 31.4064978,10.7024832 L32.4146696,7.11416107 C32.5678414,6.56966443 33.0637665,6.18838926 33.6212115,6.18838926 C33.7379736,6.18838926 33.8534802,6.20496644 33.9664758,6.23812081 C34.503707,6.39369128 34.8792291,6.89865772 34.8779736,7.46483221 C34.8779736,7.58342282 34.861652,7.70073826 34.8290088,7.81422819 L34.2777159,9.77798658 L41.8521872,9.77798658 C42.1823855,9.77798658 42.5063062,9.91315436 42.7398304,10.1516107 L47.7618568,15.2510067 C47.9991476,15.4920134 48.1297203,15.8133557 48.1297203,16.1538255 L48.1297203,25.5314094 L53.4368722,6.64489933 L40.2176432,2.81302013 C39.5522247,2.61919463 39.1655286,1.91275168 39.3551101,1.23691275 C39.5082819,0.69114094 40.004207,0.31114094 40.5615264,0.31114094 C40.6784141,0.31114094 40.7939207,0.327718121 40.9067907,0.359597315 L55.3338172,4.54214765 C55.6503304,4.63395973 55.9251608,4.85583893 56.0858656,5.14912752 C56.2465705,5.44241611 56.2867467,5.79563758 56.1963502,6.11825503 L48.0807555,34.9944295 C47.9277093,35.5389262 47.4317841,35.9200738 46.8743392,35.9200738 Z M35.3462775,2.60899329 L35.3462775,2.60261745 L35.3462775,2.60899329 C35.2293899,2.60899329 35.1127533,2.59241611 35.0010132,2.55926174 C34.678348,2.4661745 34.4109251,2.25067114 34.2477093,1.95228188 C34.0843678,1.65516779 34.0455727,1.31087248 34.1370991,0.983154362 C34.2903965,0.438657718 34.7875771,0.0573825503 35.343641,0.0573825503 C35.4604031,0.0573825503 35.5771652,0.0739597315 35.6889053,0.107114094 C36.0115705,0.200201342 36.2789934,0.415704698 36.4422093,0.71409396 C36.6054251,1.01120805 36.6443458,1.35550336 36.5526938,1.68322148 C36.3996476,2.22771812 35.902467,2.60899329 35.3462775,2.60899329 Z" id="Shape"></path>
                        <path d="M8.53493392,46.4581879 C7.91973568,46.4581879 7.39995595,46.0104765 7.29825991,45.3932953 C7.1827533,44.7008792 7.64477974,44.0416174 8.32777533,43.924302 C8.39682819,43.9128255 8.46713656,43.9063221 8.53744493,43.9063221 C9.15138767,43.9063221 9.67242291,44.3540336 9.77411894,44.9699396 C9.88962555,45.6635034 9.42759912,46.3227651 8.74460352,46.4400805 C8.67555066,46.4518121 8.60524229,46.4581879 8.53493392,46.4581879 Z M12.9756608,43.8949732 C12.2826211,43.8949732 11.7201542,43.3225503 11.7201542,42.6198054 L11.7201542,11.0531544 C11.7201542,10.7165101 11.8544934,10.3887919 12.0880176,10.1516107 C12.3215419,9.91315436 12.6454626,9.77798658 12.9756608,9.77798658 L25.6713436,9.77798658 L25.0687004,6.14630872 L2.78345815,9.9590604 L7.77409692,40.0491946 C7.88960352,40.7428859 7.42757709,41.4021477 6.7445815,41.5183154 C6.67552863,41.5297919 6.60522026,41.5361678 6.53491189,41.5361678 C5.92096916,41.5361678 5.39993392,41.0885839 5.29823789,40.4726779 L0.099185022,9.12510067 C-0.0150660793,8.4314094 0.445704846,7.77214765 1.12870044,7.65610738 L25.8898018,3.42 C25.9601101,3.40724832 26.0304185,3.40087248 26.0994714,3.40087248 C26.7146696,3.40087248 27.2344493,3.84845638 27.3361454,4.46436242 L28.3945374,10.8402013 C28.4560573,11.2112752 28.3543612,11.5887248 28.1145595,11.8756376 C27.8760132,12.1638255 27.5257269,12.3283221 27.1566079,12.3283221 L14.2311674,12.327047 L14.2311674,42.6199329 C14.2311674,43.3225503 13.6674449,43.8949732 12.9756608,43.8949732 Z" id="Shape"></path>
                        <path d="M45.783304,56.9591946 C45.0901388,56.9591946 44.5277974,56.3866443 44.5277974,55.6840268 C44.5277974,54.9801342 45.0901388,54.4088591 45.783304,54.4088591 C46.4750881,54.4088591 47.0374295,54.9801342 47.0374295,55.6840268 C47.0374295,56.3865168 46.4750881,56.9591946 45.783304,56.9591946 Z M39.5057709,56.9591946 L19.6775551,56.9591946 C18.6028414,56.9579195 17.5607709,56.7449664 16.5802203,56.3228859 C15.6323128,55.9162349 14.7810793,55.3333557 14.0503744,54.5912081 C13.3196696,53.8491879 12.7459031,52.9844966 12.3453965,52.0230201 C11.9310793,51.0258389 11.7201542,49.9674497 11.7201542,48.8771812 L11.7201542,15.9536242 C11.7201542,15.2497315 12.2826211,14.6784564 12.9756608,14.6784564 C13.6674449,14.6784564 14.2311674,15.2497315 14.2311674,15.9536242 L14.2311674,48.8771812 C14.2311674,50.3525503 14.7986564,51.7424832 15.8256608,52.7881208 C16.8564317,53.8324832 18.2236784,54.4075839 19.6775551,54.4088591 L39.5057709,54.4088591 C40.1975551,54.4088591 40.7612775,54.9801342 40.7612775,55.6840268 C40.7612775,56.3865168 40.1975551,56.9591946 39.5057709,56.9591946 Z M49.3313656,56.5026846 C49.1392731,56.5026846 48.9520771,56.4593289 48.7789427,56.3713423 C47.8461013,55.9071812 47.0563877,55.1892617 46.4976872,54.2942215 C45.9226652,53.3761007 45.6188326,52.3138859 45.6188326,51.2209396 L45.6188326,16.681745 L41.3312775,12.3283221 L20.7045595,12.3283221 C20.0127753,12.3283221 19.4503084,11.7557718 19.4503084,11.0531544 C19.4503084,10.3492617 20.0127753,9.77798658 20.7045595,9.77798658 L41.8523128,9.77798658 C42.182511,9.77798658 42.5064317,9.91315436 42.7399559,10.1516107 L47.7619824,15.2522819 C47.9992731,15.4920134 48.1298458,15.8120805 48.1298458,16.1538255 L48.1298458,51.2209396 C48.1285903,52.4425503 48.8016674,53.5391946 49.8862996,54.0824161 C49.8862996,54.0836913 49.8875551,54.0836913 49.8875551,54.0836913 C50.3169383,54.2990671 50.5857423,54.735302 50.5881539,55.2224161 C50.5893833,55.4200671 50.5454405,55.6113423 50.4588106,55.7898658 C50.24663,56.2297987 49.8147357,56.5026846 49.3313656,56.5026846 Z M14.4282819,12.3283221 C13.7352423,12.3283221 13.1727753,11.7557718 13.1727753,11.0531544 C13.1727753,10.3492617 13.7352423,9.77798658 14.4282819,9.77798658 C15.1200661,9.77798658 15.682533,10.3492617 15.682533,11.0531544 C15.682533,11.7557718 15.1200661,12.3283221 14.4282819,12.3283221 Z" id="Shape"></path>
                        <path d="M51.2686123,56.9591946 L51.2686123,56.9591946 C51.0024449,56.9591946 50.7312555,56.9387919 50.4625771,56.8992617 C49.1279736,56.7053087 47.9038546,56.0295973 47.0137004,54.9954362 C46.1147577,53.9510738 45.6199626,52.6108725 45.6188326,51.2208121 L45.6188326,37.8315503 C45.6188326,37.494906 45.7520419,37.1671879 45.9868216,36.9287315 C46.2202203,36.6916779 46.544141,36.5563826 46.8743392,36.5563826 L55.6628855,36.5563826 C55.9930837,36.5563826 56.3170044,36.6916779 56.5505286,36.9287315 C56.7840529,37.1671879 56.9183921,37.494906 56.9183921,37.8315503 L56.9183921,51.2208121 C56.9183921,51.9948389 56.7677313,52.7471879 56.4739427,53.4536309 C56.1889427,54.1371208 55.7821586,54.7504765 55.2636344,55.2772483 C54.7438546,55.8051678 54.1399559,56.2183221 53.4668789,56.5076577 C52.7713282,56.806047 52.0307048,56.9579195 51.2686123,56.9591946 Z M48.1298417,39.1068456 L48.1298417,51.2209396 C48.1273348,52.7958993 49.2825264,54.1525503 50.819141,54.3757047 C50.9698018,54.3973826 51.1204626,54.4088591 51.2686123,54.4088591 C52.9961894,54.4050336 54.4036123,52.9755705 54.4073789,51.2209396 L54.4073789,39.1068456 L48.1298417,39.1068456 Z" id="Shape"></path>
                    </g>
                </g>
                <path d="M35.6026241,22.9262857 C34.1332002,22.2964246 32.5317565,22.3047527 31.1320876,22.8254443 L31.1283461,22.827264 C29.7286741,23.348859 28.5317074,24.3837176 27.86937,25.8069239 L21.064387,40.437977 C20.558226,41.525513 20.5550422,42.7061305 20.9595129,43.7344675 C21.3667819,44.7636981 22.1789041,45.6406581 23.2986863,46.1208956 C24.4184716,46.6002299 25.6417309,46.5941318 26.7104192,46.1956428 L26.7113436,46.1983495 C27.7790949,45.8007671 28.6932091,45.0107904 29.1984394,43.9223543 L34.7812828,31.9214666 C35.1133931,31.2076019 35.1151656,30.4316655 34.849527,29.7569329 C34.5838884,29.0822004 34.0508514,28.5050584 33.3133397,28.189686 C32.5748973,27.8734136 31.7718426,27.8771342 31.0715397,28.1379333 C30.3702998,28.399639 29.7699442,28.9184298 29.4378307,29.6331978 L24.2905855,40.6985505 L25.8168881,41.3516978 L30.9631996,30.2863483 C31.1052653,29.9805363 31.3637607,29.7583222 31.6638919,29.6461641 C31.9649568,29.5340026 32.3085914,29.5318938 32.6246674,29.6671824 C32.941674,29.8033711 33.1705177,30.0509743 33.2843646,30.3396292 C33.3982084,30.6291875 33.397049,30.961604 33.2549801,31.2683193 L27.6730706,43.2692038 C27.3569542,43.9486871 26.785634,44.4420838 26.1189913,44.6901187 L26.1171112,44.6937385 C25.453273,44.9408603 24.6894402,44.94354 23.9864279,44.6424992 C23.2824819,44.3414618 22.7754868,43.7940372 22.5237321,43.1544844 L22.5246784,43.1508679 C22.2719994,42.5086085 22.2736364,41.7715142 22.5897527,41.0920308 L29.3947358,26.4609777 C29.8689087,25.4422043 30.7240215,24.7021159 31.7216511,24.3300717 C32.7202113,23.9589275 33.864096,23.9540113 34.9158162,24.4046789 C35.965672,24.8544497 37.0798339,25.607502 37.4583919,26.5690862 C37.8360129,27.5315769 37.8340275,28.6363134 37.3607946,29.6532769 L32.9078748,39.2266607 L34.4332405,39.8807146 L38.8861603,30.3073308 C39.549441,28.8814113 39.5529733,27.3331517 39.0235542,25.9863899 C38.4932014,24.6396314 37.0748462,23.5570404 35.6026241,22.9262857 Z" id="Fill-211" transform="translate(30.036471, 34.465833) rotate(-25.000000) translate(-30.036471, -34.465833) "></path>
            </g>
        </g>
    </g>
</svg>