<svg xmlns="http://www.w3.org/2000/svg" viewBox="0 0 70.846 65.633">
  <g id="DSK-Siniestros" transform="translate(0.846)">
    <g id="_9-Claims-Third-cases" data-name="9-Claims-Third-cases" transform="translate(-481 -1249)">
      <g id="Group-12" transform="translate(350 1032)">
        <g id="Group-8" transform="translate(128 217)">
          <rect id="Rectangle" width="18" height="12.174" transform="translate(52 7.101)" fill="#fffcf9" stroke="#fffcf9" stroke-width="1" opacity="0.707"/>
          <g id="Group-7">
            <g id="Group" transform="translate(49)">
              <path id="Shape" d="M23,4.058H15V0H13V4.058H11V0H9V4.058H1A1.007,1.007,0,0,0,0,5.072V21.3a1.007,1.007,0,0,0,1,1.014H11V37.536a1.007,1.007,0,0,1-1,1.014V40.58a3.022,3.022,0,0,0,3-3.043V22.319H23A1.007,1.007,0,0,0,24,21.3V5.072A1.007,1.007,0,0,0,23,4.058ZM22,20.29H2V6.087H22Z" fill="#006729"/>
              <path id="Path" d="M9.11,17.7a.994.994,0,0,0,1.78,0L14,11.4l1.11,2.242A1,1,0,0,0,16,14.2h4V12.174H16.62l-1.73-3.5a.994.994,0,0,0-1.78,0L10,14.974,8.89,12.732A1,1,0,0,0,8,12.174H4V14.2H7.38Z" fill="#006729" fill-rule="evenodd"/>
            </g>
            <g id="Group-32" transform="translate(0 23.333)">
              <g id="Group-33">
                <g id="Group-29" transform="translate(7 25.362)">
                  <line id="Path-14" x2="7.646" transform="translate(0.483 1.014)" fill="none" stroke="#fffcf9" stroke-width="3"/>
                  <line id="Path-14-Copy" x2="7.647" transform="translate(32.483 1.014)" fill="none" stroke="#fffcf9" stroke-width="3"/>
                </g>
                <g id="Group-28" transform="translate(0.972 3.364) rotate(-3)">
                  <g id="Group-30" transform="translate(0.972 0.079)">
                    <path id="Fill-255" d="M4.179,11.7l3.976.344L7.491,13.6l-.565.4L4,13.75Zm7.227,10.206-.86,1.969-5.792-.5.183-2.05,6.338.55a.347.347,0,0,1,.131.033ZM9.062,35.572l-5.247-.453c-.02,0-.038-.006-.057-.011l.626-7.632.127-1.41,6.014.521q.112.009.22.009a2.427,2.427,0,0,0,2.3-1.587l.94-2.147a1.058,1.058,0,0,0,.044-.116,2.636,2.636,0,0,0-.3-2.314,2.931,2.931,0,0,0-2.211-1.251l-6.185-.536a1.968,1.968,0,0,1,.5-.518L8.7,16.076l21.678,2.154-.1-1.21-.532-1.589L10.507,13.518,13.664,6.1a2.216,2.216,0,0,1,2.015-1.368l15.8,1.506.15-2.708L15.92,2.041a4.95,4.95,0,0,0-4.792,3.012L9.266,9.429,4.253,8.994A2.479,2.479,0,0,0,1.46,11.225l-.228,2.536a2.458,2.458,0,0,0,2.354,2.667l.046,0a4.072,4.072,0,0,0-1.244,2.5L1.5,28.83h.011L1,35.155A2.608,2.608,0,0,0,3.573,37.81l5.34.464c.095.007.186.012.278.012a2.467,2.467,0,0,0,2.585-2.2l.151-1.7-2.74-.237Z" transform="translate(-1.033 0.881) rotate(-3)" fill="#006729" fill-rule="evenodd"/>
                    <path id="Fill-255-Copy" d="M20.306-12.5l3.976-.344-.663-1.557-.565-.4-2.931.255ZM27.533-22.71l-.86-1.969-5.792.5.183,2.05,6.338-.55a.346.346,0,0,0,.131-.033ZM25.189-36.375l-5.247.454c-.02,0-.038.006-.057.011l.627,7.632.127,1.41,6.014-.521q.112-.009.22-.009a2.427,2.427,0,0,1,2.3,1.587l.94,2.148a1.079,1.079,0,0,1,.044.116,2.636,2.636,0,0,1-.3,2.314,2.931,2.931,0,0,1-2.211,1.251l-6.185.536a1.968,1.968,0,0,0,.495.518l2.88,2.051,10.727-1.059,1.262,1.149L36.629-15.3l-9.994.981L29.791-6.9a2.216,2.216,0,0,0,2.015,1.368l15.8-1.506L37.025-3.273l-4.977.429a4.95,4.95,0,0,1-4.792-3.012l-1.863-4.376L20.381-9.8a2.479,2.479,0,0,1-2.793-2.232l-.228-2.536a2.458,2.458,0,0,1,2.355-2.667l.046,0a4.072,4.072,0,0,1-1.244-2.5l-.886-9.9h.011l-.518-6.325A2.608,2.608,0,0,1,19.7-38.613l5.34-.464c.095-.007.186-.012.278-.012a2.467,2.467,0,0,1,2.585,2.2l.151,1.7-2.74.237Z" transform="translate(67.604 5.321) rotate(-171)" fill="#006729" fill-rule="evenodd"/>
                  </g>
                </g>
              </g>
              <path id="Fill-234" d="M11,33.478H44V31.449H11Z" fill="#006729" fill-rule="evenodd"/>
            </g>
            <rect id="Rectangle-2" data-name="Rectangle" width="9" height="2.029" transform="translate(50 38.551)" fill="#006729"/>
          </g>
        </g>
      </g>
    </g>
  </g>
</svg>
