<svg xmlns="http://www.w3.org/2000/svg" viewBox="0 0 92 92">
  <g id="DSK-Siniestros" transform="translate(1 1)">
    <g id="Claims-Insured-stp4" transform="translate(-638 -1058)">
      <g id="Group-7" transform="translate(638 1058)">
        <g id="icono_usuario-copy">
          <g id="Group-2-Copy">
            <g id="Group-9">
              <circle id="Oval-2" cx="45" cy="45" r="45" fill="#fff" stroke="#65a518" stroke-width="2"/>
            </g>
          </g>
        </g>
        <g id="Group-5" transform="translate(26 19)">
          <g id="Group-6">
            <g id="noun_Summary-Report_1581158">
              <g id="Group">
                <path id="Shape" d="M12.007,4.727A5.34,5.34,0,0,1,17.219.591h3.563a5.34,5.34,0,0,1,5.211,4.136H33.25A4.739,4.739,0,0,1,38,9.455V47.273A4.739,4.739,0,0,1,33.25,52H4.75A4.739,4.739,0,0,1,0,47.273V9.455A4.739,4.739,0,0,1,4.75,4.727Zm-.132,4.727H4.75V47.273h28.5V9.455H26.125v4.136H11.875Zm10.688.591V5.909a1.777,1.777,0,0,0-1.781-1.773H17.219a1.777,1.777,0,0,0-1.781,1.773v4.136Z" fill="#006729"/>
                <path id="Path" d="M8.313,16.545H21.375v3.545H8.313Z" fill="#006729" fill-rule="evenodd"/>
                <path id="Path-2" data-name="Path" d="M8.313,23.636h19v3.545h-19Z" fill="#006729" fill-rule="evenodd"/>
                <path id="Path-3" data-name="Path" d="M8.313,30.727h19v3.545h-19Z" fill="#006729" fill-rule="evenodd"/>
                <path id="Path-4" data-name="Path" d="M8.313,37.818h19v3.545h-19Z" fill="#006729" fill-rule="evenodd"/>
              </g>
            </g>
          </g>
        </g>
      </g>
    </g>
  </g>
</svg>
