<?xml version="1.0" encoding="UTF-8"?>
<svg width="90px" height="90px" viewBox="0 0 90 90" version="1.1" xmlns="http://www.w3.org/2000/svg" xmlns:xlink="http://www.w3.org/1999/xlink">
    <!-- Generator: Sketch 59.1 (86144) - https://sketch.com -->
    <title>Group 7</title>
    <desc>Created with Sketch.</desc>
    <g id="DSK-Siniestros" stroke="none" stroke-width="1" fill="none" fill-rule="evenodd">
        <g id="Claims-Insured-stp4" transform="translate(-638.000000, -1058.000000)">
            <g id="Group-7" transform="translate(638.000000, 1058.000000)">
                <g id="icono_usuario-copy" fill="#F0FBFC">
                    <g id="Group-2-Copy">
                        <g id="Group-9">
                            <circle id="Oval-2" cx="45" cy="45" r="45"></circle>
                        </g>
                    </g>
                </g>
                <g id="Group-5" transform="translate(26.000000, 19.000000)">
                    <g id="Group-6">
                        <rect id="Rectangle" fill="#99E5EA" x="15" y="3" width="9" height="9" rx="2"></rect>
                        <g id="noun_Summary-Report_1581158" fill="#1A1446">
                            <g id="Group">
                                <path d="M12.007416,4.72727273 C12.5474069,2.35892245 14.675615,0.590909091 17.21875,0.590909091 L20.78125,0.590909091 C23.324385,0.590909091 25.4525931,2.35892245 25.992584,4.72727273 L33.25,4.72727273 C35.8733526,4.72727273 38,6.84374482 38,9.45454545 L38,47.2727273 C38,49.8835279 35.8733526,52 33.25,52 L4.75,52 C2.12664744,52 0,49.8835279 0,47.2727273 L0,9.45454545 C0,6.84374482 2.12664744,4.72727273 4.75,4.72727273 L12.007416,4.72727273 Z M11.875,9.45454545 L4.75,9.45454545 L4.75,47.2727273 L33.25,47.2727273 L33.25,9.45454545 L26.125,9.45454545 L26.125,13.5909091 L11.875,13.5909091 L11.875,9.45454545 Z M22.5625,10.0454545 L22.5625,5.90909091 C22.5625,4.93004068 21.7650073,4.13636364 20.78125,4.13636364 L17.21875,4.13636364 C16.2349927,4.13636364 15.4375,4.93004068 15.4375,5.90909091 L15.4375,10.0454545 L22.5625,10.0454545 Z" id="Shape" fill-rule="nonzero"></path>
                                <polygon id="Path" points="8.3125 16.5454545 21.375 16.5454545 21.375 20.0909091 8.3125 20.0909091"></polygon>
                                <polygon id="Path" points="8.3125 23.6363636 27.3125 23.6363636 27.3125 27.1818182 8.3125 27.1818182"></polygon>
                                <polygon id="Path" points="8.3125 30.7272727 27.3125 30.7272727 27.3125 34.2727273 8.3125 34.2727273"></polygon>
                                <polygon id="Path" points="8.3125 37.8181818 27.3125 37.8181818 27.3125 41.3636364 8.3125 41.3636364"></polygon>
                            </g>
                        </g>
                    </g>
                </g>
            </g>
        </g>
    </g>
</svg>