<?xml version="1.0" encoding="utf-8"?>
<!-- Generator: Adobe Illustrator 24.0.1, SVG Export Plug-In . SVG Version: 6.00 Build 0)  -->
<svg version="1.1" id="Capa_1" xmlns="http://www.w3.org/2000/svg" xmlns:xlink="http://www.w3.org/1999/xlink" x="0px" y="0px"
	 viewBox="0 0 25 29" style="enable-background:new 0 0 25 29;" xml:space="preserve">
<style type="text/css">
	.st0{fill-rule:evenodd;clip-rule:evenodd;fill:#28A3AF;stroke:#28A3AF;stroke-width:2;}
</style>
<title>Fill 1</title>
<desc>Created with Sketch.</desc>
<g id="Symbols">
	<g id="Components-_x2F_-Map-_x2F_-Pin-3" transform="translate(1.000000, 1.000000)">
		<path id="Fill-1" class="st0" d="M22.3,3.7c-0.4-1.8-1.4-2.7-3.1-3l-0.2,0c-4.1-0.9-10.8-0.9-15,0l-0.2,0c-1.7,0.4-2.7,1.2-3.1,3
			l0,0.2c-0.9,4-0.9,10.4,0,14.4l0,0.1c0.4,1.7,1.4,2.7,3.1,3l0.2,0c1,0.2,2.1,0.4,3.4,0.5l3,4.2l0.3,0.5c0.4,0.5,1.2,0.5,1.6,0
			l0.3-0.5l3-4.2c1.2-0.1,2.4-0.3,3.4-0.5l0.2,0c1.7-0.4,2.7-1.3,3.1-3l0-0.1c0.9-4,0.9-10.4,0-14.4L22.3,3.7z"/>
	</g>
</g>
</svg>
