<?xml version="1.0" encoding="UTF-8"?>
<svg width="25px" height="29px" viewBox="0 0 25 29" version="1.1" xmlns="http://www.w3.org/2000/svg" xmlns:xlink="http://www.w3.org/1999/xlink">
    <!-- Generator: Sketch 59.1 (86144) - https://sketch.com -->
    <title>Fill 1</title>
    <desc>Created with Sketch.</desc>
    <g id="Symbols" stroke="none" stroke-width="1" fill="none" fill-rule="evenodd">
        <g id="Components-/-Map-/-Pin-3" transform="translate(1.000000, 1.000000)" fill="#1A1446" stroke="#1A1446" stroke-width="2">
            <path d="M22.2789788,3.7399455 C21.8659154,1.98796103 20.8843146,1.06472427 19.1667433,0.705469028 L18.9919503,0.671019895 C14.8548758,-0.223673298 8.14558418,-0.223673298 4.0075897,0.671019895 L3.83371665,0.705469028 C2.11522539,1.06472427 1.10418583,1.93481094 0.72976081,3.70746489 L0.697562098,3.86002534 C-0.232520699,7.84431361 -0.232520699,14.3059867 0.697562098,18.290275 L0.72976081,18.4093705 C1.08854646,20.142654 2.11522539,21.0865603 3.83279669,21.4448313 L4.0075897,21.4782961 C5.00482981,21.6938493 6.15294388,21.8562523 7.37649494,21.9674738 L10.349816,26.1348346 L10.6865225,26.6397605 C11.1354646,27.1200798 11.8631555,27.1200798 12.3130175,26.6397605 L12.649724,26.1358189 L15.6230451,21.9684581 C16.8465961,21.8562523 17.9947102,21.6938493 18.9919503,21.4782961 L19.1667433,21.4448313 C20.8843146,21.0865603 21.9027139,20.1367485 22.274379,18.4093705 L22.3038178,18.290275 C23.2320607,14.3059867 23.2320607,7.84431361 22.3038178,3.86002534 L22.2789788,3.7399455 Z" id="Fill-1"></path>
        </g>
    </g>
</svg>