<?xml version="1.0"?>
<svg viewBox="0 0 13 16" xmlns="http://www.w3.org/2000/svg" xmlns:svg="http://www.w3.org/2000/svg" version="1.1">
 <g class="layer">
  <title>Layer 1</title>
  <g fill="#006729" fill-rule="evenodd" id="DSK-Siniestros" transform="translate(0 -0.166667) translate(0 0.166667) translate(0 0.166667) translate(0 0.166667) translate(0 0.166667) translate(0 0.166667) translate(-1 0) matrix(-1 1.22465e-16 -1.22465e-16 -1 13.9 15.12)">
   <path d="m1.3,8.27l0,4.81c0,0.4 0.33,0.73 0.74,0.73l8.82,0c0.41,0 0.74,-0.33 0.74,-0.73l0,-4.81l1.3,0l0,4.81c0,1.12 -0.91,2.04 -2.04,2.04l-8.82,0c-1.13,0 -2.04,-0.92 -2.04,-2.04l0,-4.81l1.3,0zm5.76,-8.27l0,9.68l1.89,-1.87l0.86,0.85l-2.93,2.89c-0.24,0.23 -0.62,0.23 -0.86,0l-2.93,-2.89l0.86,-0.85l1.89,1.87l0,-9.68l1.22,0z" id="path-1"/>
  </g>
 </g>
</svg>
