<svg class="lm-Icon lm-Icon-Motorcycle" aria-label="IconMotorcycle" viewBox="0 0 32 32" xmlns="http://www.w3.org/2000/svg" focusable="false" role="img" label="Motorcycle"><path d="M21.89 4.853l3.362 2.293a.75.75 0 0 1 .23.99l-2.47 4.349 1.539 3.449a5.766 5.766 0 0 1 1.655-.244A5.8 5.8 0 0 1 32 21.484a5.801 5.801 0 0 1-5.794 5.794 5.801 5.801 0 0 1-5.794-5.794 5.79 5.79 0 0 1 2.77-4.934l-1.09-2.445-4.405 7.754a.75.75 0 0 1-.652.379h-5.42c-.372 2.839-2.801 5.04-5.74 5.04A5.802 5.802 0 0 1 .08 21.484c0-3.195 2.6-5.794 5.794-5.794a5.75 5.75 0 0 1 3.51 1.195l.335-.726a.75.75 0 0 1 .68-.436h7.383a2.419 2.419 0 0 0 2.415-2.415 2.418 2.418 0 0 0-2.415-2.415h-4.217a2.418 2.418 0 0 0-2.415 2.415.75.75 0 0 1-.75.75H1.915a.75.75 0 0 1-.53-.22L.22 12.673l1.06-1.061.946.946h7.498a3.92 3.92 0 0 1 3.842-3.165h4.217c1.742 0 3.204 1.15 3.71 2.727l2.343-4.124-2.791-1.904.845-1.24zm4.316 12.337c-.358 0-.7.056-1.033.139l1.395 3.125c.416.157.715.553.715 1.025a1.103 1.103 0 0 1-2.207 0c0-.163.04-.315.104-.454l-1.381-3.095a4.292 4.292 0 0 0 2.407 7.848 4.299 4.299 0 0 0 4.294-4.294 4.299 4.299 0 0 0-4.294-4.294zm-20.331 0a4.299 4.299 0 0 0-4.294 4.294 4.299 4.299 0 0 0 4.294 4.294c2.11 0 3.86-1.532 4.219-3.54h-3.39a1.089 1.089 0 0 1-.817.379 1.103 1.103 0 1 1 .783-1.88h3.425a4.294 4.294 0 0 0-4.22-3.547zm12.78-.073a3.92 3.92 0 0 1-.872.106h-2.644v2.12h-1.5v-2.12h-2.757l-.37.8a5.751 5.751 0 0 1 1.104 2.715h4.982zm9.011-8.46v1.5a1.106 1.106 0 0 0 0 2.209v1.5a2.607 2.607 0 0 1-2.604-2.603 2.607 2.607 0 0 1 2.604-2.605z" style="fill:#4fbf97;fill-opacity:1"></path></svg>
