<svg xmlns="http://www.w3.org/2000/svg" width="96" height="96" viewBox="0 0 96 96">
  <g id="Grupo_28763" data-name="Grupo 28763" transform="translate(-298 -933)">
    <g id="Elipse_425" data-name="Elipse 425" transform="translate(298 933)" fill="#fff" stroke="#65a518" stroke-width="1">
      <circle cx="48" cy="48" r="48" stroke="none"/>
      <circle cx="48" cy="48" r="47.5" fill="none"/>
    </g>
    <g id="Stepper" transform="translate(298.301 930.55)">
      <g id="Group-5" transform="translate(0 4)">
        <g id="Elements-_-Icon-_-Liberty-_-Chat-1" data-name="Elements-/-Icon-/-Liberty-/-Chat-1" transform="translate(21 24)">
          <path id="Mask" d="M51.3,3.675l0,26.95a1.171,1.171,0,0,1-.4.867,1.423,1.423,0,0,1-.954.358H28.35V29.4H48.6l0-24.5H5.4V42.368L19.3,29.759,21.2,31.492,5,46.192a1.423,1.423,0,0,1-.955.358,1.458,1.458,0,0,1-.516-.093A1.23,1.23,0,0,1,2.7,45.325V3.675A1.292,1.292,0,0,1,4.05,2.45h45.9A1.293,1.293,0,0,1,51.3,3.675ZM12.15,12.25V9.8h10.8v2.45Zm0,4.9V14.7h27v2.45Zm0,4.9V19.6h27v2.45Z" fill="#006729"/>
        </g>
      </g>
    </g>
  </g>
</svg>
