<svg xmlns="http://www.w3.org/2000/svg" xmlns:xlink="http://www.w3.org/1999/xlink" width="96" height="96" viewBox="0 0 96 96">
  <defs>
    <clipPath id="clip-path">
      <rect id="Rectángulo_6804" data-name="Rectángulo 6804" width="54" height="46.55" transform="translate(0 0)" fill="#006729"/>
    </clipPath>
  </defs>
  <g id="Grupo_28765" data-name="Grupo 28765" transform="translate(-517 -933)">
    <g id="Grupo_28764" data-name="Grupo 28764" transform="translate(219)">
      <g id="Elipse_425" data-name="Elipse 425" transform="translate(298 933)" fill="#fff" stroke="#65a518" stroke-width="1">
        <circle cx="48" cy="48" r="48" stroke="none"/>
        <circle cx="48" cy="48" r="47.5" fill="none"/>
      </g>
    </g>
    <g id="Grupo_28769" data-name="Grupo 28769" transform="translate(538 955)">
      <g id="Grupo_28769-2" data-name="Grupo 28769" clip-path="url(#clip-path)">
        <path id="Trazado_15808" data-name="Trazado 15808" d="M52.65,9.8A1.293,1.293,0,0,1,54,11.025v34.3a1.293,1.293,0,0,1-1.35,1.225H1.35A1.293,1.293,0,0,1,0,45.325v-34.3A1.293,1.293,0,0,1,1.35,9.8h24.3V0h2.7V15.6h-2.7V12.25H2.7V44.1H51.3V12.25H31.049V9.8Zm-24.3,14.7h16.11v2.45H28.349Zm-16.411-.584a2.964,2.964,0,0,1,3.091-2.809,2.966,2.966,0,0,1,3.1,2.809,2.964,2.964,0,0,1-3.1,2.8,2.962,2.962,0,0,1-3.091-2.8m8.887,0a5.551,5.551,0,0,1-5.8,5.254,5.549,5.549,0,0,1-5.791-5.254,5.551,5.551,0,0,1,5.791-5.259,5.553,5.553,0,0,1,5.8,5.259M6.8,36.724c0-4.147,3.72-7.521,8.29-7.521s8.292,3.374,8.292,7.521h-2.7a5.356,5.356,0,0,0-5.592-5.071A5.356,5.356,0,0,0,9.5,36.724ZM28.349,29.4h16.11v2.45H28.349Zm0,4.9h10.8v2.45h-10.8Z" fill="#006729" fill-rule="evenodd"/>
      </g>
    </g>
  </g>
</svg>
