<svg xmlns="http://www.w3.org/2000/svg" xmlns:xlink="http://www.w3.org/1999/xlink" width="96" height="96" viewBox="0 0 96 96">
  <defs>
    <clipPath id="clip-path">
      <rect id="Rectángulo_6803" data-name="Rectángulo 6803" width="47.704" height="33.075" transform="translate(0 0)" fill="#006729"/>
    </clipPath>
  </defs>
  <g id="Grupo_28766" data-name="Grupo 28766" transform="translate(-517 -933)">
    <g id="Grupo_28764" data-name="Grupo 28764" transform="translate(219)">
      <g id="Elipse_425" data-name="Elipse 425" transform="translate(298 933)" fill="#fff" stroke="#65a518" stroke-width="1">
        <circle cx="48" cy="48" r="48" stroke="none"/>
        <circle cx="48" cy="48" r="47.5" fill="none"/>
      </g>
    </g>
    <g id="Grupo_28770" data-name="Grupo 28770" transform="translate(541 964)">
      <g id="Grupo_28767" data-name="Grupo 28767" clip-path="url(#clip-path)">
        <path id="Trazado_15807" data-name="Trazado 15807" d="M45,9.479H42.2l-.75-1.925H45Zm-8.52,10.209L35.8,17.9a.117.117,0,0,1,.034-.083.148.148,0,0,1,.118-.053H42.73v1.926ZM11.75,17.762a.151.151,0,0,1,.119.052.124.124,0,0,1,.033.084l-.686,1.79H4.968V17.762ZM2.7,7.554H6.25L5.5,9.479H2.7Zm7.956-3.962a1.8,1.8,0,0,1,1.75-1.142H35.3a1.8,1.8,0,0,1,1.747,1.136l2.579,6.622H8.08ZM45.135,5.1A2.461,2.461,0,0,1,47.7,7.435V9.6a2.461,2.461,0,0,1-2.569,2.331H43.688l1.449,1.661a1.147,1.147,0,0,1,.293.76l0,16.393a2.462,2.462,0,0,1-2.569,2.332h-5.6A2.461,2.461,0,0,1,34.7,30.743v-1.81h2.7v1.692h5.337l0-8.487H36.27a2.37,2.37,0,0,1-2.326-1.619l-.731-1.909a1.166,1.166,0,0,1-.04-.127,2.4,2.4,0,0,1,.547-2.194,2.95,2.95,0,0,1,2.231-.976H42.73v-.536l-1.849-2.119H6.824L4.968,14.777v.536H11.75a2.95,2.95,0,0,1,2.231.976,2.4,2.4,0,0,1,.547,2.194,1.167,1.167,0,0,1-.04.127l-.731,1.908a2.369,2.369,0,0,1-2.327,1.62H4.968v8.487H10.3V28.933H13v1.81a2.461,2.461,0,0,1-2.568,2.332h-5.6a2.461,2.461,0,0,1-2.568-2.332V14.35a1.154,1.154,0,0,1,.293-.762l1.452-1.659H2.57A2.462,2.462,0,0,1,0,9.6V7.435A2.462,2.462,0,0,1,2.57,5.1H7.2L8.113,2.77A4.522,4.522,0,0,1,12.406,0H35.3a4.521,4.521,0,0,1,4.291,2.764L40.5,5.1ZM8.439,24.8H39.262v2.45H8.439Z" fill="#006729" fill-rule="evenodd"/>
      </g>
    </g>
  </g>
</svg>
