<svg class="lm-Icon lm-Icon-CommercialAuto" aria-label="IconCommercialAuto" width="32" height="32" viewBox="0 0 32 32" xmlns="http://www.w3.org/2000/svg" focusable="false" role="img" label="Commercial Auto"><path d="M8.224 18.802a3.76 3.76 0 0 1 3.755 3.755 3.76 3.76 0 0 1-3.755 3.754 3.76 3.76 0 0 1-3.755-3.754 3.76 3.76 0 0 1 3.755-3.755zm15.347 0a3.76 3.76 0 0 1 3.755 3.755 3.76 3.76 0 0 1-3.755 3.754 3.76 3.76 0 0 1-3.755-3.754 3.76 3.76 0 0 1 3.755-3.755zM8.224 20.467a2.091 2.091 0 0 0-2.089 2.09c0 1.152.937 2.09 2.09 2.09 1.151 0 2.09-.938 2.09-2.09 0-1.153-.939-2.09-2.09-2.09zm15.347 0c-1.152 0-2.09.937-2.09 2.09 0 1.152.938 2.09 2.09 2.09a2.091 2.091 0 0 0 2.089-2.09c0-1.153-.937-2.09-2.09-2.09zm-5.5.896v1.736h-4.434v-1.736h4.434zm3.637-15.67c.794 0 1.44.646 1.44 1.44v2.943h3.964a1.44 1.44 0 0 1 1.26.743l3.477 5.214c.099.197.15.42.15.642v4.984c0 .794-.645 1.44-1.44 1.44h-1.5v-1.736h1.206v-4.59l-3.317-4.962h-5.536V7.428H1.738l.066 13.935h.888v1.736H1.51a1.444 1.444 0 0 1-1.441-1.433L-.001 7.14c0-.387.149-.75.42-1.023a1.43 1.43 0 0 1 1.022-.424h20.267zm1.296 7.426v2.297h4.051l1.215 1.62h-6.886V13.12h1.62zm-10.702-2.942l.038.004.076-.004a2.428 2.428 0 0 1 2.425 2.425c0 .282-.05.552-.14.805h2.207a.81.81 0 1 1 0 1.62h-4.39l-.035-.004c-.022.001-.044.004-.067.004a2.428 2.428 0 0 1-2.425-2.425c0-.283.051-.553.14-.805h-2.78a.81.81 0 0 1 0-1.62h4.951zm.114 1.401c-.564 0-1.024.46-1.024 1.024a1.025 1.025 0 0 0 2.048 0c0-.565-.46-1.024-1.024-1.024z" style="fill:#28a3af;fill-opacity:1"></path></svg>
