<svg xmlns="http://www.w3.org/2000/svg" id="logoLibertyAzul" class="svg-logo-liberty" width="140" viewBox="0 0 729.975 366.556">
  <g id="logoAzul" data-name="logoAzul" transform="translate(-588.406 -209.205)">
    <path id="camino_8" data-name="camino 8" d="M958.979,325.589a9.389,9.389,0,1,0-6.634-2.757A9.357,9.357,0,0,0,958.979,325.589Z" fill="#1b1247"></path>
    <path id="camino_9" data-name="camino 9" d="M1179.07,381.423c0,12.452,8.16,17.248,18.36,17.248a17.968,17.968,0,0,0,17.22-9.636l-1.66-1.54a10.147,10.147,0,0,1-7.8,4.4c-7.58,0-9.9-5.192-9.9-13.9V346.84h14.41c7.85,0,10.08,2.947,13.59,10.12l19.72,41.755c-6.62,17.6-12.23,24.992-22.39,24.992a18.566,18.566,0,0,1-7.19-1.32l-3.37,16.279a22.994,22.994,0,0,0,4.38.352c11.17,0,17.31-4.708,23.09-18l27.21-62.215c4.39-10.119,6.27-12.055,13.15-13.991V342.4h-22.44v2.42c6.84,1.452,8.37,5.764,3.59,17.247l-7.45,17.38-11.43-23.628c-3.24-6.864-3.24-10.031,2.89-11V342.4h-47.76V321.584h-2.72a100.81,100.81,0,0,1-23.09,22.439V346.8h9.59Z" fill="#1b1247"></path>
    <path id="camino_10" data-name="camino 10" d="M1124.16,355.511v28.6c0,6.116-1.79,8.272-8.76,9.988v2.376h34.09V394.01c-7.93-1.628-9.12-3.652-9.12-9.988v-22c4.08-5.764,7.06-7.7,11.92-7.7,3.68,0,7.45,2.376,12.14,7l3.59-16.412a12.715,12.715,0,0,0-9.46-4.4c-6.75,0-12.62,5.544-17.92,17.247h-.23V340.287h-2.54l-23.44,2.156v2.42a9.179,9.179,0,0,1,4.05.635,9.284,9.284,0,0,1,3.37,2.336,9.246,9.246,0,0,1,2.31,7.677Z" fill="#1b1247"></path>
    <path id="camino_11" data-name="camino 11" d="M1083.76,398.664a30.236,30.236,0,0,0,28.88-18.832h-2.41a22.205,22.205,0,0,1-19.24,11.836,16.589,16.589,0,0,1-7.45-1.8c-6.96-3.388-12.35-11.968-11.65-25.211h40.75a26.981,26.981,0,0,0-28.26-24.376,2.084,2.084,0,0,0-.84,0,28.953,28.953,0,0,0-26.95,18.17,29.159,29.159,0,0,0-2.1,11.265,28.286,28.286,0,0,0,29.27,28.952Zm-.27-54.38h.26c6.41,0,11.22,7.215,11.66,17.115H1072.1c.26-10.251,4.73-17.115,11.31-17.115Z" fill="#1b1247" fill-rule="evenodd"></path>
    <path id="camino_12" data-name="camino 12" d="M940.09,374.781h-2.411c-6.7,13.9-11.524,17.071-21.906,17.071s-13.147-2.2-13.147-9.107V326.293c0-7.348,2.275-9.064,10.56-11.22V312.7h-39.44v2.376c8.767,2.156,10.471,4.4,10.471,11.836v53.547c0,9.064-.876,11.22-10.471,13.685v2.376h63.933Z" fill="#1b1247"></path>
    <path id="camino_13" data-name="camino 13" d="M985.729,318.812v77.659a132.247,132.247,0,0,0,26.291,2.2h4.08c23.17-1.452,32.07-14.651,32.07-30.315s-11.04-27.984-25.55-27.984a29.751,29.751,0,0,0-6.48.836,31.368,31.368,0,0,0-14.29,8.8V306.756h-2.363l-21.913,1.584v2.508c5,.88,8.155,3.388,8.155,7.964Zm16.121,35.2c5.44-4.973,8.33-6.424,12.63-6.424a7.808,7.808,0,0,1,1.66,0c8.77.967,14.33,9.9,14.33,22.263,0,14.7-5.52,22-14.33,24.244a30.775,30.775,0,0,1-5.7.572c-6.43,0-8.76-2.861-8.76-9.064Z" fill="#1b1247" fill-rule="evenodd"></path>
    <path id="camino_14" data-name="camino 14" d="M950.76,355.015v28.732c0,6.908-1.663,8.8-8.983,10.384v2.375h33.742V394c-6-.747-8.767-3.783-8.767-9.195V340.539h-2.41l-23.4,1.936v2.42c7.891,1.672,9.819,3.476,9.819,10.12Z" fill="#1b1247"></path>
    <path id="camino_15" data-name="camino 15" d="M1216.37,480.235v3.872c10.17,0,14.99,9.636,14.99,24.112s-5.39,24.287-14.99,24.287c-9.42,0-15.2-9.284-15.2-23.364s3.89-23.715,13.14-24.947a11.957,11.957,0,0,1,1.93,0v-3.96a31.652,31.652,0,0,0-26.29,11.087,31.652,31.652,0,0,1,26.29-11.087c-24.59,0-32.29,17.2-32.29,27.984a26.786,26.786,0,0,0,2.66,11.571l.49,1.056c4.64,8.8,14.32,15.444,29.09,15.444h0c21.52,0,32.08-14.476,32.08-28.16.18-12.671-9.59-27.9-31.9-27.9Zm-14.98,53.152-1.49-.66Zm6.36,1.939-1.93-.44Zm-3.36-.834-1.66-.528Zm-10.58-5.586-.89-.747Zm4.8,3.206-1.27-.705Zm-2.54-1.5-1.1-.748Zm-4.93-4.4.61.7Zm-1.49-1.759.34.44Zm19.39,11,2.32.308Z" fill="#1b1247" fill-rule="evenodd"></path>
    <path id="camino_16" data-name="camino 16" d="M1265.75,489.879c0-3.476,3.64-5.764,8.42-5.764a17.426,17.426,0,0,1,9.94,3.705,17.615,17.615,0,0,1,6.01,8.791h2.27V480.419h-2.27a5.193,5.193,0,0,1-3.11,1.364c-.97,0-3.25-.395-5.75-.791a59.136,59.136,0,0,0-8.06-.793c-11.35,0-18.09,7.744-18.09,15.8,0,19.668,30.67,15.224,30.67,28.908a8.828,8.828,0,0,1-3.12,5.619,8.716,8.716,0,0,1-6.08,1.992c-7.5,0-13.68-5.411-18.85-16.411h-2.28v20.283h2.28a6.724,6.724,0,0,1,2.2-1.45,6.63,6.63,0,0,1,2.58-.486,28.18,28.18,0,0,1,6.18.969,47.593,47.593,0,0,0,8.5.967,18.628,18.628,0,0,0,12.87-5.236,18.818,18.818,0,0,0,5.71-12.715c-.09-21.384-30.02-17.556-30.02-28.556Z" fill="#1b1247"></path>
    <path id="camino_17" data-name="camino 17" d="M1318.38,421.682h-70.07v4.488h70.07Z" fill="#1b1247"></path>
    <path id="camino_18" data-name="camino 18" d="M1154.53,496.83V480.242h-2.36l-22.65,2.156v2.332a8.654,8.654,0,0,1,3.91.553,8.806,8.806,0,0,1,5.5,9.655v27.368c0,5.808-1.75,7.919-8.76,9.68v2.331h33.04v-2.331c-7.71-1.54-8.76-3.432-8.76-9.68V501.1c3.94-5.632,6.88-7.348,11.48-7.348a18.405,18.405,0,0,1,11.57,6.556l3.41-15.62a11.974,11.974,0,0,0-8.98-4.4c-6.66-.044-12.22,5.148-17.4,16.544Z" fill="#1b1247"></path>
    <path id="camino_19" data-name="camino 19" d="M1197.6,421.682H871v4.488h326.6Z" fill="#1b1247"></path>
    <path id="camino_20" data-name="camino 20" d="M959.354,504h28a25.973,25.973,0,0,0-27.3-23.584h-.747A27.918,27.918,0,0,0,931.485,508.4a27.012,27.012,0,0,0,27.869,27.587,29.7,29.7,0,0,0,28-17.731h-2.492a21.564,21.564,0,0,1-18.45,11.351,15.554,15.554,0,0,1-7.1-1.76c-6.743-3.3-11.958-11.4-11.13-24.067Zm.007-19.661c6.179,0,10.736,6.908,11.347,16.368H948.184c.394-9.9,4.645-16.588,10.96-16.588Z" fill="#1b1247" fill-rule="evenodd"></path>
    <path id="camino_21" data-name="camino 21" d="M1118.22,521.6V480.242h-2.37l-21.34,2.156v2.332c5.35.924,8.06,3.432,8.06,7.7V518.3c-4.38,7.084-7.66,9.416-12.84,9.416a8.809,8.809,0,0,1-9-5.427,8.917,8.917,0,0,1-.64-3.682V480.242h-2.32l-21.12,2.156v2.332c6.13,1.144,8.02,3.3,8.02,9.064v26.8c0,9.855,6.35,15.839,17.13,15.839,8.28,0,14.81-3.872,20.6-12.759v12.759l23.84-2.112v-2.331c-6.71-1.981-8.02-3.521-8.02-10.385Z" fill="#1b1247"></path>
    <path id="camino_22" data-name="camino 22" d="M888.047,475.629a13.243,13.243,0,0,1-3.81-8.492,11.974,11.974,0,0,1,12.882-10.823A23.287,23.287,0,0,1,917.232,472.9h2.323V451.693h-2.323a5.882,5.882,0,0,1-4.379,2.112,29.727,29.727,0,0,1-6.751-.967,34.086,34.086,0,0,0-8.236-1.145c-14.593,0-24.976,9.68-24.976,23.54a23.285,23.285,0,0,0,7.137,16.984c6.709,6.732,20.514,12.76,26.687,18.92a13.552,13.552,0,0,1,4.386,9.284c0,6.512-6.138,11.395-14.81,11.395-11.354,0-19.02-8.272-21.3-20.239h-2.363v24.287h2.363a4.384,4.384,0,0,1,3.993-2.684c4.38,0,9.772,3.3,19.367,3.3s25.634-6.072,25.634-23.672a25,25,0,0,0-8.767-18.479c-4.861-5.016-23.311-14.652-27.168-18.7Z" fill="#1b1247"></path>
    <path id="camino_23" data-name="camino 23" d="M1019.31,480.238h-.97c-15.6,0-26.292,9.46-26.292,21.428,0,8.8,5.344,14.476,17.312,18.3-12.1,2.683-16.741,5.631-16.741,11.616s2.274,10.779,18.051,12.319v.4c-15.206,1.32-21.908,8.8-21.908,15.224,0,9.68,12.048,16.236,29.758,16.236h.96c21.91-.4,33.17-11.792,33.17-23.54a17.321,17.321,0,0,0-4.78-11.4c-6.7-6.557-19.01-7.7-28.44-8.8-8.06-.793-14.45-1.585-14.45-5.412s5.29-5.016,14.33-5.016h2.27c15.25,0,24.59-8.8,24.59-18.876a16.2,16.2,0,0,0-6.89-13.2l.36-.395,13.14.967v-9.5h-26.99Zm0,65.993c9.02.616,24.54,3.256,24.54,12.408,0,4.8-5.57,8.448-13.15,8.448a65.446,65.446,0,0,1-11.3-1.1c-9.03-1.54-18.28-5.192-18.28-11.967,0-4.84,5.78-7.92,14.42-7.92a32.561,32.561,0,0,1,3.77.264Zm11.48-45.665c0,12.144-5.16,16.984-11.47,16.984-7.1,0-11.75-6.38-11.75-16.544,0-11.22,4.03-16.632,11.75-16.984h.52c5.96.088,10.95,5.28,10.95,16.632Z" fill="#1b1247" fill-rule="evenodd"></path>
    <path id="camino_24" data-name="camino 24" d="M843.363,353.127c-.788-1.1-2.764,0-2.764,0l-32.907,12.012a108.235,108.235,0,0,0-8.767-17.6l10.607-29.083s1.358-2.816,0-3.565-3.11,1.189-3.11,1.189l-19.238,15.883a83.355,83.355,0,0,0-26.293-19.228,94.825,94.825,0,0,0-11.876-4.4l-5.963-22.88s-.393-2.376-2.01-2.376-1.928,2.2-1.928,2.2L735.257,306a102.221,102.221,0,0,0-12.929-.924,92.6,92.6,0,0,0-38.211,7.831,75.118,75.118,0,0,0-13.5,7.744c-.7.44-1.4.968-2.1,1.453-3.939-10.3-7.008-18.613-7.62-21.076a37.219,37.219,0,0,0,7.932-14.388,23.937,23.937,0,0,0-.53-15.356,45.2,45.2,0,0,1-3.463-9.812,6.693,6.693,0,0,1,1.929-4,4.389,4.389,0,0,0-4.075-3.783,17.406,17.406,0,0,0-4.821.4c-.306-.88-1.182-.705-.571-3.3.876-3.959,8.414-5.852,14.729-8.271a18.2,18.2,0,0,0,12.441-17.6,14.615,14.615,0,0,0-8.237-14.08,18.434,18.434,0,0,1-7.4,7.744,13.114,13.114,0,0,1-8.767,1.364,10.193,10.193,0,0,0-5.167-10.736,13.4,13.4,0,0,1-11.877,4.8,145.7,145.7,0,0,0-15.775-1.716c-12.8,0-23.448,7.832-24.717,19.184a25.584,25.584,0,0,0,4.38,16.808,46.117,46.117,0,0,0-6.092,5.9,4.717,4.717,0,0,0-6.484-.483,8.822,8.822,0,0,1,.264,5.455,71.892,71.892,0,0,0-6,18.348,22.9,22.9,0,0,0,12.223,23.232,5.979,5.979,0,0,0-.611,5.94,4.374,4.374,0,0,0,4.38,2.243,5.9,5.9,0,0,0-1.093,6.469c1.093,2.727,4.074,6.555,6.838,6.555a50.955,50.955,0,0,0,1.4,9.768,11.065,11.065,0,0,0-1.711,6.292,6.9,6.9,0,0,0,1.4,4.143,6.817,6.817,0,0,0,3.6,2.457,16.036,16.036,0,0,0,2.1,4.4,16.272,16.272,0,0,0,3.768,3.74,12.849,12.849,0,0,0,7.144,2.419,24.174,24.174,0,0,0,6.22-.263c0,.836.265,7.876.659,15.707a191.532,191.532,0,0,0-10.213,63.624c0,41.755,11.836,79.2,34.489,103a22.723,22.723,0,0,0,4.95,4.005,243.016,243.016,0,0,1,17.927-25.916,84.276,84.276,0,0,1,9.29-10.252c5.3-4.4,10.424-8.8,15.51-12.408a128.686,128.686,0,0,1,44.919-19.931,183.146,183.146,0,0,0-42.862,27.455,158.27,158.27,0,0,0-37.511,45.407,17.852,17.852,0,0,0,9.032,4.092c2.363-2.728,14.416-24.9,32.954-42.767a155.005,155.005,0,0,1,104.643-42.855A221.791,221.791,0,0,0,820,434.262a209.536,209.536,0,0,0-5.215-47.3l27.481-30.8S844.191,354.4,843.363,353.127Z" fill="#1b1247"></path>
    <path id="camino_25" data-name="camino 25" d="M644.979,391.318c-.611-1.232-3.81-66.307-3.81-68.594l3.416-2.509v-.66a8.745,8.745,0,0,1-6.4-2.552l-.876-19.8a15.346,15.346,0,0,1-8.413-2.728,5.643,5.643,0,0,1-.876-7.568,23.259,23.259,0,0,0,11.218,2.728c.876,0,2.893,2.068,3.945,2.552s3.463,1.716,4.38,2.156,1.446,2.508,1.711,3.256,32.384,84.523,32.907,85.49,2.452,15,2.5,16.06a115.4,115.4,0,0,0,5.915,13.464,25.477,25.477,0,0,0-17.092,7.788,56.5,56.5,0,0,0-11.653,22.967c-.353-2.772-16.3-50.863-16.874-52.051Z"></path>
    <path id="camino_26" data-name="camino 26" d="M638.414,339.271a20.969,20.969,0,0,0-9.507-2.992,18.923,18.923,0,0,0-9.643,2.684,3.438,3.438,0,0,1-.828-4.4,3.6,3.6,0,0,1,1.881-2.068l-1.005-17.6a42.6,42.6,0,0,1,6.268-3.916,2.605,2.605,0,0,0,1.432-1.047,2.633,2.633,0,0,0,.449-1.725,34.533,34.533,0,0,1,7.143,7.216,13.956,13.956,0,0,1,2.628,7.612,44.47,44.47,0,0,1-.393,9.68,4.93,4.93,0,0,1,2.233,3.124,5.18,5.18,0,0,1-.658,3.432Z" fill="#fff"></path>
    <path id="camino_27" data-name="camino 27" d="M797.7,394.008a33.275,33.275,0,0,0-6.574-14.652l41.5-18.567Z" fill="#fff"></path>
    <path id="camino_28" data-name="camino 28" d="M683.812,324.832l35.053,32.031a25.671,25.671,0,0,0-9.859,11.308Z" fill="#fff"></path>
    <path id="camino_29" data-name="camino 29" d="M704.32,388.191a12.429,12.429,0,0,0-1.969,5.281,13.651,13.651,0,0,0,0,5.455l-10.784-7.435c0-2.552-.57-6.732-.747-8.8v-.924Z" fill="#fff"></path>
    <path id="camino_30" data-name="camino 30" d="M685.923,471.214a81.623,81.623,0,0,1-9.249,31.943c-3.022,5.192-11.523,15.664-14.416,19.536a93.553,93.553,0,0,0,5.521-33.923c-.218-7.92-2.587-25.168-.483-36.652a41.844,41.844,0,0,1,13.846-26.4,26.225,26.225,0,0,1,24.983-5.456l9.86,18.568a21.825,21.825,0,0,0-16.915,3.431c-8.808,6.468-11.748,15.708-13.147,28.952Z" fill="#fff"></path>
    <path id="camino_31" data-name="camino 31" d="M686.789,496.563a155.935,155.935,0,0,0,6.437-26.091c1.189-6.6,2.235-16.324,10.125-22.748a16.211,16.211,0,0,1,12.752-2.949l11.26,22.748a6.571,6.571,0,0,0,6.4,3.212c-10.518,3.344-36.771,15.972-46.977,25.828Z" fill="#fff"></path>
    <path id="camino_32" data-name="camino 32" d="M781.848,423.783a7.135,7.135,0,0,0,0,7.481c1.141,1.979,7.056,12.847,7.056,12.847a76.342,76.342,0,0,0,5.079,10.736h10.342c-3.986-8.8-12.882-25.608-12.882-25.608l-.611-13.727a35.311,35.311,0,0,0-8.984,8.271Z" fill="#fff"></path>
    <path id="camino_33" data-name="camino 33" d="M734.3,351.148a41.752,41.752,0,0,1,17.526,1.716l-10.118-57.552Z" fill="#fff"></path>
    <path id="camino_34" data-name="camino 34" d="M712.525,375.608a21.287,21.287,0,0,0,0,10.251,11.463,11.463,0,0,0-4.386,7.084,7.574,7.574,0,0,0,1.84,6.557,12.782,12.782,0,0,1,3.069-7.657,20.66,20.66,0,0,1,6.573-4.4l.442,4.8a13.193,13.193,0,0,0-5.3,5.632l.265,7.964,6-3.652,1.134,2.464-2.1,13.9,3.456-.572,6.139,2.552-6,5.1v1.98a3.529,3.529,0,0,1,2.981-1.188,33.851,33.851,0,0,1,7.578,2.508v1.275h-10.7c-.434,1.365.835,2.377,1.623,2.992a17.27,17.27,0,0,1,3.592-1.187c.836,0,2.635.527,4.387.7l-1.888,2.508a3.447,3.447,0,0,1-2.8.4c-.964-.22-1.97,1.188-1.97,2.376a30.126,30.126,0,0,0,.7,4.4,4.855,4.855,0,0,0,6.179,3.52,92.918,92.918,0,0,0,12.488-3.7l-9.16,12.892,3.9,13.684a227.326,227.326,0,0,1,43.819-12.144c-2.193-3.563-2.451-5.016-5.038-10.251l-10.213-23.056L770.5,420a9.879,9.879,0,0,0,7.891-2.64,27.318,27.318,0,0,0,5.785-7,3.325,3.325,0,0,0-3.816,0c-1.182.88-2.146,2.376-3.769,1.672s-.916-2.816-.7-4.664-2.1-1.8-3.721-.44a5.811,5.811,0,0,1-7.232-1.408,140.516,140.516,0,0,0-16.521-13.2A28.434,28.434,0,0,0,730.14,389.6c-3.2.571-5.432,1.979-6.621,1.363l-3.938-6.16.482-.484c1.358.616,2.757,1.716,4.38,1.056a61.125,61.125,0,0,1,13.146-2.023,63.808,63.808,0,0,1,21.913,4.663c0,5.28,10.648,11.88,15.381,12.408a12,12,0,0,0,8.76-1.98l-10.118-8.8,5.344-6.864s8.767,8.227,9.86,9.856a7.013,7.013,0,0,0-.306-3.609c-.441-2.639-6.926-10.383-17.967-18.787-8.767-6.644-21.384-13.2-31.773-13.2a25.551,25.551,0,0,0-26.158,18.568Z" fill="#fff"></path>
    <path id="camino_35" data-name="camino 35" d="M649.21,297.644c-.265-.748-.835-2.9-1.711-3.256s-3.151-1.628-4.38-2.156-3.069-2.552-3.945-2.552a23.275,23.275,0,0,1-11.13-2.772A5.648,5.648,0,0,0,629.1,294.3a15.346,15.346,0,0,0,8.413,2.728l.917,19.932a8.763,8.763,0,0,0,6.4,2.552v.66l-3.64,2.552c0,2.287,3.158,67.406,3.769,68.6s16.474,49.279,16.868,52.226a56.563,56.563,0,0,1,11.7-23.143,25.477,25.477,0,0,1,17.051-7.876,113.406,113.406,0,0,1-5.915-13.464c0-1.055-1.975-15.047-2.5-16.059s-32.69-84.523-32.955-85.359Z" fill="#fff"></path>
    <path id="camino_36" data-name="camino 36" d="M628.77,281.764a20.623,20.623,0,0,1,15.421,5.807,8.446,8.446,0,0,0-3.021-7.964,20.352,20.352,0,0,0-13.147-3.651,17.946,17.946,0,0,0-11.218,3.519,7.6,7.6,0,0,0-2.37,7.876c1.012-2.684,6.8-5.676,14.335-5.587Z" fill="#fff"></path>
    <path id="camino_37" data-name="camino 37" d="M612.477,233.985a14.692,14.692,0,0,0,2.41,9.195c.917,1.276,3.07,3.652,4.645,3.52,2.234,0,4.38-4.4,9.731-4.4,3.456,0,5.69,5.1,8.76,5.28,2.234,0,3.422-2.2,5.785-2.332s2.676.66,3.81,1.892a13.2,13.2,0,0,1,5-5.28c3.463-2.727,15.822-5.236,21.037-9.944a10.135,10.135,0,0,0,2.234-9.5,18.949,18.949,0,0,1-12.8,5.941,34.01,34.01,0,0,1-11.388-2.289,6.566,6.566,0,0,0,1.107-3.093,6.649,6.649,0,0,0-.536-3.242,33.925,33.925,0,0,1-12.142,2.111c-2.981,0-8.767-1.231-13.146-1.011a14.486,14.486,0,0,0-14.505,13.156Z" fill="#fff"></path>
    <path id="camino_38" data-name="camino 38" d="M629.3,264.333c21.078.484,30.673,10.164,30.673,18.26a15.178,15.178,0,0,0,.964-7.392c0-2.156-3.327-8.14-3.374-10.164a15.977,15.977,0,0,1,.706-5.28c-1.277.264-5.962,2.2-7.979.572s-.611-5.984-3.463-7.083-7.185,2.287-10.03,1.936-5.263-4.4-8.2-4.4-4.387,3.608-7.979,4.4c-2.757.615-6.132-1.1-7.8-.925s-2.892,1.54-3.768,3.256a4.436,4.436,0,0,1-1.324,2.021,4.373,4.373,0,0,1-2.187,1.015c-1.7.44-4.38-1.056-5.344-.836a9.508,9.508,0,0,1,.529,7.04,30.407,30.407,0,0,0-3.375,9.284,13.261,13.261,0,0,0,1.617,6.819c-.7-11.439,11.877-18.831,30.326-18.523Z" fill="#fff"></path>
    <path id="camino_39" data-name="camino 39" d="M616.037,304.909a13.548,13.548,0,0,0-6.05,5.193,13.211,13.211,0,0,0,3.9,6.423,11.985,11.985,0,0,1,3.239-5.368,26.333,26.333,0,0,1,3.681-2.068,2.205,2.205,0,0,0,1.446-2.288,7.181,7.181,0,0,0-.611-2.992c.964,0,2.981,0,3.681-.924a6.132,6.132,0,0,0,.964-3.343c0-1.145-.482-1.452-1.752-1.585a59.949,59.949,0,0,0-6.485,0l3.545-1.716a2.45,2.45,0,0,0,.814-.806,2.561,2.561,0,0,0,.374-1.086,12.791,12.791,0,0,0-.265-4,29.464,29.464,0,0,0-13.146,5.368l1.446,3.607h-2.628a10.341,10.341,0,0,0,.652,6.2,39.085,39.085,0,0,1,7.191-.616Z" fill="#fff"></path>
    <path id="camino_40" data-name="camino 40" d="M767.762,359.863a82.272,82.272,0,0,1,14.246,10.076l21.3-45.32Z" fill="#fff"></path>
    <path id="camino_41" data-name="camino 41" d="M727.019,402.8a12.456,12.456,0,0,1,5.649,4.4l3.158-.792-1.358-2.156a14.594,14.594,0,0,1,4.38-1.1,10.618,10.618,0,0,1,6.661,1.627l6.838-1.627.917-1.453c-4.774-3.784-11.612-7.436-17.526-6.2a37.073,37.073,0,0,0-8.767,3.476V402.8ZM769.1,385.855l4.95-6.951a141.473,141.473,0,0,0-16.827-10.736l-3.769,9.9A110.2,110.2,0,0,1,769.1,385.855Zm-39.019-10.248c4.387-.968,14.946-1.32,18.192.88l1.793-10.472a28.743,28.743,0,0,0-12.046-2.64,21.233,21.233,0,0,0-11.178,2.992Zm-13.449,7.613a52.069,52.069,0,0,1,8.767-6.336l-3.327-7.876c-2.323,2.376-7.192,8.4-5.392,14.344Z" fill="#1b1247" fill-rule="evenodd"></path>
  </g>
</svg>
