<svg xmlns="http://www.w3.org/2000/svg" xmlns:xlink="http://www.w3.org/1999/xlink"><defs><symbol viewBox="0 0 61 61" id="facebook">
                                <style type="text/css">
                                    #facebook .ststfooteruno{fill:#1A1446;}
                                </style>
  <path class="ststfooteruno" d="M42.7,30.3h-7.9V59H22.9V30.3h-5.7V20.1h5.7v-6.5c0-4.7,2.2-12,12-12l8.8,0v9.8h-6.4c-1.1,0-2.5,0.5-2.5,2.8v6
                                    h8.9L42.7,30.3z M42.7,30.3" />
                                </symbol><symbol fill="#ffffff" viewBox="0 0 50 50" id="fcb">    <path d="M25,2C12.318,2,2,12.317,2,25s10.318,23,23,23c12.683,0,23-10.317,23-23S37.683,2,25,2z M32,16h-3.29 C26.772,16,26,16.455,26,17.806V21h6l-1,5h-5v13h-6V26h-3v-5h3v-2.774C20,14.001,21.686,11,26.581,11C29.203,11,32,12,32,12V16z" /></symbol><symbol viewBox="0 0 20 21" fill="none" id="file-upload">
<path d="M19.7452 8.26252C19.5831 8.10047 19.3633 8.00943 19.134 8.00943C18.9048 8.00943 18.685 8.10047 18.5229 8.26252L9.10774 17.7187C8.7064 18.1201 8.22994 18.4385 7.70555 18.6558C7.18115 18.873 6.6191 18.9849 6.05149 18.9849C4.90514 18.985 3.80571 18.5297 2.99506 17.7191C2.18441 16.9085 1.72895 15.8091 1.72887 14.6627C1.72878 13.5163 2.18409 12.4169 2.99463 11.6062L12.1133 2.45C12.6009 1.97014 13.2584 1.7024 13.9425 1.70511C14.6266 1.70781 15.2819 1.98074 15.7657 2.46444C16.2495 2.94814 16.5226 3.60343 16.5254 4.28756C16.5283 4.97169 16.2607 5.62924 15.781 6.11697L6.66232 15.2732C6.49787 15.4307 6.27892 15.5187 6.05118 15.5187C5.82344 15.5187 5.6045 15.4307 5.44005 15.2732C5.27799 15.1111 5.18696 14.8912 5.18696 14.662C5.18696 14.4328 5.27799 14.2129 5.44005 14.0508L13.5586 5.89481C13.7161 5.73178 13.8032 5.51342 13.8012 5.28676C13.7992 5.06011 13.7083 4.84329 13.5481 4.68302C13.3878 4.52274 13.171 4.43183 12.9443 4.42986C12.7177 4.42789 12.4993 4.51502 12.3363 4.67249L4.21777 12.8285C3.97692 13.0693 3.78586 13.3552 3.65551 13.6699C3.52516 13.9846 3.45807 14.3218 3.45807 14.6624C3.45807 15.003 3.52516 15.3403 3.65551 15.655C3.78586 15.9696 3.97692 16.2555 4.21777 16.4964C4.71188 16.9679 5.36863 17.231 6.05162 17.231C6.7346 17.231 7.39135 16.9679 7.88546 16.4964L17.0033 7.3393C17.7968 6.52525 18.2377 5.43134 18.2304 4.29453C18.2231 3.15771 17.7682 2.06954 16.9644 1.26573C16.1605 0.461925 15.0723 0.00720794 13.9355 8.49553e-05C12.7987 -0.00703803 11.7049 0.434006 10.891 1.22768L1.77235 10.3839C0.637534 11.5187 -1.69101e-08 13.0579 0 14.6629C1.69101e-08 16.2678 0.637534 17.807 1.77235 18.9419C2.90717 20.0767 4.44631 20.7143 6.05118 20.7143C7.65606 20.7143 9.1952 20.0767 10.33 18.9419L19.7452 9.48831C19.8259 9.40797 19.89 9.31247 19.9338 9.20729C19.9775 9.10211 20 8.98933 20 8.87541C20 8.7615 19.9775 8.64872 19.9338 8.54354C19.89 8.43835 19.8259 8.34285 19.7452 8.26252Z" fill="#6BBBC5" />
</symbol><symbol viewBox="0 0 448 512" id="instagram"><path d="M224.1 141c-63.6 0-114.9 51.3-114.9 114.9s51.3 114.9 114.9 114.9S339 319.5 339 255.9 287.7 141 224.1 141zm0 189.6c-41.1 0-74.7-33.5-74.7-74.7s33.5-74.7 74.7-74.7 74.7 33.5 74.7 74.7-33.6 74.7-74.7 74.7zm146.4-194.3c0 14.9-12 26.8-26.8 26.8-14.9 0-26.8-12-26.8-26.8s12-26.8 26.8-26.8 26.8 12 26.8 26.8zm76.1 27.2c-1.7-35.9-9.9-67.7-36.2-93.9-26.2-26.2-58-34.4-93.9-36.2-37-2.1-147.9-2.1-184.9 0-35.8 1.7-67.6 9.9-93.9 36.1s-34.4 58-36.2 93.9c-2.1 37-2.1 147.9 0 184.9 1.7 35.9 9.9 67.7 36.2 93.9s58 34.4 93.9 36.2c37 2.1 147.9 2.1 184.9 0 35.9-1.7 67.7-9.9 93.9-36.2 26.2-26.2 34.4-58 36.2-93.9 2.1-37 2.1-147.8 0-184.8zM398.8 388c-7.8 19.6-22.9 34.7-42.6 42.6-29.5 11.7-99.5 9-132.1 9s-102.7 2.6-132.1-9c-19.6-7.8-34.7-22.9-42.6-42.6-11.7-29.5-9-99.5-9-132.1s-2.6-102.7 9-132.1c7.8-19.6 22.9-34.7 42.6-42.6 29.5-11.7 99.5-9 132.1-9s102.7-2.6 132.1 9c19.6 7.8 34.7 22.9 42.6 42.6 11.7 29.5 9 99.5 9 132.1s2.7 102.7-9 132.1z" /></symbol><symbol fill="#ffffff" viewBox="0 0 50 50" id="ldin">    <path d="M25,2C12.318,2,2,12.317,2,25s10.318,23,23,23s23-10.317,23-23S37.682,2,25,2z M18,35h-4V20h4V35z M16,17 c-1.105,0-2-0.895-2-2c0-1.105,0.895-2,2-2s2,0.895,2,2C18,16.105,17.105,17,16,17z M37,35h-4v-5v-2.5c0-1.925-1.575-3.5-3.5-3.5 S26,25.575,26,27.5V35h-4V20h4v1.816C27.168,20.694,28.752,20,30.5,20c3.59,0,6.5,2.91,6.5,6.5V35z" /></symbol><symbol viewBox="0 0 61 61" id="linkedin">
                                    <style type="text/css">
                                        #linkedin .stfootertres{fill:#1A1446;}
                                    </style>
  <path class="stfootertres" d="M58.4,56.4c0,0.9-0.8,1.8-1.8,1.8h-8.5c-0.9,0-1.8-0.8-1.8-1.8V40.7c0-2.4,0.7-10.2-6.1-10.2
                                        c-5.3,0-6.3,5.4-6.5,7.8v18c0,0.9-0.8,1.8-1.8,1.8h-8.2c-0.9,0-1.8-0.8-1.8-1.8V22.9c0-0.9,0.8-1.8,1.8-1.8h8.2
                                        c0.9,0,1.8,0.8,1.8,1.8v2.9c2-2.9,4.8-5.2,10.9-5.2c13.6,0,13.5,12.7,13.5,19.8v16H58.4L58.4,56.4z" />
  <path class="stfootertres" d="M11.1,17.9c-4.1,0-7.5-3.4-7.5-7.5S7,2.9,11.1,2.9s7.5,3.4,7.5,7.5C18.7,14.6,15.4,17.9,11.1,17.9L11.1,17.9z" />
  <path class="stfootertres" d="M17,56.1c0,1.1-0.8,1.9-1.9,1.9H7.2c-1.1,0-1.9-0.8-1.9-1.9V23c0-1.1,0.8-1.9,1.9-1.9h7.9
                                        c1.1,0,1.9,0.8,1.9,1.9V56.1L17,56.1z" />
                                    </symbol><symbol viewBox="0 0 30.022 30" id="linkedin2"><defs><style>#linkedin2 .a{fill:#1a1446;}#linkedin2 .b{clip-path:url(#linkedin2_a);}#linkedin2 .c{fill:#fff;}</style></defs><g transform="translate(0 0)"><path class="a" d="M15.011,30A15,15,0,0,1,4.4,4.393a15.018,15.018,0,0,1,21.228,0A15,15,0,0,1,15.011,30Zm2.6-15.189c1.041,0,1.591.738,1.591,2.135V22h3.143V16.582c0-2.661-1.353-4.25-3.619-4.25a3.106,3.106,0,0,0-2.833,1.561V12.554H12.747c.042.87,0,9.359,0,9.445H15.89V16.724a2.068,2.068,0,0,1,.1-.766A1.724,1.724,0,0,1,17.607,14.81ZM7.866,12.554V22h3.142V12.554ZM9.459,8a1.637,1.637,0,1,0-.041,3.264h.02A1.637,1.637,0,1,0,9.459,8Z" transform="translate(0 0)" /><g class="b"><g transform="translate(0 0)"><rect class="c" width="30.022" height="30" /></g></g></g></symbol><clipPath id="linkedin2_a"><path class="a" d="M15.011,30A15,15,0,0,1,4.4,4.393a15.018,15.018,0,0,1,21.228,0A15,15,0,0,1,15.011,30Zm2.6-15.189c1.041,0,1.591.738,1.591,2.135V22h3.143V16.582c0-2.661-1.353-4.25-3.619-4.25a3.106,3.106,0,0,0-2.833,1.561V12.554H12.747c.042.87,0,9.359,0,9.445H15.89V16.724a2.068,2.068,0,0,1,.1-.766A1.724,1.724,0,0,1,17.607,14.81ZM7.866,12.554V22h3.142V12.554ZM9.459,8a1.637,1.637,0,1,0-.041,3.264h.02A1.637,1.637,0,1,0,9.459,8Z" transform="translate(0 0)" /></clipPath><symbol class="svg-logo-liberty" viewBox="0 0 729.975 366.556" id="logo">
  <g id="logo_logoAzul" data-name="logoAzul" transform="translate(-588.406 -209.205)">
    <path id="logo_camino_8" data-name="camino 8" d="M958.979,325.589a9.389,9.389,0,1,0-6.634-2.757A9.357,9.357,0,0,0,958.979,325.589Z" fill="#1b1247" />
    <path id="logo_camino_9" data-name="camino 9" d="M1179.07,381.423c0,12.452,8.16,17.248,18.36,17.248a17.968,17.968,0,0,0,17.22-9.636l-1.66-1.54a10.147,10.147,0,0,1-7.8,4.4c-7.58,0-9.9-5.192-9.9-13.9V346.84h14.41c7.85,0,10.08,2.947,13.59,10.12l19.72,41.755c-6.62,17.6-12.23,24.992-22.39,24.992a18.566,18.566,0,0,1-7.19-1.32l-3.37,16.279a22.994,22.994,0,0,0,4.38.352c11.17,0,17.31-4.708,23.09-18l27.21-62.215c4.39-10.119,6.27-12.055,13.15-13.991V342.4h-22.44v2.42c6.84,1.452,8.37,5.764,3.59,17.247l-7.45,17.38-11.43-23.628c-3.24-6.864-3.24-10.031,2.89-11V342.4h-47.76V321.584h-2.72a100.81,100.81,0,0,1-23.09,22.439V346.8h9.59Z" fill="#1b1247" />
    <path id="logo_camino_10" data-name="camino 10" d="M1124.16,355.511v28.6c0,6.116-1.79,8.272-8.76,9.988v2.376h34.09V394.01c-7.93-1.628-9.12-3.652-9.12-9.988v-22c4.08-5.764,7.06-7.7,11.92-7.7,3.68,0,7.45,2.376,12.14,7l3.59-16.412a12.715,12.715,0,0,0-9.46-4.4c-6.75,0-12.62,5.544-17.92,17.247h-.23V340.287h-2.54l-23.44,2.156v2.42a9.179,9.179,0,0,1,4.05.635,9.284,9.284,0,0,1,3.37,2.336,9.246,9.246,0,0,1,2.31,7.677Z" fill="#1b1247" />
    <path id="logo_camino_11" data-name="camino 11" d="M1083.76,398.664a30.236,30.236,0,0,0,28.88-18.832h-2.41a22.205,22.205,0,0,1-19.24,11.836,16.589,16.589,0,0,1-7.45-1.8c-6.96-3.388-12.35-11.968-11.65-25.211h40.75a26.981,26.981,0,0,0-28.26-24.376,2.084,2.084,0,0,0-.84,0,28.953,28.953,0,0,0-26.95,18.17,29.159,29.159,0,0,0-2.1,11.265,28.286,28.286,0,0,0,29.27,28.952Zm-.27-54.38h.26c6.41,0,11.22,7.215,11.66,17.115H1072.1c.26-10.251,4.73-17.115,11.31-17.115Z" fill="#1b1247" fill-rule="evenodd" />
    <path id="logo_camino_12" data-name="camino 12" d="M940.09,374.781h-2.411c-6.7,13.9-11.524,17.071-21.906,17.071s-13.147-2.2-13.147-9.107V326.293c0-7.348,2.275-9.064,10.56-11.22V312.7h-39.44v2.376c8.767,2.156,10.471,4.4,10.471,11.836v53.547c0,9.064-.876,11.22-10.471,13.685v2.376h63.933Z" fill="#1b1247" />
    <path id="logo_camino_13" data-name="camino 13" d="M985.729,318.812v77.659a132.247,132.247,0,0,0,26.291,2.2h4.08c23.17-1.452,32.07-14.651,32.07-30.315s-11.04-27.984-25.55-27.984a29.751,29.751,0,0,0-6.48.836,31.368,31.368,0,0,0-14.29,8.8V306.756h-2.363l-21.913,1.584v2.508c5,.88,8.155,3.388,8.155,7.964Zm16.121,35.2c5.44-4.973,8.33-6.424,12.63-6.424a7.808,7.808,0,0,1,1.66,0c8.77.967,14.33,9.9,14.33,22.263,0,14.7-5.52,22-14.33,24.244a30.775,30.775,0,0,1-5.7.572c-6.43,0-8.76-2.861-8.76-9.064Z" fill="#1b1247" fill-rule="evenodd" />
    <path id="logo_camino_14" data-name="camino 14" d="M950.76,355.015v28.732c0,6.908-1.663,8.8-8.983,10.384v2.375h33.742V394c-6-.747-8.767-3.783-8.767-9.195V340.539h-2.41l-23.4,1.936v2.42c7.891,1.672,9.819,3.476,9.819,10.12Z" fill="#1b1247" />
    <path id="logo_camino_15" data-name="camino 15" d="M1216.37,480.235v3.872c10.17,0,14.99,9.636,14.99,24.112s-5.39,24.287-14.99,24.287c-9.42,0-15.2-9.284-15.2-23.364s3.89-23.715,13.14-24.947a11.957,11.957,0,0,1,1.93,0v-3.96a31.652,31.652,0,0,0-26.29,11.087,31.652,31.652,0,0,1,26.29-11.087c-24.59,0-32.29,17.2-32.29,27.984a26.786,26.786,0,0,0,2.66,11.571l.49,1.056c4.64,8.8,14.32,15.444,29.09,15.444h0c21.52,0,32.08-14.476,32.08-28.16.18-12.671-9.59-27.9-31.9-27.9Zm-14.98,53.152-1.49-.66Zm6.36,1.939-1.93-.44Zm-3.36-.834-1.66-.528Zm-10.58-5.586-.89-.747Zm4.8,3.206-1.27-.705Zm-2.54-1.5-1.1-.748Zm-4.93-4.4.61.7Zm-1.49-1.759.34.44Zm19.39,11,2.32.308Z" fill="#1b1247" fill-rule="evenodd" />
    <path id="logo_camino_16" data-name="camino 16" d="M1265.75,489.879c0-3.476,3.64-5.764,8.42-5.764a17.426,17.426,0,0,1,9.94,3.705,17.615,17.615,0,0,1,6.01,8.791h2.27V480.419h-2.27a5.193,5.193,0,0,1-3.11,1.364c-.97,0-3.25-.395-5.75-.791a59.136,59.136,0,0,0-8.06-.793c-11.35,0-18.09,7.744-18.09,15.8,0,19.668,30.67,15.224,30.67,28.908a8.828,8.828,0,0,1-3.12,5.619,8.716,8.716,0,0,1-6.08,1.992c-7.5,0-13.68-5.411-18.85-16.411h-2.28v20.283h2.28a6.724,6.724,0,0,1,2.2-1.45,6.63,6.63,0,0,1,2.58-.486,28.18,28.18,0,0,1,6.18.969,47.593,47.593,0,0,0,8.5.967,18.628,18.628,0,0,0,12.87-5.236,18.818,18.818,0,0,0,5.71-12.715c-.09-21.384-30.02-17.556-30.02-28.556Z" fill="#1b1247" />
    <path id="logo_camino_17" data-name="camino 17" d="M1318.38,421.682h-70.07v4.488h70.07Z" fill="#1b1247" />
    <path id="logo_camino_18" data-name="camino 18" d="M1154.53,496.83V480.242h-2.36l-22.65,2.156v2.332a8.654,8.654,0,0,1,3.91.553,8.806,8.806,0,0,1,5.5,9.655v27.368c0,5.808-1.75,7.919-8.76,9.68v2.331h33.04v-2.331c-7.71-1.54-8.76-3.432-8.76-9.68V501.1c3.94-5.632,6.88-7.348,11.48-7.348a18.405,18.405,0,0,1,11.57,6.556l3.41-15.62a11.974,11.974,0,0,0-8.98-4.4c-6.66-.044-12.22,5.148-17.4,16.544Z" fill="#1b1247" />
    <path id="logo_camino_19" data-name="camino 19" d="M1197.6,421.682H871v4.488h326.6Z" fill="#1b1247" />
    <path id="logo_camino_20" data-name="camino 20" d="M959.354,504h28a25.973,25.973,0,0,0-27.3-23.584h-.747A27.918,27.918,0,0,0,931.485,508.4a27.012,27.012,0,0,0,27.869,27.587,29.7,29.7,0,0,0,28-17.731h-2.492a21.564,21.564,0,0,1-18.45,11.351,15.554,15.554,0,0,1-7.1-1.76c-6.743-3.3-11.958-11.4-11.13-24.067Zm.007-19.661c6.179,0,10.736,6.908,11.347,16.368H948.184c.394-9.9,4.645-16.588,10.96-16.588Z" fill="#1b1247" fill-rule="evenodd" />
    <path id="logo_camino_21" data-name="camino 21" d="M1118.22,521.6V480.242h-2.37l-21.34,2.156v2.332c5.35.924,8.06,3.432,8.06,7.7V518.3c-4.38,7.084-7.66,9.416-12.84,9.416a8.809,8.809,0,0,1-9-5.427,8.917,8.917,0,0,1-.64-3.682V480.242h-2.32l-21.12,2.156v2.332c6.13,1.144,8.02,3.3,8.02,9.064v26.8c0,9.855,6.35,15.839,17.13,15.839,8.28,0,14.81-3.872,20.6-12.759v12.759l23.84-2.112v-2.331c-6.71-1.981-8.02-3.521-8.02-10.385Z" fill="#1b1247" />
    <path id="logo_camino_22" data-name="camino 22" d="M888.047,475.629a13.243,13.243,0,0,1-3.81-8.492,11.974,11.974,0,0,1,12.882-10.823A23.287,23.287,0,0,1,917.232,472.9h2.323V451.693h-2.323a5.882,5.882,0,0,1-4.379,2.112,29.727,29.727,0,0,1-6.751-.967,34.086,34.086,0,0,0-8.236-1.145c-14.593,0-24.976,9.68-24.976,23.54a23.285,23.285,0,0,0,7.137,16.984c6.709,6.732,20.514,12.76,26.687,18.92a13.552,13.552,0,0,1,4.386,9.284c0,6.512-6.138,11.395-14.81,11.395-11.354,0-19.02-8.272-21.3-20.239h-2.363v24.287h2.363a4.384,4.384,0,0,1,3.993-2.684c4.38,0,9.772,3.3,19.367,3.3s25.634-6.072,25.634-23.672a25,25,0,0,0-8.767-18.479c-4.861-5.016-23.311-14.652-27.168-18.7Z" fill="#1b1247" />
    <path id="logo_camino_23" data-name="camino 23" d="M1019.31,480.238h-.97c-15.6,0-26.292,9.46-26.292,21.428,0,8.8,5.344,14.476,17.312,18.3-12.1,2.683-16.741,5.631-16.741,11.616s2.274,10.779,18.051,12.319v.4c-15.206,1.32-21.908,8.8-21.908,15.224,0,9.68,12.048,16.236,29.758,16.236h.96c21.91-.4,33.17-11.792,33.17-23.54a17.321,17.321,0,0,0-4.78-11.4c-6.7-6.557-19.01-7.7-28.44-8.8-8.06-.793-14.45-1.585-14.45-5.412s5.29-5.016,14.33-5.016h2.27c15.25,0,24.59-8.8,24.59-18.876a16.2,16.2,0,0,0-6.89-13.2l.36-.395,13.14.967v-9.5h-26.99Zm0,65.993c9.02.616,24.54,3.256,24.54,12.408,0,4.8-5.57,8.448-13.15,8.448a65.446,65.446,0,0,1-11.3-1.1c-9.03-1.54-18.28-5.192-18.28-11.967,0-4.84,5.78-7.92,14.42-7.92a32.561,32.561,0,0,1,3.77.264Zm11.48-45.665c0,12.144-5.16,16.984-11.47,16.984-7.1,0-11.75-6.38-11.75-16.544,0-11.22,4.03-16.632,11.75-16.984h.52c5.96.088,10.95,5.28,10.95,16.632Z" fill="#1b1247" fill-rule="evenodd" />
    <path id="logo_camino_24" data-name="camino 24" d="M843.363,353.127c-.788-1.1-2.764,0-2.764,0l-32.907,12.012a108.235,108.235,0,0,0-8.767-17.6l10.607-29.083s1.358-2.816,0-3.565-3.11,1.189-3.11,1.189l-19.238,15.883a83.355,83.355,0,0,0-26.293-19.228,94.825,94.825,0,0,0-11.876-4.4l-5.963-22.88s-.393-2.376-2.01-2.376-1.928,2.2-1.928,2.2L735.257,306a102.221,102.221,0,0,0-12.929-.924,92.6,92.6,0,0,0-38.211,7.831,75.118,75.118,0,0,0-13.5,7.744c-.7.44-1.4.968-2.1,1.453-3.939-10.3-7.008-18.613-7.62-21.076a37.219,37.219,0,0,0,7.932-14.388,23.937,23.937,0,0,0-.53-15.356,45.2,45.2,0,0,1-3.463-9.812,6.693,6.693,0,0,1,1.929-4,4.389,4.389,0,0,0-4.075-3.783,17.406,17.406,0,0,0-4.821.4c-.306-.88-1.182-.705-.571-3.3.876-3.959,8.414-5.852,14.729-8.271a18.2,18.2,0,0,0,12.441-17.6,14.615,14.615,0,0,0-8.237-14.08,18.434,18.434,0,0,1-7.4,7.744,13.114,13.114,0,0,1-8.767,1.364,10.193,10.193,0,0,0-5.167-10.736,13.4,13.4,0,0,1-11.877,4.8,145.7,145.7,0,0,0-15.775-1.716c-12.8,0-23.448,7.832-24.717,19.184a25.584,25.584,0,0,0,4.38,16.808,46.117,46.117,0,0,0-6.092,5.9,4.717,4.717,0,0,0-6.484-.483,8.822,8.822,0,0,1,.264,5.455,71.892,71.892,0,0,0-6,18.348,22.9,22.9,0,0,0,12.223,23.232,5.979,5.979,0,0,0-.611,5.94,4.374,4.374,0,0,0,4.38,2.243,5.9,5.9,0,0,0-1.093,6.469c1.093,2.727,4.074,6.555,6.838,6.555a50.955,50.955,0,0,0,1.4,9.768,11.065,11.065,0,0,0-1.711,6.292,6.9,6.9,0,0,0,1.4,4.143,6.817,6.817,0,0,0,3.6,2.457,16.036,16.036,0,0,0,2.1,4.4,16.272,16.272,0,0,0,3.768,3.74,12.849,12.849,0,0,0,7.144,2.419,24.174,24.174,0,0,0,6.22-.263c0,.836.265,7.876.659,15.707a191.532,191.532,0,0,0-10.213,63.624c0,41.755,11.836,79.2,34.489,103a22.723,22.723,0,0,0,4.95,4.005,243.016,243.016,0,0,1,17.927-25.916,84.276,84.276,0,0,1,9.29-10.252c5.3-4.4,10.424-8.8,15.51-12.408a128.686,128.686,0,0,1,44.919-19.931,183.146,183.146,0,0,0-42.862,27.455,158.27,158.27,0,0,0-37.511,45.407,17.852,17.852,0,0,0,9.032,4.092c2.363-2.728,14.416-24.9,32.954-42.767a155.005,155.005,0,0,1,104.643-42.855A221.791,221.791,0,0,0,820,434.262a209.536,209.536,0,0,0-5.215-47.3l27.481-30.8S844.191,354.4,843.363,353.127Z" fill="#1b1247" />
    <path id="logo_camino_25" data-name="camino 25" d="M644.979,391.318c-.611-1.232-3.81-66.307-3.81-68.594l3.416-2.509v-.66a8.745,8.745,0,0,1-6.4-2.552l-.876-19.8a15.346,15.346,0,0,1-8.413-2.728,5.643,5.643,0,0,1-.876-7.568,23.259,23.259,0,0,0,11.218,2.728c.876,0,2.893,2.068,3.945,2.552s3.463,1.716,4.38,2.156,1.446,2.508,1.711,3.256,32.384,84.523,32.907,85.49,2.452,15,2.5,16.06a115.4,115.4,0,0,0,5.915,13.464,25.477,25.477,0,0,0-17.092,7.788,56.5,56.5,0,0,0-11.653,22.967c-.353-2.772-16.3-50.863-16.874-52.051Z" />
    <path id="logo_camino_26" data-name="camino 26" d="M638.414,339.271a20.969,20.969,0,0,0-9.507-2.992,18.923,18.923,0,0,0-9.643,2.684,3.438,3.438,0,0,1-.828-4.4,3.6,3.6,0,0,1,1.881-2.068l-1.005-17.6a42.6,42.6,0,0,1,6.268-3.916,2.605,2.605,0,0,0,1.432-1.047,2.633,2.633,0,0,0,.449-1.725,34.533,34.533,0,0,1,7.143,7.216,13.956,13.956,0,0,1,2.628,7.612,44.47,44.47,0,0,1-.393,9.68,4.93,4.93,0,0,1,2.233,3.124,5.18,5.18,0,0,1-.658,3.432Z" fill="#fff" />
    <path id="logo_camino_27" data-name="camino 27" d="M797.7,394.008a33.275,33.275,0,0,0-6.574-14.652l41.5-18.567Z" fill="#fff" />
    <path id="logo_camino_28" data-name="camino 28" d="M683.812,324.832l35.053,32.031a25.671,25.671,0,0,0-9.859,11.308Z" fill="#fff" />
    <path id="logo_camino_29" data-name="camino 29" d="M704.32,388.191a12.429,12.429,0,0,0-1.969,5.281,13.651,13.651,0,0,0,0,5.455l-10.784-7.435c0-2.552-.57-6.732-.747-8.8v-.924Z" fill="#fff" />
    <path id="logo_camino_30" data-name="camino 30" d="M685.923,471.214a81.623,81.623,0,0,1-9.249,31.943c-3.022,5.192-11.523,15.664-14.416,19.536a93.553,93.553,0,0,0,5.521-33.923c-.218-7.92-2.587-25.168-.483-36.652a41.844,41.844,0,0,1,13.846-26.4,26.225,26.225,0,0,1,24.983-5.456l9.86,18.568a21.825,21.825,0,0,0-16.915,3.431c-8.808,6.468-11.748,15.708-13.147,28.952Z" fill="#fff" />
    <path id="logo_camino_31" data-name="camino 31" d="M686.789,496.563a155.935,155.935,0,0,0,6.437-26.091c1.189-6.6,2.235-16.324,10.125-22.748a16.211,16.211,0,0,1,12.752-2.949l11.26,22.748a6.571,6.571,0,0,0,6.4,3.212c-10.518,3.344-36.771,15.972-46.977,25.828Z" fill="#fff" />
    <path id="logo_camino_32" data-name="camino 32" d="M781.848,423.783a7.135,7.135,0,0,0,0,7.481c1.141,1.979,7.056,12.847,7.056,12.847a76.342,76.342,0,0,0,5.079,10.736h10.342c-3.986-8.8-12.882-25.608-12.882-25.608l-.611-13.727a35.311,35.311,0,0,0-8.984,8.271Z" fill="#fff" />
    <path id="logo_camino_33" data-name="camino 33" d="M734.3,351.148a41.752,41.752,0,0,1,17.526,1.716l-10.118-57.552Z" fill="#fff" />
    <path id="logo_camino_34" data-name="camino 34" d="M712.525,375.608a21.287,21.287,0,0,0,0,10.251,11.463,11.463,0,0,0-4.386,7.084,7.574,7.574,0,0,0,1.84,6.557,12.782,12.782,0,0,1,3.069-7.657,20.66,20.66,0,0,1,6.573-4.4l.442,4.8a13.193,13.193,0,0,0-5.3,5.632l.265,7.964,6-3.652,1.134,2.464-2.1,13.9,3.456-.572,6.139,2.552-6,5.1v1.98a3.529,3.529,0,0,1,2.981-1.188,33.851,33.851,0,0,1,7.578,2.508v1.275h-10.7c-.434,1.365.835,2.377,1.623,2.992a17.27,17.27,0,0,1,3.592-1.187c.836,0,2.635.527,4.387.7l-1.888,2.508a3.447,3.447,0,0,1-2.8.4c-.964-.22-1.97,1.188-1.97,2.376a30.126,30.126,0,0,0,.7,4.4,4.855,4.855,0,0,0,6.179,3.52,92.918,92.918,0,0,0,12.488-3.7l-9.16,12.892,3.9,13.684a227.326,227.326,0,0,1,43.819-12.144c-2.193-3.563-2.451-5.016-5.038-10.251l-10.213-23.056L770.5,420a9.879,9.879,0,0,0,7.891-2.64,27.318,27.318,0,0,0,5.785-7,3.325,3.325,0,0,0-3.816,0c-1.182.88-2.146,2.376-3.769,1.672s-.916-2.816-.7-4.664-2.1-1.8-3.721-.44a5.811,5.811,0,0,1-7.232-1.408,140.516,140.516,0,0,0-16.521-13.2A28.434,28.434,0,0,0,730.14,389.6c-3.2.571-5.432,1.979-6.621,1.363l-3.938-6.16.482-.484c1.358.616,2.757,1.716,4.38,1.056a61.125,61.125,0,0,1,13.146-2.023,63.808,63.808,0,0,1,21.913,4.663c0,5.28,10.648,11.88,15.381,12.408a12,12,0,0,0,8.76-1.98l-10.118-8.8,5.344-6.864s8.767,8.227,9.86,9.856a7.013,7.013,0,0,0-.306-3.609c-.441-2.639-6.926-10.383-17.967-18.787-8.767-6.644-21.384-13.2-31.773-13.2a25.551,25.551,0,0,0-26.158,18.568Z" fill="#fff" />
    <path id="logo_camino_35" data-name="camino 35" d="M649.21,297.644c-.265-.748-.835-2.9-1.711-3.256s-3.151-1.628-4.38-2.156-3.069-2.552-3.945-2.552a23.275,23.275,0,0,1-11.13-2.772A5.648,5.648,0,0,0,629.1,294.3a15.346,15.346,0,0,0,8.413,2.728l.917,19.932a8.763,8.763,0,0,0,6.4,2.552v.66l-3.64,2.552c0,2.287,3.158,67.406,3.769,68.6s16.474,49.279,16.868,52.226a56.563,56.563,0,0,1,11.7-23.143,25.477,25.477,0,0,1,17.051-7.876,113.406,113.406,0,0,1-5.915-13.464c0-1.055-1.975-15.047-2.5-16.059s-32.69-84.523-32.955-85.359Z" fill="#fff" />
    <path id="logo_camino_36" data-name="camino 36" d="M628.77,281.764a20.623,20.623,0,0,1,15.421,5.807,8.446,8.446,0,0,0-3.021-7.964,20.352,20.352,0,0,0-13.147-3.651,17.946,17.946,0,0,0-11.218,3.519,7.6,7.6,0,0,0-2.37,7.876c1.012-2.684,6.8-5.676,14.335-5.587Z" fill="#fff" />
    <path id="logo_camino_37" data-name="camino 37" d="M612.477,233.985a14.692,14.692,0,0,0,2.41,9.195c.917,1.276,3.07,3.652,4.645,3.52,2.234,0,4.38-4.4,9.731-4.4,3.456,0,5.69,5.1,8.76,5.28,2.234,0,3.422-2.2,5.785-2.332s2.676.66,3.81,1.892a13.2,13.2,0,0,1,5-5.28c3.463-2.727,15.822-5.236,21.037-9.944a10.135,10.135,0,0,0,2.234-9.5,18.949,18.949,0,0,1-12.8,5.941,34.01,34.01,0,0,1-11.388-2.289,6.566,6.566,0,0,0,1.107-3.093,6.649,6.649,0,0,0-.536-3.242,33.925,33.925,0,0,1-12.142,2.111c-2.981,0-8.767-1.231-13.146-1.011a14.486,14.486,0,0,0-14.505,13.156Z" fill="#fff" />
    <path id="logo_camino_38" data-name="camino 38" d="M629.3,264.333c21.078.484,30.673,10.164,30.673,18.26a15.178,15.178,0,0,0,.964-7.392c0-2.156-3.327-8.14-3.374-10.164a15.977,15.977,0,0,1,.706-5.28c-1.277.264-5.962,2.2-7.979.572s-.611-5.984-3.463-7.083-7.185,2.287-10.03,1.936-5.263-4.4-8.2-4.4-4.387,3.608-7.979,4.4c-2.757.615-6.132-1.1-7.8-.925s-2.892,1.54-3.768,3.256a4.436,4.436,0,0,1-1.324,2.021,4.373,4.373,0,0,1-2.187,1.015c-1.7.44-4.38-1.056-5.344-.836a9.508,9.508,0,0,1,.529,7.04,30.407,30.407,0,0,0-3.375,9.284,13.261,13.261,0,0,0,1.617,6.819c-.7-11.439,11.877-18.831,30.326-18.523Z" fill="#fff" />
    <path id="logo_camino_39" data-name="camino 39" d="M616.037,304.909a13.548,13.548,0,0,0-6.05,5.193,13.211,13.211,0,0,0,3.9,6.423,11.985,11.985,0,0,1,3.239-5.368,26.333,26.333,0,0,1,3.681-2.068,2.205,2.205,0,0,0,1.446-2.288,7.181,7.181,0,0,0-.611-2.992c.964,0,2.981,0,3.681-.924a6.132,6.132,0,0,0,.964-3.343c0-1.145-.482-1.452-1.752-1.585a59.949,59.949,0,0,0-6.485,0l3.545-1.716a2.45,2.45,0,0,0,.814-.806,2.561,2.561,0,0,0,.374-1.086,12.791,12.791,0,0,0-.265-4,29.464,29.464,0,0,0-13.146,5.368l1.446,3.607h-2.628a10.341,10.341,0,0,0,.652,6.2,39.085,39.085,0,0,1,7.191-.616Z" fill="#fff" />
    <path id="logo_camino_40" data-name="camino 40" d="M767.762,359.863a82.272,82.272,0,0,1,14.246,10.076l21.3-45.32Z" fill="#fff" />
    <path id="logo_camino_41" data-name="camino 41" d="M727.019,402.8a12.456,12.456,0,0,1,5.649,4.4l3.158-.792-1.358-2.156a14.594,14.594,0,0,1,4.38-1.1,10.618,10.618,0,0,1,6.661,1.627l6.838-1.627.917-1.453c-4.774-3.784-11.612-7.436-17.526-6.2a37.073,37.073,0,0,0-8.767,3.476V402.8ZM769.1,385.855l4.95-6.951a141.473,141.473,0,0,0-16.827-10.736l-3.769,9.9A110.2,110.2,0,0,1,769.1,385.855Zm-39.019-10.248c4.387-.968,14.946-1.32,18.192.88l1.793-10.472a28.743,28.743,0,0,0-12.046-2.64,21.233,21.233,0,0,0-11.178,2.992Zm-13.449,7.613a52.069,52.069,0,0,1,8.767-6.336l-3.327-7.876c-2.323,2.376-7.192,8.4-5.392,14.344Z" fill="#1b1247" fill-rule="evenodd" />
  </g>
</symbol><symbol viewBox="0 0 14 182" id="logo-SFC">
    <!-- Generator: Sketch 52.6 (67491) - http://www.bohemiancoding.com/sketch -->
    <title>Group</title>
    <desc>Created with Sketch.</desc>
    <defs>
        <path d="M0.00107692308,144.780909 L0.00107692308,89.738226 L1.078,89.738226 L1.078,144.780909 L0.00107692308,144.780909 Z M3.89964615,137.602263 L10.1027231,140.175239 L10.1027231,142.210739 L3.89964615,144.780477 L3.89964615,142.871251 L8.25364615,141.167087 L3.89964615,139.464001 L3.89964615,137.602263 Z M10.1029385,132.80988 L10.1029385,136.937002 L9.0034,136.937002 L9.0034,135.782185 L4.9994,135.782185 L4.9994,136.937002 L3.89986154,136.937002 L3.89986154,132.80988 L4.9994,132.80988 L4.9994,133.964698 L9.0034,133.964698 L9.0034,132.80988 L10.1029385,132.80988 Z M9.74755385,125.121173 C9.8574,125.437399 9.96401538,125.857234 10.0717077,126.376362 C10.1783231,126.897649 10.2310923,127.416777 10.2310923,127.932667 C10.2310923,129.132813 9.94570769,130.071777 9.37063077,130.750637 C8.79878462,131.429496 8.00616923,131.768387 6.99601538,131.768387 C6.03109231,131.768387 5.25355385,131.427338 4.6634,130.742002 C4.07432308,130.056667 3.77924615,129.101515 3.77924615,127.877624 C3.77924615,127.413539 3.81586154,126.971039 3.88909231,126.551204 C3.96232308,126.131368 4.10770769,125.666204 4.32955385,125.151393 L5.78232308,125.151393 L5.78232308,125.352137 C5.72416923,125.441716 5.64124615,125.572307 5.53463077,125.741752 C5.42801538,125.912277 5.33647692,126.076326 5.26109231,126.234978 C5.17278462,126.416295 5.09524615,126.62999 5.03386154,126.876063 C4.96709231,127.122137 4.93693846,127.380082 4.93693846,127.654216 C4.93693846,127.976917 4.97786154,128.269399 5.06186154,128.530582 C5.14586154,128.791765 5.27293846,129.028124 5.44524615,129.235344 C5.61324615,129.433929 5.82432308,129.590423 6.08063077,129.705905 C6.33693846,129.821387 6.63524615,129.879667 6.96909231,129.879667 C7.65724615,129.879667 8.18278462,129.673527 8.54678462,129.259088 C8.90863077,128.845728 9.09170769,128.235941 9.09170769,127.42757 C9.09170769,127.359576 9.08955385,127.280789 9.08524615,127.197685 C9.08524615,127.114582 9.08093846,127.036874 9.07447692,126.96888 L7.85647692,126.96888 L7.85647692,128.373009 L6.68693846,128.373009 L6.68693846,125.121173 L9.74755385,125.121173 Z M10.1029385,119.712204 L10.1029385,123.839326 L9.0034,123.839326 L9.0034,122.684509 L4.9994,122.684509 L4.9994,123.839326 L3.89986154,123.839326 L3.89986154,119.712204 L4.9994,119.712204 L4.9994,120.867021 L9.0034,120.867021 L9.0034,119.712204 L10.1029385,119.712204 Z M10.1029385,113.17227 L10.1029385,118.259941 L3.89986154,118.259941 L3.89986154,116.442453 L8.90432308,116.442453 L8.90432308,113.17227 L10.1029385,113.17227 Z M10.1032615,105.595915 L10.1032615,107.474921 L8.84756923,107.963829 L8.84756923,110.572421 L10.1032615,111.064567 L10.1032615,112.893927 L3.89910769,110.291811 L3.89910769,108.200189 L10.1032615,105.595915 Z M7.71141538,108.402012 L5.48864615,109.269744 L7.71141538,110.134238 L7.71141538,108.402012 Z M7.00656923,97.953184 C7.58487692,97.953184 8.10287692,98.099965 8.55949231,98.400001 C9.01503077,98.701117 9.36718462,99.08102 9.61272308,99.538629 C9.79364615,99.880757 9.92395385,100.258501 9.99610769,100.667544 C10.0671846,101.077666 10.1027231,101.564416 10.1027231,102.127794 L10.1027231,104.610111 L3.89964615,104.610111 L3.89964615,102.055483 C3.89964615,101.481312 3.94164615,100.984849 4.02672308,100.568251 C4.10964615,100.152733 4.23133846,99.801971 4.38641538,99.518123 C4.64810769,99.032452 4.99918462,98.648233 5.44287692,98.369782 C5.88656923,98.09133 6.4078,97.953184 7.00656923,97.953184 Z M6.9958,99.831111 C6.58656923,99.831111 6.23764615,99.915294 5.9458,100.08258 C5.65826154,100.252026 5.42995385,100.520763 5.26626154,100.885556 C5.18441538,101.07227 5.13056923,101.262221 5.10149231,101.456489 C5.07241538,101.650757 5.05841538,101.943239 5.05841538,102.335013 L5.05841538,102.793702 L8.9418,102.793702 L8.9418,102.335013 C8.9418,101.904385 8.92349231,101.583843 8.88903077,101.383099 C8.85349231,101.181276 8.79103077,100.98377 8.70056923,100.79058 C8.53364615,100.459245 8.31072308,100.217489 8.03072308,100.062074 C7.7518,99.907739 7.40610769,99.831111 6.9958,99.831111 Z M7.00258462,89.738657 C7.99335385,89.738657 8.77735385,90.0592 9.35889231,90.703523 C9.94258462,91.346767 10.2312,92.237163 10.2312,93.374712 C10.2312,94.509023 9.94258462,95.396182 9.35889231,96.038346 C8.77735385,96.683749 7.99335385,97.004291 7.00258462,97.004291 C6.00535385,97.004291 5.21704615,96.683749 4.63873846,96.038346 C4.05935385,95.396182 3.77073846,94.509023 3.77073846,93.374712 C3.77073846,92.244718 4.05935385,91.35648 4.63873846,90.70892 C5.21704615,90.061359 6.00535385,89.738657 7.00258462,89.738657 Z M8.57381538,92.147584 C8.38643077,91.969505 8.16135385,91.839993 7.90504615,91.75473 C7.64873846,91.669468 7.34504615,91.627377 6.99827692,91.627377 C6.62781538,91.627377 6.3112,91.675944 6.05058462,91.774157 C5.78889231,91.871291 5.57781538,91.998645 5.41627692,92.157298 C5.24935385,92.318109 5.12766154,92.503743 5.05443077,92.7142 C4.97796923,92.923578 4.94135385,93.140511 4.94135385,93.368237 C4.94135385,93.600279 4.97689231,93.816133 5.04904615,94.019035 C5.1212,94.224096 5.24073846,94.40973 5.40766154,94.580255 C5.56381538,94.737828 5.77704615,94.86842 6.05166154,94.965554 C6.3252,95.065926 6.64289231,95.116651 7.00258462,95.116651 C7.37089231,95.116651 7.68858462,95.067005 7.94704615,94.972029 C8.20550769,94.874895 8.41766154,94.748621 8.58458462,94.592127 C8.74612308,94.432395 8.86566154,94.24892 8.94643077,94.037383 C9.02181538,93.824767 9.06166154,93.603517 9.06166154,93.368237 C9.06166154,93.136194 9.02181538,92.913865 8.94427692,92.702328 C8.86458462,92.489712 8.73966154,92.305157 8.57381538,92.147584 Z M12.9230769,144.780909 L12.9230769,89.738226 L14,89.738226 L14,144.780909 L12.9230769,144.780909 Z M3.72927692,76.874535 C3.92743077,76.874535 4.12235385,76.920943 4.31727692,77.012681 C4.51112308,77.105498 4.67481538,77.23501 4.80943077,77.401218 C4.95481538,77.583614 5.06896923,77.79623 5.15081538,78.040145 C5.23266154,78.28298 5.27466154,78.575462 5.27466154,78.918669 C5.27466154,79.284541 5.23912308,79.614797 5.17127692,79.909437 C5.10235385,80.201919 5.0022,80.499797 4.86758462,80.804151 L4.02004615,80.804151 L4.02004615,80.755584 C4.23327692,80.497638 4.39912308,80.19976 4.51435385,79.863029 C4.63173846,79.524138 4.68989231,79.206834 4.68989231,78.911114 C4.68989231,78.491279 4.6102,78.16426 4.45404615,77.931138 C4.29573846,77.696937 4.08681538,77.579297 3.82512308,77.579297 C3.59896923,77.579297 3.43312308,77.63434 3.32543077,77.745504 C3.21773846,77.85559 3.13481538,78.023955 3.07666154,78.249523 C3.03035385,78.422205 2.99266154,78.60676 2.96358462,78.806425 C2.93343077,79.00609 2.89681538,79.217626 2.85050769,79.441035 C2.75466154,79.893248 2.59096923,80.227821 2.36050769,80.445834 C2.12896923,80.663846 1.82635385,80.772852 1.45589231,80.772852 C1.02943077,80.772852 0.680507692,80.592614 0.408046154,80.232138 C0.135584615,79.870584 -0.000107692308,79.414053 -0.000107692308,78.859309 C-0.000107692308,78.500992 0.0332769231,78.172895 0.1022,77.873937 C0.170046154,77.573901 0.254046154,77.30948 0.355276923,77.079596 L1.15435385,77.079596 L1.15435385,77.127084 C0.990661538,77.321352 0.854969231,77.576059 0.7462,77.892285 C0.638507692,78.20851 0.584661538,78.532291 0.584661538,78.863626 C0.584661538,79.22626 0.658969231,79.516584 0.809738462,79.736754 C0.960507692,79.956925 1.15327692,80.06809 1.39127692,80.06809 C1.60235385,80.06809 1.76927692,80.013047 1.88989231,79.904041 C2.01050769,79.793955 2.10312308,79.600766 2.16666154,79.325553 C2.19896923,79.178773 2.23666154,78.970474 2.28296923,78.701736 C2.3282,78.432998 2.37558462,78.204193 2.42296923,78.01748 C2.52312308,77.638657 2.67496923,77.352651 2.87743077,77.162699 C3.07989231,76.97059 3.3642,76.874535 3.72927692,76.874535 Z M3.13718462,71.997753 C3.50656923,71.997753 3.82856923,72.038765 4.10210769,72.118631 C4.37672308,72.199576 4.60610769,72.333405 4.78810769,72.51796 C4.96149231,72.69496 5.08856923,72.898942 5.16826154,73.134223 C5.24795385,73.369503 5.2878,73.642558 5.2878,73.955546 C5.2878,74.275009 5.24472308,74.55346 5.16072308,74.790899 C5.07672308,75.028338 4.95287692,75.228003 4.78810769,75.389893 C4.60072308,75.574448 4.37564615,75.708277 4.1118,75.789223 C3.84687692,75.870168 3.52164615,75.910101 3.13718462,75.910101 L0.0927230769,75.910101 L0.0927230769,75.23232 L3.17164615,75.23232 C3.44733846,75.23232 3.66487692,75.212893 3.82533846,75.175119 C3.98364615,75.138424 4.12903077,75.075826 4.25826154,74.986247 C4.40687692,74.885875 4.5178,74.749887 4.59426154,74.577204 C4.66856923,74.404521 4.70626154,74.197302 4.70626154,73.955546 C4.70626154,73.711631 4.66964615,73.504412 4.59533846,73.332808 C4.52103077,73.161204 4.40903077,73.024137 4.25826154,72.921607 C4.12903077,72.833107 3.97933846,72.76943 3.81241538,72.732735 C3.64549231,72.69496 3.43656923,72.675534 3.18887692,72.675534 L0.0927230769,72.675534 L0.0927230769,71.997753 L3.13718462,71.997753 Z M1.62970769,67.357439 C1.85586154,67.357439 2.06478462,67.3962927 2.25647692,67.4750793 C2.44924615,67.5527866 2.61616923,67.6639512 2.75832308,67.8053354 C2.93278462,67.9812561 3.06416923,68.188476 3.15247692,68.428073 C3.23970769,68.667671 3.28493846,68.969866 3.28493846,69.335738 L3.28493846,70.013518 L5.1814,70.013518 L5.1814,70.691299 L0.0929384615,70.691299 L0.0929384615,69.307677 C0.0929384615,69.001165 0.117707692,68.74322 0.1694,68.530604 C0.220015385,68.317988 0.300784615,68.129116 0.410630769,67.9661463 C0.539861538,67.771878 0.7014,67.6218598 0.895246154,67.5160915 C1.08801538,67.4092439 1.33355385,67.357439 1.62970769,67.357439 Z M1.64693846,68.061122 C1.4714,68.061122 1.31847692,68.092421 1.18924615,68.153939 C1.05893846,68.216537 0.9534,68.308274 0.871553846,68.434549 C0.800476923,68.543555 0.749861538,68.66875 0.719707692,68.809055 C0.688476923,68.94936 0.6734,69.127439 0.6734,69.342213 L0.6734,70.013518 L2.70663077,70.013518 L2.70663077,69.440427 C2.70663077,69.166293 2.68186154,68.943963 2.6334,68.773439 C2.58386154,68.602915 2.50632308,68.463689 2.39863077,68.355762 C2.28986154,68.248915 2.17463077,68.173366 2.05401538,68.128037 C1.9334,68.083787 1.79770769,68.061122 1.64693846,68.061122 Z M5.18161538,63.1548762 L5.18161538,66.5124799 L0.0920769231,66.5124799 L0.0920769231,63.1548762 L0.694076923,63.1548762 L0.694076923,65.8346994 L2.08869231,65.8346994 L2.08869231,63.1548762 L2.69069231,63.1548762 L2.69069231,65.8346994 L4.57961538,65.8346994 L4.57961538,63.1548762 L5.18161538,63.1548762 Z M5.18107692,57.8489774 L5.18107692,58.7285811 L3.15861538,60.4327457 L3.15861538,61.3889774 L5.18107692,61.3889774 L5.18107692,62.0656787 L0.0926153846,62.0656787 L0.0926153846,60.6378067 C0.0926153846,60.3302152 0.110923077,60.0744287 0.151846154,59.8682884 C0.191692308,59.6632274 0.262769231,59.4775933 0.366153846,59.3146238 C0.481384615,59.1289896 0.627846154,58.9843677 0.804461538,58.8807579 C0.981076923,58.7771482 1.20507692,58.7253433 1.47646154,58.7253433 C1.84369231,58.7253433 2.15061538,58.8181604 2.39830769,59.0027152 C2.64492308,59.1861909 2.83123077,59.4419774 2.95615385,59.7657579 L5.18107692,57.8489774 Z M1.52384615,59.4333433 C1.37846154,59.4333433 1.24923077,59.4592457 1.13615385,59.5099713 C1.02307692,59.5617762 0.928307692,59.6470384 0.850769231,59.7657579 C0.784,59.8628921 0.738769231,59.9805323 0.711846154,60.1143616 C0.686,60.2492701 0.673076923,60.4079226 0.673076923,60.5903189 L0.673076923,61.3889774 L2.59430769,61.3889774 L2.59430769,60.7036421 C2.59430769,60.489947 2.576,60.3021543 2.53723077,60.1413433 C2.49953846,59.9826909 2.43061538,59.846703 2.32723077,59.7344591 C2.23138462,59.6330079 2.12153846,59.5563799 1.99661538,59.5067335 C1.87276923,59.4581665 1.71553846,59.4333433 1.52384615,59.4333433 Z M5.18161538,55.5283348 L5.18161538,57.5400909 L4.66253846,57.5400909 L4.66253846,56.873103 L0.612230769,56.873103 L0.612230769,57.5400909 L0.0920769231,57.5400909 L0.0920769231,55.5283348 L0.612230769,55.5283348 L0.612230769,56.1953226 L4.66253846,56.1953226 L4.66253846,55.5283348 L5.18161538,55.5283348 Z M5.18161538,50.5072549 L5.18161538,51.3458463 L0.628384615,53.7634073 L5.18161538,53.7634073 L5.18161538,54.3969378 L0.0920769231,54.3969378 L0.0920769231,53.3457305 L4.249,51.1407854 L0.0920769231,51.1407854 L0.0920769231,50.5072549 L5.18161538,50.5072549 Z M0.694076923,45.4829372 L0.694076923,47.3036628 L5.18161538,47.3036628 L5.18161538,47.980364 L0.694076923,47.980364 L0.694076923,49.8021689 L0.0920769231,49.8021689 L0.0920769231,45.4829372 L0.694076923,45.4829372 Z M5.18161538,41.4398902 L5.18161538,44.7974939 L0.0920769231,44.7974939 L0.0920769231,41.4398902 L0.694076923,41.4398902 L0.694076923,44.1197134 L2.08869231,44.1197134 L2.08869231,41.4398902 L2.69069231,41.4398902 L2.69069231,44.1197134 L4.57961538,44.1197134 L4.57961538,41.4398902 L5.18161538,41.4398902 Z M5.18161538,36.5884713 L5.18161538,37.4270628 L0.628384615,39.8446238 L5.18161538,39.8446238 L5.18161538,40.4781543 L0.0920769231,40.4781543 L0.0920769231,39.426947 L4.249,37.2220018 L0.0920769231,37.2220018 L0.0920769231,36.5884713 L5.18161538,36.5884713 Z M2.64212308,30.8930646 C3.10412308,30.8930646 3.52412308,30.9945159 3.89996923,31.196339 C4.27581538,31.3981622 4.56766154,31.6669 4.77443077,32.0014732 C4.91873846,32.2345951 5.02212308,32.4946988 5.08566154,32.7807049 C5.1492,33.066711 5.18150769,33.4444549 5.18150769,33.911778 L5.18150769,35.1993451 L0.0930461538,35.1993451 L0.0930461538,33.9247293 C0.0930461538,33.4282659 0.128584615,33.0321744 0.199661538,32.7396927 C0.271815385,32.4461317 0.369815385,32.1989793 0.495815385,31.9949976 C0.712276923,31.6485524 0.999815385,31.3776561 1.35950769,31.1833878 C1.72027692,30.9901988 2.14781538,30.8930646 2.64212308,30.8930646 Z M2.63135385,31.6010646 C2.23289231,31.6010646 1.89689231,31.6712171 1.62335385,31.8104427 C1.35089231,31.9496683 1.13443077,32.1579671 0.9772,32.4331805 C0.863046154,32.6339244 0.784430769,32.8476195 0.7392,33.0731866 C0.695046154,33.2987537 0.673507692,33.56965 0.673507692,33.8847963 L0.673507692,34.5215646 L4.59996923,34.5215646 L4.59996923,33.8847963 C4.59996923,33.557778 4.57735385,33.2739305 4.52889231,33.0300159 C4.48150769,32.7882598 4.39212308,32.5648512 4.26289231,32.3608695 C4.10027692,32.1083207 3.88704615,31.9183695 3.6232,31.7920951 C3.35827692,31.6658207 3.02766154,31.6010646 2.63135385,31.6010646 Z M5.18161538,26.5462037 L5.18161538,29.9038073 L0.0920769231,29.9038073 L0.0920769231,26.5462037 L0.694076923,26.5462037 L0.694076923,29.2260268 L2.08869231,29.2260268 L2.08869231,26.5462037 L2.69069231,26.5462037 L2.69069231,29.2260268 L4.57961538,29.2260268 L4.57961538,26.5462037 L5.18161538,26.5462037 Z M5.18161538,21.5682945 L5.18161538,22.406886 L0.628384615,24.824447 L5.18161538,24.824447 L5.18161538,25.4579774 L0.0920769231,25.4579774 L0.0920769231,24.4067701 L4.249,22.201825 L0.0920769231,22.201825 L0.0920769231,21.5682945 L5.18161538,21.5682945 Z M4.81244615,16.3680561 C4.86736923,16.4932512 4.91906154,16.6076537 4.96644615,16.7080256 C5.01383077,16.8094768 5.06336923,16.9433061 5.11613846,17.1073549 C5.15921538,17.2465805 5.19583077,17.397678 5.22813846,17.5606476 C5.25829231,17.7246963 5.27444615,17.9038549 5.27444615,18.0992024 C5.27444615,18.4693915 5.22167692,18.8061232 5.11829231,19.1083183 C5.01383077,19.4094341 4.85229231,19.6738549 4.63152308,19.8972634 C4.41506154,20.1163549 4.13936923,20.2868793 3.80552308,20.4099159 C3.47167692,20.5329524 3.08398462,20.59555 2.64136923,20.59555 C2.22244615,20.59555 1.84767692,20.535111 1.51706154,20.4174707 C1.18752308,20.2987512 0.907523077,20.1271476 0.680292308,19.903739 C0.458446154,19.6868061 0.290446154,19.4245439 0.174138462,19.1180317 C0.0578307692,18.8115195 -0.000323076923,18.4704707 -0.000323076923,18.0970439 C-0.000323076923,17.8229098 0.0330615385,17.5498549 0.0987538462,17.2768 C0.165523077,17.0037451 0.280753846,16.70155 0.447676923,16.3680561 L1.24998462,16.3680561 L1.24998462,16.419861 C1.01629231,16.7004707 0.845061538,16.9778427 0.738446154,17.2541354 C0.630753846,17.530428 0.576907692,17.8261476 0.576907692,18.1412939 C0.576907692,18.399239 0.618907692,18.6312817 0.702907692,18.837422 C0.785830769,19.0435622 0.915061538,19.2281171 1.0906,19.3900073 C1.26075385,19.5475805 1.47613846,19.6706171 1.73783077,19.7591171 C1.99844615,19.8465378 2.29998462,19.8907878 2.64136923,19.8907878 C2.99890769,19.8907878 3.30798462,19.8422207 3.56536923,19.7450866 C3.82167692,19.6479524 4.03167692,19.5227573 4.19429231,19.3695012 C4.36229231,19.2097695 4.48613846,19.0230561 4.56690769,18.8104402 C4.64875385,18.5967451 4.68967692,18.371178 4.68967692,18.1348183 C4.68967692,17.8078 4.63367692,17.5023671 4.52167692,17.216361 C4.40967692,16.9314341 4.24275385,16.6637756 4.01983077,16.4155439 L4.01983077,16.3680561 L4.81244615,16.3680561 Z M5.18161538,13.6129 L5.18161538,15.6246561 L4.66253846,15.6246561 L4.66253846,14.9576683 L0.612230769,14.9576683 L0.612230769,15.6246561 L0.0920769231,15.6246561 L0.0920769231,13.6129 L0.612230769,13.6129 L0.612230769,14.2798878 L4.66253846,14.2798878 L4.66253846,13.6129 L5.18161538,13.6129 Z M5.18118462,8.4834616 L5.18118462,9.2054921 L3.76287692,9.7051933 L3.76287692,11.9101384 L5.18118462,12.4098396 L5.18118462,13.0973335 L0.0927230769,11.2409921 L0.0927230769,10.3387238 L5.18118462,8.4834616 Z M3.18241538,9.9134921 L0.683953846,10.8071262 L3.18241538,11.7039982 L3.18241538,9.9134921 Z M10.3325385,45.2271506 C10.7945385,45.2271506 11.2134615,45.3286018 11.5903846,45.530425 C11.9662308,45.7322482 12.257,46.000986 12.4648462,46.3355591 C12.6080769,46.5686811 12.7114615,46.8287848 12.7760769,47.1147909 C12.8396154,47.400797 12.8708462,47.7785409 12.8708462,48.245864 L12.8708462,49.5334311 L7.78346154,49.5334311 L7.78346154,48.2588152 C7.78346154,47.7623518 7.819,47.3662604 7.89007692,47.0737787 C7.96223077,46.7802177 8.06023077,46.5330652 8.18515385,46.3290835 C8.40161538,45.9826384 8.68915385,45.7117421 9.04884615,45.5174738 C9.41069231,45.3242848 9.83823077,45.2271506 10.3325385,45.2271506 Z M10.3217692,45.9351506 C9.92223077,45.9351506 9.58730769,46.005303 9.31376923,46.1445287 C9.04130769,46.2837543 8.82376923,46.492053 8.66653846,46.7672665 C8.55238462,46.9680104 8.47484615,47.1817055 8.43069231,47.4072726 C8.38438462,47.6328396 8.36392308,47.903736 8.36392308,48.2188823 L8.36392308,48.8556506 L12.2903846,48.8556506 L12.2903846,48.2188823 C12.2903846,47.891864 12.2677692,47.6080165 12.2193077,47.3641018 C12.1708462,47.1223457 12.0825385,46.8989372 11.9522308,46.6949555 C11.7896154,46.4424067 11.5774615,46.2524555 11.3125385,46.1261811 C11.0497692,45.9999067 10.717,45.9351506 10.3217692,45.9351506 Z M12.8710615,40.7537994 L12.8710615,44.111403 L7.7826,44.111403 L7.7826,40.7537994 L8.3846,40.7537994 L8.3846,43.4336226 L9.77921538,43.4336226 L9.77921538,40.7537994 L10.3801385,40.7537994 L10.3801385,43.4336226 L12.2690615,43.4336226 L12.2690615,40.7537994 L12.8710615,40.7537994 Z M12.5029692,33.3622146 C12.5578923,33.4874098 12.6085077,33.6018122 12.6569692,33.7021841 C12.7043538,33.8036354 12.7528154,33.9374646 12.8055846,34.1015134 C12.8497385,34.240739 12.8874308,34.3918366 12.9175846,34.5548061 C12.9488154,34.7188549 12.9638923,34.8980134 12.9638923,35.093361 C12.9638923,35.46355 12.9111231,35.8002817 12.8077385,36.1024768 C12.7043538,36.4035927 12.5428154,36.6680134 12.3220462,36.891422 C12.1055846,37.1105134 11.8298923,37.2810378 11.4949692,37.4040744 C11.1611231,37.527111 10.7745077,37.5897085 10.3318923,37.5897085 C9.91404615,37.5897085 9.53712308,37.5292695 9.20650769,37.4116293 C8.87696923,37.2929098 8.59696923,37.1213061 8.36973846,36.8978976 C8.14896923,36.6809646 7.98096923,36.4187024 7.86466154,36.1121902 C7.74727692,35.805678 7.6902,35.4646293 7.6902,35.0912024 C7.6902,34.8170683 7.72250769,34.5440134 7.78927692,34.2709585 C7.85496923,33.9979037 7.97235385,33.6957085 8.1382,33.3622146 L8.93943077,33.3622146 L8.93943077,33.4140195 C8.70681538,33.6946293 8.53558462,33.9720012 8.42896923,34.2482939 C8.32127692,34.5245866 8.26635385,34.8203061 8.26635385,35.1354524 C8.26635385,35.3933976 8.30835385,35.6254402 8.39343077,35.8315805 C8.47527692,36.0377207 8.60558462,36.2222756 8.78004615,36.3841659 C8.9502,36.541739 9.16666154,36.6647756 9.42835385,36.7532756 C9.68896923,36.8406963 9.98943077,36.8849463 10.3318923,36.8849463 C10.6894308,36.8849463 10.9974308,36.8363793 11.2558923,36.7392451 C11.5122,36.642111 11.7222,36.5169159 11.8848154,36.3636598 C12.0528154,36.203928 12.1766615,36.0172146 12.2585077,35.8045988 C12.3392769,35.5909037 12.3791231,35.3653366 12.3791231,35.1289768 C12.3791231,34.8019585 12.3242,34.4965256 12.2122,34.2105195 C12.1012769,33.9255927 11.9332769,33.6579341 11.7103538,33.4097024 L11.7103538,33.3622146 L12.5029692,33.3622146 Z M8.36586154,28.6042604 C8.59524615,28.3970409 8.87416923,28.2383884 9.20478462,28.1272238 C9.5354,28.0160591 9.90909231,27.9610165 10.3280154,27.9610165 C10.7490923,27.9610165 11.1227846,28.0171384 11.4555538,28.1304616 C11.7861692,28.2427055 12.0629385,28.4013579 12.2837077,28.6042604 C12.5130923,28.8147177 12.6854,29.0629494 12.8038615,29.3489555 C12.9190923,29.6349616 12.9783231,29.9619799 12.9783231,30.3300104 C12.9783231,30.6872482 12.9169385,31.0142665 12.7995538,31.3067482 C12.6821692,31.6003091 12.5087846,31.8485409 12.2837077,32.0546811 C12.0564769,32.2597421 11.7818615,32.4183945 11.4534,32.5284799 C11.1249385,32.6396445 10.7512462,32.6946872 10.3280154,32.6946872 C9.9134,32.6946872 9.54186154,32.6407238 9.2134,32.5306384 C8.88278462,32.420553 8.60063077,32.2608213 8.36586154,32.0514433 C8.14293846,31.8506994 7.97170769,31.6013884 7.85432308,31.3024311 C7.73478462,31.0056323 7.67555385,30.6807726 7.67555385,30.3300104 C7.67555385,29.9641384 7.73693846,29.6360409 7.85647692,29.3457177 C7.97386154,29.0543152 8.14509231,28.8082421 8.36586154,28.6042604 Z M10.3280154,28.6657787 C9.66786154,28.6657787 9.15847692,28.8147177 8.79878462,29.1104372 C8.43909231,29.407236 8.26032308,29.8119616 8.26032308,30.3256933 C8.26032308,30.8448213 8.43909231,31.2517055 8.79878462,31.5463457 C9.15847692,31.840986 9.66786154,31.989925 10.3280154,31.989925 C10.9967846,31.989925 11.5083231,31.8388274 11.8615538,31.5377116 C12.2169385,31.2365957 12.3935538,30.8329494 12.3935538,30.3256933 C12.3935538,29.8195165 12.2169385,29.4158701 11.8615538,29.1158335 C11.5083231,28.8168762 10.9967846,28.6657787 10.3280154,28.6657787 Z M12.8710615,23.766872 L12.8710615,26.9917256 L7.7826,26.9917256 L7.7826,26.3139451 L12.2690615,26.3139451 L12.2690615,23.766872 L12.8710615,23.766872 Z M8.36586154,19.4235726 C8.59524615,19.2152738 8.87416923,19.0566213 9.20478462,18.9454567 C9.5354,18.8353713 9.90909231,18.7803287 10.3280154,18.7803287 C10.7490923,18.7803287 11.1227846,18.8364506 11.4555538,18.9486945 C11.7861692,19.0620177 12.0629385,19.2195909 12.2837077,19.4235726 C12.5130923,19.6329506 12.6854,19.8811823 12.8038615,20.1671884 C12.9190923,20.4542738 12.9783231,20.7812921 12.9783231,21.1482433 C12.9783231,21.5065604 12.9169385,21.8324994 12.7995538,22.1249811 C12.6821692,22.4185421 12.5087846,22.667853 12.2837077,22.8739933 C12.0564769,23.0790543 11.7818615,23.2366274 11.4534,23.3477921 C11.1249385,23.4578774 10.7512462,23.5129201 10.3280154,23.5129201 C9.9134,23.5129201 9.54186154,23.4589567 9.2134,23.3488713 C8.88278462,23.2398652 8.60063077,23.0801335 8.36586154,22.8696762 C8.14293846,22.6689323 7.97170769,22.4196213 7.85432308,22.1217433 C7.73478462,21.8238652 7.67555385,21.5000848 7.67555385,21.1482433 C7.67555385,20.7834506 7.73693846,20.455353 7.85647692,20.1639506 C7.97386154,19.8736274 8.14509231,19.626475 8.36586154,19.4235726 Z M10.3280154,19.4850909 C9.66786154,19.4850909 9.15847692,19.6329506 8.79878462,19.9297494 C8.43909231,20.2265482 8.26032308,20.6312738 8.26032308,21.1450055 C8.26032308,21.6630543 8.43909231,22.0699384 8.79878462,22.3645787 C9.15847692,22.6602982 9.66786154,22.8081579 10.3280154,22.8081579 C10.9967846,22.8081579 11.5083231,22.6570604 11.8615538,22.3570238 C12.2169385,22.0548287 12.3935538,21.6511823 12.3935538,21.1450055 C12.3935538,20.6377494 12.2169385,20.2351823 11.8615538,19.9351457 C11.5083231,19.6351091 10.9967846,19.4850909 10.3280154,19.4850909 Z M12.8710615,13.1244232 L12.8710615,13.8022037 L8.48583077,13.8022037 L11.4699846,15.2192829 L11.4699846,15.6229293 L8.48583077,17.0292159 L12.8710615,17.0292159 L12.8710615,17.6627463 L7.7826,17.6627463 L7.7826,16.7388927 L10.6159846,15.3800939 L7.7826,14.0655451 L7.7826,13.1244232 L12.8710615,13.1244232 Z M11.3065077,7.9682189 C11.5585077,7.9682189 11.7814308,8.0157067 11.9752769,8.1117616 C12.1702,8.2078165 12.3285077,8.3362494 12.4545077,8.4981396 C12.6042,8.6902494 12.7108154,8.9007067 12.7765077,9.1295116 C12.8389692,9.3593957 12.8712769,9.6507982 12.8712769,10.0047982 L12.8712769,11.8114933 L7.78281538,11.8114933 L7.78281538,10.3026762 C7.78281538,9.9303287 7.79573846,9.6518774 7.82266154,9.4673226 C7.85066154,9.2816884 7.90666154,9.1057677 7.99281538,8.9363226 C8.09189231,8.7496091 8.21789231,8.6136213 8.37189231,8.5294384 C8.52589231,8.4452555 8.71004615,8.403164 8.92327692,8.403164 C9.16450769,8.403164 9.37127692,8.4646823 9.54143077,8.5877189 C9.70943077,8.7107555 9.8462,8.8748043 9.94958462,9.0798652 L9.97650769,9.0798652 C10.0465077,8.7355787 10.1972769,8.4646823 10.4288154,8.266097 C10.6603538,8.0675116 10.9522,7.9682189 11.3065077,7.9682189 Z M11.3334308,8.6729811 C11.1277385,8.6729811 10.9651231,8.7042799 10.8455846,8.7657982 C10.7238923,8.8273165 10.6205077,8.9395604 10.5365077,9.1003713 C10.4794308,9.2104567 10.4438923,9.3432067 10.4266615,9.4997006 C10.4083538,9.6561945 10.3997385,9.8461457 10.3997385,10.0695543 L10.3997385,11.1337128 L12.2951231,11.1337128 L12.2951231,10.2368409 C12.2951231,9.9411213 12.2778923,9.6972067 12.2488154,9.5083348 C12.2165077,9.3194628 12.1605077,9.1640482 12.0775846,9.0431701 C11.9892769,8.9147372 11.8891231,8.8219201 11.7749692,8.7625604 C11.6597385,8.7032006 11.5143538,8.6729811 11.3334308,8.6729811 Z M9.01373846,9.1079262 C8.88881538,9.1079262 8.78650769,9.1284323 8.70250769,9.1694445 C8.61850769,9.2104567 8.54850769,9.2773713 8.49573846,9.3680299 C8.43543077,9.4748774 8.39666154,9.6054689 8.38266154,9.7576457 C8.36758462,9.9109018 8.35896923,10.100853 8.35896923,10.3264201 L8.35896923,11.1337128 L9.83004615,11.1337128 L9.83004615,10.257347 C9.83004615,10.0458104 9.81927692,9.8763652 9.79773846,9.7511701 C9.77512308,9.625975 9.73096923,9.509414 9.66096923,9.4025665 C9.5942,9.2946396 9.50589231,9.2190909 9.39604615,9.1748409 C9.28943077,9.1295116 9.1602,9.1079262 9.01373846,9.1079262 Z M12.8710615,5.271775 L12.8710615,7.2846104 L12.3519846,7.2846104 L12.3519846,6.6176226 L8.30275385,6.6176226 L8.30275385,7.2846104 L7.7826,7.2846104 L7.7826,5.271775 L8.30275385,5.271775 L8.30275385,5.9398421 L12.3519846,5.9398421 L12.3519846,5.271775 L12.8710615,5.271775 Z M12.8705231,0.1211829 L12.8705231,0.8442927 L11.4532923,1.3439939 L11.4532923,3.5478598 L12.8705231,4.047561 L12.8705231,4.7350549 L7.78313846,2.8797927 L7.78313846,1.9764451 L12.8705231,0.1211829 Z M10.8728308,1.5522927 L8.37436923,2.4459268 L10.8728308,3.3427988 L10.8728308,1.5522927 Z" id="logo-SFC_path-1" />
    </defs>
    <g id="logo-SFC_Page-1" stroke="none" stroke-width="1" fill="none" fill-rule="evenodd">
        <g id="logo-SFC_Group" transform="translate(6.500000, 90.000000) rotate(-90.000000) translate(-6.500000, -90.000000) translate(-85.500000, 82.500000)">
            <g id="logo-SFC_logo-super-copy" transform="translate(72.500000, 8.000000) rotate(90.000000) translate(-72.500000, -8.000000) translate(65.500000, -64.500000)">
                <g id="logo-SFC_Mask">
                    <path d="M0.00107692308,144.780909 L0.00107692308,89.738226 L1.078,89.738226 L1.078,144.780909 L0.00107692308,144.780909 Z M3.89964615,137.602263 L10.1027231,140.175239 L10.1027231,142.210739 L3.89964615,144.780477 L3.89964615,142.871251 L8.25364615,141.167087 L3.89964615,139.464001 L3.89964615,137.602263 Z M10.1029385,132.80988 L10.1029385,136.937002 L9.0034,136.937002 L9.0034,135.782185 L4.9994,135.782185 L4.9994,136.937002 L3.89986154,136.937002 L3.89986154,132.80988 L4.9994,132.80988 L4.9994,133.964698 L9.0034,133.964698 L9.0034,132.80988 L10.1029385,132.80988 Z M9.74755385,125.121173 C9.8574,125.437399 9.96401538,125.857234 10.0717077,126.376362 C10.1783231,126.897649 10.2310923,127.416777 10.2310923,127.932667 C10.2310923,129.132813 9.94570769,130.071777 9.37063077,130.750637 C8.79878462,131.429496 8.00616923,131.768387 6.99601538,131.768387 C6.03109231,131.768387 5.25355385,131.427338 4.6634,130.742002 C4.07432308,130.056667 3.77924615,129.101515 3.77924615,127.877624 C3.77924615,127.413539 3.81586154,126.971039 3.88909231,126.551204 C3.96232308,126.131368 4.10770769,125.666204 4.32955385,125.151393 L5.78232308,125.151393 L5.78232308,125.352137 C5.72416923,125.441716 5.64124615,125.572307 5.53463077,125.741752 C5.42801538,125.912277 5.33647692,126.076326 5.26109231,126.234978 C5.17278462,126.416295 5.09524615,126.62999 5.03386154,126.876063 C4.96709231,127.122137 4.93693846,127.380082 4.93693846,127.654216 C4.93693846,127.976917 4.97786154,128.269399 5.06186154,128.530582 C5.14586154,128.791765 5.27293846,129.028124 5.44524615,129.235344 C5.61324615,129.433929 5.82432308,129.590423 6.08063077,129.705905 C6.33693846,129.821387 6.63524615,129.879667 6.96909231,129.879667 C7.65724615,129.879667 8.18278462,129.673527 8.54678462,129.259088 C8.90863077,128.845728 9.09170769,128.235941 9.09170769,127.42757 C9.09170769,127.359576 9.08955385,127.280789 9.08524615,127.197685 C9.08524615,127.114582 9.08093846,127.036874 9.07447692,126.96888 L7.85647692,126.96888 L7.85647692,128.373009 L6.68693846,128.373009 L6.68693846,125.121173 L9.74755385,125.121173 Z M10.1029385,119.712204 L10.1029385,123.839326 L9.0034,123.839326 L9.0034,122.684509 L4.9994,122.684509 L4.9994,123.839326 L3.89986154,123.839326 L3.89986154,119.712204 L4.9994,119.712204 L4.9994,120.867021 L9.0034,120.867021 L9.0034,119.712204 L10.1029385,119.712204 Z M10.1029385,113.17227 L10.1029385,118.259941 L3.89986154,118.259941 L3.89986154,116.442453 L8.90432308,116.442453 L8.90432308,113.17227 L10.1029385,113.17227 Z M10.1032615,105.595915 L10.1032615,107.474921 L8.84756923,107.963829 L8.84756923,110.572421 L10.1032615,111.064567 L10.1032615,112.893927 L3.89910769,110.291811 L3.89910769,108.200189 L10.1032615,105.595915 Z M7.71141538,108.402012 L5.48864615,109.269744 L7.71141538,110.134238 L7.71141538,108.402012 Z M7.00656923,97.953184 C7.58487692,97.953184 8.10287692,98.099965 8.55949231,98.400001 C9.01503077,98.701117 9.36718462,99.08102 9.61272308,99.538629 C9.79364615,99.880757 9.92395385,100.258501 9.99610769,100.667544 C10.0671846,101.077666 10.1027231,101.564416 10.1027231,102.127794 L10.1027231,104.610111 L3.89964615,104.610111 L3.89964615,102.055483 C3.89964615,101.481312 3.94164615,100.984849 4.02672308,100.568251 C4.10964615,100.152733 4.23133846,99.801971 4.38641538,99.518123 C4.64810769,99.032452 4.99918462,98.648233 5.44287692,98.369782 C5.88656923,98.09133 6.4078,97.953184 7.00656923,97.953184 Z M6.9958,99.831111 C6.58656923,99.831111 6.23764615,99.915294 5.9458,100.08258 C5.65826154,100.252026 5.42995385,100.520763 5.26626154,100.885556 C5.18441538,101.07227 5.13056923,101.262221 5.10149231,101.456489 C5.07241538,101.650757 5.05841538,101.943239 5.05841538,102.335013 L5.05841538,102.793702 L8.9418,102.793702 L8.9418,102.335013 C8.9418,101.904385 8.92349231,101.583843 8.88903077,101.383099 C8.85349231,101.181276 8.79103077,100.98377 8.70056923,100.79058 C8.53364615,100.459245 8.31072308,100.217489 8.03072308,100.062074 C7.7518,99.907739 7.40610769,99.831111 6.9958,99.831111 Z M7.00258462,89.738657 C7.99335385,89.738657 8.77735385,90.0592 9.35889231,90.703523 C9.94258462,91.346767 10.2312,92.237163 10.2312,93.374712 C10.2312,94.509023 9.94258462,95.396182 9.35889231,96.038346 C8.77735385,96.683749 7.99335385,97.004291 7.00258462,97.004291 C6.00535385,97.004291 5.21704615,96.683749 4.63873846,96.038346 C4.05935385,95.396182 3.77073846,94.509023 3.77073846,93.374712 C3.77073846,92.244718 4.05935385,91.35648 4.63873846,90.70892 C5.21704615,90.061359 6.00535385,89.738657 7.00258462,89.738657 Z M8.57381538,92.147584 C8.38643077,91.969505 8.16135385,91.839993 7.90504615,91.75473 C7.64873846,91.669468 7.34504615,91.627377 6.99827692,91.627377 C6.62781538,91.627377 6.3112,91.675944 6.05058462,91.774157 C5.78889231,91.871291 5.57781538,91.998645 5.41627692,92.157298 C5.24935385,92.318109 5.12766154,92.503743 5.05443077,92.7142 C4.97796923,92.923578 4.94135385,93.140511 4.94135385,93.368237 C4.94135385,93.600279 4.97689231,93.816133 5.04904615,94.019035 C5.1212,94.224096 5.24073846,94.40973 5.40766154,94.580255 C5.56381538,94.737828 5.77704615,94.86842 6.05166154,94.965554 C6.3252,95.065926 6.64289231,95.116651 7.00258462,95.116651 C7.37089231,95.116651 7.68858462,95.067005 7.94704615,94.972029 C8.20550769,94.874895 8.41766154,94.748621 8.58458462,94.592127 C8.74612308,94.432395 8.86566154,94.24892 8.94643077,94.037383 C9.02181538,93.824767 9.06166154,93.603517 9.06166154,93.368237 C9.06166154,93.136194 9.02181538,92.913865 8.94427692,92.702328 C8.86458462,92.489712 8.73966154,92.305157 8.57381538,92.147584 Z M12.9230769,144.780909 L12.9230769,89.738226 L14,89.738226 L14,144.780909 L12.9230769,144.780909 Z M3.72927692,76.874535 C3.92743077,76.874535 4.12235385,76.920943 4.31727692,77.012681 C4.51112308,77.105498 4.67481538,77.23501 4.80943077,77.401218 C4.95481538,77.583614 5.06896923,77.79623 5.15081538,78.040145 C5.23266154,78.28298 5.27466154,78.575462 5.27466154,78.918669 C5.27466154,79.284541 5.23912308,79.614797 5.17127692,79.909437 C5.10235385,80.201919 5.0022,80.499797 4.86758462,80.804151 L4.02004615,80.804151 L4.02004615,80.755584 C4.23327692,80.497638 4.39912308,80.19976 4.51435385,79.863029 C4.63173846,79.524138 4.68989231,79.206834 4.68989231,78.911114 C4.68989231,78.491279 4.6102,78.16426 4.45404615,77.931138 C4.29573846,77.696937 4.08681538,77.579297 3.82512308,77.579297 C3.59896923,77.579297 3.43312308,77.63434 3.32543077,77.745504 C3.21773846,77.85559 3.13481538,78.023955 3.07666154,78.249523 C3.03035385,78.422205 2.99266154,78.60676 2.96358462,78.806425 C2.93343077,79.00609 2.89681538,79.217626 2.85050769,79.441035 C2.75466154,79.893248 2.59096923,80.227821 2.36050769,80.445834 C2.12896923,80.663846 1.82635385,80.772852 1.45589231,80.772852 C1.02943077,80.772852 0.680507692,80.592614 0.408046154,80.232138 C0.135584615,79.870584 -0.000107692308,79.414053 -0.000107692308,78.859309 C-0.000107692308,78.500992 0.0332769231,78.172895 0.1022,77.873937 C0.170046154,77.573901 0.254046154,77.30948 0.355276923,77.079596 L1.15435385,77.079596 L1.15435385,77.127084 C0.990661538,77.321352 0.854969231,77.576059 0.7462,77.892285 C0.638507692,78.20851 0.584661538,78.532291 0.584661538,78.863626 C0.584661538,79.22626 0.658969231,79.516584 0.809738462,79.736754 C0.960507692,79.956925 1.15327692,80.06809 1.39127692,80.06809 C1.60235385,80.06809 1.76927692,80.013047 1.88989231,79.904041 C2.01050769,79.793955 2.10312308,79.600766 2.16666154,79.325553 C2.19896923,79.178773 2.23666154,78.970474 2.28296923,78.701736 C2.3282,78.432998 2.37558462,78.204193 2.42296923,78.01748 C2.52312308,77.638657 2.67496923,77.352651 2.87743077,77.162699 C3.07989231,76.97059 3.3642,76.874535 3.72927692,76.874535 Z M3.13718462,71.997753 C3.50656923,71.997753 3.82856923,72.038765 4.10210769,72.118631 C4.37672308,72.199576 4.60610769,72.333405 4.78810769,72.51796 C4.96149231,72.69496 5.08856923,72.898942 5.16826154,73.134223 C5.24795385,73.369503 5.2878,73.642558 5.2878,73.955546 C5.2878,74.275009 5.24472308,74.55346 5.16072308,74.790899 C5.07672308,75.028338 4.95287692,75.228003 4.78810769,75.389893 C4.60072308,75.574448 4.37564615,75.708277 4.1118,75.789223 C3.84687692,75.870168 3.52164615,75.910101 3.13718462,75.910101 L0.0927230769,75.910101 L0.0927230769,75.23232 L3.17164615,75.23232 C3.44733846,75.23232 3.66487692,75.212893 3.82533846,75.175119 C3.98364615,75.138424 4.12903077,75.075826 4.25826154,74.986247 C4.40687692,74.885875 4.5178,74.749887 4.59426154,74.577204 C4.66856923,74.404521 4.70626154,74.197302 4.70626154,73.955546 C4.70626154,73.711631 4.66964615,73.504412 4.59533846,73.332808 C4.52103077,73.161204 4.40903077,73.024137 4.25826154,72.921607 C4.12903077,72.833107 3.97933846,72.76943 3.81241538,72.732735 C3.64549231,72.69496 3.43656923,72.675534 3.18887692,72.675534 L0.0927230769,72.675534 L0.0927230769,71.997753 L3.13718462,71.997753 Z M1.62970769,67.357439 C1.85586154,67.357439 2.06478462,67.3962927 2.25647692,67.4750793 C2.44924615,67.5527866 2.61616923,67.6639512 2.75832308,67.8053354 C2.93278462,67.9812561 3.06416923,68.188476 3.15247692,68.428073 C3.23970769,68.667671 3.28493846,68.969866 3.28493846,69.335738 L3.28493846,70.013518 L5.1814,70.013518 L5.1814,70.691299 L0.0929384615,70.691299 L0.0929384615,69.307677 C0.0929384615,69.001165 0.117707692,68.74322 0.1694,68.530604 C0.220015385,68.317988 0.300784615,68.129116 0.410630769,67.9661463 C0.539861538,67.771878 0.7014,67.6218598 0.895246154,67.5160915 C1.08801538,67.4092439 1.33355385,67.357439 1.62970769,67.357439 Z M1.64693846,68.061122 C1.4714,68.061122 1.31847692,68.092421 1.18924615,68.153939 C1.05893846,68.216537 0.9534,68.308274 0.871553846,68.434549 C0.800476923,68.543555 0.749861538,68.66875 0.719707692,68.809055 C0.688476923,68.94936 0.6734,69.127439 0.6734,69.342213 L0.6734,70.013518 L2.70663077,70.013518 L2.70663077,69.440427 C2.70663077,69.166293 2.68186154,68.943963 2.6334,68.773439 C2.58386154,68.602915 2.50632308,68.463689 2.39863077,68.355762 C2.28986154,68.248915 2.17463077,68.173366 2.05401538,68.128037 C1.9334,68.083787 1.79770769,68.061122 1.64693846,68.061122 Z M5.18161538,63.1548762 L5.18161538,66.5124799 L0.0920769231,66.5124799 L0.0920769231,63.1548762 L0.694076923,63.1548762 L0.694076923,65.8346994 L2.08869231,65.8346994 L2.08869231,63.1548762 L2.69069231,63.1548762 L2.69069231,65.8346994 L4.57961538,65.8346994 L4.57961538,63.1548762 L5.18161538,63.1548762 Z M5.18107692,57.8489774 L5.18107692,58.7285811 L3.15861538,60.4327457 L3.15861538,61.3889774 L5.18107692,61.3889774 L5.18107692,62.0656787 L0.0926153846,62.0656787 L0.0926153846,60.6378067 C0.0926153846,60.3302152 0.110923077,60.0744287 0.151846154,59.8682884 C0.191692308,59.6632274 0.262769231,59.4775933 0.366153846,59.3146238 C0.481384615,59.1289896 0.627846154,58.9843677 0.804461538,58.8807579 C0.981076923,58.7771482 1.20507692,58.7253433 1.47646154,58.7253433 C1.84369231,58.7253433 2.15061538,58.8181604 2.39830769,59.0027152 C2.64492308,59.1861909 2.83123077,59.4419774 2.95615385,59.7657579 L5.18107692,57.8489774 Z M1.52384615,59.4333433 C1.37846154,59.4333433 1.24923077,59.4592457 1.13615385,59.5099713 C1.02307692,59.5617762 0.928307692,59.6470384 0.850769231,59.7657579 C0.784,59.8628921 0.738769231,59.9805323 0.711846154,60.1143616 C0.686,60.2492701 0.673076923,60.4079226 0.673076923,60.5903189 L0.673076923,61.3889774 L2.59430769,61.3889774 L2.59430769,60.7036421 C2.59430769,60.489947 2.576,60.3021543 2.53723077,60.1413433 C2.49953846,59.9826909 2.43061538,59.846703 2.32723077,59.7344591 C2.23138462,59.6330079 2.12153846,59.5563799 1.99661538,59.5067335 C1.87276923,59.4581665 1.71553846,59.4333433 1.52384615,59.4333433 Z M5.18161538,55.5283348 L5.18161538,57.5400909 L4.66253846,57.5400909 L4.66253846,56.873103 L0.612230769,56.873103 L0.612230769,57.5400909 L0.0920769231,57.5400909 L0.0920769231,55.5283348 L0.612230769,55.5283348 L0.612230769,56.1953226 L4.66253846,56.1953226 L4.66253846,55.5283348 L5.18161538,55.5283348 Z M5.18161538,50.5072549 L5.18161538,51.3458463 L0.628384615,53.7634073 L5.18161538,53.7634073 L5.18161538,54.3969378 L0.0920769231,54.3969378 L0.0920769231,53.3457305 L4.249,51.1407854 L0.0920769231,51.1407854 L0.0920769231,50.5072549 L5.18161538,50.5072549 Z M0.694076923,45.4829372 L0.694076923,47.3036628 L5.18161538,47.3036628 L5.18161538,47.980364 L0.694076923,47.980364 L0.694076923,49.8021689 L0.0920769231,49.8021689 L0.0920769231,45.4829372 L0.694076923,45.4829372 Z M5.18161538,41.4398902 L5.18161538,44.7974939 L0.0920769231,44.7974939 L0.0920769231,41.4398902 L0.694076923,41.4398902 L0.694076923,44.1197134 L2.08869231,44.1197134 L2.08869231,41.4398902 L2.69069231,41.4398902 L2.69069231,44.1197134 L4.57961538,44.1197134 L4.57961538,41.4398902 L5.18161538,41.4398902 Z M5.18161538,36.5884713 L5.18161538,37.4270628 L0.628384615,39.8446238 L5.18161538,39.8446238 L5.18161538,40.4781543 L0.0920769231,40.4781543 L0.0920769231,39.426947 L4.249,37.2220018 L0.0920769231,37.2220018 L0.0920769231,36.5884713 L5.18161538,36.5884713 Z M2.64212308,30.8930646 C3.10412308,30.8930646 3.52412308,30.9945159 3.89996923,31.196339 C4.27581538,31.3981622 4.56766154,31.6669 4.77443077,32.0014732 C4.91873846,32.2345951 5.02212308,32.4946988 5.08566154,32.7807049 C5.1492,33.066711 5.18150769,33.4444549 5.18150769,33.911778 L5.18150769,35.1993451 L0.0930461538,35.1993451 L0.0930461538,33.9247293 C0.0930461538,33.4282659 0.128584615,33.0321744 0.199661538,32.7396927 C0.271815385,32.4461317 0.369815385,32.1989793 0.495815385,31.9949976 C0.712276923,31.6485524 0.999815385,31.3776561 1.35950769,31.1833878 C1.72027692,30.9901988 2.14781538,30.8930646 2.64212308,30.8930646 Z M2.63135385,31.6010646 C2.23289231,31.6010646 1.89689231,31.6712171 1.62335385,31.8104427 C1.35089231,31.9496683 1.13443077,32.1579671 0.9772,32.4331805 C0.863046154,32.6339244 0.784430769,32.8476195 0.7392,33.0731866 C0.695046154,33.2987537 0.673507692,33.56965 0.673507692,33.8847963 L0.673507692,34.5215646 L4.59996923,34.5215646 L4.59996923,33.8847963 C4.59996923,33.557778 4.57735385,33.2739305 4.52889231,33.0300159 C4.48150769,32.7882598 4.39212308,32.5648512 4.26289231,32.3608695 C4.10027692,32.1083207 3.88704615,31.9183695 3.6232,31.7920951 C3.35827692,31.6658207 3.02766154,31.6010646 2.63135385,31.6010646 Z M5.18161538,26.5462037 L5.18161538,29.9038073 L0.0920769231,29.9038073 L0.0920769231,26.5462037 L0.694076923,26.5462037 L0.694076923,29.2260268 L2.08869231,29.2260268 L2.08869231,26.5462037 L2.69069231,26.5462037 L2.69069231,29.2260268 L4.57961538,29.2260268 L4.57961538,26.5462037 L5.18161538,26.5462037 Z M5.18161538,21.5682945 L5.18161538,22.406886 L0.628384615,24.824447 L5.18161538,24.824447 L5.18161538,25.4579774 L0.0920769231,25.4579774 L0.0920769231,24.4067701 L4.249,22.201825 L0.0920769231,22.201825 L0.0920769231,21.5682945 L5.18161538,21.5682945 Z M4.81244615,16.3680561 C4.86736923,16.4932512 4.91906154,16.6076537 4.96644615,16.7080256 C5.01383077,16.8094768 5.06336923,16.9433061 5.11613846,17.1073549 C5.15921538,17.2465805 5.19583077,17.397678 5.22813846,17.5606476 C5.25829231,17.7246963 5.27444615,17.9038549 5.27444615,18.0992024 C5.27444615,18.4693915 5.22167692,18.8061232 5.11829231,19.1083183 C5.01383077,19.4094341 4.85229231,19.6738549 4.63152308,19.8972634 C4.41506154,20.1163549 4.13936923,20.2868793 3.80552308,20.4099159 C3.47167692,20.5329524 3.08398462,20.59555 2.64136923,20.59555 C2.22244615,20.59555 1.84767692,20.535111 1.51706154,20.4174707 C1.18752308,20.2987512 0.907523077,20.1271476 0.680292308,19.903739 C0.458446154,19.6868061 0.290446154,19.4245439 0.174138462,19.1180317 C0.0578307692,18.8115195 -0.000323076923,18.4704707 -0.000323076923,18.0970439 C-0.000323076923,17.8229098 0.0330615385,17.5498549 0.0987538462,17.2768 C0.165523077,17.0037451 0.280753846,16.70155 0.447676923,16.3680561 L1.24998462,16.3680561 L1.24998462,16.419861 C1.01629231,16.7004707 0.845061538,16.9778427 0.738446154,17.2541354 C0.630753846,17.530428 0.576907692,17.8261476 0.576907692,18.1412939 C0.576907692,18.399239 0.618907692,18.6312817 0.702907692,18.837422 C0.785830769,19.0435622 0.915061538,19.2281171 1.0906,19.3900073 C1.26075385,19.5475805 1.47613846,19.6706171 1.73783077,19.7591171 C1.99844615,19.8465378 2.29998462,19.8907878 2.64136923,19.8907878 C2.99890769,19.8907878 3.30798462,19.8422207 3.56536923,19.7450866 C3.82167692,19.6479524 4.03167692,19.5227573 4.19429231,19.3695012 C4.36229231,19.2097695 4.48613846,19.0230561 4.56690769,18.8104402 C4.64875385,18.5967451 4.68967692,18.371178 4.68967692,18.1348183 C4.68967692,17.8078 4.63367692,17.5023671 4.52167692,17.216361 C4.40967692,16.9314341 4.24275385,16.6637756 4.01983077,16.4155439 L4.01983077,16.3680561 L4.81244615,16.3680561 Z M5.18161538,13.6129 L5.18161538,15.6246561 L4.66253846,15.6246561 L4.66253846,14.9576683 L0.612230769,14.9576683 L0.612230769,15.6246561 L0.0920769231,15.6246561 L0.0920769231,13.6129 L0.612230769,13.6129 L0.612230769,14.2798878 L4.66253846,14.2798878 L4.66253846,13.6129 L5.18161538,13.6129 Z M5.18118462,8.4834616 L5.18118462,9.2054921 L3.76287692,9.7051933 L3.76287692,11.9101384 L5.18118462,12.4098396 L5.18118462,13.0973335 L0.0927230769,11.2409921 L0.0927230769,10.3387238 L5.18118462,8.4834616 Z M3.18241538,9.9134921 L0.683953846,10.8071262 L3.18241538,11.7039982 L3.18241538,9.9134921 Z M10.3325385,45.2271506 C10.7945385,45.2271506 11.2134615,45.3286018 11.5903846,45.530425 C11.9662308,45.7322482 12.257,46.000986 12.4648462,46.3355591 C12.6080769,46.5686811 12.7114615,46.8287848 12.7760769,47.1147909 C12.8396154,47.400797 12.8708462,47.7785409 12.8708462,48.245864 L12.8708462,49.5334311 L7.78346154,49.5334311 L7.78346154,48.2588152 C7.78346154,47.7623518 7.819,47.3662604 7.89007692,47.0737787 C7.96223077,46.7802177 8.06023077,46.5330652 8.18515385,46.3290835 C8.40161538,45.9826384 8.68915385,45.7117421 9.04884615,45.5174738 C9.41069231,45.3242848 9.83823077,45.2271506 10.3325385,45.2271506 Z M10.3217692,45.9351506 C9.92223077,45.9351506 9.58730769,46.005303 9.31376923,46.1445287 C9.04130769,46.2837543 8.82376923,46.492053 8.66653846,46.7672665 C8.55238462,46.9680104 8.47484615,47.1817055 8.43069231,47.4072726 C8.38438462,47.6328396 8.36392308,47.903736 8.36392308,48.2188823 L8.36392308,48.8556506 L12.2903846,48.8556506 L12.2903846,48.2188823 C12.2903846,47.891864 12.2677692,47.6080165 12.2193077,47.3641018 C12.1708462,47.1223457 12.0825385,46.8989372 11.9522308,46.6949555 C11.7896154,46.4424067 11.5774615,46.2524555 11.3125385,46.1261811 C11.0497692,45.9999067 10.717,45.9351506 10.3217692,45.9351506 Z M12.8710615,40.7537994 L12.8710615,44.111403 L7.7826,44.111403 L7.7826,40.7537994 L8.3846,40.7537994 L8.3846,43.4336226 L9.77921538,43.4336226 L9.77921538,40.7537994 L10.3801385,40.7537994 L10.3801385,43.4336226 L12.2690615,43.4336226 L12.2690615,40.7537994 L12.8710615,40.7537994 Z M12.5029692,33.3622146 C12.5578923,33.4874098 12.6085077,33.6018122 12.6569692,33.7021841 C12.7043538,33.8036354 12.7528154,33.9374646 12.8055846,34.1015134 C12.8497385,34.240739 12.8874308,34.3918366 12.9175846,34.5548061 C12.9488154,34.7188549 12.9638923,34.8980134 12.9638923,35.093361 C12.9638923,35.46355 12.9111231,35.8002817 12.8077385,36.1024768 C12.7043538,36.4035927 12.5428154,36.6680134 12.3220462,36.891422 C12.1055846,37.1105134 11.8298923,37.2810378 11.4949692,37.4040744 C11.1611231,37.527111 10.7745077,37.5897085 10.3318923,37.5897085 C9.91404615,37.5897085 9.53712308,37.5292695 9.20650769,37.4116293 C8.87696923,37.2929098 8.59696923,37.1213061 8.36973846,36.8978976 C8.14896923,36.6809646 7.98096923,36.4187024 7.86466154,36.1121902 C7.74727692,35.805678 7.6902,35.4646293 7.6902,35.0912024 C7.6902,34.8170683 7.72250769,34.5440134 7.78927692,34.2709585 C7.85496923,33.9979037 7.97235385,33.6957085 8.1382,33.3622146 L8.93943077,33.3622146 L8.93943077,33.4140195 C8.70681538,33.6946293 8.53558462,33.9720012 8.42896923,34.2482939 C8.32127692,34.5245866 8.26635385,34.8203061 8.26635385,35.1354524 C8.26635385,35.3933976 8.30835385,35.6254402 8.39343077,35.8315805 C8.47527692,36.0377207 8.60558462,36.2222756 8.78004615,36.3841659 C8.9502,36.541739 9.16666154,36.6647756 9.42835385,36.7532756 C9.68896923,36.8406963 9.98943077,36.8849463 10.3318923,36.8849463 C10.6894308,36.8849463 10.9974308,36.8363793 11.2558923,36.7392451 C11.5122,36.642111 11.7222,36.5169159 11.8848154,36.3636598 C12.0528154,36.203928 12.1766615,36.0172146 12.2585077,35.8045988 C12.3392769,35.5909037 12.3791231,35.3653366 12.3791231,35.1289768 C12.3791231,34.8019585 12.3242,34.4965256 12.2122,34.2105195 C12.1012769,33.9255927 11.9332769,33.6579341 11.7103538,33.4097024 L11.7103538,33.3622146 L12.5029692,33.3622146 Z M8.36586154,28.6042604 C8.59524615,28.3970409 8.87416923,28.2383884 9.20478462,28.1272238 C9.5354,28.0160591 9.90909231,27.9610165 10.3280154,27.9610165 C10.7490923,27.9610165 11.1227846,28.0171384 11.4555538,28.1304616 C11.7861692,28.2427055 12.0629385,28.4013579 12.2837077,28.6042604 C12.5130923,28.8147177 12.6854,29.0629494 12.8038615,29.3489555 C12.9190923,29.6349616 12.9783231,29.9619799 12.9783231,30.3300104 C12.9783231,30.6872482 12.9169385,31.0142665 12.7995538,31.3067482 C12.6821692,31.6003091 12.5087846,31.8485409 12.2837077,32.0546811 C12.0564769,32.2597421 11.7818615,32.4183945 11.4534,32.5284799 C11.1249385,32.6396445 10.7512462,32.6946872 10.3280154,32.6946872 C9.9134,32.6946872 9.54186154,32.6407238 9.2134,32.5306384 C8.88278462,32.420553 8.60063077,32.2608213 8.36586154,32.0514433 C8.14293846,31.8506994 7.97170769,31.6013884 7.85432308,31.3024311 C7.73478462,31.0056323 7.67555385,30.6807726 7.67555385,30.3300104 C7.67555385,29.9641384 7.73693846,29.6360409 7.85647692,29.3457177 C7.97386154,29.0543152 8.14509231,28.8082421 8.36586154,28.6042604 Z M10.3280154,28.6657787 C9.66786154,28.6657787 9.15847692,28.8147177 8.79878462,29.1104372 C8.43909231,29.407236 8.26032308,29.8119616 8.26032308,30.3256933 C8.26032308,30.8448213 8.43909231,31.2517055 8.79878462,31.5463457 C9.15847692,31.840986 9.66786154,31.989925 10.3280154,31.989925 C10.9967846,31.989925 11.5083231,31.8388274 11.8615538,31.5377116 C12.2169385,31.2365957 12.3935538,30.8329494 12.3935538,30.3256933 C12.3935538,29.8195165 12.2169385,29.4158701 11.8615538,29.1158335 C11.5083231,28.8168762 10.9967846,28.6657787 10.3280154,28.6657787 Z M12.8710615,23.766872 L12.8710615,26.9917256 L7.7826,26.9917256 L7.7826,26.3139451 L12.2690615,26.3139451 L12.2690615,23.766872 L12.8710615,23.766872 Z M8.36586154,19.4235726 C8.59524615,19.2152738 8.87416923,19.0566213 9.20478462,18.9454567 C9.5354,18.8353713 9.90909231,18.7803287 10.3280154,18.7803287 C10.7490923,18.7803287 11.1227846,18.8364506 11.4555538,18.9486945 C11.7861692,19.0620177 12.0629385,19.2195909 12.2837077,19.4235726 C12.5130923,19.6329506 12.6854,19.8811823 12.8038615,20.1671884 C12.9190923,20.4542738 12.9783231,20.7812921 12.9783231,21.1482433 C12.9783231,21.5065604 12.9169385,21.8324994 12.7995538,22.1249811 C12.6821692,22.4185421 12.5087846,22.667853 12.2837077,22.8739933 C12.0564769,23.0790543 11.7818615,23.2366274 11.4534,23.3477921 C11.1249385,23.4578774 10.7512462,23.5129201 10.3280154,23.5129201 C9.9134,23.5129201 9.54186154,23.4589567 9.2134,23.3488713 C8.88278462,23.2398652 8.60063077,23.0801335 8.36586154,22.8696762 C8.14293846,22.6689323 7.97170769,22.4196213 7.85432308,22.1217433 C7.73478462,21.8238652 7.67555385,21.5000848 7.67555385,21.1482433 C7.67555385,20.7834506 7.73693846,20.455353 7.85647692,20.1639506 C7.97386154,19.8736274 8.14509231,19.626475 8.36586154,19.4235726 Z M10.3280154,19.4850909 C9.66786154,19.4850909 9.15847692,19.6329506 8.79878462,19.9297494 C8.43909231,20.2265482 8.26032308,20.6312738 8.26032308,21.1450055 C8.26032308,21.6630543 8.43909231,22.0699384 8.79878462,22.3645787 C9.15847692,22.6602982 9.66786154,22.8081579 10.3280154,22.8081579 C10.9967846,22.8081579 11.5083231,22.6570604 11.8615538,22.3570238 C12.2169385,22.0548287 12.3935538,21.6511823 12.3935538,21.1450055 C12.3935538,20.6377494 12.2169385,20.2351823 11.8615538,19.9351457 C11.5083231,19.6351091 10.9967846,19.4850909 10.3280154,19.4850909 Z M12.8710615,13.1244232 L12.8710615,13.8022037 L8.48583077,13.8022037 L11.4699846,15.2192829 L11.4699846,15.6229293 L8.48583077,17.0292159 L12.8710615,17.0292159 L12.8710615,17.6627463 L7.7826,17.6627463 L7.7826,16.7388927 L10.6159846,15.3800939 L7.7826,14.0655451 L7.7826,13.1244232 L12.8710615,13.1244232 Z M11.3065077,7.9682189 C11.5585077,7.9682189 11.7814308,8.0157067 11.9752769,8.1117616 C12.1702,8.2078165 12.3285077,8.3362494 12.4545077,8.4981396 C12.6042,8.6902494 12.7108154,8.9007067 12.7765077,9.1295116 C12.8389692,9.3593957 12.8712769,9.6507982 12.8712769,10.0047982 L12.8712769,11.8114933 L7.78281538,11.8114933 L7.78281538,10.3026762 C7.78281538,9.9303287 7.79573846,9.6518774 7.82266154,9.4673226 C7.85066154,9.2816884 7.90666154,9.1057677 7.99281538,8.9363226 C8.09189231,8.7496091 8.21789231,8.6136213 8.37189231,8.5294384 C8.52589231,8.4452555 8.71004615,8.403164 8.92327692,8.403164 C9.16450769,8.403164 9.37127692,8.4646823 9.54143077,8.5877189 C9.70943077,8.7107555 9.8462,8.8748043 9.94958462,9.0798652 L9.97650769,9.0798652 C10.0465077,8.7355787 10.1972769,8.4646823 10.4288154,8.266097 C10.6603538,8.0675116 10.9522,7.9682189 11.3065077,7.9682189 Z M11.3334308,8.6729811 C11.1277385,8.6729811 10.9651231,8.7042799 10.8455846,8.7657982 C10.7238923,8.8273165 10.6205077,8.9395604 10.5365077,9.1003713 C10.4794308,9.2104567 10.4438923,9.3432067 10.4266615,9.4997006 C10.4083538,9.6561945 10.3997385,9.8461457 10.3997385,10.0695543 L10.3997385,11.1337128 L12.2951231,11.1337128 L12.2951231,10.2368409 C12.2951231,9.9411213 12.2778923,9.6972067 12.2488154,9.5083348 C12.2165077,9.3194628 12.1605077,9.1640482 12.0775846,9.0431701 C11.9892769,8.9147372 11.8891231,8.8219201 11.7749692,8.7625604 C11.6597385,8.7032006 11.5143538,8.6729811 11.3334308,8.6729811 Z M9.01373846,9.1079262 C8.88881538,9.1079262 8.78650769,9.1284323 8.70250769,9.1694445 C8.61850769,9.2104567 8.54850769,9.2773713 8.49573846,9.3680299 C8.43543077,9.4748774 8.39666154,9.6054689 8.38266154,9.7576457 C8.36758462,9.9109018 8.35896923,10.100853 8.35896923,10.3264201 L8.35896923,11.1337128 L9.83004615,11.1337128 L9.83004615,10.257347 C9.83004615,10.0458104 9.81927692,9.8763652 9.79773846,9.7511701 C9.77512308,9.625975 9.73096923,9.509414 9.66096923,9.4025665 C9.5942,9.2946396 9.50589231,9.2190909 9.39604615,9.1748409 C9.28943077,9.1295116 9.1602,9.1079262 9.01373846,9.1079262 Z M12.8710615,5.271775 L12.8710615,7.2846104 L12.3519846,7.2846104 L12.3519846,6.6176226 L8.30275385,6.6176226 L8.30275385,7.2846104 L7.7826,7.2846104 L7.7826,5.271775 L8.30275385,5.271775 L8.30275385,5.9398421 L12.3519846,5.9398421 L12.3519846,5.271775 L12.8710615,5.271775 Z M12.8705231,0.1211829 L12.8705231,0.8442927 L11.4532923,1.3439939 L11.4532923,3.5478598 L12.8705231,4.047561 L12.8705231,4.7350549 L7.78313846,2.8797927 L7.78313846,1.9764451 L12.8705231,0.1211829 Z M10.8728308,1.5522927 L8.37436923,2.4459268 L10.8728308,3.3427988 L10.8728308,1.5522927 Z" id="logo-SFC_path-1" />
                </g>
                
                <use id="logo-SFC_path-1" fill="#FFFFFF" xlink:href="#logo-SFC_path-1" />
                <g id="logo-SFC_Elements-/-Color-/-Principal-/-Withe" mask="url(#logo-SFC_mask-2)">
                    <g transform="translate(-1.000000, 144.000000)"></g>
                </g>
            </g>
            <text id="logo-SFC_FINANCIERA" font-family="ArialMT, Arial" font-size="7.1" font-weight="normal" fill="#FFFFFF">
                <tspan x="139" y="6.2">FINANCIERA</tspan>
            </text>
        </g>
    </g>
</symbol><mask id="logo-SFC_mask-2" fill="white">
                    <use xlink:href="#logo-SFC_path-1" />
                </mask><symbol viewBox="0 0 32 32" id="menu"><path d="M2 6h28v6H2zm0 8h28v6H2zm0 8h28v6H2z" /></symbol><symbol viewBox="0 0 13 18" fill="none" id="padlock">
<path fill-rule="evenodd" clip-rule="evenodd" d="M3.62245 1.44426C4.39344 0.680481 5.42618 0.25 6.50511 0.25C7.58405 0.25 8.61678 0.680481 9.38777 1.44426C10.1581 2.20737 10.6077 3.24364 10.6488 4.33428C10.6492 4.3437 10.6494 4.35312 10.6494 4.36255V6.63677C10.6494 7.05099 10.3136 7.38677 9.89938 7.38677C9.48517 7.38677 9.14938 7.05099 9.14938 6.63677V4.37751C9.11921 3.66586 8.82437 2.99756 8.3321 2.50989C7.83745 2.01986 7.18229 1.75 6.50511 1.75C5.82793 1.75 5.17277 2.01986 4.67812 2.50989C4.18585 2.99756 3.89101 3.66587 3.86084 4.37752V6.63677C3.86084 7.05099 3.52505 7.38677 3.11084 7.38677C2.69663 7.38677 2.36084 7.05099 2.36084 6.63677V4.36255C2.36084 4.35312 2.36102 4.3437 2.36137 4.33428C2.40252 3.24364 2.85214 2.20737 3.62245 1.44426Z" fill="#001698" />
<path fill-rule="evenodd" clip-rule="evenodd" d="M2.12716 5.88672H10.8729C11.378 5.88672 11.8577 6.09357 12.208 6.45426C12.5575 6.81421 12.75 7.29781 12.75 7.79757V15.3537C12.75 15.8534 12.5581 16.337 12.2095 16.6976C11.8601 17.059 11.3813 17.2675 10.8764 17.2698L10.8729 17.2698H2.12716C1.62206 17.2698 1.14228 17.063 0.79206 16.7023C0.44258 16.3423 0.25 15.8588 0.25 15.359V7.79428C0.252184 7.29605 0.445159 6.81459 0.793545 6.45579C1.14265 6.09625 1.62023 5.88907 2.12367 5.88673L2.12716 5.88672ZM2.12939 7.38672C2.03619 7.38749 1.94246 7.42579 1.86971 7.50072C1.79618 7.57645 1.75083 7.68343 1.75 7.79961V15.359C1.75 15.4749 1.79494 15.5819 1.86823 15.6573C1.94077 15.7321 2.03438 15.7698 2.12716 15.7698H10.8706C10.964 15.7691 11.0581 15.7305 11.1309 15.6552C11.2048 15.5787 11.25 15.4707 11.25 15.3537V7.79757C11.25 7.68158 11.2051 7.57464 11.1318 7.49919C11.0592 7.42447 10.9656 7.38672 10.8729 7.38672H2.12939Z" fill="#001698" />
<path fill-rule="evenodd" clip-rule="evenodd" d="M6.50269 10.4404C6.9169 10.4404 7.25269 10.7762 7.25269 11.1904V12.4621C7.25269 12.8763 6.9169 13.2121 6.50269 13.2121C6.08847 13.2121 5.75269 12.8763 5.75269 12.4621V11.1904C5.75269 10.7762 6.08847 10.4404 6.50269 10.4404Z" fill="#001698" />
<path d="M7.37939 11.19C7.3804 11.3687 7.32988 11.5436 7.23423 11.6927C7.13858 11.8418 7.00212 11.9583 6.84212 12.0274C6.68213 12.0965 6.50582 12.1151 6.33553 12.0809C6.16525 12.0467 6.00865 11.9611 5.88561 11.8352C5.76257 11.7092 5.67864 11.5484 5.64441 11.3733C5.61019 11.1981 5.62723 11.0164 5.69338 10.8512C5.75954 10.686 5.87182 10.5448 6.01601 10.4454C6.16019 10.346 6.32978 10.293 6.50327 10.293C6.73474 10.293 6.95681 10.3873 7.12096 10.5554C7.28512 10.7235 7.37803 10.9516 7.37939 11.19Z" fill="#001698" />
<path fill-rule="evenodd" clip-rule="evenodd" d="M5.93538 10.9481C5.89746 11.0279 5.87893 11.1136 5.87941 11.1985C5.87965 11.2406 5.88458 11.2828 5.89422 11.3244C5.91759 11.4253 5.96867 11.5224 6.04787 11.6035C6.06005 11.6159 6.0728 11.6279 6.08609 11.6394C6.171 11.7126 6.27761 11.7641 6.3952 11.7839C6.43035 11.7899 6.46647 11.793 6.5033 11.793C6.58022 11.793 6.65486 11.7794 6.72413 11.7542C6.77518 11.7356 6.82331 11.7108 6.86728 11.6805C6.92254 11.6424 6.96936 11.597 7.00734 11.5471C7.04022 11.5039 7.06648 11.4573 7.08585 11.4089C7.11395 11.3388 7.12768 11.265 7.12718 11.1914C7.12695 11.156 7.12341 11.1206 7.11658 11.0856C7.09557 10.9781 7.04297 10.8734 6.9587 10.7871C6.94654 10.7746 6.93379 10.7627 6.92049 10.7512C6.84118 10.6828 6.74221 10.6326 6.63104 10.6103C6.58866 10.6018 6.54585 10.5976 6.50328 10.5976C6.41506 10.5976 6.32782 10.6156 6.24737 10.6503C6.2241 10.6604 6.20178 10.6716 6.18046 10.684C6.09291 10.7348 6.02219 10.8041 5.97175 10.8827C5.9581 10.904 5.94598 10.9258 5.93538 10.9481ZM7.23423 11.6927C7.32988 11.5436 7.3804 11.3687 7.37939 11.19C7.37803 10.9516 7.28512 10.7235 7.12096 10.5554C6.95681 10.3873 6.73474 10.293 6.50327 10.293C6.32978 10.293 6.16019 10.346 6.01601 10.4454C5.87182 10.5448 5.75954 10.686 5.69338 10.8512C5.62723 11.0164 5.61019 11.1981 5.64441 11.3733C5.67864 11.5484 5.76257 11.7092 5.88561 11.8352C6.00865 11.9611 6.16525 12.0467 6.33553 12.0809C6.50582 12.1151 6.68213 12.0965 6.84212 12.0274C7.00212 11.9583 7.13858 11.8418 7.23423 11.6927Z" fill="#001698" />
</symbol><symbol viewBox="0 0 18 18" fill="none" id="padlock-open">
<path fill-rule="evenodd" clip-rule="evenodd" d="M1.48448 1.48448C2.2749 0.694064 3.34693 0.25 4.46476 0.25C5.58259 0.25 6.65462 0.694064 7.44504 1.48448C8.23546 2.2749 8.67952 3.34695 8.67952 4.46478V6.72054C8.67952 7.13475 8.34374 7.47054 7.92952 7.47054C7.51531 7.47054 7.17952 7.13475 7.17952 6.72054V4.46478C7.17952 3.74478 6.8935 3.05426 6.38438 2.54514C5.87526 2.03602 5.18476 1.75 4.46476 1.75C3.74477 1.75 3.05426 2.03602 2.54514 2.54514C2.03602 3.05426 1.75 3.74478 1.75 4.46478C1.75 4.87899 1.41421 5.21478 1 5.21478C0.585786 5.21478 0.25 4.87899 0.25 4.46478C0.25 3.34695 0.694062 2.2749 1.48448 1.48448Z" fill="#001698" />
<path fill-rule="evenodd" clip-rule="evenodd" d="M6.91368 5.97071L6.91706 5.9707H15.8511C16.3554 5.9707 16.8391 6.17104 17.1956 6.52762C17.5522 6.88418 17.7526 7.3678 17.7526 7.87213V15.3669C17.7526 15.8726 17.5516 16.3576 17.1941 16.7151C16.8365 17.0727 16.3516 17.2736 15.8459 17.2736H6.91706C6.41276 17.2736 5.92915 17.0732 5.57256 16.7167C5.216 16.3601 5.01562 15.8765 5.01562 15.3721V7.86875C5.01789 7.36605 5.21861 6.88459 5.57407 6.52914C5.92936 6.17384 6.41126 5.97317 6.91368 5.97071ZM15.8511 7.4707H6.91919C6.81242 7.47152 6.71024 7.51429 6.63473 7.5898C6.55921 7.66532 6.51644 7.7675 6.51562 7.87426V15.3721C6.51562 15.4786 6.55791 15.5807 6.63322 15.656C6.70852 15.7313 6.81061 15.7736 6.91706 15.7736H15.8459C15.9537 15.7736 16.0572 15.7307 16.1334 15.6545C16.2097 15.5782 16.2526 15.4747 16.2526 15.3669V7.87213C16.2526 7.76571 16.2103 7.66359 16.135 7.58828C16.0597 7.51299 15.9576 7.4707 15.8511 7.4707Z" fill="#001698" />
<path fill-rule="evenodd" clip-rule="evenodd" d="M11.3906 10.4873C11.8048 10.4873 12.1406 10.8231 12.1406 11.2373V12.4986C12.1406 12.9129 11.8048 13.2486 11.3906 13.2486C10.9764 13.2486 10.6406 12.9129 10.6406 12.4986V11.2373C10.6406 10.8231 10.9764 10.4873 11.3906 10.4873Z" fill="#001698" />
<path d="M12.2743 11.2374C12.2753 11.4146 12.2238 11.5882 12.1261 11.736C12.0283 11.8839 11.8889 11.9994 11.7255 12.068C11.562 12.1365 11.3819 12.155 11.208 12.1211C11.034 12.0871 10.8741 12.0023 10.7484 11.8773C10.6227 11.7524 10.5369 11.5929 10.502 11.4192C10.467 11.2454 10.4844 11.0652 10.552 10.9014C10.6196 10.7375 10.7343 10.5974 10.8816 10.4989C11.0289 10.4003 11.2021 10.3477 11.3793 10.3477C11.6158 10.3477 11.8427 10.4412 12.0103 10.6079C12.178 10.7747 12.2729 11.001 12.2743 11.2374Z" fill="#001698" />
<path fill-rule="evenodd" clip-rule="evenodd" d="M7.92952 4.70919C8.34374 4.70919 8.67952 5.04498 8.67952 5.45919V6.72054C8.67952 7.13475 8.34374 7.47054 7.92952 7.47054C7.51531 7.47054 7.17952 7.13475 7.17952 6.72054V5.45919C7.17952 5.04498 7.51531 4.70919 7.92952 4.70919Z" fill="#001698" />
</symbol><symbol viewBox="0 0 26 28" id="twitter"><path d="M25.312 6.375a10.85 10.85 0 01-2.531 2.609c.016.219.016.438.016.656 0 6.672-5.078 14.359-14.359 14.359-2.859 0-5.516-.828-7.75-2.266.406.047.797.063 1.219.063 2.359 0 4.531-.797 6.266-2.156a5.056 5.056 0 01-4.719-3.5c.313.047.625.078.953.078.453 0 .906-.063 1.328-.172a5.048 5.048 0 01-4.047-4.953v-.063a5.093 5.093 0 002.281.641 5.044 5.044 0 01-2.25-4.203c0-.938.25-1.797.688-2.547a14.344 14.344 0 0010.406 5.281 5.708 5.708 0 01-.125-1.156 5.045 5.045 0 015.047-5.047 5.03 5.03 0 013.687 1.594 9.943 9.943 0 003.203-1.219 5.032 5.032 0 01-2.219 2.781c1.016-.109 2-.391 2.906-.781z" /></symbol><symbol viewBox="0 0 12.74 12.8" id="whatsapp"><defs><style>#whatsapp .d{fill-rule:evenodd;}</style></defs><g id="whatsapp_a"></g><g id="whatsapp_b"><g id="whatsapp_c"><path class="d" d="M10.89,1.87C9.69,.67,8.1,.01,6.4,0,2.9,0,.06,2.84,.06,6.34c0,1.11,.3,2.21,.84,3.17l-.9,3.29,3.36-.89c.93,.5,1.97,.77,3.04,.77,3.5,0,6.34-2.84,6.34-6.34,.01-1.67-.65-3.27-1.85-4.47ZM6.4,11.63c-.95,0-1.88-.25-2.68-.74l-.19-.12-2,.52,.53-1.94-.12-.19c-.53-.84-.8-1.81-.8-2.8C1.14,3.45,3.51,1.08,6.41,1.08c1.41,0,2.73,.55,3.73,1.54,.99,.99,1.54,2.33,1.54,3.73-.01,2.9-2.37,5.27-5.29,5.27Zm2.9-3.96c-.16-.07-.93-.46-1.08-.52-.15-.06-.25-.07-.36,.07-.1,.16-.41,.52-.5,.62-.09,.1-.18,.12-.34,.04-.16-.07-.67-.25-1.27-.79-.47-.41-.79-.93-.89-1.1-.09-.16-.01-.24,.07-.33,.07-.07,.16-.18,.24-.28,.07-.09,.1-.16,.16-.27,.06-.1,.03-.19-.01-.28-.04-.07-.36-.86-.49-1.17-.13-.31-.27-.27-.36-.27h-.31c-.12,0-.28,.04-.43,.19-.15,.16-.55,.55-.55,1.32s.56,1.54,.65,1.64c.07,.1,1.11,1.7,2.71,2.4,.39,.16,.67,.27,.9,.34,.39,.12,.73,.1,.99,.06,.31-.04,.93-.39,1.07-.76,.13-.37,.13-.68,.09-.76-.03-.07-.15-.1-.3-.19Z" /></g></g></symbol></defs></svg>