
<svg xmlns="http://www.w3.org/2000/svg" width="64.779" height="64.676" viewBox="0 0 64.779 64.676">
  <g id="RGB_Logo_HDI_antes_Liberty" data-name="RGB Logo HDI antes Liberty" transform="translate(0.01)">
    <g id="Grupo_28314" data-name="Grupo 28314" transform="translate(-0.01)">
      <path id="Trazado_15580" data-name="Trazado 15580" d="M-.01,34.647l.89-1.061a3.937,3.937,0,0,0,2.67,1.1c.913,0,1.495-.434,1.495-1.061V33.6c0-.6-.342-.924-1.906-1.289-1.8-.434-2.807-.959-2.807-2.522v-.023c0-1.449,1.21-2.442,2.887-2.442a4.728,4.728,0,0,1,3.069,1.061L5.49,29.5A3.816,3.816,0,0,0,3.2,28.634c-.867,0-1.381.445-1.381,1v.023c0,.65.388.936,2.02,1.324,1.78.434,2.7,1.073,2.7,2.465v.023c0,1.575-1.244,2.522-3.012,2.522A5.214,5.214,0,0,1-.01,34.647m9.14-7.2h6.264v1.324H10.613v2.191h4.233v1.324H10.613v2.259h4.838v1.324H9.13Zm8.387,4.245v-.023a4.294,4.294,0,0,1,4.359-4.359,4.568,4.568,0,0,1,3.241,1.141l-.936,1.118a3.283,3.283,0,0,0-2.362-.9,2.856,2.856,0,0,0-2.739,2.978v.023a2.817,2.817,0,0,0,2.876,3.012A3.454,3.454,0,0,0,24,34.042V32.468H21.842V31.178h3.594v3.537a5.418,5.418,0,0,1-3.526,1.312,4.2,4.2,0,0,1-4.393-4.336m10.612.6v-4.85h1.483v4.793c0,1.563.81,2.4,2.134,2.4s2.122-.787,2.122-2.339v-4.85h1.483v4.781c0,2.522-1.426,3.777-3.629,3.777S28.129,34.75,28.129,32.3m10.224-4.85h3.766a3.4,3.4,0,0,1,2.442.844,2.544,2.544,0,0,1,.7,1.814v.023a2.544,2.544,0,0,1-2,2.556l2.282,3.2H43.784l-2.077-2.933h-1.86v2.933H38.364V27.447ZM42,31.623c1.061,0,1.734-.559,1.734-1.415v-.023c0-.9-.65-1.392-1.746-1.392H39.836v2.83Zm5.4.068v-.023a4.417,4.417,0,0,1,8.832-.023v.023a4.417,4.417,0,0,1-8.832.023m7.28,0v-.023a2.893,2.893,0,0,0-2.876-3,2.855,2.855,0,0,0-2.853,2.978v.023a2.866,2.866,0,1,0,5.728.023m3.469,2.955.89-1.061a3.937,3.937,0,0,0,2.67,1.1c.913,0,1.495-.434,1.495-1.061V33.6c0-.6-.342-.924-1.906-1.289-1.8-.434-2.807-.959-2.807-2.522v-.023c0-1.449,1.21-2.442,2.887-2.442a4.706,4.706,0,0,1,3.069,1.061l-.8,1.118a3.816,3.816,0,0,0-2.294-.867c-.867,0-1.381.445-1.381,1v.023c0,.65.388.936,2.02,1.324,1.78.434,2.7,1.073,2.7,2.465v.023c0,1.575-1.244,2.522-3.012,2.522a5.235,5.235,0,0,1-3.537-1.346" transform="translate(0.01 3.853)" fill="#9c9b9b"/>
      <path id="Trazado_15581" data-name="Trazado 15581" d="M25.41,25.537h9.505c10.338,0,15.53-5.363,15.53-12.917v-.068C50.445,5,45.367,0,35.212,0h-9.79V25.537Zm8.558-6.995V6.995h1.426c3.914,0,6.436,1.734,6.436,5.74v.08c0,3.994-2.522,5.74-6.436,5.74H33.968Z" transform="translate(3.596)" fill="#006729"/>
      <rect id="Rectángulo_6739" data-name="Rectángulo 6739" width="8.524" height="25.537" transform="translate(56.175)" fill="#006729"/>
      <rect id="Rectángulo_6740" data-name="Rectángulo 6740" width="8.524" height="8.512" transform="translate(8.535 8.512)" fill="#e60018"/>
      <rect id="Rectángulo_6741" data-name="Rectángulo 6741" width="8.524" height="25.537" transform="translate(17.07)" fill="#006729"/>
      <rect id="Rectángulo_6742" data-name="Rectángulo 6742" width="8.524" height="25.537" fill="#006b2d"/>
      <line id="Línea_937" data-name="Línea 937" transform="translate(17.732 8.535)" fill="none" stroke="#787372" stroke-linecap="round" stroke-linejoin="round" stroke-width="0.008"/>
      <line id="Línea_938" data-name="Línea 938" transform="translate(17.732 16.979)" fill="none" stroke="#787372" stroke-linecap="round" stroke-linejoin="round" stroke-width="0.008"/>
      <line id="Línea_939" data-name="Línea 939" transform="translate(0 0.228)" fill="none" stroke="#787372" stroke-linecap="round" stroke-linejoin="round" stroke-width="0.008"/>
      <path id="Trazado_15582" data-name="Trazado 15582" d="M56.69.2h0" transform="translate(8.009 0.028)" fill="none" stroke="#787372" stroke-linecap="round" stroke-linejoin="round" stroke-width="0.008"/>
      <line id="Línea_940" data-name="Línea 940" transform="translate(64.699 25.526)" fill="none" stroke="#787372" stroke-linecap="round" stroke-linejoin="round" stroke-width="0.008"/>
      <line id="Línea_941" data-name="Línea 941" transform="translate(64.585 31.277)" fill="#9c9c9a" stroke="#787372" stroke-linecap="round" stroke-linejoin="round" stroke-width="0.008"/>
      <line id="Línea_942" data-name="Línea 942" transform="translate(64.585 39.721)" fill="#9c9b9b"/>
    </g>
    <g id="Logo_Liberty_Azul_3_" transform="translate(20.597 42.419)">
      <g id="Grupo_28316" data-name="Grupo 28316">
        <g id="Grupo_28315" data-name="Grupo 28315">
          <path id="Trazado_15583" data-name="Trazado 15583" d="M20.826,44.217c.114-.011.091-.114.114-.171-.023-.068-.148-.011-.183-.205-.011-.217.023-.628,0-.856a.81.81,0,0,0-.5-.582c-.137-.091-.046.137-.1.171s-.137-.023-.217,0c-.068.046-.148-.023-.205.137-.034.228.046.9.023,1.141-.068.148-.183.148-.183.251-.011.08,0,.091.126.068s.331-.171.593-.16C20.506,44.023,20.689,44.206,20.826,44.217Z" transform="translate(-17.835 -36.44)" fill="#fff"/>
          <path id="Trazado_15584" data-name="Trazado 15584" d="M27.55,45.292a8,8,0,0,1,.856.673c.445-.844.879-1.951,1.324-2.8C29.011,43.8,28.223,44.6,27.55,45.292Z" transform="translate(-16.709 -36.329)" fill="#fff"/>
          <path id="Trazado_15585" data-name="Trazado 15585" d="M25.282,45.144l-2.2-1.974,1.506,2.659A4.4,4.4,0,0,1,25.282,45.144Z" transform="translate(-17.339 -36.329)" fill="#fff"/>
          <path id="Trazado_15586" data-name="Trazado 15586" d="M23.494,46.853l.7.4c.023-.16.091-.536.1-.673l-.822-.4A3.3,3.3,0,0,0,23.494,46.853Z" transform="translate(-17.285 -35.905)" fill="#fff"/>
          <path id="Trazado_15587" data-name="Trazado 15587" d="M20.024,40.663a1.131,1.131,0,0,0-.5.3c-.046.011-.148.285-.057.354.126-.011.377-.285.628-.308a1.557,1.557,0,0,1,.616.057c.205.023.4.251.513.251.091,0,.023-.251-.08-.354a.855.855,0,0,0-.411-.262A1.862,1.862,0,0,0,20.024,40.663Z" transform="translate(-17.855 -36.686)" fill="#fff"/>
          <path id="Trazado_15588" data-name="Trazado 15588" d="M22.885,49.317a3.043,3.043,0,0,1,1.038-.582,9.917,9.917,0,0,1-.377-.936,4.957,4.957,0,0,1-.046-.662c-.023-.171.023-.023-.1-.331-.365-.924-1.575-4.2-2.02-5.135-.046-.091-.274-.1-.377-.183-.046-.023-.1-.114-.171-.137-.342.011-.513-.126-.65-.091-.091.023-.1.137-.08.217a.367.367,0,0,0,.148.251c.1.057.4.046.456.171.023.217.034.89.091,1.141.034.137.228.137.262.217.023.114-.091.011-.1.148a1.511,1.511,0,0,0-.011.5c.023.126.034-.034.057.114a22.689,22.689,0,0,0,.24,3.64c.251.719.468,1.529.97,2.967C22.269,50.766,22.463,49.67,22.885,49.317Z" transform="translate(-17.761 -36.599)" fill="#fff"/>
          <path id="Trazado_15589" data-name="Trazado 15589" d="M19.689,42.6c.08-.057.205.011.251-.068s-.046-.217,0-.3.148.023.205-.046a.34.34,0,0,0,.034-.274c-.057-.08-.274-.034-.331-.08s.1-.023.137-.091.057-.262-.046-.331a1.76,1.76,0,0,0-.571.148.505.505,0,0,0-.194.354c-.034.126-.08.319-.011.411.057.057.3-.16.308-.023.011.114-.251.205-.251.331s.1.3.228.285C19.518,42.894,19.575,42.643,19.689,42.6Z" transform="translate(-17.897 -36.578)" fill="#fff"/>
          <path id="Trazado_15590" data-name="Trazado 15590" d="M19.682,39.259c.24.046.377-.274.6-.262s.388.262.559.3.251-.137.354-.137.16.171.251.148-.011-.194.137-.3a5.449,5.449,0,0,1,.685-.262c.24-.1.525-.114.7-.285s.3-.491.194-.662c-.08-.114-.183.3-.411.331a2.379,2.379,0,0,1-.753,0c-.171-.023-.217,0-.274-.1-.08-.091.046-.24.034-.331-.114-.1-.057,0-.274.114a8.914,8.914,0,0,0-1.563,0,.853.853,0,0,0-.662.833A.538.538,0,0,0,19.682,39.259Z" transform="translate(-17.878 -37.108)" fill="#fff"/>
          <path id="Trazado_15591" data-name="Trazado 15591" d="M20.336,40.15a2.871,2.871,0,0,1,1.21.194,1.3,1.3,0,0,1,.707.707,2.645,2.645,0,0,0,.046-.593c-.011-.137-.1-.046-.126-.148s0-.377-.023-.479-.057-.068-.091-.057-.023.068-.091.08-.183.1-.285.011-.183-.377-.251-.468-.068-.046-.126-.023-.057.114-.137.137a.53.53,0,0,1-.331.023c-.126-.034-.274-.205-.365-.24s-.1-.034-.194,0-.217.183-.354.228a1.413,1.413,0,0,1-.445-.011c-.1-.011-.034-.137-.126-.068s-.171.331-.308.4-.262-.148-.354-.046c-.034.091.046.354-.023.5-.034.126-.194.091-.228.24a1.389,1.389,0,0,0,.046.616c.057.148.023-.217.148-.354a1.477,1.477,0,0,1,.582-.456A3.479,3.479,0,0,1,20.336,40.15Z" transform="translate(-17.996 -36.88)" fill="#fff"/>
          <path id="Trazado_15592" data-name="Trazado 15592" d="M26.871,45.075c-.183-1-.411-2.351-.65-3.355-.126.947-.365,2.328-.491,3.275A3.4,3.4,0,0,1,26.871,45.075Z" transform="translate(-16.965 -36.534)" fill="#fff"/>
          <path id="Trazado_15593" data-name="Trazado 15593" d="M29.661,50.308c-.171-.228-.513-1.152-.753-1.426-.068-.354.034-.959-.08-.9-.217.091-.3.262-.445.4a.5.5,0,0,0-.183.445,15.176,15.176,0,0,0,.776,1.483.28.28,0,0,0,.285.1C29.353,50.388,29.764,50.457,29.661,50.308Z" transform="translate(-16.617 -35.651)" fill="#fff"/>
          <path id="Trazado_15594" data-name="Trazado 15594" d="M29.214,47.1c.7-.593,1.449-1.426,2.145-2.02-.833.354-1.746.765-2.579,1.118A2.542,2.542,0,0,1,29.214,47.1Z" transform="translate(-16.535 -36.06)" fill="#fff"/>
          <path id="Trazado_15595" data-name="Trazado 15595" d="M29,50.958a20.36,20.36,0,0,0-.89-1.985c-.034-.137-.1-.342.137-.388.08-.034.16.034.3-.011a1.132,1.132,0,0,0,.354-.308.229.229,0,0,0,.023-.251c-.068-.148-.137.068-.217.126a.234.234,0,0,1-.228-.011c-.068-.046.011-.217-.011-.262s.011-.034-.068-.034-.205.126-.434.011-.548-.536-.81-.7a1.667,1.667,0,0,0-.742-.274c-.32-.046-.879.034-1.118-.011a.764.764,0,0,0-.205-.183c-.023-.091.08-.091.126-.091s0,.046.068.046.114-.08.342-.091a6.244,6.244,0,0,1,1.05-.023,1.477,1.477,0,0,1,.7.262c.205.126.388.548.73.662a1.018,1.018,0,0,0,.7.057c.148-.034.137-.126.046-.217s-.342-.308-.422-.4-.046-.046-.023-.114a.612.612,0,0,1,.194-.228c.068-.046.114-.034.194.023s.228.274.308.342c.1.114.205.171.183.034a1.071,1.071,0,0,0-.342-.6A7.434,7.434,0,0,0,27.224,45.1a2.416,2.416,0,0,0-1.586-.1,1.59,1.59,0,0,0-1.016.879c-.057.126-.011.571-.057.753s-.16.194-.194.319a.683.683,0,0,0,.057.388c.023.08.068.057.091.023s0-.114.023-.183A.446.446,0,0,1,24.679,47a.939.939,0,0,1,.251-.183c.126-.057.251.023.183.16-.023.057-.091.057-.148.114a.611.611,0,0,0-.171.205.8.8,0,0,0-.023.319c.011.068,0,.205.034.217.068-.023.24-.24.32-.194.08.023.057,0,.057.137.023.1-.08.616-.08.753s.091.114.217.114.251.034.274.091c.034.1.011.057-.011.08a.382.382,0,0,1-.16.114c-.148.011-.16.068-.137.16-.023.046,0,.057.034.057s.057-.011.114-.023a.967.967,0,0,1,.251.011.6.6,0,0,1,.228.091c.046.034.011.034-.046.046a1.835,1.835,0,0,1-.251,0,.884.884,0,0,0-.251.011c-.057.023-.046.068-.046.1s-.023.068.046.08.262-.034.342-.034.068.046.091.068.034.011-.023.046-.228-.011-.285.1a1.125,1.125,0,0,0-.023.434c.034.091.046.114.183.126a2.315,2.315,0,0,0,.548-.046c.16-.034.262-.148.354-.137a.521.521,0,0,1-.011.183c-.262.183-.491.411-.411.719.034.137.046.719.205.7A15.623,15.623,0,0,1,29,50.958Zm-1.746-5.192c.034-.091.068-.148.091-.126.171.08.662.331.833.445a.246.246,0,0,1,.1.262.486.486,0,0,1-.171.228c-.057.046,0,.08-.16.023a4.188,4.188,0,0,0-.787-.4C27.167,46.062,27.27,45.88,27.258,45.766Zm-.936-.4c.228,0,.593.068.571.137a3.275,3.275,0,0,1-.1.5c-.034.046-.331-.023-.559-.023s-.434.068-.525.011a1.623,1.623,0,0,1-.126-.5C25.547,45.435,26.094,45.366,26.323,45.366ZM25.01,46.428c-.091.023-.091.034-.1-.046A.68.68,0,0,1,25,46.005c.068-.091.114-.3.24-.24a3.692,3.692,0,0,1,.148.377A1.3,1.3,0,0,0,25.01,46.428Zm1.552,1.312c-.034-.068-.217-.068-.388-.068s-.183.057-.183.114-.08.228-.183.091-.354-.217-.228-.354a.824.824,0,0,1,.65-.251,1.446,1.446,0,0,1,.753.285c.114.08-.023.1-.126.137-.08.023-.068.046-.171.046S26.574,47.763,26.562,47.74Z" transform="translate(-17.159 -36.084)" fill="#fff"/>
          <path id="Trazado_15596" data-name="Trazado 15596" d="M25.806,51a15.927,15.927,0,0,1-.753-1.472.927.927,0,0,0-.787.194,1.324,1.324,0,0,0-.513.913c-.137.673-.331,1.54-.5,2.225A10.2,10.2,0,0,1,26.1,51.152C26.08,51.026,25.9,51.049,25.806,51Z" transform="translate(-17.315 -35.434)" fill="#fff"/>
          <path id="Trazado_15597" data-name="Trazado 15597" d="M23.589,50.476a1.556,1.556,0,0,1,.7-.936,1.6,1.6,0,0,1,.947-.183,7.427,7.427,0,0,0-.639-1.084c-.148-.217-.867-.1-1.3.148a2.2,2.2,0,0,0-.913,1.255,7.612,7.612,0,0,0-.114,2.739,13.765,13.765,0,0,1-.285,2.031,5.539,5.539,0,0,0,1.027-1.438A12.2,12.2,0,0,0,23.589,50.476Z" transform="translate(-17.495 -35.625)" fill="#fff"/>
          <path id="Trazado_15598" data-name="Trazado 15598" d="M33.226,45.784c-.707.285-1.369.456-2.008.662a7.57,7.57,0,0,0-.491-.9c.217-.571.422-1.141.673-1.791.16-.24.011-.354-.217-.194-.422.342-.822.662-1.21.981a5.474,5.474,0,0,0-2.214-1.472c-.114-.434-.217-.879-.32-1.335-.046-.194-.205-.148-.3.034-.08.365-.137.776-.205,1.141a2.32,2.32,0,0,0-.776-.057,6.081,6.081,0,0,0-3.229,1.118c-.137-.354-.262-.685-.319-.879-.194-.628-.137-.7.034-.89a1.912,1.912,0,0,0,.274-1.13,3.1,3.1,0,0,0-.217-.8l.034-.342s.034-.171-.24-.217-.4-.034-.217-.24.491-.16,1.027-.456a1.138,1.138,0,0,0,.137-1.814s-.183.126-.491.365-.616.217-.548.034-.24-.582-.434-.365-.479.262-1.13.126a1.481,1.481,0,0,0-1.563.342c-.217.057-.342.274-.377.639a1.649,1.649,0,0,0,.126.947.348.348,0,0,1-.251.434c-.148,0-.388-.114-.445.114,0,.194.034.274.034.468-.011.342-.445.365-.285,1.449a1.729,1.729,0,0,0,.673.787.6.6,0,0,0,0,.411c.057.034.126.08.183.114.091.183-.057.285.011.445.034.137.228.228.445.308.023.183.057.365.08.548-.217.251-.194.308-.137.639.068.126.228.137.342.217a.808.808,0,0,0,.251.377c.011.068.023.148.034.217a1.288,1.288,0,0,0,.9-.023c-.023.274-.034.719-.023,1.164a10.007,10.007,0,0,0-.628,3.583,9.208,9.208,0,0,0,2.294,6.481c.114.114.16.046.194-.08.354-.525.856-1.232,1.13-1.552A8.671,8.671,0,0,1,27.35,53.1c.274-.126.388-.046-.023.16A11.56,11.56,0,0,0,23.059,57.3c-.011.023.331.354.559.319.034-.091.114-.1.16-.194a9.788,9.788,0,0,1,2.556-3.1,9.38,9.38,0,0,1,4.7-1.883c.4.011.719.034.9.046a10.957,10.957,0,0,0,.1-1.951,9.614,9.614,0,0,0-.32-2.727c.548-.616,1.073-1.232,1.666-1.849C33.569,45.8,33.477,45.682,33.226,45.784ZM21.291,44.6c-.023-.16-.034.011-.057-.114a1.511,1.511,0,0,1,.011-.5c.011-.137.126-.023.1-.148-.034-.08-.228-.08-.262-.217-.057-.251-.068-.936-.091-1.141-.057-.126-.354-.114-.456-.171a.392.392,0,0,1-.148-.251c-.023-.08-.011-.194.08-.217.137-.023.3.114.65.091.068.023.126.114.171.137.1.08.342.091.377.183.445.936,1.655,4.211,2.02,5.135.126.319.08.171.1.331a5.08,5.08,0,0,0,.046.662,9.916,9.916,0,0,0,.377.936,3.252,3.252,0,0,0-1.038.582c-.422.365-.6,1.449-.673,1.324-.5-1.449-.719-2.248-.97-2.967A22.919,22.919,0,0,1,21.291,44.6Zm-1.928-1.381c0-.126.262-.217.251-.331-.011-.137-.251.08-.308.023-.057-.091-.011-.285.011-.411a.529.529,0,0,1,.194-.354A1.76,1.76,0,0,1,20.081,42c.114.068.08.262.046.331s-.183.046-.137.091.274.011.331.08a.3.3,0,0,1-.034.274c-.057.068-.16-.034-.205.046s.046.217,0,.3-.171.011-.251.068c-.114.046-.171.3-.251.319C19.465,43.514,19.351,43.343,19.362,43.217Zm-.65-2.122c-.126.137-.091.5-.148.354a1.415,1.415,0,0,1-.046-.616c.034-.16.183-.114.228-.24.068-.137-.011-.411.023-.5.091-.114.228.114.354.046s.217-.331.308-.4.023.057.126.068a1.425,1.425,0,0,0,.445.011c.137-.034.262-.183.354-.228s.091-.046.194,0,.24.205.365.24a.523.523,0,0,0,.331-.023c.08-.034.091-.126.137-.137s.057-.068.126.023.148.377.251.468.217.011.285-.011.057-.08.091-.08.068-.034.091.057,0,.365.023.479.1.011.126.148-.023.251-.046.593a1.3,1.3,0,0,0-.707-.707,2.871,2.871,0,0,0-1.21-.194,2.977,2.977,0,0,0-1.1.194A1.511,1.511,0,0,0,18.712,41.095Zm1.358-3.218a8.915,8.915,0,0,1,1.563,0c.217-.114.16-.217.274-.114.011.091-.114.251-.034.331.057.091.1.08.274.1a2.379,2.379,0,0,0,.753,0c.228-.023.331-.445.411-.331.1.171-.034.491-.194.662s-.456.183-.7.285-.536.171-.685.262-.046.274-.137.3-.148-.148-.251-.148-.183.16-.354.137-.331-.3-.559-.3-.365.319-.6.262a.564.564,0,0,1-.434-.616A.876.876,0,0,1,20.07,37.877Zm1.358,3.914c-.114,0-.308-.228-.513-.251a1.557,1.557,0,0,0-.616-.057c-.262.023-.513.3-.628.308-.091-.057,0-.331.057-.354a1.2,1.2,0,0,1,.5-.3,1.911,1.911,0,0,1,.719.034.78.78,0,0,1,.411.262C21.451,41.551,21.508,41.791,21.428,41.791Zm-1.643,3.058c0-.1.114-.1.183-.251.023-.24-.057-.913-.023-1.141.057-.16.137-.091.205-.137.068-.023.148.034.217,0s-.034-.262.1-.171a.813.813,0,0,1,.5.582c.023.228-.011.639,0,.856.034.194.16.137.183.205-.011.057,0,.171-.114.171s-.308-.183-.536-.194a2.642,2.642,0,0,0-.593.16C19.785,44.929,19.773,44.917,19.785,44.849Zm9.962,1.963a9.332,9.332,0,0,0-.856-.673c.673-.707,1.472-1.495,2.179-2.122C30.625,44.86,30.191,45.978,29.746,46.811ZM23.79,44.027,25.992,46a3.6,3.6,0,0,0-.7.685Zm1.267,3.834c-.011.137-.08.513-.1.673l-.7-.4a4.3,4.3,0,0,1-.011-.662Zm-2.533,8.124a13.977,13.977,0,0,0,.285-2.031,7.88,7.88,0,0,1,.114-2.739,2.237,2.237,0,0,1,.913-1.255c.434-.251,1.152-.354,1.3-.148a9.669,9.669,0,0,1,.639,1.084,1.611,1.611,0,0,0-.947.183,1.522,1.522,0,0,0-.7.936,10.729,10.729,0,0,1-.593,2.522A4.736,4.736,0,0,1,22.523,55.986Zm1.951-3.617a1.371,1.371,0,0,1,.513-.913,1.021,1.021,0,0,1,.787-.194,15.928,15.928,0,0,0,.753,1.472c.091.046.274.023.3.137a10.2,10.2,0,0,0-2.853,1.712C24.143,53.909,24.349,53.042,24.474,52.368Zm2.579-.308c-.08-.308.148-.536.411-.719a.508.508,0,0,0,.011-.183c-.091-.011-.194.1-.354.137a2.363,2.363,0,0,1-.548.046c-.126-.011-.148-.034-.183-.126a1.125,1.125,0,0,1,.023-.434c.057-.1.228-.068.285-.1s.034-.023.023-.046-.011-.068-.091-.068-.274.046-.342.034-.046-.046-.046-.08-.011-.08.046-.1a.861.861,0,0,1,.251-.011,1.835,1.835,0,0,0,.251,0c.057-.011.08-.011.046-.046a.863.863,0,0,0-.228-.091,2.024,2.024,0,0,0-.251-.011.642.642,0,0,0-.114.023c-.034-.011-.068-.011-.034-.057-.023-.08-.011-.148.137-.16a.254.254,0,0,0,.16-.114c.023-.023.046.023.011-.08-.034-.068-.16-.091-.274-.091s-.228.011-.217-.114a4.577,4.577,0,0,0,.08-.753c0-.137.023-.114-.057-.137-.08-.046-.251.171-.32.194-.034-.011-.023-.148-.034-.217a.8.8,0,0,1,.023-.32.517.517,0,0,1,.171-.205c.057-.057.114-.068.148-.114.068-.137-.057-.217-.183-.16a1.163,1.163,0,0,0-.251.183.842.842,0,0,0-.137.183c-.023.057,0,.137-.023.183s-.057.057-.091-.023a.82.82,0,0,1-.057-.388c.034-.126.137-.137.194-.32s0-.628.057-.753a1.592,1.592,0,0,1,1.016-.879,2.488,2.488,0,0,1,1.586.1,6.814,6.814,0,0,1,1.712,1.232,1.039,1.039,0,0,1,.342.6c.023.126-.08.08-.183-.034a4.167,4.167,0,0,0-.308-.342c-.091-.068-.126-.068-.194-.023a.612.612,0,0,0-.194.228c-.023.068-.068.034.023.114s.342.308.422.4.091.183-.046.217a1.094,1.094,0,0,1-.7-.057c-.331-.114-.513-.548-.73-.662a1.477,1.477,0,0,0-.7-.262,7.743,7.743,0,0,0-1.05.023c-.24.011-.274.091-.342.091s-.023-.046-.068-.046-.148,0-.126.091A.985.985,0,0,1,26.22,48c.24.046.8-.034,1.118.011a1.667,1.667,0,0,1,.742.274c.262.16.593.571.81.7s.342-.011.434-.011.057-.011.068.034-.057.217.011.262a.269.269,0,0,0,.228.011c.08-.046.148-.274.217-.126a.229.229,0,0,1-.023.251,1.132,1.132,0,0,1-.354.308c-.126.046-.217-.023-.3.011-.24.034-.171.24-.137.388a18.178,18.178,0,0,1,.89,1.985,11.946,11.946,0,0,0-2.647.707C27.1,52.791,27.087,52.2,27.053,52.06Zm-.228-6.424c.126-.947.365-2.328.491-3.275.24,1,.468,2.351.65,3.355A3.441,3.441,0,0,0,26.825,45.636Zm3.857,6.287a.28.28,0,0,1-.285-.1,15.176,15.176,0,0,1-.776-1.483.56.56,0,0,1,.183-.445c.148-.137.217-.308.445-.4.126-.057.011.548.08.9.24.274.582,1.2.753,1.426C31.2,51.98,30.785,51.912,30.682,51.923Zm.046-3.708a2.542,2.542,0,0,0-.434-.9c.833-.354,1.746-.765,2.579-1.118C32.165,46.789,31.424,47.61,30.727,48.215Z" transform="translate(-18.049 -37.175)" fill="#1a1446"/>
          <path id="Trazado_15599" data-name="Trazado 15599" d="M26.551,47.458c.091,0,.08-.023.171-.046s.251-.046.126-.137a1.308,1.308,0,0,0-.753-.285.741.741,0,0,0-.65.251c-.114.137.126.217.228.354s.194-.023.183-.091.011-.114.183-.114.342.011.388.068C26.425,47.469,26.425,47.458,26.551,47.458Z" transform="translate(-17.01 -35.79)" fill="#00205c"/>
          <path id="Trazado_15600" data-name="Trazado 15600" d="M26.081,45.936c.228,0,.525.068.559.023a3.275,3.275,0,0,0,.1-.5c.023-.068-.342-.137-.571-.137s-.776.068-.742.137a1.623,1.623,0,0,0,.126.5A3.2,3.2,0,0,0,26.081,45.936Z" transform="translate(-17.008 -36.026)" fill="#00205c"/>
          <path id="Trazado_15601" data-name="Trazado 15601" d="M27.777,46.5a.706.706,0,0,0,.171-.228.246.246,0,0,0-.1-.262,5.347,5.347,0,0,0-.833-.445c-.023-.023-.057.034-.091.126,0,.1-.1.3-.091.434a5.528,5.528,0,0,1,.787.4C27.777,46.576,27.709,46.542,27.777,46.5Z" transform="translate(-16.81 -35.993)" fill="#00205c"/>
          <path id="Trazado_15602" data-name="Trazado 15602" d="M25.171,45.661c-.114-.057-.171.148-.24.24a.68.68,0,0,0-.091.377c.011.08.011.057.1.046a1.158,1.158,0,0,1,.377-.285A3.691,3.691,0,0,0,25.171,45.661Z" transform="translate(-17.091 -35.979)" fill="#00205c"/>
        </g>
        <path id="Trazado_15603" data-name="Trazado 15603" d="M52.827,44.7c-.023-.114.319-.171.319-.194,0-.1.011-.091-.068-.114H51.161c-.057,0,0,.274.034.274.183.011.388-.011.456.137l.8,1.495a5.289,5.289,0,0,1,.662,1.54c-.057.251-.491,1.369-1.107,1.506-.24.057-.765-.137-.73-.034a1.925,1.925,0,0,1-.205.993,1.335,1.335,0,0,0,1.073-.16,1.618,1.618,0,0,0,.525-.719L54.562,45.3a1.8,1.8,0,0,1,.3-.536,1.388,1.388,0,0,1,.422-.228l.046-.16H53.9c-.068.011-.011.171,0,.16a.535.535,0,0,1,.274.057c.205.217.217.262.091.65l-.6,1.358A14.1,14.1,0,0,1,52.827,44.7Z" transform="translate(-13.391 -36.159)" fill="#1a1446"/>
        <path id="Trazado_15604" data-name="Trazado 15604" d="M50.514,44.824h.913c.057,0,.091,0,.114-.023a.411.411,0,0,0,.011-.205c-.011-.023-.023-.046-.046-.046h-.856c-.194,0-.126-.091-.126-.342v-.833c0-.137-.08-.16-.205-.034l-1.335,1.324c-.068.068-.046.148.023.148h.5c.046,0,.046.091.046.148v2.031c0,1.141,1.506,1.3,2.088.571.08-.1.217-.354.034-.228-.639.434-1.13.217-1.13-.548Z" transform="translate(-13.691 -36.317)" fill="#1a1446"/>
        <path id="Trazado_15605" data-name="Trazado 15605" d="M45.931,44.57c0,.137.616-.171.616.753v1.689c0,.593-.582.491-.582.582,0,.046,0,.137.023.137h2.088c.011,0,.034-.171,0-.171-.525-.046-.513-.331-.513-.673V45.6c0-.08.137-.274.445-.365.776-.24.81.285.97.285.126,0,.228-.7.217-.787a.577.577,0,0,0-.867-.411c-.422.217-.65.776-.776.97,0,.011.046-1.027.023-1.027l-1.655.091Z" transform="translate(-14.117 -36.177)" fill="#1a1446"/>
        <path id="Trazado_15606" data-name="Trazado 15606" d="M46.192,45.769c.1,0,.068-.08.068-.137A1.74,1.74,0,0,0,43.818,44.4,1.85,1.85,0,0,0,42.7,46.145a2.023,2.023,0,0,0,.171.753,1.628,1.628,0,0,0,.377.536,1.692,1.692,0,0,0,.571.342,1.93,1.93,0,0,0,2.419-.958c.057-.114.011-.148-.023-.114-1.255,1.335-2.122.571-2.373-.148a1.952,1.952,0,0,1-.114-.776l2.465-.011Zm-2.442-.205c-.011,0,.046-.981.73-1.05.559-.057.97,1.038.7,1.038Z" transform="translate(-14.571 -36.178)" fill="#1a1446"/>
        <path id="Trazado_15607" data-name="Trazado 15607" d="M39.025,47.883c0,.046-.023.148.057.148a3,3,0,0,1,.993.114,4.211,4.211,0,0,0,1.723-.194,1.676,1.676,0,0,0,1-1.073,1.8,1.8,0,0,0-1.107-2.316c-1.175-.274-1.723.856-1.712.354l.023-2.476-1.506.1.011.126c0,.046.536.194.536.285l-.023,4.929Zm.993-2.294a.864.864,0,0,1,.011-.171c.034-.183.559-.388.707-.411,1.54-.171,1.483,2.853-.091,2.864-.536,0-.639-.251-.639-.707Z" transform="translate(-15.164 -36.432)" fill="#1a1446"/>
        <path id="Trazado_15608" data-name="Trazado 15608" d="M38.155,43.055a.565.565,0,0,0-.08-.308.748.748,0,0,0-.205-.217.527.527,0,0,0-.3-.08.545.545,0,0,0-.308.091.535.535,0,0,0-.205.217.631.631,0,0,0-.08.285.49.49,0,0,0,.08.285.535.535,0,0,0,.217.205.565.565,0,0,0,.308.08.574.574,0,0,0,.308-.091.589.589,0,0,0,.205-.205A.677.677,0,0,0,38.155,43.055Z" transform="translate(-15.378 -36.431)" fill="#1a1446"/>
        <path id="Trazado_15609" data-name="Trazado 15609" d="M37.157,46.849c0,.126-.011.456-.126.548a4.132,4.132,0,0,1-.434.205c0,.091.057.114.137.114l1.552-.011a1.192,1.192,0,0,0,.285,0c.091-.034.046-.16-.046-.16-.445,0-.342-.422-.342-.662-.068-1.666-.034-2.294-.034-2.59a7.791,7.791,0,0,0-1.586.114c-.046.011-.023.194,0,.194a.6.6,0,0,1,.639.685Z" transform="translate(-15.441 -36.174)" fill="#1a1446"/>
        <path id="Trazado_15610" data-name="Trazado 15610" d="M33.568,47.055a1.532,1.532,0,0,1-.011.24c-.034.445-.673.422-.662.456l.046.16h3.617c.205,0,.228.011.274-.034a.261.261,0,0,0,.057-.16c.011-.377.08-.753.1-1.118,0-.034-.023-.034-.068-.034-.091,0-.126.137-.16.194a1.585,1.585,0,0,1-.719.8,1.461,1.461,0,0,1-1.118,0,.425.425,0,0,1-.205-.274,1.317,1.317,0,0,1-.057-.445V43.609c0-.08.011-.137.011-.194a.38.38,0,0,1,.057-.171.35.35,0,0,1,.148-.137c.034-.023.377-.171.525-.251.057-.034.046-.057.023-.046H32.871c-.023,0-.011.091.023.1.274.091.639.16.662.513,0,.068.011.148.011.24Z" transform="translate(-15.96 -36.38)" fill="#1a1446"/>
        <rect id="Rectángulo_6743" data-name="Rectángulo 6743" width="20.117" height="0.308" transform="translate(16.946 13.197)" fill="#1a1446"/>
        <rect id="Rectángulo_6744" data-name="Rectángulo 6744" width="4.188" height="0.308" transform="translate(39.984 13.197)" fill="#1a1446"/>
        <path id="Trazado_15611" data-name="Trazado 15611" d="M51.721,51.6a2.041,2.041,0,0,0-.6.08,1.823,1.823,0,0,0-.479.183,2.235,2.235,0,0,0-.342.217,1.641,1.641,0,0,0-.308.319,1.345,1.345,0,0,0-.217.422,1.536,1.536,0,0,0-.08.525,1.362,1.362,0,0,0,.091.468,1.679,1.679,0,0,0,.24.445,2.016,2.016,0,0,0,.342.354,3,3,0,0,0,.377.228,2.774,2.774,0,0,0,.434.148,1.872,1.872,0,0,0,.422.057,2.743,2.743,0,0,0,.422-.034,1.777,1.777,0,0,0,.422-.114,1.544,1.544,0,0,0,.388-.194,1.277,1.277,0,0,0,.262-.205,2.328,2.328,0,0,0,.262-.308,1.444,1.444,0,0,0,.194-.4,1.622,1.622,0,0,0,.08-.479,1.359,1.359,0,0,0-.114-.582,1.422,1.422,0,0,0-.3-.468,2.176,2.176,0,0,0-.434-.354,2.043,2.043,0,0,0-.513-.217,1.534,1.534,0,0,0-.548-.091Zm.16.285a.908.908,0,0,1,.6.445,1.7,1.7,0,0,1,.137.856,2.4,2.4,0,0,1-.24,1.164.747.747,0,0,1-.525.388c-.8.091-1.027-.5-1.118-1.038a3.04,3.04,0,0,1,.068-1.118A.935.935,0,0,1,51.881,51.885Z" transform="translate(-13.585 -35.14)" fill="#1a1446"/>
        <path id="Trazado_15612" data-name="Trazado 15612" d="M39.492,52.436a1.051,1.051,0,0,0,.068,1.084,1.247,1.247,0,0,0,.662.411c.068.023.126.068.046.114s-.377.126-.628.251a.553.553,0,0,0,.057.981c.251.126.593.1.5.228a2.967,2.967,0,0,1-.4.114c-.536.194-.65.5-.65.742-.011.422.5.765,1.13.936a3.975,3.975,0,0,0,.959.1,2.532,2.532,0,0,0,.776-.137,1.887,1.887,0,0,0,.913-.673.92.92,0,0,0-.1-1.267c-.525-.536-1.632-.5-2.316-.628-.628-.114-.331-.639.183-.6a3.162,3.162,0,0,0,.913-.046c.89-.228,1.6-.947.742-1.826-.011-.011,0-.023.011-.046a.059.059,0,0,1,.046-.023h.7l.011-.491-.068-.068L40.85,51.58a1.514,1.514,0,0,0-.513.08,1.691,1.691,0,0,0-.844.776Zm.411,3.572c-.114-.6,2.716-.7,2.647.354-.023.354-.8.491-1.312.434-.548-.068-1.221-.228-1.335-.787Zm.639-3.937a.732.732,0,0,1,1.164.194,1.123,1.123,0,0,1-.251,1.472.743.743,0,0,1-.947-.171,1.2,1.2,0,0,1-.205-.479A1.172,1.172,0,0,1,40.542,52.071Z" transform="translate(-15.072 -35.143)" fill="#1a1446"/>
        <path id="Trazado_15613" data-name="Trazado 15613" d="M33.022,51.625a1.707,1.707,0,0,0,.924,1.324c.24.148.536.331.765.445.582.285,1.038.856.4,1.346a1.119,1.119,0,0,1-.867.16,3.155,3.155,0,0,1-.434-.16c-.616-.228-.593-1-.662-1.084-.034-.034-.194-.023-.217-.023s.011,1.495,0,1.575c0,.034.137.023.171.011.114-.034.091-.274.137-.262.468.057.719.342,1.472.274a1.927,1.927,0,0,0,.445-.091,1.67,1.67,0,0,0,.73-.479,1.533,1.533,0,0,0,.08-1.643,1.51,1.51,0,0,0-.354-.377c-.479-.422-1.575-.7-1.826-1.21-.593-1.187,1.632-1.426,1.94-.137,0,.011,0,.126.011.126.046,0,.137-.011.16.011.046.023.034-.126.034-.171V50.153c0-.148-.137-.114-.205-.034a.481.481,0,0,1-.217.126.64.64,0,0,1-.365-.034,1.844,1.844,0,0,0-1.346.057A1.235,1.235,0,0,0,33.022,51.625Z" transform="translate(-15.95 -35.359)" fill="#1a1446"/>
        <path id="Trazado_15614" data-name="Trazado 15614" d="M39.311,53.031c.1,0,.068-.08.068-.137a1.656,1.656,0,0,0-2.328-1.175,1.764,1.764,0,0,0-1.061,1.666,2.072,2.072,0,0,0,.16.719,1.624,1.624,0,0,0,.365.513,1.647,1.647,0,0,0,.548.32,1.836,1.836,0,0,0,2.3-.913c.057-.114.011-.137-.011-.1-1.2,1.278-2.031.548-2.259-.137a2.4,2.4,0,0,1-.114-.742l2.328-.011Zm-2.328-.194c-.011,0,.046-.936.7-1,.536-.046.924.993.662.993Z" transform="translate(-15.518 -35.144)" fill="#1a1446"/>
        <path id="Trazado_15615" data-name="Trazado 15615" d="M47.192,54.876a11.292,11.292,0,0,1-1.438.068v-.628a.145.145,0,0,0-.011-.068,1.64,1.64,0,0,1-1.894.6.867.867,0,0,1-.513-.673v-1.7c0-.262,0-.388-.046-.445s-.08-.091-.4-.126v-.183c.377-.034,1.164-.137,1.4-.137v1.7c0,.559.034.981.251,1.141.365.274,1.141-.16,1.2-.582a10.371,10.371,0,0,0,.046-1.221,1.251,1.251,0,0,0-.114-.673c-.046-.057-.137-.046-.479-.068l.023-.194c.468-.046.981-.046,1.426-.1l.011,2.191c0,.3-.034.6.137.787a.6.6,0,0,0,.342.16C47.226,54.739,47.2,54.774,47.192,54.876Z" transform="translate(-14.545 -35.141)" fill="#1a1446"/>
        <path id="Trazado_15616" data-name="Trazado 15616" d="M46.833,51.9c.011.126.593-.24.593.685v1.643c0,.571-.559.456-.559.548,0,.046-.011.148.023.148h2.02c.011,0,.034-.16,0-.171-.434-.034-.548-.32-.548-.65v-1.13a.762.762,0,0,1,.468-.479c.753-.24.822.308.97.3.08-.354.228-.776.217-.879a.359.359,0,0,0-.4-.32c-.628-.023-.981.513-1.267,1.016,0,.011.057-1.027.034-1.027l-1.575.171Z" transform="translate(-13.992 -35.143)" fill="#1a1446"/>
        <path id="Trazado_15617" data-name="Trazado 15617" d="M53.42,52.662c.057.707.685.787,1.312,1.027.742.3.662.765.3.97a.934.934,0,0,1-1.164-.274c-.171-.217-.24-.479-.342-.582-.023-.023-.148-.011-.171-.011s0,1.175-.011,1.221c-.011.1.3-.217.342-.205.388,0,.8.262,1.2.16.765-.183.981-.571.993-1.118a1.116,1.116,0,0,0-.81-.993,3.269,3.269,0,0,1-.879-.4c-.456-.365.126-.707.685-.525.65.217.628.65.639.65a.548.548,0,0,1,.137,0,6.128,6.128,0,0,0,.023-.936c0-.068-.068-.057-.114-.034-.011.011-.046.046-.057.046a.661.661,0,0,1-.445.011,1.658,1.658,0,0,0-1.05.023A.945.945,0,0,0,53.42,52.662Z" transform="translate(-13.07 -35.141)" fill="#1a1446"/>
      </g>
    </g>
    <g id="Grupo_28317" data-name="Grupo 28317" transform="translate(0.058 52.307)">
      <path id="Trazado_15618" data-name="Trazado 15618" d="M4.649,50.4h-.73l-.479-1.152H1.225L.757,50.4H.05L1.99,45.84h.685Zm-1.963-2.99A6.454,6.454,0,0,1,2.321,46.4a8.064,8.064,0,0,1-.388,1.038l-.5,1.255h1.78Z" transform="translate(-0.05 -45.84)" fill="#6f6f6e"/>
      <path id="Trazado_15619" data-name="Trazado 15619" d="M5.165,47.443a1.317,1.317,0,0,1,1.152-.593,1.152,1.152,0,0,1,1.175.856,3.86,3.86,0,0,1,.08.993v1.563H6.945V48.756a3.071,3.071,0,0,0-.057-.844.692.692,0,0,0-.707-.525.954.954,0,0,0-.879.7,3.218,3.218,0,0,0-.08.97v1.221H4.606V48.619c-.011-.707-.023-1.278-.046-1.689h.582Z" transform="translate(0.586 -45.698)" fill="#6f6f6e"/>
      <path id="Trazado_15620" data-name="Trazado 15620" d="M9.074,47.041h.879v.479H9.074v1.312a4.157,4.157,0,0,0,.034.662.477.477,0,0,0,.5.388.87.87,0,0,0,.411-.1v.536a1.844,1.844,0,0,1-.571.091.907.907,0,0,1-.879-.456,2.1,2.1,0,0,1-.126-.936V47.521H7.67v-.479h.776v-.765l.628-.217v.981Z" transform="translate(1.025 -45.809)" fill="#6f6f6e"/>
      <path id="Trazado_15621" data-name="Trazado 15621" d="M10.768,48.748a1.1,1.1,0,0,0,1.118,1.073,1.906,1.906,0,0,0,1.038-.319v.593a2.307,2.307,0,0,1-1.073.251,1.634,1.634,0,0,1-1.712-1.791,1.565,1.565,0,0,1,1.586-1.734,1.306,1.306,0,0,1,1.312.9,2.579,2.579,0,0,1,.148,1.027H10.768Zm1.791-.479a1.3,1.3,0,0,0-.183-.593.8.8,0,0,0-.673-.354.979.979,0,0,0-.936.947Z" transform="translate(1.373 -45.702)" fill="#6f6f6e"/>
      <path id="Trazado_15622" data-name="Trazado 15622" d="M15.154,47.512a1.474,1.474,0,0,0-.673-.171c-.331,0-.559.16-.559.422,0,.183.137.331.468.491l.251.126c.548.262.753.513.753.936,0,.6-.491,1.016-1.221,1.016a1.892,1.892,0,0,1-.867-.194v-.559a1.827,1.827,0,0,0,.787.217c.365,0,.639-.194.639-.434a.381.381,0,0,0-.171-.319c-.057-.057-.068-.057-.274-.16l-.262-.126a1.961,1.961,0,0,1-.536-.342.791.791,0,0,1-.228-.593c0-.582.468-.97,1.164-.97a2.475,2.475,0,0,1,.776.137Z" transform="translate(1.814 -45.698)" fill="#6f6f6e"/>
    </g>
  </g>
</svg>
