<?xml version="1.0" encoding="UTF-8"?>
<svg width="135px" height="124px" viewBox="0 0 135 124" version="1.1" xmlns="http://www.w3.org/2000/svg" xmlns:xlink="http://www.w3.org/1999/xlink">
    <!-- Generator: Sketch 57.1 (83088) - https://sketch.com -->
    <title>Group 11</title>
    <desc>Created with Sketch.</desc>
    <defs>
        <path d="M13.825,2.27675 C7.455,2.27675 2.275,7.45675 2.275,13.82675 C2.275,20.195 7.455,25.375 13.825,25.375 C20.195,25.375 25.375,20.195 25.375,13.82675 C25.375,7.45675 20.195,2.27675 13.825,2.27675 M13.825,0 C21.448,0 27.65,6.202 27.65,13.82675 C27.65,21.44975 21.448,27.65175 13.825,27.65175 C6.202,27.65175 0,21.44975 0,13.82675 C0,6.202 6.202,0 13.825,0 Z M15.2701664,19.0804448 L12.3938175,19.0804448 L12.3938175,21.8609155 L15.2701664,21.8609155 L15.2701664,19.0804448 Z M15.3660448,5.25 L12.25,5.25 L12.6335132,16.7314264 L15.0065011,16.7314264 L15.3660448,5.25 Z" id="path-1"></path>
    </defs>
    <g id="DSK-Producto-2" stroke="none" stroke-width="1" fill="none" fill-rule="evenodd">
        <g id="Producto.2-Copy-6" transform="translate(-612.000000, -182.000000)">
            <g id="Group-11" transform="translate(612.000000, 182.000000)">
                <g id="Group-5">
                    <g id="Group-10">
                        <g id="Group-34-Copy">
                            <g id="Group-2">
                                <g id="Group">
                                    <g id="Group-8">
                                        <circle id="Oval-2" fill="#F0FBFC" fill-rule="nonzero" cx="62" cy="62" r="62"></circle>
                                        <g id="Group-32" transform="translate(112.000000, 55.000000)">
                                            <g id="Group-35">
                                                <g id="Group-6" transform="translate(0.597760, 0.848037)">
                                                    <g id="Mask" transform="translate(0.619997, 0.175421)"></g>
                                                </g>
                                            </g>
                                        </g>
                                        <g id="Group-7" transform="translate(30.000000, 34.000000)">
                                            <path d="M41.4886475,26.362915 L38.8088379,17.8787842 C41.6116536,17.085083 43.7214762,17.5381673 45.1383057,19.2380371 C46.5551351,20.9379069 45.7470296,23.3128662 42.7139893,26.362915 L41.4886475,26.362915 Z" id="Path-5" fill="#99E5EA"></path>
                                            <g id="noun_Megaphone_2849941" transform="translate(44.000000, 0.000000)" fill="#1A1446" fill-rule="nonzero">
                                                <polygon id="Rectangle" transform="translate(6.663196, 7.289824) rotate(-49.156336) translate(-6.663196, -7.289824) " points="-0.697288722 5.87381776 14.0056881 5.9707211 14.0236798 8.70582952 -0.679297014 8.60892618"></polygon>
                                                <polygon id="Rectangle" transform="translate(12.926640, 30.365264) rotate(-70.840286) translate(-12.926640, -30.365264) " points="11.5378678 22.9627327 14.2546904 22.9740011 14.315412 37.7677943 11.5985895 37.756526"></polygon>
                                                <polygon id="Rectangle" transform="translate(11.977125, 18.246590) rotate(-14.999329) translate(-11.977125, -18.246590) " points="4.46399331 16.8634319 19.4811668 16.913108 19.4902575 19.6297484 4.473084 19.5800723"></polygon>
                                            </g>
                                            <path d="M16.4507337,54.7719727 C14.7605961,55.5460612 13.9155273,55.3214518 13.9155273,54.0981445 C13.9155273,52.8748372 12.8396797,48.5776315 10.6879843,41.2065273 C9.15315624,41.3860512 7.76774089,41.1590056 6.53173828,40.5253906 C5.29573568,39.8917756 3.61490885,34.2064762 1.48925781,23.4694923 C7.50716146,20.4043815 11.3032227,18.8718262 12.8774414,18.8718262 C14.4516602,18.8718262 16.7672526,24.8950195 19.8242187,36.9414062 C14.2245972,40.5885497 11.9090048,41.7832112 12.8774414,40.5253906 C12.5935872,39.0807211 13.969279,43.8295818 17.0045166,54.7719727 L16.4507337,54.7719727 Z" id="Path-6" fill="#99E5EA"></path>
                                            <path d="M14.5172679,19.6420744 C14.3614546,19.6420744 12.8406164,20.0216465 9.95475334,20.7807906 C8.50769193,21.0382003 7.73920481,22.0090565 7.64929199,23.6933594 C8.14765289,25.4279852 9.52262264,29.8593499 11.7742012,36.9874535 C12.4183416,38.7683521 13.6566938,39.4118572 15.4892578,38.9179688 C17.3218218,38.4240803 18.7417673,38.0157901 19.7490944,37.6930982 C16.4170234,25.6590823 14.6730812,19.6420744 14.5172679,19.6420744 Z" id="Path-7" fill="#F0FBFC"></path>
                                            <path d="M46.7615804,20.6344457 C45.888577,17.4341342 42.8323709,15.3700763 39.5846315,15.5676264 L36.896225,5.71736989 C36.374366,3.80454 34.268887,2.60289046 32.3105279,3.12060795 L28.8074107,4.0402377 C27.3459279,4.42580099 26.3244167,5.61655122 26.0912457,6.99395223 L14.2161779,17.157564 L4.83659544,19.6248966 C1.36123667,20.5390767 -0.708156272,24.0581932 0.223139949,27.469679 L2.97816677,37.558358 C3.74013641,40.3540325 6.33138834,42.3063724 9.27656059,42.3063724 C9.32236204,42.3063724 9.36677557,42.2981979 9.4111891,42.2981979 L12.4077145,53.2738087 C12.6672561,54.2220491 13.2862696,55.0149744 14.1523335,55.5054436 C14.7297094,55.832423 15.3695418,56 16.0190897,56 C16.3438636,56 16.6728014,55.9577652 16.9947995,55.8732955 L17.2779357,55.7983627 C19.2723808,55.2738331 20.4590548,53.2547349 19.9260925,51.2969453 L16.9795323,40.5066229 L20.348021,39.6210535 L35.816421,42.5952042 C36.5117703,43.4235522 37.5527125,43.9439945 38.6963609,43.9439945 C39.0225227,43.9439945 39.3500725,43.9017597 39.6665189,43.8186524 L43.1668603,42.8976602 C45.1613054,42.3731307 46.3493674,40.3540325 45.8150171,38.3962429 L43.1266106,28.5473488 C46.0398606,27.1236257 47.6345839,23.8347572 46.7615804,20.6344457 Z M21.4153337,37.048815 L16.4507337,18.8605821 L26.6047772,10.1697403 L34.6339107,39.5910804 L21.4153337,37.048815 Z M17.2446256,51.9999512 C17.3820299,52.5067693 17.0739111,53.0299365 16.5576038,53.1648155 L16.2744675,53.2397483 C16.0232535,53.3065066 15.7637119,53.2710839 15.5402563,53.1443793 C15.3154128,53.0163124 15.1558017,52.8119502 15.0877935,52.5667156 L12.1426212,41.7763931 L14.2980654,41.2096287 L17.2446256,51.9999512 Z M10.2494945,39.4548389 C8.2744803,39.971194 6.18149267,38.7709069 5.65824576,36.8526273 L2.90460686,26.7639483 C2.37025657,24.8047963 3.55970644,22.7816109 5.55553947,22.2557189 L13.9052832,20.0595068 L18.5992383,37.2572644 L10.2494945,39.4548389 Z M42.4493042,40.2654755 L38.9489628,41.1864677 C38.4326555,41.3240715 37.8969173,41.0093538 37.7622888,40.5134349 L28.8421088,7.83592436 C28.7033165,7.3304686 29.0114353,6.80866386 29.5263547,6.67242242 L33.028084,5.75279267 C33.1113594,5.73099403 33.1960227,5.72009472 33.280686,5.72009472 C33.7178817,5.72009472 34.1009484,6.00892658 34.214758,6.42446299 L43.1349381,39.1019736 C43.2723424,39.6074293 42.9656115,40.1292341 42.4493042,40.2654755 Z M42.3785201,25.8075334 L40.331334,18.3088042 C42.0620737,18.4409584 43.6054439,19.6044604 44.0801135,21.3415388 C44.5547831,23.0758924 43.8122444,24.8443064 42.3785201,25.8075334 Z" id="Shape" fill="#1A1446" fill-rule="nonzero"></path>
                                        </g>
                                    </g>
                                </g>
                            </g>
                        </g>
                        <g id="Group-9" transform="translate(107.000000, 48.000000)" fill="#99E5EA">
                            <ellipse id="Oval" cx="13.7506316" cy="13.6032636" rx="13.7506316" ry="13.6032636"></ellipse>
                        </g>
                    </g>
                    <g id="Icon/Exclamation" transform="translate(99.750000, 40.750000)">
                        <g id="Color/Liberty-Blue" transform="translate(7.000000, 7.000000)">
                            <mask id="mask-2" fill="white">
                                <use xlink:href="#path-1"></use>
                            </mask>
                            <use id="Mask" fill="#1A1446" fill-rule="nonzero" xlink:href="#path-1"></use>
                            <g mask="url(#mask-2)" fill="#1A1446" fill-rule="nonzero" id="Rectangle-Copy">
                                <g transform="translate(-71.750000, -71.750000)">
                                    <polygon points="0 0 177 0 177 170 0 170"></polygon>
                                </g>
                            </g>
                        </g>
                    </g>
                </g>
            </g>
        </g>
    </g>
</svg>