<svg xmlns="http://www.w3.org/2000/svg" width="24" height="24" viewBox="0 0 24 24">
  <g id="Grupo_30275" data-name="Grupo 30275" transform="translate(-947 -674)">
    <circle id="Elipse_425" data-name="Elipse 425" cx="12" cy="12" r="12" transform="translate(947 674)" fill="#fff"/>
    <g id="Icon_System_Bell_32px" data-name="Icon/System/Bell/32px" transform="translate(952.622 678.926)">
      <g id="Combined_Shape" data-name="Combined Shape">
        <path id="Combined_Shape-2" data-name="Combined Shape" d="M5.113,12.884h.674a.592.592,0,0,0,1.183,0h.673a1.265,1.265,0,0,1-2.531,0Zm-4.33-.452A.784.784,0,0,1,0,11.65v-.663c0-.571.256-.758.72-1.1l.1-.075C1.774,9.117,2.3,7.6,2.3,5.549a4.183,4.183,0,0,1,2.84-3.941,1.245,1.245,0,0,1-.048-.343,1.265,1.265,0,0,1,2.531,0,1.234,1.234,0,0,1-.044.331,4.173,4.173,0,0,1,2.882,3.953c0,2.052.524,3.568,1.476,4.267l.1.074c.464.34.72.526.72,1.1v.663a.783.783,0,0,1-.783.782ZM.674,10.971s0,.01,0,.016v.663a.11.11,0,0,0,.109.109H11.975a.11.11,0,0,0,.109-.109v-.663c0-.011,0-.02,0-.03H9.945v-.673H11.45c-1.073-.854-1.664-2.535-1.664-4.734a3.493,3.493,0,0,0-2.756-3.4.337.337,0,0,1-.2-.53.585.585,0,0,0,.119-.351.592.592,0,1,0-1.061.355.336.336,0,0,1-.195.532,3.5,3.5,0,0,0-2.72,3.4c0,2.2-.591,3.88-1.664,4.734H8.659v.673H.674Z" fill="none"/>
        <path id="Combined_Shape-3" data-name="Combined Shape" d="M5.113,12.884h.674a.592.592,0,0,0,1.183,0h.673a1.265,1.265,0,0,1-2.531,0Zm-4.33-.452A.784.784,0,0,1,0,11.65v-.663c0-.571.256-.758.72-1.1l.1-.075C1.774,9.117,2.3,7.6,2.3,5.549a4.183,4.183,0,0,1,2.84-3.941,1.245,1.245,0,0,1-.048-.343,1.265,1.265,0,0,1,2.531,0,1.234,1.234,0,0,1-.044.331,4.173,4.173,0,0,1,2.882,3.953c0,2.052.524,3.568,1.476,4.267l.1.074c.464.34.72.526.72,1.1v.663a.783.783,0,0,1-.783.782ZM.674,10.971s0,.01,0,.016v.663a.11.11,0,0,0,.109.109H11.975a.11.11,0,0,0,.109-.109v-.663c0-.011,0-.02,0-.03H9.945v-.673H11.45c-1.073-.854-1.664-2.535-1.664-4.734a3.493,3.493,0,0,0-2.756-3.4.337.337,0,0,1-.2-.53.585.585,0,0,0,.119-.351.592.592,0,1,0-1.061.355.336.336,0,0,1-.195.532,3.5,3.5,0,0,0-2.72,3.4c0,2.2-.591,3.88-1.664,4.734H8.659v.673H.674Z" fill="none"/>
        <path id="Combined_Shape-4" data-name="Combined Shape" d="M5.113,12.884h.674a.592.592,0,0,0,1.183,0h.673a1.265,1.265,0,0,1-2.531,0Zm-4.33-.452A.784.784,0,0,1,0,11.65v-.663c0-.571.256-.758.72-1.1l.1-.075C1.774,9.117,2.3,7.6,2.3,5.549a4.183,4.183,0,0,1,2.84-3.941,1.245,1.245,0,0,1-.048-.343,1.265,1.265,0,0,1,2.531,0,1.234,1.234,0,0,1-.044.331,4.173,4.173,0,0,1,2.882,3.953c0,2.052.524,3.568,1.476,4.267l.1.074c.464.34.72.526.72,1.1v.663a.783.783,0,0,1-.783.782ZM.674,10.971s0,.01,0,.016v.663a.11.11,0,0,0,.109.109H11.975a.11.11,0,0,0,.109-.109v-.663c0-.011,0-.02,0-.03H9.945v-.673H11.45c-1.073-.854-1.664-2.535-1.664-4.734a3.493,3.493,0,0,0-2.756-3.4.337.337,0,0,1-.2-.53.585.585,0,0,0,.119-.351.592.592,0,1,0-1.061.355.336.336,0,0,1-.195.532,3.5,3.5,0,0,0-2.72,3.4c0,2.2-.591,3.88-1.664,4.734H8.659v.673H.674Z" fill="none"/>
        <path id="Combined_Shape-5" data-name="Combined Shape" d="M5.113,12.884h.674a.592.592,0,0,0,1.183,0h.673a1.265,1.265,0,0,1-2.531,0Zm-4.33-.452A.784.784,0,0,1,0,11.65v-.663c0-.571.256-.758.72-1.1l.1-.075C1.774,9.117,2.3,7.6,2.3,5.549a4.183,4.183,0,0,1,2.84-3.941,1.245,1.245,0,0,1-.048-.343,1.265,1.265,0,0,1,2.531,0,1.234,1.234,0,0,1-.044.331,4.173,4.173,0,0,1,2.882,3.953c0,2.052.524,3.568,1.476,4.267l.1.074c.464.34.72.526.72,1.1v.663a.783.783,0,0,1-.783.782ZM.674,10.971s0,.01,0,.016v.663a.11.11,0,0,0,.109.109H11.975a.11.11,0,0,0,.109-.109v-.663c0-.011,0-.02,0-.03H9.945v-.673H11.45c-1.073-.854-1.664-2.535-1.664-4.734a3.493,3.493,0,0,0-2.756-3.4.337.337,0,0,1-.2-.53.585.585,0,0,0,.119-.351.592.592,0,1,0-1.061.355.336.336,0,0,1-.195.532,3.5,3.5,0,0,0-2.72,3.4c0,2.2-.591,3.88-1.664,4.734H8.659v.673H.674Z" fill="none"/>
        <path id="Combined_Shape-6" data-name="Combined Shape" d="M5.113,12.884h.674a.592.592,0,0,0,1.183,0h.673a1.265,1.265,0,0,1-2.531,0Zm-4.33-.452A.784.784,0,0,1,0,11.65v-.663c0-.571.256-.758.72-1.1l.1-.075C1.774,9.117,2.3,7.6,2.3,5.549a4.183,4.183,0,0,1,2.84-3.941,1.245,1.245,0,0,1-.048-.343,1.265,1.265,0,0,1,2.531,0,1.234,1.234,0,0,1-.044.331,4.173,4.173,0,0,1,2.882,3.953c0,2.052.524,3.568,1.476,4.267l.1.074c.464.34.72.526.72,1.1v.663a.783.783,0,0,1-.783.782ZM.674,10.971s0,.01,0,.016v.663a.11.11,0,0,0,.109.109H11.975a.11.11,0,0,0,.109-.109v-.663c0-.011,0-.02,0-.03H9.945v-.673H11.45c-1.073-.854-1.664-2.535-1.664-4.734a3.493,3.493,0,0,0-2.756-3.4.337.337,0,0,1-.2-.53.585.585,0,0,0,.119-.351.592.592,0,1,0-1.061.355.336.336,0,0,1-.195.532,3.5,3.5,0,0,0-2.72,3.4c0,2.2-.591,3.88-1.664,4.734H8.659v.673H.674Z" fill="none"/>
        <path id="Combined_Shape-7" data-name="Combined Shape" d="M5.113,12.884h.674a.592.592,0,0,0,1.183,0h.673a1.265,1.265,0,0,1-2.531,0Zm-4.33-.452A.784.784,0,0,1,0,11.65v-.663c0-.571.256-.758.72-1.1l.1-.075C1.774,9.117,2.3,7.6,2.3,5.549a4.183,4.183,0,0,1,2.84-3.941,1.245,1.245,0,0,1-.048-.343,1.265,1.265,0,0,1,2.531,0,1.234,1.234,0,0,1-.044.331,4.173,4.173,0,0,1,2.882,3.953c0,2.052.524,3.568,1.476,4.267l.1.074c.464.34.72.526.72,1.1v.663a.783.783,0,0,1-.783.782ZM.674,10.971s0,.01,0,.016v.663a.11.11,0,0,0,.109.109H11.975a.11.11,0,0,0,.109-.109v-.663c0-.011,0-.02,0-.03H9.945v-.673H11.45c-1.073-.854-1.664-2.535-1.664-4.734a3.493,3.493,0,0,0-2.756-3.4.337.337,0,0,1-.2-.53.585.585,0,0,0,.119-.351.592.592,0,1,0-1.061.355.336.336,0,0,1-.195.532,3.5,3.5,0,0,0-2.72,3.4c0,2.2-.591,3.88-1.664,4.734H8.659v.673H.674Z" fill="#b85d00"/>
      </g>
    </g>
  </g>
</svg>
