<svg xmlns="http://www.w3.org/2000/svg" xmlns:xlink="http://www.w3.org/1999/xlink" width="24" height="24" viewBox="0 0 24 24">
  <defs>
    <clipPath id="clip-path">
      <rect id="Rectángulo_8231" data-name="Rectángulo 8231" width="24" height="24" transform="translate(-22395 -11416)" fill="none" stroke="#707070" stroke-width="1"/>
    </clipPath>
  </defs>
  <g id="Enmascarar_grupo_340" data-name="Enmascarar grupo 340" transform="translate(22395 11416)" clip-path="url(#clip-path)">
    <g id="Grupo_30071" data-name="Grupo 30071" transform="translate(-22397.621 -11418.79)">
      <g id="Icon_Account_Experience_Phone_32px" data-name="Icon/Account Experience/Phone/32px" transform="translate(2.786 3.46)">
        <g id="Fill_1" data-name="Fill 1" transform="translate(0 0)">
          <path id="Fill_1-2" data-name="Fill 1" d="M5.311,23.33c.135,0,.273,0,.415-.012,2.613-.148,8.269-2.292,12.092-5.933A20.454,20.454,0,0,0,23.512,6.154a4.256,4.256,0,0,0-1.3-3.943C21.371,1.493,19.471.061,19.391,0l-.669.889c.019.014,1.953,1.472,2.771,2.169.542.461,1.075,1.178.911,3a19.517,19.517,0,0,1-5.353,10.524c-3.582,3.411-9.008,5.493-11.388,5.628a5.124,5.124,0,0,1-4-1.428c-.389-.4-.552-.679-.547-.919a1.778,1.778,0,0,1,.68-1.046c.7-.665,2.521-2.464,3.068-3.01a1.255,1.255,0,0,1,.851-.429,1.3,1.3,0,0,1,.88.471c.174.177.317.32.45.452.287.285.519.515.9.94.983,1.105,1.988,1.27,2.987.489,1.051-.82,5.363-5.031,5.977-5.638.819-.81,1.942-1.919.814-3.087-.4-.412-.912-.851-1.411-1.276-.391-.333-.76-.648-1-.888a.61.61,0,0,1-.08-.928c.544-.669,2.892-3,2.915-3.023L17.361,2.1c-.1.1-2.414,2.4-3,3.11a1.706,1.706,0,0,0,.152,2.41c.271.274.658.6,1.068.954.478.407.972.829,1.332,1.2.243.251.364.377-.8,1.523-.982.971-4.949,4.827-5.879,5.553-.455.355-.806.4-1.471-.351-.4-.448-.642-.69-.945-.991-.13-.129-.27-.268-.44-.442a2.355,2.355,0,0,0-1.669-.8,2.306,2.306,0,0,0-1.642.753c-.544.542-2.35,2.331-3.047,2.988A2.674,2.674,0,0,0,0,19.833,2.46,2.46,0,0,0,.859,21.55a6.2,6.2,0,0,0,4.453,1.78" transform="translate(0)" fill="none" stroke="#006729" stroke-width="0.1"/>
          <path id="Fill_1-3" data-name="Fill 1" d="M5.311,23.33c.135,0,.273,0,.415-.012,2.613-.148,8.269-2.292,12.092-5.933A20.454,20.454,0,0,0,23.512,6.154a4.256,4.256,0,0,0-1.3-3.943C21.371,1.493,19.471.061,19.391,0l-.669.889c.019.014,1.953,1.472,2.771,2.169.542.461,1.075,1.178.911,3a19.517,19.517,0,0,1-5.353,10.524c-3.582,3.411-9.008,5.493-11.388,5.628a5.124,5.124,0,0,1-4-1.428c-.389-.4-.552-.679-.547-.919a1.778,1.778,0,0,1,.68-1.046c.7-.665,2.521-2.464,3.068-3.01a1.255,1.255,0,0,1,.851-.429,1.3,1.3,0,0,1,.88.471c.174.177.317.32.45.452.287.285.519.515.9.94.983,1.105,1.988,1.27,2.987.489,1.051-.82,5.363-5.031,5.977-5.638.819-.81,1.942-1.919.814-3.087-.4-.412-.912-.851-1.411-1.276-.391-.333-.76-.648-1-.888a.61.61,0,0,1-.08-.928c.544-.669,2.892-3,2.915-3.023L17.361,2.1c-.1.1-2.414,2.4-3,3.11a1.706,1.706,0,0,0,.152,2.41c.271.274.658.6,1.068.954.478.407.972.829,1.332,1.2.243.251.364.377-.8,1.523-.982.971-4.949,4.827-5.879,5.553-.455.355-.806.4-1.471-.351-.4-.448-.642-.69-.945-.991-.13-.129-.27-.268-.44-.442a2.355,2.355,0,0,0-1.669-.8,2.306,2.306,0,0,0-1.642.753c-.544.542-2.35,2.331-3.047,2.988A2.674,2.674,0,0,0,0,19.833,2.46,2.46,0,0,0,.859,21.55a6.2,6.2,0,0,0,4.453,1.78" transform="translate(0)" fill="none" stroke="#006729" stroke-width="0.1"/>
          <path id="Fill_1-4" data-name="Fill 1" d="M5.311,23.33c.135,0,.273,0,.415-.012,2.613-.148,8.269-2.292,12.092-5.933A20.454,20.454,0,0,0,23.512,6.154a4.256,4.256,0,0,0-1.3-3.943C21.371,1.493,19.471.061,19.391,0l-.669.889c.019.014,1.953,1.472,2.771,2.169.542.461,1.075,1.178.911,3a19.517,19.517,0,0,1-5.353,10.524c-3.582,3.411-9.008,5.493-11.388,5.628a5.124,5.124,0,0,1-4-1.428c-.389-.4-.552-.679-.547-.919a1.778,1.778,0,0,1,.68-1.046c.7-.665,2.521-2.464,3.068-3.01a1.255,1.255,0,0,1,.851-.429,1.3,1.3,0,0,1,.88.471c.174.177.317.32.45.452.287.285.519.515.9.94.983,1.105,1.988,1.27,2.987.489,1.051-.82,5.363-5.031,5.977-5.638.819-.81,1.942-1.919.814-3.087-.4-.412-.912-.851-1.411-1.276-.391-.333-.76-.648-1-.888a.61.61,0,0,1-.08-.928c.544-.669,2.892-3,2.915-3.023L17.361,2.1c-.1.1-2.414,2.4-3,3.11a1.706,1.706,0,0,0,.152,2.41c.271.274.658.6,1.068.954.478.407.972.829,1.332,1.2.243.251.364.377-.8,1.523-.982.971-4.949,4.827-5.879,5.553-.455.355-.806.4-1.471-.351-.4-.448-.642-.69-.945-.991-.13-.129-.27-.268-.44-.442a2.355,2.355,0,0,0-1.669-.8,2.306,2.306,0,0,0-1.642.753c-.544.542-2.35,2.331-3.047,2.988A2.674,2.674,0,0,0,0,19.833,2.46,2.46,0,0,0,.859,21.55a6.2,6.2,0,0,0,4.453,1.78" transform="translate(0)" fill="none" stroke="#006729" stroke-width="0.1"/>
          <path id="Fill_1-5" data-name="Fill 1" d="M5.311,23.33c.135,0,.273,0,.415-.012,2.613-.148,8.269-2.292,12.092-5.933A20.454,20.454,0,0,0,23.512,6.154a4.256,4.256,0,0,0-1.3-3.943C21.371,1.493,19.471.061,19.391,0l-.669.889c.019.014,1.953,1.472,2.771,2.169.542.461,1.075,1.178.911,3a19.517,19.517,0,0,1-5.353,10.524c-3.582,3.411-9.008,5.493-11.388,5.628a5.124,5.124,0,0,1-4-1.428c-.389-.4-.552-.679-.547-.919a1.778,1.778,0,0,1,.68-1.046c.7-.665,2.521-2.464,3.068-3.01a1.255,1.255,0,0,1,.851-.429,1.3,1.3,0,0,1,.88.471c.174.177.317.32.45.452.287.285.519.515.9.94.983,1.105,1.988,1.27,2.987.489,1.051-.82,5.363-5.031,5.977-5.638.819-.81,1.942-1.919.814-3.087-.4-.412-.912-.851-1.411-1.276-.391-.333-.76-.648-1-.888a.61.61,0,0,1-.08-.928c.544-.669,2.892-3,2.915-3.023L17.361,2.1c-.1.1-2.414,2.4-3,3.11a1.706,1.706,0,0,0,.152,2.41c.271.274.658.6,1.068.954.478.407.972.829,1.332,1.2.243.251.364.377-.8,1.523-.982.971-4.949,4.827-5.879,5.553-.455.355-.806.4-1.471-.351-.4-.448-.642-.69-.945-.991-.13-.129-.27-.268-.44-.442a2.355,2.355,0,0,0-1.669-.8,2.306,2.306,0,0,0-1.642.753c-.544.542-2.35,2.331-3.047,2.988A2.674,2.674,0,0,0,0,19.833,2.46,2.46,0,0,0,.859,21.55a6.2,6.2,0,0,0,4.453,1.78" transform="translate(0)" fill="none" stroke="#006729" stroke-width="0.1"/>
          <path id="Fill_1-6" data-name="Fill 1" d="M5.311,23.33c.135,0,.273,0,.415-.012,2.613-.148,8.269-2.292,12.092-5.933A20.454,20.454,0,0,0,23.512,6.154a4.256,4.256,0,0,0-1.3-3.943C21.371,1.493,19.471.061,19.391,0l-.669.889c.019.014,1.953,1.472,2.771,2.169.542.461,1.075,1.178.911,3a19.517,19.517,0,0,1-5.353,10.524c-3.582,3.411-9.008,5.493-11.388,5.628a5.124,5.124,0,0,1-4-1.428c-.389-.4-.552-.679-.547-.919a1.778,1.778,0,0,1,.68-1.046c.7-.665,2.521-2.464,3.068-3.01a1.255,1.255,0,0,1,.851-.429,1.3,1.3,0,0,1,.88.471c.174.177.317.32.45.452.287.285.519.515.9.94.983,1.105,1.988,1.27,2.987.489,1.051-.82,5.363-5.031,5.977-5.638.819-.81,1.942-1.919.814-3.087-.4-.412-.912-.851-1.411-1.276-.391-.333-.76-.648-1-.888a.61.61,0,0,1-.08-.928c.544-.669,2.892-3,2.915-3.023L17.361,2.1c-.1.1-2.414,2.4-3,3.11a1.706,1.706,0,0,0,.152,2.41c.271.274.658.6,1.068.954.478.407.972.829,1.332,1.2.243.251.364.377-.8,1.523-.982.971-4.949,4.827-5.879,5.553-.455.355-.806.4-1.471-.351-.4-.448-.642-.69-.945-.991-.13-.129-.27-.268-.44-.442a2.355,2.355,0,0,0-1.669-.8,2.306,2.306,0,0,0-1.642.753c-.544.542-2.35,2.331-3.047,2.988A2.674,2.674,0,0,0,0,19.833,2.46,2.46,0,0,0,.859,21.55a6.2,6.2,0,0,0,4.453,1.78" transform="translate(0)" fill="none" stroke="#006729" stroke-width="0.1"/>
          <path id="Fill_1-7" data-name="Fill 1" d="M5.311,23.33c.135,0,.273,0,.415-.012,2.613-.148,8.269-2.292,12.092-5.933A20.454,20.454,0,0,0,23.512,6.154a4.256,4.256,0,0,0-1.3-3.943C21.371,1.493,19.471.061,19.391,0l-.669.889c.019.014,1.953,1.472,2.771,2.169.542.461,1.075,1.178.911,3a19.517,19.517,0,0,1-5.353,10.524c-3.582,3.411-9.008,5.493-11.388,5.628a5.124,5.124,0,0,1-4-1.428c-.389-.4-.552-.679-.547-.919a1.778,1.778,0,0,1,.68-1.046c.7-.665,2.521-2.464,3.068-3.01a1.255,1.255,0,0,1,.851-.429,1.3,1.3,0,0,1,.88.471c.174.177.317.32.45.452.287.285.519.515.9.94.983,1.105,1.988,1.27,2.987.489,1.051-.82,5.363-5.031,5.977-5.638.819-.81,1.942-1.919.814-3.087-.4-.412-.912-.851-1.411-1.276-.391-.333-.76-.648-1-.888a.61.61,0,0,1-.08-.928c.544-.669,2.892-3,2.915-3.023L17.361,2.1c-.1.1-2.414,2.4-3,3.11a1.706,1.706,0,0,0,.152,2.41c.271.274.658.6,1.068.954.478.407.972.829,1.332,1.2.243.251.364.377-.8,1.523-.982.971-4.949,4.827-5.879,5.553-.455.355-.806.4-1.471-.351-.4-.448-.642-.69-.945-.991-.13-.129-.27-.268-.44-.442a2.355,2.355,0,0,0-1.669-.8,2.306,2.306,0,0,0-1.642.753c-.544.542-2.35,2.331-3.047,2.988A2.674,2.674,0,0,0,0,19.833,2.46,2.46,0,0,0,.859,21.55a6.2,6.2,0,0,0,4.453,1.78" transform="translate(0)" fill="#006729" stroke="#006729" stroke-width="0.1"/>
        </g>
      </g>
      <path id="Trazado_15789" data-name="Trazado 15789" d="M9.6,4.036c-.026-.117-.683-2.924-4.276-2.924s-4.206,2.8-4.23,2.919L0,3.816A4.85,4.85,0,0,1,.956,1.89,5.322,5.322,0,0,1,5.322,0,5.391,5.391,0,0,1,9.706,1.886a4.921,4.921,0,0,1,.981,1.922Z" transform="translate(4.264 11.847) rotate(-45)" fill="#006729" stroke="#006729" stroke-width="0.1"/>
      <path id="Trazado_15790" data-name="Trazado 15790" d="M16.165,6.34a6.89,6.89,0,0,0-1.377-2.634,7.645,7.645,0,0,0-6.2-2.594A7.53,7.53,0,0,0,2.43,3.7,6.764,6.764,0,0,0,1.092,6.335L0,6.12A7.887,7.887,0,0,1,4.159.943,9.947,9.947,0,0,1,8.588,0a10.024,10.024,0,0,1,4.439.942,8.035,8.035,0,0,1,4.227,5.17Z" transform="translate(0 12.201) rotate(-45)" fill="#006729" stroke="#006729" stroke-width="0.1"/>
    </g>
  </g>
</svg>
