<?xml version="1.0" encoding="UTF-8"?>
<svg id="Capa_2" xmlns="http://www.w3.org/2000/svg" version="1.1" viewBox="0 0 471.8 455.3">
  <!-- Generator: Adobe Illustrator 29.5.1, SVG Export Plug-In . SVG Version: 2.1.0 Build 141)  -->
  <path d="M393.8,391.6l-136.4-108.5c-12-9.5-28.9-9.5-40.9,0l-130.5,109.3" style="fill: none; stroke: #006927; stroke-miterlimit: 10; stroke-width: 18px;"/>
  <line x1="279.6" y1="300.7" x2="393.8" y2="209.9" style="fill: none; stroke: #006927; stroke-miterlimit: 10; stroke-width: 18px;"/>
  <line x1="80" y1="209.9" x2="194.3" y2="300.7" style="fill: none; stroke: #006927; stroke-miterlimit: 10; stroke-width: 18px;"/>
  <path d="M377.3,223V44.7c0-9.1-7.4-16.5-16.5-16.5H113c-9.1,0-16.5,7.4-16.5,16.5v178.3" style="fill: none; stroke: #006927; stroke-miterlimit: 10; stroke-width: 18px;"/>
  <line x1="146.1" y1="127.3" x2="327.8" y2="127.3" style="fill: none; stroke: #006927; stroke-miterlimit: 10; stroke-width: 18px;"/>
  <line x1="195.6" y1="77.7" x2="278.2" y2="77.7" style="fill: none; stroke: #006927; stroke-miterlimit: 10; stroke-width: 18px;"/>
  <line x1="146.1" y1="176.8" x2="327.8" y2="176.8" style="fill: none; stroke: #006927; stroke-miterlimit: 10; stroke-width: 18px;"/>
  <line x1="162.6" y1="226.4" x2="311.3" y2="226.4" style="fill: none; stroke: #006927; stroke-miterlimit: 10; stroke-width: 18px;"/>
  <path d="M96.5,125.2l-46.6,35.6c-12.3,9.4-19.5,23.9-19.5,39.4v199.7c0,22.8,18.5,41.3,41.3,41.3h330.3c22.8,0,41.3-18.5,41.3-41.3v-199.7c0-15.4-7.2-30-19.5-39.4l-46.6-35.6" style="fill: none; stroke: #006927; stroke-miterlimit: 10; stroke-width: 18px;"/>
</svg>