<svg xmlns="http://www.w3.org/2000/svg" xmlns:xlink="http://www.w3.org/1999/xlink" width="42.634" height="26.271" viewBox="0 0 42.634 26.271">
  <defs>
    <clipPath id="clip-path">
      <rect id="Rectángulo_2424" data-name="Rectángulo 2424" width="42.634" height="26.271" fill="none"/>
    </clipPath>
  </defs>
  <g id="Grupo_20013" data-name="Grupo 20013" transform="translate(-169 -3)">
    <g id="Grupo_18930" data-name="Grupo 18930" transform="translate(169 3)" clip-path="url(#clip-path)">
      <path id="Trazado_13699" data-name="Trazado 13699" d="M0,32.144l.588-.7a2.577,2.577,0,0,0,1.756.722c.605,0,.986-.285.986-.7v-.016c0-.4-.223-.61-1.256-.85C.9,30.32.228,29.97.228,28.947v-.016a1.7,1.7,0,0,1,1.9-1.61,3.089,3.089,0,0,1,2.019.7l-.525.738a2.53,2.53,0,0,0-1.51-.571c-.571,0-.906.294-.906.658v.017c0,.429.255.619,1.328.873,1.176.286,1.78.706,1.78,1.627v.015c0,1.039-.818,1.658-1.987,1.658A3.432,3.432,0,0,1,0,32.144M6.03,27.4h4.125v.872H7.008v1.444H9.8v.873H7.008v1.492H10.2v.872H6.03Zm5.527,2.792v-.016A2.83,2.83,0,0,1,14.425,27.3a3.007,3.007,0,0,1,2.137.753l-.62.737a2.181,2.181,0,0,0-1.558-.595,1.88,1.88,0,0,0-1.8,1.96v.016a1.856,1.856,0,0,0,1.891,1.983,2.278,2.278,0,0,0,1.343-.42V30.7H14.393v-.848h2.368v2.332a3.55,3.55,0,0,1-2.32.865,2.758,2.758,0,0,1-2.885-2.856m6.991.405V27.4h.978v3.157c0,1.031.532,1.579,1.407,1.579s1.4-.516,1.4-1.538V27.4h.977v3.148a2.22,2.22,0,0,1-2.392,2.492A2.191,2.191,0,0,1,18.547,30.6m6.733-3.2H27.76a2.245,2.245,0,0,1,1.606.555,1.681,1.681,0,0,1,.461,1.2v.016a1.668,1.668,0,0,1-1.319,1.682l1.5,2.1h-1.16l-1.367-1.935H26.258v1.935H25.28Zm2.408,2.753c.7,0,1.144-.366,1.144-.929v-.015c0-.6-.429-.921-1.152-.921H26.258v1.865Zm3.558.039v-.016a2.909,2.909,0,0,1,5.817-.016v.016a2.909,2.909,0,0,1-5.817.016m4.792,0v-.016A1.9,1.9,0,0,0,34.147,28.2a1.879,1.879,0,0,0-1.876,1.96v.016a1.9,1.9,0,0,0,1.892,1.967,1.871,1.871,0,0,0,1.875-1.952m2.286,1.952.588-.7a2.577,2.577,0,0,0,1.756.722c.605,0,.986-.285.986-.7v-.016c0-.4-.223-.61-1.256-.85-1.184-.285-1.852-.634-1.852-1.658v-.016a1.7,1.7,0,0,1,1.9-1.61,3.088,3.088,0,0,1,2.019.7l-.524.738a2.533,2.533,0,0,0-1.51-.571c-.573,0-.906.294-.906.658v.017c0,.429.253.619,1.327.873,1.176.286,1.78.706,1.78,1.627v.015c0,1.039-.819,1.658-1.987,1.658a3.432,3.432,0,0,1-2.321-.889" transform="translate(-0.001 -6.778)" fill="#fff"/>
      <path id="Trazado_13700" data-name="Trazado 13700" d="M25.428,16.822h6.261c6.813,0,10.232-3.532,10.232-8.506V8.267C41.92,3.293,38.574,0,31.88,0H25.428Zm5.635-4.6V4.605H32c2.576,0,4.237,1.146,4.237,3.78v.053c0,2.632-1.661,3.779-4.237,3.779Z" transform="translate(-6.312 0)" fill="#fff"/>
      <rect id="Rectángulo_2420" data-name="Rectángulo 2420" width="5.618" height="16.822" transform="translate(37.013)" fill="#fff"/>
      <rect id="Rectángulo_2421" data-name="Rectángulo 2421" width="5.618" height="5.605" transform="translate(5.631 5.609)" fill="#fff"/>
      <rect id="Rectángulo_2422" data-name="Rectángulo 2422" width="5.618" height="16.822" transform="translate(11.252)" fill="#fff"/>
      <rect id="Rectángulo_2423" data-name="Rectángulo 2423" width="5.618" height="16.822" transform="translate(0.009)" fill="#fff"/>
      <line id="Línea_943" data-name="Línea 943" transform="translate(11.684 5.623)" fill="none" stroke="#787372" stroke-linecap="round" stroke-linejoin="round" stroke-width="0.008"/>
      <line id="Línea_944" data-name="Línea 944" transform="translate(11.684 11.187)" fill="none" stroke="#787372" stroke-linecap="round" stroke-linejoin="round" stroke-width="0.008"/>
      <line id="Línea_945" data-name="Línea 945" transform="translate(0.003 0.149)" fill="none" stroke="#787372" stroke-linecap="round" stroke-linejoin="round" stroke-width="0.008"/>
      <line id="Línea_946" data-name="Línea 946" transform="translate(42.631 0.149)" fill="none" stroke="#787372" stroke-linecap="round" stroke-linejoin="round" stroke-width="0.008"/>
      <line id="Línea_947" data-name="Línea 947" transform="translate(42.631 16.818)" fill="none" stroke="#787372" stroke-linecap="round" stroke-linejoin="round" stroke-width="0.008"/>
      <path id="Trazado_13701" data-name="Trazado 13701" d="M56.61,27.405" transform="translate(-14.052 -6.803)" fill="#9c9c9a"/>
      <line id="Línea_948" data-name="Línea 948" transform="translate(42.557 20.603)" fill="none" stroke="#787372" stroke-linecap="round" stroke-linejoin="round" stroke-width="0.008"/>
      <path id="Trazado_13702" data-name="Trazado 13702" d="M56.61,34.806" transform="translate(-14.052 -8.64)" fill="#9c9b9b"/>
    </g>
  </g>
</svg>
