<svg id="Iconos" xmlns="http://www.w3.org/2000/svg" width="24" height="24" viewBox="0 0 24 24">
  <g id="Ayuda">
    <path id="Combined_Shape" data-name="Combined Shape" d="M3.519,20.481A11.994,11.994,0,1,1,20.482,3.519,11.994,11.994,0,1,1,3.519,20.481ZM1.129,12A10.871,10.871,0,1,0,12,1.129,10.884,10.884,0,0,0,1.129,12Zm10.078,6.577V16.941H13.2v1.636Zm.257-2.853v-.5c0-.889.145-1.965,1.884-3.5a3.4,3.4,0,0,0,1.437-2.832,2.237,2.237,0,0,0-2.374-2.279c-1.491,0-2.352.8-2.633,2.438l-.035.2H8.264l.02-.264a3.994,3.994,0,0,1,4.151-3.8,3.788,3.788,0,0,1,3,1.244,3.806,3.806,0,0,1,.871,2.439c0,1.59-.511,2.58-2.023,3.925a3.1,3.1,0,0,0-1.344,2.552v.386Z" fill="#65a518"/>
  </g>
</svg>
