<?xml version="1.0" encoding="UTF-8"?>
<svg id="objects" xmlns="http://www.w3.org/2000/svg" viewBox="0 0 100 100">
  <path d="M100,50c0,27.61-22.39,50-50,50h0C22.39,100,0,77.61,0,50h0C0,22.39,22.39,0,50,0h0c27.61,0,50,22.39,50,50h0Z" fill="#005d28"/>
  <path d="M72.32,28.94H29.23c-4.26,0-7.71,3.45-7.71,7.71v26.95c0,4.26,3.45,7.71,7.71,7.71h43.09c4.26,0,7.71-3.45,7.71-7.71v-26.95c0-4.26-3.45-7.71-7.71-7.71ZM57.69,51.98l-11.98,5.99c-1.38.69-3.01-.31-3.01-1.86v-11.98c0-1.55,1.63-2.55,3.01-1.86l11.98,5.99c1.53.76,1.53,2.95,0,3.72Z" fill="#fff" stroke="#fff" stroke-miterlimit="10"/>
</svg>