<svg xmlns="http://www.w3.org/2000/svg" width="40" height="37.831" viewBox="0 0 40 37.831">
  <g id="Icon_Coverage_Options_Legal_Claim_64px" data-name="Icon/Coverage Options/Legal Claim/64px" transform="translate(-0.061 -1.635)">
    <g id="Combined_Shape" data-name="Combined Shape" transform="translate(0.061 1.635)">
      <path id="Combined_Shape-2" data-name="Combined Shape" d="M6.99,37.831v-1.5H32.9v1.5Zm12.205-3.5V12.863h1.5V34.334ZM25.806,23.7a5.651,5.651,0,0,1,.107-1.069.34.34,0,0,1,.029-.082c.006-.013.012-.026.017-.039l-.011,0L31.69,7.286H24.048a4.169,4.169,0,0,1-8.2,0H8.111L14.05,22.5l-.011,0c.005.014.011.026.017.039a.381.381,0,0,1,.032.09A5.7,5.7,0,0,1,14.2,23.7c0,3.495-3.184,6.338-7.1,6.338S0,27.193,0,23.7a5.673,5.673,0,0,1,.108-1.07.361.361,0,0,1,.029-.082c.006-.013.012-.026.017-.039l-.011,0L6.288,6.217a.753.753,0,0,1,.7-.486h0a.721.721,0,0,1,.259.051h8.6a4.19,4.19,0,0,1,3.349-3.35V0h1.5V2.432a4.189,4.189,0,0,1,3.349,3.35h8.488a.741.741,0,0,1,.256-.051h0a.757.757,0,0,1,.7.478L39.854,22.5l-.011,0,.017.04a.433.433,0,0,1,.032.088A5.688,5.688,0,0,1,40,23.7c0,3.495-3.184,6.338-7.1,6.338S25.806,27.193,25.806,23.7Zm1.5,0c0,2.665,2.509,4.834,5.594,4.834S38.5,26.363,38.5,23.7c0-.066,0-.124,0-.178H27.314C27.311,23.581,27.309,23.64,27.309,23.7ZM1.5,23.7c0,2.665,2.509,4.834,5.594,4.834s5.594-2.168,5.594-4.834c0-.057,0-.117-.005-.178H1.509C1.506,23.574,1.5,23.637,1.5,23.7Zm26.235-1.681H38.053L32.807,8.582Zm-25.8,0H12.248L7,8.582ZM17.278,6.534a2.669,2.669,0,1,0,2.669-2.669A2.671,2.671,0,0,0,17.278,6.534Z" fill="none"/>
      <path id="Combined_Shape-3" data-name="Combined Shape" d="M6.99,37.831v-1.5H32.9v1.5Zm12.205-3.5V12.863h1.5V34.334ZM25.806,23.7a5.651,5.651,0,0,1,.107-1.069.34.34,0,0,1,.029-.082c.006-.013.012-.026.017-.039l-.011,0L31.69,7.286H24.048a4.169,4.169,0,0,1-8.2,0H8.111L14.05,22.5l-.011,0c.005.014.011.026.017.039a.381.381,0,0,1,.032.09A5.7,5.7,0,0,1,14.2,23.7c0,3.495-3.184,6.338-7.1,6.338S0,27.193,0,23.7a5.673,5.673,0,0,1,.108-1.07.361.361,0,0,1,.029-.082c.006-.013.012-.026.017-.039l-.011,0L6.288,6.217a.753.753,0,0,1,.7-.486h0a.721.721,0,0,1,.259.051h8.6a4.19,4.19,0,0,1,3.349-3.35V0h1.5V2.432a4.189,4.189,0,0,1,3.349,3.35h8.488a.741.741,0,0,1,.256-.051h0a.757.757,0,0,1,.7.478L39.854,22.5l-.011,0,.017.04a.433.433,0,0,1,.032.088A5.688,5.688,0,0,1,40,23.7c0,3.495-3.184,6.338-7.1,6.338S25.806,27.193,25.806,23.7Zm1.5,0c0,2.665,2.509,4.834,5.594,4.834S38.5,26.363,38.5,23.7c0-.066,0-.124,0-.178H27.314C27.311,23.581,27.309,23.64,27.309,23.7ZM1.5,23.7c0,2.665,2.509,4.834,5.594,4.834s5.594-2.168,5.594-4.834c0-.057,0-.117-.005-.178H1.509C1.506,23.574,1.5,23.637,1.5,23.7Zm26.235-1.681H38.053L32.807,8.582Zm-25.8,0H12.248L7,8.582ZM17.278,6.534a2.669,2.669,0,1,0,2.669-2.669A2.671,2.671,0,0,0,17.278,6.534Z" fill="none"/>
      <path id="Combined_Shape-4" data-name="Combined Shape" d="M6.99,37.831v-1.5H32.9v1.5Zm12.205-3.5V12.863h1.5V34.334ZM25.806,23.7a5.651,5.651,0,0,1,.107-1.069.34.34,0,0,1,.029-.082c.006-.013.012-.026.017-.039l-.011,0L31.69,7.286H24.048a4.169,4.169,0,0,1-8.2,0H8.111L14.05,22.5l-.011,0c.005.014.011.026.017.039a.381.381,0,0,1,.032.09A5.7,5.7,0,0,1,14.2,23.7c0,3.495-3.184,6.338-7.1,6.338S0,27.193,0,23.7a5.673,5.673,0,0,1,.108-1.07.361.361,0,0,1,.029-.082c.006-.013.012-.026.017-.039l-.011,0L6.288,6.217a.753.753,0,0,1,.7-.486h0a.721.721,0,0,1,.259.051h8.6a4.19,4.19,0,0,1,3.349-3.35V0h1.5V2.432a4.189,4.189,0,0,1,3.349,3.35h8.488a.741.741,0,0,1,.256-.051h0a.757.757,0,0,1,.7.478L39.854,22.5l-.011,0,.017.04a.433.433,0,0,1,.032.088A5.688,5.688,0,0,1,40,23.7c0,3.495-3.184,6.338-7.1,6.338S25.806,27.193,25.806,23.7Zm1.5,0c0,2.665,2.509,4.834,5.594,4.834S38.5,26.363,38.5,23.7c0-.066,0-.124,0-.178H27.314C27.311,23.581,27.309,23.64,27.309,23.7ZM1.5,23.7c0,2.665,2.509,4.834,5.594,4.834s5.594-2.168,5.594-4.834c0-.057,0-.117-.005-.178H1.509C1.506,23.574,1.5,23.637,1.5,23.7Zm26.235-1.681H38.053L32.807,8.582Zm-25.8,0H12.248L7,8.582ZM17.278,6.534a2.669,2.669,0,1,0,2.669-2.669A2.671,2.671,0,0,0,17.278,6.534Z" fill="none"/>
      <path id="Combined_Shape-5" data-name="Combined Shape" d="M6.99,37.831v-1.5H32.9v1.5Zm12.205-3.5V12.863h1.5V34.334ZM25.806,23.7a5.651,5.651,0,0,1,.107-1.069.34.34,0,0,1,.029-.082c.006-.013.012-.026.017-.039l-.011,0L31.69,7.286H24.048a4.169,4.169,0,0,1-8.2,0H8.111L14.05,22.5l-.011,0c.005.014.011.026.017.039a.381.381,0,0,1,.032.09A5.7,5.7,0,0,1,14.2,23.7c0,3.495-3.184,6.338-7.1,6.338S0,27.193,0,23.7a5.673,5.673,0,0,1,.108-1.07.361.361,0,0,1,.029-.082c.006-.013.012-.026.017-.039l-.011,0L6.288,6.217a.753.753,0,0,1,.7-.486h0a.721.721,0,0,1,.259.051h8.6a4.19,4.19,0,0,1,3.349-3.35V0h1.5V2.432a4.189,4.189,0,0,1,3.349,3.35h8.488a.741.741,0,0,1,.256-.051h0a.757.757,0,0,1,.7.478L39.854,22.5l-.011,0,.017.04a.433.433,0,0,1,.032.088A5.688,5.688,0,0,1,40,23.7c0,3.495-3.184,6.338-7.1,6.338S25.806,27.193,25.806,23.7Zm1.5,0c0,2.665,2.509,4.834,5.594,4.834S38.5,26.363,38.5,23.7c0-.066,0-.124,0-.178H27.314C27.311,23.581,27.309,23.64,27.309,23.7ZM1.5,23.7c0,2.665,2.509,4.834,5.594,4.834s5.594-2.168,5.594-4.834c0-.057,0-.117-.005-.178H1.509C1.506,23.574,1.5,23.637,1.5,23.7Zm26.235-1.681H38.053L32.807,8.582Zm-25.8,0H12.248L7,8.582ZM17.278,6.534a2.669,2.669,0,1,0,2.669-2.669A2.671,2.671,0,0,0,17.278,6.534Z" fill="none"/>
      <path id="Combined_Shape-6" data-name="Combined Shape" d="M6.99,37.831v-1.5H32.9v1.5Zm12.205-3.5V12.863h1.5V34.334ZM25.806,23.7a5.651,5.651,0,0,1,.107-1.069.34.34,0,0,1,.029-.082c.006-.013.012-.026.017-.039l-.011,0L31.69,7.286H24.048a4.169,4.169,0,0,1-8.2,0H8.111L14.05,22.5l-.011,0c.005.014.011.026.017.039a.381.381,0,0,1,.032.09A5.7,5.7,0,0,1,14.2,23.7c0,3.495-3.184,6.338-7.1,6.338S0,27.193,0,23.7a5.673,5.673,0,0,1,.108-1.07.361.361,0,0,1,.029-.082c.006-.013.012-.026.017-.039l-.011,0L6.288,6.217a.753.753,0,0,1,.7-.486h0a.721.721,0,0,1,.259.051h8.6a4.19,4.19,0,0,1,3.349-3.35V0h1.5V2.432a4.189,4.189,0,0,1,3.349,3.35h8.488a.741.741,0,0,1,.256-.051h0a.757.757,0,0,1,.7.478L39.854,22.5l-.011,0,.017.04a.433.433,0,0,1,.032.088A5.688,5.688,0,0,1,40,23.7c0,3.495-3.184,6.338-7.1,6.338S25.806,27.193,25.806,23.7Zm1.5,0c0,2.665,2.509,4.834,5.594,4.834S38.5,26.363,38.5,23.7c0-.066,0-.124,0-.178H27.314C27.311,23.581,27.309,23.64,27.309,23.7ZM1.5,23.7c0,2.665,2.509,4.834,5.594,4.834s5.594-2.168,5.594-4.834c0-.057,0-.117-.005-.178H1.509C1.506,23.574,1.5,23.637,1.5,23.7Zm26.235-1.681H38.053L32.807,8.582Zm-25.8,0H12.248L7,8.582ZM17.278,6.534a2.669,2.669,0,1,0,2.669-2.669A2.671,2.671,0,0,0,17.278,6.534Z" fill="none"/>
      <path id="Combined_Shape-7" data-name="Combined Shape" d="M6.99,37.831v-1.5H32.9v1.5Zm12.205-3.5V12.863h1.5V34.334ZM25.806,23.7a5.651,5.651,0,0,1,.107-1.069.34.34,0,0,1,.029-.082c.006-.013.012-.026.017-.039l-.011,0L31.69,7.286H24.048a4.169,4.169,0,0,1-8.2,0H8.111L14.05,22.5l-.011,0c.005.014.011.026.017.039a.381.381,0,0,1,.032.09A5.7,5.7,0,0,1,14.2,23.7c0,3.495-3.184,6.338-7.1,6.338S0,27.193,0,23.7a5.673,5.673,0,0,1,.108-1.07.361.361,0,0,1,.029-.082c.006-.013.012-.026.017-.039l-.011,0L6.288,6.217a.753.753,0,0,1,.7-.486h0a.721.721,0,0,1,.259.051h8.6a4.19,4.19,0,0,1,3.349-3.35V0h1.5V2.432a4.189,4.189,0,0,1,3.349,3.35h8.488a.741.741,0,0,1,.256-.051h0a.757.757,0,0,1,.7.478L39.854,22.5l-.011,0,.017.04a.433.433,0,0,1,.032.088A5.688,5.688,0,0,1,40,23.7c0,3.495-3.184,6.338-7.1,6.338S25.806,27.193,25.806,23.7Zm1.5,0c0,2.665,2.509,4.834,5.594,4.834S38.5,26.363,38.5,23.7c0-.066,0-.124,0-.178H27.314C27.311,23.581,27.309,23.64,27.309,23.7ZM1.5,23.7c0,2.665,2.509,4.834,5.594,4.834s5.594-2.168,5.594-4.834c0-.057,0-.117-.005-.178H1.509C1.506,23.574,1.5,23.637,1.5,23.7Zm26.235-1.681H38.053L32.807,8.582Zm-25.8,0H12.248L7,8.582ZM17.278,6.534a2.669,2.669,0,1,0,2.669-2.669A2.671,2.671,0,0,0,17.278,6.534Z" fill="#006729"/>
    </g>
  </g>
</svg>
