<svg id="Icon_Social_Linkedin_Blue" data-name="Icon/Social/Linkedin/Blue" xmlns="http://www.w3.org/2000/svg" width="40" height="40" viewBox="0 0 40 40">
  <g id="Combined_Shape" data-name="Combined Shape" transform="translate(0 0)">
    <path id="Combined_Shape-2" data-name="Combined Shape" d="M20,40A20,20,0,1,1,40,20,20.022,20.022,0,0,1,20,40ZM12.742,16.924v10.4h3.245v-10.4Zm10.325,2.6a1.743,1.743,0,0,1,1.291.456,2.6,2.6,0,0,1,.514,1.869c0,.044,0,.081,0,.114v5.355h3.26V21.679c0-.041.173-4.1-2.2-4.761a6.177,6.177,0,0,0-1.643-.243,3.523,3.523,0,0,0-3.165,1.714V16.918H18.02v10.4h3.229V21.953a3.012,3.012,0,0,1,.611-1.948A1.6,1.6,0,0,1,23.067,19.526ZM14.377,11.75a1.878,1.878,0,1,0,1.879,1.879A1.88,1.88,0,0,0,14.377,11.75Z" transform="translate(0 0)" fill="none"/>
    <path id="Combined_Shape-3" data-name="Combined Shape" d="M20,40A20,20,0,1,1,40,20,20.022,20.022,0,0,1,20,40ZM12.742,16.924v10.4h3.245v-10.4Zm10.325,2.6a1.743,1.743,0,0,1,1.291.456,2.6,2.6,0,0,1,.514,1.869c0,.044,0,.081,0,.114v5.355h3.26V21.679c0-.041.173-4.1-2.2-4.761a6.177,6.177,0,0,0-1.643-.243,3.523,3.523,0,0,0-3.165,1.714V16.918H18.02v10.4h3.229V21.953a3.012,3.012,0,0,1,.611-1.948A1.6,1.6,0,0,1,23.067,19.526ZM14.377,11.75a1.878,1.878,0,1,0,1.879,1.879A1.88,1.88,0,0,0,14.377,11.75Z" transform="translate(0 0)" fill="none"/>
    <path id="Combined_Shape-4" data-name="Combined Shape" d="M20,40A20,20,0,1,1,40,20,20.022,20.022,0,0,1,20,40ZM12.742,16.924v10.4h3.245v-10.4Zm10.325,2.6a1.743,1.743,0,0,1,1.291.456,2.6,2.6,0,0,1,.514,1.869c0,.044,0,.081,0,.114v5.355h3.26V21.679c0-.041.173-4.1-2.2-4.761a6.177,6.177,0,0,0-1.643-.243,3.523,3.523,0,0,0-3.165,1.714V16.918H18.02v10.4h3.229V21.953a3.012,3.012,0,0,1,.611-1.948A1.6,1.6,0,0,1,23.067,19.526ZM14.377,11.75a1.878,1.878,0,1,0,1.879,1.879A1.88,1.88,0,0,0,14.377,11.75Z" transform="translate(0 0)" fill="none"/>
    <path id="Combined_Shape-5" data-name="Combined Shape" d="M20,40A20,20,0,1,1,40,20,20.022,20.022,0,0,1,20,40ZM12.742,16.924v10.4h3.245v-10.4Zm10.325,2.6a1.743,1.743,0,0,1,1.291.456,2.6,2.6,0,0,1,.514,1.869c0,.044,0,.081,0,.114v5.355h3.26V21.679c0-.041.173-4.1-2.2-4.761a6.177,6.177,0,0,0-1.643-.243,3.523,3.523,0,0,0-3.165,1.714V16.918H18.02v10.4h3.229V21.953a3.012,3.012,0,0,1,.611-1.948A1.6,1.6,0,0,1,23.067,19.526ZM14.377,11.75a1.878,1.878,0,1,0,1.879,1.879A1.88,1.88,0,0,0,14.377,11.75Z" transform="translate(0 0)" fill="none"/>
    <path id="Combined_Shape-6" data-name="Combined Shape" d="M20,40A20,20,0,1,1,40,20,20.022,20.022,0,0,1,20,40ZM12.742,16.924v10.4h3.245v-10.4Zm10.325,2.6a1.743,1.743,0,0,1,1.291.456,2.6,2.6,0,0,1,.514,1.869c0,.044,0,.081,0,.114v5.355h3.26V21.679c0-.041.173-4.1-2.2-4.761a6.177,6.177,0,0,0-1.643-.243,3.523,3.523,0,0,0-3.165,1.714V16.918H18.02v10.4h3.229V21.953a3.012,3.012,0,0,1,.611-1.948A1.6,1.6,0,0,1,23.067,19.526ZM14.377,11.75a1.878,1.878,0,1,0,1.879,1.879A1.88,1.88,0,0,0,14.377,11.75Z" transform="translate(0 0)" fill="none"/>
    <path id="Combined_Shape-7" data-name="Combined Shape" d="M20,40A20,20,0,1,1,40,20,20.022,20.022,0,0,1,20,40ZM12.742,16.924v10.4h3.245v-10.4Zm10.325,2.6a1.743,1.743,0,0,1,1.291.456,2.6,2.6,0,0,1,.514,1.869c0,.044,0,.081,0,.114v5.355h3.26V21.679c0-.041.173-4.1-2.2-4.761a6.177,6.177,0,0,0-1.643-.243,3.523,3.523,0,0,0-3.165,1.714V16.918H18.02v10.4h3.229V21.953a3.012,3.012,0,0,1,.611-1.948A1.6,1.6,0,0,1,23.067,19.526ZM14.377,11.75a1.878,1.878,0,1,0,1.879,1.879A1.88,1.88,0,0,0,14.377,11.75Z" transform="translate(0 0)" fill="#006729"/>
  </g>
</svg>
