<?xml version="1.0" encoding="UTF-8"?>
<svg id="Capa_1" xmlns="http://www.w3.org/2000/svg" version="1.1" viewBox="0 0 446.7 446.7">
  <!-- Generator: Adobe Illustrator 29.1.0, SVG Export Plug-In . SVG Version: 2.1.0 Build 142)  -->
  <g>
    <path d="M332.6,106.5c-8.1,0-14.7-6.6-14.7-14.7,0-8.1,6.6-14.7,14.7-14.7h14.7c6.1,0,9.6-6.9,5.9-11.8-8.7-11.6-23.1-18.8-39-17.5l3.7-.2c-24.4,0-44.2,19.8-44.2,44.2,0,24.4,19.8,44.2,44.2,44.2l-3.7-.2c1.2.1,2.5.2,3.7.2,14.4,0,27.3-6.9,35.3-17.7,3.7-4.9.2-11.8-5.9-11.8h-14.7Z" style="fill: none; stroke: #7ca743; stroke-miterlimit: 10; stroke-width: 14px;"/>
    <path d="M133.8,93.9c-1.2,0-2.2-1-2.2-2.2,0-1.2,1-2.2,2.2-2.2,1.2,0,2.2,1,2.2,2.2,0,1.2-1,2.2-2.2,2.2Z" style="fill: none; stroke: #7ca743; stroke-miterlimit: 10; stroke-width: 14px;"/>
    <path d="M278.7,113.9v-1.6c-3.2-6.2-5.1-13.2-5.1-20.6,0-7.4,1.9-14.4,5.1-20.6v-1.6s-47.3,0-47.3,0v44.4s47.3,0,47.3,0Z" style="fill: none; stroke: #7ca743; stroke-miterlimit: 10; stroke-width: 14px;"/>
    <path d="M200.7,113.9h31.7s0-44.4,0-44.4h-98.6c-12.2,0-22.2,10-22.2,22.2,0,12.2,10,22.2,22.2,22.2h69.5" style="fill: none; stroke: #7ca743; stroke-miterlimit: 10; stroke-width: 14px;"/>
  </g>
  <g>
    <path d="M321.6,261.8l22.5-19.9-25.1-57c-5.6-14.3-16.5-19.2-29.2-19.2h-132.9c-12.7,0-23.6,4.9-29.2,19.2l-25.1,57,22.5,19.9h196.5Z" style="fill: none; stroke: #7ca743; stroke-miterlimit: 10; stroke-width: 18px;"/>
    <polyline points="111.6 249.8 83.2 225 50.5 225" style="fill: none; stroke: #7ca743; stroke-miterlimit: 10; stroke-width: 18px;"/>
    <polyline points="335.2 249.8 363.5 225 396.2 225" style="fill: none; stroke: #7ca743; stroke-miterlimit: 10; stroke-width: 18px;"/>
    <path d="M344.1,241.9l20.8,17.5c8.2,6.9,13,17.1,13,27.9v54.8c0,10.7-8.7,19.5-19.5,19.5H88.3c-10.7,0-19.5-8.7-19.5-19.5v-54.8c0-10.8,4.7-21,13-27.9l20.8-17.5" style="fill: none; stroke: #7ca743; stroke-miterlimit: 10; stroke-width: 18px;"/>
    <line x1="165.5" y1="334.8" x2="285.3" y2="334.8" style="fill: none; stroke: #7ca743; stroke-miterlimit: 10; stroke-width: 18px;"/>
    <path d="M91.4,279s6.7,20.7,27.4,20.7h49.9" style="fill: none; stroke: #7ca743; stroke-miterlimit: 10; stroke-width: 18px;"/>
    <path d="M355.4,279s-6.7,20.7-27.4,20.7h-31.5" style="fill: none; stroke: #7ca743; stroke-miterlimit: 10; stroke-width: 18px;"/>
    <path d="M82,361.6v26.8c0,6,4.9,10.9,10.9,10.9h29.2c6,0,10.9-4.9,10.9-10.9v-26.8" style="fill: none; stroke: #7ca743; stroke-miterlimit: 10; stroke-width: 18px;"/>
    <path d="M366,361.6v26.8c0,6-4.9,10.9-10.9,10.9h-29.2c-6,0-10.9-4.9-10.9-10.9v-26.8" style="fill: none; stroke: #7ca743; stroke-miterlimit: 10; stroke-width: 18px;"/>
    <g>
      <rect x="267.4" y="291.1" width="17" height="17" transform="translate(575.5 23.8) rotate(90)" style="fill: #cb2c24;"/>
      <rect x="284.3" y="293.5" width="12.1" height="12.1" transform="translate(590 9.2) rotate(90)" style="fill: none;"/>
      <rect x="255.2" y="293.7" width="12.1" height="12.1" transform="translate(561.1 38.4) rotate(90)" style="fill: none;"/>
    </g>
  </g>
</svg>