<?xml version="1.0" encoding="utf-8"?>
<!-- Generator: Adobe Illustrator 22.1.0, SVG Export Plug-In . SVG Version: 6.00 Build 0)  -->
<svg width="44px" height="49px" version="1.1" id="Capa_1" xmlns="http://www.w3.org/2000/svg" xmlns:xlink="http://www.w3.org/1999/xlink" x="0px" y="0px"
	 viewBox="0 0 39 46" style="enable-background:new 0 0 39 46;" xml:space="preserve">
<style type="text/css">
	.st0{fill:#28A3AF;stroke:#28A3AF;stroke-width:2;}
</style>
<title>Fill 1</title>
<desc>Created with Sketch.</desc>
<g id="DSK-Buscador-sucursales">
	<g id="Detalle-modal-prop-2" transform="translate(-557.000000, -318.000000)">
		<g id="Group-7" transform="translate(-18.000000, -3.000000)">
			<g id="label" transform="translate(550.000000, 279.000000)">
				<path id="Fill-1" class="st0" d="M61.9,49.2l0-0.2c-0.7-2.8-2.2-4.3-5-4.9l-0.3-0.1c-6.7-1.4-17.4-1.4-24.1,0l-0.3,0.1
					c-2.8,0.6-4.4,2-5,4.8l-0.1,0.2c-1.5,6.4-1.5,16.8,0,23.2l0.1,0.2c0.6,2.8,2.2,4.3,5,4.9l0.3,0.1c1.6,0.3,3.5,0.6,5.4,0.8
					l4.8,6.7l0.5,0.8c0.7,0.8,1.9,0.8,2.6,0l0.5-0.8l4.8-6.7c2-0.2,3.8-0.4,5.4-0.8l0.3-0.1c2.8-0.6,4.4-2.1,5-4.9l0-0.2
					C63.4,66,63.4,55.6,61.9,49.2"/>
			</g>
		</g>
	</g>
</g>
</svg>
