<?xml version="1.0" encoding="UTF-8"?>
<svg id="objects" xmlns="http://www.w3.org/2000/svg" viewBox="0 0 100 100">
  <path d="M100,50c0,27.61-22.39,50-50,50h0C22.39,100,0,77.61,0,50h0C0,22.39,22.39,0,50,0h0c27.61,0,50,22.39,50,50h0Z" fill="#005d28"/>
  <path d="M63.03,22.15h-27.13c-6.99,0-12.66,5.67-12.66,12.66v27.13c0,6.99,5.67,12.66,12.66,12.66h27.13c6.99,0,12.66-5.67,12.66-12.66v-27.13c0-6.99-5.67-12.66-12.66-12.66ZM71.17,61.03c0,4.99-4.05,9.04-9.04,9.04h-25.32c-4.99,0-9.04-4.05-9.04-9.04v-25.32c0-4.99,4.05-9.04,9.04-9.04h25.32c4.99,0,9.04,4.05,9.04,9.04v25.32Z" fill="#fff"/>
  <path d="M49.49,34.81c-7.49,0-13.57,6.08-13.57,13.57s6.08,13.57,13.57,13.57,13.57-6.08,13.57-13.57-6.08-13.57-13.57-13.57ZM49.49,57.42c-4.98,0-9.04-4.06-9.04-9.04s4.06-9.04,9.04-9.04,9.04,4.06,9.04,9.04-4.06,9.04-9.04,9.04Z" fill="#fff"/>
  <circle cx="63.96" cy="33.9" r="2.71" fill="#fff"/>
</svg>