<svg id="Icon_Social_Facebook_Blue" data-name="Icon/Social/Facebook/Blue" xmlns="http://www.w3.org/2000/svg" width="40" height="40" viewBox="0 0 40 40">
  <g id="Combined_Shape" data-name="Combined Shape" transform="translate(0 0)">
    <path id="Combined_Shape-2" data-name="Combined Shape" d="M20,40A20,20,0,1,1,40,20,20.022,20.022,0,0,1,20,40ZM15,17.523V20.9h2.961v8.773H21.5V20.921h2.921l.425-3.4H21.512V15.286a1.732,1.732,0,0,1,.342-1.171,1.736,1.736,0,0,1,1.174-.419h1.931V10.642c-.889-.077-1.686-.143-2.4-.143a4.369,4.369,0,0,0-3.378,1.142,4.42,4.42,0,0,0-1.233,3.146v2.736Z" transform="translate(0 0)" fill="none"/>
    <path id="Combined_Shape-3" data-name="Combined Shape" d="M20,40A20,20,0,1,1,40,20,20.022,20.022,0,0,1,20,40ZM15,17.523V20.9h2.961v8.773H21.5V20.921h2.921l.425-3.4H21.512V15.286a1.732,1.732,0,0,1,.342-1.171,1.736,1.736,0,0,1,1.174-.419h1.931V10.642c-.889-.077-1.686-.143-2.4-.143a4.369,4.369,0,0,0-3.378,1.142,4.42,4.42,0,0,0-1.233,3.146v2.736Z" transform="translate(0 0)" fill="none"/>
    <path id="Combined_Shape-4" data-name="Combined Shape" d="M20,40A20,20,0,1,1,40,20,20.022,20.022,0,0,1,20,40ZM15,17.523V20.9h2.961v8.773H21.5V20.921h2.921l.425-3.4H21.512V15.286a1.732,1.732,0,0,1,.342-1.171,1.736,1.736,0,0,1,1.174-.419h1.931V10.642c-.889-.077-1.686-.143-2.4-.143a4.369,4.369,0,0,0-3.378,1.142,4.42,4.42,0,0,0-1.233,3.146v2.736Z" transform="translate(0 0)" fill="none"/>
    <path id="Combined_Shape-5" data-name="Combined Shape" d="M20,40A20,20,0,1,1,40,20,20.022,20.022,0,0,1,20,40ZM15,17.523V20.9h2.961v8.773H21.5V20.921h2.921l.425-3.4H21.512V15.286a1.732,1.732,0,0,1,.342-1.171,1.736,1.736,0,0,1,1.174-.419h1.931V10.642c-.889-.077-1.686-.143-2.4-.143a4.369,4.369,0,0,0-3.378,1.142,4.42,4.42,0,0,0-1.233,3.146v2.736Z" transform="translate(0 0)" fill="none"/>
    <path id="Combined_Shape-6" data-name="Combined Shape" d="M20,40A20,20,0,1,1,40,20,20.022,20.022,0,0,1,20,40ZM15,17.523V20.9h2.961v8.773H21.5V20.921h2.921l.425-3.4H21.512V15.286a1.732,1.732,0,0,1,.342-1.171,1.736,1.736,0,0,1,1.174-.419h1.931V10.642c-.889-.077-1.686-.143-2.4-.143a4.369,4.369,0,0,0-3.378,1.142,4.42,4.42,0,0,0-1.233,3.146v2.736Z" transform="translate(0 0)" fill="none"/>
    <path id="Combined_Shape-7" data-name="Combined Shape" d="M20,40A20,20,0,1,1,40,20,20.022,20.022,0,0,1,20,40ZM15,17.523V20.9h2.961v8.773H21.5V20.921h2.921l.425-3.4H21.512V15.286a1.732,1.732,0,0,1,.342-1.171,1.736,1.736,0,0,1,1.174-.419h1.931V10.642c-.889-.077-1.686-.143-2.4-.143a4.369,4.369,0,0,0-3.378,1.142,4.42,4.42,0,0,0-1.233,3.146v2.736Z" transform="translate(0 0)" fill="#006729"/>
  </g>
</svg>
