<svg id="Capa_1" data-name="Capa 1" xmlns="http://www.w3.org/2000/svg" viewBox="0 0 40 40"><defs><style>.cls-1,.cls-2{fill:#65a518;}.cls-1{fill-rule:evenodd;}</style></defs><title>Question circle</title><path class="cls-1" d="M20,0A20,20,0,0,0,0,20c0,.41,0,.81,0,1.22H2.35c0-.41,0-.81,0-1.22a17.69,17.69,0,1,1,.39,3.69H.35A20,20,0,1,0,20,0Z"></path><path class="cls-1" d="M25.57,15.78a6,6,0,0,0-11.92,0H16a3.65,3.65,0,1,1,3.65,3.65,1.16,1.16,0,0,0-1.16,1.15v5h2.31V21.63A6,6,0,0,0,25.57,15.78Z"></path><circle class="cls-2" cx="19.65" cy="28.63" r="1.44"></circle></svg>
