<svg xmlns="http://www.w3.org/2000/svg" width="24" height="24" viewBox="0 0 24 24">
  <g id="Grupo_30072" data-name="Grupo 30072" transform="translate(24482 20511.5)">
    <path id="Trazado_16143" data-name="Trazado 16143" d="M0,0H24V24H0Z" transform="translate(-24482 -20511.5)" fill="none"/>
    <g id="Localización" transform="translate(-24478.727 -20511.5)">
      <g id="Grupo_30028" data-name="Grupo 30028" transform="translate(0 0)">
        <path id="Trazado_16128" data-name="Trazado 16128" d="M9.083,5.823a3.066,3.066,0,1,0,3.066,3.066A3.047,3.047,0,0,0,9.083,5.823Zm0,4.817A1.729,1.729,0,0,1,7.331,8.889,1.7,1.7,0,0,1,9.083,7.137a1.7,1.7,0,0,1,1.752,1.752A1.756,1.756,0,0,1,9.083,10.64Z" transform="translate(-0.586 -0.567)" fill="#006729"/>
        <path id="Trazado_16129" data-name="Trazado 16129" d="M14.322,2.452A8.316,8.316,0,0,0,8.409,0,8.492,8.492,0,0,0,2.453,2.452a9.617,9.617,0,0,0-.789,11.825L8.409,24l6.7-9.722A9.555,9.555,0,0,0,14.322,2.452Zm-.307,11.168-5.606,8.1-5.65-8.1A8.172,8.172,0,0,1,3.416,3.591a6.978,6.978,0,0,1,9.9,0A8.055,8.055,0,0,1,14.015,13.621Z" transform="translate(0)" fill="#006729"/>
      </g>
    </g>
  </g>
</svg>
