<svg id="Grupo_28740" data-name="Grupo 28740" xmlns="http://www.w3.org/2000/svg" xmlns:xlink="http://www.w3.org/1999/xlink" width="19.076" height="19" viewBox="0 0 19.076 19">
  <defs>
    <clipPath id="clip-path">
      <rect id="Rectángulo_6797" data-name="Rectángulo 6797" width="19.077" height="19" fill="#006729"/>
    </clipPath>
  </defs>
  <g id="Grupo_28741" data-name="Grupo 28741" transform="translate(0 0)" clip-path="url(#clip-path)">
    <path id="Trazado_15800" data-name="Trazado 15800" d="M9.82,4.57a.455.455,0,1,0,.455.455A.455.455,0,0,0,9.82,4.57" transform="translate(-0.285 -0.139)" fill="#006729"/>
    <path id="Trazado_15801" data-name="Trazado 15801" d="M9.91,1.5V.373a.373.373,0,1,0-.746,0V1.5C4.615,1.643.663,4.418.077,8.872A1.344,1.344,0,0,0,0,9.318a.371.371,0,0,0,.369.372H.4a.374.374,0,0,0,.371-.341c.008-.1.018-.2.029-.29A2.075,2.075,0,0,1,2.664,8.2c1.022,0,1.918.523,1.92,1.119a.372.372,0,0,0,.371.371h.026l.012,0a.373.373,0,0,0,.335-.364l0-.092C5.412,8.669,6.284,8.2,7.245,8.2c1.022,0,1.919.522,1.918,1.116l0,3.8H8.793a.37.37,0,0,0-.372.368v2.986a.372.372,0,1,1-.745,0,1.118,1.118,0,0,0-2.237,0,2.608,2.608,0,0,0,5.215,0V13.489a.373.373,0,0,0-.372-.373H9.907l0-3.8c0-.6.9-1.119,1.919-1.119.96,0,1.834.475,1.914,1.034,0,.03,0,.062,0,.092a.374.374,0,0,0,.337.365l.04,0a.371.371,0,0,0,.372-.369v0c0-.6.9-1.119,1.919-1.117a2.07,2.07,0,0,1,1.861.858c.011.093.021.191.029.29a.374.374,0,0,0,.371.342H18.7a.372.372,0,0,0,.372-.372A1.344,1.344,0,0,0,19,8.87C18.415,4.421,14.469,1.643,9.914,1.5ZM4.662,8.087a3.239,3.239,0,0,0-2-.632,3.506,3.506,0,0,0-1.608.374,7.921,7.921,0,0,1,5.977-5.3A8.8,8.8,0,0,0,4.663,8.088Zm5.25,8.384a1.865,1.865,0,0,1-3.729,0,.372.372,0,1,1,.745,0,1.118,1.118,0,0,0,2.235,0V13.869h.747Zm3.658-8.564a3.424,3.424,0,0,0-1.74-.454,3.3,3.3,0,0,0-1.918.573V6.336a.373.373,0,1,0-.747,0v1.69a3.3,3.3,0,0,0-1.92-.573,3.434,3.434,0,0,0-1.74.454l-.076.048c.388-3.162,1.853-5.428,3.737-5.692v1.1a.372.372,0,1,0,.745.01V3.36l0-1.094c1.885.264,3.35,2.528,3.736,5.691l-.078-.048Zm2.841-.451a3.237,3.237,0,0,0-2,.634A8.814,8.814,0,0,0,12.041,2.53a7.922,7.922,0,0,1,5.975,5.3,3.475,3.475,0,0,0-1.608-.373Z" transform="translate(0 0)" fill="#006729"/>
  </g>
</svg>
