<svg xmlns="http://www.w3.org/2000/svg" width="24.506" height="16" viewBox="0 0 24.506 16">
  <g id="Grupo_28738" data-name="Grupo 28738" transform="translate(20746.449 3196.534)">
    <g id="Icon_Account_Experience_Credit_Card_64px" data-name="Icon/Account Experience/Credit Card/64px" transform="translate(-20747 -3208)">
      <g id="Combined_Shape" data-name="Combined Shape" transform="translate(0.551 11.466)">
        <path id="Combined_Shape-2" data-name="Combined Shape" d="M1.666,16A1.668,1.668,0,0,1,0,14.334V1.666A1.668,1.668,0,0,1,1.666,0H22.839a1.668,1.668,0,0,1,1.667,1.666V13.66h-.974V5.737H.974v8.6a.693.693,0,0,0,.692.692H22.839l.054,0h1.463A1.672,1.672,0,0,1,22.839,16ZM23.531,4.374V1.666a.693.693,0,0,0-.693-.692H1.666a.693.693,0,0,0-.692.692V4.374Zm-9.174,6.454V9.853H18.61v.974Zm-11.413,0V9.853h9.621v.974Z" fill="none"/>
        <path id="Combined_Shape-3" data-name="Combined Shape" d="M1.666,16A1.668,1.668,0,0,1,0,14.334V1.666A1.668,1.668,0,0,1,1.666,0H22.839a1.668,1.668,0,0,1,1.667,1.666V13.66h-.974V5.737H.974v8.6a.693.693,0,0,0,.692.692H22.839l.054,0h1.463A1.672,1.672,0,0,1,22.839,16ZM23.531,4.374V1.666a.693.693,0,0,0-.693-.692H1.666a.693.693,0,0,0-.692.692V4.374Zm-9.174,6.454V9.853H18.61v.974Zm-11.413,0V9.853h9.621v.974Z" fill="none"/>
        <path id="Combined_Shape-4" data-name="Combined Shape" d="M1.666,16A1.668,1.668,0,0,1,0,14.334V1.666A1.668,1.668,0,0,1,1.666,0H22.839a1.668,1.668,0,0,1,1.667,1.666V13.66h-.974V5.737H.974v8.6a.693.693,0,0,0,.692.692H22.839l.054,0h1.463A1.672,1.672,0,0,1,22.839,16ZM23.531,4.374V1.666a.693.693,0,0,0-.693-.692H1.666a.693.693,0,0,0-.692.692V4.374Zm-9.174,6.454V9.853H18.61v.974Zm-11.413,0V9.853h9.621v.974Z" fill="none"/>
        <path id="Combined_Shape-5" data-name="Combined Shape" d="M1.666,16A1.668,1.668,0,0,1,0,14.334V1.666A1.668,1.668,0,0,1,1.666,0H22.839a1.668,1.668,0,0,1,1.667,1.666V13.66h-.974V5.737H.974v8.6a.693.693,0,0,0,.692.692H22.839l.054,0h1.463A1.672,1.672,0,0,1,22.839,16ZM23.531,4.374V1.666a.693.693,0,0,0-.693-.692H1.666a.693.693,0,0,0-.692.692V4.374Zm-9.174,6.454V9.853H18.61v.974Zm-11.413,0V9.853h9.621v.974Z" fill="none"/>
        <path id="Combined_Shape-6" data-name="Combined Shape" d="M1.666,16A1.668,1.668,0,0,1,0,14.334V1.666A1.668,1.668,0,0,1,1.666,0H22.839a1.668,1.668,0,0,1,1.667,1.666V13.66h-.974V5.737H.974v8.6a.693.693,0,0,0,.692.692H22.839l.054,0h1.463A1.672,1.672,0,0,1,22.839,16ZM23.531,4.374V1.666a.693.693,0,0,0-.693-.692H1.666a.693.693,0,0,0-.692.692V4.374Zm-9.174,6.454V9.853H18.61v.974Zm-11.413,0V9.853h9.621v.974Z" fill="none"/>
        <path id="Combined_Shape-7" data-name="Combined Shape" d="M1.666,16A1.668,1.668,0,0,1,0,14.334V1.666A1.668,1.668,0,0,1,1.666,0H22.839a1.668,1.668,0,0,1,1.667,1.666V13.66h-.974V5.737H.974v8.6a.693.693,0,0,0,.692.692H22.839l.054,0h1.463A1.672,1.672,0,0,1,22.839,16ZM23.531,4.374V1.666a.693.693,0,0,0-.693-.692H1.666a.693.693,0,0,0-.692.692V4.374Zm-9.174,6.454V9.853H18.61v.974Zm-11.413,0V9.853h9.621v.974Z" fill="#006729"/>
      </g>
    </g>
  </g>
</svg>
