<svg xmlns="http://www.w3.org/2000/svg" width="32" height="32" viewBox="0 0 32 32">
  <g id="Grupo_28743" data-name="Grupo 28743" transform="translate(20529 3461)">
    <g id="Grupo_28729" data-name="Grupo 28729" transform="translate(-20529 -3461)">
      <g id="Elipse_422" data-name="Elipse 422" fill="#fff" stroke="#65a518" stroke-width="1">
        <circle cx="16" cy="16" r="16" stroke="none"/>
        <circle cx="16" cy="16" r="15.5" fill="none"/>
      </g>
      <g id="Grupo_28723" data-name="Grupo 28723" transform="translate(8.137 8)">
        <g id="Icon_Account_Experience_Phone_32px" data-name="Icon/Account Experience/Phone/32px" transform="translate(1.664 2.067)">
          <g id="Fill_1" data-name="Fill 1" transform="translate(0 0)">
            <path id="Fill_1-2" data-name="Fill 1" d="M3.172,13.933c.081,0,.163,0,.248-.007a13.885,13.885,0,0,0,7.222-3.543,12.216,12.216,0,0,0,3.4-6.707,2.542,2.542,0,0,0-.775-2.355C12.763.892,11.629.036,11.581,0l-.4.531c.012.008,1.167.879,1.655,1.3a1.837,1.837,0,0,1,.544,1.79,11.657,11.657,0,0,1-3.2,6.285,13.343,13.343,0,0,1-6.8,3.361A3.06,3.06,0,0,1,.991,12.41c-.232-.241-.33-.406-.326-.549a1.062,1.062,0,0,1,.406-.625c.421-.4,1.506-1.472,1.832-1.8a.75.75,0,0,1,.508-.256.779.779,0,0,1,.526.281c.1.105.19.191.269.27.171.17.31.308.535.562.587.66,1.187.758,1.784.292.628-.49,3.2-3,3.57-3.367.489-.484,1.16-1.146.486-1.844-.237-.246-.545-.508-.843-.762-.233-.2-.454-.387-.6-.53A.364.364,0,0,1,9.1,3.53c.325-.4,1.727-1.791,1.741-1.805l-.468-.471c-.059.058-1.442,1.431-1.789,1.858a1.019,1.019,0,0,0,.091,1.44c.162.164.393.361.638.57.286.243.581.5.8.718.145.15.217.225-.476.91-.586.58-2.956,2.883-3.511,3.316-.272.212-.481.237-.878-.21-.238-.268-.384-.412-.564-.592C4.6,9.186,4.513,9.1,4.411,9a1.407,1.407,0,0,0-1-.48,1.377,1.377,0,0,0-.981.45c-.325.324-1.4,1.392-1.82,1.785A1.6,1.6,0,0,0,0,11.845,1.469,1.469,0,0,0,.513,12.87a3.706,3.706,0,0,0,2.659,1.063" transform="translate(0)" fill="none" stroke="#006729" stroke-width="0.1"/>
            <path id="Fill_1-3" data-name="Fill 1" d="M3.172,13.933c.081,0,.163,0,.248-.007a13.885,13.885,0,0,0,7.222-3.543,12.216,12.216,0,0,0,3.4-6.707,2.542,2.542,0,0,0-.775-2.355C12.763.892,11.629.036,11.581,0l-.4.531c.012.008,1.167.879,1.655,1.3a1.837,1.837,0,0,1,.544,1.79,11.657,11.657,0,0,1-3.2,6.285,13.343,13.343,0,0,1-6.8,3.361A3.06,3.06,0,0,1,.991,12.41c-.232-.241-.33-.406-.326-.549a1.062,1.062,0,0,1,.406-.625c.421-.4,1.506-1.472,1.832-1.8a.75.75,0,0,1,.508-.256.779.779,0,0,1,.526.281c.1.105.19.191.269.27.171.17.31.308.535.562.587.66,1.187.758,1.784.292.628-.49,3.2-3,3.57-3.367.489-.484,1.16-1.146.486-1.844-.237-.246-.545-.508-.843-.762-.233-.2-.454-.387-.6-.53A.364.364,0,0,1,9.1,3.53c.325-.4,1.727-1.791,1.741-1.805l-.468-.471c-.059.058-1.442,1.431-1.789,1.858a1.019,1.019,0,0,0,.091,1.44c.162.164.393.361.638.57.286.243.581.5.8.718.145.15.217.225-.476.91-.586.58-2.956,2.883-3.511,3.316-.272.212-.481.237-.878-.21-.238-.268-.384-.412-.564-.592C4.6,9.186,4.513,9.1,4.411,9a1.407,1.407,0,0,0-1-.48,1.377,1.377,0,0,0-.981.45c-.325.324-1.4,1.392-1.82,1.785A1.6,1.6,0,0,0,0,11.845,1.469,1.469,0,0,0,.513,12.87a3.706,3.706,0,0,0,2.659,1.063" transform="translate(0)" fill="none" stroke="#006729" stroke-width="0.1"/>
            <path id="Fill_1-4" data-name="Fill 1" d="M3.172,13.933c.081,0,.163,0,.248-.007a13.885,13.885,0,0,0,7.222-3.543,12.216,12.216,0,0,0,3.4-6.707,2.542,2.542,0,0,0-.775-2.355C12.763.892,11.629.036,11.581,0l-.4.531c.012.008,1.167.879,1.655,1.3a1.837,1.837,0,0,1,.544,1.79,11.657,11.657,0,0,1-3.2,6.285,13.343,13.343,0,0,1-6.8,3.361A3.06,3.06,0,0,1,.991,12.41c-.232-.241-.33-.406-.326-.549a1.062,1.062,0,0,1,.406-.625c.421-.4,1.506-1.472,1.832-1.8a.75.75,0,0,1,.508-.256.779.779,0,0,1,.526.281c.1.105.19.191.269.27.171.17.31.308.535.562.587.66,1.187.758,1.784.292.628-.49,3.2-3,3.57-3.367.489-.484,1.16-1.146.486-1.844-.237-.246-.545-.508-.843-.762-.233-.2-.454-.387-.6-.53A.364.364,0,0,1,9.1,3.53c.325-.4,1.727-1.791,1.741-1.805l-.468-.471c-.059.058-1.442,1.431-1.789,1.858a1.019,1.019,0,0,0,.091,1.44c.162.164.393.361.638.57.286.243.581.5.8.718.145.15.217.225-.476.91-.586.58-2.956,2.883-3.511,3.316-.272.212-.481.237-.878-.21-.238-.268-.384-.412-.564-.592C4.6,9.186,4.513,9.1,4.411,9a1.407,1.407,0,0,0-1-.48,1.377,1.377,0,0,0-.981.45c-.325.324-1.4,1.392-1.82,1.785A1.6,1.6,0,0,0,0,11.845,1.469,1.469,0,0,0,.513,12.87a3.706,3.706,0,0,0,2.659,1.063" transform="translate(0)" fill="none" stroke="#006729" stroke-width="0.1"/>
            <path id="Fill_1-5" data-name="Fill 1" d="M3.172,13.933c.081,0,.163,0,.248-.007a13.885,13.885,0,0,0,7.222-3.543,12.216,12.216,0,0,0,3.4-6.707,2.542,2.542,0,0,0-.775-2.355C12.763.892,11.629.036,11.581,0l-.4.531c.012.008,1.167.879,1.655,1.3a1.837,1.837,0,0,1,.544,1.79,11.657,11.657,0,0,1-3.2,6.285,13.343,13.343,0,0,1-6.8,3.361A3.06,3.06,0,0,1,.991,12.41c-.232-.241-.33-.406-.326-.549a1.062,1.062,0,0,1,.406-.625c.421-.4,1.506-1.472,1.832-1.8a.75.75,0,0,1,.508-.256.779.779,0,0,1,.526.281c.1.105.19.191.269.27.171.17.31.308.535.562.587.66,1.187.758,1.784.292.628-.49,3.2-3,3.57-3.367.489-.484,1.16-1.146.486-1.844-.237-.246-.545-.508-.843-.762-.233-.2-.454-.387-.6-.53A.364.364,0,0,1,9.1,3.53c.325-.4,1.727-1.791,1.741-1.805l-.468-.471c-.059.058-1.442,1.431-1.789,1.858a1.019,1.019,0,0,0,.091,1.44c.162.164.393.361.638.57.286.243.581.5.8.718.145.15.217.225-.476.91-.586.58-2.956,2.883-3.511,3.316-.272.212-.481.237-.878-.21-.238-.268-.384-.412-.564-.592C4.6,9.186,4.513,9.1,4.411,9a1.407,1.407,0,0,0-1-.48,1.377,1.377,0,0,0-.981.45c-.325.324-1.4,1.392-1.82,1.785A1.6,1.6,0,0,0,0,11.845,1.469,1.469,0,0,0,.513,12.87a3.706,3.706,0,0,0,2.659,1.063" transform="translate(0)" fill="none" stroke="#006729" stroke-width="0.1"/>
            <path id="Fill_1-6" data-name="Fill 1" d="M3.172,13.933c.081,0,.163,0,.248-.007a13.885,13.885,0,0,0,7.222-3.543,12.216,12.216,0,0,0,3.4-6.707,2.542,2.542,0,0,0-.775-2.355C12.763.892,11.629.036,11.581,0l-.4.531c.012.008,1.167.879,1.655,1.3a1.837,1.837,0,0,1,.544,1.79,11.657,11.657,0,0,1-3.2,6.285,13.343,13.343,0,0,1-6.8,3.361A3.06,3.06,0,0,1,.991,12.41c-.232-.241-.33-.406-.326-.549a1.062,1.062,0,0,1,.406-.625c.421-.4,1.506-1.472,1.832-1.8a.75.75,0,0,1,.508-.256.779.779,0,0,1,.526.281c.1.105.19.191.269.27.171.17.31.308.535.562.587.66,1.187.758,1.784.292.628-.49,3.2-3,3.57-3.367.489-.484,1.16-1.146.486-1.844-.237-.246-.545-.508-.843-.762-.233-.2-.454-.387-.6-.53A.364.364,0,0,1,9.1,3.53c.325-.4,1.727-1.791,1.741-1.805l-.468-.471c-.059.058-1.442,1.431-1.789,1.858a1.019,1.019,0,0,0,.091,1.44c.162.164.393.361.638.57.286.243.581.5.8.718.145.15.217.225-.476.91-.586.58-2.956,2.883-3.511,3.316-.272.212-.481.237-.878-.21-.238-.268-.384-.412-.564-.592C4.6,9.186,4.513,9.1,4.411,9a1.407,1.407,0,0,0-1-.48,1.377,1.377,0,0,0-.981.45c-.325.324-1.4,1.392-1.82,1.785A1.6,1.6,0,0,0,0,11.845,1.469,1.469,0,0,0,.513,12.87a3.706,3.706,0,0,0,2.659,1.063" transform="translate(0)" fill="none" stroke="#006729" stroke-width="0.1"/>
            <path id="Fill_1-7" data-name="Fill 1" d="M3.172,13.933c.081,0,.163,0,.248-.007a13.885,13.885,0,0,0,7.222-3.543,12.216,12.216,0,0,0,3.4-6.707,2.542,2.542,0,0,0-.775-2.355C12.763.892,11.629.036,11.581,0l-.4.531c.012.008,1.167.879,1.655,1.3a1.837,1.837,0,0,1,.544,1.79,11.657,11.657,0,0,1-3.2,6.285,13.343,13.343,0,0,1-6.8,3.361A3.06,3.06,0,0,1,.991,12.41c-.232-.241-.33-.406-.326-.549a1.062,1.062,0,0,1,.406-.625c.421-.4,1.506-1.472,1.832-1.8a.75.75,0,0,1,.508-.256.779.779,0,0,1,.526.281c.1.105.19.191.269.27.171.17.31.308.535.562.587.66,1.187.758,1.784.292.628-.49,3.2-3,3.57-3.367.489-.484,1.16-1.146.486-1.844-.237-.246-.545-.508-.843-.762-.233-.2-.454-.387-.6-.53A.364.364,0,0,1,9.1,3.53c.325-.4,1.727-1.791,1.741-1.805l-.468-.471c-.059.058-1.442,1.431-1.789,1.858a1.019,1.019,0,0,0,.091,1.44c.162.164.393.361.638.57.286.243.581.5.8.718.145.15.217.225-.476.91-.586.58-2.956,2.883-3.511,3.316-.272.212-.481.237-.878-.21-.238-.268-.384-.412-.564-.592C4.6,9.186,4.513,9.1,4.411,9a1.407,1.407,0,0,0-1-.48,1.377,1.377,0,0,0-.981.45c-.325.324-1.4,1.392-1.82,1.785A1.6,1.6,0,0,0,0,11.845,1.469,1.469,0,0,0,.513,12.87a3.706,3.706,0,0,0,2.659,1.063" transform="translate(0)" fill="#006729" stroke="#006729" stroke-width="0.1"/>
          </g>
        </g>
        <path id="Trazado_15789" data-name="Trazado 15789" d="M5.732,2.411A2.416,2.416,0,0,0,3.178.664,2.37,2.37,0,0,0,.652,2.408L0,2.279a2.9,2.9,0,0,1,.571-1.15A3.179,3.179,0,0,1,3.178,0,3.22,3.22,0,0,1,5.8,1.127a2.939,2.939,0,0,1,.586,1.148Z" transform="translate(2.547 7.076) rotate(-45)" fill="#006729" stroke="#006729" stroke-width="0.1"/>
        <path id="Trazado_15790" data-name="Trazado 15790" d="M9.655,3.787a4.115,4.115,0,0,0-.823-1.573A4.566,4.566,0,0,0,5.129.664,4.5,4.5,0,0,0,1.451,2.211a4.04,4.04,0,0,0-.8,1.572L0,3.655A4.71,4.71,0,0,1,2.484.563,5.941,5.941,0,0,1,5.129,0,5.987,5.987,0,0,1,7.78.563,4.8,4.8,0,0,1,10.3,3.65Z" transform="translate(0 7.287) rotate(-45)" fill="#006729" stroke="#006729" stroke-width="0.1"/>
      </g>
    </g>
  </g>
</svg>
