<svg xmlns="http://www.w3.org/2000/svg" xmlns:xlink="http://www.w3.org/1999/xlink" width="34" height="34" viewBox="0 0 34 34">
  <defs>
    <clipPath id="clip-path">
      <path id="Mask" d="M12.5,24h-1a1.536,1.536,0,0,1,0-3.072h1a1.465,1.465,0,0,1,1.112.515H16a4.99,4.99,0,0,0,4.861-4.086H20a.983.983,0,0,1-.708-.3A1.036,1.036,0,0,1,19,16.337v-.105a7.922,7.922,0,0,1-14,0v.105a1.022,1.022,0,0,1-.293.722.981.981,0,0,1-.706.3l-1.45,0A2.512,2.512,0,0,1,0,14.89v-1.2a2.5,2.5,0,0,1,2-2.4V10.21A10.118,10.118,0,0,1,12,0,10.118,10.118,0,0,1,22,10.21v1.08a2.5,2.5,0,0,1,2,2.4v1.2a2.444,2.444,0,0,1-1.075,2,7.148,7.148,0,0,1-2.186,4.676A6.836,6.836,0,0,1,16,23.486H13.612A1.469,1.469,0,0,1,12.5,24ZM12,6.126A6.139,6.139,0,0,0,12,18.4,6.139,6.139,0,0,0,12,6.126Zm9.447,7.144H21v2.04h.444c.3,0,.556-.194.556-.423v-1.2C22,13.463,21.747,13.27,21.447,13.27Zm-18.9,0a.506.506,0,0,0-.55.421v1.2a.508.508,0,0,0,.553.423H3v-2.04H2.55ZM12,4.085a8.078,8.078,0,0,1,7.942,7.159.127.127,0,0,0,.026-.006.107.107,0,0,1,.03-.006l0-1.022a8.1,8.1,0,0,0-8-8.168A8.1,8.1,0,0,0,4,10.21v1.022a.108.108,0,0,1,.032.006.126.126,0,0,0,.026.006A8.077,8.077,0,0,1,12,4.085Z" transform="translate(0 0)" fill="#1a1446"/>
    </clipPath>
  </defs>
  <g id="Grupo_30115" data-name="Grupo 30115" transform="translate(-154 -8)">
    <g id="Group" transform="translate(154 8)">
      <circle id="Oval" cx="17" cy="17" r="17" fill="#009C49" opacity="0.25"/>
    </g>
    <g id="Custome_Service" data-name="Custome Service" transform="translate(159 13)">
      <g id="Grupo_198" data-name="Grupo 198" transform="translate(0 0)">
        <path id="Mask-2" data-name="Mask" d="M12.5,24h-1a1.536,1.536,0,0,1,0-3.072h1a1.465,1.465,0,0,1,1.112.515H16a4.99,4.99,0,0,0,4.861-4.086H20a.983.983,0,0,1-.708-.3A1.036,1.036,0,0,1,19,16.337v-.105a7.922,7.922,0,0,1-14,0v.105a1.022,1.022,0,0,1-.293.722.981.981,0,0,1-.706.3l-1.45,0A2.512,2.512,0,0,1,0,14.89v-1.2a2.5,2.5,0,0,1,2-2.4V10.21A10.118,10.118,0,0,1,12,0,10.118,10.118,0,0,1,22,10.21v1.08a2.5,2.5,0,0,1,2,2.4v1.2a2.444,2.444,0,0,1-1.075,2,7.148,7.148,0,0,1-2.186,4.676A6.836,6.836,0,0,1,16,23.486H13.612A1.469,1.469,0,0,1,12.5,24ZM12,6.126A6.139,6.139,0,0,0,12,18.4,6.139,6.139,0,0,0,12,6.126Zm9.447,7.144H21v2.04h.444c.3,0,.556-.194.556-.423v-1.2C22,13.463,21.747,13.27,21.447,13.27Zm-18.9,0a.506.506,0,0,0-.55.421v1.2a.508.508,0,0,0,.553.423H3v-2.04H2.55ZM12,4.085a8.078,8.078,0,0,1,7.942,7.159.127.127,0,0,0,.026-.006.107.107,0,0,1,.03-.006l0-1.022a8.1,8.1,0,0,0-8-8.168A8.1,8.1,0,0,0,4,10.21v1.022a.108.108,0,0,1,.032.006.126.126,0,0,0,.026.006A8.077,8.077,0,0,1,12,4.085Z" transform="translate(0 0)" fill="#1a1446"/>
        <g id="Enmascarar_grupo_198" data-name="Enmascarar grupo 198" clip-path="url(#clip-path)">
          <g id="White" transform="translate(0 0)">
            <rect id="Rectangle" width="24" height="24" fill="#fff"/>
          </g>
        </g>
      </g>
    </g>
  </g>
</svg>
