<svg xmlns="http://www.w3.org/2000/svg" width="14" height="16" viewBox="0 0 14 16">
  <g id="Icon_System_My_Account_16px" data-name="Icon/System/My Account/16px" transform="translate(-1)">
    <g id="Combined_Shape" data-name="Combined Shape">
      <path id="Combined_Shape-2" data-name="Combined Shape" d="M13,16A6,6,0,1,0,1,16H0a7,7,0,1,1,14,0ZM3,4A4,4,0,1,1,7,8,4,4,0,0,1,3,4ZM4,4A3,3,0,1,0,7,1,3,3,0,0,0,4,4Z" transform="translate(1)" fill="none"/>
      <path id="Combined_Shape-3" data-name="Combined Shape" d="M13,16A6,6,0,1,0,1,16H0a7,7,0,1,1,14,0ZM3,4A4,4,0,1,1,7,8,4,4,0,0,1,3,4ZM4,4A3,3,0,1,0,7,1,3,3,0,0,0,4,4Z" transform="translate(1)" fill="none"/>
      <path id="Combined_Shape-4" data-name="Combined Shape" d="M13,16A6,6,0,1,0,1,16H0a7,7,0,1,1,14,0ZM3,4A4,4,0,1,1,7,8,4,4,0,0,1,3,4ZM4,4A3,3,0,1,0,7,1,3,3,0,0,0,4,4Z" transform="translate(1)" fill="none"/>
      <path id="Combined_Shape-5" data-name="Combined Shape" d="M13,16A6,6,0,1,0,1,16H0a7,7,0,1,1,14,0ZM3,4A4,4,0,1,1,7,8,4,4,0,0,1,3,4ZM4,4A3,3,0,1,0,7,1,3,3,0,0,0,4,4Z" transform="translate(1)" fill="none"/>
      <path id="Combined_Shape-6" data-name="Combined Shape" d="M13,16A6,6,0,1,0,1,16H0a7,7,0,1,1,14,0ZM3,4A4,4,0,1,1,7,8,4,4,0,0,1,3,4ZM4,4A3,3,0,1,0,7,1,3,3,0,0,0,4,4Z" transform="translate(1)" fill="none"/>
      <path id="Combined_Shape-7" data-name="Combined Shape" d="M13,16A6,6,0,1,0,1,16H0a7,7,0,1,1,14,0ZM3,4A4,4,0,1,1,7,8,4,4,0,0,1,3,4ZM4,4A3,3,0,1,0,7,1,3,3,0,0,0,4,4Z" transform="translate(1)" fill="#fff"/>
    </g>
  </g>
</svg>
