<svg xmlns="http://www.w3.org/2000/svg" width="11.137" height="15.758" viewBox="0 0 11.137 15.758">
  <g id="Icon_System_Location_16px" data-name="Icon/System/Location/16px" transform="translate(-2.465 -0.054)">
    <g id="Combined_Shape" data-name="Combined Shape">
      <path id="Combined_Shape-2" data-name="Combined Shape" d="M5.429,15.638,4.9,14.875c.71-1.005,3.343-4.724,4.331-6.08A5.279,5.279,0,0,0,8.8,2.343a4.58,4.58,0,0,0-6.479,0,5.31,5.31,0,0,0-.431,6.45c.706.98,2.4,3.451,3,4.328l-.616.864h0l0,0c-.032-.046-.261-.38-.593-.864l.3.43-.3-.431c-.755-1.1-2.022-2.938-2.6-3.747a6.282,6.282,0,0,1,.535-7.741,5.579,5.579,0,0,1,7.893,0,6.254,6.254,0,0,1,.527,7.75c-1.044,1.432-4.017,5.648-4.527,6.372ZM3.4,5.539A2.206,2.206,0,1,1,5.608,7.745,2.207,2.207,0,0,1,3.4,5.539Zm1,0a1.206,1.206,0,1,0,1.206-1.2A1.207,1.207,0,0,0,4.4,5.539Z" transform="translate(2.464 0.054)" fill="none"/>
      <path id="Combined_Shape-3" data-name="Combined Shape" d="M5.429,15.638,4.9,14.875c.71-1.005,3.343-4.724,4.331-6.08A5.279,5.279,0,0,0,8.8,2.343a4.58,4.58,0,0,0-6.479,0,5.31,5.31,0,0,0-.431,6.45c.706.98,2.4,3.451,3,4.328l-.616.864h0l0,0c-.032-.046-.261-.38-.593-.864l.3.43-.3-.431c-.755-1.1-2.022-2.938-2.6-3.747a6.282,6.282,0,0,1,.535-7.741,5.579,5.579,0,0,1,7.893,0,6.254,6.254,0,0,1,.527,7.75c-1.044,1.432-4.017,5.648-4.527,6.372ZM3.4,5.539A2.206,2.206,0,1,1,5.608,7.745,2.207,2.207,0,0,1,3.4,5.539Zm1,0a1.206,1.206,0,1,0,1.206-1.2A1.207,1.207,0,0,0,4.4,5.539Z" transform="translate(2.464 0.054)" fill="none"/>
      <path id="Combined_Shape-4" data-name="Combined Shape" d="M5.429,15.638,4.9,14.875c.71-1.005,3.343-4.724,4.331-6.08A5.279,5.279,0,0,0,8.8,2.343a4.58,4.58,0,0,0-6.479,0,5.31,5.31,0,0,0-.431,6.45c.706.98,2.4,3.451,3,4.328l-.616.864h0l0,0c-.032-.046-.261-.38-.593-.864l.3.43-.3-.431c-.755-1.1-2.022-2.938-2.6-3.747a6.282,6.282,0,0,1,.535-7.741,5.579,5.579,0,0,1,7.893,0,6.254,6.254,0,0,1,.527,7.75c-1.044,1.432-4.017,5.648-4.527,6.372ZM3.4,5.539A2.206,2.206,0,1,1,5.608,7.745,2.207,2.207,0,0,1,3.4,5.539Zm1,0a1.206,1.206,0,1,0,1.206-1.2A1.207,1.207,0,0,0,4.4,5.539Z" transform="translate(2.464 0.054)" fill="none"/>
      <path id="Combined_Shape-5" data-name="Combined Shape" d="M5.429,15.638,4.9,14.875c.71-1.005,3.343-4.724,4.331-6.08A5.279,5.279,0,0,0,8.8,2.343a4.58,4.58,0,0,0-6.479,0,5.31,5.31,0,0,0-.431,6.45c.706.98,2.4,3.451,3,4.328l-.616.864h0l0,0c-.032-.046-.261-.38-.593-.864l.3.43-.3-.431c-.755-1.1-2.022-2.938-2.6-3.747a6.282,6.282,0,0,1,.535-7.741,5.579,5.579,0,0,1,7.893,0,6.254,6.254,0,0,1,.527,7.75c-1.044,1.432-4.017,5.648-4.527,6.372ZM3.4,5.539A2.206,2.206,0,1,1,5.608,7.745,2.207,2.207,0,0,1,3.4,5.539Zm1,0a1.206,1.206,0,1,0,1.206-1.2A1.207,1.207,0,0,0,4.4,5.539Z" transform="translate(2.464 0.054)" fill="none"/>
      <path id="Combined_Shape-6" data-name="Combined Shape" d="M5.429,15.638,4.9,14.875c.71-1.005,3.343-4.724,4.331-6.08A5.279,5.279,0,0,0,8.8,2.343a4.58,4.58,0,0,0-6.479,0,5.31,5.31,0,0,0-.431,6.45c.706.98,2.4,3.451,3,4.328l-.616.864h0l0,0c-.032-.046-.261-.38-.593-.864l.3.43-.3-.431c-.755-1.1-2.022-2.938-2.6-3.747a6.282,6.282,0,0,1,.535-7.741,5.579,5.579,0,0,1,7.893,0,6.254,6.254,0,0,1,.527,7.75c-1.044,1.432-4.017,5.648-4.527,6.372ZM3.4,5.539A2.206,2.206,0,1,1,5.608,7.745,2.207,2.207,0,0,1,3.4,5.539Zm1,0a1.206,1.206,0,1,0,1.206-1.2A1.207,1.207,0,0,0,4.4,5.539Z" transform="translate(2.464 0.054)" fill="none"/>
      <path id="Combined_Shape-7" data-name="Combined Shape" d="M5.429,15.638,4.9,14.875c.71-1.005,3.343-4.724,4.331-6.08A5.279,5.279,0,0,0,8.8,2.343a4.58,4.58,0,0,0-6.479,0,5.31,5.31,0,0,0-.431,6.45c.706.98,2.4,3.451,3,4.328l-.616.864h0l0,0c-.032-.046-.261-.38-.593-.864l.3.43-.3-.431c-.755-1.1-2.022-2.938-2.6-3.747a6.282,6.282,0,0,1,.535-7.741,5.579,5.579,0,0,1,7.893,0,6.254,6.254,0,0,1,.527,7.75c-1.044,1.432-4.017,5.648-4.527,6.372ZM3.4,5.539A2.206,2.206,0,1,1,5.608,7.745,2.207,2.207,0,0,1,3.4,5.539Zm1,0a1.206,1.206,0,1,0,1.206-1.2A1.207,1.207,0,0,0,4.4,5.539Z" transform="translate(2.464 0.054)" fill="#fff"/>
    </g>
  </g>
</svg>
