<svg id="Grupo_28818" data-name="Grupo 28818" xmlns="http://www.w3.org/2000/svg" xmlns:xlink="http://www.w3.org/1999/xlink" width="140" height="152" viewBox="0 0 140 152">
  <defs>
    <clipPath id="clip-path">
      <rect id="Rectángulo_6807" data-name="Rectángulo 6807" width="140" height="152" fill="none"/>
    </clipPath>
  </defs>
  <g id="Grupo_28817" data-name="Grupo 28817" clip-path="url(#clip-path)">
    <path id="Trazado_15811" data-name="Trazado 15811" d="M70,12A70,70,0,1,1,0,82,70,70,0,0,1,70,12" fill="#fff" stroke="#65a518" stroke-width="1" fill-rule="evenodd"/>
    <path id="Trazado_15812" data-name="Trazado 15812" d="M96.524,92.083c-4.225,4.226-7.641,5.024-8.467,5.161-.813-.132-4.225-.917-8.469-5.162-1.731-1.729-2.974-9.029-3.427-14.473,2.345-1.439,3.192-5.026,3.3-5.568.365-.71,3.55-2,8.584-2.04,5.052.04,8.238,1.33,8.583,1.975.007.04.014.08.023.12.107.5.953,4.076,3.3,5.513-.452,5.444-1.695,12.744-3.426,14.474m6.99-17.25a1.989,1.989,0,0,0-1.451-.627c-.394-.115-1.17-1.5-1.491-2.913-.458-2.647-3.444-3.965-6.427-4.627V53.307a2,2,0,0,0-2-2H83.051v4h7.094V66.094c-.935-.07-1.7-.09-2.111-.093-1.945.016-11.642.344-12.494,5.3-.286,1.274-1.059,2.785-1.485,2.907a2,2,0,0,0-2,2.118c.145,2.464,1.054,14.944,4.7,18.589,5.55,5.552,10.218,6.256,11.1,6.341.063.006.133.009.2.009h.008c.063,0,.125,0,.187-.01.878-.082,5.54-.774,11.1-6.339,3.649-3.646,4.555-16.126,4.7-18.591a1.985,1.985,0,0,0-.537-1.488M85.895,86.361l-3.426-3.426-2.828,2.828,5.025,5.025a2,2,0,0,0,1.414.586c.04,0,.081,0,.122,0a2,2,0,0,0,1.454-.765l8.975-11.486-3.152-2.463ZM54.983,52.121h3.512a2,2,0,0,0,2-2,4.116,4.116,0,1,1,8.232,0,2,2,0,0,0,2,2h3.508V57.6H54.983Zm-2,9.478a2,2,0,0,1-2-2V50.121a2,2,0,0,1,2-2h3.761a8.116,8.116,0,0,1,15.734,0h3.757a2,2,0,0,1,2,2V59.6a2,2,0,0,1-2,2Zm37.162,56.392V105.2h4v14.787a2,2,0,0,1-2,2H38a2,2,0,0,1-2-2V53.306a2,2,0,0,1,2-2h8.747v4H40v62.685Z" fill="#006729" fill-rule="evenodd"/>
  </g>
</svg>
