<?xml version="1.0" encoding="UTF-8"?>
<svg width="140px" height="152px" viewBox="0 0 140 152" version="1.1" xmlns="http://www.w3.org/2000/svg" xmlns:xlink="http://www.w3.org/1999/xlink">
    <!-- Generator: Sketch 52.5 (67469) - http://www.bohemiancoding.com/sketch -->
    <title>Group 2</title>
    <desc>Created with Sketch.</desc>
    <defs>
        <path d="M66.5239,50.0824 C62.2989,54.3084 58.8829,55.1064 58.0569,55.2434 C57.2439,55.1114 53.8319,54.3264 49.5879,50.0814 C47.8569,48.3524 46.6139,41.0524 46.1609,35.6084 C48.5059,34.1694 49.3529,30.5824 49.4629,30.0404 C49.8279,29.3304 53.0129,28.0404 58.0469,28.0004 C63.0989,28.0404 66.2849,29.3304 66.6299,29.9754 C66.6369,30.0154 66.6439,30.0554 66.6529,30.0954 C66.7599,30.5934 67.6059,34.1714 69.9499,35.6084 C69.4979,41.0524 68.2549,48.3524 66.5239,50.0824 M73.5139,32.8324 C73.1359,32.4314 72.6139,32.2054 72.0629,32.2054 C71.6689,32.0904 70.8929,30.7014 70.5719,29.2924 C70.1139,26.6454 67.1279,25.3274 64.1449,24.6654 L64.1449,11.3064 C64.1449,10.2014 63.2499,9.3064 62.1449,9.3064 L53.0509,9.3064 L53.0509,13.3064 L60.1449,13.3064 L60.1449,24.0934 C59.2099,24.0234 58.4489,24.0034 58.0339,24.0004 C56.0889,24.0164 46.3919,24.3444 45.5399,29.2964 C45.2539,30.5704 44.4809,32.0814 44.0549,32.2034 C43.5039,32.2034 42.9779,32.4304 42.5999,32.8314 C42.2219,33.2324 42.0259,33.7714 42.0589,34.3214 C42.2039,36.7854 43.1129,49.2654 46.7599,52.9104 C52.3099,58.4624 56.9779,59.1664 57.8579,59.2514 C57.9209,59.2574 57.9909,59.2604 58.0549,59.2604 L58.0629,59.2604 C58.1259,59.2604 58.1879,59.2564 58.2499,59.2504 C59.1279,59.1684 63.7899,58.4764 69.3519,52.9114 C73.0009,49.2654 73.9069,36.7854 74.0509,34.3204 C74.0849,33.7704 73.8919,33.2324 73.5139,32.8324 M55.895,44.3607 L52.469,40.9347 L49.641,43.7627 L54.666,48.7877 C55.041,49.1637 55.55,49.3737 56.08,49.3737 C56.12,49.3737 56.161,49.3727 56.202,49.3697 C56.773,49.3347 57.303,49.0557 57.656,48.6047 L66.631,37.1187 L63.479,34.6557 L55.895,44.3607 Z M24.9829,10.121 L28.4949,10.121 C29.5989,10.121 30.4949,9.225 30.4949,8.121 C30.4949,5.849 32.3389,4 34.6079,4 C36.8789,4 38.7269,5.849 38.7269,8.121 C38.7269,9.225 39.6229,10.121 40.7269,10.121 L44.2349,10.121 L44.2349,15.599 L24.9829,15.599 L24.9829,10.121 Z M22.9829,19.599 C21.8789,19.599 20.9829,18.703 20.9829,17.599 L20.9829,8.121 C20.9829,7.017 21.8789,6.121 22.9829,6.121 L26.7439,6.121 C27.6359,2.607 30.8239,0 34.6079,0 C38.3949,0 41.5859,2.607 42.4779,6.121 L46.2349,6.121 C47.3389,6.121 48.2349,7.017 48.2349,8.121 L48.2349,17.599 C48.2349,18.703 47.3389,19.599 46.2349,19.599 L22.9829,19.599 Z M60.145,75.9906 L60.145,63.2036 L64.145,63.2036 L64.145,77.9906 C64.145,79.0946 63.249,79.9906 62.145,79.9906 L8,79.9906 C6.896,79.9906 6,79.0946 6,77.9906 L6,11.3056 C6,10.2016 6.896,9.3056 8,9.3056 L16.747,9.3056 L16.747,13.3056 L10,13.3056 L10,75.9906 L60.145,75.9906 Z" id="path-1"></path>
        <polygon id="path-3" points="5.279 9.608 0.911 5.319 0 6.247 5.277 11.429 15.995 0.928 15.084 0"></polygon>
    </defs>
    <g id="DSK-Siniestros" stroke="none" stroke-width="1" fill="none" fill-rule="evenodd">
        <g id="Siniestros_step6" transform="translate(-605.000000, -789.000000)">
            <g id="Gracias" transform="translate(-8.000000, 606.000000)">
                <g id="Group-2" transform="translate(613.000000, 183.000000)">
                    <circle id="Oval" fill="#FFFFFF" cx="70" cy="82" r="70"></circle>
                    <g id="Elements-/-Icon-/-Liberty-/-Clipboard-2" transform="translate(30.000000, 42.000000)">
                        <mask id="mask-2" fill="white">
                            <use xlink:href="#path-1"></use>
                        </mask>
                        <use id="Fill-6" fill="#171343" fill-rule="evenodd" xlink:href="#path-1"></use>
                        <g id="Elements-/-Color-/-Secundario-/-Blue-1" mask="url(#mask-2)" fill="#1A1446" fill-rule="evenodd">
                            <rect id="Rectangle" x="0" y="0" width="80" height="80"></rect>
                        </g>
                    </g>
                    <g id="Group" transform="translate(58.000000, 0.000000)">
                        <circle id="Oval" fill="#28A3AF" fill-rule="nonzero" cx="12" cy="12" r="12"></circle>
                        <g id="Icon/Check" transform="translate(0.000000, 1.000000)">
                            <g id="Color/Liberty-Blue" transform="translate(4.000000, 6.000000)">
                                <mask id="mask-4" fill="white">
                                    <use xlink:href="#path-3"></use>
                                </mask>
                                <use id="Mask" fill="#1A1446" fill-rule="nonzero" xlink:href="#path-3"></use>
                                <g id="Color/White" mask="url(#mask-4)" fill="#FFFFFF" fill-rule="nonzero">
                                    <g transform="translate(-41.000000, -44.000000)" id="Rectangle-Copy-8">
                                        <polygon points="0 0 101 0 101 97 0 97"></polygon>
                                    </g>
                                </g>
                            </g>
                        </g>
                    </g>
                </g>
            </g>
        </g>
    </g>
</svg>