<?xml version="1.0" encoding="UTF-8"?>
<svg id="Capa_2" xmlns="http://www.w3.org/2000/svg" version="1.1" viewBox="0 0 471.8 455.3">
  <!-- Generator: Adobe Illustrator 29.5.1, SVG Export Plug-In . SVG Version: 2.1.0 Build 141)  -->
  <path d="M237.9,25.8v24.9c101.2,0,183.5,82.3,183.5,183.5s-82.3,183.5-183.5,183.5S54.3,335.4,54.3,234.2s22.4-102.4,61.7-137.3v64.1h24.9v-92.3c0-6.9-5.6-12.4-12.4-12.4H36.2v24.9h60.2C53.7,120.6,29.4,175.6,29.4,234.2c0,114.9,93.5,208.4,208.4,208.4s208.4-93.5,208.4-208.4S352.8,25.8,237.9,25.8Z" style="fill: #006927;"/>
  <path d="M296.9,316.5l18.3-16.9-64.9-70.3v-116.6h-24.9v121.4c0,3.1,1.2,6.1,3.3,8.4l68.2,73.9Z" style="fill: #006927;"/>
</svg>