<svg xmlns="http://www.w3.org/2000/svg" width="80.93" height="80.93" viewBox="0 0 80.93 80.93">
  <g id="Grupo_30282" data-name="Grupo 30282" transform="translate(14511.465 7174.5)">
    <circle id="Oval" cx="39.964" cy="39.964" r="39.964" transform="translate(-14510.965 -7174)" fill="#fff" stroke="#65a518" stroke-width="1"/>
    <g id="Lupa" transform="translate(-14475.071 -7138.054)">
      <g id="Iconos" transform="translate(-11.961 -16)">
        <g id="Icons_Search-Copy" data-name="Icons/Search-Copy" transform="translate(32.063 40.037) rotate(180)">
          <g id="Color_Liberty-Blue" data-name="Color/Liberty-Blue" transform="translate(0)">
            <path id="Mask" d="M21.137,39.622A13.9,13.9,0,0,1,8.246,36.24,14.195,14.195,0,0,1,5.617,18.651h0a2.708,2.708,0,0,1,.134-.24c.039-.063.075-.127.113-.19a11.667,11.667,0,0,1,.687-1.043,14.089,14.089,0,0,1,2.668-2.654h0v0l.026-.025.231.331,0,0h0l.466.691a1.117,1.117,0,0,1-.17,1.448,12.007,12.007,0,0,0,.012,17.644,11.647,11.647,0,0,0,10.8,2.835,11.976,11.976,0,1,0-6.608-22.99,1.1,1.1,0,0,1-.364.062A1.119,1.119,0,0,1,12.665,14h0L5.72,2.924a1.583,1.583,0,0,0-1.52-.68A2.359,2.359,0,0,0,2.331,3.4a.943.943,0,0,0,.135,1.022h0l5.941,8.82L6.688,14.7.627,5.7A3.169,3.169,0,0,1,.3,2.459,4.556,4.556,0,0,1,4.019.014C4.137,0,4.257,0,4.373,0A3.808,3.808,0,0,1,7.593,1.7h0L14.1,12.084a14.213,14.213,0,1,1,7.034,27.538Zm-4.275-5.114a9.026,9.026,0,0,1-4.456-1.846,9.706,9.706,0,0,1-3.555-6.945l2.229-.191A7.4,7.4,0,0,0,13.786,30.9a6.833,6.833,0,0,0,3.371,1.389Z" transform="translate(0)" fill="#006729"/>
          </g>
        </g>
      </g>
    </g>
  </g>
</svg>
