<svg id="Share_default_gris" xmlns="http://www.w3.org/2000/svg" width="18" height="18" viewBox="0 0 18 18">
  <text id="_75" transform="translate(22.133)" fill="#919191" font-size="14" font-family="HDIPro-Book, HDI Pro">
    <tspan x="0" y="15">75</tspan>
  </text>
  <path id="Send_G" d="M16.622,11.888l-12.487,5.7a.762.762,0,0,1-.77-.079A.836.836,0,0,1,3,16.776V5.376a.836.836,0,0,1,.365-.737.762.762,0,0,1,.77-.079l12.487,5.7a.907.907,0,0,1,0,1.632Zm-12,3.58,9.609-4.388L4.622,6.693V9.764l4.865,1.316L4.622,12.4Zm0,0v0Z" transform="translate(-3 -1.995)" fill="#919191"/>
</svg>
