<svg id="Icon-Account_Experience-Smartphone-16px" data-name="Icon-Account Experience-Smartphone-16px" xmlns="http://www.w3.org/2000/svg" width="13.5" height="24" viewBox="0 0 13.5 24">
  <g id="Combined_Shape" data-name="Combined Shape">
    <path id="Combined_Shape-2" data-name="Combined Shape" d="M.664,24A.686.686,0,0,1,0,23.293V.706A.685.685,0,0,1,.664,0H10.746V1.412H1.327V22.588H12.174V1.412h-.019V0h.682A.684.684,0,0,1,13.5.706V23.293a.685.685,0,0,1-.663.707ZM6,19.861a.755.755,0,1,1,.755.755A.755.755,0,0,1,6,19.861Z" fill="none"/>
    <path id="Combined_Shape-3" data-name="Combined Shape" d="M.664,24A.686.686,0,0,1,0,23.293V.706A.685.685,0,0,1,.664,0H10.746V1.412H1.327V22.588H12.174V1.412h-.019V0h.682A.684.684,0,0,1,13.5.706V23.293a.685.685,0,0,1-.663.707ZM6,19.861a.755.755,0,1,1,.755.755A.755.755,0,0,1,6,19.861Z" fill="none"/>
    <path id="Combined_Shape-4" data-name="Combined Shape" d="M.664,24A.686.686,0,0,1,0,23.293V.706A.685.685,0,0,1,.664,0H10.746V1.412H1.327V22.588H12.174V1.412h-.019V0h.682A.684.684,0,0,1,13.5.706V23.293a.685.685,0,0,1-.663.707ZM6,19.861a.755.755,0,1,1,.755.755A.755.755,0,0,1,6,19.861Z" fill="none"/>
    <path id="Combined_Shape-5" data-name="Combined Shape" d="M.664,24A.686.686,0,0,1,0,23.293V.706A.685.685,0,0,1,.664,0H10.746V1.412H1.327V22.588H12.174V1.412h-.019V0h.682A.684.684,0,0,1,13.5.706V23.293a.685.685,0,0,1-.663.707ZM6,19.861a.755.755,0,1,1,.755.755A.755.755,0,0,1,6,19.861Z" fill="none"/>
    <path id="Combined_Shape-6" data-name="Combined Shape" d="M.664,24A.686.686,0,0,1,0,23.293V.706A.685.685,0,0,1,.664,0H10.746V1.412H1.327V22.588H12.174V1.412h-.019V0h.682A.684.684,0,0,1,13.5.706V23.293a.685.685,0,0,1-.663.707ZM6,19.861a.755.755,0,1,1,.755.755A.755.755,0,0,1,6,19.861Z" fill="none"/>
    <path id="Combined_Shape-7" data-name="Combined Shape" d="M.664,24A.686.686,0,0,1,0,23.293V.706A.685.685,0,0,1,.664,0H10.746V1.412H1.327V22.588H12.174V1.412h-.019V0h.682A.684.684,0,0,1,13.5.706V23.293a.685.685,0,0,1-.663.707ZM6,19.861a.755.755,0,1,1,.755.755A.755.755,0,0,1,6,19.861Z" fill="#006729"/>
  </g>
</svg>
