<?xml version="1.0" encoding="UTF-8"?>
<svg id="Capa_2" xmlns="http://www.w3.org/2000/svg" version="1.1" viewBox="0 0 521.7 370.4">
  <!-- Generator: Adobe Illustrator 29.5.1, SVG Export Plug-In . SVG Version: 2.1.0 Build 141)  -->
  <path d="M112.8,212c-3.5,0-7.1,0-10.6,0-1.6,0-3.2,0-4.9,0-1.6,0-3.3,0-4.9,0-1.6,0-3.2,0-4.9,0s-4,0-6,0c-4,0-6.6,2.3-6.7,5.7,0,1.7.5,3.2,1.5,4.3,1.1,1.2,2.7,1.8,4.7,1.9,10.5.2,21.3.2,32.2,0,2,0,3.6-.7,4.7-1.8,1-1.1,1.6-2.6,1.5-4.4,0-3.4-2.7-5.7-6.7-5.7Z" style="fill: #659f18;"/>
  <path d="M262.2,211.9c-3.4,0-7,1.6-7.1,5.9,0,5.6,5.4,6.1,7.1,6.1,3.5,0,7.1,0,10.6,0,1.5,0,3,0,4.5,0h0c1.7,0,3.3,0,5,0,3.6,0,7.2,0,10.8,0,4.2-.1,6.8-2.5,6.7-6.2,0-4.2-3.6-5.8-6.9-5.8-9.3,0-19,0-30.8,0Z" style="fill: #006927;"/>
  <path d="M442.4,153.9c-1.4,0-2.7,0-4.1,0-1.3,0-2.7,0-4.1,0-2.9,0-5.9,0-8.9,0-2.1,0-4.4,1-4.4,3.7,0,1.2.3,2.1,1,2.8.7.7,1.8,1.2,3.1,1.2,9.1.2,18.1.2,26.8,0,1.3,0,2.4-.4,3.1-1.2.7-.7,1-1.7,1-2.8,0-2.7-2.4-3.6-4.5-3.7-3,0-6.1,0-9.1,0Z" style="fill: #006927;"/>
  <path d="M84.8,189.1h205.1c2.1,0,4.1-1,5.4-2.6,1.3-1.7,1.8-3.8,1.2-5.8,0-.2,0-.4-.1-.6-.1-.6-.3-1.2-.5-1.9-2-5.5-4-11-6-16.5-5.6-15.6-11.4-31.6-17.1-47.5-2.4-6.8-8.4-6.9-10.4-6.9h0c-48,0-99.2,0-149.9,0h0c-5.3,0-8.9,2.6-10.7,7.6-5.3,14.9-10.8,30-16,44.6-2.1,5.7-4.1,11.5-6.2,17.2-.3.9-.6,1.8-.8,2.6-.1.4-.2.7-.3,1.1-.6,2.1-.2,4.3,1.1,6,1.3,1.7,3.3,2.8,5.5,2.8ZM98.4,164c5.1-14.1,10.4-28.8,15.5-43.2,49.6,0,99.7,0,146.7,0,5.4,15.2,11,30.5,16.3,45.4,1.1,3.1,2.2,6.1,3.3,9.2H94.3c1.4-3.8,2.8-7.6,4.1-11.4Z" style="fill: #006927;"/>
  <path d="M117.9,222c-1.1,1.2-2.7,1.8-4.7,1.8-10.9.2-21.8.2-32.2,0-2,0-3.6-.7-4.7-1.9-1.1-1.1-1.6-2.6-1.5-4.3.1-3.4,2.8-5.7,6.7-5.7,2,0,4,0,6,0s3.3,0,4.9,0c1.6,0,3.3,0,4.9,0,1.6,0,3.2,0,4.9,0,3.5,0,7.1,0,10.6,0,4,0,6.6,2.3,6.7,5.7,0,1.8-.5,3.3-1.5,4.4Z" style="fill: #006927;"/>
  <path d="M299.9,217.7c0,3.7-2.5,6.1-6.7,6.2-3.6,0-7.2,0-10.8,0-1.7,0-3.3,0-5,0h0c-1.5,0-3,0-4.5,0-3.5,0-7.1,0-10.6,0-1.7,0-7.2-.5-7.1-6.1,0-4.3,3.7-5.8,7.1-5.9,11.7,0,21.5,0,30.8,0,3.3,0,6.8,1.5,6.9,5.8Z" style="fill: #006927;"/>
  <path d="M365.4,152.5c-2.1-6.2-6.9-9.8-13.1-9.9-9.5,0-19.7,0-31.3,0-2.5,0-4.8.6-6.7,1.7-.5-1.4-1-2.8-1.5-4.1-4.9-13.7-9.6-26.6-14.4-39.7-5.2-14.2-16.2-22-31.1-22-51.5,0-105.2,0-159.8,0-14.9,0-25.9,7.8-31.1,21.9-2.6,7-5.1,14.1-7.6,21-1.3,3.6-2.6,7.3-3.9,10.9-1.5,4-2.9,8-4.4,12.1-1.9-1.1-4.2-1.6-6.6-1.7-9.4,0-19.4,0-31.3,0-6.4,0-11.3,3.7-13.2,9.9-.6,1.9-1.1,3.8-1.6,5.7-.2.8-.4,1.6-.6,2.3-.2.6-.2,1.2-.2,1.8v6.8c0,.6,0,1.2.2,1.8l.4,1.6c.3,1.2.7,2.4,1,3.6,2.7,9.5,6.9,12.7,16.9,12.7h7.3c1.7,0,3.5,0,5.2,0-1.5,3.3-2.3,7.1-2.3,11.4,0,13.4,0,26.8,0,40.2,0,21,0,42.6,0,63.9,0,10.5,6,16.5,16.5,16.6,5.9,0,11.8,0,17.8,0s11.9,0,17.9,0c10.4,0,16.4-6.1,16.5-16.5,0-5.5,0-11,0-16.4,0-2.4,0-4.7,0-7.1v-5.8h56.8v-13.7h-63.6c-3.8,0-6.8,3.1-6.8,6.8v12.6c0,2.4,0,4.7,0,7.1,0,5.3,0,10.8,0,16.2,0,1.7-.3,2.4-.4,2.6-.2,0-.9.4-2.6.4-11.9,0-23.9,0-35.5,0-1.7,0-2.4-.3-2.6-.4,0-.2-.4-.9-.4-2.6,0-21.3,0-43,0-63.9,0-13.4,0-26.8,0-40.2,0-5.3,1.8-8.3,6.1-10.3,1.3-.6,2.2-1.4,2.8-2,.2-.2.4-.4.6-.6,2.1-1.8,2.9-4.7,2-7.4-.9-2.6-3.3-4.5-6.1-4.6-.6,0-1.1,0-1.5-.1-1,0-1.8-.1-2.7-.1-5.9,0-11.8,0-17.8,0h-7.3c-1.6,0-2.4,0-2.9-.1-.2-.4-.5-1.2-.9-2.6-.3-1.2-.6-2.3-1-3.5l-.2-.8v-5c.1-.5.3-1,.4-1.6.5-1.8.9-3.4,1.4-5.1,0-.2,0-.3.1-.3,0,0,0,0,.2,0,11.9,0,21.7,0,31.1,0,0,0,0,0,0,0,0,0,0,.2.1.4.3,1,.6,1.9.9,3.1l.7,2.1c.9,2.8,3.4,4.7,6.4,4.8,2.9,0,5.6-1.7,6.6-4.5l3.1-8.6c2.1-5.7,4.1-11.2,6.1-16.8,1.3-3.6,2.6-7.3,3.9-10.9,2.5-6.9,5-14,7.6-20.9,3.3-8.9,9.1-13,18.3-13,54.5,0,108.3,0,159.7,0,9.2,0,15,4.2,18.3,13.1,4.8,13.1,9.5,26,14.4,39.7,2.1,5.7,4.2,11.5,6.3,17.3,1,2.8,3.6,4.6,6.6,4.5,2.9,0,5.5-2,6.4-4.8l.6-2c.4-1.2.7-2.2,1-3.1,0-.2.1-.3.2-.4,0,0,.1,0,.2,0,11.5,0,21.7,0,31.1,0,0,0,0,0,0,0,0,.1.1.3.2.6,2,5.9,2.1,11.3.3,16.5-.3.9-.6,1.4-.7,1.7-.2,0-.7,0-1.4,0-4.8,0-9.7,0-14.5,0-4,0-8,0-11.9,0-.9,0-1.7,0-2.7.1-.5,0-1,0-1.5.1-2.8.2-5.2,2-6.1,4.6-.9,2.6,0,5.5,2,7.4.3.2.5.4.7.6.6.6,1.4,1.3,2.8,1.9,3.2,1.4,6.2,3.8,6.1,10.9,0,16.9,0,34,0,50.6,0,6.6,0,13.3,0,19.9v9.5c0,7.6,0,15.1,0,22.7,0,2.1-.3,3-.4,3.3-.3.1-1.2.4-3.2.4-11.2,0-22.7,0-34.2,0-2.1,0-2.9-.3-3.2-.4-.1-.3-.4-1.2-.4-3.2,0-7.3,0-14.6,0-21.8v-13.5c0-3.8-3.1-6.8-6.8-6.8h-116v13.7h109.2v6.7c0,7.3,0,14.6,0,21.9,0,11.4,5.8,17.2,17.2,17.3,11.6,0,23.1,0,34.3,0,11.4,0,17.2-5.8,17.2-17.3,0-7.6,0-15.1,0-22.7v-9.5c0-6.6,0-13.3,0-19.9,0-16.6,0-33.7,0-50.6,0-4.9-.9-8.9-2.4-12.1,4.7,0,9.3,0,14,0,7.8,0,12.4-3.4,15-11,2.7-8.1,2.6-16.6-.3-25.3ZM284.4,307h0Z" style="fill: #006927;"/>
  <path d="M424.2,78c4.2,11.8,8.5,23.8,12.7,35.4,1,2.6,1.9,5.3,2.9,7.9h-58.7c-3.8,0-6.8,3.1-6.8,6.8,0,3.8,3.1,6.8,6.8,6.8h68.2c2.2,0,4.2-1,5.5-2.8,1.3-1.7,1.7-4,1.1-6,0-.3-.2-.6-.3-.9-.2-.7-.4-1.5-.7-2.3-1.7-4.8-3.4-9.5-5.2-14.3-4.4-12.2-9-24.8-13.4-37.2-1.8-4.1-6-5.9-9-4.9-3.5,1.2-5.9,6.6-3.2,11.5Z" style="fill: #006927;"/>
  <path d="M514.7,109.7c-.2-.7-.4-1.3-.5-2-.4-1.6-.8-3.2-1.4-4.8-1.8-5.6-6.3-9-12.1-9.1-10,0-18.3,0-26.1,0-1.8,0-3.4.3-4.9.9-1.1-3-2.2-6-3.2-8.9-1.1-3-2.2-6.1-3.3-9.1-2.1-5.7-4.2-11.7-6.3-17.5-4.5-12.3-14.1-19-27-19.1-43.2,0-84.1,0-125.1,0-7,0-13.6,3.2-17.9,8.7l-6.4,8.2c-2.3,3-1.8,7.3,1.2,9.6,3,2.3,7.3,1.8,9.6-1.2l6.4-8.2c1.7-2.2,4.4-3.5,7.2-3.5,40.9,0,81.8,0,125.1,0,7.2,0,11.7,3.2,14.2,10.1,2.1,5.8,4.3,11.7,6.3,17.4,1.1,3,2.2,6.1,3.3,9.1,1.7,4.7,3.4,9.5,5.2,14.4l2.4,6.7c1,2.8,3.7,4.6,6.6,4.5,2.9,0,5.5-2,6.4-4.8l.5-1.6c.3-.8.5-1.6.7-2.3,7.4,0,15.2,0,24.5,0,.4,1.2.7,2.4,1,3.7.1.4.2.8.3,1.2v3.8s-.2.6-.2.6c-.3.9-.5,1.9-.8,2.8-.2.6-.3,1.1-.4,1.4-.4,0-.9,0-1.6,0h-6.1c-4.9,0-9.9,0-14.8,0-.8,0-1.5,0-2.3.1-.4,0-.8,0-1.3,0-2.8.2-5.2,2-6.1,4.6-.9,2.6-.1,5.5,2,7.4.2.2.4.3.5.5.5.5,1.3,1.3,2.6,1.8,2.7,1.2,4.4,2.9,4.4,7.5,0,11.1,0,22.2,0,33.4,0,17.8,0,35.7,0,53.5,0,.6,0,1,0,1.3-.3,0-.7,0-1.2,0-9.7,0-19.7,0-29.6,0-.6,0-1,0-1.2,0,0-.3,0-.7,0-1.3,0-4.5,0-9.1,0-13.5,0-2,0-4,0-5.9v-10.5c0-3.8-3.1-6.8-6.8-6.8h-69.1c-3.8,0-6.8,3.1-6.8,6.8s3.1,6.8,6.8,6.8h62.3v3.7c0,2,0,3.9,0,5.9,0,4.5,0,9.1,0,13.7,0,9.4,5.5,14.9,14.9,14.9,5,0,10,0,14.9,0s9.9,0,14.8,0c9.4,0,14.9-5.5,14.9-15,0-17.8,0-35.7,0-53.5,0-11.1,0-22.2,0-33.4,0-3.1-.5-5.9-1.4-8.4.9,0,1.8,0,2.7,0h6.1c8.8,0,12.8-3,15.2-11.4.3-1,.5-1.9.8-2.9l.4-1.4c.2-.6.2-1.2.2-1.8v-5.6c0-.6,0-1.2-.2-1.8Z" style="fill: #006927;"/>
  <path d="M456,157.6c0,1.1-.3,2.1-1,2.8-.7.8-1.8,1.2-3.1,1.2-8.7.2-17.8.2-26.8,0-1.3,0-2.4-.4-3.1-1.2-.7-.7-1-1.7-1-2.8,0-2.7,2.3-3.6,4.4-3.7,2.9,0,5.9,0,8.9,0,1.4,0,2.7,0,4.1,0,1.4,0,2.7,0,4.1,0,3,0,6.1,0,9.1,0,2.1,0,4.4,1,4.5,3.7Z" style="fill: #006927;"/>
</svg>