<svg xmlns="http://www.w3.org/2000/svg" width="19.397" height="19.751" viewBox="0 0 19.397 19.751">
  <g id="_2071331" data-name="2071331" transform="translate(0.3 0.313)">
    <path id="Trazado_698" data-name="Trazado 698" d="M326.95-684.649a9.4,9.4,0,0,0-4.526,1.548,9.285,9.285,0,0,0-3.175,3.656,9.176,9.176,0,0,0-.795,2.492,10.2,10.2,0,0,0-.064,2.561,10.684,10.684,0,0,0,1.054,3.458l.154.3-.358,1.068c-.2.588-.556,1.659-.8,2.381S318-665.85,318-665.821s.038.064.084.082c.076.029.084.041.07.131s-.015.1.052.079c.119-.038,2.724-.867,3.824-1.222.576-.183,1.071-.335,1.1-.335a1.263,1.263,0,0,1,.277.114,9.429,9.429,0,0,0,3.408.966,11.4,11.4,0,0,0,1.918-.047,9.123,9.123,0,0,0,6.6-4.273A10.894,10.894,0,0,0,336.5-673.1a9.665,9.665,0,0,0,.279-2.858,9.213,9.213,0,0,0-2.564-5.871A9.256,9.256,0,0,0,328.7-684.6,15.636,15.636,0,0,0,326.95-684.649Zm1.138,1.991a7.419,7.419,0,0,1,2.791.754,7.6,7.6,0,0,1,3,2.637,6.7,6.7,0,0,1,1.08,2.849,9.775,9.775,0,0,1,0,1.979,7.469,7.469,0,0,1-6.9,6.453,7.468,7.468,0,0,1-3.528-.623,7.719,7.719,0,0,1-.987-.533.331.331,0,0,0-.143-.07c-.026,0-.646.189-1.374.422s-1.327.422-1.33.416.18-.573.41-1.26.419-1.287.419-1.333a.661.661,0,0,0-.128-.262,7.508,7.508,0,0,1-1.022-6.191,5.985,5.985,0,0,1,.451-1.135,7.639,7.639,0,0,1,2.561-2.858A7.564,7.564,0,0,1,328.088-682.658Z" transform="translate(-318 684.657)" fill="#ffffff" stroke="#006729" stroke-width="0.6"/>
    <path id="Trazado_699" data-name="Trazado 699" d="M487.374-524.47a1.022,1.022,0,0,0-.181.082,3.342,3.342,0,0,0-.59.631,2.438,2.438,0,0,0-.222,2,5.434,5.434,0,0,0,.72,1.514,9.133,9.133,0,0,0,1.228,1.572,6.07,6.07,0,0,0,2.232,1.529,6.25,6.25,0,0,0,1.461.474,2.6,2.6,0,0,0,.872-.14,2.1,2.1,0,0,0,.9-.631,2.733,2.733,0,0,0,.332-1.1l.014-.229-.075-.087a4.3,4.3,0,0,0-.708-.424c-1.04-.559-1.173-.612-1.336-.525a2.318,2.318,0,0,0-.339.344c-.429.5-.518.585-.59.585a4.672,4.672,0,0,1-.97-.494,4.643,4.643,0,0,1-.8-.676,5.676,5.676,0,0,1-.855-1.17l-.043-.087.173-.19a1.623,1.623,0,0,0,.414-.645.762.762,0,0,0-.048-.7c-.123-.32-.221-.585-.392-1.045-.14-.378-.243-.532-.388-.578A2.836,2.836,0,0,0,487.374-524.47Z" transform="translate(-480.806 529.895)" fill="#ffffff" stroke="#006729" stroke-width="0.6"/>
  </g>
</svg>
