<svg xmlns="http://www.w3.org/2000/svg" xmlns:xlink="http://www.w3.org/1999/xlink" width="28.811" height="28.882" viewBox="0 0 28.811 28.882">
<defs>
<clipPath id="clip-path">
<rect id="Rectángulo_2092" data-name="Rectángulo 2092" width="28.811" height="28.882" fill="#565656"/>
</clipPath>
</defs>
<g id="Grupo_14380" data-name="Grupo 14380" transform="translate(0 0)">
<g id="Grupo_14379" data-name="Grupo 14379" transform="translate(0 0)" clip-path="url(#clip-path)">
<path id="Trazado_5355" data-name="Trazado 5355" d="M0,28.881l2.071-7.725A14.3,14.3,0,1,1,7.765,26.8Zm8.151-4.975.489.291a11.605,11.605,0,1,0-3.971-3.935l.3.493L3.814,25.068Z" transform="translate(0 0)" fill="#565656"/>
<path id="Trazado_5356" data-name="Trazado 5356" d="M21.573,17.993a2.4,2.4,0,0,0-2.043-.46C19,17.749,18.661,18.58,18.317,19a.508.508,0,0,1-.658.143,9.255,9.255,0,0,1-4.618-3.956.566.566,0,0,1,.072-.773,3.132,3.132,0,0,0,.839-1.362,2.978,2.978,0,0,0-.375-1.612,3.815,3.815,0,0,0-1.19-1.793,1.631,1.631,0,0,0-1.771.263A3.6,3.6,0,0,0,9.37,12.762a4.039,4.039,0,0,0,.112.9,7.465,7.465,0,0,0,.868,2,15.87,15.87,0,0,0,.9,1.377,13.988,13.988,0,0,0,3.926,3.645,11.87,11.87,0,0,0,2.448,1.164,5.434,5.434,0,0,0,2.85.451,3.451,3.451,0,0,0,2.584-1.922,1.674,1.674,0,0,0,.12-.981c-.148-.676-1.062-1.077-1.609-1.4" transform="translate(-1.721 -1.743)" fill="#565656" fill-rule="evenodd"/>
</g>
</g>
</svg>
